<?xml version='1.0' encoding='utf-8'?>
<svg xmlns="http://www.w3.org/2000/svg" width="67" height="33" viewBox="0 0 67 33" fill="none">
<path fill-rule="evenodd" clip-rule="evenodd" d="M2.54945 28.4966C2.95844 28.989 3.66346 29.848 4.37238 30.699C5.11246 31.6564 6.09794 32.3892 7.22364 32.8148C7.50798 32.929 7.80791 32.9881 8.11173 32.9881C9.54905 32.929 10.8968 32.4444 12.2406 31.9874C13.1248 31.6919 13.9934 31.357 14.8815 31.0772C16.0656 30.6911 17.2576 30.3759 18.4456 30.0174C19.6336 29.6588 20.7905 29.2727 21.9707 28.9142C23.5405 28.4335 25.118 27.9804 26.6877 27.4879C27.9498 27.1018 29.1962 26.6527 30.4583 26.2547C31.7164 25.8528 32.9628 25.4864 34.2171 25.1003C34.8208 24.9112 35.4168 24.6945 36.0166 24.4975C37.0216 24.1705 38.0265 23.8592 39.0276 23.5243C40.0949 23.1697 41.1583 22.7954 42.2216 22.429C42.7864 22.236 43.4213 22.1532 43.9082 21.838C44.8353 21.2431 45.7156 20.5733 46.5453 19.8405C47.3516 19.1825 47.8774 18.2408 48.0176 17.2007C48.115 16.3063 48.1462 15.3962 48.1656 14.5097C48.1656 14.2536 48.228 14.1472 48.4695 14.0723C49.1277 13.8596 49.7743 13.6232 50.4209 13.3829C52.1699 12.7406 53.9188 12.0905 55.6599 11.4404C56.5013 11.1292 57.3465 10.8258 58.1801 10.5067C59.1812 10.1206 60.1666 9.70686 61.1677 9.35227C62.4141 8.91099 63.6762 8.51306 64.9304 8.08754C65.5108 7.8866 65.5926 7.60686 65.2459 7.09467C65.1524 6.96071 65.0512 6.83069 64.9421 6.70855C64.2682 6.01906 63.7385 5.20349 63.3762 4.30911C62.9556 3.24532 62.9322 2.0594 63.31 0.979845C63.4425 0.739507 63.4152 0.44007 63.2399 0.231252C63.0257 0.00667402 62.6946 -0.0563654 62.418 0.0775934C61.1638 0.526749 59.9057 0.971965 58.6397 1.38566C57.8802 1.63388 57.0856 1.8033 56.3221 2.0594C55.2198 2.42581 54.1408 2.84739 53.0385 3.2138C51.7998 3.63144 50.5456 4.00574 49.2991 4.41943C48.0527 4.83313 46.8686 5.25077 45.6494 5.66052C45.0417 5.86146 45.1819 5.8654 44.8236 5.38078C43.955 4.14758 42.7007 3.24926 41.2595 2.83163C40.4415 2.62675 39.6119 2.47703 38.7744 2.39035C38.2564 2.28791 37.7266 2.28003 37.2086 2.36671C35.7206 2.75283 34.2405 3.19017 32.7953 3.726C30.8789 4.47853 28.9275 5.13257 26.9448 5.68416C26.3567 5.83388 25.7646 5.97178 25.192 6.16878C23.9183 6.59823 22.664 7.06709 21.3903 7.50442C20.8061 7.70536 20.1945 7.83932 19.6102 8.0442C19.026 8.24908 18.5585 8.50518 18.0132 8.67853C16.1708 9.26165 14.3089 9.76202 12.5288 10.5343C11.3174 11.0583 10.032 11.401 8.78559 11.8344C7.81959 12.1733 6.86139 12.5358 5.90318 12.8904C4.85148 13.2765 3.7959 13.6586 2.75199 14.0881C2.11708 14.2969 1.54839 14.6752 1.10824 15.1834C0.286359 16.1881 0.146134 17.4134 0.0292791 18.6348C-0.0603096 20.002 0.0565452 21.377 0.368158 22.7127C0.78494 24.7457 1.52112 26.6999 2.54555 28.4966H2.54945Z" fill="#010E22" />
<path fill-rule="evenodd" clip-rule="evenodd" d="M65.02 4.9948C65.094 5.08542 65.2225 5.25878 65.3705 5.42425C65.5965 5.71975 65.986 5.82613 66.3287 5.68823C66.7027 5.56609 66.9637 5.22332 66.9831 4.82538C67.0922 3.62763 66.6676 2.4417 65.8224 1.59461C65.5809 1.24789 65.1446 1.10605 64.7473 1.23607C64.2916 1.41731 64.2215 1.83889 64.1864 2.27228V2.41018C64.1864 3.31243 64.5603 4.10831 65.0239 4.99086L65.02 4.9948Z" fill="#010E22" />
<path fill-rule="evenodd" clip-rule="evenodd" d="M2.54941 28.4966C1.52109 26.7 0.784906 24.7458 0.372019 22.7128C0.0643014 21.3771 -0.0486582 20.0021 0.0448256 18.6349C0.157785 17.4135 0.298011 16.1882 1.11599 15.1717C1.55615 14.6634 2.12484 14.2852 2.75975 14.0764C3.80365 13.6627 4.85924 13.2726 5.91093 12.8786C6.86914 12.5201 7.81177 12.1576 8.79335 11.8227C10.0359 11.3893 11.3213 11.0544 12.5366 10.5225C14.3167 9.75421 16.1786 9.25384 18.021 8.66678C18.5663 8.49342 19.0766 8.22157 19.618 8.03245C20.1594 7.84333 20.8138 7.69361 21.3981 7.49267C22.6679 7.05928 23.9221 6.59042 25.1998 6.15702C25.7723 5.96003 26.3644 5.82213 26.9526 5.67241C28.9274 5.12081 30.875 4.46284 32.7875 3.70637C34.217 3.17053 35.7128 2.74108 37.2007 2.34708C37.7188 2.2604 38.2524 2.26828 38.7666 2.37072C39.6079 2.4574 40.4454 2.60318 41.2634 2.80806C42.7046 3.22963 43.9627 4.13582 44.8275 5.37297C45.1858 5.85759 45.0456 5.85365 45.6532 5.65271C46.8724 5.24295 48.0877 4.8135 49.303 4.41162C50.5183 4.00974 51.7998 3.64333 53.0423 3.20599C54.1408 2.81988 55.2197 2.41406 56.326 2.05158C57.0855 1.79943 57.8762 1.63001 58.6436 1.37785C59.9095 0.964153 61.1676 0.518937 62.4219 0.0697809C62.6984 -0.0641779 63.0295 -0.00113848 63.2438 0.223439C63.4268 0.440137 63.4541 0.747455 63.3139 0.991732C62.936 2.07522 62.9594 3.25721 63.3801 4.321C63.7424 5.21537 64.276 6.03095 64.946 6.72044C65.055 6.84258 65.1602 6.96866 65.2498 7.10656C65.5964 7.61875 65.5146 7.89849 64.9343 8.09943C63.6839 8.52494 62.4219 8.92288 61.1715 9.36416C60.1666 9.72663 59.1811 10.1324 58.184 10.5186C57.3465 10.8377 56.5012 11.1411 55.6638 11.4523C53.9188 12.1024 52.1737 12.7525 50.4248 13.3947C49.7782 13.6351 49.1316 13.8715 48.4733 14.0842C48.2318 14.163 48.1773 14.2655 48.1695 14.5216C48.1695 15.4199 48.1189 16.33 48.0215 17.2126C47.8852 18.2488 47.3554 19.1944 46.5491 19.8523C45.7233 20.5852 44.843 21.251 43.9121 21.8499C43.4213 22.1651 42.7708 22.236 42.2255 22.4409C41.1621 22.827 40.0987 23.1816 39.0315 23.5362C38.0304 23.8711 37.0255 24.1824 36.0205 24.5094C35.4207 24.7064 34.8247 24.9231 34.2209 25.1122C32.9706 25.4983 31.7125 25.8805 30.4621 26.2666C29.2118 26.6527 27.9575 27.1098 26.6916 27.4998C25.1257 27.9923 23.5482 28.4454 21.9746 28.9261C20.7943 29.2846 19.6258 29.6707 18.4494 30.0293C17.2731 30.3878 16.0695 30.7188 14.8854 31.0891C14.0012 31.3689 13.1287 31.7038 12.2445 31.9992C10.8967 32.4563 9.55291 32.9409 8.11559 33C7.80788 32.9921 7.50016 32.9212 7.21971 32.7951C6.09401 32.3696 5.10464 31.6368 4.36845 30.6794C3.66732 29.8244 2.96619 28.9694 2.55331 28.4769L2.54941 28.4966ZM61.7753 1.89004C61.5572 1.9255 61.4559 1.92944 61.3624 1.95702L55.3288 4.01762L48.1033 6.48798C47.1373 6.81894 46.1713 7.15778 45.2053 7.49661C45.0534 7.56359 44.8742 7.50055 44.8002 7.35477C44.5236 6.96866 44.2354 6.58648 43.9277 6.23582C43.0123 5.12869 41.762 4.3604 40.3675 4.0452C38.7199 3.71425 37.0138 3.82457 35.4245 4.36828C33.7418 4.8726 32.0864 5.46753 30.4154 6.01125C29.3247 6.36978 28.2185 6.66922 27.1318 7.0514C25.5308 7.61087 23.9416 8.20581 22.3446 8.78892C20.5996 9.41144 18.8468 10.0142 17.1017 10.6249C15.7891 11.082 14.4803 11.5351 13.1676 12C11.6913 12.5082 10.2112 12.9968 8.74271 13.509C7.39499 13.9739 6.08232 14.4822 4.71512 14.9313C3.86598 15.1953 3.09473 15.672 2.4754 16.3103C2.26117 16.5034 2.10536 16.7555 2.02746 17.0353C1.86386 17.9966 1.7548 18.9658 1.70027 19.939C1.6769 21.4756 1.93008 23.0004 2.44035 24.4463C2.80649 25.6677 3.31676 26.8418 3.96335 27.9371C4.46973 28.8079 5.09295 29.6038 5.81355 30.2972C6.38225 30.8567 7.13401 31.1797 7.92473 31.2073C9.08159 31.1916 10.2307 30.9788 11.3213 30.5848C12.8794 30.0332 14.4608 29.5407 16.0461 29.0443C17.9197 28.473 19.8128 27.9332 21.6902 27.3777C22.7964 27.0507 23.8949 26.7158 24.9972 26.3848C25.9009 26.1169 26.8085 25.8647 27.7043 25.5771C29.3948 25.0255 31.0814 24.4503 32.7719 23.8947C34.2638 23.3983 35.7595 22.9295 37.2475 22.4251C39.012 21.8302 40.7765 21.2313 42.5254 20.5931C43.6316 20.2463 44.6483 19.6435 45.4896 18.8358C46.144 18.1582 46.701 17.4214 46.775 16.4443C46.849 15.4672 46.8919 14.3876 46.9036 13.3672C46.9036 13.0126 46.9581 12.8037 47.3165 12.6934C47.7644 12.5516 48.2007 12.3585 48.6369 12.1852C49.9613 11.6572 51.2778 11.1096 52.6022 10.6013C53.3617 10.3176 54.1252 10.1167 54.8848 9.83301C56.548 9.23808 58.1956 8.60374 59.8628 8.02063C60.8833 7.66209 61.9194 7.36659 62.9477 7.0514C63.3295 6.9332 63.4035 6.77166 63.1113 6.51162C62.3245 5.81031 62.0402 4.85684 61.7792 3.89549C61.5611 3.24145 61.5611 2.5362 61.7792 1.88216L61.7753 1.89004Z" fill="white" />
<path fill-rule="evenodd" clip-rule="evenodd" d="M65.02 4.99471C64.5487 4.12004 64.1786 3.32811 64.1825 2.41404V2.27614C64.2215 1.84668 64.2877 1.42116 64.7434 1.23993C65.1407 1.10597 65.577 1.25175 65.8185 1.59846C66.6637 2.44556 67.0883 3.63148 66.9792 4.82923C66.9598 5.22717 66.6988 5.56995 66.3249 5.69209C65.9821 5.82998 65.5926 5.71967 65.3667 5.42811C65.2264 5.25081 65.0979 5.07745 65.0161 4.99865L65.02 4.99471Z" fill="white" />
<path fill-rule="evenodd" clip-rule="evenodd" d="M61.7753 1.89001C61.5572 2.54011 61.5572 3.24142 61.7753 3.89152C62.0324 4.85287 62.3207 5.81422 63.1075 6.50765C63.3996 6.76375 63.3334 6.92529 62.9439 7.04743C61.9156 7.36262 60.8794 7.65812 59.8589 8.01666C58.1918 8.59583 56.5441 9.23411 54.8809 9.82904C54.1213 10.097 53.3423 10.2979 52.5983 10.5973C51.2701 11.1056 49.9379 11.6532 48.6331 12.1812C48.1968 12.3546 47.7606 12.5673 47.3126 12.6895C46.9309 12.7998 46.8997 13.0086 46.8997 13.3632C46.8997 14.3955 46.8491 15.4238 46.7712 16.4403C46.6933 17.4568 46.1402 18.1542 45.4858 18.8319C44.6522 19.6514 43.6395 20.2621 42.5333 20.6206C40.7843 21.2589 39.0198 21.8538 37.2553 22.4527C35.7674 22.957 34.2716 23.4259 32.7798 23.9223C31.0893 24.4778 29.4027 25.0531 27.7122 25.6047C26.8163 25.8923 25.9087 26.1444 25.005 26.4124C23.9027 26.7433 22.8043 27.0782 21.698 27.4052C19.8206 27.9608 17.9275 28.4966 16.054 29.0718C14.4725 29.5525 12.8911 30.045 11.3291 30.6124C10.2385 31.0103 9.09331 31.2191 7.93256 31.2349C7.14184 31.2073 6.39007 30.8803 5.82138 30.3247C5.09688 29.6274 4.47366 28.8354 3.97118 27.9647C3.32848 26.8654 2.81821 25.6953 2.44817 24.4739C1.93012 23.024 1.67304 21.4874 1.69641 19.9469C1.75094 18.9737 1.86001 18.0045 2.0236 17.0431C2.1015 16.7634 2.25731 16.5152 2.47155 16.3182C3.09088 15.6759 3.86212 15.2032 4.71126 14.9392C6.07457 14.49 7.39113 13.9818 8.73886 13.5168C10.2112 13.0047 11.6914 12.5161 13.1638 12.0078C14.4803 11.5469 15.7891 11.0938 17.1018 10.6328C18.8468 10.026 20.5996 9.41929 22.3446 8.79677C23.9417 8.22942 25.5309 7.61478 27.1318 7.05925C28.2147 6.67313 29.3209 6.37763 30.4154 6.0191C32.0864 5.47538 33.7419 4.86469 35.4246 4.37613C37.0177 3.83242 38.7199 3.7221 40.3675 4.05305C41.762 4.36431 43.0124 5.13655 43.9277 6.24368C44.2315 6.60221 44.5198 6.97651 44.8002 7.36263C44.8781 7.51234 45.0573 7.57144 45.2053 7.50446C46.1713 7.16563 47.1373 6.82679 48.1033 6.49583L55.3288 4.02548L61.3586 1.96487C61.452 1.92547 61.5572 1.92547 61.7714 1.89789L61.7753 1.89001ZM38.1979 7.21291C38.011 7.25231 37.8162 7.27595 37.6409 7.32323C35.8024 7.83936 33.9639 8.32398 32.1449 8.88739C30.6608 9.34443 29.2157 9.91966 27.7433 10.4043C26.2203 10.9125 24.6584 11.3814 23.112 11.8581C22.6095 12.0118 22.0876 12.1103 21.589 12.2797C20.8684 12.524 20.1673 12.8037 19.4544 13.0677C17.9314 13.635 16.4123 14.2221 14.8893 14.7658C13.4948 15.2623 12.0809 15.7114 10.6825 16.1881C9.28418 16.6649 7.77675 17.1928 6.31996 17.6853C5.93045 17.8114 5.63441 18.1266 5.52535 18.5245C4.93329 20.2621 4.93329 22.1533 5.52535 23.8908C5.80191 24.7221 6.07067 25.581 6.73285 26.1996C7.92866 27.354 9.25691 27.9529 10.9162 27.354C11.5862 27.1097 12.2679 26.9127 12.9456 26.7078C14.1103 26.3493 15.2749 25.9947 16.4435 25.6559C18.0444 25.1988 19.6492 24.7694 21.2501 24.3084C22.2161 24.0287 23.1743 23.7135 24.1364 23.414C25.6594 22.9334 27.2097 22.4684 28.7366 21.972C29.4962 21.7277 30.2362 21.4086 30.9958 21.1604C31.8878 20.8688 32.8265 20.6836 33.6873 20.3172C35.779 19.4268 37.9798 18.9107 40.1533 18.2566C41.2634 17.9926 42.2995 17.4883 43.1954 16.7752C44.3367 15.7626 44.6327 14.5215 44.3601 13.0677C44.1614 12.0394 43.7135 11.078 43.0552 10.2664C42.4359 9.43111 41.4114 9.00953 40.3948 9.17895C39.2224 9.30109 38.2174 10.0733 37.7928 11.1844C37.2787 12.3585 37.4462 14.0448 38.3382 14.951C39.2652 15.9005 40.7765 15.9084 41.7153 14.9707C41.9801 14.7067 42.1788 14.3876 42.2956 14.033C42.58 13.0756 42.1476 12.0472 41.2634 11.5902C40.7571 11.3065 40.278 11.1844 39.7794 11.5114C39.2808 11.8384 39.2418 12.3585 39.3626 12.9062C39.4171 13.1741 39.5028 13.3986 39.8339 13.3986C40.1494 13.4262 40.4299 13.1977 40.4649 12.8786C40.4922 12.7722 40.5623 12.591 40.609 12.5949C40.7726 12.591 40.9323 12.6382 41.0648 12.7289C41.4076 13.1071 41.3998 13.6902 41.0414 14.0566C40.4143 14.62 39.4522 14.5649 38.8952 13.9305C38.8017 13.8242 38.7238 13.706 38.6615 13.5759C38.2057 12.6816 38.42 11.5902 39.1795 10.9401C39.7132 10.3806 40.5234 10.1915 41.244 10.4634C41.8944 10.7392 42.432 11.2277 42.767 11.8542C43.1915 12.5791 43.3473 13.4381 43.2032 14.2694C43.1409 14.7028 42.9578 15.1125 42.6735 15.4474C42.284 15.8611 41.8243 16.2 41.318 16.4521C40.609 16.8146 39.7911 16.8776 39.0354 16.6294C37.8084 16.2236 37.1346 15.2544 36.6866 14.0763C36.3516 13.1583 36.4451 12.1891 36.5347 11.2474C36.6983 9.77388 37.267 8.37126 38.1785 7.20897L38.1979 7.21291Z" fill="#010E22" />
<path fill-rule="evenodd" clip-rule="evenodd" d="M38.1941 7.21692C37.2826 8.38709 36.7178 9.7976 36.562 11.279C36.4763 12.2167 36.379 13.2017 36.714 14.1079C37.1424 15.2899 37.8552 16.2552 39.0627 16.661C39.8184 16.9092 40.6364 16.8462 41.3453 16.4837C41.8517 16.2316 42.3074 15.8927 42.7008 15.479C42.9852 15.1441 43.1682 14.7383 43.2306 14.301C43.3747 13.4696 43.2189 12.6107 42.7943 11.8858C42.4593 11.2593 41.9218 10.7668 41.2713 10.495C40.5507 10.2271 39.7405 10.4122 39.2069 10.9717C38.4473 11.6218 38.2331 12.7132 38.6888 13.6075C39.0549 14.3719 39.9664 14.691 40.7221 14.3167C40.8467 14.2576 40.9597 14.1788 41.061 14.0882C41.4193 13.7218 41.4271 13.1387 41.0843 12.7604C40.9519 12.6659 40.7922 12.6186 40.6286 12.6265C40.5818 12.6265 40.5117 12.8038 40.4845 12.9102C40.4494 13.2293 40.169 13.4578 39.8535 13.4302C39.5224 13.4302 39.4367 13.2057 39.3821 12.9377C39.2653 12.3862 39.3003 11.8779 39.7989 11.543C40.2975 11.2081 40.7766 11.3342 41.283 11.6218C42.1633 12.0788 42.5995 13.1072 42.3152 14.0646C41.8945 15.3293 40.5429 16.0109 39.2925 15.5854C38.942 15.4672 38.6226 15.2663 38.3616 15.0023C37.4735 14.1 37.306 12.4098 37.8163 11.2357C38.2409 10.1246 39.2458 9.35238 40.4183 9.23024C41.4349 9.06476 42.4632 9.4824 43.0786 10.3177C43.7369 11.1254 44.1849 12.0907 44.3835 13.119C44.6562 14.5728 44.3835 15.81 43.2189 16.8265C42.323 17.5396 41.2869 18.0439 40.1768 18.3079C38.011 18.962 35.8103 19.482 33.7108 20.3685C32.8461 20.7546 31.9112 20.9201 31.0192 21.2117C30.2597 21.4599 29.5196 21.779 28.76 22.0233C27.237 22.5197 25.6945 22.9847 24.1599 23.4653C23.1978 23.7608 22.2395 24.076 21.2735 24.3597C19.6726 24.8207 18.0678 25.2501 16.4669 25.7072C15.2945 26.046 14.1337 26.4006 12.9691 26.7591C12.2874 26.964 11.6058 27.1453 10.9397 27.4053C9.26866 28.0042 7.94041 27.4053 6.75628 26.2509C6.09021 25.6165 5.82534 24.7576 5.54878 23.9421C4.95672 22.2045 4.95672 20.3134 5.54878 18.5758C5.64227 18.1661 5.9422 17.8312 6.33561 17.6933C7.7924 17.1929 9.24529 16.6847 10.7021 16.1882C12.1589 15.6918 13.5105 15.2623 14.9089 14.7659C16.4319 14.2182 17.951 13.6351 19.474 13.0678C20.1868 12.8038 20.8879 12.5201 21.6085 12.2798C22.1071 12.1104 22.6291 12.0119 23.1315 11.8582C24.6779 11.3815 26.2282 10.9126 27.7629 10.4043C29.2352 9.91973 30.6804 9.34844 32.1644 8.88746C33.9834 8.32011 35.822 7.83549 37.6605 7.3233C37.8319 7.27996 38.0344 7.25632 38.2097 7.22086L38.1941 7.21692Z" fill="white" />
</svg>