<?xml version='1.0' encoding='utf-8'?>
<svg xmlns="http://www.w3.org/2000/svg" id="Livello_1" version="1.1" viewBox="0 0 1080 1080">
  
  <defs>
    </defs>
  <path class="st0" d="M928.4,633c.4,0-4.4-.9-4-.8,1.1.2,2.9.6,3.9.8h0Z" />
  <path class="st0" d="M942.9,439.2c-8.9,22.3-38.2,18-52.5,4.2-10.2-10.3-12.3-25.3-18.2-38.1-7.3-17.1-21.8-29.5-31.1-45.2-3.1-5.2-5.2-11.2-7.4-16.8-3.2-7.5-7.5-13.6-13.3-18.8-7.8-5.7-16.3-11.1-23.3-18.5-8.7-8.4-15.9-18.7-20.7-29.8-3.6-8.1-7.1-19.4-15.2-23-3.8-1-8.3,2.1-13,2.2-11.8.7-25.6-14.9-36.3-20.8-9.6-6.3-20.4-9.9-30.8-14.1-8.6-3.4-17.1-7.3-25.7-10.7-12-4.8-25.1-4.5-37.8-5.4-19.1-1.7-38.2-5.7-57.1-9.6-21-5.4-43.7-8.7-64.8-2.7-7.6,1.9-15,4.3-22.5,6.2-9.4,2.6-19.1,4.1-28.4,6.9-11.4,3.4-21.4,9.3-32.1,13.8-9.6,4.3-19.9,7.2-29,12.7-8.8,5.3-16.8,12.8-25.1,19.3-17.3,14-37.8,25.4-55.3,38.8-9.2,7.6-14.8,18.3-22.2,27.4-9.6,11.8-24.2,18.4-33.8,30.1-9.7,11.4-16.4,25.5-24,38.7-18,29.9-23.6,40.6-29.2,75.3-2.8,14.6-7.3,28.8-9.8,43.5-3.9,23.3-2.3,47.2-.8,70.8,1,17.7,2.3,35.5,6.1,52.9,5.2,22.8,12.9,45.4,21.5,67,8.4,18.6,14.8,38.4,25.4,55.9,8.5,13.5,20.6,24.3,30.2,37.1,9,11.8,16.4,24.9,26.8,35.5,19.5,19.4,43.4,33.1,66.5,48,17.4,11.4,34.4,23.2,53.7,31.4,12.9,5.9,26.8,9,40.4,12.8,14.6,5.2,28.8,11.1,44.4,12.2,14.3.8,28.2,4.4,42.5,6,13.7,1.4,27.4-1.6,41.1-2.4,17.9-.4,35.4,1.5,52.4-4.6,12.3-4.1,25-6.7,37.6-9.6,14.7-3.5,28.4-10,41.9-16.9,109.3-55.1,198.8-154.6,223.4-276.7.7-3.3,1.3-6.3,1.8-8.6.9-4.3,1.3-6.2,1.2-5-.1,1-.7,4.5-1.5,9.4-10.8,62-38.5,124.7-78.1,175.5-9.5,11.4-21.2,20.4-31.5,31-8.5,8.7-15.9,18.6-25.1,26.6-16.4,14.5-36.2,24.2-55.1,34.9-25.7,14-49.6,31.7-77,41.9-7.6,2.9-15.4,5-23.4,6.4-31.4,5-62.7,11.4-94.6,13.5-18.7,1.5-37.2,1.9-55.8,0-20.4-2.4-39.4-13.3-59.9-14.7-16.6-2-30.9-9.3-46.1-15.7-9.9-4.3-19.1-9.5-28.9-14-13.2-5.8-25.1-13.6-36.8-22.2-7.6-5.6-15.3-11-22.4-17.1-7.5-6.6-14.2-13.9-21.6-20.4-10.9-10-23.6-18.3-32.6-30.4-5.8-6.7-11.3-13.5-17.6-19.8-7.7-7.8-16.6-14.7-22.2-24.2-6.4-10.5-8.7-23.4-14.3-34.6-4.5-10.2-12.4-18.1-18.3-27.3-6.3-9.9-7.6-22.2-10.2-33.5-2-9.7-5.9-16.7-8.6-25.2-2.8-8-4-16.5-5.9-24.9-4.4-23.3-18.5-45.1-16.5-69.2.2-11.1,4.4-22,3.3-33.1-1.2-10-2.8-20.3-3.5-30.5-.6-10.2,1.3-21.2,3.6-31.3,2.2-9.4,6.7-18.8,10-28.3,5.7-16.7,11.4-33.5,19.3-49.4,7.1-15.4,15.7-29.9,23.9-44.8,5.1-9.4,9.5-19.3,14.7-28.7,8.7-16.2,22.3-28.8,34.9-41.9,8.6-8.9,16.7-18.4,25.7-26.8,11.2-10.2,23.2-19.4,35.4-28.2,14.9-11.2,30.6-21.5,47.7-29.1,8.4-3.8,16.9-7.4,24.9-12,12.8-7.2,23.6-17.7,37.5-22.2,14.4-4.6,30.9-3.2,45.7-7.5,15.7-4,30.7-12,47.1-13.3,12-1.1,23.6,2.2,35,5.5,15.3,4.2,30.9,7,46.5,10.2,8.7,1.5,17.6,3,26.5,2.4,13-1.4,21.6-7.9,34.1-6.6,20.3.6,26.5,13.4,41.8,21.4,8.2,3.5,18,4.1,26.4,7.2,14.3,4.5,25,16,37.5,23.4,10.6,6.3,23.4,8.8,32.9,16.6,7.9,6.4,12.9,15.7,19.5,23.5,4.1,5,8.9,9.3,14.1,13.1,4.9,3.6,10,6.9,14.7,10.7,9.2,7.4,16.4,16.9,24.3,25.7,6,6.8,12.6,13,18.8,19.7,13.5,14,19.1,33.6,30.3,49,14.9,19.1,14.8,24.2,22.2,46.3,4.4,13.6,16.9,26.8,11.8,41.8v.2Z" />
</svg>