<?xml version='1.0' encoding='utf-8'?>
<svg xmlns="http://www.w3.org/2000/svg" viewBox="0 0 595.28 841.89">
	<path fill="#FFFFFF" stroke="#FFFFFF" stroke-miterlimit="10" d="M374.42,428.29c2.37,3.57,2.58,7.32,2.33,11.1c-0.51,7.65-2.37,14.97-5.6,21.93c-0.95,2.04-2.11,3.93-3.92,5.37  c-0.6,0.48-1.05,1.19-1.44,1.87c-14.51,25.05-34.41,44.7-59.33,59.34c-0.6,0.35-1.19,0.73-2.27,1.4c1.14,0.11,1.78,0.19,2.43,0.22  c0.71,0.03,1.42,0.01,2.4,0.01c-0.3,0.96-0.5,1.71-0.76,2.43c-1.44,3.9-2.94,7.77-4.33,11.68c-4.61,13.05-12.63,23.57-23.57,31.94  c-9.48,7.26-20.07,12.42-31.17,16.64c-13.46,5.12-27.36,8.76-41.36,11.99c-16.57,3.83-33.14,7.6-49.73,11.35  c-1.56,0.35-2.74,1.07-3.84,2.21c-13.29,13.84-23.75,29.65-32.51,46.65c-7.54,14.65-13.78,29.88-20.12,45.06  c-2.71,6.49-5.43,12.97-8.22,19.42c-1.04,2.41-2.38,4.7-3.45,7.1c-0.84,1.89-1.57,3.84-2.2,5.81c-2.15,6.7-4.44,13.34-8.32,19.29  c-0.52,0.8-0.9,1.69-1.35,2.54c-1.75,3.35-3.73,6.51-6.5,9.14c-0.98,0.93-1.86,1.99-2.66,3.08c-3.33,4.58-7.49,8.51-10.37,13.46  c-0.98,1.68-2.64,2.98-4.03,4.41c-0.79,0.82-1.75,0.96-2.87,0.6c-1.88-0.6-3.04-1.88-3.95-3.59c-2.84-5.35-5.71-10.69-8.68-15.98  c-1.6-2.85-3.45-5.55-5.13-8.35c-0.3-0.51-0.43-1.2-0.44-1.8c-0.04-4.32-0.13-8.64,0.05-12.95c0.06-1.44,0.66-2.96,1.36-4.27  c10.81-20.4,21.63-40.79,32.54-61.14c11.7-21.83,23.5-43.61,35.25-65.41c0.41-0.77,0.82-1.54,1.3-2.46  c-0.36-0.16-0.61-0.3-0.88-0.39c-5.67-1.85-8.98-5.93-10.56-11.48c-1.65-5.77-1.6-11.69-1.21-17.61c1.1-16.79,4.31-33.26,7.81-49.67  c6.96-32.67,15.23-65.01,25.12-96.91c5.7-18.4,12.98-36.24,21.47-53.55c2.54-5.17,5.34-10.23,9.05-14.66  c2.14-2.56,4.55-4.94,7.11-7.06c3.24-2.67,7.17-3.77,11.52-3.71c0.54-1.53,1.07-3.01,1.59-4.5c9.53-27.61,21.83-53.88,37.96-78.29  c19.26-29.14,42.91-54,71.92-73.61c5.35-3.61,14.83-4.2,19.36,0.69c0.1,0.11,0.28,0.15,0.33,0.18  c65.21-87.5,151.21-139.4,260.41-152.41c0,0.99-0.03,1.77,0,2.55c0.5,11.48-0.8,22.82-2.63,34.12  c-3.55,21.95-8.52,43.57-15.25,64.77c-6.28,19.77-13.93,38.96-24.1,57.08c-7.07,12.6-15.2,24.43-25.35,34.77  c-3.41,3.47-7.08,6.68-10.74,10.12c0.07,0.11,0.19,0.4,0.4,0.6c5.69,5.23,6.91,11.66,4.85,18.83c-0.7,2.43-1.76,4.81-3,7.03  c-7.64,13.67-15.34,27.31-23.09,40.91c-9.62,16.88-19.67,33.49-31.4,49.02c-10.79,14.29-22.82,27.37-37.08,38.3  c-6.67,5.11-13.71,9.66-21.12,13.63C375.82,427.45,375.22,427.82,374.42,428.29z M182.16,537.95c0.84,0.85,1.35,2.22,2.96,1.86  c6.75,4.29,14.18,6.9,21.88,8.86c11.98,3.04,24.16,4.53,36.48,5.04c8.24,0.34,16.46,0.02,24.63-1.18c3.05-0.45,6.08-1.03,9.26-1.57  c-0.39,1.51-1.42,2.42-2.47,3.23c-3.16,2.44-6.28,4.96-9.59,7.17c-7.45,4.98-15.46,8.93-23.61,12.66  c-12.09,5.52-24.54,9.97-37.36,13.43c-17.23,4.65-34.75,7.73-52.43,9.99c-1.73,0.22-3.2,0.84-4.53,1.95  c-7.48,6.21-14.04,13.16-19.08,21.59c-7.62,12.75-15.6,25.29-22.12,38.67c-4.48,9.19-8.81,18.45-13.14,27.72  c-1.35,2.89-2.52,5.87-3.64,8.85c-2.3,6.13-4.5,12.3-6.78,18.43c-0.97,2.62-2.16,5.16-3.06,7.8c-1.65,4.83-2.89,9.81-4.8,14.53  c-4.62,11.41-8.33,23.14-12.23,34.8c-0.24,0.73-0.41,1.49-0.62,2.23c0.4-0.28,0.62-0.6,0.77-0.96c3.53-8.13,7.16-16.22,10.55-24.41  c1.74-4.19,2.87-8.63,4.6-12.83c1.97-4.79,4.38-9.4,6.43-14.15c3.14-7.26,6.17-14.56,9.2-21.86c6.33-15.2,12.77-30.33,20.58-44.85  c9.22-17.12,20.22-32.95,33.9-46.85c1.47-1.49,3.05-2.42,5.07-2.88c15.41-3.49,30.81-7.05,46.22-10.57  c13.78-3.15,27.52-6.43,40.89-11.06c10.45-3.62,20.54-7.98,29.72-14.25c9.56-6.54,17.21-14.73,21.86-25.49  c0.34-0.78,0.61-1.58,1.02-2.67c-1.51,0-2.68-0.02-3.84,0c-11.04,0.21-22.03,1.08-32.88,3.18c-6.58,1.27-13.16,1.74-19.78,0.7  c-6.31-1-12.59-2.18-18.84-3.44c-4.38-0.89-8.71-2.01-13.04-3.12c-1.1-0.28-2.11-0.89-3.16-1.35c0.03-0.19,0.05-0.37,0.08-0.56  c0.65-0.15,1.3-0.39,1.96-0.44c1.99-0.14,3.99-0.28,5.98-0.27c5.51,0.01,11.03,0.32,16.53,0.1c5.98-0.23,11.98-0.63,17.9-1.47  c13.04-1.86,26.04-4.01,39.05-6.1c3.13-0.5,6.22-1.25,9.33-1.88c-0.02-0.15-0.05-0.3-0.07-0.45c-3.22,0.46-6.44,0.91-9.66,1.37  c0.61-0.51,1.26-0.81,1.91-1.08c14.89-6.18,28.37-14.64,40.48-25.27c16.84-14.77,29.98-32.25,38.56-53.04  c1.48-3.58,2.22-7.32,2.15-11.22c-0.05-2.96-1.55-4.26-4.47-3.58c-1.85,0.44-3.62,1.23-5.41,1.88c-3.81,1.4-7.53,3.17-11.44,4.13  c-4.16,1.01-8.5,1.45-12.79,1.79c-10.29,0.79-20.6,0.6-30.9,0.01c-1.38-0.08-2.75-0.27-4.13-0.41c0.83-0.76,1.69-1.12,2.57-1.42  c10.47-3.48,21.11-6.22,31.99-8.15c23.02-4.08,43.68-13.49,61.97-28.09c13.02-10.4,24.04-22.69,33.95-36.02  c10.04-13.49,18.86-27.76,27.2-42.33c8.54-14.91,16.94-29.89,25.37-44.86c0.78-1.38,1.45-2.86,1.94-4.37  c1.55-4.82-0.15-7.88-5.05-9.27c-0.31-0.09-0.62-0.16-0.94-0.19c-2.94-0.28-5.87-0.74-8.81-0.79c-6.26-0.12-12.53-0.04-18.8-0.04  c0.64-0.6,1.31-0.79,1.99-0.97c2.85-0.76,5.75-1.37,8.54-2.31c12.24-4.14,22.34-11.57,31.27-20.71  c9.68-9.91,17.39-21.26,24.08-33.33c10.75-19.38,18.6-39.94,24.92-61.12c6.98-23.4,11.93-47.22,14.83-71.47  c0.26-2.19,0.41-4.39,0.6-6.55c-0.43-0.1-0.59-0.19-0.73-0.17c-2.68,0.41-5.37,0.82-8.05,1.25c-23.17,3.73-45.75,9.72-67.66,18.12  c-61.7,23.66-112.65,61.92-153.59,113.66c-12.33,15.58-23.16,32.15-32.53,49.68c-0.34,0.63-0.63,1.34-1.14,1.81  c-0.4,0.37-1.12,0.62-1.64,0.55c-0.28-0.04-0.49-0.86-0.66-1.36c-0.07-0.2,0.01-0.48,0.06-0.71c1.06-4.66,1.57-9.47,3.44-13.93  c1.51-3.61,3.17-7.16,4.62-10.79c0.52-1.3,0.79-2.75,0.89-4.15c0.12-1.67-0.05-3.35-0.14-5.03c-0.1-1.95-0.63-2.46-2.56-2  c-1.52,0.36-3.15,0.82-4.38,1.73c-6.24,4.59-12.56,9.11-18.49,14.08c-23.18,19.38-41.86,42.55-57.14,68.54  c-14.45,24.58-25.26,50.72-33.48,77.98c-0.3,0.98-0.62,1.95-1.01,3.17c-0.9-1.36-1.56-2.55-2.39-3.6c-2.49-3.15-5.57-3.7-8.79-1.3  c-1.83,1.37-3.57,3.02-4.89,4.88c-2.44,3.44-4.77,7.01-6.75,10.74c-8.05,15.14-14.23,31.12-19.65,47.31s-9.85,32.73-14.24,49.24  c-7.81,29.41-15.03,58.98-19.23,89.18c-0.96,6.89-1.64,13.83-1.15,20.79c0.16,2.27,0.7,4.59,1.49,6.72  c0.79,2.15,2.64,2.78,4.73,1.85c2.73-1.23,5.09-3,6.5-5.77c3.18-6.27,6.34-12.55,9.53-18.82c15.63-30.69,31.77-61.1,48.86-91.01  c39.78-69.61,87.56-133.23,142.76-191.32c0.5-0.52,1.05-1,1.57-1.5c-0.9,1.77-2.07,3.27-3.23,4.77  c-18.11,23.49-35.32,47.64-52.16,72.05c-22.33,32.37-44.24,65.02-64.22,98.91c-22.33,37.85-43.96,76.11-65.23,114.57  c-28.93,52.3-57.13,104.99-85.08,157.81c-0.61,1.15-0.91,2.12,0.01,3.25c-2.92,1.13-4,3.41-4.09,6.11c-0.1,2.94-0.13,5.93,0.3,8.83  c1.39,9.53,4.42,18.63,7.75,27.63c0.16,0.43,0.4,0.82,0.67,1.39c0.75-0.6,1.34-1.08,2.23-1.78c-0.66-4.61-1.26-9.36-2.04-14.07  c-1.06-6.39-2.1-12.78-1.71-19.3c0.12-1.96,0.47-3.78,2.08-5.16c0.59-0.51,1.04-1.22,1.46-1.9c4.69-7.62,9.68-15.08,13.96-22.92  c9.09-16.7,17.68-33.67,26.69-50.41c16.99-31.59,33.71-63.34,51.29-94.6c30.28-53.86,62.57-106.52,95.87-158.55  c23.15-36.16,47.46-71.52,73.92-105.36c15.08-19.28,30.89-37.93,48.13-55.33c7.43-7.5,15.2-14.63,23.26-21.45  c3.06-2.59,3.48-6.66,1.19-9.66c-2.32-3.04-6.25-3.69-9.61-1.36c-9.32,6.47-18.6,13.04-27.17,20.48c-9.59,8.33-19,16.88-28.38,25.45  c-21.65,19.78-41.26,41.46-59.81,64.13c-7.89,9.65-15.55,19.5-23.08,29.43c-7.58,10-15.07,20.08-22.24,30.37  c-7.1,10.19-14.76,19.99-20.83,30.93c-3.86,6.96-9,13.2-13.29,19.94c-14.56,22.85-28.35,46.17-41.34,69.95  c-8.35,15.28-16.35,30.75-24.52,46.14c-0.44,0.83-0.9,1.66-1.36,2.48c-0.15-0.07-0.29-0.15-0.44-0.22c1.58-8.8,3.1-17.61,4.74-26.4  c4.68-25.14,10.27-50.07,17.3-74.66c5.39-18.83,11.52-37.41,19.7-55.24c2.73-5.95,5.89-11.69,8.9-17.51  c0.41-0.78,0.76-1.71,1.87-2.22c0.23,1.92,0.45,3.64,0.64,5.37c0.83,7.46,1.64,14.93,2.49,22.39c0.33,2.87,2.03,4.87,4.58,5.54  c4.07,1.07,7.58-1.62,7.88-6.04c0.61-9.02,1.86-17.95,3.59-26.82c4.54-23.29,12.64-45.34,23.14-66.56  c6.93-14.01,15.25-27.15,24.19-39.94c12.32-17.63,26.3-33.8,41.9-48.58c0.41-0.39,0.91-0.7,1.69-1.28  c-2.12,7.4-2.75,14.55-2.36,21.74c0.21,3.89,0.93,7.76,1.58,11.61c0.36,2.13,1.69,3.75,3.38,5.08c0.97,0.76,2.01,0.94,3.15,0.51  c2.34-0.88,4.51-1.9,5.67-4.42c0.83-1.81,2.06-3.42,2.99-5.19c4.28-8.13,8.73-16.15,13.56-23.98c7.32-11.85,15.17-23.3,23.79-34.24  c12.95-16.43,27.29-31.53,42.75-45.61c17.96-16.36,37.21-30.97,58.15-43.32c33.43-19.72,69.31-32.85,107.49-39.69  c0.66-0.12,1.36-0.09,2.21-0.14c-0.08,1.18-0.09,2.13-0.21,3.06c-1.47,10.77-3.24,21.48-5.68,32.08  c-7.47,32.41-19.52,62.97-37,91.32c-8.41,13.64-17.8,26.55-28.93,38.14c-0.99,1.03-2.06,1.64-3.42,2.02  c-15.68,4.39-31.33,8.9-47.03,13.19c-4.11,1.12-6.71,3.82-9.06,7.02c-0.54,0.73-0.64,1.59,0.04,2.19c2.73,2.37,5.52,4.67,9.4,4.78  c4.31,0.12,8.63,0.26,12.94,0.36c10.39,0.24,20.77,0.47,31.16,0.71c1.05,0.03,2.11,0.17,3.35,0.28c-0.49,0.99-0.79,1.64-1.13,2.27  c-5.04,9.17-9.94,18.42-15.15,27.5c-12.82,22.34-26.62,44.05-42.39,64.45c-7.05,9.12-14.55,17.84-23.25,25.45  c-5.46,4.78-11.4,8.73-18.3,11.15c-4.22,1.48-8.37,3.13-12.6,4.57c-24.54,8.33-49.71,14.24-75.13,19.13  c-2.74,0.53-5.51,0.96-8.25,1.51c-3.38,0.68-5.6,3.23-5.72,6.46c-0.14,3.45,1.83,6.07,5.29,7.02c0.54,0.15,1.09,0.27,1.63,0.38  c11.85,2.33,23.8,3.9,35.86,4.54c14.76,0.78,29.39,0.14,43.74-3.76c0.51-0.14,1.03-0.21,1.88-0.38c-0.33,1.03-0.48,1.79-0.8,2.47  c-1.29,2.74-2.52,5.53-3.99,8.18c-4.33,7.8-9.86,14.74-15.87,21.29c-13.37,14.55-28.53,27.02-44.7,38.31  c-0.76,0.53-1.68,0.97-2.59,1.16c-6.73,1.36-13.45,2.75-20.22,3.93c-13.39,2.33-26.87,3.94-40.45,4.61  c-9.83,0.49-19.65,0.47-29.45-0.6c-3.33-0.36-6.65-1.01-9.99-1.09c-5.49-0.14-8.88,5.87-6.05,10.56  C180.4,536.53,181.38,537.18,182.16,537.95z" />
</svg>