<?xml version='1.0' encoding='utf-8'?>
<svg xmlns="http://www.w3.org/2000/svg" width="21" height="22" viewBox="0 0 21 22" fill="none">
<path fill-rule="evenodd" clip-rule="evenodd" d="M0.461426 10.753C0.461426 5.08283 5.05707 0.483887 10.7305 0.483887C13.4548 0.483887 16.0668 1.56502 17.991 3.49254C19.9152 5.41676 20.9996 8.02866 20.9996 10.753C20.9996 16.4231 16.404 21.0221 10.7305 21.0221C5.06037 21.0221 0.461426 16.4264 0.461426 10.753Z" fill="#0E336C" />
<path d="M10.6965 5.45305C11.3125 5.45305 11.8565 5.56105 12.3285 5.77705C12.8085 5.98505 13.1845 6.27305 13.4565 6.64105C13.7285 7.00905 13.8645 7.43705 13.8645 7.92505C13.8645 8.26905 13.7685 8.58505 13.5765 8.87305C13.3845 9.15305 13.0885 9.41705 12.6885 9.66505C12.5605 9.73705 12.5565 9.80505 12.6765 9.86905C13.0605 10.0531 13.3685 10.2531 13.6005 10.4691C13.8325 10.6851 14.0005 10.9211 14.1045 11.1771C14.2085 11.4331 14.2605 11.7131 14.2605 12.0171C14.2605 12.5451 14.1085 13.0051 13.8045 13.3971C13.5005 13.7891 13.0765 14.0891 12.5325 14.2971C11.9885 14.4971 11.3565 14.5971 10.6365 14.5971C9.95652 14.5971 9.36052 14.5091 8.84852 14.3331C8.33652 14.1491 7.94052 13.8851 7.66052 13.5411C7.38052 13.1891 7.24052 12.7691 7.24052 12.2811C7.24052 11.8731 7.34052 11.5091 7.54052 11.1891C7.74852 10.8611 8.10852 10.5491 8.62052 10.2531C8.70052 10.2131 8.74452 10.1771 8.75252 10.1451C8.76052 10.1131 8.72052 10.0731 8.63252 10.0251C8.42452 9.88905 8.23252 9.73705 8.05652 9.56905C7.88052 9.39305 7.74052 9.18905 7.63652 8.95705C7.53252 8.72505 7.48052 8.44905 7.48052 8.12905C7.48052 7.64105 7.60852 7.19705 7.86452 6.79705C8.12852 6.38905 8.50052 6.06505 8.98052 5.82505C9.46052 5.57705 10.0325 5.45305 10.6965 5.45305ZM10.7205 6.65305C10.4245 6.65305 10.1565 6.70905 9.91652 6.82105C9.67652 6.92505 9.48852 7.07305 9.35252 7.26505C9.21652 7.45705 9.14852 7.68105 9.14852 7.93705C9.14852 8.50505 9.47252 8.87305 10.1205 9.04105L11.1645 9.32905C11.2765 9.36105 11.4005 9.34105 11.5365 9.26905C11.6725 9.19705 11.8005 9.09305 11.9205 8.95705C12.0485 8.82105 12.1525 8.66505 12.2325 8.48905C12.3125 8.30505 12.3525 8.12505 12.3525 7.94905C12.3525 7.58105 12.2085 7.27305 11.9205 7.02505C11.6325 6.77705 11.2325 6.65305 10.7205 6.65305ZM10.7445 13.3971C11.2885 13.3971 11.7165 13.2851 12.0285 13.0611C12.3405 12.8291 12.4965 12.5171 12.4965 12.1251C12.4965 11.8451 12.4165 11.6091 12.2565 11.4171C12.1045 11.2171 11.8285 11.0651 11.4285 10.9611L10.1445 10.6131C10.0245 10.5811 9.88452 10.5931 9.72452 10.6491C9.57252 10.7051 9.42052 10.7971 9.26852 10.9251C9.12452 11.0531 9.00452 11.2131 8.90852 11.4051C8.81252 11.5971 8.76452 11.8051 8.76452 12.0291C8.76452 12.4531 8.92452 12.7891 9.24452 13.0371C9.57252 13.2771 10.0725 13.3971 10.7445 13.3971Z" fill="white" />
</svg>