<?xml version='1.0' encoding='utf-8'?>
<svg xmlns="http://www.w3.org/2000/svg" width="21" height="21" viewBox="0 0 21 21" fill="none">
<path fill-rule="evenodd" clip-rule="evenodd" d="M0.307129 10.5743C0.307129 4.90412 4.90277 0.305176 10.5762 0.305176C13.3005 0.305176 15.9125 1.38631 17.8367 3.31383C19.7609 5.23805 20.8453 7.84995 20.8453 10.5743C20.8453 16.2444 16.2497 20.8434 10.5762 20.8434C4.90608 20.8434 0.307129 16.2477 0.307129 10.5743Z" fill="#0E336C" />
<path d="M12.9038 12.9666C13.0318 12.9666 13.0958 13.0226 13.0958 13.1346V14.1186C13.0958 14.1586 13.0798 14.1986 13.0478 14.2386C13.0158 14.2786 12.9638 14.2986 12.8918 14.2986H8.33179C8.20379 14.2986 8.13979 14.2426 8.13979 14.1306V13.1346C8.13979 13.0226 8.19979 12.9666 8.31979 12.9666H9.66379C9.73579 12.9666 9.77179 12.9426 9.77179 12.8946V7.31458C9.77179 7.21058 9.72379 7.17058 9.62779 7.19458L8.35579 7.61458C8.20379 7.65458 8.12779 7.59058 8.12779 7.42258V6.72658C8.12779 6.65458 8.13979 6.60658 8.16379 6.58258C8.18779 6.55058 8.22779 6.51858 8.28379 6.48658L10.2158 5.51458C10.3118 5.46658 10.3878 5.43458 10.4438 5.41858C10.5078 5.40258 10.5838 5.39458 10.6718 5.39458H11.3918C11.4958 5.39458 11.5478 5.45858 11.5478 5.58658V12.8586C11.5478 12.9306 11.5838 12.9666 11.6558 12.9666H12.9038Z" fill="white" />
</svg>