<?xml version='1.0' encoding='utf-8'?>
<svg xmlns="http://www.w3.org/2000/svg" width="30" height="30" viewBox="0 0 30 30" fill="none">
<path fill-rule="evenodd" clip-rule="evenodd" d="M0 14.5716C0 6.52578 6.52109 0 14.5716 0C18.4373 0 22.1435 1.5341 24.874 4.2692C27.6044 6.99962 29.1432 10.7058 29.1432 14.5716C29.1432 22.6174 22.6221 29.1432 14.5716 29.1432C6.52578 29.1432 0 22.6221 0 14.5716Z" fill="#436DAD" />
<path fill-rule="evenodd" clip-rule="evenodd" d="M7.7815 10.7369C7.79417 10.7081 7.76645 10.6959 7.73783 10.6833L7.73725 10.6828C7.94484 10.4524 8.17227 10.2406 8.41634 10.0495L8.48316 9.97532L8.53402 9.85972L8.61349 9.75671L8.65169 9.66989C8.70364 9.61538 8.74365 9.55074 8.76936 9.48007L8.88384 9.21986C8.90627 9.21106 8.92528 9.19535 8.93789 9.17465C8.94422 9.16026 8.95773 9.14896 8.97124 9.13765C8.98475 9.12635 8.99827 9.11505 9.0046 9.10066C9.03685 9.08725 9.06118 9.06008 9.07131 9.02666C9.07771 9.01212 9.08808 9.00803 9.09843 9.00395C9.16082 8.97933 9.08381 9.07589 9.06174 9.12606C9.14167 9.02325 9.18305 9.00683 9.19801 9.04804C9.20711 9.07314 9.20598 9.09363 9.20442 9.12172C9.1879 9.41906 9.46032 9.51306 9.46032 9.3775C9.46729 9.34197 9.47161 9.30781 9.47555 9.27658C9.49225 9.14423 9.50235 9.06427 9.68039 9.1544C9.76244 9.20485 9.83667 9.26755 9.90045 9.34017C9.90045 9.32469 9.89412 9.30926 9.88671 9.2912C9.87624 9.2657 9.86363 9.23496 9.86363 9.19144L10.1936 9.30284C10.4467 9.44574 10.6708 9.6353 10.8538 9.86189L10.8906 9.89893C11.2209 10.2705 12.6509 11.6843 12.9075 11.833C13.117 12.0454 13.3266 12.2453 13.5333 12.4424C13.6477 12.5516 13.7613 12.6599 13.8735 12.7691C13.9702 12.6976 14.0736 12.6351 14.1824 12.5826L14.2197 12.5596C14.5859 12.3611 16.0126 11.4641 16.1829 11.2831C16.3962 11.1526 16.5993 11.0198 16.7996 10.8887C17.1954 10.6299 17.5806 10.378 18.013 10.1647C18.0162 10.1546 18.0251 10.1528 18.0431 10.1645C18.0594 10.1726 18.0798 10.1951 18.1033 10.2261C18.1327 10.23 18.1565 10.2357 18.151 10.2592C18.1499 10.2639 18.145 10.2684 18.1371 10.273C18.1497 10.2912 18.1629 10.3107 18.1766 10.3309C18.2322 10.413 18.2959 10.5071 18.3598 10.5698C18.4339 10.6444 18.519 10.7074 18.6124 10.7566C18.6602 10.8116 18.7283 10.8453 18.8011 10.8502C18.8865 10.8571 18.9725 10.8465 19.0537 10.8189C19.0742 10.7989 19.1474 10.8828 19.2308 10.9784C19.2764 11.0306 19.325 11.0863 19.3697 11.1304C19.401 11.0073 19.5244 11.0673 19.6494 11.1282L19.6539 11.1304C19.7805 11.1919 19.9385 11.2535 19.9699 11.1919C19.9858 11.2232 20.0097 11.2468 20.0335 11.2703C20.057 11.2936 20.0806 11.3169 20.0962 11.3475C20.1366 11.3674 20.164 11.4003 20.195 11.4375C20.2125 11.4585 20.2312 11.4809 20.254 11.5031C20.3414 11.6139 20.4372 11.7181 20.5402 11.8146C20.5561 11.8146 20.5639 11.8224 20.5718 11.8302C20.5797 11.838 20.5875 11.8458 20.6034 11.8458C20.6193 11.8458 20.6272 11.8537 20.6351 11.8615C20.643 11.8693 20.6508 11.8771 20.6665 11.8771C20.7158 11.8778 20.7621 11.9005 20.7928 11.9387C20.8961 11.9901 20.9753 12.0795 21.0137 12.1878C21.0295 12.2037 21.0532 12.2191 21.0768 12.2345C21.1005 12.2498 21.1241 12.2652 21.14 12.2811C21.156 12.2971 21.1799 12.3127 21.2038 12.3283C21.2273 12.3436 21.2507 12.3589 21.2663 12.3744C21.3132 12.4052 21.3524 12.4362 21.3914 12.4672C21.4313 12.4987 21.4711 12.5302 21.5189 12.5613C21.6098 12.6017 21.6947 12.6539 21.7715 12.7169C21.8201 12.7488 21.8604 12.7728 21.9009 12.7968C21.9393 12.8196 21.978 12.8425 22.024 12.8725C22.0399 12.8725 22.0478 12.8803 22.0558 12.8882C22.0636 12.896 22.0715 12.9038 22.0872 12.9038L22.1503 12.935C22.1976 12.9427 22.2417 12.9641 22.2766 12.9966C22.3253 13.0285 22.3656 13.0524 22.4061 13.0765C22.4445 13.0993 22.4831 13.1222 22.5292 13.1522C22.5766 13.1678 22.6161 13.1911 22.6555 13.2145C22.6949 13.2378 22.7344 13.2611 22.7818 13.2768C22.8293 13.2924 22.8688 13.3158 22.9084 13.3391C22.9478 13.3624 22.9872 13.3857 23.0344 13.4013C23.066 13.417 23.0896 13.4403 23.1133 13.4636C23.1369 13.4869 23.1606 13.5103 23.1921 13.5259V13.5252C23.1921 13.4946 23.1921 13.4946 23.2236 13.4946C23.2395 13.4946 23.2474 13.5025 23.2553 13.5103C23.2632 13.5181 23.271 13.5259 23.2867 13.5259C23.3185 13.5417 23.3504 13.5651 23.3822 13.5886C23.4135 13.6116 23.4448 13.6347 23.4762 13.6505C23.5073 13.6662 23.5308 13.6815 23.5541 13.6967C23.5781 13.7124 23.6019 13.728 23.6339 13.7438C23.6549 13.7438 23.6653 13.7334 23.6653 13.7125C23.6811 13.7125 23.6969 13.7203 23.7126 13.7282C23.7284 13.736 23.7442 13.7438 23.7599 13.7438L23.8545 13.7751C23.9026 13.813 23.9558 13.8445 24.0123 13.8684C24.028 13.8684 24.0438 13.8762 24.0596 13.884C24.0754 13.8918 24.0912 13.8996 24.1069 13.8996L24.2015 13.9309C24.2498 13.9688 24.303 14.0003 24.3595 14.0242C24.3971 14.0818 24.4526 14.1256 24.5175 14.1488C24.562 14.1995 24.6155 14.2419 24.6754 14.2734L24.7069 14.2421C24.7491 14.2421 24.7913 14.2698 24.8335 14.2975C24.8545 14.3113 24.8754 14.325 24.8963 14.3354C24.9122 14.3354 24.92 14.3432 24.9279 14.351C24.9358 14.3589 24.9436 14.3667 24.9595 14.3667C24.9754 14.3667 24.9833 14.3745 24.9912 14.3824C24.9991 14.3902 25.0069 14.3979 25.0226 14.3979C25.0596 14.3979 25.0859 14.4087 25.1075 14.4176C25.1229 14.4239 25.1359 14.4292 25.1489 14.4292C25.1804 14.4292 25.1804 14.3989 25.1804 14.3677L25.1806 14.3669C25.475 14.4642 25.7606 14.587 26.0337 14.7335L26.1285 14.7648H26.2548L26.3811 14.7961H26.476C26.5468 14.8217 26.6221 14.8322 26.6971 14.8273H26.9814C26.9985 14.8443 27.0205 14.8554 27.0445 14.8586C27.0603 14.8586 27.0761 14.8664 27.0918 14.8742C27.1076 14.882 27.1234 14.8899 27.1391 14.8899C27.1644 14.914 27.1991 14.9253 27.2337 14.9211C27.2496 14.9211 27.2575 14.929 27.2654 14.9368C27.2733 14.9446 27.2812 14.9524 27.2969 14.9524H27.1389C27.2652 14.9841 27.2969 15.0154 27.2652 15.0457C27.2459 15.0641 27.2267 15.0714 27.2003 15.0812C27.1834 15.0876 27.1636 15.095 27.1389 15.1072H27.1703C27.1444 15.1246 27.1148 15.1353 27.084 15.1385H27.2018C27.2018 15.1594 27.1913 15.1698 27.1703 15.1698H26.8861C26.8544 15.2011 26.8861 15.2011 26.9175 15.2011H27.1703C27.1944 15.2045 27.2164 15.2153 27.2335 15.2323H26.8541C26.7912 15.2636 26.8858 15.2636 26.949 15.2636H26.8227C26.9175 15.2953 26.9175 15.3251 26.9175 15.3569C26.9175 15.3649 26.9155 15.3728 26.9135 15.3807C26.9076 15.404 26.9017 15.4268 26.949 15.4502C27.0168 15.4844 27.0802 15.526 27.1384 15.5748C27.1384 15.606 27.1069 15.6681 26.9175 15.6994C26.8858 15.7306 26.8229 15.7306 26.7281 15.7306H26.4762C26.525 15.7594 26.5785 15.7801 26.634 15.7922C26.6182 15.7922 26.5945 15.8 26.5708 15.8078C26.5471 15.8156 26.5234 15.8234 26.5077 15.8234C26.4584 15.8461 26.4044 15.8567 26.3499 15.8547H25.7791C25.7476 15.8547 25.716 15.8469 25.6844 15.8391C25.6528 15.8313 25.6213 15.8234 25.5897 15.8234C25.5581 15.8234 25.5266 15.8156 25.495 15.8078C25.4634 15.8 25.4318 15.7922 25.4003 15.7922C25.3687 15.7922 25.3371 15.7844 25.3055 15.7765C25.274 15.7687 25.2424 15.7609 25.2108 15.7609H25.1477C25.132 15.7609 25.1162 15.7531 25.1004 15.7453C25.0846 15.7375 25.0688 15.7296 25.0531 15.7296C25.0136 15.7296 24.9864 15.7178 24.9485 15.7013C24.9258 15.6914 24.8991 15.6798 24.8636 15.6681C24.8328 15.6533 24.8095 15.6458 24.7864 15.6383C24.7621 15.6304 24.738 15.6226 24.7057 15.6065C24.6886 15.5896 24.6665 15.5785 24.6425 15.5753C24.6268 15.5753 24.611 15.5675 24.5952 15.5596C24.5794 15.5518 24.5636 15.544 24.5479 15.544C24.5322 15.544 24.5164 15.5362 24.5006 15.5284C24.4848 15.5206 24.469 15.5127 24.4533 15.5127C24.382 15.4761 24.3082 15.4448 24.2322 15.4194C24.2163 15.4043 24.1927 15.3965 24.169 15.3887C24.1454 15.3808 24.1217 15.373 24.1059 15.3579C24.09 15.3427 24.0664 15.3349 24.0427 15.3271C24.0191 15.3193 23.9954 15.3115 23.9796 15.2963C23.964 15.2814 23.9406 15.2738 23.9173 15.2662C23.8933 15.2584 23.8692 15.2506 23.8533 15.2348C23.8334 15.2348 23.8136 15.2229 23.7861 15.2063C23.7697 15.1964 23.7506 15.1849 23.727 15.1732C23.6797 15.1732 23.6502 15.1565 23.6118 15.1348C23.5989 15.1275 23.5851 15.1196 23.5693 15.1117C23.5381 15.096 23.5146 15.0807 23.4913 15.0654C23.4674 15.0498 23.4435 15.0342 23.4115 15.0184C23.3003 14.979 23.1944 14.9268 23.0955 14.8625C23.0785 14.8455 23.0564 14.8345 23.0324 14.8313C23.0114 14.8104 22.9589 14.8104 22.8747 14.8313C22.8435 14.8156 22.82 14.8003 22.7967 14.785C22.7727 14.7694 22.7489 14.7538 22.7169 14.7379L22.6538 14.6764C22.6538 14.6579 22.6419 14.6507 22.6255 14.6407C22.6151 14.6344 22.6028 14.627 22.5906 14.6148C22.5591 14.599 22.5354 14.5836 22.5118 14.5682C22.4881 14.5528 22.4644 14.5374 22.4329 14.5215C22.4017 14.5059 22.3783 14.4905 22.3549 14.4753C22.331 14.4596 22.3071 14.4441 22.2751 14.4282C22.2751 14.4097 22.2633 14.4025 22.2469 14.3926C22.2365 14.3862 22.2242 14.3788 22.212 14.3667C22.212 14.3482 22.2001 14.341 22.1837 14.331C22.1733 14.3247 22.1611 14.3173 22.1488 14.3051L21.8646 14.1183C21.8176 14.0874 21.7785 14.0564 21.7394 14.0255C21.6995 13.994 21.6598 13.9625 21.612 13.9314C21.5223 13.8767 21.4379 13.8142 21.3594 13.7445L21.1702 13.5579C21.1386 13.5423 21.1071 13.5189 21.0755 13.4956C21.0439 13.4723 21.0123 13.449 20.9808 13.4333C20.9644 13.4169 20.9397 13.4007 20.9152 13.3846C20.8923 13.3696 20.8697 13.3547 20.8545 13.34C20.839 13.3251 20.8235 13.3176 20.8079 13.31C20.7919 13.3022 20.7759 13.2944 20.7599 13.2785C20.2803 12.8351 19.8299 12.3919 19.3795 11.9487L19.3068 11.8771C19.243 11.8145 19.1874 11.7518 19.1317 11.6891C19.0769 11.6273 19.022 11.5655 18.9593 11.5036C18.9122 11.4418 18.8573 11.38 18.8025 11.3182C18.7468 11.2554 18.691 11.1927 18.6434 11.1299C18.4619 10.9255 18.3017 10.7211 18.128 10.4995L18.1275 10.4988L18.127 10.4983C18.0893 10.4502 18.051 10.4013 18.0117 10.3514C18.0448 10.3732 18.047 10.3493 18.0399 10.3116C17.9902 10.3302 17.9345 10.3542 17.8967 10.3891C17.7757 10.5205 17.7437 10.7107 17.815 10.8748C17.833 10.9033 17.7534 10.9464 17.6817 10.9852C17.6599 10.997 17.6388 11.0084 17.6214 11.0189C17.6933 11.0689 17.6587 11.1629 17.6237 11.2581C17.5917 11.345 17.5594 11.4329 17.6073 11.4892C17.4674 11.5528 17.3324 11.6268 17.2034 11.7104C17.1221 11.7788 17.05 11.8575 16.9888 11.9442C16.6563 12.2754 16.3305 12.5766 16.0051 12.8776L16.0013 12.8811C15.9711 12.874 15.9338 12.896 15.8966 12.919L15.8896 12.949L15.8881 12.9487C15.8716 12.9453 15.8557 12.9556 15.8521 12.9719C15.8339 12.9786 15.8168 12.9847 15.8007 12.9903C15.7241 13.0174 15.6714 13.036 15.635 13.0791L15.6582 13.1162C15.5249 13.1926 15.3978 13.2789 15.2775 13.3743C15.2018 13.4105 15.1208 13.4339 15.0373 13.4444L15.0605 13.4815C15.0337 13.5249 14.99 13.5298 14.9427 13.5352C14.8991 13.5401 14.8524 13.5454 14.8132 13.5816C14.7869 13.597 14.7942 13.6051 14.8089 13.6215C14.8151 13.6284 14.8227 13.6368 14.8295 13.6478L14.8279 13.6497C14.7707 13.6801 14.7126 13.7104 14.6537 13.7405C14.6543 13.7479 14.6552 13.7554 14.656 13.7628C14.6605 13.8041 14.6646 13.8415 14.632 13.8415C14.6184 13.8415 14.5997 13.8159 14.576 13.7799C14.3198 13.9089 14.0509 14.0348 13.7818 14.1608L13.7796 14.1618C13.7589 14.174 13.7123 14.1707 13.6581 14.1668C13.6147 14.1637 13.5666 14.1603 13.523 14.1642L13.4321 14.1429L13.5048 14.0991C13.485 14.1108 13.462 14.116 13.4389 14.1138L13.4087 14.1067C13.4389 14.1138 13.4762 14.0918 13.5135 14.0688C13.5058 14.067 13.4977 14.0671 13.4892 14.0686C13.5779 14.0304 13.6561 13.82 13.5689 13.6715C13.4951 13.5458 13.1465 13.4203 13.055 13.544C12.9431 13.3988 12.8205 13.262 12.6883 13.1349C12.5868 13.059 12.4757 12.9966 12.3583 12.9491C11.8832 12.6528 11.4446 12.3562 11.0064 12.0598L11.0014 12.0564C11.0014 12.0194 10.9657 11.982 10.9289 11.945H10.8921V11.9433C10.8915 11.9231 10.8752 11.9074 10.8552 11.9077C10.8425 11.8883 10.8308 11.8701 10.8199 11.853C10.7676 11.7714 10.7316 11.7152 10.6717 11.6846L10.6349 11.7216C10.5099 11.5875 10.3751 11.4632 10.2316 11.3495C10.1689 11.2713 10.1196 11.1836 10.0849 11.0894L10.048 11.1264C9.99029 11.1071 9.97269 11.0577 9.95364 11.0042C9.93606 10.9548 9.91725 10.902 9.8645 10.8663C9.83942 10.84 9.83198 10.8507 9.81696 10.8722C9.81063 10.8813 9.80294 10.8923 9.79201 10.9033L9.7894 10.9018C9.67473 10.771 9.56009 10.6345 9.44547 10.4945L9.3401 10.7341C9.32738 10.763 9.30751 10.7887 9.28764 10.8145C9.26778 10.8402 9.2479 10.866 9.23519 10.8949C9.22248 10.9238 9.20261 10.9495 9.18274 10.9753C9.16287 11.001 9.143 11.0268 9.13029 11.0557C9.11757 11.0846 9.0977 11.1103 9.07783 11.1361C9.05796 11.1618 9.03809 11.1876 9.02538 11.2165L8.99995 11.2743C8.99362 11.2887 8.98011 11.3 8.96659 11.3113C8.95308 11.3226 8.93957 11.3339 8.93324 11.3483C8.91735 11.3844 8.89557 11.4045 8.86519 11.4326C8.84696 11.4494 8.82563 11.4691 8.80061 11.4969C8.77468 11.5192 8.75838 11.5375 8.74223 11.5556C8.72522 11.5746 8.70838 11.5935 8.68065 11.6167C8.65822 11.6255 8.63921 11.6412 8.6266 11.6619C8.62027 11.6763 8.60676 11.6876 8.59325 11.6989C8.57973 11.7102 8.56622 11.7215 8.55989 11.7359C8.55356 11.7503 8.54004 11.7616 8.52653 11.7729C8.51302 11.7842 8.49951 11.7955 8.49318 11.8099C8.43088 11.8604 8.37254 11.9154 8.31872 11.9748C8.29847 11.9832 8.2818 12.0017 8.26512 12.0202C8.24844 12.0387 8.23176 12.0572 8.21152 12.0656C8.19128 12.074 8.1746 12.0925 8.15792 12.111C8.14124 12.1295 8.12457 12.148 8.10432 12.1564C8.08434 12.1647 8.06803 12.183 8.05167 12.2013C8.03488 12.2201 8.01804 12.239 7.99713 12.2472C7.98912 12.2654 7.97026 12.2787 7.94397 12.2972C7.92834 12.3083 7.91009 12.3211 7.88993 12.338C7.87088 12.3813 7.84369 12.4016 7.80833 12.428C7.79649 12.4368 7.78374 12.4463 7.77007 12.4576C7.74317 12.4798 7.7197 12.4951 7.69633 12.5104C7.67237 12.526 7.6485 12.5415 7.62114 12.5644C7.54031 12.6503 7.44985 12.7263 7.35124 12.7909C7.32881 12.7997 7.3098 12.8154 7.2972 12.8361C7.26967 12.8469 7.2485 12.895 7.23367 12.9805C7.20677 13.0027 7.18331 13.018 7.15994 13.0332C7.13598 13.0488 7.1121 13.0644 7.08474 13.0873L7.00297 13.1203C6.98602 13.1128 6.97466 13.1208 6.95894 13.1318C6.94897 13.1388 6.93724 13.147 6.92121 13.1533C6.89396 13.1758 6.87035 13.1913 6.84674 13.2067C6.82313 13.2222 6.79952 13.2376 6.77228 13.2601C6.74537 13.2824 6.72191 13.2976 6.69854 13.3129C6.67457 13.3285 6.65071 13.3441 6.62334 13.3669C6.60639 13.3595 6.59503 13.3674 6.57931 13.3785C6.56933 13.3854 6.55761 13.3937 6.54158 13.4C6.52462 13.3925 6.51326 13.4005 6.49754 13.4115C6.48757 13.4185 6.47584 13.4267 6.45981 13.433L6.17428 13.6179C6.12718 13.6485 6.08303 13.6718 6.039 13.6951C5.99405 13.7189 5.94923 13.7427 5.90153 13.7739C5.8154 13.8339 5.72415 13.886 5.62877 13.9298L5.38176 14.0279C5.35474 14.0505 5.32067 14.07 5.2866 14.0895C5.25253 14.109 5.21847 14.1285 5.19144 14.1511C5.16986 14.1595 5.14502 14.1755 5.12048 14.1914C5.09747 14.2063 5.07472 14.2211 5.05518 14.2291C5.03531 14.2373 5.02212 14.2484 5.00894 14.2596C4.99533 14.2712 4.98172 14.2827 4.96074 14.2909C4.36176 14.5513 3.77473 14.7851 3.18773 15.0189L3.09286 15.0567C3.00988 15.0898 2.93011 15.1155 2.85029 15.1412C2.77164 15.1665 2.69293 15.1918 2.61109 15.2243C2.53553 15.2426 2.45688 15.2679 2.37822 15.2932C2.29833 15.3189 2.21841 15.3447 2.14176 15.363C1.8816 15.4468 1.62996 15.5111 1.35724 15.5809C1.29756 15.5962 1.23682 15.6117 1.1748 15.6277C1.22232 15.597 1.15922 15.5864 1.09597 15.5758C1.03265 15.5652 0.969174 15.5546 1.01642 15.5237C1.04331 15.5012 1.1259 15.4861 1.22248 15.4685C1.31998 15.4507 1.43175 15.4303 1.5149 15.397C1.61299 15.3593 1.70499 15.3067 1.78765 15.241C1.85716 15.2194 1.91545 15.1706 1.94928 15.106C1.98999 15.0306 2.0149 14.9476 2.02237 14.8622C2.01227 14.8354 2.11862 14.8021 2.23962 14.7643C2.30581 14.7436 2.37639 14.7215 2.43469 14.6984C2.33464 14.6202 2.4393 14.5314 2.54531 14.4414L2.54917 14.4382C2.65647 14.3471 2.77643 14.2273 2.73275 14.1737C2.76778 14.1718 2.79896 14.1594 2.83005 14.1471C2.8609 14.135 2.89167 14.1228 2.92603 14.1208C2.96044 14.0918 3.00161 14.08 3.04819 14.0666C3.07447 14.059 3.10249 14.051 3.13198 14.0391C3.26859 14.0037 3.40251 13.9579 3.53233 13.9025C3.53871 13.888 3.54903 13.8839 3.55936 13.8799C3.56968 13.8758 3.58 13.8718 3.58638 13.8572C3.59277 13.8427 3.60315 13.8386 3.6135 13.8345C3.62382 13.8305 3.63411 13.8264 3.64043 13.812C3.66095 13.7672 3.70033 13.734 3.74763 13.7212C3.83631 13.6474 3.95002 13.6109 4.06464 13.6194C4.08555 13.6113 4.10916 13.5958 4.13277 13.5804C4.15638 13.5649 4.17999 13.5495 4.2009 13.5413C4.22198 13.5332 4.24593 13.5175 4.26978 13.502C4.29328 13.4866 4.31668 13.4714 4.33717 13.4633C4.38428 13.4328 4.42843 13.4094 4.47245 13.3861C4.5174 13.3623 4.56222 13.3386 4.60993 13.3074C4.68349 13.2404 4.76546 13.1837 4.85407 13.1388C4.90291 13.1072 4.94103 13.0799 4.97933 13.0525C5.01569 13.0265 5.05222 13.0004 5.09821 12.9703C5.1046 12.9558 5.11498 12.9517 5.12533 12.9476C5.13564 12.9435 5.14594 12.9394 5.15226 12.9251L5.20631 12.8799C5.23234 12.8397 5.26969 12.8079 5.3135 12.7891C5.36234 12.7574 5.40046 12.7301 5.43876 12.7027C5.47513 12.6767 5.51165 12.6506 5.55764 12.6205C5.59105 12.5834 5.62828 12.5567 5.66552 12.53C5.70275 12.5033 5.73998 12.4766 5.77339 12.4395C5.80684 12.4023 5.84416 12.3755 5.88146 12.3488C5.91865 12.3221 5.95582 12.2954 5.98913 12.2585C6.01616 12.2359 6.04703 12.2236 6.07791 12.2113C6.10878 12.1991 6.13966 12.1868 6.16668 12.1642L6.16602 12.1639C6.15218 12.1579 6.14519 12.1548 6.1432 12.1497C6.14117 12.1446 6.14433 12.1374 6.15073 12.1229C6.15712 12.1083 6.1675 12.1042 6.17785 12.1001C6.18816 12.0961 6.19846 12.092 6.20478 12.0776C6.23202 12.0549 6.26631 12.0352 6.3006 12.0155C6.33433 11.9961 6.36807 11.9767 6.39509 11.9544C6.422 11.9322 6.44546 11.9169 6.46883 11.9017C6.49279 11.886 6.51666 11.8705 6.54402 11.8476C6.55247 11.8284 6.54715 11.8146 6.52807 11.8062C6.5344 11.7918 6.54791 11.7805 6.56143 11.7692C6.57494 11.7579 6.58845 11.7466 6.59478 11.7322L6.6615 11.6582C6.71555 11.6295 6.76583 11.5935 6.81043 11.5514C6.81676 11.537 6.83027 11.5257 6.84378 11.5144C6.8573 11.5031 6.87081 11.4918 6.87714 11.4774L6.94385 11.4034C6.998 11.3745 7.04829 11.3385 7.09289 11.2964C7.16078 11.2851 7.22323 11.252 7.27054 11.202C7.33491 11.1816 7.39521 11.1497 7.44819 11.1075L7.43223 11.0661C7.44923 11.0275 7.4916 11 7.53397 10.9725C7.55499 10.9589 7.57601 10.9453 7.59393 10.9303C7.60031 10.9158 7.61063 10.9117 7.62095 10.9077C7.63127 10.9036 7.64159 10.8996 7.64798 10.8851C7.65437 10.8706 7.66475 10.8665 7.6751 10.8624C7.68541 10.8583 7.69571 10.8542 7.70203 10.8399C7.71693 10.806 7.73733 10.7863 7.7542 10.7701C7.76611 10.7586 7.77626 10.7488 7.7815 10.7369ZM18.0116 10.1761C18.0116 10.1788 18.0117 10.1817 18.012 10.1848C18.0116 10.1821 18.0114 10.1792 18.0116 10.1761Z" fill="white" />
<path d="M13.4087 14.1067C13.4365 14.0896 13.4643 14.073 13.4892 14.0686C13.4568 14.0826 13.4257 14.0962 13.4087 14.1067Z" fill="white" />
<path d="M26.949 15.2636C26.9713 15.2636 26.9977 15.2597 27.0223 15.256C27.0673 15.2493 27.1067 15.2434 27.1067 15.2636H26.949Z" fill="white" />
<path d="M27.4229 14.9524H27.36L27.3621 14.9545C27.3252 14.9575 27.2839 14.965 27.2652 14.9837H27.3915L27.3621 14.9545C27.3872 14.9524 27.4102 14.9524 27.4229 14.9524Z" fill="white" />
<path d="M7.33826 16.7884C7.32731 16.7524 7.3167 16.7176 7.38323 16.6973C7.44977 16.6771 7.52778 16.6927 7.66137 16.652C7.7279 16.6318 7.73886 16.6678 7.80592 16.6474C7.87297 16.627 7.8834 16.6631 7.95046 16.6427C8.09501 16.6381 8.25033 16.6689 8.38393 16.6282L8.4395 16.572C8.57733 16.5697 8.70532 16.584 8.81739 16.6137C8.96276 16.5986 9.09546 16.6133 9.19528 16.6554C9.32309 16.6466 9.44676 16.6486 9.56221 16.6612L9.77328 16.6363C9.83982 16.616 9.91783 16.6316 9.98436 16.6114C10.1122 16.6025 10.2359 16.6045 10.3508 16.6173L10.5619 16.5924C10.6284 16.5721 10.7064 16.5877 10.7729 16.5675C10.7656 16.5435 10.7842 16.5247 10.8285 16.5112C10.9731 16.5066 11.0502 16.5212 11.1949 16.5171C11.3396 16.5131 11.4948 16.5433 11.6393 16.5386C11.7059 16.5184 11.7168 16.5544 11.7839 16.534C11.8509 16.5136 11.8504 16.5137 11.8395 16.4777C11.984 16.4731 12.0723 16.5243 12.2168 16.5196C12.4279 16.4947 12.5832 16.5255 12.7948 16.5005C13.0064 16.4754 13.1612 16.5063 13.3728 16.4813C13.5945 16.4913 13.7392 16.4872 13.9617 16.4978C14.047 16.5128 14.1477 16.5091 14.2505 16.4874L14.395 16.4828C14.4615 16.4625 14.4725 16.4985 14.5396 16.4781C14.7612 16.4881 14.906 16.484 15.1284 16.4947C15.3129 16.5178 15.5109 16.5232 15.7173 16.5112C15.939 16.5212 16.0947 16.5531 16.3171 16.5638C16.3946 16.5795 16.5388 16.5738 16.617 16.5899C16.6952 16.6061 16.8387 16.5999 16.9169 16.6161C17.036 16.7161 17.235 16.768 17.4715 16.7607C17.5498 16.7849 17.6557 16.7812 17.7602 16.7503C17.8268 16.7301 17.8377 16.7661 17.9048 16.7457C17.9718 16.7253 17.9823 16.7614 18.0493 16.741C18.3011 16.7858 18.5403 16.844 18.7641 16.9153C18.9192 16.9455 19.0078 16.9979 19.1523 16.9929C19.2404 17.0436 19.3851 17.0395 19.474 17.0908C19.519 16.9997 19.8748 16.9688 20.164 16.9583C20.4533 16.9477 20.742 16.9391 20.7654 16.7753C21.0763 16.8374 21.4869 16.9866 21.543 16.9304C21.7052 16.8464 21.8833 16.7789 22.0665 16.7318C22.2222 16.6906 22.3781 16.6856 22.4984 16.7181C22.7132 16.7147 22.9155 16.7324 23.0983 16.7706C23.4113 16.8324 23.7657 17.038 23.9103 17.0334C24.132 17.0433 23.6894 16.7871 23.9114 16.798C23.3459 16.6176 22.8573 16.4528 22.3022 16.3083C22.0584 16.2257 21.7476 16.1636 21.5028 16.0814C21.1919 16.0192 20.9482 15.9367 20.6369 15.875C19.469 15.6428 18.3047 15.4096 17.0718 15.1969C16.9943 15.1811 16.9272 15.2015 16.8501 15.1869C16.7729 15.1723 16.6284 15.1769 16.5502 15.1608C16.4057 15.1654 16.2503 15.1346 16.1058 15.1393L15.6401 15.0462C15.4497 15.0165 15.2491 14.9989 15.0403 14.9936C14.8186 14.9837 14.663 14.9518 14.4405 14.9411L13.7736 14.9089C13.6961 14.8932 13.629 14.9136 13.6184 14.8787C13.5409 14.863 13.4739 14.8834 13.4633 14.8485C13.3187 14.8531 13.2416 14.8385 13.0969 14.8426C12.9522 14.8467 12.8752 14.8326 12.7305 14.8367C12.653 14.821 12.5859 14.8414 12.5753 14.8065L12.4202 14.7763C12.2756 14.7809 12.1985 14.7663 12.0538 14.7704C11.8829 14.8486 11.7717 14.8824 11.72 14.8719C11.6681 14.8837 11.6176 14.8851 11.5755 14.8766C11.3439 14.8662 11.1014 14.8743 10.8524 14.9006C10.7079 14.9052 10.6307 14.8906 10.486 14.8947C10.3413 14.8987 10.2643 14.8847 10.1307 14.9253C9.98618 14.93 9.90903 14.9154 9.84198 14.9358C9.76449 14.92 9.6309 14.9607 9.55323 14.9462C9.47556 14.9317 9.34215 14.9711 9.26448 14.9566C9.18682 14.9422 9.0534 14.9815 8.97574 14.9671C8.80602 14.9868 8.63895 14.9983 8.47522 15.002C8.40868 15.0222 8.33067 15.0066 8.26414 15.0269C8.1976 15.0471 8.11959 15.0315 8.05306 15.0518C8.00112 15.0635 7.95061 15.065 7.90851 15.0564C7.76397 15.0611 7.69743 15.0813 7.55271 15.0873C7.34163 15.1121 7.26396 15.0977 7.13037 15.1383C7.06384 15.1586 6.98582 15.143 6.91929 15.1632L6.7857 15.2039C6.65211 15.2445 6.50756 15.2492 6.37397 15.2898C6.24038 15.3305 6.09584 15.3351 5.96224 15.3758C5.82865 15.4164 5.68411 15.4211 5.55052 15.4617L4.34296 15.8292C4.22701 15.862 4.11651 15.9089 4.0202 15.9667C3.95366 15.987 3.8305 16.0638 3.76397 16.084C3.88555 16.0622 4.00595 16.0516 4.11925 16.0533L3.58646 16.2155C3.38581 16.2765 3.25274 16.317 3.19664 16.3734C2.80682 16.5314 2.76202 16.623 2.77298 16.659C2.91317 16.6777 3.06186 16.6848 3.2174 16.6805C3.36194 16.6759 3.30549 16.7311 3.31662 16.7677C3.32775 16.8043 3.33818 16.8386 3.54996 16.8141C3.33147 16.8806 2.20922 17.5015 2.98998 17.376C2.29265 17.5882 2.94834 17.5066 3.22245 17.4232C3.27439 17.4115 3.3249 17.41 3.367 17.4186L3.96842 17.2356C4.12543 17.1816 4.2884 17.1453 4.4472 17.1292L4.64785 17.0682L4.92599 17.0229L5.19317 16.9416L5.40477 16.9165C6.03394 16.9094 6.68103 16.867 7.338 16.7895" fill="white" />
</svg>