<?xml version='1.0' encoding='utf-8'?>
<svg xmlns="http://www.w3.org/2000/svg" id="Livello_2" data-name="Livello 2" version="1.1" viewBox="0 0 1080 1080">
  <defs>
    </defs>
  <circle class="cls-1" cx="540" cy="540" r="540" />
  <g>
    <path class="cls-2" d="M722.93,427.13c0-1.23-1.23-3.7-2.47-4.93,2.47-2.47,7.4,2.47,9.87-2.47,0-1.23-1.23-2.47-2.47-2.47h9.87c4.93-2.47,8.63-6.17,11.1-9.87,0,0-2.47-2.47,0-2.47,1.23-1.23,4.93-2.47,7.4-2.47v-2.47h2.47c9.87-12.33,18.5-25.9,27.13-39.47,2.47-4.93,2.47-9.87,4.93-12.33,3.7-2.47,8.63-3.7,13.57-4.93-7.4-9.87,0-20.97-7.4-30.83,2.47,0,4.93-2.47,4.93-4.93v-2.47c-4.93-9.87-6.17-20.97-2.47-30.83,2.47-2.47,9.87,0,9.87-2.47,0-4.93-7.4-4.93-7.4-9.87-20.97,8.63-41.93,19.73-60.43,33.3-4.93,9.87-50.57,35.77-65.37,39.47-7.4,2.47-13.57,7.4-18.5,13.57-2.47,4.93-2.47,9.87-4.93,12.33,2.47,0,4.93,2.47,7.4,4.93-2.47,0-4.93,2.47-4.93,4.93-2.47,7.4,2.47,12.33,9.87,16.03,2.47,2.47,4.93,9.87,7.4,9.87-1.23,0-2.47,1.23-4.93,2.47,2.47,2.47,4.93-4.93,7.4,2.47-2.47,0-2.47,2.47-4.93,2.47,2.47,4.93,7.4-2.47,9.87,2.47,0,2.47-7.4-2.47-4.93,2.47h2.47c-4.93,4.93-4.93,12.33,2.47,13.57-2.47,0-4.93,0-7.4,2.47,0,1.23,1.23,2.47,2.47,2.47h0l4.93,4.93,9.87,4.93c11.1-3.7,22.2-4.93,33.3-9.87" />
    <path class="cls-2" d="M329.49,422.2c0-2.47,2.47-2.47,2.47-4.93-2.47-2.47-7.4,2.47-9.87-2.47,0-1.23,1.23-2.47,2.47-2.47h-9.87c-4.93-2.47-8.63-6.17-11.1-9.87,0,0,2.47-2.47,0-2.47-1.23-1.23-4.93-2.47-7.4-2.47v-2.47h-1.23c-9.87-12.33-18.5-25.9-28.37-39.47,0-4.93-1.23-8.63-4.93-12.33-2.47-4.93-9.87-4.93-13.57-7.4,7.4-9.87,0-20.97,7.4-30.83-2.47,0-7.4-2.47-4.93-4.93,3.7-9.87,4.93-20.97,2.47-30.83-2.47-2.47-7.4-2.47-7.4-4.93,0-4.93,7.4-4.93,7.4-7.4,20.97,8.63,41.93,19.73,60.43,33.3,4.93,9.87,48.1,35.77,62.9,39.47,9.87,4.93,16.03,9.87,18.5,16.03,2.47,2.47,2.47,7.4,4.93,12.33-2.47,2.47-4.93,2.47-7.4,4.93,2.47,0,7.4,2.47,7.4,4.93,2.47,7.4-2.47,12.33-9.87,16.03-2.47,2.47-4.93,9.87-7.4,9.87,1.23,0,2.47,1.23,4.93,2.47-2.47,2.47-4.93-4.93-7.4,0,2.47,0,2.47,2.47,4.93,2.47-2.47,4.93-7.4-2.47-9.87,2.47,0,2.47,7.4-2.47,4.93,2.47h-2.47c4.93,4.93,4.93,12.33-2.47,13.57,2.47,0,4.93,0,7.4,2.47h-4.93l2.47,2.47c0,1.23-1.23,2.47-2.47,2.47h0l-3.7,6.17-9.87,4.93c-11.1-3.7-23.43-8.63-34.53-13.57" />
    <path class="cls-3" d="M500.93,307.5c2.47,0,4.93,0,4.93,2.47s-2.47,4.93-2.47,9.87c0,2.47-2.47,2.47-2.47,4.93s-2.47,2.47-2.47,4.93c-2.47,4.93-7.4,9.87-7.4,13.57l2.47,2.47c-2.47,4.93-4.93,8.63-9.87,12.33-1.23,4.93-4.93,8.63-9.87,12.33-1.23,3.7-3.7,8.63-7.4,12.33l-2.47,7.4c0,2.47-2.47,4.93-2.47,7.4-1.23,3.7-3.7,8.63-7.4,12.33l1.23,2.47c0,2.47-2.47,4.93-2.47,7.4,1.23,0,2.47,1.23,2.47,2.47-2.47,4.93-4.93,7.4-7.4,12.33-2.47,4.93-7.4,9.87-9.87,13.57,0,2.47-2.47,2.47-2.47,4.93s0,2.47,2.47,2.47c-2.47,4.93-7.4,7.4-9.87,12.33-2.47,7.4-7.4,12.33-9.87,18.5-2.47,7.4-7.4,12.33-9.87,18.5-4.93,7.4-7.4,12.33-11.1,18.5-2.47,2.47-3.7,6.17-4.93,9.87l-2.47,4.93c0,2.47-2.47,2.47-2.47,4.93-4.93,7.4-7.4,12.33-11.1,18.5-4.93,6.17-8.63,12.33-11.1,18.5-4.93,7.4-9.87,12.33-13.57,18.5-2.47,2.47-4.93,7.4-7.4,9.87s-4.93,7.4-7.4,9.87c-8.63,2.47-14.8,8.63-18.5,16.03-2.47,2.47-4.93,6.17-4.93,9.87,0,2.47-2.47,2.47-2.47,4.93s-2.47,2.47-2.47,4.93c-7.4,7.4-14.8,14.8-23.43,20.97-4.93,4.93-9.87,7.4-11.1,12.33-4.93,2.47-7.4,7.4-11.1,9.87,4.93,2.47,0,13.57-4.93,23.43-4.93,9.87-9.87,18.5,0,20.97-9.87,9.87-25.9,20.97-23.43,23.43,2.47,6.17,2.47,12.33,2.47,18.5,0,4.93-2.47,9.87-7.4,13.57-3.7,7.4-8.63,13.57-13.57,18.5-9.87,9.87-28.37,18.5-29.6,23.43-4.93,7.4,18.5-4.93,13.57,2.47,20.97-16.03,39.47-30.83,57.97-46.87,12.33-8.63,20.97-18.5,30.83-25.9,9.87-9.87,18.5-16.03,27.13-25.9,34.53-35.77,69.07-70.3,103.6-108.53,2.47-2.47,2.47-4.93,4.93-7.4,2.47-2.47,4.93-7.4,7.4-9.87,2.47-4.93,7.4-9.87,9.87-13.57l7.4-7.4,6.17-4.93c4.93-6.17,9.87-12.33,13.57-18.5,4.93-7.4,9.87-12.33,13.57-18.5l13.57-20.97c2.47-2.47,2.47-4.93,4.93-4.93,2.47-2.47,2.47-4.93,4.93-4.93,2.47-4.93,4.93-7.4,7.4-12.33s4.93-7.4,7.4-12.33c2.47-2.47,2.47-4.93,4.93-4.93l4.93-4.93c2.47-4.93,4.93-7.4,7.4-12.33-1.23-6.17-1.23-9.87,0-12.33,0-1.23,1.23-3.7,2.47-4.93,4.93-7.4,8.63-14.8,11.1-23.43,2.47-4.93,4.93-7.4,7.4-12.33,2.47-4.93,4.93-7.4,4.93-12.33,2.47-4.93,4.93-7.4,4.93-9.87,2.47-2.47,2.47-7.4,4.93-9.87,2.47-2.47,2.47-7.4,4.93-9.87,2.47-2.47,2.47-7.4,4.93-9.87,2.47-6.17,3.7-11.1,7.4-16.03,0-2.47,2.47-4.93,2.47-7.4s2.47-4.93,2.47-7.4c0-1.23,1.23-3.7,2.47-4.93,2.47-4.93,2.47-7.4,4.93-12.33,2.47-7.4,4.93-9.87,4.93-13.57,0-2.47,2.47-4.93,2.47-7.4v-4.93c0-4.93,2.47-9.87,2.47-13.57,0-4.93,2.47-9.87,2.47-13.57,0-4.93,2.47-9.87,2.47-13.57v-37c0-3.7-1.23-8.63-2.47-12.33,0-2.47-2.47-7.4-2.47-9.87-1.23,3.7-2.47,8.63-4.93,12.33v-18.5c0-7.4,0-12.33-2.47-13.57-2.47-13.57-7.4-16.03-9.87-16.03-3.7,4.93-6.17,8.63-9.87,13.57-2.47,4.93-4.93,2.47-7.4,2.47s-4.93,0-7.4,7.4v-20.97c-2.47,0,0,7.4,0,12.33s0,12.33-2.47,7.4v-29.6c-1.23,1.23-2.47,2.47-2.47,4.93v18.5c0,2.47,0,4.93-2.47,2.47v-20.97c0-1.23-1.23-2.47-2.47-2.47v12.33c0-3.7,0-6.17-2.47-9.87v2.47c-4.93-4.93-4.93-7.4-7.4-9.87-2.47-2.47-4.93,0-7.4,9.87v-20.97c0,2.47,0,9.87,2.47,12.33v-9.87l-2.47,2.47v4.93c0,2.47-2.47,2.47-2.47,4.93s0,4.93-2.47,7.4c0,2.47-2.47,4.93-2.47,7.4,0,1.23-1.23,3.7-2.47,4.93v20.97c0,6.17,0,11.1-2.47,16.03v7.4l-2.47,9.87v9.87l-2.47,7.4c-9.87,17.27-18.5,38.23-25.9,60.43" />
    <path class="cls-3" d="M609.46,659c2.47-2.47,2.47-4.93,4.93-2.47,7.4,4.93,4.93,13.57,11.1,16.03l2.47-2.47c2.47,6.17,4.93,11.1,9.87,16.03,8.63,7.4,17.27,14.8,25.9,23.43l2.47-2.47c4.93,2.47,7.4,7.4,11.1,13.57,1.23,0,2.47,1.23,2.47,2.47h2.47c2.47,2.47,4.93,4.93,4.93,7.4,27.13,18.5,55.5,37,85.1,56.73,7.4,2.47,14.8,7.4,20.97,12.33,8.63,8.63,16.03,16.03,23.43,25.9,7.4-9.87,29.6,4.93,34.53-7.4,4.93,4.93,11.1,13.57,13.57,12.33,11.1-8.63,25.9-8.63,37-2.47,7.4,4.93,11.1,16.03,13.57,16.03,4.93,0-2.47-12.33,4.93-12.33-34.53-41.93-74-75.23-113.47-114.7-16.03-9.87-106.07-98.67-127.03-122.1l-2.47-1.23c-11.1-14.8-25.9-25.9-41.93-35.77l-20.97-7.4c0,4.93,2.47,7.4,2.47,9.87-3.7-4.93-8.63-8.63-13.57-12.33-13.57-7.4-11.1,2.47-13.57,13.57,0,4.93-7.4,4.93-4.93,12.33-2.47-2.47-4.93-6.17-7.4-9.87-2.47,2.47,11.1,9.87,4.93,12.33-2.47-4.93-7.4-7.4-9.87-9.87-2.47,4.93,9.87,12.33,7.4,16.03-2.47,0-4.93-13.57-9.87-9.87,1.23,2.47,2.47,4.93,4.93,7.4-9.87-18.5-18.5-18.5-13.57-7.4-2.47-2.47-7.4-9.87-9.87-12.33,2.47,2.47,4.93,4.93,4.93,7.4-2.47-2.47-4.93-4.93-4.93-7.4v2.47c0,1.23,1.23,3.7,2.47,4.93l-4.93-4.93v7.4c2.47,7.4,2.47,16.03,4.93,18.5,18.5,25.9,37,49.33,55.5,70.3" />
  </g>
</svg>