<?xml version="1.0" encoding="UTF-8"?>
<svg id="Livello_2" data-name="Livello 2" xmlns="http://www.w3.org/2000/svg" viewBox="0 0 1080 1080">
  <defs>
    <style>
      .cls-1 {
        fill: #9e172f;
      }
    </style>
  </defs>
  <path class="cls-1" d="M51.37,165.93l9.8.83-4.91,1.63c1.88,4.33.69,7.72,6.57,6.53l-1.66,3.24c7-.29,10.83-.98,16.25,3.35.98,4.72-4.01,3.91-6.48,5.63-4.26,10.67,25.07,3.87,27.77,5.73l-1.65,3.24,57.1,1.66-3.26,1.63c2.34,6.41,6.25.51,10.69.07,23.48-2.35,52.61,3.94,76.53,4.88,114.13,4.51,233.42.16,347.51-1.77,29.51-.5,59.3-2.63,88.56-2.84,6.82-.05,15.05,2.57,22.44,1.28l-4.07-3.26c3.92.44,8.61-.66,12.34-.15,3.12.42,2.17,3.34,3.36,3.47,3.82.44,14.47-3.2,19.44-3.4,24.06-1,52.26,1.46,76.53,1.76,30.26.38,59.95.38,89.97.09,6.18-.06,14.11,2.96,21.03,1.48l-5.7-4.9c7.81-1.73,19.94,1.83,26.7,1.14,12.52-1.26,32.35-7.63,44.27-7.81,6.98-.11,13.51,2.94,20.38,3.38-1.37-3.21-.61-6.33,2.75-7.95l16.82,1.42-4.88-4.86,6.51-3.26-14.67-3.3c2.38-5.7,10.36-2.23,15.41-3.33,5.06-1.1,10.81-6.04,17.22-4.82-2-4.15-7.15-3.45-10.65-6.47-2.56-2.21-4.01-6.94-7.29-9.03l3.25-.82-3.27-2.43,3.27-2.43c-8.16,3.65-9.19-2.71-16.3-3.3-.53-2.48,2.72-1.56,3.85-3.21,2.4-3.51.89-11.7-1.42-14.76-1.51-2-5.09-1.22-5.57-1.72-1.6-1.68,2.08-7.6,1.24-9.36-.15-.32-2.26-.33-3.04-1.45-1.01-1.45-.84-4.34-1.94-5.1-1.52-1.06-5.06,1.12-4.54-1.9,5.19-.14,10.19,2.11,14.98,3.75,2.71.93,6.81,6.23,6.21-.48-4.73-1.36-9.71-2.61-14.29-4.45-1.98-.79-1.84-3.42-3.16-3.71-8.47-1.88-19.35,2.44-28.23-.04l4.88-3.23c-23.18-3.05-46.17-.09-69.35,1.63l-2.43-3.28h35.89l-15.48-4.92c-15.36,2.89-30.91,3.77-46.53,3.3l1.65,3.24c-5.88-.96-11.4,1.38-17.09,1.71-1.79.1-6.18,1.05-5.75-1.68l6.51-1.63c-9.6,1.42-19.46-1.38-28.48-1.72-54.18-2.05-107.91,2.72-161.52,3.4-109.09,1.38-217.53-2.44-326.44-.13-63.11,1.34-126.06-.55-189.11,1.76-28.49,1.04-57.22.36-85.71,1.58l11.4,4.86-14.58,5.08c4.43,12.98-12.63,9.5-18.03,16.98l9.77,3.26-8.14,2.42,9.77.02-6.5,13.05c2.73-1.81,3.74-2.75,7.24-3.36,1.64-.28,8.5-1.3,7.42,2.52-4.34,5.74-10.21,1.74-16.29,2.49l8.12,5.7-9.75,2.46,8.14,2.42-3.49,7.1-7.94,1.07Z"/>
  <path class="cls-1" d="M1029.42,782.17c-2.56-2.21-4.01-6.94-7.29-9.03l3.25-.82-3.27-2.43,3.27-2.43c-8.16,3.65-9.19-2.71-16.3-3.3l6.59-7.36c-2.27-2.48-2.92-9.01-4.15-10.62-1.43-1.88-4.88-1.14-5.48-1.8-1.4-1.54.73-16.79-7.17-16.7l5.3-1.06-1.91-4.6-29.08-.29,4.88-3.23c-10.15-1.05-21.66-.72-31.61-1.85-6.25-.71-14.69-4.69-19.75-4.72-6.28-.04-16.18,2.8-22.88,3.27-8.35.59-16.91-.4-25.26.03l3.25,3.23c-5.88-.96-11.39,1.39-17.07,1.71-1.79.1-6.18,1.05-5.75-1.68l8.14-1.63c-58.92-3.27-118.05-.83-177.07-.08-45.51.57-91.25,1.88-137.04,1.63-50.12-.28-101.14-2.67-151.73-1.63-79.95,1.64-160.29.39-239.69,3.4-29.02,1.1-58.32.25-87.34,1.58l11.4,4.86-14.64,5c4.53,13.14-12.32,9.43-17.97,17.06l9.77,2.46-8.14,3.23,9.77.03-6.5,13.05c4.25-3.42,10.31-5.65,14.63-.82-4.38,6.99-9.75,1.69-16.27,2.47,2.11,3.72,8.23.76,6.51,8.14l-9.77,1.62,9.77,1.63c-4.55-.71-3.31,3.11-3.25,6.55l-8.15,1.62,9.77.03-4.91,1.63c2.83,14.22,12.76,6.59,21.17,13.11l-8.09,8.93c8.85,6.04,19,1.03,29.35,2.45l-4.88,3.23,60.35,1.67-3.26,1.63c2.34,6.41,6.25.51,10.69.07,23.35-2.34,52.63,3.95,76.53,4.88,132.74,5.18,272.54-.03,404.63-3.39,18.42-.47,36.35-.68,54.69.04l-4.88-3.23c3.92.44,8.61-.66,12.34-.15,3.12.42,2.17,3.34,3.36,3.48,4.03.46,15.75-3.21,21-3.35,24.27-.65,49.71,1.31,73.44,1.62,15.8.2,31.69,1.41,47.23,1.71,22.08.43,44.11-1.02,66.13-.08l-6.52-1.63c5.17-7.36,19.8-1.4,26.71-2.09,12.43-1.25,30.71-6.99,42.68-7.71,8.08-.49,14.19,3.19,21.97,3.28-1.45-3.13-.51-6.4,2.74-7.99l16.83,1.46-4.88-4.86,6.51-3.26-14.67-4.9,32.63-6.57c-2-4.15-7.15-3.45-10.65-6.47Z"/>
  <path class="cls-1" d="M1029.42,943.77c-2.56-2.21-4.01-6.94-7.29-9.03l3.25-.82-3.03-1.79,1.41-3.08c-7.11,3.75-8-3.42-14.68-3.29l6.59-7.36c-2.27-2.48-2.92-9.01-4.15-10.62-1.43-1.88-4.88-1.14-5.48-1.8-1.4-1.54.73-16.79-7.17-16.7l5.3-1.06-1.91-4.6-29.08-.29,4.88-3.23c-10.15-1.05-21.66-.72-31.61-1.85-6.25-.71-14.69-4.69-19.75-4.72-6.28-.04-16.18,2.8-22.88,3.27-8.35.59-16.91-.41-25.26.03l3.25,3.23c-5.88-.83-11.36,1.22-17.08,1.72-1.32.12-5.94.5-3.3-1.71l7.33-1.61c-39.34-1.21-78.81-2.38-118.35-1.73-85.51,1.42-170.52,2.76-256,1.64-32.36-.42-64.79.44-97.13.08l4.05,3.27c-14.14-4.16-28.68-.21-42.33.04-66.25,1.23-131.54-2.49-197.41,0-29.02,1.1-58.32.25-87.34,1.58l11.4,4.86-14.64,5c4.48,12.98-12.18,10.01-17.97,17.06l9.77,2.46-8.14,3.23,9.77.02-6.5,13.05c4.25-3.42,10.31-5.65,14.63-.81-4.57,7.27-10.98,1.16-17.91,2.46l7.43,3.15.71,4.99-9.77,1.62,9.77,1.63c-4.55-.71-3.31,3.11-3.25,6.55l-8.15,1.62,9.77.03-3.31,2.61c-.24,13.17,12.56,5.65,19.57,12.12l-8.09,8.93c8.85,6.04,19,1.03,29.35,2.45l-4.88,3.23,60.35,1.67-3.26,1.63c2.34,6.41,6.24.52,10.69.07,23.04-2.32,52.85,3.98,76.53,4.88,132.75,5.07,272.48-.03,404.63-3.39,18.42-.47,36.35-.68,54.69.04l-4.88-3.23c3.92.44,8.61-.66,12.34-.15,3.12.42,2.17,3.34,3.36,3.48,3.84.44,16.11-3.05,21.17-3.18,24.32-.67,49.54,1.16,73.26,1.46,15.81.2,31.68,1.41,47.23,1.71,22.08.43,44.11-1.02,66.13-.08l-6.52-1.63c5.17-7.36,19.8-1.4,26.71-2.09,12.43-1.25,30.71-6.99,42.68-7.71,8.08-.49,14.19,3.19,21.97,3.28-1.45-3.13-.51-6.4,2.74-7.99l16.83,1.46-4.88-4.86,6.51-3.26-14.67-4.9,32.63-6.57c-2-4.15-7.15-3.45-10.65-6.47Z"/>
  <path class="cls-1" d="M1029.41,300.78c4.03-11.55-3.9-22.56-4.02-34.45l7.34,4.88c2.9-1.22-9.19-12.65-10.04-12.91-3.05-.96-5.77,1.62-8.74,1.48l1.63-3.2-5.88-1.73c-4.42,4.53-7.38,3.55-13.67,3.29l8.14-3.23-22.83,1.6c3.2-5.96,12.46-2.33,17.94-3.26l-5.7-1.61.83-3.26c-17.55,6.42-37.5,4.99-56.37,4.95-12.04-.02-21.2-.94-34.13,0-23.35,1.72-49.25,3-73.55,3.27-9.3.1-11.91,1.12-19.53,1.68-5.22.38-10.21-2.42-15.47-1.77l4.88-3.23c-39.9,1.94-79.89,3.19-119.97,3.32-3.45.01-6.7-1.68-9.74-1.68-20.12-.04-48.95.22-68.45,3.31-1.87.3-3.01.84-4.13,2.4l4.88,4.05c-10.33,1.62-3.32,18.11-16.3,17.99-.68,2.74,2.19,1.01,2.91,1.86.35.41-1.14,2.17-.84,2.67.43.72,3.54.46,4.16,4.8.65,4.47-.93,6.56-2.98,10.24l6.54.02v4.89s-6.53.02-6.53.02c-.71,2.71,2.59.88,2.99,2.36.84,3.09-1.05,14.3-4.62,16.4l3.25,2.43-3.25.82c4.81,8.95,18.03,8.73,6.51,19.63,4.34,5.43,7.24,2.99,12.15,4.12,2.55.59,4.41,2.8,6.7,3.11,5.74.79,11.89-.62,17.67.3l1,4.67c16.11-4.78,32.3,1.89,48.34,3.05,38.36,2.79,75.98-.95,113.93-3.11,2.46-.14,4.97.14,7.42.08l-1.65,3.24c16.02-.85,32.08-2.09,48.14-3.4,2.88-.24,5.72.28,8.28,1.64l1.59-3.21c26.14,1.01,53.01-3.34,79.79.16l48.19-.09-3.25-3.23c2.91-.32,6.27.53,9.06.06,7.1-1.2,17.35-6.68,21.78-7.42,3.71-.62,7.58,3.24,11.57,2.43l.16-6.39,6.47-1.18c.76-3.8,2.04-8.74-3.32-8.79l-.03-2.37,12.99-8.25-.07-2.27c-8.07-2.84-4.72-15.35-12.18-21.14Z"/>
  <path class="cls-1" d="M57.9,308.77v1.59c-5.44-1.27-1.92,11.44-1.15,15.05.48,2.25,3.2,4.1,3.6,5.98.64,3.01-1.72,8.96.81,13.27l-7.33-4.89c-3.1,3.06,2.93,4.65,4.96,6.53,1.55,1.44,2.08,4.67,3.53,4.99,3.27.71,8.04-2.05,11.91-.08l-1.64,3.23c11.1,3.79,21.31-2.21,32.64-1.6-3.2,5.96-12.46,2.33-17.94,3.26-.12,1.61,7.07,4.32,7.66,4.41,3.52.54,10.93-4.28,16.04-4.52,55.27-2.53,111.13,2.3,166.25-4.92,1.44-.19,7.84-.96,7.44,1.73l-8.14,1.63c40.22,3.73,79.67-2.82,119.98-1.69,19.37.54,29.42,2.3,48.96.17,13.38-1.46,29.43-.36,43.14-1.74l-4.88-3.28c-1.35-4.4,2.83-2.84,4.74-5.77,3.14-4.82.25-14.37,9.93-15.45-5.33-5.46-7.09-13.21-1.63-19.54l-6.54-.02.03-4.89,6.51,1.61c-4.53-4.29-4.99-16.84,1.62-17.97l-3.23-4.87,3.27-.82c-4.04-.88-2.89-4.58-5.01-6.46-2.16-1.92-7.26-.51-6.53-8.04l3.47-2-1.77-7.18c-8.48,5.13-10.9-2.69-15.56-3.31-26.42-3.53-55.73-5.73-83.19-6.41-44.21-1.09-89.31-1.04-133.78-.13-25.32.52-51.32,5.74-76.62,5.67-6.4-.02-13.26-1.06-19.56-2.36l-.03,3.3c-19.7-3.45-39.57-3.68-59.53-3.26l3.26,1.63c-2.18,6.14-8.23,1.65-12,2.16-5.39.73-16.83,6.87-20.06,7.21-3.52.36-6.72-3.16-10.36-2.83l-.14,6.38-9.64.15c-.66,2.93,2.71,1.05,3.24,1.62,3.2,3.42-5.39,2.52-3.24,6.49l6.48,4.11c0,2.18-16.05,4.15-14.64,10.58,10.75,2.4,3.59,18.82,14.66,21.27Z"/>
  <path class="cls-1" d="M57.42,664.7c3.24.71,8.05-2.04,11.92-.09l-1.65,3.24,19.58-3.23-13.04,4.86c5.9-2.31,12.4,4,15.78,4.49,3.6.52,12.43-4.07,16.16-4.45,3.05-.31,5.62,1.41,8.02,1.3,53.39-2.43,106.82-.63,159.8-6.3,1.57-.17,7.78-1.03,7.41,1.7l-8.14,1.63c39.54,4.02,78.67-2.81,118.35-1.69,20.43.58,31.64,1.59,52.12.07,13.09-.98,26.83-.45,39.98-1.64l-4.88-3.28v-3.2c10.64-2.28,2.65-14.71,14.64-18.8-6.3-4.58-5.85-12.58-1.6-18.76l-6.52-.02c-1.3-4.15,4.1-4.11,4.62-5.09.75-1.41-3.55-16.22,3.55-16.94-.06-.74-8.48-1.76,0-4.87-2.7-8.06-11.97-5.51-11.51-14.47l4.97-5.17c-5.2-6.57-6.79-1.59-11.98-2.34-1.21-.17-1.2-2.74-2.2-3.33-4.56-2.7-18.57.14-24.9-1.77l-.09-4.78c-10.65,6.75-27.42-.73-39.98-1.6-48.95-3.41-105.56-.72-155.04-.08-31.87.41-64.43,8.72-96.08,3.27l-1.93,3.42c-19.59-4.31-39.53-2.86-59.36-3.35l3.26,1.63c-2.18,6.14-8.23,1.65-12,2.16-5.39.73-16.83,6.87-20.06,7.21-3.52.36-6.72-3.16-10.36-2.84l-.14,6.38-8.03.14c1.76,3.21,1.49,5.17-1.61,7.35l6.49,4.89-14.64,8.15c8.42,3.09,6.29,15.22,7.41,17.22.49.88,3,1.41,4.03,2.84,4.78,6.6.41,7.19.74,12.68.27,4.57,7.41,24.72,5.74,26.85l-6.49-3.26c-1.29,4.46,2.22,2.87,4.13,4.82,1.48,1.52,2.11,4.77,3.52,5.08Z"/>
  <path class="cls-1" d="M1029.84,619.3c-.7-1.27-5.32-2.75-6.1-6.15-.25-1.09,2.59-.39,2.94-1.56,1.73-5.89-8.05-30.35-6.94-38.47l-10.68.05,1.65-3.23c-5.46-2.83-7.21.85-12.17,1.7-1.37.24-7.82,1.01-7.41-1.71l8.14-1.63-22.82,1.6c3.35-5.28,12.69-2.66,17.93-3.26l-5.7-1.61.83-3.26c-5.59.3-9.92,4.48-15.51,4.98-12.14,1.08-29.56-.13-42.49-.03-35.53.27-71.74,3.27-107.59,3.19-10.94-.02-19.52,1.56-30.85-.15-23.66-3.56-46.2-.06-70.25.22-40.46.48-85.96-4.67-125.64,1.62-1.88.3-3.01.84-4.13,2.4l4.86,3.26c-10.77,4.28-2.35,18.39-16.27,18.79-.68,2.74,2.2,1,2.91,1.85.35.41-1.14,2.17-.84,2.67.29.49,2.4.6,2.8,1.47,2.64,5.74,2.37,8.71-1.62,13.56l6.54.02v4.88s-6.53.02-6.53.02l3.35,4.02c-.98,5.18-.47,11.02-4.98,14.74l3.25,2.43-3.25.82c4.9,8.9,17.86,8.63,6.54,20.38,4.86,4.23,7.42,2.28,12.12,3.37,42.43,9.81,99.15,13.76,143.66,12.65,7.25-.18,49.25-6.02,51.41-4.55l-1.65,3.24c.82,0,1.65.1,2.48.08,18.04-.47,37.83-4.22,55.36-1.61l1.59-3.21c8.11,3.54,17.87-.74,26.42-1.59l100.14,1.43-3.25-3.23c2.88-.37,6.33.58,9.05.08,6.73-1.24,17.41-6.7,21.79-7.44,3.62-.61,7.57,3.21,11.57,2.43-3.06-9.5,4.67-5.21,6.32-6.78.73-.7-.75-5.54,3.45-4.67l-6.49-7.29,14.66-7.39c-8.53-4.02-5.97-14.39-8.59-19.15Z"/>
  <path class="cls-1" d="M583.27,439.41c5.28,7.53,9.32,11.05,1.62,19.5l6.54.02v4.89s-4.92.02-4.92.02c1.77,3.69,2.44,17.72-3.24,17.97l4.87,3.22-4.87,1.62c4.15-.53,2.91,3.87,4.98,5.67,1.37,1.19,3.97,0,5.37,2.9,2.81,5.82-3.54,8.76-.41,14.17,2.81.69,5.93-.49,8.72.22,41.5,10.58,91.75,11.82,135.57,11.28,38.43-.48,77.34-3.78,115.67-1.48l1.83-3.41c8.38,3.61,17.56-.4,26.2-1.38l100.14,1.43-3.25-3.23c14.9,2.28,28.13-9.31,42.41-4.93l.13-6.39,8.03-.14-1.74-3.96,3.36-.94-6.5-7.3,14.64-8.18c-7.33-2.86-5.9-14.82-7.34-17.09-7.51-11.79-2.85-5.82-5.07-17.69-1.07-5.73-3.95-8.55-4.66-11.54-.64-2.71,1.37-8.63-.87-12.43h4.91c-4.44-4.38-6.77-9.65-13.73-5.72-5.87-9.65-6.93-1.88-9.8-1.5-2.79.37-6.16-.45-9.08-.15l8.14-3.23-24.46,1.6c3.35-5.28,12.69-2.66,17.93-3.26l-5.7-1.61.83-3.26c-5.59.3-9.92,4.48-15.51,4.98-23.18,2.06-48.93-1.43-73.34,0-23.58,1.38-49.34,3.4-73.56,3.24-10.38-.07-11.28.96-19.49,1.72-5.43.5-11.38-2.91-17.14-1.8l6.51-1.63-5.76-1.69-196.53,4.98,3.24,5.68c-9.22,5.48-2.38,16.11-14.66,18.87Z"/>
  <path class="cls-1" d="M43.26,445.33c3.86,6.04,1.43,12.83,1.81,13.41.24.36,3.35.96,4.75,2.56,5.01,5.71.46,8.02.75,13.16.16,2.95,3.41,10.29,3.94,13.16,1.16,6.33,1.7,13.82,1.78,20.28l10.57-1.63.96,4.76c11.29,3.65,21.17-1.25,32.51-1.49,5.67,4.35-15.28,3.39-16.3,3.27-.45,2.72,2.37,1.13,4.35,2.19.67.36.63,2.72,1.49,2.75,3.59.15,12.44-4.96,16.16-5.1,55.04-2.1,111.78,3.49,166.38-4.8,2.82-.43,6.11.28,9.02.07l-8.14,3.23c39.68,4,78.57-2.85,118.35-1.69,20.45.59,31.64,1.59,52.12.07,13.09-.98,26.83-.45,39.98-1.64l-4.89-4.06c7.47-3.71,5.36-11.47,8.04-16.03,2.52-4.27,9.01-.78,4.48-11.67-.46-1.11-2.95-.47-2.91-3.24.05-3.57,1.98-6.07,3.43-9.04l-6.52-.02c-1.11-4.21,3.44-3.76,4.58-5.17.58-.72-2.6-17.77,3.56-16.07l-3.24-4.06,3.27-1.59c-2.31-8.17-9.71-7.68-10.73-12.2l4.01-8.04c-5.35-5.68-6.76-1.03-11.79-1.76-1.21-.17-1.2-2.74-2.2-3.33-4.56-2.7-18.57.14-24.9-1.77l-.09-4.78c-10.22,6.87-26.34-.61-38.35-1.6-48.09-3.94-107.42-.97-156.66-.09-25.4.45-51.51,5.93-76.89,5.97-6.81,0-19.14-5.31-21.12.72-19.56-3.87-39.49-3.54-59.35-3.34l3.26,1.63c-2.3,6.53-8.46,1.11-12.04,1.53-.65.08-6.72,2.54-11.25,3.73-2.43.64-4.52,3.84-7.26,4.29-4.17.69-7.45-3.91-11.87-3.02l-.13,6.39-8.04.14c1.47,6.33-1.1,9.35,6.52,12.22-5.83,3.13-10.09,2.54-14.67,8.18-1.07,3.39,2.18,1.81,3.28,3.53Z"/>
  <rect class="cls-1" x="185.17" y="91.66" width="148.46" height="1.63"/>
  <rect class="cls-1" x="185.17" y="713.56" width="146.83" height="1.63"/>
  <rect class="cls-1" x="185.17" y="875.16" width="146.83" height="1.63"/>
  <path class="cls-1" d="M691.78,251.7c-12.06-.21-25.69-3.34-38.37-1.69l7.32,3.26,57.93-.03c-5.49-6.6-18.62-1.4-26.88-1.54Z"/>
  <path class="cls-1" d="M385.03,355.94l-15.5,3.42h66.89l-23.66-3.26c-9.54,3.04-18.19,1.22-27.74-.15Z"/>
  <path class="cls-1" d="M380.14,512.65l-15.51,3.41h66.89l-22.03-3.26c-10.02,3.07-19.35,1.31-29.36-.14Z"/>
  <path class="cls-1" d="M409.33,669.65c-10.02,2.74-19.2,1.2-29.19-.3l-15.51,3.41h66.89l-22.2-3.1Z"/>
  <path class="cls-1" d="M654.37,566.51c5.87.64,19.79,2.1,23.51-3.11h-29.37c-.28,2.4,4.26,2.94,5.85,3.11Z"/>
  <path class="cls-1" d="M620.07,95.05c3.03-.42,2.14-3.05,3.46-3.36,5.29-1.24,16.17.23,22.55-.04,2-.08,6.06,1.24,5.69-1.63h-37.52l6.52,3.25-9-1.59-.78,3.23c2.92-.31,6.3.52,9.08.14Z"/>
  <path class="cls-1" d="M675.03,409.54c1.46-.22,4.91-.7,4.48-2.85h-29.37c-.28,2.41,4.26,2.94,5.86,3.12,5.6.61,13.5.59,19.03-.26Z"/>
  <path class="cls-1" d="M159.96,95c2.95-.08,10.91-.1,12.16-3.34h-27.74c2.18,4.38,11.3,3.45,15.58,3.34Z"/>
  <path class="cls-1" d="M679.51,566.66h35.89c-.43-3.34-6.53-3-8.97-3.41l-26.92,3.41Z"/>
  <path class="cls-1" d="M706.44,406.56l-25.3,3.4h34.26c-.43-3.33-6.53-3.02-8.96-3.4Z"/>
  <path class="cls-1" d="M352.32,711.86c-3.01.15-10.87.05-12.16,3.34h26.1c1.72-5.22-10.66-3.51-13.94-3.34Z"/>
  <path class="cls-1" d="M162.95,716.62c2.03-.15,10.09-.91,10.81-3.06h-27.74c2.6,5.21,12.13,3.42,16.93,3.06Z"/>
  <path class="cls-1" d="M352.33,873.46c-2.84.16-9.73-.29-10.53,3.34h24.47c1.74-5.2-10.7-3.52-13.94-3.34Z"/>
  <path class="cls-1" d="M162.95,878.22c2.03-.15,10.09-.91,10.81-3.06h-27.74c2.6,5.21,12.13,3.42,16.93,3.06Z"/>
</svg>