<svg width="21" height="21" viewBox="0 0 21 21" fill="none" xmlns="http://www.w3.org/2000/svg">
<path fill-rule="evenodd" clip-rule="evenodd" d="M0 10.2691C0 4.59894 4.59564 0 10.2691 0C12.9934 0 15.6053 1.08113 17.5295 3.00866C19.4538 4.93287 20.5382 7.54478 20.5382 10.2691C20.5382 15.9393 15.9426 20.5382 10.2691 20.5382C4.59895 20.5382 0 15.9426 0 10.2691Z" fill="#0E336C"/>
<path d="M7.14829 6.90582C7.08429 6.83382 7.08429 6.75382 7.14829 6.66582C7.38029 6.40182 7.65229 6.18182 7.96429 6.00582C8.27629 5.82182 8.61629 5.68182 8.98429 5.58582C9.36029 5.48982 9.74829 5.44182 10.1483 5.44182C10.8203 5.44182 11.3963 5.54182 11.8763 5.74182C12.3563 5.93382 12.7243 6.20182 12.9803 6.54582C13.2443 6.88982 13.3763 7.28982 13.3763 7.74582C13.3763 8.13782 13.2523 8.50982 13.0043 8.86182C12.7563 9.20582 12.3963 9.45382 11.9243 9.60582C11.8363 9.63782 11.7923 9.67382 11.7923 9.71382C11.7923 9.75382 11.8363 9.78582 11.9243 9.80982C12.2523 9.90582 12.5483 10.0578 12.8123 10.2658C13.0763 10.4658 13.2803 10.7058 13.4243 10.9858C13.5763 11.2658 13.6523 11.5818 13.6523 11.9338C13.6523 12.4698 13.5163 12.9378 13.2443 13.3378C12.9723 13.7378 12.5643 14.0458 12.0203 14.2618C11.4843 14.4778 10.8083 14.5858 9.99229 14.5858C9.56029 14.5858 9.14029 14.5298 8.73229 14.4178C8.33229 14.3058 7.96429 14.1458 7.62829 13.9378C7.30029 13.7218 7.02029 13.4658 6.78829 13.1698C6.74029 13.1138 6.72029 13.0618 6.72829 13.0138C6.74429 12.9578 6.78029 12.9098 6.83629 12.8698L7.62829 12.2938C7.69229 12.2538 7.74029 12.2378 7.77229 12.2458C7.81229 12.2458 7.84429 12.2618 7.86829 12.2938C8.11629 12.5418 8.35229 12.7418 8.57629 12.8938C8.80029 13.0378 9.03629 13.1458 9.28429 13.2178C9.53229 13.2818 9.80429 13.3138 10.1003 13.3138C10.6763 13.3138 11.1203 13.1898 11.4323 12.9418C11.7523 12.6938 11.9123 12.3698 11.9123 11.9698C11.9123 11.6578 11.8243 11.3938 11.6483 11.1778C11.4723 10.9618 11.2403 10.7978 10.9523 10.6858C10.6723 10.5658 10.3683 10.5058 10.0403 10.5058L8.99629 10.4938C8.86829 10.4938 8.80429 10.4418 8.80429 10.3378V9.38982C8.80429 9.30182 8.86829 9.24982 8.99629 9.23382L9.83629 9.20982C10.1883 9.20182 10.5003 9.13782 10.7723 9.01782C11.0443 8.89782 11.2563 8.73782 11.4083 8.53782C11.5683 8.32982 11.6483 8.09782 11.6483 7.84182C11.6483 7.62582 11.5803 7.42982 11.4443 7.25382C11.3163 7.07782 11.1363 6.94182 10.9043 6.84582C10.6803 6.74182 10.4203 6.68982 10.1243 6.68982C9.74029 6.68982 9.38829 6.76182 9.06829 6.90582C8.74829 7.04982 8.43229 7.27382 8.12029 7.57782C8.07229 7.62582 8.03229 7.65382 8.00029 7.66182C7.96829 7.66182 7.92429 7.63782 7.86829 7.58982L7.14829 6.90582Z" fill="white"/>
</svg>
