<svg width="21" height="21" viewBox="0 0 21 21" fill="none" xmlns="http://www.w3.org/2000/svg">
<path fill-rule="evenodd" clip-rule="evenodd" d="M0 10.2691C0 4.59894 4.59564 0 10.2691 0C12.9934 0 15.6053 1.08113 17.5295 3.00866C19.4538 4.93287 20.5382 7.54478 20.5382 10.2691C20.5382 15.9393 15.9426 20.5382 10.2691 20.5382C4.59895 20.5382 0 15.9426 0 10.2691Z" fill="#0E336C"/>
<path d="M10.661 4.98092C11.021 4.98092 11.345 5.02892 11.633 5.12492C11.929 5.21292 12.189 5.32892 12.413 5.47292C12.645 5.61692 12.837 5.77692 12.989 5.95292C13.149 6.12092 13.261 6.28492 13.325 6.44492C13.341 6.49292 13.349 6.54092 13.349 6.58892C13.349 6.62892 13.317 6.66092 13.253 6.68492L12.161 7.06892C12.105 7.08492 12.057 7.07692 12.017 7.04492C11.985 7.01292 11.961 6.98092 11.945 6.94892C11.793 6.74092 11.621 6.57292 11.429 6.44492C11.237 6.30892 10.981 6.24092 10.661 6.24092C10.205 6.24092 9.82096 6.35292 9.50896 6.57692C9.20496 6.80092 8.97696 7.10892 8.82496 7.50092C8.67296 7.89292 8.59696 8.34092 8.59696 8.84492C8.59696 8.98892 8.60896 9.07692 8.63296 9.10892C8.66496 9.14092 8.73296 9.13292 8.83696 9.08492C9.12496 8.96492 9.41696 8.85292 9.71296 8.74892C10.009 8.64492 10.369 8.59292 10.793 8.59292C11.409 8.59292 11.941 8.70492 12.389 8.92892C12.845 9.15292 13.197 9.46492 13.445 9.86492C13.693 10.2569 13.817 10.7089 13.817 11.2209C13.817 11.7809 13.665 12.2809 13.361 12.7209C13.065 13.1529 12.665 13.4929 12.161 13.7409C11.657 13.9809 11.093 14.1009 10.469 14.1009C9.72496 14.1009 9.08096 13.9249 8.53696 13.5729C7.99296 13.2129 7.57296 12.7049 7.27696 12.0489C6.98096 11.3929 6.83296 10.6129 6.83296 9.70892C6.83296 8.72492 6.98896 7.88092 7.30096 7.17692C7.62096 6.47292 8.06496 5.93292 8.63296 5.55692C9.20896 5.17292 9.88496 4.98092 10.661 4.98092ZM10.457 9.78092C10.281 9.78092 10.085 9.80492 9.86896 9.85292C9.66096 9.89292 9.46096 9.94892 9.26896 10.0209C9.08496 10.0849 8.93296 10.1569 8.81296 10.2369C8.73296 10.2929 8.68096 10.3489 8.65696 10.4049C8.63296 10.4609 8.62096 10.5529 8.62096 10.6809C8.62096 10.9529 8.65696 11.2209 8.72896 11.4849C8.80896 11.7409 8.92496 11.9769 9.07696 12.1929C9.22896 12.4089 9.41696 12.5809 9.64096 12.7089C9.86496 12.8369 10.129 12.9009 10.433 12.9009C10.737 12.9009 11.013 12.8329 11.261 12.6969C11.509 12.5529 11.705 12.3609 11.849 12.1209C11.993 11.8729 12.065 11.5929 12.065 11.2809C12.065 10.9849 11.997 10.7249 11.861 10.5009C11.725 10.2769 11.537 10.1009 11.297 9.97292C11.057 9.84492 10.777 9.78092 10.457 9.78092Z" fill="white"/>
</svg>
