<svg width="21" height="21" viewBox="0 0 21 21" fill="none" xmlns="http://www.w3.org/2000/svg">
<path fill-rule="evenodd" clip-rule="evenodd" d="M0.0712891 10.7044C0.0712891 5.03424 4.66693 0.435303 10.3404 0.435303C13.0647 0.435303 15.6766 1.51644 17.6008 3.44396C19.525 5.36818 20.6095 7.98008 20.6095 10.7044C20.6095 16.3746 16.0139 20.9735 10.3404 20.9735C4.67024 20.9735 0.0712891 16.3779 0.0712891 10.7044Z" fill="#0E336C"/>
<path d="M10.744 5.71671C10.808 5.63671 10.868 5.58471 10.924 5.56071C10.98 5.53671 11.06 5.52471 11.164 5.52471H12.436C12.548 5.52471 12.604 5.58871 12.604 5.71671V10.8647C12.604 10.9527 12.644 10.9967 12.724 10.9967H13.756C13.892 10.9967 13.96 11.0487 13.96 11.1527V12.0287C13.96 12.1647 13.888 12.2327 13.744 12.2327H12.736C12.648 12.2327 12.604 12.2767 12.604 12.3647V14.1887C12.604 14.3487 12.516 14.4287 12.34 14.4287H11.032C10.88 14.4287 10.804 14.3567 10.804 14.2127L10.816 12.3287C10.816 12.2647 10.772 12.2327 10.684 12.2327H6.97597C6.83197 12.2327 6.75997 12.1647 6.75997 12.0287V11.1647C6.75997 11.1007 6.77997 11.0287 6.81997 10.9487C6.85997 10.8687 6.92797 10.7687 7.02397 10.6487L10.744 5.71671ZM10.708 10.9967C10.78 10.9967 10.816 10.9687 10.816 10.9127V7.57671C10.816 7.47271 10.8 7.42071 10.768 7.42071C10.744 7.41271 10.704 7.44871 10.648 7.52871L8.22397 10.8407C8.14397 10.9447 8.17197 10.9967 8.30797 10.9967H10.708Z" fill="white"/>
</svg>
