<svg width="22" height="21" viewBox="0 0 22 21" fill="none" xmlns="http://www.w3.org/2000/svg">
<path fill-rule="evenodd" clip-rule="evenodd" d="M0.883301 10.46C0.883301 4.78986 5.47894 0.190918 11.1524 0.190918C13.8767 0.190918 16.4886 1.27205 18.4128 3.19957C20.3371 5.12379 21.4215 7.7357 21.4215 10.46C21.4215 16.1302 16.8259 20.7291 11.1524 20.7291C5.48225 20.7291 0.883301 16.1335 0.883301 10.46Z" fill="#0E336C"/>
<path d="M10.6967 10.3681C11.0647 10.0401 11.3647 9.75608 11.5967 9.51608C11.8367 9.27608 12.0247 9.06008 12.1607 8.86808C12.3047 8.67608 12.4047 8.49608 12.4607 8.32808C12.5167 8.15208 12.5447 7.96808 12.5447 7.77608C12.5447 7.49608 12.4727 7.26008 12.3287 7.06808C12.1927 6.87608 12.0127 6.72808 11.7887 6.62408C11.5727 6.52008 11.3287 6.46808 11.0567 6.46808C10.8407 6.46808 10.6247 6.50808 10.4087 6.58808C10.1927 6.66808 9.98074 6.80008 9.77274 6.98408C9.57274 7.16008 9.38474 7.40008 9.20874 7.70408C9.18474 7.75208 9.14474 7.78008 9.08874 7.78808C9.04074 7.79608 8.98074 7.78008 8.90874 7.74008L8.02074 7.27208C7.94874 7.23208 7.90874 7.18008 7.90074 7.11608C7.89274 7.05208 7.91274 6.98808 7.96074 6.92408C8.35274 6.31608 8.82074 5.87208 9.36474 5.59208C9.91674 5.30408 10.5207 5.16008 11.1767 5.16008C11.7687 5.16008 12.2967 5.26408 12.7607 5.47208C13.2247 5.67208 13.5927 5.96808 13.8647 6.36008C14.1367 6.75208 14.2727 7.22808 14.2727 7.78808C14.2727 8.12408 14.2127 8.44008 14.0927 8.73608C13.9807 9.03208 13.7927 9.33208 13.5287 9.63608C13.2647 9.94008 12.9127 10.2761 12.4727 10.6441L10.1807 12.5761C10.1327 12.6081 10.1087 12.6401 10.1087 12.6721C10.1167 12.7041 10.1647 12.7201 10.2527 12.7201H14.1527C14.2887 12.7201 14.3567 12.7761 14.3567 12.8881V13.9921C14.3567 14.0481 14.3407 14.0961 14.3087 14.1361C14.2767 14.1681 14.2207 14.1841 14.1407 14.1841H8.12874C8.03274 14.1841 7.96474 14.1681 7.92474 14.1361C7.89274 14.1041 7.87674 14.0441 7.87674 13.9561V13.1761C7.87674 13.1281 7.88474 13.0841 7.90074 13.0441C7.92474 12.9961 7.96874 12.9361 8.03274 12.8641C8.10474 12.7841 8.21274 12.6841 8.35674 12.5641L10.6967 10.3681Z" fill="white"/>
</svg>
