<svg width="21" height="21" viewBox="0 0 21 21" fill="none" xmlns="http://www.w3.org/2000/svg">
<path fill-rule="evenodd" clip-rule="evenodd" d="M0.385254 10.594C0.385254 4.92389 4.98089 0.324951 10.6544 0.324951C13.3787 0.324951 15.9906 1.40609 17.9148 3.33361C19.839 5.25782 20.9235 7.86973 20.9235 10.594C20.9235 16.2642 16.3278 20.8631 10.6544 20.8631C4.9842 20.8631 0.385254 16.2675 0.385254 10.594Z" fill="#0E336C"/>
<path d="M13.3131 5.41387C13.4331 5.41387 13.5051 5.42987 13.5291 5.46187C13.5531 5.49387 13.5611 5.55787 13.5531 5.65387L13.5051 6.66187C13.4971 6.73387 13.4771 6.78587 13.4451 6.81787C13.4211 6.84187 13.3611 6.85387 13.2651 6.85387H9.37709C9.25709 6.85387 9.19709 6.90587 9.19709 7.00987L9.02909 8.90587C9.02109 8.96987 9.03309 9.01787 9.06509 9.04987C9.10509 9.07387 9.14509 9.07387 9.18509 9.04987C9.49709 8.92987 9.78509 8.82987 10.0491 8.74987C10.3131 8.66187 10.6291 8.61787 10.9971 8.61787C11.5731 8.61787 12.0971 8.72187 12.5691 8.92987C13.0411 9.12987 13.4171 9.43787 13.6971 9.85387C13.9851 10.2619 14.1291 10.7819 14.1291 11.4139C14.1291 12.0459 13.9771 12.5899 13.6731 13.0459C13.3691 13.4939 12.9491 13.8379 12.4131 14.0779C11.8851 14.3179 11.2731 14.4379 10.5771 14.4379C9.85709 14.4379 9.20109 14.3179 8.60909 14.0779C8.01709 13.8299 7.54909 13.4899 7.20509 13.0579C7.15709 12.9939 7.12909 12.9339 7.12109 12.8779C7.11309 12.8219 7.14509 12.7659 7.21709 12.7099L8.04509 12.1099C8.14109 12.0379 8.23309 12.0539 8.32109 12.1579C8.52109 12.3499 8.71709 12.5259 8.90909 12.6859C9.10109 12.8379 9.31309 12.9579 9.54509 13.0459C9.77709 13.1339 10.0531 13.1779 10.3731 13.1779C10.7971 13.1779 11.1571 13.1059 11.4531 12.9619C11.7571 12.8099 11.9851 12.6059 12.1371 12.3499C12.2971 12.0859 12.3771 11.7899 12.3771 11.4619C12.3771 11.1339 12.3011 10.8539 12.1491 10.6219C12.0051 10.3819 11.8011 10.2019 11.5371 10.0819C11.2731 9.95387 10.9691 9.88987 10.6251 9.88987C10.2971 9.88987 9.99709 9.94587 9.72509 10.0579C9.45309 10.1699 9.17709 10.2979 8.89709 10.4419C8.83309 10.4739 8.78909 10.4899 8.76509 10.4899C8.74109 10.4819 8.69309 10.4619 8.62109 10.4299L7.70909 9.92587C7.62909 9.87787 7.58509 9.83387 7.57709 9.79387C7.57709 9.75387 7.58109 9.68187 7.58909 9.57787L7.92509 5.65387C7.93309 5.55787 7.95709 5.49387 7.99709 5.46187C8.04509 5.42987 8.14509 5.41387 8.29709 5.41387H13.3131Z" fill="white"/>
</svg>
