<svg width="22" height="21" viewBox="0 0 22 21" fill="none" xmlns="http://www.w3.org/2000/svg">
<path fill-rule="evenodd" clip-rule="evenodd" d="M0.594727 10.3287C0.594727 4.65851 5.19037 0.0595703 10.8638 0.0595703C13.5881 0.0595703 16.2001 1.1407 18.1243 3.06823C20.0485 4.99244 21.1329 7.60435 21.1329 10.3287C21.1329 15.9988 16.5373 20.5978 10.8638 20.5978C5.19367 20.5978 0.594727 16.0021 0.594727 10.3287Z" fill="#0E336C"/>
<path d="M10.4984 14.1607C10.1304 14.1607 9.79443 14.1167 9.49043 14.0287C9.19443 13.9327 8.93043 13.8127 8.69843 13.6687C8.46643 13.5247 8.27043 13.3687 8.11043 13.2007C7.95843 13.0247 7.84643 12.8527 7.77443 12.6847C7.75843 12.6447 7.75043 12.6007 7.75043 12.5527C7.75843 12.5047 7.79043 12.4687 7.84643 12.4447L8.93843 12.0727C8.99443 12.0567 9.03843 12.0647 9.07043 12.0967C9.11043 12.1207 9.13843 12.1487 9.15443 12.1807C9.31443 12.3967 9.49443 12.5727 9.69443 12.7087C9.89443 12.8367 10.1624 12.9007 10.4984 12.9007C10.9464 12.9007 11.3184 12.7887 11.6144 12.5647C11.9184 12.3407 12.1464 12.0327 12.2984 11.6407C12.4504 11.2407 12.5264 10.7887 12.5264 10.2847C12.5264 10.1407 12.5104 10.0527 12.4784 10.0207C12.4544 9.98873 12.3864 9.99673 12.2744 10.0447C12.0024 10.1727 11.7184 10.2887 11.4224 10.3927C11.1264 10.4967 10.7704 10.5487 10.3544 10.5487C9.74643 10.5487 9.21443 10.4367 8.75843 10.2127C8.31043 9.98873 7.96243 9.67673 7.71443 9.27673C7.46643 8.87673 7.34243 8.42473 7.34243 7.92073C7.34243 7.35273 7.49043 6.85273 7.78643 6.42073C8.08243 5.98873 8.48243 5.65273 8.98643 5.41273C9.49843 5.16473 10.0664 5.04073 10.6904 5.04073C11.4344 5.04073 12.0744 5.22073 12.6104 5.58073C13.1464 5.93273 13.5584 6.43673 13.8464 7.09273C14.1424 7.74873 14.2904 8.52873 14.2904 9.43273C14.2904 10.4087 14.1344 11.2527 13.8224 11.9647C13.5104 12.6687 13.0704 13.2127 12.5024 13.5967C11.9344 13.9727 11.2664 14.1607 10.4984 14.1607ZM10.6784 9.36073C10.8704 9.36073 11.0664 9.34073 11.2664 9.30073C11.4744 9.25273 11.6704 9.19273 11.8544 9.12073C12.0464 9.04073 12.2024 8.95673 12.3224 8.86873C12.3944 8.81273 12.4424 8.75673 12.4664 8.70073C12.4984 8.64473 12.5144 8.55273 12.5144 8.42473C12.5144 8.16073 12.4744 7.90073 12.3944 7.64473C12.3224 7.38073 12.2104 7.14473 12.0584 6.93673C11.9144 6.72073 11.7304 6.54873 11.5064 6.42073C11.2824 6.29273 11.0224 6.22873 10.7264 6.22873C10.4224 6.22873 10.1464 6.30073 9.89843 6.44473C9.65043 6.58873 9.45443 6.78473 9.31043 7.03273C9.16643 7.27273 9.09443 7.54473 9.09443 7.84873C9.09443 8.14473 9.16243 8.40873 9.29843 8.64073C9.43443 8.86473 9.62243 9.04073 9.86243 9.16873C10.1024 9.29673 10.3744 9.36073 10.6784 9.36073Z" fill="white"/>
</svg>
