<svg width="21" height="21" viewBox="0 0 21 21" fill="none" xmlns="http://www.w3.org/2000/svg">
<path fill-rule="evenodd" clip-rule="evenodd" d="M0 10.2691C0 4.59894 4.59564 0 10.2691 0C12.9934 0 15.6053 1.08113 17.5295 3.00866C19.4538 4.93287 20.5382 7.54478 20.5382 10.2691C20.5382 15.9393 15.9426 20.5382 10.2691 20.5382C4.59895 20.5382 0 15.9426 0 10.2691Z" fill="#0E336C"/>
<path d="M13.2187 5.08916C13.3147 5.08916 13.3867 5.11316 13.4347 5.16116C13.4827 5.20116 13.5027 5.24916 13.4947 5.30516L13.4707 5.89316C13.4707 5.95716 13.4427 6.04916 13.3867 6.16916C13.3307 6.28116 13.2747 6.38516 13.2187 6.48116C12.9147 6.92916 12.6267 7.41316 12.3547 7.93316C12.0827 8.45316 11.8307 8.98516 11.5987 9.52916C11.3747 10.0652 11.1747 10.5932 10.9987 11.1132C10.8227 11.6252 10.6747 12.1012 10.5547 12.5412C10.4427 12.9812 10.3707 13.3652 10.3387 13.6932C10.3227 13.8932 10.2467 13.9932 10.1107 13.9932H8.5267C8.3587 13.9932 8.2987 13.9052 8.3467 13.7292C8.4667 13.2812 8.6147 12.8052 8.7907 12.3012C8.9667 11.7972 9.1787 11.2532 9.4267 10.6692C9.6827 10.0852 9.9867 9.46516 10.3387 8.80916C10.6987 8.15316 11.1147 7.45316 11.5867 6.70916C11.6187 6.65316 11.6307 6.60916 11.6227 6.57716C11.6147 6.54516 11.5707 6.52916 11.4907 6.52916H7.2307C7.0867 6.52916 7.0187 6.45716 7.0267 6.31316L7.1347 5.24516C7.1507 5.14116 7.2347 5.08916 7.3867 5.08916H13.2187Z" fill="white"/>
</svg>
