<svg width="37" height="33" viewBox="0 0 37 33" fill="none" xmlns="http://www.w3.org/2000/svg">
<path d="M36.3103 31.9181C36.2853 31.9847 36.2784 32.0694 36.2328 32.1154C35.838 32.5143 35.3847 32.7865 34.7946 32.7123C34.687 32.6986 34.5857 32.6361 34.4801 32.6014C33.8452 32.3921 33.2818 32.0601 32.7547 31.6503C32.4676 31.4268 32.1554 31.2263 31.8315 31.0606C31.0899 30.6818 30.3324 30.3333 29.5839 29.9679C29.0915 29.7275 28.6087 29.4661 28.1106 29.2382C27.7315 29.0647 27.3387 28.9195 26.9455 28.7804C25.9699 28.4351 24.9894 28.1031 24.0122 27.7611C23.0963 27.4404 22.1885 27.0947 21.2653 26.7962C20.6011 26.5812 19.9171 26.4288 19.2439 26.2424C18.8874 26.1436 18.5353 26.0286 18.1792 25.927C17.3718 25.6958 16.5632 25.4675 15.7549 25.2396C15.2347 25.0928 14.7188 24.9238 14.1917 24.8093C13.4432 24.6463 12.7942 24.2518 12.0953 23.9747C11.3585 23.6827 10.6841 23.287 10.0566 22.8126C9.85737 22.6622 9.70371 22.4488 9.53916 22.2556C9.33589 22.0168 9.1173 21.7844 8.95235 21.5202C8.77328 21.2335 8.64342 20.9152 8.49984 20.607C8.24132 20.0508 7.96223 19.5022 7.74283 18.9307C7.60288 18.5652 7.50891 18.1748 7.53553 17.767C7.54561 17.6117 7.46374 17.4503 7.47463 17.2954C7.50165 16.9126 7.55892 16.5323 7.60167 16.1503C7.63152 15.8853 7.65047 15.6187 7.68718 15.3545C7.74041 14.9696 7.76784 14.576 7.8731 14.2049C8.08726 13.453 8.33247 12.7092 8.59058 11.9711C8.91282 11.0498 9.32097 10.1604 9.8614 9.35082C10.3204 8.66309 10.8124 7.99552 11.392 7.39008C11.838 6.92419 12.3317 6.52729 12.8265 6.12513C13.1939 5.82705 13.5573 5.51969 13.9513 5.25992C14.5821 4.84365 15.2585 4.50443 15.9659 4.23619C16.3772 4.08049 16.7946 3.93165 17.2213 3.8292C17.7581 3.70052 18.3083 3.63558 18.8644 3.65535C18.9959 3.66019 19.0415 3.74247 18.9777 3.82839C18.6688 4.24426 18.5212 4.7291 18.3655 5.21031C18.0981 6.0368 17.8227 6.86127 17.5835 7.69582C17.4819 8.04998 17.4633 8.42793 17.4061 8.79499C17.3601 9.09146 17.3129 9.38793 17.2669 9.6848C17.2633 9.7086 17.2625 9.7324 17.2617 9.7566C17.2375 10.769 17.1826 11.7823 17.1996 12.7943C17.2117 13.5054 17.3246 14.2045 17.6001 14.8845C17.8195 15.4254 18.0792 15.9288 18.4143 16.4C18.4486 16.448 18.4825 16.4972 18.524 16.5387C18.9362 16.953 19.3383 17.3781 19.7662 17.775C20.1006 18.0852 20.466 18.3623 20.8209 18.6499C21.1657 18.9295 21.5162 19.2021 21.8614 19.4813C22.253 19.7983 22.6426 20.1178 23.031 20.4384C23.2096 20.5861 23.3859 20.7373 23.5593 20.891C23.8049 21.1084 24.0509 21.3258 24.2909 21.5497C25.0697 22.277 25.8509 23.0018 26.6212 23.7375C27.446 24.5257 28.272 25.3135 29.0745 26.1242C29.6206 26.6756 30.1288 27.2645 30.6523 27.8381C31.131 28.3629 31.6162 28.8824 32.0824 29.4181C32.4204 29.8069 32.7313 30.2187 33.0548 30.6201C33.3859 31.0303 33.7101 31.447 34.0538 31.8467C34.1836 31.9976 34.3526 32.119 34.518 32.2335C34.595 32.2868 34.7039 32.3053 34.8007 32.317C35.3423 32.3816 35.8162 32.2049 36.2461 31.879C36.2679 31.8915 36.2893 31.9048 36.3103 31.9181Z" fill="white"/>
<path d="M25.0159 17.2191C26.2194 17.7665 27.1345 18.6373 28.0282 19.536C28.0455 19.5223 28.0629 19.5086 28.0802 19.4953C28.0322 19.2121 28.0008 18.9249 27.9326 18.6466C27.6943 17.6697 27.4668 16.6891 27.1841 15.7251C27.0881 15.3971 26.8663 15.0938 26.6549 14.8151C26.3791 14.4512 26.0568 14.1233 25.781 13.7466C26.2843 14.1306 26.8017 14.498 27.2873 14.9034C27.785 15.3185 28.252 15.7702 28.6622 16.1425C28.6013 15.6448 28.5521 15.0046 28.39 14.3786C28.2262 13.7478 28 13.1407 27.6769 12.5768C27.3555 12.0153 27.001 11.4732 26.6703 10.9375C26.6634 10.9343 26.6908 10.9396 26.7078 10.9557C27.1095 11.3433 27.5257 11.7181 27.904 12.1275C28.0802 12.3179 28.1887 12.5728 28.3182 12.8039C28.5541 13.2254 28.7824 13.6514 29.0256 14.0971C28.982 13.4916 28.9385 12.912 28.8985 12.332C28.882 12.0936 28.8961 11.8512 28.8566 11.6172C28.7755 11.1421 28.6945 10.6641 28.5594 10.203C28.4888 9.96262 28.3061 9.75409 28.1698 9.53345C28.0024 9.26279 27.8407 8.98689 27.6572 8.72713C27.4357 8.41371 27.1954 8.11321 26.9598 7.80988C26.8046 7.60981 26.6428 7.41499 26.5049 7.19233C26.9647 7.54406 27.4244 7.8958 27.9334 8.28464C27.9076 8.10797 27.9048 7.97526 27.8673 7.85304C27.7721 7.54406 27.6459 7.24437 27.5604 6.93297C27.42 6.42272 27.1538 5.98144 26.8425 5.56557C26.6949 5.36833 26.5118 5.1969 26.3383 5.02023C26.0476 4.72335 25.7338 4.44705 25.4628 4.13324C25.2244 3.85774 24.9122 3.72624 24.5985 3.5887C24.4105 3.50641 24.2032 3.46769 24.0177 3.38097C23.4442 3.11192 22.836 3.1329 22.229 3.15468C22.0536 3.16073 21.8798 3.21881 21.7056 3.2531C21.6902 3.23172 21.6745 3.20994 21.6592 3.18856C21.6918 3.15186 21.7193 3.09095 21.7584 3.08167C22.2472 2.96591 22.7328 2.83602 23.245 2.85821C23.6656 2.87636 24.0883 2.85256 24.5093 2.86426C25.0103 2.87838 25.5128 2.89048 26.0109 2.9413C26.3714 2.97801 26.7235 3.09902 27.0841 3.14258C27.7814 3.22688 28.4347 3.46204 29.0869 3.6972C29.5567 3.86661 30.0117 4.07717 30.4734 4.26877C30.6908 4.35872 30.9195 4.42809 31.1244 4.54063C31.4277 4.70722 31.7201 4.89519 32.006 5.09041C32.4057 5.36309 32.788 5.66157 33.1909 5.92981C33.6922 6.26379 34.0556 6.72443 34.3525 7.22864C34.5347 7.53801 34.6154 7.90628 34.7509 8.2447C34.8852 8.5803 34.8755 8.93849 34.9324 9.28619C34.9856 9.6117 35.0373 9.93802 35.0905 10.2635C35.0962 10.2982 35.1111 10.3321 35.1123 10.3668C35.1377 11.1743 35.1575 11.9823 35.1877 12.7898C35.1998 13.1101 35.2635 13.4307 35.2506 13.749C35.2329 14.1798 35.1639 14.6081 35.1175 15.0377C35.0796 15.3911 35.0469 15.7452 35.0038 16.0978C34.9687 16.3845 34.9243 16.6701 34.8788 16.9557C34.8275 17.2756 34.7711 17.5942 34.7158 17.9133C34.692 18.0525 34.6618 18.1908 34.6424 18.3308C34.615 18.5296 34.5977 18.7297 34.5706 18.9286C34.5291 19.2379 34.4835 19.5469 34.4396 19.8559C34.4371 19.8736 34.4295 19.8906 34.4283 19.9083C34.4033 20.2826 34.3879 20.6578 34.352 21.0309C34.3206 21.3532 34.2653 21.673 34.2214 21.9941C34.2157 22.0356 34.2105 22.0772 34.2105 22.1191C34.2097 22.7887 34.1935 23.4591 34.2182 24.1283C34.2282 24.3998 34.3254 24.6684 34.3879 24.937C34.617 25.922 35.0687 26.8256 35.4192 27.7666C35.7269 28.5927 36.0201 29.4244 36.319 30.2541C36.3307 30.2868 36.3371 30.3223 36.3416 30.357C36.3767 30.6321 36.4121 30.9068 36.4436 31.1823C36.4472 31.2137 36.4404 31.2601 36.4194 31.2791C36.1762 31.5034 35.9443 31.7454 35.6761 31.935C35.5692 32.0104 35.3781 31.987 35.228 31.9745C35.1022 31.964 34.9828 31.8898 34.8566 31.8684C34.4343 31.7966 34.2182 31.4513 34.0076 31.1573C33.7507 30.7979 33.5958 30.3659 33.3938 29.967C33.1804 29.5462 32.9703 29.1231 32.7457 28.7085C32.5154 28.2833 32.2601 27.8719 32.0306 27.4463C31.5676 26.5884 31.0344 25.7756 30.4928 24.9669C29.8757 24.0456 29.268 23.1187 28.6594 22.1922C28.1609 21.4334 27.6672 20.6711 27.17 19.9115C26.9308 19.5465 26.6924 19.1807 26.444 18.8217C26.3432 18.676 26.2222 18.5433 26.1028 18.4114C25.7487 18.017 25.3898 17.6277 25.0159 17.2191Z" fill="white"/>
<path d="M2.39877 12.9524C2.02693 12.5837 1.73574 12.2199 1.50384 11.8113C1.27516 11.4088 1.134 10.9751 1.06988 10.5153C1.03681 10.2765 0.962599 10.0414 0.951307 9.80257C0.931948 9.3992 0.747233 8.99907 0.916622 8.58966C0.931948 8.55295 0.927915 8.50656 0.926705 8.46502C0.911379 8.03503 0.969859 7.61392 1.06867 7.19604C1.2062 6.61278 1.31025 6.02064 1.47722 5.44585C1.67363 4.76942 1.89585 4.09822 2.33263 3.52222C2.84927 2.84135 3.32638 2.1282 3.96038 1.54413C4.44515 1.09802 4.98518 0.743864 5.63652 0.59946C5.88375 0.544603 6.14106 0.534519 6.39474 0.511527C6.70811 0.483292 7.02228 0.464334 7.33606 0.438519C7.7321 0.40625 8.0491 0.588973 8.33666 0.824133C8.63793 1.07059 8.6222 1.0956 8.29391 1.33479C8.06886 1.49896 7.85108 1.67644 7.65063 1.86924C7.21264 2.29116 6.77465 2.71509 6.36207 3.16121C6.0366 3.51335 5.74622 3.89815 5.44495 4.27207C5.26709 4.49311 5.07633 4.7081 4.93033 4.94972C4.5246 5.62051 4.14388 6.30663 3.7438 6.98065C3.37357 7.60465 3.22192 8.30206 3.06221 8.99423C2.96461 9.41776 2.91985 9.85339 2.83959 10.2814C2.7307 10.8634 2.646 11.4471 2.62059 12.04C2.61132 12.2558 2.5609 12.4708 2.51694 12.6834C2.50041 12.7653 2.44999 12.8391 2.39877 12.9524Z" fill="white"/>
<path d="M7.21974 15.1604C6.73093 14.8982 6.38489 14.519 6.06588 14.1165C5.68435 13.6352 5.31129 13.1468 4.95396 12.6478C4.70069 12.2941 4.4583 11.9286 4.24939 11.5474C3.97796 11.0525 3.72872 10.5435 3.50206 10.0268C3.37582 9.73917 3.29153 9.42697 3.23588 9.11719C3.20845 8.96351 3.2754 8.78643 3.32259 8.6267C3.56215 7.81756 3.86826 7.03584 4.31553 6.31503C4.63253 5.80478 4.94711 5.29291 5.2629 4.78185C5.28145 4.75201 5.29879 4.71853 5.325 4.69594C5.36614 4.66004 5.41414 4.6318 5.45931 4.60034C5.49036 4.64794 5.53795 4.6915 5.55005 4.74354C5.70855 5.43691 5.88802 6.12666 6.00861 6.8265C6.105 7.38596 6.34214 7.88895 6.52162 8.41615C6.78538 9.19221 7.25241 9.85131 7.69242 10.5257C7.82147 10.723 8.02071 10.8746 8.18969 11.0457C8.39256 11.2514 8.38005 11.3078 8.28487 11.5757C8.07072 12.1779 7.87592 12.7878 7.68717 13.3985C7.58675 13.7236 7.51133 14.0568 7.43228 14.3883C7.38873 14.5706 7.36493 14.7582 7.32137 14.9409C7.30282 15.0155 7.25644 15.0833 7.21974 15.1604Z" fill="white"/>
<path d="M6.70849 3.78588C6.53668 3.21835 6.78713 2.83273 7.19649 2.49472C7.63246 2.13451 8.03496 1.73277 8.47578 1.37821C8.68872 1.20719 8.95329 1.09908 9.19931 0.971622C9.24125 0.949841 9.32111 0.956698 9.35781 0.98453C9.38725 1.00712 9.38725 1.08134 9.38402 1.13176C9.36224 1.47623 9.37555 1.82877 9.30215 2.16235C9.19568 2.64678 9.24529 3.13001 9.24771 3.61203C9.24932 3.94521 9.32917 4.27798 9.37394 4.61116C9.37717 4.63496 9.3816 4.65835 9.38322 4.68215C9.40782 5.02017 9.42153 5.35939 9.46105 5.69539C9.47719 5.83173 9.54454 5.96282 9.59455 6.09432C9.71554 6.41297 9.83008 6.73526 9.9668 7.04706C10.0539 7.24592 10.1713 7.43267 10.285 7.61862C10.4201 7.83886 10.4072 7.94575 10.2527 8.15671C9.90832 8.62864 9.57842 9.11066 9.23682 9.58421C9.11098 9.75846 9.04323 9.85809 8.83875 9.64027C8.5278 9.30871 8.31284 8.91462 8.06319 8.54192C7.68086 7.97156 7.48324 7.32014 7.22794 6.69613C7.04646 6.25324 6.92184 5.7801 6.82867 5.30938C6.72905 4.80517 6.69639 4.28806 6.63428 3.7766C6.65888 3.77942 6.68348 3.78265 6.70849 3.78588Z" fill="white"/>
<path d="M2.60303 14.1497C2.63731 13.514 2.66433 12.9469 2.70022 12.3806C2.71031 12.2225 2.74338 12.0652 2.77443 11.9095C2.78048 11.878 2.83009 11.828 2.84985 11.832C2.88776 11.8401 2.9285 11.8748 2.95108 11.9091C3.17653 12.2547 3.38504 12.6129 3.62501 12.9485C4.11986 13.6399 4.63489 14.3163 5.13418 15.0045C5.66695 15.7386 6.37032 16.3089 6.98859 16.9612C7.06763 17.0447 7.10111 17.1245 7.112 17.2411C7.14507 17.5932 7.19346 17.9442 7.25114 18.2931C7.30478 18.6174 7.37657 18.9389 7.44472 19.2607C7.47094 19.385 7.40762 19.4769 7.30679 19.4806C6.63408 19.504 5.94483 19.5552 5.33503 19.2059C4.74862 18.8699 4.19528 18.4778 3.80206 17.9038C3.70163 17.7574 3.56532 17.6356 3.46893 17.4872C3.36084 17.3202 3.2705 17.1399 3.18944 16.9579C3.05513 16.657 2.92124 16.3549 2.81275 16.0443C2.74943 15.8632 2.71918 15.6668 2.70143 15.4744C2.65828 15.0121 2.63166 14.5474 2.60303 14.1497Z" fill="white"/>
<path d="M10.3721 2.63722C10.3773 1.96603 10.4725 1.31419 10.6826 0.678494C10.7371 0.513922 10.8351 0.443737 11.0089 0.43688C11.4195 0.421552 11.8296 0.395334 12.239 0.364678C12.3789 0.354191 12.5169 0.304577 12.6568 0.298527C12.8496 0.290056 12.9028 0.360645 12.8891 0.544578C12.8734 0.758763 12.8564 0.972948 12.854 1.18754C12.8488 1.6393 12.8431 2.09107 12.8548 2.54243C12.8681 3.0551 12.8895 3.56858 12.929 4.07964C12.9557 4.42573 13.0214 4.76899 13.0674 5.11346C13.0883 5.27158 13.0424 5.41195 12.9226 5.51642C12.5096 5.8746 12.0906 6.22633 11.6784 6.58533C11.5126 6.72973 11.4424 6.72408 11.3122 6.54499C11.0053 6.12388 10.9101 5.61847 10.7661 5.13685C10.6383 4.70969 10.5459 4.26922 10.4761 3.82835C10.414 3.43547 10.4047 3.03453 10.3721 2.63722Z" fill="white"/>
<path d="M4.12034 1.1212C4.00499 1.22567 3.91586 1.29827 3.83601 1.38056C3.59645 1.62742 3.34478 1.865 3.127 2.13041C2.80838 2.51844 2.50227 2.91817 2.21391 3.3292C1.73075 4.01855 1.43432 4.78897 1.28711 5.61747C1.28308 5.64046 1.27582 5.66346 1.26574 5.68403C1.25364 5.70863 1.2371 5.73122 1.21452 5.76712C1.02657 5.68241 0.983018 5.49808 0.935024 5.34843C0.774911 4.84866 0.698283 4.33115 0.628108 3.8092C0.507922 2.91575 0.593423 2.02311 0.574468 1.13088C0.570838 0.963079 0.671665 0.785599 0.752729 0.627078C0.783381 0.566977 0.89187 0.536322 0.971322 0.513733C1.36253 0.402406 1.75575 0.524221 2.14817 0.523011C2.44258 0.522204 2.74103 0.610137 3.03141 0.683952C3.30929 0.754541 3.58072 0.852961 3.85133 0.949768C3.932 0.97881 3.99975 1.04294 4.12034 1.1212Z" fill="white"/>
<path d="M14.2267 1.81299C14.2267 1.41567 14.2267 1.01796 14.2267 0.620648C14.2267 0.386294 14.3158 0.295538 14.5445 0.295135C14.9119 0.294731 15.2793 0.305219 15.6463 0.292311C16.1137 0.275773 16.0936 0.51537 16.0569 0.826362C16.0403 0.966329 16.0016 1.10589 15.9996 1.24546C15.9927 1.78757 15.9843 2.32969 16.0032 2.87141C16.0105 3.07147 16.0766 3.27437 16.1436 3.46637C16.2242 3.6983 16.1815 3.82778 15.9585 3.92983C15.5773 4.10408 15.1986 4.28277 14.8183 4.45864C14.7546 4.48808 14.6905 4.51914 14.6239 4.54052C14.4775 4.58731 14.3831 4.52035 14.3715 4.36465C14.3464 4.03874 14.3214 3.71282 14.2989 3.3865C14.2626 2.86253 14.2279 2.33897 14.1924 1.815C14.2041 1.8142 14.2154 1.81379 14.2267 1.81299Z" fill="white"/>
<path d="M19.1986 3.50369C19.0252 3.47142 18.8526 3.43472 18.678 3.4089C18.6018 3.39761 18.5219 3.40164 18.4449 3.4093C18.269 3.42746 18.0944 3.45488 17.919 3.47465C17.5753 3.51297 17.5007 3.29515 17.441 3.06927C17.3055 2.55498 17.3918 2.03263 17.3757 1.51431C17.3705 1.34651 17.4152 1.17508 17.4503 1.00809C17.4838 0.849569 17.6185 0.789872 17.7451 0.870544C18.3582 1.26181 18.9022 1.73374 19.2878 2.3529C19.4652 2.63767 19.556 2.9769 19.6838 3.29233C19.7379 3.42504 19.6419 3.46134 19.5463 3.47142C19.4334 3.48352 19.318 3.47425 19.2035 3.47425C19.2023 3.48433 19.2007 3.49401 19.1986 3.50369Z" fill="white"/>
</svg>
