<?xml version='1.0' encoding='utf-8'?>
<svg xmlns="http://www.w3.org/2000/svg" width="47" height="31" viewBox="0 0 47 31" fill="none">
<path d="M17.467 30.4998C16.645 30.4998 15.8229 30.3694 15.0321 30.1075C13.866 29.7213 12.7919 29.0533 11.8421 28.133C10.5279 28.4078 9.10472 28.3475 7.78257 27.92C6.33514 27.4521 5.12192 26.599 4.20929 25.4323C3.89931 25.3213 3.59823 25.171 3.3135 24.9724C2.42365 24.3517 1.7903 23.3348 1.42931 21.9461C0.60482 20.106 0.536979 17.8975 1.31343 15.925C1.53726 15.3561 1.82793 14.8111 2.17605 14.2989C1.85517 13.7902 1.61748 13.2457 1.56004 12.5931C1.39762 10.7475 1.76554 9.09355 2.62321 7.80889C2.98222 7.27133 3.52247 6.70291 4.15779 6.2007C4.1162 5.23309 4.2806 4.32174 4.64308 3.53382C5.43043 1.8216 7.1106 0.711146 9.50137 0.321915C12.1833 -0.114601 14.375 0.190512 15.8388 1.18001C16.4112 0.336847 16.9643 0.0695619 17.3744 0.0128198C18.1573 -0.0956871 18.9208 0.490648 19.3655 1.54237C19.6597 2.23771 19.7914 3.06694 19.7037 3.87676C20.1583 3.91011 20.551 4.04649 20.8813 4.2859C21.634 4.83142 22.0271 5.87418 22.0509 7.3868C22.1831 7.53165 22.3124 7.68097 22.4382 7.83377C22.9388 7.86165 23.5568 7.88205 24.3248 7.88205C26.1521 7.88205 27.499 8.63563 28.5636 10.2533C29.4956 11.6693 30.1101 13.6095 30.7603 15.6637C32.591 21.4464 34.8694 28.6427 45.9834 28.6427C46.12 28.6427 46.2309 28.7542 46.2309 28.8916C46.2309 29.0289 46.12 29.1404 45.9834 29.1404C34.5074 29.1404 32.1681 21.7515 30.2884 15.8145C29.6486 13.7942 29.0445 11.8864 28.1506 10.528C27.186 9.06219 25.9703 8.37979 24.3248 8.37979C23.8871 8.37979 23.4974 8.37332 23.1492 8.36237C23.7494 8.84119 24.2421 9.3678 24.6234 9.93871C24.9324 10.4016 25.1746 10.9093 25.3459 11.4483C25.958 11.7793 26.3635 12.1442 26.6973 13.3348C26.8468 13.8678 26.8641 14.389 26.8087 14.9106C27.6866 15.5985 28.369 16.5233 28.5225 17.679C28.6255 18.4525 28.4745 19.1852 28.1477 19.8536C28.1036 20.5246 27.9016 21.2463 27.5272 22.078C26.777 23.7455 25.5999 25.0963 24.1228 25.9843C24.002 26.0569 23.8787 26.1266 23.7544 26.1928C23.7227 26.7856 23.4899 27.3939 23.0675 27.9648C22.4807 28.7582 21.5577 29.445 20.4683 29.8985C19.5081 30.2982 18.487 30.4993 17.466 30.4993L17.467 30.4998ZM12.4061 27.9927C14.9876 30.339 18.0661 30.3609 20.2796 29.4391C21.9137 28.7587 23.017 27.5984 23.2275 26.4497C22.1386 26.9305 20.9516 27.1699 19.8018 27.1301C19.5987 27.1231 19.3992 27.1077 19.2036 27.0848C18.5579 27.8906 17.7304 28.582 16.7296 28.7507C15.813 28.9055 14.8925 28.5954 13.9798 27.8279C13.7486 27.7851 13.5124 27.7358 13.2732 27.6806C12.9934 27.802 12.7033 27.9065 12.4056 27.9927H12.4061ZM15.0965 27.9872C15.6734 28.2803 16.1943 28.3366 16.6484 28.2599C17.4244 28.129 18.0949 27.6004 18.6302 26.9907C18.6054 26.9857 18.5811 26.9803 18.5564 26.9748C17.8497 27.597 16.9237 28.0066 15.7908 28.019C15.5823 28.0215 15.3476 28.0101 15.0965 27.9872ZM8.66896 27.6417C9.58456 27.8354 10.5289 27.8528 11.4272 27.706C11.1919 27.4491 10.9651 27.1759 10.7478 26.8867C10.5408 26.8006 10.3432 26.7115 10.158 26.6199C9.58406 27.2351 9.12552 27.5487 8.66896 27.6412V27.6417ZM11.6544 27.2246C11.7654 27.3516 11.8778 27.4735 11.9917 27.5905C12.1417 27.5536 12.2898 27.5118 12.4359 27.4655C12.1719 27.3909 11.91 27.3103 11.6544 27.2246ZM14.1948 27.361C14.7954 27.4675 15.3476 27.5263 15.7858 27.5213C16.6489 27.5118 17.3763 27.2406 17.9626 26.812C17.2001 26.5607 16.5355 26.1699 16.0086 25.6647C15.6224 26.0629 15.1837 26.4536 14.6899 26.8419C14.4978 26.9932 14.2953 27.1331 14.0843 27.2615C14.1215 27.2958 14.1581 27.3287 14.1948 27.361ZM6.49013 26.0485C6.52578 26.0798 6.56094 26.1107 6.59659 26.1416C7.41217 26.8404 7.94945 27.2112 8.45206 27.1709C8.81207 27.142 9.20128 26.8986 9.70588 26.3765C9.67023 26.3551 9.63507 26.3337 9.6004 26.3123C9.56624 26.3153 9.53256 26.3178 9.4984 26.3208C8.4694 26.3984 7.44832 26.3008 6.49013 26.049V26.0485ZM11.0577 26.4765C11.7208 26.7423 12.4814 26.9778 13.2267 27.1579C13.2415 27.151 13.2564 27.144 13.2707 27.137C13.1128 26.9623 12.9553 26.7737 12.7983 26.5711C12.5948 26.3088 12.3913 26.0226 12.1883 25.7125C11.7446 25.8842 11.2845 26.0236 10.8126 26.1276C10.8933 26.2471 10.9746 26.3636 11.0572 26.477L11.0577 26.4765ZM5.04567 25.6398C5.57304 26.1938 6.1846 26.6527 6.86895 27.0046C6.68375 26.8638 6.48765 26.702 6.27571 26.5203C5.97612 26.2635 5.68892 25.9863 5.41706 25.6911C5.40765 25.6871 5.39774 25.6831 5.38834 25.6792C5.27395 25.6697 5.16005 25.6568 5.04616 25.6398H5.04567ZM12.7414 25.6548C13.0786 26.15 13.4059 26.5617 13.7219 26.8996C13.9546 26.7642 14.1759 26.6144 14.3849 26.4502C14.8672 26.0709 15.2946 25.6891 15.6689 25.3009C15.5011 25.0988 15.3525 24.8818 15.2252 24.6523C14.5756 25.1575 13.8511 25.4915 13.1044 25.612C12.983 25.6314 12.8617 25.6458 12.7414 25.6548ZM19.5512 26.6184C19.6398 26.6249 19.729 26.6298 19.8191 26.6328C20.8511 26.6682 22.0732 26.4517 23.2572 25.8822C23.2463 25.7528 23.223 25.6244 23.1864 25.498C22.9487 24.6747 22.6437 24.0819 22.2034 23.6389C22.1391 23.6479 22.0752 23.6559 22.0113 23.6633C21.6662 23.9182 21.3096 24.1232 20.9397 24.281C20.8743 24.3089 20.809 24.3353 20.7436 24.3597C20.5733 24.7867 20.3698 25.2287 20.137 25.6588C19.9696 25.9684 19.774 26.2964 19.5512 26.6184ZM18.9788 26.5502C18.9788 26.5502 18.9832 26.5512 18.9857 26.5512C19.0025 26.5283 19.0194 26.5059 19.0357 26.483C19.0169 26.5054 18.9981 26.5278 18.9788 26.5497V26.5502ZM16.3464 25.3004C16.8871 25.82 17.5937 26.2073 18.4118 26.4273C18.9104 25.9295 19.2709 25.3074 19.4858 24.6608C18.5737 24.7668 17.6992 24.6488 16.9921 24.4761C16.799 24.7559 16.584 25.0301 16.3464 25.3004ZM6.84221 25.6244C7.52804 25.7847 8.24557 25.8618 8.97251 25.8479C8.74621 25.6627 8.5308 25.4721 8.3253 25.2765C7.9024 25.4119 7.39236 25.5453 6.84221 25.6244ZM8.85564 25.0913C9.08442 25.2989 9.32558 25.5 9.57961 25.6951C9.62566 25.7304 9.67419 25.7658 9.72569 25.8006C9.81779 25.7912 9.9094 25.7797 10.0005 25.7673C9.91881 25.6304 9.83909 25.4905 9.76134 25.3477C9.67171 25.1834 9.58159 25.0122 9.49295 24.8345C9.28447 24.9246 9.07204 25.0102 8.85564 25.0913ZM22.7803 23.5374C23.1611 24.0053 23.4429 24.5976 23.6628 25.3591C23.689 25.4507 23.7103 25.5433 23.7261 25.6369C25.0384 24.8912 26.2635 23.6847 27.0786 21.8735C27.2301 21.536 27.3519 21.2194 27.4435 20.9193C26.678 21.8202 25.6039 22.5399 24.5001 22.9964C23.9168 23.2373 23.3409 23.4179 22.7803 23.5374ZM11.0369 25.4701C11.0161 25.5069 10.9944 25.5433 10.9726 25.5791C11.0518 25.5592 11.131 25.5383 11.2093 25.5159C11.1513 25.5015 11.0939 25.486 11.0364 25.4701H11.0369ZM10.2362 25.1829C10.2986 25.2954 10.362 25.4059 10.4264 25.5139C10.4709 25.4482 10.5135 25.3805 10.5551 25.3113C10.4477 25.271 10.3417 25.2282 10.2362 25.1824V25.1829ZM20.0325 24.5702C19.9667 24.8066 19.8835 25.0411 19.783 25.271C19.9107 25.0266 20.0261 24.7847 20.1301 24.5483C20.0974 24.5563 20.0652 24.5637 20.0325 24.5707V24.5702ZM5.64682 25.1979C6.1331 25.2168 6.61739 25.1675 7.06554 25.0849C7.02444 25.0799 6.98334 25.0744 6.94273 25.0684C6.28908 24.9739 5.64187 24.7509 5.02338 24.4159C5.22195 24.6902 5.43043 24.9515 5.64682 25.1979ZM12.37 25.0799C12.3735 25.0854 12.3769 25.0908 12.3804 25.0963C12.4146 25.0814 12.4487 25.066 12.4824 25.0505C12.4448 25.061 12.4071 25.0704 12.37 25.0799ZM15.613 24.3238C15.7244 24.5388 15.8571 24.7419 16.0091 24.9316C16.1795 24.7355 16.3374 24.5369 16.4825 24.3358C16.2993 24.279 16.121 24.2168 15.9467 24.1496C15.8452 24.2019 15.7422 24.2522 15.6382 24.2999C15.6298 24.3079 15.6209 24.3159 15.6125 24.3238H15.613ZM13.8501 24.8659C13.8209 24.8848 13.7912 24.9037 13.7615 24.9226C13.8229 24.8992 13.8838 24.8743 13.9442 24.8479C13.9125 24.8539 13.8813 24.8604 13.8496 24.8659H13.8501ZM4.11867 24.4279C4.29199 24.5488 4.47224 24.6628 4.65744 24.7698C4.40737 24.4308 4.17513 24.076 3.96269 23.7081C3.83345 23.6046 3.70668 23.4956 3.58189 23.3821C3.73837 23.7504 3.91763 24.0998 4.11867 24.4284V24.4279ZM4.36379 23.3921C5.18778 24.0312 6.09596 24.4428 7.01354 24.5757C7.23836 24.608 7.46466 24.6225 7.69096 24.6195C7.42603 24.3208 7.18488 24.0137 6.96799 23.6992C5.5359 23.1412 4.28555 22.4404 3.80671 21.6749C3.3754 20.9855 3.6225 20.3384 4.10877 19.7153C3.91416 19.3828 3.74233 19.0369 3.60071 18.6775C3.38679 19.1115 3.22337 19.5326 3.12285 19.9641C3.31746 21.1652 3.76313 22.3393 4.3633 23.3911L4.36379 23.3921ZM7.82218 24.0088C7.97767 24.1984 8.14307 24.385 8.31836 24.5677C8.5095 24.5388 8.69966 24.4985 8.88783 24.4468C8.79226 24.3846 8.69768 24.3208 8.60458 24.2566C8.34411 24.179 8.08216 24.0964 7.82268 24.0088H7.82218ZM12.01 24.4692C12.1551 24.4816 12.2893 24.4891 12.4111 24.4906C12.4779 24.4916 12.5448 24.4916 12.6116 24.4906C13.0905 24.3258 13.602 24.06 14.1438 23.6932C14.1769 23.6708 14.2101 23.6484 14.2433 23.6255C13.4505 23.8321 12.5829 23.85 11.7168 23.6703C11.703 23.7315 11.6886 23.7922 11.6738 23.8525C11.7867 24.0675 11.8986 24.2731 12.01 24.4697V24.4692ZM10.6591 24.2621C10.7799 24.2865 10.8983 24.3094 11.0137 24.3303C11.0528 24.2198 11.0889 24.1073 11.1231 23.9913C10.9716 24.0844 10.8171 24.1745 10.6591 24.2621ZM17.2788 24.0317C17.9607 24.1825 18.7852 24.2706 19.6285 24.1392C19.6314 24.1237 19.6349 24.1083 19.6379 24.0934C19.6379 24.0934 19.6379 24.0929 19.6379 24.0924C18.8243 24.1641 18.0374 24.1317 17.2981 23.9988C17.2917 24.0098 17.2852 24.0207 17.2788 24.0317ZM14.945 24.0232C14.9281 24.0386 14.9113 24.0536 14.8945 24.0685C14.9143 24.0615 14.9336 24.0541 14.9534 24.0466C14.9504 24.0386 14.9474 24.0307 14.945 24.0227V24.0232ZM9.49988 23.6409C9.62714 23.7962 9.75887 23.9351 9.89554 24.056C10.2387 23.8828 10.568 23.6733 10.876 23.4324C10.2709 23.2169 9.68261 22.9093 9.11512 22.5126C9.22456 22.9023 9.35578 23.2801 9.50038 23.6404L9.49988 23.6409ZM8.81751 23.7987C8.89278 23.8211 8.96854 23.843 9.04381 23.8649C9.01113 23.8226 8.97845 23.7798 8.94676 23.7355C8.49663 23.1153 8.20398 22.4011 8.06334 21.653C7.93905 21.5355 7.81575 21.4136 7.69393 21.2871C7.0898 20.6595 6.56441 19.9607 6.12567 19.2126C6.09101 19.5953 6.09794 19.9855 6.14944 20.3758C6.21926 20.9019 6.36089 21.425 6.56985 21.9387C6.94818 22.299 7.3265 22.627 7.67957 22.9207C8.03214 23.2144 8.41344 23.5155 8.81751 23.7987ZM19.4071 23.4374C19.2338 23.5105 19.055 23.5752 18.8723 23.6315C19.1719 23.629 19.4769 23.6111 19.7859 23.5777C19.7899 23.5678 19.7934 23.5578 19.7973 23.5479C19.7661 23.5404 19.7349 23.5324 19.7037 23.5245C19.6042 23.4986 19.5052 23.4692 19.4071 23.4374ZM1.89875 21.7829C2.13148 22.2926 2.42711 22.7714 2.78365 23.2039C2.89358 23.3378 3.00995 23.4672 3.13127 23.5922C2.98766 23.2552 2.86189 22.9023 2.75493 22.536C2.75146 22.5235 2.74799 22.5111 2.74403 22.4986C2.57319 22.2911 2.40928 22.0726 2.25281 21.8441C2.08246 21.5947 1.90469 21.309 1.73632 20.9935C1.76604 21.1841 1.80169 21.3663 1.83932 21.536C1.85814 21.6196 1.87745 21.7017 1.89825 21.7824L1.89875 21.7829ZM17.9012 22.6907C17.8215 22.9212 17.7299 23.1472 17.6269 23.3687C17.7824 23.3552 17.9374 23.3348 18.0914 23.3074C18.2702 23.2537 18.4469 23.1895 18.6222 23.1158C18.3746 22.9919 18.134 22.8495 17.9012 22.6903V22.6907ZM7.28292 23.2836C7.31511 23.296 7.34779 23.3079 7.37998 23.3204C7.37354 23.3149 7.3676 23.3099 7.36116 23.305C7.31412 23.2656 7.26658 23.2258 7.21855 23.1855C7.23984 23.2183 7.26114 23.2512 7.28292 23.2841V23.2836ZM12.1962 23.2457C12.6111 23.3 13.0256 23.305 13.4267 23.2626C13.1583 23.1472 12.8929 23.0212 12.6324 22.8859C12.4913 23.0088 12.3457 23.1288 12.1962 23.2457ZM21.1343 23.2129C21.2715 23.2144 21.4077 23.2114 21.5433 23.2039C21.5671 23.196 21.5909 23.1875 21.6147 23.1795C21.4854 23.1014 21.3477 23.0297 21.2007 22.963C21.1804 23.0441 21.1586 23.1273 21.1348 23.2129H21.1343ZM20.5173 23.1736C20.554 23.178 20.5906 23.182 20.6273 23.1855C20.6644 23.0576 20.6971 22.9356 20.7248 22.8217C20.652 22.9386 20.5822 23.0556 20.5168 23.1736H20.5173ZM16.8331 22.7798C16.7544 22.9147 16.6722 23.0461 16.587 23.1736C16.8336 22.9949 17.0669 22.8003 17.2847 22.5902C17.2808 22.5912 17.2768 22.5922 17.2728 22.5932C17.1287 22.6614 16.9822 22.7236 16.8331 22.7793V22.7798ZM15.9121 23.0725C15.9477 23.0879 15.9839 23.1029 16.02 23.1178C16.0487 23.0785 16.0775 23.0382 16.1062 22.9979C16.0676 23.0063 16.0294 23.0148 15.9908 23.0227C15.9646 23.0392 15.9383 23.0561 15.9121 23.0725ZM11.2628 23.0392C11.2796 23.0446 11.2964 23.0496 11.3133 23.0546C11.3192 23.0491 11.3246 23.0436 11.3306 23.0382C11.3658 22.8127 11.39 22.5877 11.4049 22.3632C11.2073 22.2806 11.0166 22.195 10.8329 22.1089C10.9775 22.4344 11.1206 22.7445 11.2628 23.0392ZM4.38954 20.1672C4.06717 20.6212 3.97457 21.0124 4.22365 21.4101C4.56484 21.9556 5.43835 22.4961 6.51241 22.9685C6.37772 22.7246 6.2569 22.4777 6.15093 22.2279C5.52501 21.6251 4.90256 20.9352 4.38954 20.1672ZM21.3047 22.4658C21.6127 22.5972 21.8865 22.7485 22.1311 22.9262C22.5719 22.534 22.9957 22.0452 23.4092 21.4549C24.5021 19.8945 25.2746 17.8249 25.2533 15.7821C25.2072 15.9121 25.1572 16.041 25.1033 16.1679C25.0805 16.3595 25.0513 16.5487 25.0151 16.7353C24.6417 18.679 23.5023 20.3967 21.9667 21.3299C21.8984 21.3712 21.8296 21.4116 21.7593 21.4499C21.6409 21.6525 21.5027 21.8471 21.3477 22.0317C21.3458 22.1542 21.3314 22.3005 21.3042 22.4658H21.3047ZM18.2152 22.304C18.5291 22.516 18.8594 22.6937 19.2006 22.8336C19.4022 22.7206 19.5997 22.5947 19.7929 22.4563C19.3893 22.3428 18.9817 22.2627 18.5742 22.2413C18.493 22.2418 18.4113 22.2413 18.3296 22.2393C18.2989 22.2517 18.2687 22.2637 18.238 22.2756C18.2305 22.2851 18.2231 22.2945 18.2152 22.304ZM26.4457 16.6437C26.4383 16.6711 26.4314 16.6985 26.4239 16.7259C26.1862 17.6228 25.9406 18.5501 25.9406 19.6053C25.9406 20.8531 24.9438 21.8381 24.1079 22.4449C23.9307 22.5738 23.742 22.6982 23.5454 22.8167C23.8207 22.7281 24.0772 22.632 24.31 22.5355C25.6876 21.9665 27.0162 20.9666 27.6589 19.7282C27.6649 19.5829 27.6624 19.4405 27.6515 19.3002C27.5747 18.3151 27.0776 17.4302 26.4457 16.6427V16.6437ZM8.93289 21.7535C9.46869 22.1845 10.0292 22.532 10.5997 22.7863C10.4487 22.4603 10.2981 22.1208 10.1481 21.7684C10.1164 21.752 10.0847 21.7356 10.054 21.7192C9.61774 21.4897 9.20921 21.2588 8.82692 21.0238C8.85119 21.2692 8.88733 21.5126 8.93339 21.753L8.93289 21.7535ZM15.2054 21.5201C15.1648 21.8277 15.1475 22.1258 15.1539 22.4145C15.3218 22.407 15.4902 22.3951 15.6575 22.3782C15.714 22.3334 15.769 22.2866 15.8229 22.2383C15.9061 22.1104 15.9849 21.9795 16.0591 21.8466C15.7719 21.753 15.4872 21.644 15.2054 21.5201ZM3.19218 22.2622C3.23278 22.3105 3.27438 22.3583 3.31597 22.4055C3.23575 22.2139 3.16148 22.0208 3.09215 21.8252C3.11889 21.9675 3.15207 22.1129 3.19218 22.2622ZM25.743 15.8513C25.744 16.1828 25.7257 16.5198 25.6876 16.8617C25.5004 18.5511 24.8354 20.2837 23.8143 21.7411C23.6632 21.9566 23.5107 22.1597 23.3557 22.3503C23.5162 22.2507 23.6712 22.1477 23.8177 22.0412C24.8671 21.2797 25.4454 20.4141 25.4454 19.6053C25.4454 18.4849 25.7113 17.4824 25.9456 16.5979C25.9827 16.4581 26.0194 16.3202 26.054 16.1848C25.952 16.0713 25.848 15.9603 25.743 15.8513ZM13.8932 21.5718C14.1175 21.8456 14.3735 22.0999 14.6573 22.3269C14.6558 22.0357 14.6761 21.7356 14.7182 21.428C14.4978 21.4141 14.278 21.3907 14.0591 21.3563C14.0541 21.3633 14.0487 21.3698 14.0437 21.3767C13.9947 21.4424 13.9442 21.5071 13.8932 21.5713V21.5718ZM20.1781 22.0517C20.2083 22.0611 20.238 22.0706 20.2682 22.0805C20.2955 22.0571 20.3227 22.0332 20.3499 22.0088C20.293 22.0238 20.2356 22.0382 20.1781 22.0517ZM12.1625 22.0512C12.1625 22.0512 12.166 22.0522 12.168 22.0526C12.211 21.9899 12.2521 21.9262 12.2927 21.8615C12.1566 21.7256 12.0273 21.5843 11.905 21.4384C11.9129 21.5903 11.9169 21.7431 11.9164 21.8964C11.9981 21.9486 12.0803 22.0004 12.163 22.0507L12.1625 22.0512ZM12.9197 21.7669C12.9197 21.7669 12.9216 21.7689 12.9231 21.7699C12.9221 21.7684 12.9211 21.7669 12.9206 21.7655C12.9206 21.7655 12.9206 21.7664 12.9201 21.7669H12.9197ZM19.6176 21.5977C19.573 21.6246 19.5279 21.6515 19.4829 21.6774C19.9444 21.6122 20.3901 21.4997 20.81 21.3409C20.8021 21.2727 20.7936 21.205 20.7837 21.1373C20.4089 21.325 20.0177 21.4783 19.6176 21.5972V21.5977ZM10.1753 20.535C10.5631 20.9014 10.978 21.2433 11.4153 21.5564C11.4024 21.2359 11.3697 20.9193 11.3172 20.6092C11.2325 20.4659 11.1538 20.319 11.082 20.1692C10.5834 19.8293 10.1184 19.4266 9.69944 18.9692C9.63507 18.899 9.57218 18.8273 9.51028 18.7551C9.7346 19.3878 9.95595 19.9796 10.1753 20.535ZM11.9535 20.6824C12.1313 20.9402 12.3309 21.1836 12.5483 21.4106C12.5795 21.3488 12.6102 21.2861 12.6394 21.2234C12.5983 21.1298 12.5596 21.0348 12.5245 20.9387C12.3314 20.8621 12.1407 20.7764 11.954 20.6829L11.9535 20.6824ZM17.463 21.4051C17.5487 21.4061 17.6348 21.4051 17.7205 21.4026C17.7448 21.2612 17.7656 21.1179 17.7829 20.9726C17.716 20.9974 17.6487 21.0218 17.5809 21.0447C17.5442 21.1662 17.5046 21.2861 17.463 21.4046V21.4051ZM18.2895 20.8934C18.2855 20.9337 18.2811 20.9741 18.2766 21.0144C18.2627 21.1338 18.2469 21.2523 18.2281 21.3693C18.24 21.3683 18.2513 21.3668 18.2627 21.3658C18.3598 21.2035 18.4494 21.0363 18.5301 20.8655C18.4499 20.876 18.3697 20.885 18.2895 20.8934ZM1.65759 19.5391C1.87448 20.2399 2.20626 20.865 2.52912 21.3648C2.48653 20.865 2.5207 20.3997 2.61726 19.9482C2.45682 18.8831 2.49149 17.8522 2.72175 16.8901C2.51625 17.1041 2.33946 17.3406 2.19487 17.5974C1.84873 18.2126 1.69621 18.886 1.65759 19.5391ZM19.6334 20.654C19.4868 20.8466 19.3308 21.0308 19.1664 21.2055C19.2496 21.1851 19.3323 21.1627 19.4145 21.1393C19.6398 21.0009 19.8587 20.8516 20.0692 20.6913C20.1865 20.6022 20.3014 20.5097 20.4133 20.4141C20.1583 20.5057 19.8983 20.5858 19.6334 20.654ZM4.71736 19.7626C5.03428 20.2553 5.40121 20.7167 5.78894 21.1443C5.7315 20.9113 5.68743 20.6769 5.65623 20.442C5.58245 19.885 5.59334 19.328 5.67802 18.7895C5.60077 18.8661 5.52253 18.9418 5.44528 19.0174C5.16798 19.2882 4.92187 19.5341 4.71736 19.7626ZM21.2472 20.8835C21.2517 20.9113 21.2561 20.9387 21.2606 20.9666C21.2789 20.9258 21.2967 20.8845 21.3136 20.8431C21.2918 20.8566 21.2695 20.87 21.2472 20.8835ZM15.3485 20.759C15.3332 20.8212 15.3193 20.8835 15.306 20.9452C15.5778 20.9402 15.8487 20.9198 16.1171 20.8835C16.1156 20.881 16.1136 20.8785 16.1121 20.876C15.8576 20.8466 15.6031 20.8078 15.3485 20.7595V20.759ZM8.7977 20.0209C9.09927 20.3285 9.4261 20.6127 9.77669 20.8695C9.77223 20.8591 9.76827 20.8481 9.76382 20.8377C9.71974 20.7959 9.67617 20.7531 9.63309 20.7107C9.34291 20.4241 9.06808 20.1239 8.81058 19.8113C8.80513 19.8815 8.80068 19.9512 8.7977 20.0209ZM7.08386 19.784C7.35423 20.1612 7.64936 20.5206 7.96827 20.8596C7.96232 20.7267 7.96034 20.5928 7.96331 20.4589C7.64986 20.2384 7.3577 20.0139 7.08386 19.784ZM13.3703 20.7003C13.5253 20.7436 13.6817 20.7809 13.8392 20.8128C13.8437 20.8063 13.8476 20.8003 13.8521 20.7939C13.7095 20.7028 13.5674 20.6077 13.4267 20.5087C13.4089 20.5729 13.3901 20.6366 13.3703 20.7003ZM14.5454 20.6316C14.6409 20.6859 14.737 20.7386 14.8331 20.7894C14.843 20.7451 14.8534 20.7008 14.8643 20.656C14.7677 20.6331 14.6711 20.6087 14.5746 20.5833C14.5652 20.5998 14.5553 20.6157 14.5458 20.6321L14.5454 20.6316ZM22.6422 19.7606C22.506 20.0398 22.356 20.3111 22.193 20.5719C23.12 19.8556 23.8504 18.8114 24.2669 17.6163C24.049 17.908 23.8088 18.1852 23.5484 18.4455C23.324 18.9119 23.018 19.3554 22.6422 19.7606ZM17.824 20.0378C17.7997 20.1717 17.7725 20.3046 17.7423 20.4365C17.7621 20.4355 17.7819 20.4345 17.8017 20.4335C17.8091 20.4305 17.8166 20.4275 17.8235 20.4245C17.8275 20.2941 17.8275 20.1652 17.8235 20.0378H17.824ZM16.3964 20.4056C16.482 20.4136 16.5677 20.4206 16.6539 20.426C16.9515 19.4166 17.0213 18.3505 16.8524 17.3426C16.6261 17.7024 16.4266 18.0608 16.2528 18.4027C16.0953 18.7118 15.9547 19.0155 15.8309 19.3121C15.9606 19.6207 16.1067 19.9154 16.2691 20.1946C16.3107 20.2658 16.3533 20.3364 16.3969 20.4056H16.3964ZM15.4803 20.2782C15.5783 20.2966 15.6764 20.3131 15.7744 20.3285C15.7076 20.209 15.6437 20.0871 15.5828 19.9631C15.5461 20.0692 15.5125 20.1742 15.4803 20.2782ZM11.6886 19.9671C11.8996 20.0955 12.117 20.212 12.3393 20.3165C12.2918 20.109 12.2566 19.896 12.2333 19.6774C12.1917 19.656 12.1506 19.6346 12.109 19.6122C11.8931 19.4978 11.6822 19.3773 11.4767 19.2509C11.5584 19.4843 11.6292 19.7232 11.6881 19.9666L11.6886 19.9671ZM21.524 20.0328C21.4587 20.104 21.3923 20.1742 21.3255 20.2429C21.3889 20.1991 21.4512 20.1543 21.5122 20.109C21.5161 20.0836 21.5206 20.0582 21.524 20.0328ZM19.3333 20.1602C19.3274 20.1802 19.3209 20.2006 19.315 20.2205C19.3249 20.218 19.3343 20.216 19.3442 20.2135C19.3729 20.1737 19.4012 20.1329 19.4289 20.0921C19.3972 20.115 19.3655 20.1379 19.3333 20.1602ZM18.0874 18.568C18.2395 19.0717 18.3187 19.6182 18.3222 20.1926C18.5222 20.0896 18.7158 19.9761 18.903 19.8526C19.1249 19.0314 19.1749 18.1683 19.0451 17.3431C18.7554 17.0106 18.437 16.7069 18.0934 16.4392C18.1721 17.1683 18.1701 17.8786 18.0879 18.568H18.0874ZM14.8222 20.1339C14.8796 20.1483 14.9366 20.1622 14.994 20.1757C15.0787 19.8935 15.1792 19.6053 15.2956 19.3116C15.2772 19.2653 15.2599 19.219 15.2421 19.1722C15.1227 19.4983 14.9826 19.8198 14.8217 20.1334L14.8222 20.1339ZM20.3455 19.4908C20.2603 19.6675 20.1677 19.8402 20.0682 20.0084C20.2068 19.9622 20.3445 19.9124 20.4797 19.8591C20.4381 19.7352 20.3935 19.6122 20.3455 19.4908ZM13.5832 19.7397C13.8318 19.8352 14.0824 19.9213 14.3344 19.998C14.6137 19.4704 14.8311 18.9199 14.9821 18.3609C14.7652 17.568 14.6355 16.7064 14.5929 15.7812C14.4948 15.7408 14.3963 15.7025 14.2983 15.6652C13.9279 16.0295 13.6025 16.4322 13.3529 16.8747C13.6307 17.8298 13.71 18.7994 13.5837 19.7392L13.5832 19.7397ZM6.28314 18.3117C6.76446 18.8636 7.33195 19.3803 8.00441 19.8765C8.00441 19.8765 8.00441 19.876 8.00441 19.8755C7.46367 19.2295 7.00909 18.4998 6.66344 17.7119C6.6575 17.7109 6.65107 17.7094 6.64463 17.7084C6.55401 17.8353 6.45497 17.9598 6.3495 18.0827C6.32573 18.1583 6.30344 18.235 6.28265 18.3117H6.28314ZM17.4412 18.239C17.4496 18.5441 17.4387 18.8522 17.408 19.1628C17.3848 19.3992 17.3501 19.6331 17.305 19.8651C17.3367 19.7665 17.3659 19.667 17.3937 19.566C17.4486 19.1518 17.4744 18.7312 17.4709 18.3092C17.4615 18.2858 17.4516 18.2624 17.4412 18.239ZM20.6515 18.9288C20.7605 19.1693 20.857 19.4136 20.9407 19.662C21.0888 19.5933 21.2344 19.5202 21.3775 19.4435C21.4517 19.3554 21.5235 19.2663 21.5944 19.1752C21.5978 18.9308 21.5874 18.685 21.5641 18.4391C21.5013 18.2539 21.4245 18.0717 21.3364 17.894C21.1393 18.2604 20.9105 18.6073 20.651 18.9288H20.6515ZM8.90368 19.124C9.02797 19.2872 9.15672 19.448 9.29042 19.6048C9.1889 19.33 9.08788 19.0488 8.98687 18.7616C8.95517 18.8821 8.92744 19.0025 8.90368 19.1235V19.124ZM12.8543 19.1807C12.937 19.2867 13.0236 19.3898 13.1143 19.4898C13.1781 18.8691 13.145 18.238 13.0236 17.6143C12.9608 17.804 12.9122 17.9991 12.879 18.2012C12.8266 18.5232 12.8196 18.8522 12.8548 19.1802L12.8543 19.1807ZM19.6126 18.0882C19.62 18.3674 19.6087 18.6501 19.5794 18.9338C19.5636 19.0876 19.5423 19.2404 19.5156 19.3917C19.6413 19.2837 19.7627 19.1702 19.879 19.0518C19.9409 18.9886 20.0018 18.9239 20.0613 18.8577C19.9271 18.5919 19.777 18.3345 19.6126 18.0882ZM3.91367 18.0872C4.04786 18.5142 4.23059 18.9249 4.44896 19.3176C4.65397 19.0966 4.8773 18.8786 5.09915 18.6621C5.25216 18.5127 5.40666 18.3614 5.55571 18.2096C5.26553 17.8343 5.01298 17.4431 4.80055 17.0424C4.73914 17.0076 4.67774 16.9717 4.61782 16.9354C4.60049 16.9623 4.58316 16.9897 4.56583 17.017C4.32665 17.3933 4.10728 17.7472 3.91367 18.0877V18.0872ZM9.36668 17.7457C9.75391 18.3176 10.2179 18.8363 10.7388 19.2807C10.6779 19.0732 10.6289 18.8626 10.5908 18.6506C10.1719 18.3355 9.78115 17.9956 9.42313 17.6347C9.40382 17.6716 9.3845 17.7089 9.36618 17.7462L9.36668 17.7457ZM7.23291 17.789C7.47753 18.2972 7.77366 18.782 8.11583 19.233C8.13564 19.1469 8.15743 19.0607 8.1812 18.9756C7.92221 18.5974 7.68799 18.2061 7.4805 17.8055C7.39781 17.8015 7.31511 17.796 7.23291 17.789ZM3.19614 17.034C3.06244 17.6019 3.005 18.1817 3.01292 18.7626C3.12087 18.5197 3.24417 18.2763 3.37985 18.0284C3.29121 17.7059 3.22833 17.3744 3.19614 17.034ZM22.5684 18.6481C22.5644 18.6546 22.5605 18.6611 22.5565 18.6675C22.559 18.6655 22.561 18.6636 22.5634 18.6621C22.5649 18.6576 22.5669 18.6531 22.5684 18.6481ZM15.4941 18.355C15.5224 18.453 15.5521 18.5501 15.5833 18.6456C15.6551 18.4908 15.7313 18.3345 15.8115 18.1768C16.0146 17.7786 16.2508 17.358 16.5226 16.9379C16.28 16.7129 16.0116 16.5168 15.7279 16.3441C15.7417 17.0096 15.6615 17.6875 15.4936 18.355H15.4941ZM26.5972 16.0524C27.238 16.7955 27.7926 17.6332 28.0313 18.5779C28.0674 18.3077 28.0694 18.0304 28.0313 17.7472C27.9095 16.8314 27.4009 16.0748 26.722 15.483C26.6859 15.6716 26.6433 15.8613 26.5967 16.0519L26.5972 16.0524ZM22.0554 18.3326C22.0692 18.3749 22.0821 18.4177 22.0945 18.46C22.5025 17.8104 22.8289 17.1066 23.0646 16.374C23.1116 15.8469 23.1141 15.3143 23.0695 14.7842C22.9215 14.4626 22.7353 14.1476 22.5139 13.8459C22.407 13.84 22.3015 13.837 22.1965 13.8365C22.2673 14.8937 22.1188 15.9454 21.7736 16.91C21.9133 17.3839 22.0073 17.8592 22.0554 18.3326ZM10.9874 17.4954C11.1979 17.7646 11.4237 18.0299 11.6653 18.2907C11.7129 18.342 11.7604 18.3928 11.808 18.4431C11.5391 17.899 11.3563 17.3167 11.2761 16.7169C11.2727 16.69 11.2692 16.6636 11.2662 16.6368C11.189 16.693 11.1112 16.7468 11.032 16.7995C11.0043 17.031 10.9894 17.2629 10.9879 17.4954H10.9874ZM8.04304 17.8045C8.1495 17.9976 8.26241 18.1877 8.38175 18.3749C8.46098 18.1738 8.5511 17.9767 8.65162 17.785C8.64717 17.7711 8.64271 17.7582 8.63776 17.7442C8.44018 17.7746 8.24161 17.7945 8.04254 17.8045H8.04304ZM19.5111 17.1146C19.78 17.4341 20.0256 17.7801 20.2445 18.1484C20.2608 18.1758 20.2767 18.2031 20.2925 18.2305C20.3291 18.0971 20.3618 17.9622 20.3896 17.8259C20.4653 17.4555 20.5089 17.0758 20.5213 16.691C20.1573 16.2769 19.7433 15.9165 19.3195 15.6328C19.1803 15.5393 19.0377 15.4507 18.8931 15.367C18.9352 15.4452 18.9758 15.5238 19.0149 15.603C19.2477 16.0783 19.4135 16.5865 19.5116 17.1146H19.5111ZM11.7312 16.2655C11.7376 16.3939 11.7495 16.5218 11.7664 16.6502C11.8391 17.1942 12.0045 17.7228 12.2482 18.2176C12.2596 18.1175 12.2734 18.017 12.2893 17.9155C12.372 17.3834 12.5052 16.8712 12.6671 16.3894C12.572 16.1435 12.4631 15.9016 12.3413 15.6637C12.1506 15.8772 11.9466 16.0788 11.7312 16.2659V16.2655ZM2.72323 15.0664C1.97847 15.6851 1.4818 16.6756 1.42089 17.7527C1.41346 17.8841 1.41198 18.0145 1.41594 18.1434C1.50458 17.8746 1.61896 17.6098 1.76356 17.3525C2.06265 16.8204 2.48158 16.3655 2.9941 16.0061C3.04362 15.8717 3.09562 15.7383 3.1491 15.6064C3.08967 15.5303 3.02976 15.4551 2.97033 15.38C2.88714 15.275 2.80444 15.1704 2.72323 15.0659V15.0664ZM5.83153 17.4974C5.86619 17.584 5.90234 17.6706 5.93899 17.7562C5.96275 17.6885 5.98801 17.6213 6.01425 17.5551C5.95285 17.5367 5.89194 17.5178 5.83153 17.4974ZM20.9759 17.2778C20.9645 17.3844 20.9501 17.4899 20.9343 17.5949C20.9719 17.5232 21.0081 17.4516 21.0427 17.3784C21.0209 17.3445 20.9986 17.3112 20.9759 17.2778ZM3.67895 16.2097C3.66558 16.4033 3.66409 16.5969 3.67449 16.7901C3.68588 16.9956 3.70965 17.1982 3.74481 17.3978C3.87257 17.1868 4.00775 16.9707 4.14888 16.7488C4.16819 16.7184 4.18751 16.688 4.20682 16.6577C4.02063 16.5198 3.84434 16.37 3.67895 16.2097ZM7.71473 17.1564C7.73899 17.2092 7.76425 17.2619 7.7895 17.3142C8.02026 17.3122 8.25052 17.2958 8.47979 17.2644C8.4694 17.2316 8.4585 17.1982 8.44761 17.1654C8.44513 17.1604 8.44216 17.1549 8.43968 17.1499C8.19407 17.1698 7.95192 17.1723 7.71473 17.1564ZM7.00166 17.2639C7.07792 17.2744 7.15418 17.2833 7.23093 17.2903C7.19924 17.2206 7.16903 17.1509 7.13883 17.0807C7.09624 17.0723 7.05365 17.0633 7.01107 17.0534C6.99621 17.0912 6.97987 17.1285 6.96303 17.1659C6.97591 17.1987 6.98829 17.2311 7.00166 17.2639ZM23.8257 15.4248C23.9698 15.9693 24.0168 16.5193 23.9569 17.0519C23.95 17.1126 23.942 17.1738 23.9321 17.2345C24.0896 17.0165 24.2337 16.7901 24.3634 16.5561C24.457 16.3869 24.5422 16.2137 24.6195 16.0375C24.663 15.6378 24.6774 15.2272 24.6615 14.8086C24.4432 14.6135 24.2174 14.4233 23.9836 14.2426C23.9564 14.6369 23.9034 15.0316 23.8262 15.4248H23.8257ZM17.307 17.0544C17.3338 17.0882 17.36 17.1221 17.3858 17.1564C17.3635 16.9951 17.3367 16.8339 17.3055 16.6731C17.2837 16.7025 17.2624 16.7323 17.2412 16.7622C17.2649 16.8588 17.2872 16.9563 17.307 17.0539V17.0544ZM5.60721 16.8856C5.80528 16.9683 6.0093 17.0399 6.21778 17.0992C6.25739 17.02 6.29849 16.9419 6.34157 16.8652C6.33959 16.8588 6.33712 16.8518 6.33514 16.8453C6.03307 16.7269 5.73893 16.577 5.45766 16.3979C5.50372 16.5616 5.55373 16.7244 5.6077 16.8856H5.60721ZM15.1005 16.0056C15.1237 16.365 15.1604 16.7134 15.2119 17.0509C15.2391 16.7199 15.2426 16.3899 15.2208 16.0644C15.1807 16.0445 15.1406 16.025 15.1005 16.0056ZM21.0194 16.5014C21.0764 16.5701 21.1323 16.6393 21.1858 16.7099C21.1343 16.5591 21.0774 16.4083 21.0165 16.259C21.0184 16.3401 21.0194 16.4207 21.0194 16.5014ZM7.4914 16.6348C7.56221 16.6442 7.63352 16.6512 7.70532 16.6567C7.8722 16.6691 8.04254 16.6721 8.21487 16.6651C8.12573 16.4546 8.04601 16.2406 7.97569 16.024C7.93905 15.9952 7.89696 15.9618 7.84942 15.922C7.81525 15.9091 7.78059 15.8961 7.74593 15.8842C7.60925 16.0051 7.47951 16.1355 7.3572 16.2744C7.39632 16.3869 7.43742 16.4979 7.481 16.6089C7.48447 16.6174 7.48793 16.6263 7.4914 16.6348ZM8.4892 15.6592C8.68134 15.7548 8.86654 15.8618 9.04282 15.9802C9.23892 16.1121 9.4261 16.2565 9.60437 16.4123C9.61823 16.4078 9.6316 16.4038 9.64547 16.3993C9.64745 16.3969 9.64943 16.3944 9.6519 16.3914C9.41273 15.9708 9.20723 15.5437 9.03886 15.1162C8.99529 15.1316 8.95171 15.148 8.90863 15.165C8.71699 15.2401 8.53278 15.3312 8.35649 15.4367C8.39957 15.5114 8.44365 15.5855 8.4892 15.6597V15.6592ZM18.0399 15.7841C18.3068 15.9648 18.5623 16.1649 18.8045 16.3829C18.7376 16.1918 18.6594 16.0046 18.5707 15.8225C18.5093 15.697 18.443 15.5726 18.3717 15.4507C18.2578 15.5587 18.1474 15.6702 18.0404 15.7841H18.0399ZM15.6907 15.7478C16.0086 15.921 16.3161 16.1186 16.6004 16.3481C16.532 16.15 16.4533 15.9564 16.3642 15.7677C16.0794 15.6851 15.8309 15.5059 15.6293 15.3093C15.6546 15.4546 15.6754 15.6005 15.6912 15.7478H15.6907ZM6.53024 15.6179C6.57233 15.8548 6.62482 16.0902 6.68771 16.3232C6.71098 16.2908 6.73475 16.259 6.75902 16.2271C6.76942 16.1973 6.77981 16.1669 6.79071 16.1365C6.73822 15.9688 6.68969 15.7996 6.64562 15.6298C6.60749 15.6254 6.56886 15.6214 6.53024 15.6179ZM5.42795 15.7812C5.66019 15.9529 5.90531 16.1027 6.16132 16.2281C6.11032 16.0176 6.06724 15.806 6.03208 15.5945C5.87412 15.5945 5.71566 15.602 5.5572 15.6159C5.51411 15.6702 5.47103 15.7254 5.42795 15.7812ZM4.13155 15.9544C4.22266 16.0375 4.31675 16.1166 4.4143 16.1928C4.37568 16.0917 4.33953 15.9902 4.30585 15.8882C4.24693 15.9091 4.1885 15.9315 4.13105 15.9544H4.13155ZM16.9158 15.7876C16.9693 15.9131 17.0183 16.04 17.0639 16.1689C17.0956 16.1276 17.1278 16.0863 17.1604 16.0455C17.1382 15.9633 17.1149 15.8817 17.0906 15.8006C17.0644 15.7871 17.0381 15.7742 17.0119 15.7612C16.9802 15.7717 16.948 15.7807 16.9158 15.7876ZM20.8496 14.8265C21.0021 15.0803 21.1422 15.3397 21.2685 15.603C21.3507 15.7747 21.427 15.9474 21.4973 16.1206C21.683 15.3934 21.7543 14.6264 21.7008 13.8559C21.4839 13.8748 21.2725 13.9067 21.066 13.9515C20.9268 13.9818 20.7902 14.0177 20.6565 14.0595C20.7327 14.3143 20.7966 14.5702 20.8491 14.827L20.8496 14.8265ZM9.51771 14.9773C9.6524 15.3173 9.81235 15.6572 9.99656 15.9952C10.2768 15.6985 10.5863 15.4253 10.9186 15.1804C10.9567 15.0759 10.9973 14.9723 11.0404 14.8698C10.5333 14.8384 10.0183 14.8638 9.51771 14.9773ZM13.5971 15.4168C13.5149 15.5945 13.4327 15.7836 13.3534 15.9822C13.4847 15.812 13.6283 15.6443 13.7842 15.48C13.7233 15.4591 13.6609 15.4377 13.5971 15.4168ZM19.0481 14.8832C19.2338 14.9873 19.416 15.0993 19.5938 15.2182C19.9191 15.4362 20.2257 15.6831 20.5064 15.9519C20.4846 15.6368 20.4425 15.3202 20.3811 15.0042C20.244 14.7797 20.0964 14.5592 19.9384 14.3442C19.624 14.4965 19.3279 14.6787 19.0481 14.8832ZM12.7062 15.3043C12.7414 15.37 12.776 15.4362 12.8097 15.5029C12.8464 15.5756 12.882 15.6488 12.9162 15.7219C12.9806 15.5651 13.0469 15.4123 13.1148 15.265C13.0836 15.2555 13.0524 15.2466 13.0207 15.2376C12.9152 15.2575 12.8102 15.2799 12.7062 15.3048V15.3043ZM25.7069 15.1112C25.7069 15.1112 25.7113 15.1157 25.7133 15.1177C25.8728 15.275 26.0337 15.4372 26.1917 15.6045C26.2258 15.4462 26.2561 15.2904 26.2798 15.1361C26.0822 14.9967 25.8757 14.8688 25.6648 14.7528C25.6811 14.8713 25.695 14.9907 25.7064 15.1112H25.7069ZM3.83741 15.2625C3.81017 15.364 3.7864 15.4666 3.7656 15.5691C3.89534 15.5109 4.02954 15.4571 4.1672 15.4093C4.14938 15.3377 4.13254 15.266 4.11669 15.1943C4.0642 15.1296 4.01369 15.0644 3.96418 14.9977C3.92109 15.0848 3.87851 15.1729 3.83741 15.2625ZM15.0762 15.4462C15.1029 15.4581 15.1292 15.4701 15.1554 15.482C15.1396 15.3825 15.1213 15.2834 15.1005 15.1854C15.091 15.1839 15.0816 15.1829 15.0727 15.1819C15.0727 15.27 15.0742 15.3586 15.0762 15.4467V15.4462ZM17.8299 14.9629C17.8512 15.0505 17.872 15.1381 17.8913 15.2252C17.9592 15.1575 18.0285 15.0913 18.0988 15.0256C18.079 14.9972 18.0587 14.9688 18.0384 14.941C17.9844 14.9181 17.9305 14.8957 17.876 14.8743C17.8611 14.9041 17.8458 14.9335 17.8299 14.9629ZM5.0932 14.4169C5.11499 14.6652 5.14569 14.9136 5.18481 15.16C5.22344 15.154 5.26256 15.149 5.30118 15.144C5.46261 14.9469 5.62603 14.7588 5.79092 14.5796C5.56413 14.505 5.3304 14.4492 5.09271 14.4174L5.0932 14.4169ZM6.45745 15.1132C6.48072 15.1147 6.50399 15.1167 6.52727 15.1187C6.51043 15.0375 6.49508 14.9559 6.48023 14.8748C6.46438 14.8663 6.44804 14.8578 6.43219 14.8494C6.43913 14.9375 6.44754 15.0251 6.45745 15.1132ZM4.57969 14.9883C4.61089 15.0251 4.64258 15.0609 4.67477 15.0968C4.64011 14.8608 4.61337 14.6234 4.59405 14.386C4.55989 14.386 4.52621 14.3875 4.49205 14.389C4.51037 14.5881 4.53958 14.7887 4.57969 14.9888V14.9883ZM3.13028 14.7812C3.20505 14.8773 3.28131 14.9738 3.35806 15.0709C3.36104 15.0749 3.3645 15.0788 3.36747 15.0828C3.41303 14.9161 3.46651 14.7513 3.52742 14.5891C3.51454 14.594 3.50167 14.599 3.48879 14.6045C3.365 14.6548 3.24566 14.714 3.12978 14.7812H3.13028ZM8.13712 14.4517C8.15792 14.6189 8.18367 14.7837 8.21388 14.9455C8.37927 14.8529 8.5511 14.7712 8.72788 14.7016C8.77493 14.6831 8.82197 14.6652 8.86951 14.6488C8.76601 14.3357 8.68332 14.0261 8.62191 13.7195C8.44959 13.9579 8.28816 14.2023 8.13712 14.4522V14.4517ZM16.0997 14.4024C16.23 14.5687 16.3518 14.7424 16.4647 14.9221C16.5519 14.8942 16.637 14.8479 16.7197 14.7917C16.6752 14.6891 16.6286 14.5871 16.5801 14.4855C16.4206 14.4527 16.2602 14.4248 16.0997 14.4024ZM6.92788 14.5527C7.07346 14.6398 7.21558 14.7349 7.35374 14.8379C7.38097 14.7857 7.40821 14.7334 7.43643 14.6812C7.33888 14.4442 7.25123 14.2003 7.1725 13.9495C7.07445 14.0301 6.9764 14.1142 6.87935 14.2008C6.89371 14.3183 6.90955 14.4358 6.92788 14.5527ZM18.3578 14.5373C18.4256 14.5677 18.4935 14.5985 18.5608 14.6304C18.8921 14.3696 19.2472 14.1366 19.6285 13.943C19.4883 13.7718 19.3412 13.6045 19.1877 13.4418C19.0872 13.4632 18.9847 13.4781 18.8812 13.4861C18.7847 13.4936 18.6876 13.4945 18.5896 13.4901C18.4831 13.6384 18.3732 13.7842 18.2588 13.9266C18.2226 14.0406 18.1835 14.1536 18.1419 14.2655C18.2167 14.3551 18.289 14.4457 18.3578 14.5373ZM25.6158 14.1675C25.8619 14.2894 26.105 14.4263 26.3392 14.5776C26.3561 14.2073 26.3249 13.842 26.2209 13.4716C26.0208 12.7569 25.8228 12.4085 25.5276 12.1606C25.6024 12.5424 25.6435 12.9361 25.6504 13.3368C25.6554 13.615 25.6435 13.8927 25.6153 14.1675H25.6158ZM9.16712 13.8649C9.21713 14.0779 9.27754 14.2924 9.34786 14.5069C9.63804 14.4373 9.93169 14.395 10.2248 14.375C9.86335 14.2277 9.50979 14.057 9.16712 13.8654V13.8649ZM12.1546 14.4129C12.1769 14.4164 12.1996 14.4198 12.2224 14.4233C12.4042 14.3427 12.5889 14.27 12.7775 14.2053C12.9454 13.9042 13.088 13.5886 13.2024 13.2616C13.247 13.1337 13.2876 13.0043 13.3237 12.8734C13.294 12.8604 13.2648 12.8485 13.2346 12.836C13.1697 12.8704 13.1039 12.9032 13.038 12.9351C12.9756 12.9655 12.9127 12.9943 12.8498 13.0227C12.6953 13.1785 12.5492 13.3422 12.4126 13.513C12.2719 13.7539 12.1511 14.0067 12.0516 14.2685C12.0867 14.3158 12.1209 14.3641 12.1551 14.4119L12.1546 14.4129ZM14.1284 14.3945C14.1259 14.3989 14.123 14.4034 14.1205 14.4084C14.17 14.3989 14.22 14.388 14.2695 14.3765C14.2225 14.382 14.1754 14.388 14.1284 14.3945ZM2.7777 14.3074C2.79504 14.3322 2.81286 14.3571 2.83019 14.3815C2.98172 14.2889 3.13969 14.2088 3.30359 14.1426C3.34073 14.1277 3.37787 14.1132 3.41551 14.0998C3.35509 13.9774 3.29914 13.8524 3.24813 13.7265C3.08225 13.9141 2.92527 14.1078 2.7777 14.3074ZM9.64349 13.5573C10.1684 13.831 10.7171 14.0525 11.2811 14.2158C11.3024 14.2217 11.3237 14.2282 11.3459 14.2342C11.3539 14.2193 11.3623 14.2043 11.3707 14.1894C11.1909 13.9714 10.9983 13.7608 10.7943 13.5593C10.4076 13.5941 10.0218 13.5936 9.64349 13.5573ZM23.4662 13.9679C23.4746 14.0187 23.483 14.0699 23.4909 14.1212C23.4939 14.0724 23.4964 14.0236 23.4988 13.9744C23.488 13.9724 23.4771 13.9699 23.4667 13.9679H23.4662ZM5.06151 13.9161C5.34773 13.947 5.63494 14.0077 5.91819 14.0973C5.92661 13.5 5.99989 12.9107 6.14003 12.3413C6.15291 12.2895 6.16578 12.2383 6.17965 12.1865C6.05882 12.2507 5.93898 12.3229 5.82113 12.4025C5.55373 12.6603 5.29772 12.944 5.05606 13.2521C5.05062 13.4731 5.0526 13.6951 5.06151 13.9161ZM16.9188 14.0515C16.9663 14.063 17.0134 14.0744 17.0604 14.0864C17.0342 14.0077 17.0069 13.9291 16.9792 13.8504C16.9356 13.8718 16.892 13.8932 16.8485 13.9151C16.8722 13.9604 16.896 14.0057 16.9193 14.0515H16.9188ZM3.62349 13.3273C3.68935 13.5159 3.7666 13.6996 3.85325 13.8778C3.89336 13.8046 3.93496 13.732 3.97804 13.6603C3.98745 13.4119 4.0132 13.166 4.05529 12.9236C3.90673 13.054 3.76263 13.1884 3.62349 13.3273ZM4.2088 6.80047C3.74382 7.19617 3.33479 7.63667 3.03372 8.08762C2.22854 9.29364 1.89825 10.7948 2.05275 12.5503C2.09534 13.0326 2.26073 13.4592 2.49248 13.8629C2.67074 13.6319 2.8609 13.4089 3.06244 13.1944C3.00252 12.9893 2.95449 12.7813 2.91982 12.5717C2.7366 11.4717 2.86634 10.2896 3.29567 9.15278C3.53881 8.50871 3.87356 7.88852 4.28357 7.31463C4.27862 7.27481 4.27416 7.23549 4.2702 7.19617C4.25089 7.08866 4.23356 6.98115 4.2187 6.87414C4.21524 6.84975 4.21226 6.82536 4.2088 6.80097V6.80047ZM15.1718 13.4403C15.3109 13.5578 15.4456 13.6807 15.5744 13.8096C15.7259 13.7051 15.871 13.5871 16.0091 13.4572C15.8264 13.17 15.6278 12.8908 15.4149 12.6205C15.4065 12.6155 15.3986 12.6101 15.3901 12.6051C15.349 12.6534 15.3089 12.7017 15.2698 12.7494C15.2317 12.9789 15.199 13.2093 15.1718 13.4403ZM17.5165 13.6006C17.5863 13.6668 17.6541 13.7335 17.72 13.8007C17.7517 13.7633 17.7829 13.726 17.8136 13.6882C17.8384 13.607 17.8621 13.5254 17.8844 13.4433C17.7586 13.4945 17.6358 13.5473 17.5165 13.6006ZM11.3965 13.4761C11.4787 13.5647 11.5584 13.6548 11.6366 13.7464C11.7228 13.6145 11.8129 13.4851 11.908 13.3592C11.7386 13.4055 11.5678 13.4443 11.3965 13.4761ZM24.0069 13.5802C24.1738 13.6225 24.3426 13.6707 24.513 13.7245C24.5288 13.7295 24.5447 13.7345 24.5605 13.7399C24.4818 13.2193 24.36 12.6897 24.1956 12.1571C24.0693 11.9645 23.9311 11.7778 23.7821 11.5987C23.9307 12.2477 24.0049 12.9117 24.0069 13.5807V13.5802ZM8.06631 13.3109C8.06631 13.4214 8.06928 13.5309 8.07325 13.6394C8.14752 13.5319 8.22329 13.4249 8.30153 13.3193C8.2634 13.2925 8.22527 13.2656 8.18763 13.2382C8.14703 13.2621 8.10692 13.286 8.06631 13.3109ZM19.6968 13.2696C19.7934 13.3771 19.8879 13.4871 19.98 13.5981C19.93 13.4667 19.877 13.3363 19.8206 13.2064C19.7795 13.2288 19.7384 13.2497 19.6968 13.2691V13.2696ZM6.82091 12.4652C6.8016 12.84 6.80259 13.2168 6.82537 13.5931C6.89222 13.5374 6.95957 13.4836 7.02691 13.4308C6.94917 13.1227 6.8843 12.8037 6.83181 12.4742C6.82834 12.4712 6.82438 12.4687 6.82091 12.4657V12.4652ZM20.2375 12.9251C20.3351 13.1436 20.4237 13.3646 20.5035 13.5871C20.6535 13.5403 20.8065 13.4995 20.9635 13.4657C21.1873 13.4169 21.4171 13.3821 21.6513 13.3616C21.6345 13.2392 21.6142 13.1168 21.5909 12.9943C21.3596 12.9356 21.1229 12.8933 20.8808 12.8714C20.6936 12.854 20.5059 12.8495 20.3197 12.8559C20.2925 12.8798 20.2653 12.9027 20.238 12.9251H20.2375ZM13.7768 13.0914C13.7441 13.2044 13.7085 13.3164 13.6699 13.4269C13.656 13.4672 13.6411 13.5075 13.6263 13.5478C13.7258 13.4234 13.8224 13.2964 13.9155 13.167C13.8699 13.1412 13.8234 13.1158 13.7773 13.0914H13.7768ZM23.2998 13.1845C23.3681 13.2243 23.436 13.2651 23.5028 13.3069C23.484 12.7196 23.4058 12.1347 23.2641 11.5623C23.2057 11.3274 23.1374 11.0925 23.0591 10.8575C22.9418 10.7545 22.8204 10.6545 22.6952 10.5584C22.4763 10.4514 22.2609 10.3583 22.0489 10.2787C22.6139 11.187 23.0388 12.1671 23.2998 13.1845ZM17.2129 13.071C17.2268 13.1053 17.2407 13.1397 17.254 13.174C17.2823 13.1616 17.3105 13.1486 17.3387 13.1362C17.2971 13.1153 17.255 13.0939 17.2129 13.071ZM7.40425 12.8594C7.42158 12.9445 7.4399 13.0287 7.45921 13.1123C7.49685 13.0864 7.53498 13.0605 7.5731 13.0356C7.5736 13.0083 7.5741 12.9809 7.57509 12.9535C7.51764 12.9231 7.4607 12.8918 7.40425 12.8594ZM9.20227 12.9844C9.54791 13.0481 9.90643 13.0799 10.2645 13.0779C10.0679 12.9137 9.86236 12.7574 9.64844 12.6096C9.59793 12.624 9.54742 12.6389 9.49691 12.6544C9.39639 12.7629 9.29784 12.8729 9.20178 12.9844H9.20227ZM10.2956 12.4677C10.5249 12.6449 10.7463 12.834 10.9582 13.0336C11.4395 12.9749 11.9189 12.8574 12.3794 12.6797C12.4056 12.6459 12.4324 12.6121 12.4591 12.5787C11.7723 12.403 11.0587 12.3552 10.3585 12.4578C10.3372 12.4607 10.3164 12.4642 10.2956 12.4672V12.4677ZM17.306 12.5533C17.5432 12.6907 17.7695 12.7957 17.9864 12.8689C18.0008 12.8634 18.0151 12.8579 18.0295 12.8525C18.0582 12.7211 18.0855 12.5892 18.1122 12.4578C18.0042 12.3726 17.8938 12.2895 17.7814 12.2084C17.7086 12.1556 17.6304 12.1009 17.5472 12.0446C17.4739 12.2203 17.3937 12.3901 17.306 12.5533ZM22.0826 12.6235C22.2921 12.6937 22.4966 12.7763 22.6966 12.8689C22.449 12.0675 22.0945 11.294 21.6459 10.5678C21.5978 10.7326 21.5438 10.8939 21.4849 11.0507C21.7058 11.5389 21.8796 12.0412 22.0019 12.5508C22.0291 12.5747 22.0559 12.5991 22.0826 12.6235ZM4.58019 12.8236C4.57821 12.8326 4.57623 12.8415 4.57425 12.8505C4.57573 12.849 4.57722 12.847 4.5787 12.8455C4.5787 12.838 4.57969 12.8311 4.58019 12.8236ZM24.6482 11.9426C24.8279 12.2238 24.9859 12.518 25.1221 12.8241C25.0869 12.4737 25.0225 12.1283 24.929 11.7928C24.874 11.7649 24.8165 11.7365 24.7566 11.7067C24.6863 11.6718 24.612 11.6345 24.5333 11.5947C24.5734 11.7107 24.612 11.8266 24.6487 11.9426H24.6482ZM15.7496 12.2442C16.0378 12.4274 16.3082 12.6126 16.5613 12.8007C16.5306 12.731 16.4994 12.6618 16.4672 12.5921C16.2572 12.4339 16.0572 12.2612 15.8685 12.076C15.8219 12.1243 15.7764 12.1726 15.7313 12.2213C15.7378 12.2293 15.7437 12.2368 15.7496 12.2442ZM4.39895 8.03735C3.53732 9.43201 3.16544 11.0307 3.40907 12.4891C3.42591 12.5897 3.44571 12.6897 3.46849 12.7883C3.72153 12.5493 3.98893 12.3234 4.26971 12.1108C4.41925 11.6907 4.62525 11.2881 4.88275 10.9123C4.94415 10.6778 5.01348 10.4494 5.09122 10.2264C4.86294 9.74558 4.67725 9.22246 4.53909 8.66699C4.48561 8.45246 4.43906 8.24242 4.39945 8.03735H4.39895ZM8.09008 12.5389C8.13564 12.5752 8.1812 12.6116 8.22675 12.6469C8.31341 12.6011 8.40056 12.5578 8.48772 12.5165C8.48425 12.3363 8.48772 12.1576 8.5001 11.9804C8.38719 11.9386 8.27082 11.9023 8.15148 11.8734C8.12474 12.0984 8.10395 12.3204 8.08959 12.5384L8.09008 12.5389ZM19.3437 12.2621C19.3026 12.3413 19.2605 12.4194 19.2175 12.4971C19.2947 12.4802 19.3724 12.4647 19.4502 12.4508C19.4155 12.3876 19.3799 12.3244 19.3437 12.2621ZM19.6022 11.7296C19.7349 11.9426 19.8587 12.1591 19.9736 12.3786C20.0192 12.3741 20.0652 12.3707 20.1113 12.3677C20.2108 12.2681 20.3044 12.1596 20.3925 12.0441C20.1415 11.9132 19.8815 11.7988 19.6156 11.7002L19.6022 11.7301V11.7296ZM20.7753 12.3637C20.8253 12.3667 20.8753 12.3707 20.9254 12.3751C20.9377 12.3761 20.9506 12.3776 20.963 12.3786C20.9184 12.3492 20.8739 12.3209 20.8288 12.2925C20.8125 12.3149 20.7961 12.3368 20.7793 12.3587C20.7783 12.3602 20.7768 12.3617 20.7758 12.3637H20.7753ZM18.6549 12.2602C18.6836 12.2845 18.7124 12.3089 18.7411 12.3333C18.8461 12.1482 18.9446 11.9595 19.0377 11.7684C18.9689 11.6644 18.8976 11.5618 18.8243 11.4598C18.8198 11.4588 18.8154 11.4578 18.8109 11.4568C18.7713 11.6519 18.7337 11.8495 18.696 12.0486C18.6826 12.1188 18.6693 12.1895 18.6554 12.2602H18.6549ZM5.15015 12.0999C5.14025 12.1701 5.13133 12.2402 5.12292 12.3109C5.25117 12.2019 5.38338 12.1009 5.51758 12.0083C5.64336 11.8878 5.77112 11.7729 5.90086 11.6639C5.64286 11.7983 5.3923 11.9436 5.14966 12.0999H5.15015ZM8.99033 12.2019C8.98934 12.2353 8.98885 12.2691 8.98835 12.3025C9.02549 12.2885 9.06213 12.2751 9.09977 12.2616C9.06412 12.2417 9.02747 12.2218 8.99033 12.2019ZM16.8628 12.2656C16.8713 12.2716 16.8792 12.2776 16.8876 12.2831C16.9723 12.1223 17.0495 11.9545 17.1193 11.7803C16.9213 11.6703 16.7073 11.5688 16.482 11.4911C16.4815 11.4916 16.4805 11.4921 16.4801 11.4931C16.6162 11.7525 16.7435 12.0098 16.8628 12.2656ZM14.5201 12.0959C14.528 12.1208 14.5359 12.1457 14.5439 12.1706C14.5528 12.1546 14.5612 12.1392 14.5696 12.1233C14.5533 12.1143 14.5364 12.1049 14.5201 12.0959ZM11.0924 11.9068C11.6787 11.9068 12.264 11.9973 12.8295 12.1671C12.9246 12.072 13.0226 11.9814 13.1247 11.8943C12.6344 11.4827 12.0803 11.1592 11.4876 10.9496C11.0236 11.2647 10.5853 11.6101 10.1763 11.9824C10.2134 11.9764 10.2501 11.9705 10.2872 11.965C10.5541 11.9257 10.8235 11.9068 11.0919 11.9068H11.0924ZM7.2963 11.8236C7.40375 11.9316 7.51319 12.0367 7.6251 12.1392C7.6355 12.0292 7.64738 11.9182 7.66075 11.8067C7.54092 11.8032 7.4191 11.8087 7.2963 11.8236ZM21.0977 11.8764C21.1794 11.9272 21.2596 11.9799 21.3393 12.0342C21.2987 11.9127 21.2556 11.7923 21.2091 11.6723C21.1729 11.742 21.1358 11.8102 21.0977 11.8769V11.8764ZM9.03143 11.6659C9.20574 11.749 9.36717 11.8391 9.51226 11.9277C9.93317 11.5145 10.3873 11.1293 10.8706 10.7764C10.5967 10.7187 10.3125 10.6823 10.0198 10.6669C9.75589 10.6604 9.4984 10.6719 9.24635 10.7002C9.22753 10.757 9.2102 10.8142 9.19336 10.872C9.11908 11.1303 9.06461 11.3956 9.03094 11.6664L9.03143 11.6659ZM17.723 11.5648C17.8483 11.6464 17.9646 11.7271 18.0696 11.8032C18.1191 11.8391 18.1681 11.8749 18.2172 11.9117C18.2523 11.7281 18.2875 11.5434 18.3251 11.3593C18.1523 11.3309 17.9775 11.309 17.8032 11.294C17.7834 11.3667 17.7626 11.4389 17.7398 11.5106C17.7344 11.5285 17.7284 11.5469 17.7225 11.5648H17.723ZM15.4917 11.6713C15.4827 11.7077 15.4743 11.7435 15.4654 11.7798C15.4862 11.7579 15.5075 11.736 15.5283 11.7141C15.5159 11.6997 15.5035 11.6858 15.4912 11.6713H15.4917ZM19.8062 11.2433C20.1009 11.3528 20.3891 11.4817 20.6664 11.628C20.7704 11.4483 20.863 11.2587 20.9447 11.0641C20.7555 10.6724 20.5342 10.2906 20.2831 9.92278C20.2633 9.92278 20.2425 9.92278 20.2227 9.92278C20.1142 10.3712 19.9746 10.8127 19.8067 11.2433H19.8062ZM8.21982 11.3782C8.3347 11.404 8.44662 11.4354 8.55556 11.4722C8.59072 11.2418 8.63924 11.0148 8.70164 10.7903C8.56794 10.8197 8.43523 10.8545 8.304 10.8949C8.30153 10.9073 8.29905 10.9202 8.29657 10.9332C8.26835 11.083 8.2426 11.2313 8.21982 11.3787V11.3782ZM5.33783 11.1273C5.31158 11.2328 5.28682 11.3398 5.26404 11.4478C5.39626 11.3707 5.53046 11.297 5.66663 11.2259C5.60176 11.1328 5.53887 11.0372 5.47796 10.9392C5.42993 11.0009 5.38289 11.0636 5.33783 11.1278V11.1273ZM7.76524 11.091C7.60133 11.1607 7.4394 11.2388 7.28045 11.3244C7.43148 11.3085 7.58152 11.304 7.72909 11.311C7.74048 11.2378 7.75236 11.1646 7.76524 11.091ZM17.2149 11.2677C17.2382 11.2796 17.262 11.2921 17.2847 11.3045C17.2882 11.2926 17.2917 11.2806 17.2956 11.2682C17.2684 11.2682 17.2421 11.2677 17.2149 11.2677ZM24.2629 10.8849C24.4169 10.973 24.56 11.0492 24.6947 11.1183C24.5625 10.8028 24.4016 10.5002 24.2124 10.2169C24.0059 9.90735 23.7628 9.61119 23.4845 9.32898C23.7766 9.82273 24.0371 10.3424 24.2629 10.8849ZM19.1209 11.0253C19.1927 11.0442 19.265 11.0646 19.3363 11.086C19.4824 10.7152 19.6057 10.3359 19.7052 9.95115C19.5269 9.97106 19.3521 10.0004 19.1808 10.0392C19.0927 10.2886 19.0194 10.5454 18.954 10.8088C18.9659 10.8237 18.9773 10.8381 18.9892 10.8531C19.0337 10.9098 19.0778 10.9675 19.1209 11.0253ZM12.1501 10.53C12.6047 10.6679 13.0742 10.8446 13.5594 11.0616C13.5594 10.968 13.5565 10.8745 13.5525 10.7804C13.2915 10.5788 13.0202 10.3872 12.7384 10.207C12.5389 10.3095 12.3423 10.4175 12.1501 10.5305V10.53ZM14.1596 10.6301C14.3146 10.7585 14.4656 10.8909 14.6127 11.0263C14.7053 10.9944 14.7974 10.9665 14.889 10.9431C14.9019 10.9292 14.9148 10.9153 14.9276 10.9013C14.6657 10.4827 14.4468 10.0288 14.277 9.54748C14.225 9.5654 14.173 9.58432 14.1215 9.60273C14.1081 9.81079 14.0997 10.0228 14.0977 10.2369C14.116 10.3683 14.1368 10.4992 14.1601 10.6296L14.1596 10.6301ZM17.9151 10.8088C18.0637 10.8232 18.2117 10.8421 18.3593 10.865C18.2444 10.7286 18.1256 10.5942 18.0023 10.4618C17.9909 10.4673 17.9795 10.4733 17.9681 10.4788C17.9532 10.5892 17.9354 10.6992 17.9146 10.8083L17.9151 10.8088ZM6.06526 10.3055C6.18905 10.4942 6.31879 10.6783 6.45497 10.857C6.48221 10.8456 6.50994 10.8341 6.53767 10.8232C6.57728 10.6345 6.62234 10.4479 6.67236 10.2627C6.67236 10.1179 6.67483 9.97156 6.6788 9.82323C6.46289 9.96807 6.25739 10.1298 6.06476 10.306L6.06526 10.3055ZM15.9131 10.4817C15.9873 10.6057 16.0591 10.7296 16.1295 10.8526C16.2656 10.8321 16.4023 10.8157 16.5395 10.8033C16.841 10.5693 17.1634 10.3518 17.5046 10.1627C17.5105 10.099 17.515 10.0358 17.519 9.97205C17.255 9.7202 16.9752 9.47631 16.6796 9.24088C16.4513 9.68187 16.1948 10.0965 15.9131 10.4817ZM8.25151 9.13585C7.91132 9.5883 7.6152 10.0547 7.36513 10.5295C7.54587 10.4743 7.72562 10.4255 7.90439 10.3827C8.00293 9.93871 8.11831 9.52359 8.25151 9.13585ZM14.8999 9.80233C15.0049 10.0432 15.1252 10.2777 15.2599 10.5036C15.2698 10.4723 15.2797 10.4409 15.2891 10.4096C15.2515 10.3488 15.2134 10.2876 15.1747 10.2269C15.0826 10.0816 14.991 9.9402 14.8999 9.80233ZM23.4152 10.3752C23.4488 10.3941 23.483 10.4135 23.5167 10.4335C23.4077 10.2095 23.2924 9.98997 23.171 9.77545C23.2592 9.97504 23.3409 10.1751 23.4152 10.3752ZM20.909 9.97504C21.0011 10.1229 21.0888 10.2722 21.172 10.4235C21.1972 10.3369 21.22 10.2508 21.2413 10.1647C21.2512 10.1249 21.2606 10.084 21.27 10.0427C21.1487 10.0154 21.0284 9.99296 20.909 9.97504ZM10.0312 10.1692C10.4992 10.1801 10.9845 10.2418 11.4871 10.3548C11.7327 10.1975 11.9852 10.0477 12.2432 9.90685C11.4905 9.4788 10.7874 9.20504 10.1119 9.07762C9.85097 9.41907 9.63012 9.78341 9.45581 10.1657C9.65042 10.1587 9.84206 10.1597 10.0307 10.1692H10.0312ZM18.4836 10.2518C18.5113 10.2826 18.539 10.3135 18.5663 10.3449C18.5796 10.2986 18.593 10.2523 18.6069 10.2065C18.5653 10.2214 18.5242 10.2364 18.4831 10.2523L18.4836 10.2518ZM8.81999 9.02138C8.67341 9.40712 8.54664 9.82373 8.43869 10.2732C8.59319 10.2463 8.7472 10.2244 8.89971 10.2075C9.06808 9.7869 9.28794 9.38423 9.55237 9.00545C9.30775 8.98902 9.06263 8.9945 8.81999 9.02138ZM13.2603 9.95513C13.3386 10.0079 13.4163 10.0621 13.4926 10.1169C13.4812 10.0343 13.4683 9.95165 13.4545 9.86952C13.3896 9.89739 13.3247 9.92626 13.2603 9.95563V9.95513ZM21.8895 9.44097C22.1712 9.59079 22.4416 9.75604 22.6996 9.93522C22.5015 9.49224 22.2673 9.05024 21.9979 8.61124C21.9677 8.91685 21.9286 9.19857 21.889 9.44097H21.8895ZM5.77607 9.83418C5.78399 9.84812 5.79191 9.86205 5.80033 9.87599C5.88451 9.80133 5.97167 9.72866 6.0613 9.65848C6.26977 9.49472 6.48567 9.3469 6.70801 9.21649C6.73277 8.86061 6.77585 8.48382 6.85409 8.10554C6.78576 8.18468 6.71891 8.26531 6.65503 8.34744C6.3084 8.79042 6.01475 9.28966 5.77656 9.83468L5.77607 9.83418ZM18.0265 9.77296C18.0572 9.80332 18.0874 9.83368 18.1171 9.86405C18.3415 9.76898 18.5732 9.68685 18.8119 9.62015C18.8911 9.42205 18.9808 9.22794 19.0833 9.03929C18.7267 8.98554 18.3642 8.95368 17.9983 8.94323C18.0245 9.22097 18.034 9.49821 18.0265 9.77296ZM15.148 9.28269C15.253 9.43649 15.3585 9.59527 15.4639 9.75853C15.5075 9.5669 15.5451 9.37377 15.5763 9.17966C15.4337 9.21101 15.2906 9.24536 15.148 9.28269ZM10.4749 8.64708C11.1801 8.81531 11.91 9.1269 12.6849 9.58929C12.7122 9.60572 12.7394 9.62215 12.7666 9.63857C12.9479 9.55047 13.1316 9.46685 13.3173 9.38771C13.3287 9.38273 13.3401 9.37825 13.3515 9.37328C13.192 8.71875 12.9419 8.07916 12.6042 7.47988C12.5473 7.37834 12.4878 7.27979 12.4274 7.18373C11.6787 7.56201 11.0142 8.06174 10.4754 8.64757L10.4749 8.64708ZM19.5997 9.13386C19.5309 9.24984 19.4675 9.3688 19.4091 9.48975C19.5453 9.46834 19.6834 9.45192 19.8241 9.44097C19.8315 9.40513 19.8384 9.3688 19.8454 9.33296C19.7973 9.27373 19.7488 9.2145 19.6993 9.15626C19.6661 9.1488 19.6329 9.14133 19.5997 9.13386ZM20.5475 9.43649C20.5886 9.43898 20.6297 9.44246 20.6708 9.44595C20.6188 9.42653 20.5663 9.40812 20.5139 9.3897C20.5252 9.40513 20.5366 9.42106 20.5475 9.43649ZM17.1223 8.95966C17.2595 9.07165 17.3932 9.18563 17.5234 9.3011C17.5175 9.18165 17.5086 9.06219 17.4962 8.94273C17.3719 8.94572 17.2471 8.95169 17.1218 8.95966H17.1223ZM4.82531 7.41816C4.96346 8.04033 5.18432 8.66997 5.48539 9.28617C5.70823 8.83671 5.9687 8.41961 6.26531 8.03984C6.47626 7.77006 6.709 7.51622 6.96056 7.27929C6.76694 6.85373 6.62433 6.32115 6.5758 5.75124C6.22223 5.98468 5.87659 6.26689 5.5463 6.5954C5.28484 6.85522 5.04418 7.13047 4.8258 7.41766L4.82531 7.41816ZM21.2284 9.1269C21.2953 9.15527 21.3616 9.18414 21.427 9.214C21.4725 8.91536 21.5097 8.59531 21.5329 8.2678C21.3131 8.24739 21.1289 8.22748 20.9724 8.21056C20.7659 8.18816 20.6055 8.17074 20.4871 8.16676C20.4846 8.20907 20.4822 8.25138 20.4787 8.29319C20.7431 8.55997 20.9932 8.83821 21.2284 9.1269ZM14.4632 8.34296C14.5904 8.50522 14.7172 8.67445 14.844 8.84966C15.1109 8.77549 15.3778 8.71079 15.6442 8.65653C15.6491 8.60427 15.6541 8.55251 15.658 8.50024C15.2579 8.23595 14.835 7.98459 14.3899 7.74518C14.4047 7.94527 14.429 8.14486 14.4632 8.34246V8.34296ZM9.7242 6.55309C9.61278 6.59142 9.50384 6.6387 9.39738 6.69644C8.97845 6.9249 8.61597 7.30518 8.22329 7.92884C8.05839 8.19015 7.90785 8.46092 7.77168 8.73866C7.841 8.71626 7.91033 8.69536 7.98015 8.67644C8.17674 8.42359 8.3867 8.17572 8.60854 7.93282C8.73531 7.79445 8.86307 7.66106 8.99132 7.53364C9.08244 7.38432 9.17801 7.23997 9.27754 7.1016C9.41471 6.91097 9.56376 6.7283 9.72371 6.55359L9.7242 6.55309ZM19.9176 8.65106C19.9266 8.66151 19.936 8.67147 19.9449 8.68192C19.9483 8.65305 19.9513 8.62418 19.9548 8.59531C19.9429 8.61323 19.9305 8.63214 19.9176 8.65106ZM7.57112 7.40024C7.41514 7.80689 7.32105 8.23495 7.26361 8.65255C7.42405 8.3111 7.6048 7.98061 7.80535 7.66205C7.996 7.35943 8.23864 7.00952 8.55704 6.7059C8.20645 6.91047 7.87616 7.14291 7.57112 7.40024ZM17.9334 8.444C18.3385 8.45196 18.7396 8.48531 19.1343 8.54404C18.7421 8.15382 18.3122 7.79147 17.8488 7.46445C17.7864 7.42015 17.7235 7.37685 17.6606 7.33454C17.7809 7.70287 17.872 8.07368 17.9334 8.4445V8.444ZM9.27061 8.49875C9.38945 8.49875 9.5078 8.50323 9.62615 8.51219C9.71974 8.51966 9.81383 8.52911 9.90841 8.54156C10.5071 7.8283 11.2707 7.22156 12.1432 6.77061C12.1298 6.75269 12.1165 6.73477 12.1026 6.71735C11.808 6.6168 11.493 6.5292 11.1731 6.47644C10.5616 6.8164 9.96338 7.27332 9.38252 7.84423C9.25873 8.05228 9.14335 8.27228 9.03639 8.50472C9.11413 8.50074 9.19237 8.49875 9.27011 8.49875H9.27061ZM17.2867 7.82282C17.2179 8.02042 17.1421 8.22101 17.0594 8.4226C17.0535 8.43703 17.0475 8.45196 17.0416 8.4664C17.1703 8.45744 17.2991 8.45097 17.4273 8.44699C17.3902 8.23794 17.3437 8.02988 17.2872 7.82282H17.2867ZM16.1711 8.24689C16.1943 8.26282 16.2171 8.27875 16.2399 8.29468C16.4716 7.86613 16.7197 7.48038 16.9861 7.13445C16.9975 7.09563 17.0079 7.0573 17.0188 7.01898C17.0045 6.98264 16.9901 6.9468 16.9747 6.91047C16.6781 6.74273 16.3751 6.59092 16.0676 6.45653C16.1438 6.89355 16.1824 7.35147 16.1815 7.8268C16.1815 7.96717 16.1775 8.10703 16.1711 8.24689ZM18.0552 7.00255C18.0815 7.02047 18.1072 7.03889 18.1335 7.0573C18.6539 7.42463 19.1348 7.83477 19.5695 8.27875C19.5928 8.24391 19.6151 8.21006 19.6364 8.17871C19.2278 7.81436 18.7891 7.47739 18.3236 7.17278C18.2404 7.11803 18.1503 7.06128 18.0552 7.00305V7.00255ZM13.297 7.74119C13.3708 7.89798 13.4396 8.05676 13.503 8.21753C13.5074 8.14137 13.5134 8.06423 13.5213 7.98658C13.4465 7.90246 13.3723 7.82083 13.297 7.74119ZM14.432 7.20613C14.8697 7.43459 15.2876 7.67499 15.6853 7.92685C15.6853 7.8935 15.6858 7.85966 15.6863 7.82631C15.6873 7.30169 15.6402 6.82436 15.556 6.38934C15.2966 6.40128 15.041 6.42468 14.789 6.45902C14.6845 6.55608 14.5914 6.65463 14.5097 6.75468C14.4835 6.903 14.4572 7.05382 14.432 7.20662V7.20613ZM18.5064 6.69893C18.5361 6.71784 18.5653 6.73676 18.594 6.75567C19.0778 7.07273 19.5344 7.42264 19.9597 7.80192C19.9746 7.79097 19.9904 7.78052 20.0063 7.77106C20.0083 7.66006 20.0083 7.54957 20.0063 7.43857C20.0043 7.35196 20.0013 7.26287 19.9959 7.17128C19.5002 6.97916 19.0025 6.82137 18.5069 6.69893H18.5064ZM20.5025 7.66952C20.6406 7.674 20.8075 7.69242 21.0254 7.71581C21.0972 7.72377 21.1754 7.73223 21.2601 7.7407C21.0709 7.64264 20.8753 7.54757 20.6728 7.45599C20.6154 7.43011 20.5574 7.40423 20.5 7.37884C20.5 7.39527 20.501 7.41169 20.501 7.42812C20.5025 7.50825 20.503 7.58889 20.5025 7.66902V7.66952ZM13.6124 7.35296C13.6198 7.36042 13.6268 7.36839 13.6342 7.37585C13.6352 7.37237 13.6362 7.36839 13.6372 7.3649C13.6288 7.36092 13.6203 7.35694 13.6119 7.35296H13.6124ZM20.4624 6.82287C20.5837 6.87314 20.705 6.9254 20.8263 6.97966C20.7293 6.86219 20.6317 6.74821 20.5332 6.63721C20.498 6.60884 20.4624 6.58047 20.4267 6.55309C20.4406 6.64368 20.4524 6.73377 20.4624 6.82287ZM13.4921 6.74821C13.6025 6.79848 13.7124 6.84975 13.8204 6.90101C13.8461 6.85074 13.8744 6.80097 13.9041 6.75169C13.9076 6.70988 13.9115 6.66807 13.916 6.62676C13.7729 6.66309 13.6312 6.70341 13.4921 6.74821ZM20.8778 6.27834C21.1007 6.45902 21.317 6.65015 21.5275 6.85124C21.4438 5.93789 21.1784 5.11563 20.5926 4.69156C20.3262 4.49843 20.0028 4.38993 19.624 4.36653C19.6077 4.4397 19.5893 4.51187 19.569 4.58404C19.8255 4.86228 20.0147 5.1868 20.1534 5.52925C20.3985 5.76119 20.6396 6.01106 20.8783 6.27884L20.8778 6.27834ZM7.05712 5.46653C7.07099 5.94038 7.15913 6.39979 7.29828 6.793C7.3572 6.67703 7.42207 6.56305 7.49288 6.45156C7.81278 5.95033 8.23319 5.54219 8.68827 5.20821C8.35748 5.16938 8.02967 5.15993 7.70879 5.18083C7.4914 5.25748 7.27352 5.35255 7.05761 5.46603L7.05712 5.46653ZM4.71587 6.40377C4.71686 6.51626 4.72082 6.63124 4.72776 6.74821C4.87681 6.5735 5.03378 6.40427 5.19719 6.24201C5.35268 6.08771 5.51114 5.94287 5.67307 5.80748C5.34773 5.9792 5.02437 6.18128 4.71587 6.40427V6.40377ZM18.6099 6.21165C19.0511 6.32015 19.4943 6.45554 19.936 6.6173C19.9102 6.45255 19.8756 6.28631 19.831 6.12255C19.5829 5.9578 19.3294 5.80599 19.0699 5.66812C18.9382 5.86174 18.7852 6.04441 18.6099 6.21165ZM12.4938 6.32911C12.6082 6.37192 12.7191 6.41522 12.8256 6.45902C13.1638 6.32413 13.5144 6.21165 13.8754 6.12404C13.915 6.11459 13.9546 6.10513 13.9942 6.09617C14.0115 6.00558 14.0313 5.91599 14.0526 5.8264C13.8912 5.79554 13.7293 5.76916 13.5674 5.74726C13.2757 5.76766 12.9796 5.81146 12.681 5.88165C12.5111 5.92196 12.3423 5.97074 12.1744 6.02798C12.2234 6.08223 12.2714 6.13748 12.319 6.19423C12.3779 6.23803 12.4359 6.28282 12.4943 6.32861L12.4938 6.32911ZM9.39144 5.33413C8.94874 5.6064 8.52188 5.94038 8.17773 6.354C8.75165 6.00409 9.37856 5.72436 10.0382 5.52527C9.82373 5.45011 9.60734 5.3859 9.39193 5.33463L9.39144 5.33413ZM17.7274 6.02947C17.819 6.0449 17.9107 6.06133 18.0023 6.07875C18.0236 6.06133 18.0453 6.04391 18.0666 6.02699C18.2835 5.85477 18.4672 5.65916 18.6208 5.44563C18.3558 5.32368 18.0855 5.21567 17.8116 5.12309C17.8062 5.1211 17.8002 5.11911 17.7948 5.11712C17.7933 5.41228 17.771 5.7164 17.7279 6.02947H17.7274ZM17.1025 5.94337C17.1476 5.94834 17.1926 5.95332 17.2377 5.9588C17.2842 5.61735 17.3045 5.28685 17.2981 4.97029C17.2832 4.96631 17.2679 4.96232 17.2525 4.95884C17.0569 5.04893 16.8544 5.14947 16.6459 5.25947C16.7886 5.4735 16.9223 5.6935 17.0451 5.91848C17.0644 5.92694 17.0832 5.9349 17.1025 5.94337ZM8.47088 2.01173C8.03165 2.10481 7.60529 2.24468 7.20369 2.43183C5.70575 3.13164 4.89513 4.2192 4.74212 5.77662C5.32099 5.39137 5.95037 5.07382 6.57827 4.88269C6.62383 4.40486 6.74664 3.92603 6.96947 3.48255C7.29679 2.83101 7.80683 2.33427 8.47138 2.01173H8.47088ZM16.0933 5.56558C16.1656 5.58748 16.2369 5.61038 16.3077 5.63427C16.278 5.58748 16.2473 5.54119 16.2166 5.4949C16.1755 5.5183 16.1344 5.54169 16.0933 5.56608V5.56558ZM14.8068 5.28735C14.9603 5.30676 15.1123 5.33065 15.2614 5.35902C15.1772 5.14151 15.0826 4.93794 14.9801 4.7478C14.9499 4.80106 14.9227 4.85481 14.8974 4.90708C14.8667 5.03151 14.8365 5.15794 14.8068 5.28685V5.28735ZM10.4828 4.77617C10.7671 4.89961 11.0429 5.05789 11.3078 5.24803C11.3355 5.24404 11.3633 5.24056 11.391 5.23708C11.9431 4.92549 12.5483 4.67911 13.191 4.50839C13.6377 4.38943 14.0942 4.30879 14.5538 4.26499C14.5661 4.2202 14.5785 4.1759 14.5909 4.1321C14.5023 4.01165 14.4102 3.89766 14.3161 3.79015C13.2762 3.85934 12.1521 4.12463 10.9528 4.58554C10.8047 4.64278 10.6467 4.70549 10.4828 4.77567V4.77617ZM12.7414 5.17784C13.0212 5.1878 13.3019 5.2107 13.5822 5.24703C13.7996 5.23359 14.014 5.2316 14.226 5.23956C14.2784 5.09074 14.3374 4.94391 14.4017 4.79956C14.4037 4.79508 14.4057 4.7906 14.4077 4.78613C13.8343 4.85631 13.2737 4.98821 12.7414 5.17784ZM15.5169 4.72839C15.5922 4.88368 15.6615 5.04296 15.7239 5.20622C15.7922 5.1659 15.8596 5.12658 15.9269 5.08825C15.8353 4.9673 15.7402 4.84834 15.6417 4.73137C15.6001 4.72988 15.5585 4.72889 15.5169 4.72789V4.72839ZM17.9869 4.65622C18.1637 4.71644 18.3395 4.78264 18.5128 4.85481C18.3806 4.7687 18.2474 4.68807 18.1137 4.61241C18.0716 4.62635 18.0295 4.64079 17.9864 4.65622H17.9869ZM16.3057 4.78264C16.3231 4.80504 16.3399 4.82794 16.3572 4.85033C16.3884 4.83391 16.4196 4.81748 16.4503 4.80106C16.4018 4.79409 16.3543 4.78812 16.3057 4.78214V4.78264ZM10.6393 2.06599C10.3402 2.06599 10.0367 2.09038 9.73064 2.14015C8.62389 2.31934 7.84348 2.84644 7.41068 3.70753C7.24678 4.03355 7.14477 4.39042 7.09426 4.75477C7.17151 4.74033 7.24826 4.72789 7.32502 4.71744C7.42009 4.70499 7.51517 4.69504 7.61123 4.68757C8.23468 4.47852 8.86109 4.40735 9.45878 4.48748C9.5697 4.50241 9.67964 4.52232 9.78957 4.54721C10.1372 4.37599 10.4749 4.23662 10.775 4.12115C11.8604 3.70404 12.8904 3.44074 13.859 3.33174C13.6332 3.13115 13.4044 2.96192 13.1836 2.82006C12.8241 2.58911 12.4344 2.39997 12.0258 2.25264C11.5826 2.1287 11.1167 2.06599 10.6388 2.06599H10.6393ZM15.8596 4.2426C16.3161 4.26997 16.7687 4.33468 17.2109 4.43572C17.2268 4.42875 17.2426 4.42178 17.2585 4.41531C17.2491 4.33965 17.2377 4.26499 17.2248 4.19083C17.1793 4.17341 17.1337 4.15649 17.0876 4.14006C16.8193 4.12911 16.539 4.1311 16.2493 4.13608C16.1002 4.13857 15.9408 4.14155 15.7883 4.16296C15.812 4.18934 15.8358 4.21522 15.8596 4.2416V4.2426ZM17.6205 3.68264C17.9785 3.72694 18.34 3.80807 18.6777 3.95441C18.8614 3.91757 19.0387 3.89269 19.208 3.87974C19.2982 3.1416 19.1803 2.37707 18.9099 1.73798C18.6326 1.08296 18.1028 0.41549 17.4417 0.506576C17.0376 0.562322 16.6227 0.900286 16.2339 1.47916C16.4588 1.66879 16.6618 1.87834 16.842 2.1073C17.2055 2.56821 17.465 3.0973 17.6205 3.68314V3.68264ZM15.3748 3.29092C15.9353 3.32726 16.4706 3.42382 16.9797 3.5806C17.0144 3.59155 17.0495 3.6025 17.0842 3.61395C16.9435 3.17146 16.7336 2.77029 16.4543 2.4164C16.3107 2.23422 16.1503 2.06549 15.974 1.91069C15.8987 2.04907 15.8244 2.1964 15.7521 2.35318C15.6209 2.63839 15.4946 2.95146 15.3748 3.29142V3.29092ZM12.2185 1.79024C12.4646 1.86241 12.7047 1.95151 12.9365 2.05802C13.6174 2.3706 14.2651 2.78323 14.8563 3.274C15.0911 2.58563 15.3347 2.03811 15.5783 1.60409C14.223 0.6773 12.1472 0.396078 9.5806 0.81368C7.80139 1.10336 6.452 1.81065 5.61761 2.88029C5.99841 2.53137 6.45695 2.23223 6.99473 1.98088C7.97272 1.52395 9.09383 1.31739 10.2367 1.38309C10.926 1.42291 11.5945 1.56128 12.218 1.79024H12.2185Z" fill="white" />
</svg>