<svg width="32" height="30" viewBox="0 0 32 30" fill="none" xmlns="http://www.w3.org/2000/svg">
<path d="M30.5294 18.3084C30.6041 18.0567 30.6931 17.8079 30.7493 17.5523C30.7936 17.3503 30.8827 17.1865 31.0334 17.0493C31.0781 17.0087 31.116 16.9607 31.1714 16.8997C31.2155 17.0888 31.3339 17.2322 31.2797 17.4388C30.7858 19.3188 29.9623 21.0408 28.8123 22.6113C28.5686 22.944 28.3637 23.3044 28.122 23.6388C25.9077 26.7043 22.9568 28.6919 19.2695 29.592C18.004 29.9011 16.7156 30.035 15.4139 29.9922C11.7533 29.8716 8.52837 28.626 5.78297 26.2132C3.3759 24.0978 1.82295 21.4611 1.09052 18.3506C0.783194 17.046 0.654651 15.722 0.723816 14.3831C0.939141 10.2285 2.57626 6.72417 5.65084 3.90523C7.66674 2.05674 10.0431 0.878048 12.7279 0.31627C13.8632 0.0785198 15.0119 -0.0307869 16.1708 0.00748668C19.8316 0.12847 23.0566 1.37333 25.802 3.78586C28.212 5.90356 29.7656 8.54281 30.4977 11.6566C30.8037 12.9582 30.9209 14.2793 30.8651 15.6156C30.8279 16.5083 30.7108 17.3902 30.5183 18.2623C30.5153 18.2763 30.5127 18.2899 30.5098 18.3039C30.5166 18.3055 30.5228 18.3071 30.5294 18.3084ZM30.4018 15.0052C30.4142 7.00214 23.8618 0.491744 15.8269 0.474554C7.75809 0.457039 1.19655 6.97619 1.18252 14.9731C1.16849 22.9927 7.72644 29.5154 15.7727 29.5258C23.838 29.5365 30.4096 23.0125 30.4018 15.0052Z" fill="white"/>
<path d="M15.766 0.792482C23.7686 0.78859 30.2694 7.27726 30.1715 15.2933C30.0763 23.1112 23.6736 29.4756 15.6857 29.4334C7.73436 29.3913 1.3056 22.9665 1.36367 15.0072C1.42142 7.08589 7.8903 0.790212 15.766 0.792482ZM15.7784 1.2443C8.10465 1.21836 1.84783 7.44235 1.81357 15.0474C1.77899 22.72 8.05702 28.9651 15.7262 28.9861C23.4348 29.0076 29.7181 22.7612 29.7223 15.1211C29.7262 7.47965 23.457 1.22874 15.7784 1.2443Z" fill="white"/>
<path d="M15.7175 28.892C7.93547 28.8398 1.91942 22.6304 1.92725 15.1612C1.93541 7.6625 7.99648 1.46154 15.726 1.46802C23.5381 1.47451 29.5975 7.80846 29.5026 15.3496C29.4102 22.6842 23.4744 28.8349 15.7175 28.892ZM29.068 15.1764C29.0856 7.8902 23.1152 1.91336 15.7488 1.89617C8.33578 1.87865 2.36965 7.88338 2.35888 15.1541C2.34812 22.4186 8.28391 28.4483 15.7087 28.4522C23.1175 28.4561 29.0837 22.4533 29.068 15.1764Z" fill="white"/>
<path d="M15.6862 28.3686C8.40133 28.3679 2.51513 22.5072 2.52491 15.2492C2.5347 8.00609 8.46169 2.12688 15.8033 2.18624C23.0578 2.24494 28.9316 8.12285 28.8588 15.4101C28.7867 22.6331 22.8816 28.3728 15.6862 28.3686ZM15.694 2.59849C8.68027 2.58195 2.94643 8.27108 2.93566 15.2576C2.9249 22.2451 8.64243 27.9537 15.6813 27.9589C22.7377 27.9641 28.4429 22.2471 28.4481 15.2875C28.4533 8.30222 22.726 2.58422 15.694 2.59849Z" fill="white"/>
<path d="M28.2668 15.2686C28.2883 22.0453 22.7887 27.8363 15.6151 27.8317C8.55672 27.8272 2.93837 22.1439 2.98862 15.1694C3.03788 8.34045 8.55705 2.68635 15.6487 2.699C22.8739 2.71197 28.2942 8.55258 28.2668 15.2686ZM15.6341 3.09243C8.85752 3.08465 3.38599 8.5795 3.38436 15.2608C3.38273 21.9655 8.87482 27.4266 15.608 27.4393C22.3055 27.4519 27.8697 22.0515 27.8756 15.2693C27.8808 8.55161 22.3894 3.09276 15.6341 3.09243Z" fill="white"/>
<path d="M15.6066 27.1731C8.92595 27.1731 3.53206 21.799 3.53369 15.1449C3.53532 8.53522 8.95858 3.15032 15.6232 3.16654C22.4131 3.18308 27.7666 8.68345 27.6808 15.3236C27.5963 21.9024 22.2141 27.1751 15.6066 27.1731ZM3.91671 15.1685C3.90138 21.5761 9.1677 26.7966 15.6066 26.7975C22.0441 26.7985 27.2977 21.5829 27.3036 15.1812C27.3095 8.77329 22.0601 3.55349 15.6281 3.54311C9.17847 3.53306 3.90301 8.75772 3.91671 15.1685Z" fill="white"/>
<path d="M15.5698 3.62207C22.117 3.66975 27.1735 8.91939 27.12 15.2167C27.0665 21.4686 21.9937 26.6183 15.5414 26.6066C9.09895 26.595 3.99967 21.4228 4.0088 15.1006C4.01761 8.82468 9.07872 3.66294 15.5698 3.62207ZM15.5636 3.99183C9.35114 3.98826 4.37746 9.03291 4.37029 15.1045C4.36311 21.211 9.36158 26.2271 15.5254 26.2476C21.7173 26.2683 26.7576 21.2513 26.7582 15.1204C26.7589 9.02091 21.7656 3.98664 15.5636 3.99183Z" fill="white"/>
<path d="M4.50537 15.0255C4.50733 8.95911 9.45524 4.04712 15.5718 4.06106C21.7049 4.07501 26.6209 9.02949 26.5811 15.1056C26.5413 21.1804 21.5562 26.0589 15.4429 26.0051C9.43762 25.9519 4.51809 21.1184 4.50537 15.0255ZM6.90722 8.78136C8.36393 7.35389 10.0686 6.81352 12.0258 7.38211C13.9813 7.95037 15.1202 9.31849 15.5564 11.2224C15.9903 9.34119 17.1104 7.97632 19.0405 7.3954C20.966 6.81611 22.6641 7.31756 24.1127 8.68503C19.7983 2.90897 11.0937 3.02508 6.90722 8.78136ZM4.85642 14.6635C4.79769 17.4935 5.67759 19.9696 7.547 22.0746C9.32702 24.0788 11.5801 25.2218 14.2377 25.5825C12.9853 25.2192 12.1961 24.5549 11.6865 23.9487C11.0108 23.145 10.6092 22.2154 10.5403 21.1713C10.4206 19.3633 11.0956 17.8918 12.5112 16.7692C12.3435 16.8233 12.1641 16.8859 11.9824 16.9395C11.6163 17.0475 11.2431 17.1159 10.8601 17.1205C10.6601 17.123 10.4601 17.1237 10.2604 17.1198C10.1286 17.1172 9.99322 17.1224 9.86598 17.0942C9.60433 17.0364 9.34235 16.9719 9.08886 16.8863C8.81676 16.7945 8.55413 16.6751 8.28693 16.5687C7.29513 16.1746 6.35619 15.6816 5.47107 15.0881C5.27108 14.9548 5.07533 14.8153 4.85642 14.6635ZM17.5818 25.4573C20.046 25.0139 22.7441 23.5105 24.4813 20.8628C25.7139 18.9845 26.3005 16.9207 26.2281 14.6576C26.1847 14.6872 26.1586 14.705 26.1322 14.7228C25.88 14.8944 25.6301 15.0693 25.3753 15.2373C24.4719 15.8341 23.481 16.2619 22.4997 16.7085C21.9927 16.9395 21.458 17.0754 20.9046 17.1153C20.5755 17.1389 20.2411 17.1266 19.9119 17.0977C19.5507 17.0663 19.1974 16.9768 18.8548 16.8542C18.724 16.8071 18.5948 16.7562 18.4499 16.7014C19.6985 17.6336 20.412 18.8587 20.5226 20.3873C20.6329 21.9134 20.1181 23.2345 19.0297 24.3292C19.0623 24.3211 19.0887 24.3097 19.1145 24.2971C19.8212 23.9487 20.5034 23.5572 21.1334 23.0846C21.3369 22.9322 21.5653 22.9604 21.7819 22.9014C21.7859 22.9199 21.7894 22.926 21.7881 22.9303C21.7549 23.0263 21.7252 23.1236 21.6857 23.217C21.6664 23.2627 21.6364 23.3114 21.5976 23.3399C20.4326 24.1972 19.171 24.877 17.8089 25.372C17.7332 25.3999 17.6575 25.4291 17.5818 25.4573ZM15.5515 13.0051C15.4514 13.6356 15.2243 14.2055 14.8997 14.7384C14.5738 15.2733 14.1565 15.7277 13.6622 16.1192C14.9568 15.6398 16.2409 15.658 17.5214 16.1714C16.4637 15.3654 15.8116 14.3151 15.5515 13.0051ZM10.616 16.6365C13.0972 16.6673 15.0253 14.6236 15.131 12.4086C15.2635 9.63181 13.0335 7.75349 10.8757 7.66591C9.49439 7.6098 8.31336 8.06552 7.3568 9.05187C6.59239 9.84005 6.16729 10.7933 6.11215 11.8932C6.04201 13.284 6.52323 14.4689 7.53656 15.4218C8.3946 16.2295 9.43566 16.6193 10.616 16.6365ZM15.5287 25.2341C18.0046 25.2711 19.9416 23.2377 20.0407 21.0085C20.1008 19.6627 19.6564 18.5041 18.6963 17.5577C17.8901 16.763 16.9071 16.3232 15.7691 16.27C13.0189 16.1412 11.1289 18.327 11.017 20.4976C10.8761 23.2312 13.1611 25.298 15.5287 25.2341ZM4.88415 14.2778C4.93211 14.2856 4.97223 14.2902 5.01138 14.2986C5.10893 14.3197 5.20616 14.3249 5.29751 14.3862C5.7138 14.6651 6.13629 14.935 6.55748 15.2071C6.60251 15.2363 6.65177 15.2593 6.69908 15.2853C5.62441 13.8361 5.3347 12.2597 5.86746 10.5384C5.30273 11.7193 4.96734 12.9593 4.88415 14.2778ZM20.4972 16.6485C20.7298 16.6274 20.9689 16.6323 21.194 16.5791C21.5301 16.4993 21.8557 16.3774 22.1865 16.2752C22.7111 16.113 23.1548 15.8162 23.5535 15.4513C24.0285 15.0167 24.389 14.5003 24.648 13.9107C24.8497 13.4514 24.974 12.9733 24.9978 12.4757C25.0125 12.1686 24.9886 11.8585 24.9658 11.5507C24.9306 11.0791 24.772 10.6405 24.5688 10.2173C24.3065 9.67074 23.9476 9.19718 23.4908 8.79336C23.1134 8.4596 22.6909 8.20272 22.2302 8.00357C21.7826 7.81025 21.3128 7.69705 20.827 7.67046C20.4084 7.64743 19.9885 7.66105 19.5755 7.74765C19.1214 7.84301 18.694 8.00908 18.2885 8.23353C17.7576 8.52707 17.3064 8.91175 16.9329 9.38693C16.6712 9.72004 16.4683 10.0862 16.3026 10.4755C16.1186 10.9072 16.0168 11.357 15.99 11.8215C15.975 12.0826 15.9926 12.3463 16.0054 12.6084C16.0197 12.9003 16.0778 13.1857 16.1698 13.4634C16.3717 14.0712 16.6719 14.6236 17.0993 15.1075C17.4484 15.5029 17.8516 15.8299 18.3139 16.0803C18.9925 16.4484 19.7145 16.6592 20.4972 16.6485ZM24.4187 15.2519C24.451 15.236 24.4719 15.2279 24.4901 15.2162C24.9247 14.9385 25.3619 14.6648 25.7912 14.3794C25.8878 14.3151 25.9853 14.2681 26.094 14.2678C26.2069 14.2671 26.2059 14.2152 26.199 14.1319C26.1103 13.0521 25.8565 12.0126 25.4405 11.0116C25.4062 10.9295 25.3697 10.8485 25.3341 10.7667C25.7328 12.4008 25.4503 13.8932 24.4187 15.2519Z" fill="white"/>
<path d="M10.6192 16.5065C8.279 16.5652 6.05398 14.5467 6.1959 11.8514C6.30813 9.7246 8.15862 7.58841 10.8792 7.71588C13.0031 7.81546 15.1821 9.6581 15.0418 12.382C14.9309 14.5422 13.0608 16.5435 10.6192 16.5065ZM10.6159 16.0167C12.7724 16.0777 14.4552 14.2315 14.5538 12.358C14.6807 9.94386 12.7108 8.29323 10.8606 8.20176C8.42842 8.08143 6.79293 10.0321 6.68462 11.8637C6.54433 14.2399 8.56317 16.0952 10.6159 16.0167Z" fill="white"/>
<path d="M15.533 25.1065C13.2095 25.1859 10.9593 23.148 11.1065 20.453C11.2223 18.3295 13.0692 16.202 15.7653 16.3188C17.9228 16.4122 20.0871 18.2594 19.9524 20.982C19.8454 23.1506 17.9639 25.1535 15.533 25.1065ZM15.5258 24.6187C17.6843 24.6838 19.3681 22.8393 19.4643 20.9613C19.5883 18.5406 17.6295 16.8932 15.7591 16.8047C13.3259 16.6895 11.6996 18.6486 11.5945 20.4793C11.4588 22.838 13.4757 24.7059 15.5258 24.6187Z" fill="white"/>
<path d="M20.4935 16.5067C18.1569 16.568 15.9266 14.5447 16.0695 11.8506C16.1817 9.73063 18.0348 7.5766 20.746 7.71964C21.8177 7.7764 22.7505 8.17211 23.5246 8.90126C24.523 9.84123 24.9765 11.0099 24.9148 12.3777C24.8169 14.545 22.939 16.541 20.4935 16.5067ZM20.4944 16.0169C22.6509 16.0737 24.3246 14.2339 24.4271 12.3696C24.5608 9.93335 22.5713 8.29148 20.7277 8.20163C18.3046 8.08357 16.6682 10.0404 16.5589 11.861C16.416 14.2359 18.4423 16.1006 20.4944 16.0169Z" fill="white"/>
<path d="M14.4192 12.0797C14.5008 14.0962 12.6796 16.0329 10.3453 15.9009C8.51113 15.7971 6.62703 14.1922 6.73861 11.8585C6.8267 10.0181 8.45795 8.13949 10.8115 8.25561C12.7005 8.3487 14.4825 9.99122 14.4192 12.0797ZM7.85863 12.5056C7.86319 12.4339 7.87102 12.3622 7.872 12.2906C7.87396 12.1287 7.87266 11.9672 7.87266 11.8053C7.86809 11.8053 7.86352 11.8056 7.85895 11.8056C7.85895 12.0389 7.85895 12.2721 7.85863 12.5056C7.8645 12.5413 7.86907 12.5773 7.87624 12.613C7.98064 13.1498 8.21522 13.624 8.59106 14.0223C9.03704 14.4945 9.57829 14.801 10.2324 14.8782C10.5737 14.9185 10.9221 14.9305 11.2572 14.8507C11.8927 14.6995 12.4281 14.3726 12.8323 13.8555C13.1416 13.4602 13.3566 13.0194 13.4059 12.5134C13.4385 12.1783 13.4499 11.8394 13.3723 11.5105C13.2548 11.0129 13.0117 10.576 12.6565 10.2043C12.2712 9.80115 11.7987 9.54848 11.2595 9.41484C11.1906 9.39798 11.1192 9.39279 11.0487 9.38208C11.5935 9.49107 12.0754 9.72103 12.4796 10.0989C13.1902 10.7635 13.4329 11.5955 13.3125 12.5374C13.244 13.0722 13.0042 13.5438 12.633 13.936C11.8757 14.7355 10.9414 14.9723 9.8817 14.7268C9.34078 14.6016 8.89414 14.3012 8.52874 13.8844C8.19891 13.5078 7.99206 13.0726 7.89876 12.5825C7.89354 12.5552 7.87233 12.5312 7.85863 12.5056ZM10.6037 14.3165C11.8239 14.3985 12.7932 13.26 12.8512 12.2549C12.9348 10.8044 11.7064 9.91337 10.7574 9.85953C9.32088 9.77812 8.36007 10.9837 8.36627 11.9399C8.22468 13.3502 9.52903 14.4228 10.6037 14.3165ZM13.9086 12.3807C14.0476 11.2348 13.5259 9.87121 12.1785 9.1372C10.9942 8.49206 9.4057 8.61337 8.3069 9.61951C7.26518 10.5734 6.85182 12.2052 7.61883 13.6415C8.2436 14.8114 9.50162 15.549 10.9802 15.3852C9.94663 15.4737 9.05074 15.1711 8.3157 14.4446C7.57512 13.7128 7.27725 12.8131 7.3699 11.7888C7.50562 10.289 8.73232 9.02562 10.2941 8.88161C11.264 8.79241 12.1371 9.04995 12.8584 9.71682C13.6333 10.4327 13.9934 11.3217 13.9086 12.3807ZM10.9684 9.38176C10.9684 9.37884 10.9684 9.37592 10.9684 9.373C10.7531 9.373 10.5378 9.373 10.3225 9.373C10.3225 9.37592 10.3225 9.37884 10.3225 9.38176C10.5378 9.38176 10.7531 9.38176 10.9684 9.38176Z" fill="white"/>
<path d="M15.4947 24.4919C13.4978 24.583 11.5262 22.7907 11.6479 20.4644C11.7448 18.614 13.3748 16.7525 15.7009 16.857C17.571 16.941 19.4466 18.5673 19.339 20.8932C19.2515 22.7842 17.5795 24.56 15.4947 24.4919ZM15.9114 17.9689C15.6876 17.9689 15.4634 17.9689 15.2396 17.9689C15.4474 17.989 15.6556 17.9893 15.8634 17.988C15.8794 17.988 15.8954 17.9757 15.9114 17.9689C15.9861 17.9919 16.0598 18.0188 16.1355 18.0376C16.9694 18.2481 17.5834 18.7317 17.9788 19.492C18.231 19.9769 18.2819 20.4962 18.2349 21.0262C18.1834 21.6068 17.9397 22.1138 17.5429 22.538C16.802 23.3301 15.8729 23.586 14.8367 23.3366C13.7956 23.0858 13.1409 22.395 12.8502 21.3684C12.8319 21.3035 12.8175 21.2377 12.8012 21.1725C12.7898 21.191 12.7872 21.2078 12.7901 21.2241C12.8887 21.7573 13.1236 22.226 13.4939 22.6204C14.2296 23.4044 15.1506 23.6492 16.1844 23.4459C16.8089 23.3229 17.3286 22.9808 17.726 22.4796C18.0431 22.08 18.2643 21.6334 18.3158 21.118C18.3491 20.7859 18.3609 20.4498 18.2848 20.1248C18.168 19.625 17.9263 19.1836 17.5677 18.8112C17.1534 18.3808 16.6477 18.1142 16.0608 17.9977C16.0109 17.9877 15.961 17.9783 15.9114 17.9689ZM18.8434 20.3357C18.8369 20.4005 18.8258 20.4654 18.8245 20.5303C18.8215 20.6827 18.8235 20.8352 18.8235 20.9876C18.83 20.9876 18.8365 20.9876 18.8431 20.9873C18.8431 20.7703 18.8431 20.553 18.8434 20.3357C18.8385 20.3162 18.8326 20.2967 18.829 20.2773C18.8029 20.131 18.7876 19.9818 18.7488 19.8391C18.7099 19.6967 18.6457 19.5614 18.5958 19.422C18.4519 19.0217 18.2131 18.6815 17.9234 18.3746C17.6992 18.1372 17.4457 17.9322 17.1541 17.7814C16.9596 17.6808 16.758 17.591 16.5538 17.5122C16.1897 17.3717 15.8073 17.3468 15.4197 17.3493C15.0272 17.3519 14.6511 17.4197 14.2863 17.5641C13.7666 17.7697 13.3187 18.0746 12.9542 18.4976C12.5647 18.9494 12.3004 19.4641 12.198 20.0515C12.0975 20.6285 12.1148 21.2023 12.3141 21.7612C12.4822 22.2321 12.7366 22.6502 13.0874 23.0103C13.3813 23.3116 13.7203 23.5513 14.1053 23.7196C14.3189 23.813 14.5431 23.8883 14.7695 23.946C15.0967 24.0294 15.4344 24.0028 15.7688 24.0031C15.8037 24.0031 15.8386 23.9969 15.8735 23.9934C15.7678 23.9836 15.6621 23.9882 15.5571 23.9827C15.3261 23.9707 15.0899 23.9807 14.8661 23.934C14.1421 23.7835 13.5346 23.4238 13.0511 22.8646C12.6636 22.4167 12.4065 21.9023 12.3148 21.3184C12.2747 21.0638 12.2867 20.8011 12.2773 20.5419C12.2659 20.2335 12.3389 19.9383 12.4417 19.6522C12.6929 18.9536 13.1311 18.3986 13.7562 17.9899C14.4485 17.5371 15.2135 17.3935 16.0213 17.4992C16.8259 17.6046 17.4989 17.9802 18.033 18.5897C18.4476 19.0629 18.7057 19.6104 18.7997 20.2332C18.8049 20.2695 18.8287 20.3019 18.8434 20.3357ZM15.5055 22.9224C16.7303 23.0015 17.6966 21.8776 17.7596 20.8751C17.8529 19.3869 16.5971 18.518 15.6748 18.4632C14.2253 18.3775 13.3193 19.5948 13.2616 20.5527C13.1764 21.9561 14.4292 23.0187 15.5055 22.9224ZM12.7839 20.4664C12.7807 20.466 12.7777 20.466 12.7745 20.4657C12.7745 20.672 12.7745 20.8783 12.7745 21.0846C12.7777 21.0846 12.7807 21.0843 12.7839 21.0843C12.7839 20.8783 12.7839 20.6723 12.7839 20.4664Z" fill="white"/>
<path d="M24.2957 12.0783C24.3659 14.0958 22.5627 16.0335 20.212 15.9005C18.4066 15.7986 16.4944 14.2077 16.6132 11.8461C16.7048 10.0249 18.3302 8.13745 20.6844 8.25551C22.5826 8.35087 24.3469 9.99112 24.2957 12.0783ZM20.889 9.37907C20.6603 9.37907 20.4319 9.37907 20.2032 9.37907C20.4319 9.37907 20.6606 9.37907 20.8893 9.37907C20.9037 9.38685 20.9174 9.3995 20.9327 9.4021C21.2903 9.4621 21.624 9.586 21.9307 9.77802C22.4886 10.1273 22.8671 10.6174 23.0873 11.2334C23.2328 11.6408 23.2377 12.0654 23.191 12.4808C23.117 13.1373 22.8061 13.6917 22.3079 14.1292C21.7816 14.5914 21.1696 14.8246 20.4554 14.8129C20.0153 14.8058 19.6052 14.7224 19.218 14.5223C18.6418 14.2249 18.2183 13.7802 17.9612 13.1879C17.8715 12.9813 17.8154 12.7598 17.744 12.5454C17.7534 12.5584 17.7505 12.5759 17.7511 12.5934C17.7521 12.6106 17.7564 12.6278 17.7596 12.645C17.8066 12.8895 17.8882 13.1211 17.9981 13.3459C18.1609 13.6793 18.3782 13.9712 18.6571 14.2122C19.0728 14.5713 19.5465 14.8285 20.1034 14.8746C20.4137 14.9002 20.7301 14.8869 21.0414 14.8619C21.3095 14.8405 21.5552 14.7241 21.7937 14.6024C22.3888 14.2988 22.8093 13.8318 23.0821 13.2298C23.1835 13.006 23.2573 12.7734 23.2768 12.5256C23.3036 12.1873 23.3232 11.8461 23.2465 11.5156C23.1303 11.0154 22.8879 10.5733 22.5265 10.2032C22.0769 9.74234 21.534 9.45886 20.889 9.37907ZM20.474 14.3164C21.7017 14.3945 22.6592 13.2781 22.7137 12.3271C22.7535 11.634 22.5826 11.0235 22.0847 10.5276C21.6841 10.1286 21.2029 9.91003 20.6238 9.86559C19.1981 9.75661 18.2239 10.9856 18.2415 11.9453C18.0976 13.3644 19.417 14.4237 20.474 14.3164ZM23.7848 12.4572C24.0233 10.3897 22.3366 8.63273 20.2483 8.74107C18.7061 8.82086 16.696 10.2908 17.1769 12.7874C17.4758 14.3387 18.987 15.6024 20.8541 15.3835C19.8166 15.4723 18.9185 15.1681 18.1808 14.4367C17.4405 13.7024 17.1492 12.7994 17.2435 11.7777C17.3883 10.2081 18.7312 8.95676 20.274 8.87438C21.2237 8.82378 22.0596 9.0891 22.7522 9.73553C23.5375 10.4686 23.8768 11.3836 23.7848 12.4572ZM17.7374 12.4611C17.7404 12.4637 17.7436 12.4663 17.7466 12.4688C17.7466 12.2457 17.7466 12.0225 17.7466 11.7994C17.7436 11.7994 17.7404 11.7994 17.7374 11.7994C17.7374 12.0199 17.7374 12.2405 17.7374 12.4611Z" fill="white"/>
</svg>
