<?xml version='1.0' encoding='utf-8'?>
<svg xmlns="http://www.w3.org/2000/svg" width="321" height="323" viewBox="0 0 321 323" fill="none">
<path d="M203.63 55.4044C205.627 56.6261 208.636 57.7904 212.511 58.7931C220.234 60.7916 231 62.0478 242.96 62.0478C254.921 62.0478 265.687 60.7916 273.41 58.7931C277.285 57.7904 280.294 56.6261 282.291 55.4044C284.39 54.1199 284.872 53.0958 284.872 52.5239C284.872 51.952 284.39 50.9279 282.291 49.6434C280.294 48.4216 277.285 47.2574 273.41 46.2547C265.687 44.2562 254.921 43 242.96 43C235.578 43 228.292 43 214.73 44.315H206.023C215.117 40.21 230.316 39.4353 242.96 39.4353C255.132 39.4353 266.212 40.7101 274.303 42.8037C278.335 43.847 281.726 45.119 284.151 46.6026C286.473 48.0234 288.437 49.9737 288.437 52.5239C288.437 55.0741 286.473 57.0244 284.151 58.4452C281.726 59.9288 278.335 61.2008 274.303 62.2441C266.212 64.3377 255.132 65.6125 242.96 65.6125C230.789 65.6125 219.709 64.3377 211.618 62.2441C207.586 61.2008 204.195 59.9288 201.77 58.4452C199.448 57.0244 197.469 54.9108 197.469 52.3606H201.206C201.158 53.3102 201.87 54.3276 203.63 55.4044Z" fill="#436DAD" />
<path d="M195.733 128.948L30.4888 133.132" stroke="#0E336C" stroke-width="5" stroke-linecap="round" stroke-dasharray="10 10" />
<path fill-rule="evenodd" clip-rule="evenodd" d="M186.206 52.3594L232.942 52.3589C235.157 52.3589 236.952 54.1543 236.952 56.3691V294.961H236.967V307.474C236.967 309.692 235.168 311.488 232.95 311.485L84.1627 311.236L84.1489 319.257L232.936 319.505C239.589 319.517 244.988 314.127 244.988 307.474V292.264H244.973V56.3691C244.973 49.7247 239.586 44.3383 232.942 44.3384L186.206 44.3389C177.51 44.339 170.352 48.2878 164.475 53.5529C158.644 58.7768 153.801 65.5405 149.675 71.6982C144.659 79.1863 136.453 83.1858 125.772 85.1137C115.038 87.051 102.431 86.785 89.3245 86.2379C87.7269 86.1712 86.121 86.1003 84.5111 86.0291C73.113 85.5255 61.5168 85.013 51.2601 85.9461C39.6066 87.0063 28.6871 89.9964 21.509 97.9072C17.3261 102.517 14.7304 106.84 13.6798 111.089C12.5992 115.461 13.2427 119.393 14.875 122.947C16.4489 126.375 18.9346 129.435 21.4888 132.244C22.633 133.502 23.8478 134.769 25.0472 136.021L25.0474 136.021L25.5041 136.498C26.8664 137.92 28.2142 139.338 29.5228 140.809C34.7489 146.684 39.01 153.045 39.5741 161.689C40.1431 170.406 36.9968 182.25 25.4784 199.078C9.96198 221.746 -0.516889 248.264 1.99211 271.224C3.26032 282.83 7.85757 293.53 16.7598 302.167C25.6216 310.765 38.4814 317.061 55.8623 320.406L57.3783 312.53C41.0755 309.392 29.7934 303.637 22.3448 296.411C14.9367 289.224 11.055 280.326 9.96516 270.353C7.75811 250.156 17.0468 225.595 32.097 203.608C44.1417 186.011 48.3095 172.38 47.5776 161.166C46.8409 149.879 41.1861 141.853 35.5154 135.478C34.0998 133.887 32.6621 132.376 31.2969 130.95L30.8389 130.472L30.8384 130.472C29.6289 129.21 28.4912 128.023 27.4226 126.848C24.9922 124.175 23.2023 121.862 22.1638 119.601C21.1837 117.466 20.8782 115.392 21.4659 113.014C22.0838 110.515 23.7739 107.347 27.4487 103.297C32.5492 97.6758 40.9034 94.9419 51.9867 93.9336C61.6604 93.0536 72.6556 93.537 84.1316 94.0415C85.7424 94.1123 87.3626 94.1835 88.99 94.2514C102.014 94.7951 115.469 95.1235 127.196 93.0067C138.976 90.8805 149.629 86.1774 156.339 76.1623C160.432 70.0533 164.805 64.0265 169.827 59.5266C174.804 55.0679 180.137 52.3595 186.206 52.3594Z" fill="url(#paint0_linear_605_2111)" />
<path d="M203.63 55.4044C205.627 56.6261 208.636 57.7904 212.511 58.7931C220.234 60.7916 231 62.0478 242.96 62.0478C254.921 62.0478 265.687 60.7916 273.41 58.7931C277.285 57.7904 280.294 56.6261 282.291 55.4044C284.39 54.1199 284.872 53.0958 284.872 52.5239C284.872 51.952 284.39 50.9279 282.291 49.6434C280.294 48.4216 277.285 47.2574 273.41 46.2547C265.687 44.2562 254.921 43 242.96 43C235.578 43 228.292 43 214.73 44.315H206.023C215.117 40.21 230.316 39.4353 242.96 39.4353C255.132 39.4353 266.212 40.7101 274.303 42.8037C278.335 43.847 281.726 45.119 284.151 46.6026C286.473 48.0234 288.437 49.9737 288.437 52.5239C288.437 55.0741 286.473 57.0244 284.151 58.4452C281.726 59.9288 278.335 61.2008 274.303 62.2441C266.212 64.3377 255.132 65.6125 242.96 65.6125C230.789 65.6125 219.709 64.3377 211.618 62.2441C207.586 61.2008 204.195 59.9288 201.77 58.4452C199.448 57.0244 197.469 54.9108 197.469 52.3606H201.206C201.158 53.3102 201.87 54.3276 203.63 55.4044Z" fill="#436DAD" />
<path d="M168.246 270.27C168.246 270.27 168.246 270.278 168.251 270.292C168.256 270.308 168.268 270.341 168.301 270.393C168.367 270.499 168.514 270.68 168.821 270.924C169.457 271.43 170.57 272.047 172.309 272.716C175.776 274.051 181.022 275.331 187.795 276.434C201.283 278.631 220.082 280.011 240.962 280.011C261.842 280.011 280.641 278.631 294.129 276.434C300.902 275.331 306.148 274.051 309.615 272.716C311.354 272.047 312.468 271.43 313.103 270.924C313.41 270.68 313.557 270.499 313.623 270.393C313.656 270.341 313.668 270.308 313.673 270.292C313.676 270.282 313.677 270.276 313.678 270.273L313.678 270.27C313.678 270.27 313.678 270.262 313.673 270.247C313.668 270.231 313.656 270.198 313.623 270.147C313.557 270.04 313.41 269.86 313.103 269.616C312.468 269.11 311.354 268.493 309.615 267.823C306.148 266.488 300.902 265.209 294.129 264.106C281.616 262.068 264.127 260.733 245.052 260.55V255.201C264.497 255.384 282.501 256.742 295.6 258.876C302.622 260.019 308.54 261.415 312.788 263.051C314.907 263.867 316.788 264.809 318.183 265.92C319.593 267.041 320.706 268.506 320.706 270.27C320.706 272.034 319.593 273.498 318.183 274.62C316.788 275.73 314.907 276.673 312.788 277.488C308.54 279.124 302.622 280.52 295.6 281.664C281.499 283.96 262.183 285.359 240.962 285.359C219.741 285.359 200.425 283.96 186.324 281.664C179.302 280.52 173.384 279.124 169.136 277.488C167.017 276.673 165.136 275.73 163.741 274.62C162.331 273.498 161.218 272.034 161.218 270.27C161.218 268.506 162.331 267.041 163.741 265.92C165.136 264.809 167.017 263.867 169.136 263.051C173.384 261.415 179.302 260.019 186.324 258.876C199.423 256.742 217.508 255.384 236.954 255.201V260.556C218.102 260.758 200.187 262.088 187.795 264.106C181.022 265.209 175.776 266.488 172.309 267.823C170.57 268.493 169.457 269.11 168.821 269.616C168.514 269.86 168.367 270.04 168.301 270.147C168.268 270.198 168.256 270.231 168.251 270.247C168.246 270.262 168.246 270.27 168.246 270.27Z" fill="#436DAD" />
<path d="M132.37 91.2289C107.985 91.2289 92.3712 75.6423 64.6678 75.6423C36.9644 75.6423 21.9424 91.2289 0.779297 91.2289" fill="url(#paint1_linear_605_2111)" />
<path d="M51.7802 91.8205H48.2691C47.319 91.8205 46.5342 91.1733 46.5342 90.4023V87.7173C46.5342 86.9324 47.319 86.2991 48.2691 86.2991H52.5788C53.5289 86.2991 54.3137 86.9462 54.3137 87.7173L53.5151 90.4023C53.5013 91.1871 52.7303 91.8205 51.7802 91.8205Z" fill="#022251" stroke="#022251" stroke-miterlimit="10" />
<path d="M75.7111 90.8156H59.9868C57.949 90.8156 59.8766 89.067 58.3345 87.9654C57.3293 87.2495 59.3396 86.9465 58.6787 85.9001C58.2794 85.2667 53.7356 85.0464 53.4878 84.3166C53.1849 83.3803 53.0059 82.389 53.0059 81.3563V80.8744C53.0059 76.1516 56.875 72.2825 61.5978 72.2825H71.5528C76.2756 72.2825 80.1447 76.1516 80.1447 80.8744V86.3958C80.1309 88.8191 78.1482 90.8156 75.7111 90.8156Z" fill="#010E22" />
<path d="M74.1551 84.6197H82.8296C83.8761 84.6197 84.716 83.6972 84.716 82.5681V81.0535C84.716 79.9245 83.8623 79.002 82.8296 79.002L73.8522 79.3049C72.8057 79.3049 71.9658 80.2274 71.9658 81.3565L72.2687 82.5681C72.2687 83.6834 73.1087 84.6197 74.1551 84.6197Z" fill="#274A7E" />
<path d="M76.4134 75.8348H53.1299C51.6841 75.8348 50.5 74.6506 50.5 73.2049L50.0869 69.2944C50.0869 67.8487 51.2711 66.6646 52.7168 66.6646H79.0157C80.4615 66.6646 81.6456 67.8487 81.6456 69.2944L80.1173 73.1911C80.131 74.6368 77.8591 75.8348 76.4134 75.8348Z" fill="#436DAD" />
<path d="M57.4667 82.3341H51.1467C49.3016 82.3341 47.8008 80.8333 47.8008 78.9882C47.8008 77.1432 49.3016 75.6423 51.1467 75.6423H57.4667C59.3117 75.6423 60.8125 77.1432 60.8125 78.9882C60.8125 80.8333 59.3117 82.3341 57.4667 82.3341Z" fill="#022251" stroke="#022251" stroke-miterlimit="10" />
<path d="M58.9264 85.7759L48.6133 86.2854C47.801 86.2854 47.1538 85.6244 47.1538 84.8258V83.8069C47.1538 82.9946 47.8147 82.3474 48.6133 82.3474H58.7061C59.5184 82.3474 60.1656 83.0083 60.1656 83.8069L60.3859 84.3164C60.3997 85.115 59.7387 85.7759 58.9264 85.7759Z" fill="#274A7E" />
<path d="M83.9862 91.3112H74.8849C73.8109 91.3112 72.9297 90.4299 72.9297 89.3559C72.9297 86.7536 75.0639 84.6194 77.6662 84.6194H83.9862C85.0602 84.6194 85.9415 85.5006 85.9415 86.5746V89.3559C85.9552 90.4299 85.074 91.3112 83.9862 91.3112Z" fill="#022251" stroke="#022251" stroke-miterlimit="10" />
<path d="M55.4424 85.2942L59.0499 84.5369C59.8898 84.5369 60.5783 85.2253 60.5783 86.0652L60.6334 90.4851C60.6334 91.325 59.9449 92.0135 59.105 92.0135H55.4424C54.6025 92.0135 53.9141 91.325 53.9141 90.4851V86.8225C53.9141 85.9826 54.6025 85.2942 55.4424 85.2942Z" fill="#022251" stroke="#022251" stroke-miterlimit="10" />
<path d="M81.0943 78.8918L74.43 79.415C73.5901 79.4563 71.6487 78.5888 71.6074 77.6112L71.5936 77.4047C71.5385 76.4271 72.1857 75.5872 73.0394 75.5459L80.9015 75.119C81.7414 75.0777 82.4849 75.835 82.54 76.8126L82.5538 77.0192C82.5951 78.0105 81.9342 78.8505 81.0943 78.8918Z" fill="#022251" />
<path d="M190.981 47.6828C183.145 47.6828 178.123 28.3657 169.208 28.3657C160.293 28.3657 155.473 47.6828 148.665 47.6828" fill="url(#paint2_linear_605_2111)" />
<path d="M188.975 0.448242C188.975 0.448242 183.01 2.24002 179.167 6.50616C175.527 10.5675 175.039 15.4821 175.039 15.4821V44.3383L193.425 2.3936C190.998 1.0455 188.975 0.448242 188.975 0.448242Z" fill="#436DAD" />
<path d="M198.784 6.50606C198.666 6.38661 198.565 6.26716 198.447 6.14771L180.702 46.6248H182.454L199.61 7.51287C199.34 7.15451 199.071 6.83029 198.784 6.50606Z" fill="#436DAD" />
<path d="M185.049 46.608H188.993H202.93V15.4652C202.93 15.4652 202.66 12.8884 201.143 9.91919L185.049 46.608Z" fill="#436DAD" />
<path d="M193.425 2.37646L175.039 44.3211V46.6078H180.701L198.447 6.13067C196.896 4.5266 195.076 3.28089 193.425 2.37646Z" fill="#436DAD" />
<path opacity="0.15" d="M193.425 2.37646L175.039 44.3211V46.6078H180.701L198.447 6.13067C196.896 4.5266 195.076 3.28089 193.425 2.37646Z" fill="#B5B5CC" />
<path d="M199.593 7.49561L182.437 46.6076H185.032L201.109 9.93584C200.722 9.1338 200.216 8.3147 199.593 7.49561Z" fill="#436DAD" />
<path opacity="0.15" d="M199.593 7.49561L182.437 46.6076H185.032L201.109 9.93584C200.722 9.1338 200.216 8.3147 199.593 7.49561Z" fill="#B5B5CC" />
<path d="M188.605 46.7954C188.588 46.7954 188.571 46.7954 188.555 46.7784C188.521 46.7613 188.487 46.7442 188.504 46.676C188.487 46.6931 188.47 46.6931 188.47 46.6931C188.437 46.6931 188.42 46.6931 188.386 46.676C188.352 46.6589 188.319 46.6419 188.352 46.5224H188.335C188.335 46.5224 188.352 46.4883 188.369 46.4542C188.403 46.3688 188.437 46.2664 188.521 46.1129C188.504 46.1129 188.487 46.1129 188.47 46.0958C188.42 46.0787 188.403 46.0617 188.437 45.9422H188.42C188.42 45.9422 188.437 45.9251 188.453 45.891C188.487 45.7886 188.538 45.6351 188.639 45.3961C188.622 45.4303 188.605 45.4644 188.588 45.4815V45.4985C188.555 45.5668 188.538 45.5668 188.521 45.5668C188.487 45.5668 188.47 45.5668 188.437 45.5497C188.386 45.5156 188.369 45.5156 188.403 45.3961C188.403 45.3961 188.42 45.3791 188.42 45.362C188.453 45.2596 188.538 45.089 188.656 44.816C188.689 44.7306 188.74 44.6453 188.774 44.5429C188.74 44.5259 188.723 44.5088 188.757 44.3893C188.757 44.3893 188.774 44.3723 188.774 44.3552C188.79 44.3211 188.79 44.287 188.807 44.2358C188.79 44.2528 188.757 44.2358 188.74 44.2187C188.706 44.2016 188.672 44.1846 188.706 44.0651H188.689C188.689 44.0651 188.706 44.048 188.706 44.031C188.723 43.9627 188.757 43.8774 188.79 43.7579C188.774 43.7579 188.774 43.7409 188.757 43.7409C188.723 43.7238 188.689 43.7068 188.723 43.5873C188.723 43.5873 188.74 43.5702 188.74 43.5532C188.74 43.5361 188.74 43.5361 188.757 43.519C188.74 43.5532 188.723 43.5873 188.706 43.6044C188.706 43.6214 188.689 43.6214 188.689 43.6385C188.622 43.7409 188.588 43.7409 188.555 43.7238C188.521 43.7068 188.487 43.6897 188.521 43.5702H188.504C188.504 43.5702 188.521 43.5532 188.538 43.519C188.571 43.3996 188.656 43.2119 188.774 42.8877C188.757 42.8877 188.74 42.8877 188.706 42.8706C188.689 42.8535 188.672 42.8535 188.656 42.8365C188.639 42.8706 188.622 42.9047 188.605 42.9389C188.605 42.9559 188.588 42.9559 188.588 42.973C188.504 43.0924 188.487 43.0754 188.437 43.0412C188.403 43.0242 188.369 43.0071 188.403 42.8877H188.386C188.386 42.8877 188.403 42.8706 188.403 42.8535C188.42 42.8023 188.453 42.717 188.487 42.6146C188.47 42.6146 188.453 42.6146 188.437 42.5976C188.403 42.5805 188.369 42.5634 188.403 42.444C188.403 42.444 188.403 42.4269 188.42 42.4099C188.437 42.3416 188.487 42.2221 188.538 42.0515C188.521 42.0686 188.504 42.0856 188.487 42.0856C188.453 42.0856 188.437 42.0856 188.403 42.0686C188.369 42.0515 188.335 42.0344 188.369 41.915H188.352C188.352 41.915 188.369 41.8979 188.386 41.8638C188.42 41.7443 188.504 41.5566 188.639 41.2495C188.555 41.3518 188.538 41.3518 188.504 41.3177C188.453 41.3007 188.437 41.2836 188.47 41.1641H188.453C188.453 41.1641 188.47 41.1471 188.47 41.13C188.504 41.0106 188.588 40.7887 188.757 40.4133C188.672 40.3621 188.672 40.3621 188.807 39.9526C188.74 40.072 188.706 40.1403 188.672 40.1744C188.639 40.2427 188.622 40.2427 188.605 40.2427C188.571 40.2597 188.538 40.2427 188.521 40.2256C188.504 40.2085 188.487 40.2085 188.47 40.1744C188.47 40.1744 188.453 40.1744 188.453 40.1915C188.42 40.1915 188.403 40.1915 188.369 40.1744C188.319 40.1573 188.302 40.1403 188.335 40.0208C188.335 40.0208 188.335 40.0037 188.352 40.0037C188.386 39.9014 188.453 39.7478 188.555 39.4577C188.538 39.4577 188.521 39.4406 188.504 39.4406C188.453 39.4236 188.437 39.4065 188.47 39.287H188.453C188.453 39.287 188.47 39.2529 188.487 39.2358C188.521 39.1335 188.588 38.9969 188.689 38.7751C188.672 38.758 188.656 38.741 188.656 38.7068C188.622 38.758 188.605 38.7922 188.588 38.8263V38.8434C188.504 38.9628 188.487 38.9457 188.437 38.9116C188.386 38.8775 188.369 38.8775 188.403 38.758C188.403 38.758 188.403 38.741 188.42 38.741C188.437 38.6898 188.47 38.6045 188.504 38.5021C188.487 38.5021 188.47 38.485 188.453 38.485C188.42 38.4679 188.386 38.4509 188.42 38.3314H188.403C188.403 38.3314 188.42 38.2973 188.437 38.2632C188.47 38.1608 188.521 38.0243 188.622 37.8024C188.605 37.8024 188.588 37.7854 188.571 37.7854C188.521 37.7512 188.504 37.7342 188.521 37.6318C188.521 37.6318 188.521 37.6318 188.521 37.6147C188.538 37.5465 188.571 37.4611 188.639 37.3246C188.639 37.3246 188.639 37.3076 188.656 37.3076C188.656 37.3076 188.656 37.3076 188.639 37.3076C188.605 37.3076 188.588 37.3076 188.555 37.2905C188.504 37.2734 188.487 37.2564 188.521 37.1369C188.538 37.0686 188.588 36.9492 188.656 36.7615C188.639 36.7956 188.622 36.8127 188.605 36.8468C188.605 36.8639 188.605 36.8639 188.588 36.8639C188.521 36.9663 188.487 36.9663 188.437 36.9321C188.386 36.898 188.369 36.898 188.403 36.7785C188.403 36.7785 188.42 36.7615 188.42 36.7444C188.47 36.6079 188.555 36.3861 188.74 35.9594C188.757 35.9424 188.757 35.9083 188.774 35.8912C188.723 35.8741 188.706 35.8571 188.74 35.7376C188.757 35.6864 188.774 35.6182 188.79 35.5328C188.706 35.6694 188.706 35.6694 188.672 35.6864C188.639 35.6864 188.622 35.6864 188.588 35.6694C188.538 35.6523 188.521 35.6352 188.555 35.5158C188.555 35.5158 188.555 35.4987 188.571 35.4987C188.605 35.3963 188.656 35.2427 188.757 34.9868C188.757 34.9868 188.757 34.9868 188.74 34.9868C188.689 34.9526 188.672 34.9526 188.706 34.8332C188.706 34.8332 188.723 34.8161 188.723 34.7991C188.74 34.7649 188.757 34.7137 188.774 34.6625C188.757 34.6625 188.757 34.6455 188.74 34.6455C188.706 34.6284 188.672 34.6114 188.689 34.5431C188.689 34.5431 188.656 34.5431 188.639 34.526C188.622 34.526 188.622 34.526 188.605 34.509C188.555 34.4748 188.538 34.4578 188.571 34.3554C188.588 34.3213 188.605 34.2701 188.639 34.2018C188.639 34.2018 188.622 34.2018 188.622 34.1847C188.588 34.1677 188.571 34.1506 188.588 34.0482H188.571L188.605 33.997C188.622 33.9117 188.672 33.8093 188.723 33.6557C188.656 33.7581 188.622 33.7581 188.571 33.724C188.538 33.7069 188.504 33.6899 188.538 33.5704H188.521C188.521 33.5704 188.538 33.5363 188.555 33.5022C188.571 33.4339 188.605 33.3486 188.656 33.2462C188.639 33.2462 188.639 33.2291 188.622 33.2291C188.571 33.195 188.555 33.1779 188.588 33.0755C188.588 33.0755 188.588 33.0755 188.605 33.0585C188.622 33.0243 188.622 32.9902 188.639 32.939C188.504 33.1779 188.504 33.1779 188.437 33.1779C188.42 33.1779 188.403 33.1779 188.386 33.1609C188.352 33.1438 188.319 33.1267 188.352 33.0073L188.369 32.9732C188.403 32.8537 188.487 32.666 188.622 32.3076C188.605 32.3076 188.605 32.3076 188.588 32.2906C188.555 32.2735 188.521 32.2564 188.555 32.137C188.538 32.137 188.538 32.1541 188.538 32.1541C188.504 32.1541 188.487 32.1541 188.453 32.137C188.42 32.1199 188.386 32.1029 188.42 31.9834C188.42 31.9834 188.437 31.9663 188.437 31.9493C188.47 31.864 188.521 31.7104 188.605 31.4885C188.571 31.5397 188.555 31.5909 188.521 31.6251C188.504 31.6421 188.504 31.6762 188.504 31.6762H188.487C188.403 31.7957 188.386 31.7786 188.335 31.7445C188.302 31.7274 188.268 31.7104 188.302 31.5909C188.302 31.5909 188.302 31.5739 188.319 31.5568C188.352 31.4373 188.437 31.2496 188.588 30.8913C188.571 30.8913 188.555 30.8913 188.538 30.8742C188.487 30.8572 188.47 30.8401 188.504 30.7206H188.487C188.487 30.7206 188.504 30.7036 188.504 30.6694V30.6524C188.47 30.6524 188.453 30.6524 188.437 30.6353C188.386 30.6012 188.386 30.5841 188.42 30.4988C188.437 30.4476 188.47 30.3793 188.504 30.277C188.521 30.2428 188.521 30.2258 188.538 30.1916C188.521 30.2087 188.521 30.2087 188.504 30.2087C188.47 30.2087 188.453 30.2087 188.42 30.1916C188.369 30.1746 188.352 30.1575 188.386 30.0381C188.386 30.0381 188.403 30.021 188.403 30.0039C188.437 29.9015 188.521 29.7138 188.639 29.4067C188.622 29.4067 188.622 29.3896 188.605 29.3896C188.555 29.3725 188.538 29.3555 188.571 29.236C188.571 29.236 188.571 29.236 188.571 29.219C188.588 29.1678 188.605 29.0824 188.656 28.963C188.605 29.0483 188.588 29.0483 188.571 29.0483C188.538 29.0483 188.521 29.0483 188.487 29.0312C188.453 29.0142 188.42 28.9971 188.453 28.8777C188.453 28.8777 188.453 28.8606 188.47 28.8435C188.504 28.7411 188.571 28.5534 188.689 28.2292C188.672 28.2292 188.656 28.2121 188.656 28.2121C188.622 28.1951 188.588 28.178 188.622 28.0586C188.622 28.0586 188.622 28.0415 188.639 28.0415C188.656 27.9562 188.706 27.8197 188.774 27.6149C188.723 27.7002 188.706 27.7002 188.689 27.7173C188.656 27.7173 188.639 27.7173 188.605 27.7002C188.555 27.6661 188.538 27.6661 188.571 27.5466C188.588 27.4954 188.605 27.4442 188.622 27.376C188.521 27.5466 188.521 27.5466 188.487 27.5637C188.453 27.5637 188.437 27.5637 188.403 27.5466C188.369 27.5296 188.335 27.5125 188.369 27.393H188.352C188.352 27.393 188.369 27.376 188.369 27.3419C188.403 27.2395 188.453 27.1029 188.555 26.864C188.487 26.9664 188.453 26.9494 188.42 26.9323C188.386 26.9152 188.352 26.8982 188.386 26.7787H188.369C188.369 26.7787 188.386 26.7446 188.403 26.7275C188.403 26.7105 188.42 26.6934 188.42 26.6763C188.386 26.7105 188.352 26.6934 188.319 26.6763C188.285 26.6593 188.251 26.6422 188.285 26.5228H188.268C188.268 26.5228 188.285 26.5057 188.302 26.4716C188.335 26.3692 188.403 26.1815 188.521 25.8914H188.504C188.47 25.8914 188.453 25.8914 188.42 25.8743C188.369 25.8402 188.352 25.8402 188.386 25.7207C188.386 25.7207 188.386 25.7037 188.403 25.7037C188.437 25.6013 188.521 25.3965 188.672 25.0552C188.656 25.0381 188.639 25.004 188.672 24.9187C188.672 24.9187 188.672 24.9187 188.672 24.9016C188.689 24.8334 188.723 24.731 188.774 24.5603C188.723 24.6457 188.689 24.6286 188.639 24.5945C188.622 24.5774 188.605 24.5603 188.588 24.5433C188.571 24.5262 188.571 24.5091 188.588 24.4409C188.605 24.3897 188.639 24.3214 188.672 24.219C188.672 24.219 188.672 24.219 188.672 24.202C188.672 24.202 188.672 24.202 188.656 24.202C188.639 24.202 188.605 24.202 188.588 24.202C188.538 24.1849 188.521 24.1678 188.538 24.0655C188.521 24.0996 188.504 24.1167 188.487 24.1508C188.437 24.219 188.437 24.219 188.403 24.2361C188.369 24.2361 188.352 24.2361 188.319 24.219C188.285 24.202 188.251 24.1849 188.285 24.0655C188.285 24.0655 188.302 24.0484 188.302 24.0313C188.352 23.9119 188.437 23.69 188.605 23.3146C188.605 23.3146 188.588 23.3146 188.588 23.2976C188.538 23.2805 188.521 23.2634 188.555 23.144C188.571 23.0587 188.622 22.9051 188.706 22.6491C188.672 22.6662 188.656 22.6491 188.622 22.632C188.588 22.615 188.555 22.5979 188.588 22.4785C188.588 22.4785 188.605 22.4614 188.605 22.4443C188.622 22.359 188.672 22.2396 188.74 22.0348C188.588 22.3249 188.504 22.4785 188.453 22.5467C188.403 22.615 188.403 22.632 188.386 22.632C188.352 22.632 188.335 22.632 188.302 22.615C188.251 22.5979 188.234 22.5808 188.268 22.4614C188.268 22.4614 188.268 22.4443 188.285 22.4443C188.319 22.3078 188.437 22.0518 188.639 21.557C188.656 21.5058 188.672 21.4716 188.689 21.4205C188.639 21.4034 188.622 21.3863 188.656 21.2669C188.672 21.1986 188.706 21.0962 188.757 20.9426C188.74 20.9768 188.723 21.0109 188.706 21.028C188.605 21.2157 188.538 21.3351 188.504 21.4034C188.437 21.5058 188.42 21.5058 188.369 21.4887C188.319 21.4546 188.285 21.4375 188.319 21.3351H188.302C188.302 21.3351 188.319 21.3181 188.335 21.2839C188.386 21.1304 188.504 20.8744 188.723 20.3966C188.706 20.3966 188.706 20.3966 188.689 20.3795C188.639 20.3454 188.622 20.3454 188.656 20.2259C188.656 20.2089 188.672 20.1747 188.672 20.1406C188.588 20.2771 188.538 20.3795 188.504 20.4478C188.487 20.4648 188.487 20.4819 188.487 20.499C188.42 20.6014 188.386 20.5843 188.335 20.5672C188.285 20.5331 188.251 20.5331 188.302 20.4136C188.302 20.4136 188.302 20.3966 188.319 20.3966C188.335 20.3454 188.369 20.2601 188.42 20.1577C188.42 20.1577 188.42 20.1577 188.403 20.1577C188.352 20.1406 188.335 20.1235 188.369 20.0041C188.369 20.0041 188.369 19.987 188.386 19.987C188.42 19.8846 188.487 19.714 188.605 19.4239C188.588 19.441 188.588 19.441 188.571 19.441C188.555 19.441 188.521 19.441 188.504 19.441C188.453 19.4239 188.42 19.4068 188.453 19.2874C188.47 19.2021 188.521 19.0826 188.605 18.8608C188.639 18.7584 188.672 18.656 188.723 18.5365C188.706 18.5365 188.689 18.5365 188.672 18.5195C188.622 18.5024 188.605 18.4853 188.622 18.3659C188.622 18.3659 188.622 18.3659 188.639 18.3488C188.656 18.3147 188.656 18.2635 188.689 18.1953C188.672 18.1953 188.639 18.1953 188.622 18.1953C188.571 18.1782 188.555 18.1611 188.588 18.0417C188.588 18.0417 188.588 18.0417 188.588 18.0246C188.605 17.9393 188.656 17.8028 188.74 17.5809C188.689 17.6833 188.622 17.7857 188.571 17.8881C188.538 17.9393 188.487 17.9563 188.42 17.9393C188.352 17.9052 188.335 17.8881 188.369 17.7857C188.369 17.7686 188.386 17.7686 188.386 17.7516C188.386 17.7345 188.403 17.7174 188.403 17.7004C188.386 17.7004 188.369 17.7004 188.352 17.6833C188.319 17.6663 188.285 17.6492 188.319 17.5297H188.302C188.302 17.5297 188.319 17.5127 188.335 17.4785C188.369 17.3762 188.437 17.2055 188.555 16.9325C188.555 16.9325 188.555 16.9325 188.538 16.9325C188.504 16.9325 188.487 16.9325 188.453 16.9154C188.42 16.8983 188.386 16.8813 188.42 16.7618C188.42 16.7618 188.437 16.7448 188.437 16.7277C188.487 16.5912 188.588 16.3352 188.79 15.8403C188.774 15.8403 188.774 15.8233 188.757 15.8233C188.74 15.8062 188.723 15.7892 188.706 15.7721C188.689 15.738 188.689 15.738 188.723 15.6526L188.706 15.6697V15.6868C188.672 15.755 188.656 15.755 188.639 15.755C188.605 15.755 188.588 15.755 188.555 15.755C188.504 15.738 188.487 15.7209 188.521 15.6014C188.521 15.6014 188.538 15.5844 188.538 15.5673C188.555 15.4991 188.588 15.4308 188.639 15.3113C188.622 15.3113 188.622 15.2943 188.605 15.2943C188.571 15.2772 188.538 15.2601 188.571 15.1407C188.571 15.1407 188.588 15.1236 188.588 15.1066C188.622 15.0212 188.656 14.8847 188.74 14.68C188.555 15.0042 188.555 15.0212 188.521 15.0212C188.487 15.0383 188.47 15.0212 188.437 15.0042C188.403 14.9871 188.369 14.9701 188.403 14.8506C188.403 14.8506 188.403 14.8335 188.42 14.8165C188.453 14.697 188.538 14.4752 188.706 14.0656C188.689 14.0656 188.656 14.0656 188.639 14.0486C188.588 14.0315 188.571 14.0144 188.605 13.895C188.622 13.8438 188.639 13.7755 188.689 13.6731C188.672 13.6731 188.672 13.6731 188.656 13.6561C188.605 13.639 188.588 13.622 188.622 13.5025C188.622 13.5025 188.622 13.4854 188.639 13.4854C188.656 13.4172 188.706 13.2977 188.757 13.1271C188.689 13.2295 188.656 13.2124 188.622 13.1953C188.571 13.1612 188.555 13.1441 188.588 13.0418C188.588 13.0418 188.588 13.0247 188.605 13.0247C188.622 12.9735 188.656 12.9052 188.689 12.8029C188.672 12.8029 188.656 12.8029 188.639 12.7858C188.605 12.7687 188.571 12.7517 188.605 12.6322H188.588C188.588 12.6322 188.605 12.6151 188.622 12.581V12.5639C188.571 12.6493 188.538 12.6322 188.504 12.6151C188.47 12.5981 188.437 12.581 188.47 12.4616H188.453C188.453 12.4616 188.47 12.4445 188.47 12.4274C188.487 12.3592 188.521 12.2568 188.588 12.1032C188.555 12.1203 188.538 12.1032 188.504 12.0861C188.453 12.0691 188.437 12.052 188.47 11.9326C188.47 11.9326 188.47 11.9155 188.487 11.9155C188.521 11.779 188.622 11.523 188.824 10.994C188.824 10.9769 188.841 10.9599 188.841 10.9258C188.824 10.9258 188.807 10.9258 188.807 10.9087C188.774 10.8916 188.74 10.8746 188.774 10.7551C188.774 10.7551 188.774 10.738 188.79 10.738C188.807 10.6868 188.824 10.6186 188.858 10.5162C188.807 10.5845 188.774 10.6527 188.757 10.6868C188.757 10.7039 188.74 10.721 188.74 10.721H188.723C188.656 10.8234 188.622 10.8063 188.571 10.7892C188.521 10.7722 188.504 10.7551 188.538 10.6357C188.538 10.6357 188.538 10.6186 188.555 10.6186C188.571 10.5503 188.605 10.4479 188.656 10.3114H188.639C188.605 10.3285 188.588 10.3114 188.555 10.2944C188.504 10.2773 188.487 10.2602 188.521 10.1408C188.521 10.1408 188.538 10.1237 188.555 10.0896C188.555 10.0725 188.571 10.0725 188.571 10.0555H188.555C188.504 10.0384 188.487 10.0213 188.521 9.90188H188.504C188.504 9.90188 188.521 9.88481 188.538 9.85069C188.555 9.78243 188.588 9.6971 188.639 9.59472C188.605 9.66298 188.588 9.66298 188.571 9.66298C188.538 9.66298 188.521 9.66298 188.487 9.64591C188.437 9.62885 188.42 9.61178 188.453 9.49233H188.437C188.437 9.49233 188.453 9.4582 188.47 9.42407C188.47 9.40701 188.487 9.38994 188.487 9.37288C188.47 9.37288 188.47 9.37288 188.453 9.35581C188.42 9.33875 188.386 9.32168 188.42 9.20223H188.403L188.42 9.1681C188.453 9.04865 188.521 8.86094 188.656 8.51965C188.639 8.51965 188.605 8.51965 188.588 8.50259C188.555 8.48552 188.521 8.46846 188.538 8.41726C188.47 8.51965 188.437 8.51965 188.386 8.48552C188.335 8.45139 188.319 8.45139 188.352 8.33194H188.335C188.335 8.33194 188.352 8.31488 188.369 8.28075C188.42 8.16129 188.504 7.93946 188.672 7.5811C188.656 7.5811 188.622 7.56403 188.622 7.52991C188.588 7.47871 188.605 7.44458 188.639 7.37633C188.706 7.22274 188.774 7.06916 188.824 6.94971H188.807C188.79 6.94971 188.774 6.93265 188.774 6.93265C188.706 7.0521 188.672 7.12036 188.639 7.17155C188.622 7.18861 188.622 7.20568 188.622 7.20568C188.588 7.27394 188.571 7.27394 188.555 7.27394C188.521 7.27394 188.504 7.27394 188.47 7.25687C188.42 7.23981 188.403 7.22274 188.437 7.10329H188.42C188.42 7.10329 188.437 7.06916 188.47 7.01797C188.487 6.98384 188.504 6.94971 188.521 6.89852C188.521 6.89852 188.521 6.89852 188.504 6.89852C188.47 6.88145 188.437 6.86439 188.47 6.74494H188.453C188.453 6.74494 188.47 6.71081 188.487 6.67668C188.504 6.62549 188.538 6.55723 188.571 6.45484C188.521 6.50603 188.487 6.48897 188.453 6.4719C188.42 6.45484 188.386 6.43778 188.42 6.31832H188.403C188.403 6.31832 188.42 6.30126 188.437 6.26713C188.487 6.13061 188.571 5.89171 188.757 5.48216C188.723 5.48216 188.706 5.48216 188.672 5.4651C188.605 5.4139 188.605 5.4139 188.74 5.00435C188.74 4.98729 188.757 4.97022 188.757 4.95316C188.706 5.05555 188.672 5.10674 188.639 5.15793C188.605 5.22619 188.588 5.22619 188.571 5.24326C188.538 5.26032 188.521 5.24326 188.487 5.22619C188.453 5.20913 188.437 5.19206 188.453 5.07261H188.437C188.437 5.07261 188.453 5.05555 188.47 5.02142C188.521 4.8849 188.605 4.646 188.774 4.20232C188.757 4.20232 188.723 4.20232 188.706 4.18525C188.672 4.16819 188.639 4.15113 188.656 4.08287C188.588 4.18525 188.555 4.18525 188.504 4.15113C188.453 4.117 188.437 4.117 188.47 3.99754C188.47 3.99754 188.487 3.98048 188.487 3.96342C188.521 3.84396 188.622 3.63919 188.774 3.26377C188.757 3.26377 188.757 3.2467 188.757 3.2467C188.723 3.21257 188.723 3.19551 188.841 2.80303C188.824 2.80303 188.824 2.82009 188.807 2.82009C188.774 2.82009 188.757 2.82009 188.723 2.82009C188.706 2.80303 188.689 2.80303 188.672 2.78596C188.656 2.82009 188.639 2.85422 188.622 2.88835V2.90541C188.555 3.0078 188.538 2.99074 188.47 2.97367C188.42 2.93954 188.403 2.92248 188.437 2.82009C188.437 2.82009 188.453 2.80303 188.47 2.7689C188.504 2.66651 188.571 2.52999 188.689 2.29109C188.689 2.27402 188.706 2.27402 188.706 2.25696C188.672 2.2399 188.656 2.22283 188.689 2.10338H188.672C188.672 2.10338 188.689 2.08631 188.706 2.05219C188.723 1.98393 188.757 1.88154 188.824 1.74502C188.79 1.81328 188.757 1.84741 188.74 1.88154C188.74 1.8986 188.723 1.91567 188.723 1.91567H188.706C188.622 2.03512 188.605 2.01806 188.555 1.98393C188.504 1.96686 188.487 1.9498 188.521 1.83035C188.521 1.83035 188.521 1.83035 188.521 1.81328C188.555 1.71089 188.605 1.54025 188.706 1.25015C188.74 1.16483 188.757 1.07951 188.79 0.994183C188.79 0.994183 188.774 0.994183 188.774 0.977118C188.723 0.942989 188.706 0.874731 188.723 0.823537C188.892 0.516376 188.976 0.34573 189.043 0.260407C189.094 0.175085 189.111 0.175085 189.144 0.175085C189.161 0.175085 189.178 0.175085 189.195 0.192149C189.229 0.209214 189.262 0.226278 189.229 0.34573C189.229 0.34573 189.229 0.362795 189.212 0.362795C189.195 0.431053 189.161 0.53344 189.111 0.669957C189.296 0.328665 189.38 0.175085 189.431 0.0897618C189.431 0.0726972 189.431 0.0726972 189.431 0.0726972C189.465 0.00443899 189.481 0.00443899 189.498 0.00443899C189.549 -0.0126256 189.599 0.0215035 189.633 0.0726972C189.633 0.0897618 189.65 0.106826 189.616 0.175085C189.616 0.175085 189.616 0.192149 189.599 0.192149C189.566 0.294536 189.481 0.482246 189.33 0.891796C189.347 0.891796 189.363 0.891796 189.38 0.90886C189.414 0.925925 189.448 0.942989 189.414 1.04538H189.431C189.414 1.06244 189.414 1.07951 189.397 1.11363C189.363 1.19896 189.296 1.33547 189.212 1.55731C189.262 1.59144 189.279 1.59144 189.245 1.71089C189.229 1.74502 189.212 1.79622 189.195 1.84741H189.212C189.245 1.88154 189.279 1.8986 189.245 2.00099C189.245 2.00099 189.245 2.00099 189.229 2.01806C189.212 2.06925 189.195 2.15457 189.161 2.27402C189.195 2.22283 189.212 2.20577 189.245 2.20577C189.262 2.20577 189.296 2.20577 189.313 2.22283C189.363 2.2399 189.38 2.25696 189.347 2.37641L189.33 2.41054C189.33 2.42761 189.33 2.42761 189.313 2.44467C189.33 2.44467 189.347 2.44467 189.363 2.46173C189.414 2.4788 189.431 2.49586 189.397 2.61532C189.397 2.61532 189.38 2.63238 189.38 2.64944C189.363 2.68357 189.363 2.7177 189.347 2.75183C189.363 2.75183 189.38 2.75183 189.414 2.7689C189.465 2.78596 189.481 2.80303 189.448 2.92248C189.448 2.92248 189.431 2.93954 189.431 2.95661C189.397 3.09312 189.296 3.31496 189.127 3.74158C189.161 3.70745 189.178 3.72451 189.212 3.74158C189.245 3.75864 189.279 3.77571 189.245 3.89516C189.245 3.89516 189.245 3.89516 189.229 3.91222C189.212 3.98048 189.178 4.08287 189.127 4.23645C189.178 4.13406 189.229 4.04874 189.262 3.98048C189.397 3.74158 189.397 3.74158 189.465 3.74158C189.481 3.74158 189.498 3.74158 189.515 3.75864C189.566 3.77571 189.583 3.79277 189.549 3.91222H189.566L189.532 3.96342C189.498 4.0658 189.431 4.23645 189.313 4.52655C189.33 4.49242 189.347 4.47535 189.363 4.45829C189.38 4.40709 189.397 4.37296 189.397 4.3559H189.414C189.481 4.27058 189.498 4.27058 189.532 4.28764C189.566 4.32177 189.599 4.32177 189.566 4.44122L189.583 4.45829C189.583 4.45829 189.566 4.49242 189.532 4.56067C189.498 4.646 189.465 4.74838 189.397 4.8849C189.431 4.85077 189.465 4.85077 189.481 4.86784C189.532 4.90197 189.549 4.90197 189.515 5.02142L189.532 5.03848C189.532 5.03848 189.515 5.07261 189.481 5.14087C189.448 5.20913 189.414 5.31151 189.347 5.43097C189.397 5.44803 189.414 5.4651 189.38 5.58455C189.38 5.58455 189.38 5.60161 189.363 5.61868C189.347 5.66987 189.313 5.73813 189.279 5.82345C189.279 5.82345 189.279 5.82345 189.296 5.82345C189.33 5.84052 189.363 5.85758 189.33 5.95997C189.38 5.90877 189.397 5.92584 189.431 5.9429C189.481 5.95997 189.498 5.97703 189.465 6.09648C189.465 6.09648 189.448 6.11355 189.448 6.13061C189.414 6.233 189.33 6.40365 189.212 6.69374C189.229 6.69374 189.229 6.69374 189.245 6.71081C189.296 6.72787 189.313 6.74494 189.279 6.86439C189.279 6.86439 189.279 6.88145 189.262 6.88145C189.245 6.96678 189.195 7.08623 189.111 7.27394C189.127 7.27394 189.127 7.27394 189.144 7.291C189.195 7.32513 189.212 7.3422 189.178 7.44458C189.161 7.49578 189.127 7.5811 189.094 7.68349C189.077 7.73468 189.043 7.82 189.01 7.88826C189.111 7.70055 189.195 7.56404 189.245 7.46165C189.279 7.41045 189.296 7.35926 189.296 7.35926H189.313C189.38 7.25687 189.414 7.27394 189.448 7.291C189.498 7.30807 189.515 7.32513 189.481 7.44458H189.498C189.498 7.44458 189.481 7.47871 189.465 7.51284C189.465 7.52991 189.448 7.54697 189.448 7.56403C189.465 7.56403 189.465 7.56404 189.481 7.5811C189.515 7.59816 189.532 7.61523 189.515 7.73468H189.532C189.532 7.73468 189.515 7.76881 189.498 7.80294C189.448 7.92239 189.38 8.12717 189.229 8.46846C189.245 8.46846 189.262 8.46846 189.279 8.48552C189.33 8.51965 189.363 8.51965 189.313 8.6391C189.313 8.6391 189.313 8.65617 189.296 8.67323C189.279 8.74149 189.229 8.80975 189.178 8.9292C189.212 8.94626 189.245 8.96333 189.212 9.08278C189.212 9.08278 189.212 9.09984 189.195 9.11691C189.178 9.15104 189.161 9.20223 189.144 9.27049C189.178 9.20223 189.212 9.15104 189.229 9.11691C189.279 9.04865 189.279 9.04865 189.313 9.04865C189.347 9.04865 189.363 9.04865 189.397 9.06572C189.448 9.09984 189.465 9.09984 189.431 9.2193C189.431 9.2193 189.431 9.2193 189.431 9.23636C189.397 9.32168 189.347 9.4582 189.262 9.68004C189.245 9.73123 189.229 9.78243 189.195 9.83362C189.212 9.83362 189.212 9.83362 189.229 9.85069C189.279 9.88481 189.296 9.88482 189.279 10.0043C189.279 10.0043 189.279 10.0213 189.262 10.0384C189.229 10.1578 189.161 10.3626 189.01 10.721C189.026 10.7039 189.06 10.721 189.077 10.721C189.144 10.7551 189.161 10.7722 189.127 10.8746C189.127 10.8746 189.127 10.8746 189.127 10.8916C189.111 10.9258 189.094 10.9769 189.077 11.0452C189.161 10.9087 189.212 10.8063 189.245 10.738C189.262 10.7039 189.262 10.6868 189.262 10.6868H189.279C189.347 10.5845 189.38 10.6015 189.414 10.6186C189.465 10.6357 189.481 10.6527 189.448 10.7722H189.465C189.465 10.7722 189.448 10.7892 189.431 10.8234C189.397 10.9087 189.347 11.0281 189.262 11.2329C189.279 11.2329 189.279 11.25 189.296 11.25C189.33 11.267 189.363 11.2841 189.33 11.4036H189.347C189.347 11.4036 189.33 11.4206 189.33 11.4548C189.313 11.4889 189.296 11.523 189.279 11.5742C189.296 11.5742 189.313 11.5742 189.33 11.5913C189.38 11.6254 189.397 11.6425 189.38 11.7449C189.38 11.7449 189.38 11.7619 189.363 11.779C189.33 11.8984 189.245 12.1203 189.077 12.5469C189.094 12.5469 189.111 12.5469 189.111 12.5639C189.161 12.5981 189.178 12.5981 189.144 12.7175C189.144 12.7175 189.144 12.7175 189.127 12.7346C189.144 12.7346 189.178 12.7346 189.212 12.7517C189.245 12.7687 189.279 12.7858 189.245 12.9052L189.229 12.9394C189.195 13.0247 189.144 13.1783 189.06 13.4172C189.144 13.2807 189.195 13.1783 189.229 13.11C189.229 13.0929 189.245 13.0759 189.245 13.0759H189.262C189.33 12.9735 189.363 12.9735 189.397 13.0076C189.448 13.0418 189.465 13.0418 189.431 13.1612C189.431 13.1612 189.414 13.1783 189.414 13.1953C189.38 13.3319 189.279 13.5708 189.094 14.0315C189.077 14.0486 189.077 14.0827 189.06 14.0998C189.094 14.0998 189.144 14.1339 189.161 14.168C189.161 14.1851 189.161 14.1851 189.161 14.2021C189.178 14.1851 189.178 14.1851 189.195 14.1851C189.229 14.1851 189.245 14.1851 189.279 14.2021C189.313 14.2192 189.347 14.2363 189.313 14.3557C189.313 14.3557 189.313 14.3728 189.296 14.3899C189.279 14.4411 189.262 14.5093 189.229 14.5946C189.262 14.5946 189.279 14.5946 189.313 14.6117C189.363 14.6288 189.38 14.6458 189.347 14.7653C189.347 14.7653 189.347 14.7823 189.33 14.7823C189.296 14.8677 189.245 15.0042 189.161 15.209L189.178 15.1919C189.178 15.1748 189.195 15.1578 189.195 15.1578C189.229 15.0895 189.245 15.0895 189.262 15.0895C189.313 15.0724 189.363 15.1066 189.38 15.1578C189.397 15.1748 189.397 15.1919 189.38 15.2601C189.38 15.2601 189.38 15.2601 189.38 15.2772C189.363 15.3284 189.33 15.4137 189.262 15.5673C189.245 15.6185 189.212 15.6697 189.195 15.738C189.229 15.6868 189.245 15.6526 189.262 15.6185V15.6014C189.296 15.5332 189.313 15.5332 189.33 15.5332C189.363 15.5332 189.397 15.5332 189.414 15.5502C189.448 15.5673 189.465 15.5844 189.431 15.7038L189.448 15.7209C189.448 15.7209 189.431 15.755 189.397 15.8062C189.363 15.9086 189.296 16.0451 189.212 16.2499C189.262 16.267 189.279 16.284 189.262 16.4035C189.262 16.4035 189.262 16.4205 189.245 16.4205C189.212 16.54 189.144 16.7448 188.993 17.1373C189.01 17.1373 189.026 17.1543 189.043 17.1543C189.127 17.2226 189.127 17.2226 189.01 17.5468C189.01 17.5468 189.01 17.5468 189.01 17.5639C189.026 17.5639 189.043 17.5639 189.06 17.5809C189.094 17.598 189.127 17.6151 189.094 17.7345H189.111C189.111 17.7345 189.094 17.7516 189.094 17.7686C189.077 17.854 189.026 17.9905 188.959 18.1953C189.077 17.9734 189.094 17.9734 189.127 17.9734C189.161 17.9734 189.178 17.9734 189.212 17.9905C189.245 18.0075 189.279 18.0246 189.245 18.1441C189.245 18.1441 189.245 18.1611 189.229 18.1611C189.195 18.2806 189.111 18.4853 188.959 18.8778C188.959 18.8778 188.959 18.8778 188.976 18.8778C188.993 18.8778 189.026 18.8778 189.043 18.8949C189.077 18.912 189.111 18.929 189.077 19.0144C189.094 19.0144 189.111 19.0144 189.127 19.0314C189.178 19.0485 189.195 19.0655 189.161 19.185C189.161 19.2021 189.144 19.2362 189.144 19.2533C189.313 18.9461 189.313 18.9461 189.347 18.9461C189.38 18.9461 189.397 18.9461 189.431 18.9632C189.481 18.9802 189.498 18.9973 189.465 19.1167C189.465 19.1167 189.448 19.1338 189.448 19.1509C189.414 19.2533 189.33 19.441 189.195 19.7311C189.212 19.714 189.245 19.7311 189.262 19.7481C189.313 19.7652 189.33 19.7823 189.296 19.9017C189.296 19.9017 189.296 19.9017 189.296 19.9188C189.262 20.0382 189.178 20.2601 189.026 20.6867C189.043 20.6867 189.043 20.6867 189.06 20.7037C189.111 20.7208 189.127 20.7379 189.094 20.8573C189.094 20.8573 189.094 20.8744 189.077 20.8744C189.06 20.9256 189.043 20.9768 189.01 21.0621C189.026 21.028 189.06 20.9768 189.077 20.9426C189.178 20.772 189.229 20.6696 189.262 20.6184C189.262 20.6184 189.262 20.6184 189.262 20.6014C189.296 20.5331 189.313 20.5331 189.33 20.5331C189.347 20.5331 189.38 20.5331 189.397 20.5502C189.448 20.5843 189.481 20.5843 189.448 20.7037C189.448 20.7037 189.448 20.7037 189.448 20.7208C189.431 20.7891 189.397 20.8744 189.33 21.0109C189.262 21.1986 189.144 21.4887 189.026 21.7788C189.043 21.7788 189.043 21.7788 189.06 21.7959C189.111 21.83 189.127 21.83 189.094 21.9495C189.077 22.0348 189.043 22.1542 188.976 22.3419C189.06 22.1884 189.111 22.103 189.144 22.0518C189.178 21.9836 189.195 21.9836 189.212 21.9836C189.245 21.9836 189.262 21.9836 189.296 22.0006C189.347 22.0177 189.363 22.0348 189.33 22.1542C189.33 22.1542 189.313 22.1713 189.313 22.1884C189.296 22.2396 189.262 22.3078 189.229 22.3931C189.262 22.3761 189.279 22.3761 189.313 22.3931C189.363 22.4102 189.38 22.4273 189.347 22.5467H189.363C189.363 22.5467 189.347 22.5638 189.33 22.5979C189.296 22.6832 189.245 22.8027 189.178 23.0075C189.195 23.0075 189.195 23.0075 189.212 23.0245C189.245 23.0416 189.279 23.0586 189.245 23.1781H189.262C189.262 23.1781 189.245 23.1952 189.245 23.2122C189.229 23.2805 189.178 23.3999 189.127 23.5535C189.144 23.5535 189.161 23.5535 189.178 23.5706C189.229 23.6047 189.245 23.6047 189.212 23.7242C189.178 23.8266 189.127 24.0143 189.01 24.3726C189.01 24.3897 189.01 24.3897 188.993 24.4067C189.01 24.4067 189.026 24.4067 189.043 24.4238C189.06 24.4409 189.077 24.4409 189.094 24.4579C189.094 24.4579 189.094 24.4579 189.111 24.4579C189.144 24.4579 189.161 24.4579 189.195 24.4579C189.229 24.475 189.262 24.4921 189.229 24.6115H189.245C189.245 24.6115 189.229 24.6286 189.212 24.6627C189.178 24.7651 189.111 24.9528 188.993 25.2429H189.01C189.06 25.2258 189.111 25.26 189.144 25.3112C189.144 25.3282 189.161 25.3282 189.144 25.3453C189.178 25.2941 189.195 25.26 189.212 25.2258V25.2088C189.262 25.1405 189.262 25.1405 189.279 25.1405C189.296 25.1405 189.33 25.1405 189.363 25.1576C189.414 25.1747 189.431 25.1917 189.397 25.3112H189.414C189.414 25.3112 189.397 25.3282 189.38 25.3624C189.33 25.5159 189.212 25.7719 189.01 26.2668C188.993 26.3009 188.976 26.335 188.959 26.3692C188.959 26.3692 188.976 26.3692 188.993 26.3862C189.043 26.4204 189.06 26.4204 189.043 26.5398C189.043 26.5398 189.043 26.5398 189.043 26.5569C189.026 26.591 189.026 26.6422 188.993 26.7105C189.043 26.6251 189.06 26.5739 189.094 26.5398C189.127 26.4716 189.144 26.4716 189.161 26.4716C189.195 26.4545 189.212 26.4716 189.245 26.4886C189.279 26.5057 189.313 26.5228 189.279 26.6422C189.279 26.6422 189.279 26.6593 189.262 26.6763C189.229 26.7958 189.161 26.9835 189.043 27.3248C189.06 27.3248 189.094 27.3248 189.111 27.3419C189.161 27.376 189.195 27.376 189.144 27.4954C189.127 27.5637 189.077 27.6661 189.01 27.8367C188.993 27.8879 188.959 27.9562 188.925 28.0415C188.942 28.0415 188.959 28.0415 188.976 28.0586C189.026 28.0927 189.043 28.0927 189.026 28.2121C189.026 28.2121 189.026 28.2292 189.01 28.2292C188.993 28.2804 188.976 28.3657 188.942 28.4681C189.01 28.3657 189.043 28.2975 189.06 28.2463C189.111 28.178 189.111 28.178 189.144 28.178C189.178 28.178 189.195 28.178 189.229 28.1951C189.279 28.2121 189.296 28.2292 189.262 28.3487C189.262 28.3487 189.245 28.3657 189.245 28.3828C189.212 28.4852 189.144 28.6388 189.043 28.8777C189.06 28.8777 189.077 28.8777 189.094 28.8947C189.127 28.9118 189.161 28.9289 189.127 29.0483C189.127 29.0483 189.111 29.0654 189.111 29.0824C189.094 29.1166 189.077 29.1678 189.06 29.236C189.06 29.219 189.077 29.219 189.077 29.2019V29.1848C189.127 29.1166 189.144 29.1166 189.178 29.1166C189.195 29.1166 189.212 29.1166 189.229 29.1336C189.279 29.1678 189.313 29.1678 189.262 29.2872L189.245 29.3213C189.212 29.3896 189.161 29.5091 189.094 29.6797C189.144 29.7138 189.178 29.7309 189.144 29.8333H189.161L189.127 29.8845C189.111 29.9357 189.094 29.9869 189.06 30.0551C189.111 29.9698 189.127 29.9698 189.144 29.9527C189.178 29.9527 189.195 29.9527 189.229 29.9698C189.262 29.9869 189.296 30.0039 189.262 30.1234H189.279C189.279 30.1234 189.262 30.1404 189.262 30.1575C189.229 30.2599 189.161 30.4135 189.06 30.6694C189.127 30.5671 189.144 30.5841 189.195 30.6012C189.279 30.6524 189.262 30.7036 189.195 30.8742C189.127 31.0278 189.06 31.1814 189.01 31.3008C189.01 31.3008 189.026 31.3008 189.026 31.3179C189.077 31.352 189.094 31.3691 189.06 31.4715C189.06 31.4715 189.06 31.4885 189.043 31.4885C189.026 31.5397 189.01 31.608 188.959 31.6933C188.993 31.6592 188.993 31.6592 189.01 31.6421C189.043 31.6251 189.06 31.6421 189.094 31.6592C189.127 31.6762 189.161 31.6933 189.127 31.8128C189.127 31.8128 189.127 31.8298 189.111 31.8298C189.094 31.864 189.094 31.8981 189.077 31.9493C189.077 31.9322 189.077 31.9322 189.077 31.9322C189.111 31.864 189.127 31.864 189.144 31.864C189.178 31.864 189.195 31.864 189.229 31.881C189.279 31.8981 189.296 31.9152 189.262 32.0346C189.262 32.0346 189.245 32.0517 189.245 32.0687C189.229 32.1199 189.212 32.1711 189.178 32.2394C189.195 32.2394 189.229 32.2394 189.245 32.2564C189.296 32.2906 189.313 32.2906 189.279 32.41C189.279 32.41 189.279 32.4271 189.262 32.4271C189.229 32.5295 189.161 32.6831 189.06 32.9561C189.026 33.0414 188.993 33.1267 188.959 33.2121C188.976 33.2121 188.993 33.2121 189.01 33.2291C189.043 33.2462 189.06 33.2633 189.06 33.3144C189.077 33.3144 189.094 33.3144 189.127 33.3315C189.144 33.3486 189.161 33.3486 189.178 33.3656C189.229 33.2974 189.229 33.2974 189.245 33.2974C189.279 33.2974 189.296 33.2974 189.33 33.3144C189.38 33.3315 189.397 33.3486 189.363 33.468C189.363 33.468 189.347 33.4851 189.347 33.5192C189.296 33.6557 189.195 33.8946 188.976 34.3554C189.01 34.3724 189.01 34.4066 188.976 34.4919C188.976 34.4919 188.976 34.4919 188.976 34.509C188.959 34.5602 188.925 34.6455 188.875 34.7649C188.892 34.7649 188.908 34.782 188.925 34.782C188.976 34.8161 188.993 34.8161 188.959 34.9356C188.942 34.9868 188.925 35.055 188.908 35.1574C188.942 35.0892 188.959 35.0892 188.976 35.0892C189.01 35.0721 189.026 35.0892 189.06 35.1062C189.111 35.1233 189.127 35.1404 189.094 35.2598C189.094 35.2598 189.094 35.2769 189.077 35.2769C189.043 35.3622 188.993 35.4987 188.908 35.6864C188.925 35.6864 188.942 35.6864 188.959 35.7035C189.01 35.7205 189.026 35.7376 188.993 35.8571C188.976 35.9424 188.925 36.0618 188.858 36.2666C188.875 36.2495 188.875 36.2495 188.892 36.2495C188.925 36.2495 188.942 36.2495 188.976 36.2666C189.01 36.2837 189.043 36.3007 189.01 36.4202C189.01 36.4202 189.01 36.4373 188.993 36.4373C188.976 36.4714 188.959 36.5226 188.942 36.5738C188.976 36.5055 188.993 36.5055 189.01 36.5055C189.026 36.5055 189.06 36.5055 189.077 36.5226C189.127 36.5567 189.144 36.5567 189.111 36.6762C189.111 36.6762 189.094 36.6932 189.094 36.7103C189.06 36.8127 188.993 36.9663 188.875 37.2222C188.858 37.2564 188.841 37.2905 188.824 37.3417C188.841 37.3417 188.841 37.3417 188.858 37.3587C188.908 37.3758 188.925 37.3929 188.908 37.4953C188.925 37.4611 188.942 37.427 188.959 37.3929C188.976 37.3587 188.993 37.3246 188.993 37.3246H189.01C189.077 37.2222 189.111 37.2393 189.144 37.2564C189.161 37.2734 189.178 37.2905 189.195 37.3076C189.195 37.3246 189.212 37.3417 189.178 37.4099C189.178 37.4099 189.178 37.4099 189.178 37.427C189.178 37.4441 189.161 37.4782 189.144 37.5123C189.161 37.5123 189.178 37.5123 189.195 37.5294C189.245 37.5465 189.262 37.5635 189.229 37.683C189.229 37.683 189.212 37.7 189.195 37.7342C189.144 37.8707 189.043 38.0755 188.858 38.4679C188.858 38.485 188.841 38.485 188.841 38.5021C188.875 38.5191 188.892 38.5533 188.858 38.6386C188.858 38.6386 188.858 38.6557 188.841 38.6557C188.824 38.6898 188.807 38.741 188.79 38.7922C188.824 38.758 188.824 38.741 188.841 38.741C188.875 38.741 188.892 38.741 188.925 38.758C188.976 38.7751 188.993 38.7922 188.959 38.9116C188.959 38.9116 188.942 38.9287 188.942 38.9457C188.925 38.9799 188.925 38.9969 188.908 39.0481C188.925 39.0481 188.925 39.0481 188.942 39.0652C188.976 39.0823 189.01 39.0993 188.976 39.2188C188.976 39.2188 188.976 39.2188 188.976 39.2358C188.959 39.3212 188.908 39.4748 188.841 39.7137C188.858 39.7137 188.875 39.7307 188.908 39.7307C188.959 39.7648 188.976 39.7648 188.942 39.8672C188.976 39.816 188.993 39.7648 189.01 39.7478C189.06 39.6625 189.077 39.6625 189.111 39.6625C189.127 39.6625 189.144 39.6625 189.161 39.6795C189.195 39.6966 189.212 39.7137 189.195 39.816H189.212L189.178 39.8672C189.127 40.0208 189.01 40.2938 188.774 40.8399C188.79 40.8399 188.824 40.8399 188.841 40.857C188.892 40.8911 188.908 40.9082 188.875 41.0106C188.858 41.0618 188.824 41.13 188.79 41.2495C188.774 41.2836 188.757 41.3348 188.74 41.386C188.757 41.3518 188.774 41.3348 188.79 41.3007C188.79 41.2836 188.79 41.2836 188.807 41.2836C188.841 41.2153 188.858 41.2153 188.875 41.2153C188.908 41.2153 188.925 41.2153 188.959 41.2324C189.01 41.2665 189.026 41.2665 188.993 41.386C188.993 41.386 188.993 41.403 188.976 41.403H188.993C189.026 41.386 189.043 41.403 189.077 41.4201C189.127 41.4372 189.144 41.4542 189.111 41.5737C189.111 41.5737 189.094 41.5908 189.094 41.6078C189.094 41.6249 189.077 41.6419 189.077 41.6761C189.094 41.6761 189.094 41.6761 189.111 41.6931C189.161 41.7273 189.178 41.7273 189.144 41.8467C189.144 41.8467 189.144 41.8638 189.127 41.8638C189.094 41.9662 189.026 42.1368 188.908 42.4099H188.925C188.976 42.3928 189.026 42.4269 189.06 42.461C189.077 42.4781 189.077 42.4952 189.06 42.5634C189.06 42.5634 189.06 42.5634 189.06 42.5805C189.043 42.6658 188.976 42.8023 188.875 43.0583C188.908 43.0583 188.925 43.0754 188.942 43.1095C188.959 43.1436 188.976 43.1436 188.942 43.229C188.942 43.229 188.942 43.2119 188.959 43.2119C188.976 43.1778 188.976 43.1607 188.976 43.1607H188.993C189.06 43.0583 189.094 43.0754 189.144 43.0924C189.195 43.1266 189.212 43.1436 189.178 43.246C189.178 43.246 189.178 43.246 189.178 43.2631C189.161 43.3313 189.127 43.4167 189.06 43.5532C189.026 43.6214 188.993 43.7238 188.959 43.8262H188.976C189.026 43.8433 189.043 43.8603 189.01 43.9798C189.043 43.9627 189.06 43.9798 189.077 43.9969C189.111 44.0139 189.144 44.031 189.111 44.1504H189.127C189.127 44.1504 189.111 44.1675 189.111 44.2016C189.077 44.304 189.026 44.4576 188.925 44.7136C188.976 44.6112 189.026 44.5429 189.06 44.4747C189.077 44.4235 189.094 44.3893 189.094 44.3723H189.111C189.178 44.2699 189.212 44.287 189.245 44.304C189.296 44.3211 189.313 44.3381 189.279 44.4576H189.296C189.296 44.4576 189.279 44.4917 189.262 44.5259C189.212 44.6624 189.094 44.9183 188.892 45.362C188.875 45.3961 188.858 45.4473 188.841 45.4815H188.858C188.908 45.4985 188.925 45.5156 188.892 45.6351C188.892 45.6351 188.892 45.6351 188.875 45.6521C188.858 45.7033 188.824 45.7716 188.79 45.874C188.807 45.874 188.807 45.891 188.824 45.891C188.908 45.9251 188.908 45.9251 188.807 46.4712C188.807 46.5224 188.79 46.5565 188.79 46.6077L188.875 46.6589C188.875 46.676 188.841 46.7272 188.807 46.7954C188.689 47.0002 188.689 47.0002 188.639 47.0173C188.622 47.0173 188.588 47.0173 188.571 47.0002C188.504 46.9661 188.504 46.9661 188.555 46.6248C188.437 46.8296 188.386 46.932 188.352 47.0002C188.319 47.0685 188.302 47.0685 188.285 47.0685C188.639 46.7954 188.622 46.7954 188.605 46.7954Z" fill="#B5B5CC" />
<path d="M177.954 45.0546C177.954 48.6723 174.381 48.6041 170 48.6041C165.601 48.6041 162.045 49.2867 162.045 45.669C162.045 42.0513 166.68 35.635 171.061 35.635C175.443 35.635 177.954 41.437 177.954 45.0546Z" fill="#022251" />
<path d="M47.1265 287.501H76.9702L83.1126 322.618H47.1265V287.501Z" fill="#022251" />
<path d="M91.7841 320.462L90.0624 317.856C90.0313 317.81 90.0158 317.763 90.0003 317.732L89.5195 316.755C88.7594 315.049 88.3096 313.157 88.0614 310.752C87.7822 307.867 88.8835 304.718 87.9218 301.926C87.4875 300.67 86.9756 299.677 86.4482 298.7C85.8898 297.692 85.3314 296.73 84.8195 295.52C83.6252 292.666 83.5476 289.145 81.3916 286.865C81.2364 286.694 81.0658 286.539 80.8952 286.369H80.8797C80.0421 285.593 79.0649 284.926 78.0566 284.337L78.0411 284.321C77.3121 283.902 76.5831 283.514 75.8695 283.127L74.458 282.243L73.8686 281.762C72.5191 280.598 71.3402 279.187 69.8357 278.287C69.1376 277.868 68.2225 277.791 67.509 277.434C66.1905 276.783 64.7945 277.155 63.4295 277.62C62.685 277.868 61.9714 278.148 61.2734 278.303C58.6055 278.877 56.8217 278.861 55.2395 279.063C54.6501 279.14 54.0762 279.249 53.4868 279.42C52.8663 279.606 52.2304 279.9 51.5323 280.304H51.5168L51.5013 280.319C50.8809 280.691 50.2139 281.188 49.4538 281.824L49.4383 281.839L49.4228 281.855C49.0661 282.165 48.6938 282.491 48.2905 282.879C45.2813 285.733 44.0869 289.052 42.4272 292.651L41.6517 294.093L41.3414 294.652C40.0695 296.746 38.0841 299.801 37.7583 300.251L37.7738 300.267L37.0913 301.151C36.7191 301.632 36.3468 302.097 36.1452 302.423V302.438C36.0676 302.562 36.0211 302.655 35.99 302.717C35.959 302.811 35.9435 302.904 35.9435 302.997C35.8815 303.679 36.2382 304.455 36.4399 305.013C36.7346 305.866 36.1141 307.805 35.959 308.643C35.7264 309.899 34.7957 310.954 33.8185 311.993L30.9023 322.743H48.973C48.9264 318.43 49.0505 313.932 51.1911 310.209C51.6409 309.418 52.1838 308.674 52.5871 307.852C53.161 306.657 53.3937 305.354 53.6264 304.051C54.3709 299.941 55.0999 295.846 55.8445 291.735C55.9065 291.363 55.9686 290.975 55.8445 290.619C55.7049 290.231 55.3326 289.843 55.5187 289.471C55.7204 289.068 56.3253 289.192 56.7441 289.316C58.1246 289.735 59.5982 289.564 61.0408 289.626C62.4833 289.688 64.0344 290.06 64.9031 291.208C65.4925 291.984 65.6631 292.976 65.9423 293.907C66.3766 295.365 67.1367 296.715 68.1449 297.847C69.9132 299.863 72.3795 301.12 74.4425 302.842C74.9544 303.26 75.4662 303.788 75.4973 304.455C75.5128 304.92 75.2801 305.37 75.094 305.789C74.1633 307.914 74.2564 310.365 74.7372 312.645C75.2181 314.925 76.0402 317.112 76.5365 319.377C76.7692 320.478 76.9398 321.61 77.188 322.711H88.8835L92.7768 322.618H93.5834C93.1801 322.184 92.1254 320.897 91.7841 320.462Z" fill="#436DAD" />
<path d="M135.465 185.761C116.084 185.761 103.672 169.699 81.6674 169.699C59.6631 169.699 47.7159 185.761 30.9023 185.761" fill="url(#paint3_linear_605_2111)" />
<path d="M156.595 190.687C139.922 190.687 129.244 174.625 110.301 174.625C91.3574 174.625 81.0888 190.687 66.6167 190.687" fill="url(#paint4_linear_605_2111)" />
<mask id="mask0_605_2111" maskUnits="userSpaceOnUse" x="66" y="174" width="91" height="17">
<path d="M156.595 190.687C139.922 190.687 129.244 174.625 110.301 174.625C91.3574 174.625 81.0888 190.687 66.6167 190.687H156.595Z" fill="white" />
</mask>
<g mask="url(#mask0_605_2111)">
<g opacity="0.7">
<path d="M114.561 171.279C108.058 173.636 101.795 176.643 95.9556 180.355C90.2429 183.968 84.9393 188.344 78.5778 190.828C77.4917 191.252 77.9572 193.03 79.0715 192.607C85.1791 190.221 90.3276 186.227 95.7722 182.67C101.809 178.732 108.284 175.514 115.054 173.072C116.154 172.663 115.675 170.87 114.561 171.279Z" fill="url(#paint5_linear_605_2111)" />
<path d="M120.302 173.355C113.799 175.712 107.536 178.718 101.697 182.43C95.9841 186.044 90.6806 190.419 84.3191 192.903C83.2329 193.327 83.6984 195.105 84.8127 194.682C90.9203 192.296 96.0688 188.302 101.513 184.745C107.551 180.807 114.025 177.589 120.795 175.147C121.896 174.738 121.43 172.959 120.302 173.355Z" fill="url(#paint6_linear_605_2111)" />
<path d="M128.511 174.074C122.009 176.432 115.746 179.438 109.906 183.15C104.194 186.763 98.89 191.139 92.5285 193.623C91.4424 194.047 91.9079 195.825 93.0222 195.402C99.1298 193.016 104.278 189.022 109.723 185.465C115.76 181.527 122.234 178.309 129.005 175.867C130.105 175.444 129.626 173.665 128.511 174.074Z" fill="url(#paint7_linear_605_2111)" />
<path d="M134.252 176.149C127.749 178.506 121.487 181.512 115.647 185.225C109.934 188.838 104.631 193.213 98.2692 195.698C97.1831 196.121 97.6486 197.9 98.7629 197.476C104.871 195.091 110.019 191.096 115.464 187.539C121.501 183.601 127.975 180.383 134.746 177.941C135.846 177.518 135.366 175.74 134.252 176.149Z" fill="url(#paint8_linear_605_2111)" />
<path d="M141.517 177.038C135.014 179.396 128.751 182.402 122.912 186.114C117.199 189.727 111.895 194.103 105.534 196.587C104.448 197.011 104.913 198.789 106.028 198.366C112.135 195.98 117.284 191.986 122.728 188.429C128.765 184.491 135.24 181.273 142.01 178.831C143.11 178.422 142.631 176.629 141.517 177.038Z" fill="url(#paint9_linear_605_2111)" />
<path d="M147.257 179.113C140.754 181.47 134.491 184.477 128.652 188.189C122.939 191.802 117.636 196.178 111.274 198.662C110.188 199.086 110.654 200.864 111.768 200.441C117.875 198.055 123.024 194.061 128.469 190.504C134.506 186.566 140.98 183.348 147.75 180.906C148.851 180.497 148.371 178.718 147.257 179.113Z" fill="url(#paint10_linear_605_2111)" />
<path d="M155.339 180.017C148.837 182.374 142.574 185.38 136.734 189.092C131.022 192.706 125.718 197.081 119.357 199.565C118.271 199.989 118.736 201.767 119.85 201.344C125.958 198.958 131.106 194.964 136.551 191.407C142.588 187.469 149.062 184.251 155.833 181.809C156.933 181.386 156.454 179.607 155.339 180.017Z" fill="url(#paint11_linear_605_2111)" />
</g>
</g>
<path d="M89.6933 202.177C92.8172 202.177 95.3496 199.643 95.3496 196.517C95.3496 193.391 92.8172 190.857 89.6933 190.857C86.5695 190.857 84.0371 193.391 84.0371 196.517C84.0371 199.643 86.5695 202.177 89.6933 202.177Z" fill="#436DAD" />
<path d="M98.8469 202.191C102.695 202.191 105.815 199.069 105.815 195.218C105.815 191.367 102.695 188.246 98.8469 188.246C94.9986 188.246 91.8789 191.367 91.8789 195.218C91.8789 199.069 94.9986 202.191 98.8469 202.191Z" fill="#436DAD" />
<path d="M109.271 202.177C112.691 202.177 115.463 199.403 115.463 195.981C115.463 192.558 112.691 189.784 109.271 189.784C105.851 189.784 103.079 192.558 103.079 195.981C103.079 199.403 105.851 202.177 109.271 202.177Z" fill="#436DAD" />
<path d="M59.6067 202.191C63.455 202.191 66.5747 199.069 66.5747 195.218C66.5747 191.367 63.455 188.246 59.6067 188.246C55.7584 188.246 52.6387 191.367 52.6387 195.218C52.6387 199.069 55.7584 202.191 59.6067 202.191Z" fill="#436DAD" />
<path d="M68.4366 202.177C71.9578 202.177 74.8122 199.32 74.8122 195.797C74.8122 192.273 71.9578 189.417 68.4366 189.417C64.9155 189.417 62.061 192.273 62.061 195.797C62.061 199.32 64.9155 202.177 68.4366 202.177Z" fill="#436DAD" />
<path d="M49.761 201.146C52.7134 201.146 55.1069 198.751 55.1069 195.797C55.1069 192.842 52.7134 190.447 49.761 190.447C46.8085 190.447 44.415 192.842 44.415 195.797C44.415 198.751 46.8085 201.146 49.761 201.146Z" fill="#436DAD" />
<path d="M48.9712 195.317C50.156 195.317 50.156 193.482 48.9712 193.482C47.7863 193.482 47.7863 195.317 48.9712 195.317Z" fill="#B5B5CC" />
<path d="M56.3623 195.317C57.5471 195.317 57.5471 193.482 56.3623 193.482C55.1774 193.482 55.1774 195.317 56.3623 195.317Z" fill="#B5B5CC" />
<path d="M58.0976 193.355C59.2825 193.355 59.2825 191.52 58.0976 191.52C56.9128 191.506 56.9128 193.355 58.0976 193.355Z" fill="#B5B5CC" />
<path d="M55.7133 192.635C56.8982 192.635 56.8982 190.8 55.7133 190.8C54.5285 190.786 54.5285 192.635 55.7133 192.635Z" fill="#B5B5CC" />
<path d="M72.9223 196.771C74.1072 196.771 74.1072 194.936 72.9223 194.936C71.7375 194.936 71.7375 196.771 72.9223 196.771Z" fill="#B5B5CC" />
<path d="M86.9428 197.519C88.1277 197.519 88.1277 195.684 86.9428 195.684C85.758 195.684 85.758 197.519 86.9428 197.519Z" fill="#B5B5CC" />
<path d="M89.6367 193.891C90.8215 193.891 90.8215 192.056 89.6367 192.056C88.4518 192.042 88.4518 193.891 89.6367 193.891Z" fill="#B5B5CC" />
<path d="M91.2588 195.43C92.4436 195.43 92.4436 193.595 91.2588 193.595C90.0739 193.581 90.0739 195.43 91.2588 195.43Z" fill="#B5B5CC" />
<path d="M110.019 196.982C111.203 196.982 111.203 195.147 110.019 195.147C108.834 195.133 108.834 196.982 110.019 196.982Z" fill="#B5B5CC" />
<path d="M105.985 199.156C107.17 199.156 107.17 197.322 105.985 197.322C104.8 197.322 104.8 199.156 105.985 199.156Z" fill="#B5B5CC" />
<path d="M101.415 193.764C102.6 193.764 102.6 191.929 101.415 191.929C100.23 191.929 100.23 193.764 101.415 193.764Z" fill="#B5B5CC" />
<path d="M99.6654 195.529C100.85 195.529 100.85 193.694 99.6654 193.694C98.4806 193.694 98.4665 195.529 99.6654 195.529Z" fill="#B5B5CC" />
<path d="M282.058 129.545C281.858 129.302 281.435 128.89 280.57 128.332C278.751 127.159 275.823 125.933 271.806 124.838C264.931 122.963 255.504 121.69 244.973 121.369V116.847C268.355 117.542 286.655 122.982 286.655 129.545C286.655 136.578 265.75 142.28 239.962 142.28C214.175 142.28 193.27 136.578 193.27 129.545C193.27 122.792 212.583 117.266 236.942 116.836V121.292C225.573 121.499 215.436 122.842 208.118 124.838C204.102 125.933 201.174 127.159 199.354 128.332C198.49 128.89 198.067 129.302 197.866 129.545C198.067 129.787 198.49 130.2 199.354 130.757C201.174 131.93 204.102 133.156 208.118 134.251C216.087 136.425 227.348 137.824 239.962 137.824C252.577 137.824 263.837 136.425 271.806 134.251C275.823 133.156 278.751 131.93 280.57 130.757C281.435 130.2 281.858 129.787 282.058 129.545Z" fill="#436DAD" />
<path d="M295.285 202.048C297.571 199.687 293.814 197.731 292.692 197.007C290.329 195.483 286.527 193.892 281.311 192.47C272.384 190.035 258.682 188.383 245.009 187.965V183.526C275.369 184.428 300.592 191.492 300.592 200.013C300.592 209.146 273.447 216.55 239.962 216.55C206.477 216.55 179.333 209.146 179.333 200.013C179.333 191.245 205.301 184.17 236.931 183.611V187.965C222.169 188.233 208.115 189.878 198.613 192.47C193.398 193.892 189.595 195.483 187.233 197.007C179.202 202.185 195.294 207.581 198.613 208.486C208.961 211.309 223.582 213.126 239.962 213.126C256.342 213.126 270.964 211.309 281.311 208.486C285.449 207.179 294.037 204.062 295.285 202.048Z" fill="#436DAD" />
<defs>
<linearGradient id="paint0_linear_605_2111" x1="26.7618" y1="219.768" x2="166.789" y2="269.153" gradientUnits="userSpaceOnUse">
<stop offset="0.298414" stop-color="#022251" />
<stop offset="0.902515" stop-color="#381313" />
</linearGradient>
<linearGradient id="paint1_linear_605_2111" x1="66.5748" y1="75.6423" x2="66.5748" y2="91.2289" gradientUnits="userSpaceOnUse">
<stop stop-color="#274A7E" />
<stop offset="1" stop-color="#444D86" stop-opacity="0" />
</linearGradient>
<linearGradient id="paint2_linear_605_2111" x1="169.823" y1="28.3695" x2="169.823" y2="47.6865" gradientUnits="userSpaceOnUse">
<stop stop-color="#0E336C" />
<stop offset="0.9341" stop-color="#444D86" stop-opacity="0" />
</linearGradient>
<linearGradient id="paint3_linear_605_2111" x1="83.1837" y1="169.699" x2="83.1837" y2="185.761" gradientUnits="userSpaceOnUse">
<stop stop-color="#274A7E" />
<stop offset="0.9341" stop-color="#444D86" stop-opacity="0" />
</linearGradient>
<linearGradient id="paint4_linear_605_2111" x1="111.606" y1="174.625" x2="111.606" y2="190.687" gradientUnits="userSpaceOnUse">
<stop stop-color="#444D86" />
<stop offset="0.9341" stop-color="#444D86" stop-opacity="0" />
</linearGradient>
<linearGradient id="paint5_linear_605_2111" x1="99.2001" y1="168.441" x2="94.4343" y2="195.451" gradientUnits="userSpaceOnUse">
<stop offset="0.3427" stop-color="#B5B5CC" />
<stop offset="0.7671" stop-color="#B5B5CC" stop-opacity="0.0887" />
<stop offset="0.8084" stop-color="#B5B5CC" stop-opacity="0" />
</linearGradient>
<linearGradient id="paint6_linear_605_2111" x1="104.942" y1="170.52" x2="100.177" y2="197.527" gradientUnits="userSpaceOnUse">
<stop offset="0.3427" stop-color="#B5B5CC" />
<stop offset="0.7282" stop-color="#B5B5CC" stop-opacity="0.0887" />
<stop offset="0.7658" stop-color="#B5B5CC" stop-opacity="0" />
</linearGradient>
<linearGradient id="paint7_linear_605_2111" x1="113.15" y1="171.235" x2="108.384" y2="198.246" gradientUnits="userSpaceOnUse">
<stop offset="0.3427" stop-color="#B5B5CC" />
<stop offset="0.6662" stop-color="#B5B5CC" stop-opacity="0.0887" />
<stop offset="0.6976" stop-color="#B5B5CC" stop-opacity="0" />
</linearGradient>
<linearGradient id="paint8_linear_605_2111" x1="118.891" y1="173.31" x2="114.125" y2="200.321" gradientUnits="userSpaceOnUse">
<stop offset="0.314" stop-color="#B5B5CC" />
<stop offset="0.5893" stop-color="#B5B5CC" stop-opacity="0.0887" />
<stop offset="0.6161" stop-color="#B5B5CC" stop-opacity="0" />
</linearGradient>
<linearGradient id="paint9_linear_605_2111" x1="126.156" y1="174.2" x2="121.39" y2="201.21" gradientUnits="userSpaceOnUse">
<stop offset="0.314" stop-color="#B5B5CC" />
<stop offset="0.5363" stop-color="#B5B5CC" stop-opacity="0.0887" />
<stop offset="0.558" stop-color="#B5B5CC" stop-opacity="0" />
</linearGradient>
<linearGradient id="paint10_linear_605_2111" x1="131.896" y1="176.279" x2="127.131" y2="203.285" gradientUnits="userSpaceOnUse">
<stop offset="0.314" stop-color="#B5B5CC" />
<stop offset="0.48" stop-color="#B5B5CC" stop-opacity="0.0887" />
<stop offset="0.4962" stop-color="#B5B5CC" stop-opacity="0" />
</linearGradient>
<linearGradient id="paint11_linear_605_2111" x1="139.978" y1="177.177" x2="135.212" y2="204.188" gradientUnits="userSpaceOnUse">
<stop offset="0.314" stop-color="#B5B5CC" />
<stop offset="0.4508" stop-color="#B5B5CC" stop-opacity="0.0887" />
<stop offset="0.4641" stop-color="#B5B5CC" stop-opacity="0" />
</linearGradient>
</defs>
</svg>