<svg width="30" height="30" viewBox="0 0 30 30" fill="none" xmlns="http://www.w3.org/2000/svg">
<path fill-rule="evenodd" clip-rule="evenodd" d="M0 14.5716C0 6.52578 6.52109 0 14.5716 0C18.4373 0 22.1435 1.5341 24.874 4.2692C27.6044 6.99962 29.1432 10.7058 29.1432 14.5716C29.1432 22.6174 22.6221 29.1432 14.5716 29.1432C6.52578 29.1432 0 22.6221 0 14.5716Z" fill="#0E336C"/>
<path d="M22.4569 19.7367C22.47 19.7212 22.4847 19.7067 22.4957 19.6898C22.5261 19.6439 22.5548 19.597 22.5842 19.5503C22.5861 19.547 22.5902 19.5442 22.5905 19.5408C22.5984 19.469 22.6596 19.4275 22.6914 19.3692C22.724 19.3093 22.7657 19.2538 22.7987 19.1941C22.824 19.1482 22.8399 19.0972 22.8647 19.0508C22.9158 18.9554 22.97 18.8616 23.023 18.7671C23.0276 18.7588 23.0327 18.7507 23.0363 18.7419C23.0609 18.6805 23.0843 18.6184 23.1103 18.5577C23.119 18.5375 23.1349 18.5201 23.1479 18.5018C23.1561 18.4901 23.1647 18.4787 23.1768 18.4623C23.1626 18.4644 23.1553 18.4654 23.1484 18.4663C23.1484 18.463 23.1469 18.4587 23.1486 18.4561C23.165 18.429 23.1816 18.4021 23.1985 18.3752C23.1994 18.3735 23.2016 18.3721 23.2016 18.3704C23.2047 18.3166 23.2341 18.2769 23.272 18.2417C23.2746 18.2393 23.2763 18.235 23.2768 18.2314C23.2872 18.1448 23.3467 18.0782 23.3742 17.9984C23.3802 17.9811 23.3787 17.982 23.3746 17.9318C23.373 17.9121 23.3881 17.8899 23.3987 17.8704C23.405 17.859 23.4209 17.8518 23.4255 17.8402C23.4749 17.7088 23.5255 17.5775 23.5708 17.4447C23.6019 17.3535 23.6255 17.26 23.6527 17.1674C23.6542 17.1622 23.6593 17.1581 23.6626 17.1534L23.6609 17.155C23.6323 17.1205 23.6417 17.0877 23.6571 17.0494C23.6877 16.9739 23.7101 16.8954 23.7383 16.8192C23.7465 16.7973 23.7082 16.794 23.7246 16.7683C23.7359 16.7502 23.7344 16.7245 23.7397 16.7024C23.7482 16.6662 23.7573 16.63 23.766 16.5941L23.7643 16.596C23.7718 16.5627 23.7822 16.5298 23.7863 16.4963C23.7973 16.4035 23.8173 16.313 23.8506 16.2255C23.854 16.2167 23.8576 16.2064 23.8561 16.1979C23.8386 16.0979 23.8774 16.0034 23.8855 15.9061C23.888 15.8771 23.9043 15.8494 23.9109 15.8204C23.9174 15.7911 23.92 15.7612 23.9234 15.7314C23.9306 15.6693 23.9374 15.6072 23.9446 15.5448C23.9463 15.5298 23.9499 15.5148 23.9511 15.4996C23.9566 15.4246 23.9619 15.3499 23.9894 15.2783C23.9947 15.2645 23.9836 15.2454 23.9834 15.2288C23.9819 15.1472 23.9737 15.0643 23.9839 14.9839C23.9906 14.9303 23.9815 14.8794 23.9839 14.8273C23.9865 14.7742 23.9807 14.7193 23.9933 14.6686C24.008 14.6095 23.9858 14.5541 23.9925 14.496C23.9991 14.4401 23.9885 14.3823 23.9887 14.3254C23.9889 14.2964 24.0027 14.2664 23.9995 14.2381C23.9677 13.9491 23.9644 13.6576 23.9159 13.3704C23.9099 13.3351 23.9123 13.2987 23.906 13.2637C23.8894 13.1726 23.8696 13.0819 23.8516 12.991C23.8337 12.902 23.8142 12.8132 23.7998 12.7235C23.7882 12.6526 23.7945 12.5772 23.7725 12.51C23.7385 12.4068 23.7255 12.2997 23.6981 12.1957C23.6665 12.0762 23.6366 11.9565 23.6062 11.8365C23.6021 11.8199 23.5997 11.803 23.5966 11.7861C23.5947 11.7806 23.5925 11.7754 23.5906 11.7699C23.5696 11.7299 23.547 11.6902 23.5554 11.6424C23.552 11.6362 23.5486 11.6302 23.5455 11.624C23.5402 11.6162 23.5347 11.6083 23.5257 11.5955C23.5226 11.6064 23.5204 11.6138 23.5185 11.6207C23.3532 11.1985 23.1874 10.7756 23.0192 10.3458C23.0165 10.361 23.0151 10.3691 23.0129 10.381C22.9768 10.3525 22.9775 10.3154 22.9785 10.2782C22.9652 10.2628 22.9517 10.2475 22.9392 10.2313C22.938 10.2297 22.944 10.2228 22.9469 10.218C22.9524 10.2213 22.958 10.2247 22.9635 10.2282C22.9524 10.2166 22.9491 10.2045 22.9625 10.1854C22.9683 10.2018 22.9727 10.2121 22.9751 10.2228C22.9756 10.2244 22.9679 10.228 22.9638 10.2309C22.9681 10.2471 22.9724 10.2635 22.9768 10.2797C22.9881 10.2858 22.9994 10.292 23.0107 10.2985C23.0144 10.2956 23.0177 10.2925 23.0214 10.2896C23.0035 10.2451 22.9874 10.2002 22.9676 10.1566C22.9481 10.1138 22.9252 10.0726 22.9037 10.0305C22.8493 10.0219 22.8546 9.95814 22.8143 9.93648L22.8155 9.93553C22.8305 9.98551 22.8457 10.0355 22.8606 10.0855C22.8577 10.0871 22.8548 10.0888 22.8519 10.0905C22.8428 10.0745 22.8327 10.059 22.8249 10.0426C22.7666 9.92077 22.6955 9.80678 22.6196 9.69469C22.5815 9.63852 22.556 9.57403 22.5249 9.51311C22.4931 9.45075 22.4586 9.39078 22.4114 9.33676C22.3721 9.29154 22.3463 9.23466 22.3162 9.18183C22.2993 9.15232 22.2858 9.12067 22.2709 9.08997C22.2654 9.08354 22.2598 9.07736 22.2543 9.07093C22.2061 9.0319 22.1644 8.98764 22.1396 8.93004C22.1314 8.92362 22.1234 8.91719 22.1152 8.91077C22.1053 8.90553 22.0957 8.90053 22.0858 8.8953C22.0947 8.90958 22.1029 8.92433 22.1126 8.93814C22.168 9.01834 22.2239 9.09806 22.2791 9.17826C22.2854 9.1873 22.288 9.19897 22.2924 9.20944C22.2097 9.10472 22.1232 9.00406 22.0518 8.88149C22.0711 8.88982 22.0796 8.89339 22.088 8.8972C22.0738 8.87245 22.0608 8.84699 22.0453 8.82319C22.0268 8.79439 21.9998 8.76893 21.988 8.73799C21.9663 8.68111 21.9094 8.66088 21.8747 8.61828C21.8595 8.59972 21.8395 8.58473 21.8239 8.56616C21.7884 8.5238 21.7542 8.48049 21.7198 8.43742C21.7067 8.42099 21.6889 8.40505 21.6841 8.38625C21.6704 8.33199 21.6263 8.30248 21.592 8.26488C21.5882 8.26059 21.5831 8.25441 21.5788 8.25464C21.5308 8.25655 21.5195 8.21585 21.4983 8.18729C21.453 8.12589 21.4113 8.06283 21.3503 8.01333C21.3093 7.98001 21.2783 7.93479 21.238 7.88981C21.2313 7.90052 21.2274 7.90671 21.2202 7.91813C21.1999 7.90005 21.1809 7.88196 21.1604 7.86554C21.1462 7.85435 21.1382 7.82603 21.1103 7.84436C21.1081 7.84579 21.1007 7.8396 21.0961 7.83627C21.0529 7.80461 21.0091 7.77391 20.9676 7.74036C20.9474 7.7237 20.9317 7.70133 20.9144 7.68134C20.9033 7.66849 20.8941 7.65349 20.8811 7.64302C20.7013 7.49642 20.5208 7.35078 20.3408 7.20466C20.3143 7.18324 20.2902 7.15801 20.2618 7.13945C20.2126 7.10756 20.1596 7.08138 20.1104 7.04949C20.062 7.01831 20.0176 6.98095 19.9687 6.95073C19.9157 6.91812 19.8591 6.89171 19.8051 6.86101C19.7819 6.84768 19.7612 6.83007 19.739 6.81507C19.7169 6.80008 19.7012 6.76986 19.6648 6.78675C19.6586 6.78961 19.6448 6.77771 19.6352 6.77152C19.5103 6.6937 19.3826 6.62112 19.252 6.55377C19.2486 6.5521 19.245 6.55044 19.2419 6.54853C19.2238 6.53687 19.2081 6.51212 19.1833 6.53854C19.1556 6.52569 19.1267 6.5145 19.1002 6.49975C19.0703 6.48309 19.0431 6.46191 19.0132 6.44501C19.0004 6.43787 18.9843 6.4362 18.9696 6.4324C18.9585 6.42954 18.9455 6.43049 18.9363 6.42478C18.8852 6.39337 18.8351 6.36052 18.7845 6.3284C18.7715 6.32007 18.7589 6.30698 18.745 6.30555C18.696 6.30055 18.6618 6.27176 18.6252 6.24439C18.6047 6.22916 18.583 6.21012 18.5519 6.22106C18.5452 6.22344 18.5324 6.21892 18.5264 6.21345C18.4596 6.15253 18.3743 6.12587 18.2936 6.09089C18.2748 6.08256 18.2589 6.07494 18.243 6.05852C18.2203 6.0352 18.1866 6.01949 18.1545 6.00831C18.0916 5.98641 18.028 5.96023 17.9627 5.95262C17.7836 5.93144 17.6034 5.91859 17.4236 5.90312C17.4 5.90098 17.3761 5.90288 17.3523 5.90288C17.3515 5.90693 17.3508 5.91097 17.3503 5.91525C17.4017 5.94143 17.4518 5.97071 17.5048 5.99355C17.66 6.06043 17.8176 6.1223 17.9721 6.19084C18.0767 6.23725 18.1765 6.29413 18.2806 6.34149C18.4237 6.40669 18.5599 6.48451 18.6987 6.55758C18.7153 6.56638 18.7307 6.57757 18.744 6.5966C18.7295 6.59303 18.7144 6.59113 18.7006 6.58566C18.5478 6.52331 18.3965 6.45715 18.2423 6.39813C18.0379 6.31983 17.8311 6.24701 17.6256 6.17228C17.6171 6.16918 17.608 6.16823 17.5969 6.17323C17.7465 6.24177 17.8967 6.30888 18.0456 6.37909C18.1948 6.44929 18.3423 6.52331 18.4784 6.61779C18.416 6.59042 18.3533 6.56329 18.2909 6.53592C18.2504 6.51831 18.2104 6.49951 18.1692 6.48332C18.1451 6.4738 18.1218 6.45834 18.0926 6.47071C18.0858 6.47357 18.0743 6.46714 18.0656 6.46357C17.947 6.41383 17.8287 6.36338 17.7097 6.31435C17.6812 6.30269 17.6525 6.2789 17.6142 6.30817C17.6345 6.32007 17.6516 6.33101 17.6697 6.3403C17.975 6.49499 18.2714 6.66538 18.5637 6.84244C18.6934 6.92098 18.8136 7.01403 18.9411 7.09637C19.1674 7.24273 19.3699 7.41956 19.5812 7.58495C19.6581 7.64516 19.7277 7.71418 19.8044 7.77249C19.9357 7.87244 20.0429 7.9931 20.1528 8.11257C20.1851 8.14755 20.2131 8.18682 20.2434 8.22371C20.2834 8.27225 20.3278 8.31795 20.3635 8.36959C20.4476 8.49144 20.5637 8.58473 20.6572 8.69801C20.718 8.77178 20.7772 8.84675 20.8363 8.92195C20.9023 9.00596 20.9727 9.08711 21.0315 9.17588C21.1105 9.29487 21.1804 9.41982 21.2539 9.54238C21.2843 9.59307 21.3132 9.64447 21.3433 9.6954C21.4737 9.91435 21.5631 10.1511 21.6576 10.386C21.7171 10.5343 21.7752 10.683 21.8294 10.8332C21.9379 11.1343 22.0234 11.4422 22.1044 11.7514C22.1398 11.887 22.1547 12.0279 22.1798 12.1662C22.1844 12.1921 22.1926 12.2173 22.1988 12.243C22.202 12.2559 22.2056 12.2685 22.207 12.2816C22.2167 12.3644 22.2263 12.4472 22.235 12.53C22.2442 12.6169 22.2519 12.7042 22.2615 12.7911C22.2634 12.8085 22.2721 12.8254 22.2779 12.8423L22.2769 12.8432C22.2769 12.7847 22.2769 12.7259 22.2769 12.6674C22.2781 12.6669 22.2793 12.6666 22.2805 12.6662C22.2834 12.6819 22.2899 12.6976 22.289 12.713C22.2851 12.7783 22.3015 12.8413 22.3058 12.9053C22.3162 13.061 22.321 13.2169 22.3297 13.3727C22.3391 13.5436 22.3324 13.7147 22.3299 13.8856C22.3295 13.9251 22.3205 13.9644 22.3186 14.0039C22.3133 14.1212 22.3174 14.2388 22.2977 14.3556C22.2683 14.5293 22.2398 14.7035 22.2172 14.8782C22.1962 15.0389 22.161 15.1955 22.1174 15.3513C22.094 15.4349 22.0851 15.5225 22.0641 15.6067C22.0444 15.686 22.0169 15.7633 21.994 15.8418C21.9759 15.9035 21.961 15.9661 21.9415 16.0275C21.9265 16.0746 21.906 16.1198 21.8901 16.1667C21.8034 16.4206 21.7108 16.6724 21.5959 16.9156C21.4523 17.2195 21.286 17.5113 21.1074 17.7959C21.0356 17.9104 20.9512 18.0175 20.8719 18.1272C20.816 18.2045 20.7628 18.284 20.7013 18.3569C20.5599 18.5251 20.4158 18.6915 20.2697 18.8557C20.1972 18.9371 20.1201 19.0146 20.0413 19.0903C19.6533 19.4625 19.2373 19.8007 18.7816 20.0901C17.969 20.6065 17.0884 20.9583 16.1423 21.1496C15.821 21.2146 15.4966 21.2569 15.1696 21.281C14.8038 21.3079 14.4377 21.3117 14.0719 21.2876C13.8856 21.2755 13.6993 21.2562 13.5142 21.2324C13.1535 21.1865 12.7999 21.1065 12.4505 21.0073C11.8328 20.8317 11.2468 20.583 10.6937 20.2614C10.4616 20.1265 10.2372 19.9771 10.017 19.8236C9.85696 19.7119 9.70706 19.5851 9.55668 19.4604C9.27159 19.2234 9.01011 18.9623 8.76551 18.6848C8.53753 18.4263 8.32281 18.1577 8.13483 17.869C8.06302 17.7588 7.98662 17.6508 7.92155 17.5368C7.76732 17.2669 7.61501 16.9956 7.49283 16.7098C7.28919 16.234 7.12628 15.7447 7.02049 15.2388C6.95759 14.9375 6.91252 14.6331 6.88168 14.3256C6.84914 14.0027 6.86866 13.6826 6.89421 13.3632C6.92168 13.0186 6.97904 12.6771 7.05664 12.3389C7.09953 12.1521 7.15569 11.9691 7.20171 11.7832C7.22798 11.6766 7.27618 11.5755 7.30919 11.4701C7.37137 11.2706 7.45427 11.0793 7.53814 10.8882C7.5632 10.8313 7.59477 10.7773 7.62321 10.7218C7.63791 10.693 7.65261 10.6642 7.66731 10.6354C7.7131 10.5452 7.75937 10.4555 7.80419 10.3651C7.82371 10.3256 7.85962 10.293 7.85649 10.243C7.85576 10.2323 7.86974 10.2206 7.87697 10.2094C7.93119 10.1285 7.98542 10.0476 8.0394 9.96647C8.04783 9.95385 8.05988 9.94172 8.06326 9.92767C8.08639 9.83034 8.16327 9.76275 8.20617 9.67613C8.22713 9.63376 8.27919 9.60616 8.30015 9.56356C8.32112 9.5212 8.33751 9.47765 8.36859 9.44076C8.45198 9.34128 8.53367 9.24014 8.6173 9.14066C8.63393 9.12091 8.65706 9.10615 8.67682 9.08878C8.68405 9.08259 8.69441 9.07617 8.6961 9.06831C8.70405 9.02928 8.73273 9.00882 8.76286 8.98811C8.77491 8.97978 8.78744 8.96646 8.79105 8.95313C8.80165 8.91243 8.83154 8.89101 8.86383 8.86936C8.87901 8.85912 8.89106 8.84342 8.90239 8.82842C8.92432 8.8001 8.94191 8.76798 8.96673 8.74227C9.07277 8.63185 9.17832 8.52071 9.2887 8.41457C9.36124 8.34484 9.44197 8.2832 9.5186 8.21752C9.58391 8.16159 9.64922 8.1059 9.71357 8.04902C9.72104 8.04236 9.72297 8.02951 9.7273 8.01975C9.7367 8.01142 9.74634 8.00286 9.75598 7.99429C9.80322 7.95431 9.84515 7.9079 9.90853 7.8891C9.92829 7.88315 9.94347 7.86125 9.95986 7.84579C9.98324 7.82413 10.0037 7.7989 10.0293 7.7801C10.0671 7.75178 10.1083 7.72822 10.1474 7.70157C10.1813 7.67824 10.2213 7.6642 10.249 7.63112C10.2575 7.62113 10.276 7.61922 10.29 7.61423C10.3199 7.60352 10.352 7.59685 10.3565 7.55592C10.3575 7.54616 10.3734 7.53617 10.3845 7.52974C10.4274 7.50499 10.4715 7.48262 10.5141 7.45739C10.5279 7.4493 10.5556 7.44407 10.5363 7.41646C10.517 7.37362 10.5551 7.38743 10.5746 7.38362C10.5614 7.39481 10.5481 7.40599 10.5346 7.41741C10.5669 7.41099 10.5949 7.40028 10.618 7.37267C10.6368 7.35006 10.6652 7.33364 10.692 7.31913C10.7792 7.27177 10.8677 7.22655 10.9556 7.18062C10.9641 7.1761 10.9752 7.17348 10.9805 7.16658C11.0238 7.11113 11.092 7.0959 11.1504 7.06591C11.2265 7.02664 11.3056 6.99332 11.3832 6.95691C11.4051 6.94668 11.4268 6.93549 11.4485 6.92479C11.447 6.92098 11.4456 6.91693 11.4441 6.91312C11.4294 6.91741 11.4142 6.92003 11.4005 6.92621C11.299 6.97191 11.1981 7.01831 11.0969 7.06401C11.0479 7.0859 10.9985 7.10637 10.9494 7.12802C10.8867 7.15563 10.8236 7.18276 10.7619 7.21251C10.738 7.22393 10.7175 7.24249 10.6956 7.25773C10.6633 7.28057 10.6344 7.31056 10.5893 7.30604C10.5857 7.3058 10.5816 7.3077 10.5785 7.30937C10.5098 7.34745 10.4402 7.3841 10.3729 7.42431C10.3358 7.44669 10.3025 7.47524 10.2674 7.50118C10.278 7.50118 10.2886 7.50118 10.3011 7.50118C10.2722 7.52927 10.2722 7.52927 10.2428 7.52903C10.2519 7.5188 10.2606 7.50904 10.2693 7.49928C10.25 7.50761 10.2305 7.51523 10.2115 7.52427C10.1823 7.53807 10.1531 7.54902 10.1343 7.58019C10.1242 7.59709 10.0989 7.60495 10.0806 7.61708C10.0599 7.59043 10.0659 7.57282 10.0854 7.55806C10.1281 7.52546 10.1678 7.48738 10.2148 7.46263C10.2666 7.43526 10.3052 7.38433 10.3686 7.37696C10.3739 7.37624 10.3775 7.36553 10.3833 7.36149C10.4069 7.34554 10.4296 7.32746 10.4553 7.31532C10.4946 7.29652 10.5368 7.28367 10.5761 7.26487C10.592 7.25725 10.6175 7.25416 10.6127 7.22322C10.6117 7.21679 10.6368 7.20775 10.6474 7.19752C10.6607 7.18466 10.6713 7.16943 10.6903 7.14659C10.7209 7.14968 10.7539 7.13255 10.779 7.09756C10.785 7.08923 10.798 7.08543 10.8084 7.08043C10.8843 7.04378 10.9646 7.01379 11.0347 6.96857C11.0757 6.94216 11.1147 6.91265 11.1593 6.89194C11.2405 6.85387 11.3217 6.81579 11.4041 6.78033C11.4694 6.75248 11.5371 6.72988 11.6027 6.70275C11.6331 6.69013 11.6716 6.6887 11.688 6.65158C11.6897 6.64777 11.6981 6.64539 11.7034 6.64492C11.776 6.64087 11.8285 6.58732 11.8969 6.57043C11.9673 6.55305 12.0343 6.52212 12.1035 6.49927C12.1832 6.47285 12.264 6.44905 12.3442 6.42359C12.3731 6.41455 12.4018 6.40431 12.4387 6.39218C12.3891 6.361 12.3488 6.34006 12.2951 6.36243C12.2584 6.37742 12.2179 6.3848 12.1784 6.39122C12.0558 6.41098 11.9432 6.46048 11.8283 6.50284C11.6984 6.55067 11.5697 6.60089 11.44 6.64896C11.4082 6.66086 11.3685 6.66086 11.3439 6.68014C11.3188 6.69989 11.2925 6.71441 11.2646 6.72083C11.179 6.74035 11.1108 6.79389 11.033 6.82793C10.9537 6.86243 10.8742 6.89647 10.7959 6.93288C10.7457 6.95596 10.6971 6.98262 10.6484 7.00832C10.6199 7.02331 10.5925 7.04021 10.5558 7.06091C10.564 7.04568 10.5684 7.03759 10.5751 7.02521C10.5568 7.02831 10.5414 7.03069 10.5158 7.03497C10.5541 6.99737 10.585 6.96667 10.6226 6.92955C10.592 6.94216 10.5676 6.95215 10.5433 6.96215C10.5421 6.96025 10.5409 6.95858 10.5394 6.95668C10.5614 6.94168 10.5835 6.92693 10.6084 6.91003C10.6072 6.89766 10.6057 6.88361 10.604 6.86719C10.6187 6.85767 10.6344 6.84744 10.6501 6.83744C10.6026 6.8384 10.5669 6.85387 10.5541 6.90313C10.5457 6.93621 10.5259 6.95096 10.4602 6.97857C10.4732 6.96429 10.4809 6.95596 10.4968 6.93811C10.4708 6.94644 10.4546 6.95144 10.4387 6.95644L10.4406 6.95453C10.3951 6.99832 10.3421 7.02855 10.2785 7.04068C10.2963 7.02759 10.3141 7.01451 10.332 7.00142C10.2801 7.00737 10.2457 7.0433 10.2042 7.06662C10.1613 7.09042 10.1155 7.10922 10.0685 7.12636C10.1011 7.07495 10.1719 7.06734 10.1987 7.0107C10.2606 7.00403 10.2934 6.9512 10.3368 6.91455C10.3394 6.91765 10.3418 6.9205 10.3445 6.9236C10.3413 6.93145 10.3385 6.93954 10.3353 6.94739C10.3385 6.94858 10.343 6.95144 10.3445 6.95049C10.3671 6.93383 10.3883 6.91527 10.412 6.8998C10.4322 6.88647 10.4541 6.87552 10.4763 6.866C10.5052 6.85363 10.5378 6.85101 10.5488 6.81103C10.5532 6.79532 10.5792 6.78366 10.5975 6.77414C10.6503 6.74701 10.7043 6.7225 10.7573 6.69608C10.7708 6.68942 10.7857 6.68204 10.7954 6.67086C10.8289 6.63159 10.8761 6.61541 10.9197 6.59256C10.9706 6.5659 11.0296 6.54591 11.0679 6.50688C11.1149 6.45881 11.1716 6.43882 11.2299 6.42359C11.2684 6.41336 11.3007 6.39646 11.3338 6.37766C11.3403 6.37385 11.3511 6.36957 11.3518 6.36481C11.3576 6.31412 11.3916 6.32292 11.4268 6.32602C11.4603 6.32911 11.482 6.31102 11.5167 6.26057C11.4745 6.26985 11.4352 6.27675 11.3971 6.28794C11.38 6.29294 11.3663 6.30841 11.3497 6.31626C11.3316 6.32483 11.3121 6.33006 11.2933 6.33673C11.2815 6.37314 11.2815 6.37314 11.2357 6.37694C11.2583 6.36195 11.2764 6.35005 11.2945 6.33792C11.2978 6.32935 11.3012 6.32054 11.3051 6.31055C11.247 6.30484 11.2231 6.35862 11.181 6.37956C11.1636 6.38837 11.1477 6.40027 11.1214 6.41693C11.1296 6.39622 11.1328 6.38837 11.1383 6.37433C11.119 6.38004 11.1036 6.3848 11.0877 6.38956C11.0887 6.38623 11.0887 6.38194 11.0906 6.38075C11.1561 6.34315 11.213 6.29317 11.2865 6.26604C11.3188 6.25414 11.3504 6.23749 11.3851 6.22868C11.4053 6.22344 11.4244 6.2144 11.4436 6.20631C11.4781 6.19203 11.4996 6.16752 11.5044 6.13015C11.5068 6.12873 11.5094 6.12682 11.5121 6.12468C11.4935 6.11159 11.4935 6.11231 11.4788 6.11492C11.4169 6.12563 11.3562 6.13967 11.3015 6.17275C11.2954 6.17632 11.2877 6.17728 11.268 6.1837C11.2863 6.1668 11.295 6.15871 11.3087 6.14586C11.2894 6.15015 11.275 6.15157 11.2619 6.15657C11.1889 6.18465 11.1159 6.21321 11.0434 6.24248C10.974 6.27033 10.9053 6.30031 10.8356 6.32744C10.7465 6.36219 10.6643 6.40979 10.5811 6.45596C10.5717 6.46119 10.5599 6.46143 10.5498 6.46571C10.5358 6.47142 10.5185 6.47499 10.5093 6.48547C10.4681 6.53235 10.4132 6.55496 10.358 6.5809C10.2666 6.62397 10.1649 6.64349 10.0804 6.70203C10.024 6.74106 9.9654 6.77723 9.90781 6.8146C9.81117 6.87695 9.71429 6.93859 9.61813 7.00189C9.60175 7.0126 9.58946 7.02974 9.57524 7.04354C9.56729 7.05139 9.5603 7.06091 9.55066 7.06639C9.48944 7.10185 9.42751 7.13635 9.36606 7.1711C9.361 7.17396 9.35569 7.17943 9.35087 7.17919C9.27135 7.17158 9.2364 7.23726 9.18556 7.27653C9.20652 7.26796 9.22749 7.25939 9.25424 7.24844C9.24002 7.28438 9.20917 7.30556 9.18772 7.29866C9.18387 7.29747 9.18315 7.28628 9.18098 7.27962C9.10892 7.34078 9.0277 7.38909 8.95083 7.44335C8.91034 7.47191 8.86214 7.495 8.8366 7.54212C8.83371 7.54735 8.82383 7.5483 8.81756 7.55211C8.80117 7.56187 8.78214 7.56901 8.7696 7.58234C8.7255 7.62922 8.67007 7.65492 8.61151 7.67967C8.56838 7.69776 8.51945 7.72346 8.49608 7.75987C8.47632 7.79081 8.45174 7.81199 8.42667 7.8346C8.41173 7.84817 8.39101 7.85531 8.37389 7.86673C8.35678 7.87815 8.34088 7.89148 8.31606 7.91004C8.3322 7.91099 8.33823 7.91147 8.3498 7.91218C8.34449 7.93741 8.32931 7.95431 8.31148 7.97049C8.28449 7.99453 8.25557 8.01713 8.23243 8.0445C8.19122 8.09353 8.14158 8.13113 8.08736 8.16397L8.08326 8.1654C8.07073 8.18134 8.0541 8.19562 8.04663 8.21371C8.0353 8.24108 8.01337 8.2525 7.9847 8.27773C8.00156 8.23703 8.01241 8.21038 8.02349 8.18372C7.95963 8.24655 7.89601 8.30986 7.83191 8.37221C7.81961 8.38411 7.80708 8.39791 7.79166 8.40386C7.73912 8.42433 7.70635 8.46574 7.66996 8.50453C7.60851 8.56973 7.54513 8.63304 7.4856 8.7042C7.49259 8.70205 7.49982 8.69991 7.51669 8.69515C7.42559 8.81391 7.33932 8.92552 7.23449 9.02191C7.2328 9.02952 7.23111 9.03737 7.22943 9.04499C7.21641 9.06117 7.20364 9.07736 7.19063 9.0933C7.18075 9.10758 7.17111 9.12162 7.16123 9.1359C7.15761 9.13304 7.154 9.13019 7.15038 9.12733C7.16195 9.11448 7.17352 9.10139 7.18509 9.08854C7.18605 9.08164 7.18677 9.07474 7.18774 9.06784L7.18894 9.06879C7.17858 9.07402 7.16821 9.07926 7.15544 9.08592C7.15617 9.07426 7.15689 9.06498 7.15737 9.05594C7.16797 9.03404 7.17858 9.01191 7.18918 8.99002C7.18605 8.98597 7.18292 8.98216 7.17978 8.97812C7.16436 8.98835 7.14484 8.99525 7.13448 9.00905C7.10628 9.04666 7.06579 9.07664 7.06338 9.13162C7.06266 9.14875 7.03519 9.16493 7.01928 9.18088C6.99543 9.20515 6.96916 9.22729 6.94699 9.25299C6.91349 9.29202 6.88336 9.3339 6.85059 9.37365C6.82047 9.4103 6.78673 9.44338 6.77082 9.49074C6.76215 9.51691 6.73949 9.53833 6.72407 9.56237C6.65997 9.66089 6.59634 9.75966 6.53079 9.86056C6.53706 9.86152 6.5426 9.86223 6.55272 9.86366C6.54766 9.8727 6.54453 9.88127 6.53923 9.88841C6.49199 9.95052 6.44452 10.0122 6.39704 10.074C6.39247 10.08 6.38307 10.0862 6.38331 10.0916C6.38716 10.1561 6.33607 10.1918 6.30571 10.2382C6.28836 10.2649 6.26884 10.2875 6.26377 10.3223C6.25968 10.3506 6.23751 10.3765 6.22257 10.4029C6.20955 10.426 6.19533 10.4484 6.1816 10.471C6.17292 10.4955 6.164 10.5203 6.15533 10.5448C6.12665 10.5871 6.09701 10.629 6.07002 10.6723C6.05628 10.6942 6.04737 10.7192 6.03556 10.7444C6.03291 10.7411 6.02905 10.7361 6.02351 10.7292C5.94277 10.8637 5.86108 10.9965 5.82083 11.1488C5.8283 11.145 5.83602 11.1412 5.84348 11.1374C5.84614 11.1393 5.84879 11.1412 5.85144 11.1431C5.84204 11.1628 5.83264 11.1823 5.82348 11.2021C5.82083 11.2011 5.81818 11.2004 5.81553 11.1995C5.81505 11.1907 5.81433 11.1819 5.81384 11.173C5.80806 11.1849 5.80083 11.1964 5.79649 11.2087C5.75311 11.3349 5.68781 11.4508 5.62587 11.5686C5.60466 11.6088 5.58924 11.6521 5.57358 11.6949C5.51068 11.8663 5.44344 12.036 5.39862 12.2133C5.39163 12.2409 5.38777 12.269 5.38151 12.2968C5.37861 12.3094 5.37331 12.3213 5.36897 12.3337C5.35837 12.3642 5.34488 12.3937 5.33716 12.4248C5.29475 12.5952 5.24968 12.7654 5.21329 12.9372C5.18172 13.0867 5.16028 13.2383 5.13521 13.3889C5.13353 13.3989 5.13883 13.4101 5.14075 13.4208C5.14847 13.4013 5.15618 13.3818 5.16413 13.3625C5.16823 13.3435 5.17233 13.3244 5.17642 13.3054C5.18004 13.3063 5.18365 13.3073 5.18727 13.3082C5.18317 13.3225 5.17956 13.3368 5.17449 13.3506C5.17281 13.3549 5.16702 13.3577 5.16293 13.3611C5.16124 13.383 5.1769 13.4118 5.13931 13.4191C5.14678 13.4465 5.11762 13.4772 5.14847 13.5034C5.15208 13.5062 5.14557 13.5255 5.13931 13.5341C5.11738 13.5638 5.09641 13.5924 5.12605 13.6293C5.12943 13.6333 5.1263 13.6438 5.12437 13.6507C5.08268 13.794 5.06942 13.9418 5.05014 14.0886C5.04556 14.1236 5.05014 14.16 5.05014 14.1957C5.05014 14.2052 5.05231 14.2164 5.04797 14.2238C5.00725 14.2973 5.02604 14.377 5.02171 14.4546C5.01857 14.5129 5.01327 14.5712 5.00893 14.6295C5.00821 14.641 5.00291 14.6543 5.00725 14.6631C5.03231 14.7135 5.02002 14.7676 5.02532 14.8197C5.03207 14.8858 5.0393 14.952 5.04508 15.0182C5.04749 15.0446 5.04629 15.0712 5.04725 15.0979C5.05038 15.1888 5.05472 15.2799 5.05617 15.3709C5.05641 15.3925 5.04677 15.4144 5.04267 15.4363C5.04002 15.4511 5.03641 15.4665 5.03833 15.481C5.04677 15.5489 5.05689 15.6162 5.07087 15.6845C5.07183 15.6638 5.07304 15.6431 5.074 15.6224C5.07689 15.6219 5.07954 15.6217 5.08244 15.6212C5.09497 15.7005 5.10653 15.78 5.12027 15.859C5.14413 15.9956 5.16847 16.1319 5.19402 16.2681C5.21185 16.3633 5.23233 16.4577 5.25137 16.5532C5.25667 16.5865 5.26197 16.6196 5.26752 16.6524C5.23691 16.6212 5.24438 16.5867 5.25185 16.5522C5.24294 16.547 5.23402 16.5417 5.21884 16.5329C5.22004 16.5724 5.21426 16.6074 5.2304 16.6493C5.26245 16.7321 5.28101 16.8199 5.30342 16.9063C5.3174 16.9606 5.32005 17.0168 5.35307 17.0667C5.36946 17.0917 5.36897 17.1272 5.3856 17.1576C5.38247 17.1341 5.38151 17.1101 5.37572 17.087C5.36994 17.0632 5.35813 17.0408 5.35162 17.017C5.34897 17.0068 5.35355 16.9946 5.3603 16.9832C5.37717 17.0313 5.395 17.077 5.39693 17.1289C5.39934 17.1907 5.4138 17.2524 5.42537 17.3138C5.43187 17.3492 5.44199 17.384 5.45236 17.4185C5.45501 17.4273 5.46513 17.4337 5.47356 17.443C5.46609 17.458 5.4579 17.4749 5.4485 17.4937C5.44031 17.4804 5.43284 17.4682 5.42537 17.4558C5.42247 17.457 5.41958 17.458 5.41693 17.4592C5.42826 17.4892 5.43958 17.5191 5.45164 17.5506C5.46272 17.5444 5.46971 17.5403 5.47525 17.5372C5.49549 17.6003 5.51646 17.6619 5.53526 17.7243C5.54514 17.7571 5.55478 17.7871 5.58852 17.8064C5.61189 17.82 5.61864 17.848 5.62515 17.8745C5.63334 17.9071 5.64587 17.9385 5.65648 17.9704C5.65816 17.9756 5.66298 17.982 5.66154 17.9863C5.63985 18.0451 5.67913 18.0913 5.69455 18.1422C5.70323 18.171 5.71672 18.1991 5.73143 18.2255C5.74034 18.2414 5.74082 18.2657 5.77119 18.2669C5.77745 18.2671 5.79264 18.3064 5.78613 18.319C5.77456 18.3414 5.78613 18.3552 5.79167 18.3721C5.80348 18.4078 5.81505 18.4437 5.82758 18.4792C5.83336 18.4951 5.83963 18.5113 5.8483 18.5261C5.89915 18.6108 5.94277 18.7017 6.00519 18.7774C6.04833 18.8297 6.08568 18.8828 6.11508 18.9425C6.1252 18.9628 6.13171 18.9847 6.14039 19.0056C6.14689 19.0213 6.15027 19.0413 6.16208 19.0513C6.19702 19.0813 6.20594 19.121 6.21148 19.1624C6.2175 19.2074 6.23196 19.2467 6.27028 19.2755C6.28185 19.2843 6.28908 19.2993 6.29727 19.3121C6.32595 19.3569 6.35029 19.4042 6.39271 19.4399C6.41512 19.4587 6.42861 19.4863 6.42428 19.5213C6.40524 19.4954 6.3862 19.4694 6.36306 19.438C6.35415 19.4813 6.39078 19.4944 6.40138 19.5204C6.41295 19.5489 6.42765 19.576 6.47079 19.5615C6.48886 19.6013 6.5373 19.6267 6.5226 19.6812L6.52139 19.6774C6.5426 19.6893 6.56188 19.7 6.57128 19.7267C6.57899 19.7483 6.6014 19.7643 6.61418 19.7848C6.62671 19.805 6.63514 19.8276 6.64575 19.849C6.65563 19.869 6.66213 19.8921 6.67659 19.9083C6.72889 19.9675 6.78673 20.022 6.83637 20.0832C6.86432 20.1177 6.88071 20.1613 6.90216 20.2008C6.90505 20.2103 6.90819 20.22 6.91108 20.2296C6.93397 20.2545 6.95614 20.2802 6.98024 20.3038C6.99904 20.3221 7.02193 20.3369 7.04097 20.3552C7.05591 20.3697 7.07592 20.3857 7.07929 20.4035C7.08845 20.4521 7.1217 20.484 7.15086 20.518C7.28678 20.6755 7.41644 20.8388 7.57163 20.9794C7.60272 21.0075 7.62634 21.0437 7.65743 21.0718C7.69984 21.1099 7.73069 21.1558 7.7625 21.202C7.78057 21.2279 7.80612 21.2486 7.82829 21.2717C7.82926 21.2724 7.82998 21.2729 7.83046 21.2734C7.85697 21.2991 7.88348 21.3245 7.90999 21.3502C7.91529 21.3571 7.92059 21.364 7.92589 21.3707C7.93119 21.3693 7.93867 21.3647 7.9418 21.3669C7.98686 21.3969 8.03723 21.4223 8.04759 21.483L8.04663 21.4821C8.06808 21.4971 8.09001 21.5116 8.11097 21.527C8.12326 21.5361 8.13339 21.5547 8.14568 21.5556C8.22761 21.5616 8.26569 21.6279 8.31895 21.6734C8.33172 21.6844 8.34449 21.6951 8.35751 21.7058C8.37076 21.7167 8.38498 21.7265 8.39727 21.7384C8.44643 21.786 8.49511 21.8343 8.54403 21.8824C8.57319 21.869 8.58308 21.8969 8.60043 21.9085C8.61103 21.9197 8.62164 21.9307 8.63248 21.9419C8.66718 21.9554 8.69923 21.9714 8.69514 22.0206C8.67634 22.013 8.65875 22.0059 8.64116 21.9987C8.66598 22.042 8.70743 22.0613 8.74912 22.0766C8.7696 22.0839 8.78093 22.0939 8.78888 22.1118C8.80093 22.1163 8.81756 22.1177 8.82383 22.1263C8.83805 22.1458 8.82166 22.147 8.80672 22.1458C8.83588 22.166 8.86407 22.1875 8.8942 22.2058C8.91516 22.2186 8.9383 22.2277 8.96095 22.2374C8.97517 22.2434 8.98722 22.2622 9.00698 22.2465C9.01011 22.2441 9.0212 22.2489 9.02698 22.2529C9.06675 22.2817 9.10579 22.3112 9.14507 22.3405C9.19953 22.3688 9.21688 22.3824 9.23809 22.4214C9.20604 22.3957 9.17375 22.37 9.1417 22.3443C9.13181 22.3436 9.12217 22.3429 9.11229 22.3419C9.11446 22.3479 9.11639 22.354 9.11856 22.36C9.1229 22.3655 9.12724 22.3709 9.13133 22.3764C9.21423 22.4302 9.29786 22.4828 9.37931 22.5385C9.42462 22.5697 9.47089 22.5946 9.52704 22.5977C9.53981 22.5904 9.55234 22.577 9.56512 22.5768C9.5856 22.5763 9.58295 22.5961 9.58295 22.6108C9.58295 22.6163 9.58343 22.622 9.58367 22.6275C9.59934 22.6351 9.615 22.6425 9.63067 22.6501C9.63717 22.6527 9.64368 22.6553 9.65019 22.6579C9.71067 22.6913 9.77165 22.7239 9.83141 22.7581C9.84202 22.7641 9.84852 22.7769 9.85768 22.7857C9.86563 22.7931 9.87575 22.8053 9.88395 22.8045C9.94082 22.7993 9.97625 22.8405 10.0184 22.8683C9.99119 22.8569 9.96396 22.8457 9.93648 22.8343C9.93383 22.8388 9.93118 22.8436 9.92853 22.8481C9.94733 22.8624 9.96492 22.8788 9.9854 22.8902C10.0582 22.9307 10.1223 22.988 10.204 23.0114C10.2975 23.038 10.3761 23.0935 10.4618 23.1351C10.5462 23.176 10.632 23.2144 10.7173 23.2534C10.7322 23.2603 10.7465 23.2741 10.765 23.2591C10.7681 23.2567 10.7778 23.257 10.78 23.2598C10.8231 23.3119 10.8901 23.3172 10.9462 23.3436C10.9872 23.3629 11.0296 23.3788 11.0718 23.3952C11.0947 23.404 11.1183 23.4107 11.1414 23.419C11.1704 23.4293 11.1993 23.4397 11.228 23.4507C11.2405 23.4554 11.2523 23.4666 11.2646 23.4669C11.3333 23.4676 11.3889 23.5114 11.455 23.5209C11.4791 23.5244 11.502 23.5373 11.5253 23.5459C11.5641 23.5599 11.6 23.5735 11.6458 23.569C11.6839 23.5651 11.7251 23.5897 11.7649 23.6018C11.7736 23.6044 11.782 23.612 11.7904 23.6118C11.8642 23.6094 11.928 23.6411 11.9936 23.6672C12.0042 23.6715 12.015 23.6791 12.0256 23.6789C12.0999 23.6765 12.1606 23.7182 12.2281 23.7377C12.2645 23.7482 12.3025 23.7539 12.343 23.752C12.3064 23.7379 12.27 23.7239 12.2334 23.7096C12.2343 23.706 12.2351 23.7025 12.236 23.6989C12.2481 23.7013 12.2601 23.7034 12.2719 23.7065C12.2996 23.7132 12.3283 23.7291 12.3546 23.7255C12.4156 23.7172 12.4671 23.7489 12.524 23.7541C12.5293 23.7546 12.5389 23.7582 12.5389 23.7608C12.5426 23.8088 12.5847 23.7977 12.6122 23.8062C12.7113 23.8374 12.8156 23.8393 12.9168 23.8591C13.0373 23.8826 13.1578 23.9081 13.2793 23.9266C13.3448 23.9366 13.4116 23.9438 13.4788 23.9457C13.522 23.9469 13.5689 23.954 13.6133 23.9607C13.668 23.9688 13.7261 23.9861 13.7837 23.9673C13.796 23.9633 13.8104 23.965 13.8239 23.9657C13.8596 23.9673 13.8955 23.9697 13.9312 23.9726C14.0456 23.9819 14.1599 23.9954 14.2743 23.9999C14.3601 24.0033 14.4464 23.994 14.5324 23.9916C14.5611 23.9909 14.59 23.9959 14.6189 23.9954C14.7325 23.9933 14.8457 23.9899 14.9604 23.9797C14.9503 23.9769 14.9404 23.9742 14.9303 23.9714C14.9303 23.9695 14.9305 23.9676 14.9305 23.9657C14.9746 23.9702 15.019 23.9731 15.0629 23.98C15.1267 23.9902 15.1887 23.9852 15.2496 23.9642C15.2046 23.9631 15.1566 23.9802 15.1036 23.9443C15.1706 23.9443 15.225 23.9443 15.2877 23.9443C15.2694 23.9543 15.2588 23.96 15.2479 23.9657C15.267 23.9645 15.2872 23.9669 15.305 23.9614C15.3248 23.9554 15.361 23.9797 15.3631 23.9335C15.3634 23.9302 15.3911 23.9271 15.4063 23.9257C15.4347 23.9231 15.4634 23.9216 15.4925 23.9252C15.4721 23.929 15.4516 23.9326 15.4258 23.9374C15.4682 23.9609 15.513 23.9576 15.6292 23.925C15.6212 23.9226 15.6164 23.9216 15.6118 23.9197C15.6075 23.9181 15.6034 23.9157 15.5962 23.9121C15.6388 23.9045 15.6769 23.8978 15.7152 23.8912C15.7345 23.89 15.754 23.8886 15.7733 23.8874C15.7733 23.89 15.7733 23.8926 15.7733 23.8952C15.7538 23.8938 15.7345 23.8926 15.715 23.8912C15.7232 23.9266 15.7497 23.9197 15.7743 23.9159C15.8311 23.9071 15.8875 23.8967 15.9446 23.8886C15.9904 23.8821 16.0367 23.8798 16.0822 23.8721C16.11 23.8674 16.1367 23.856 16.1642 23.8486C16.1806 23.8441 16.1972 23.8403 16.2141 23.8376C16.3107 23.8226 16.4078 23.8096 16.5042 23.7931C16.5763 23.7808 16.6476 23.7653 16.7189 23.7489C16.7486 23.742 16.7768 23.7296 16.8055 23.7194C16.8127 23.7167 16.8197 23.7134 16.8269 23.7113C16.8688 23.6996 16.9108 23.6875 16.9532 23.6775C16.9713 23.6732 16.9913 23.6768 17.0091 23.6718C17.0496 23.6606 17.0891 23.6461 17.1289 23.633C17.1453 23.6275 17.1614 23.6185 17.1778 23.6175C17.2744 23.612 17.3597 23.5647 17.4528 23.5468C17.6959 23.4238 17.9687 23.3733 18.209 23.2429C18.2577 23.2165 18.3141 23.2039 18.3647 23.1808C18.4201 23.1556 18.4729 23.1242 18.5278 23.0975C18.5582 23.0828 18.5878 23.0678 18.6242 23.0649C18.6531 23.0625 18.6813 23.044 18.7083 23.0294C18.7568 23.0033 18.8021 22.974 18.8604 22.9671C18.8929 22.9633 18.9228 22.9397 18.9546 22.925C18.9529 22.9145 18.9515 22.9059 18.9498 22.8957C18.9544 22.8936 18.959 22.89 18.964 22.8893C18.9713 22.8883 18.9806 22.8921 18.9862 22.8888C19.0474 22.8538 19.1084 22.8181 19.1686 22.7817C19.1978 22.7641 19.2221 22.7374 19.2604 22.7381C19.2672 22.7381 19.2742 22.7317 19.2807 22.7279C19.3335 22.6967 19.3891 22.6696 19.4381 22.6332C19.5014 22.5858 19.5716 22.5525 19.6424 22.5197C19.6834 22.5006 19.7188 22.4766 19.7501 22.4414C19.7781 22.4095 19.8188 22.3843 19.8591 22.3683C19.913 22.3469 19.9514 22.3083 19.9947 22.2746C20.0172 22.2569 20.0405 22.2405 20.0641 22.2243C20.0911 22.206 20.1193 22.1896 20.1461 22.171C20.2374 22.1077 20.3297 22.0456 20.4189 21.9797C20.4599 21.9495 20.4934 21.9095 20.5326 21.8771C20.6052 21.8174 20.6796 21.7603 20.7531 21.7017C20.7681 21.6898 20.7898 21.6829 20.7835 21.6551C20.7821 21.6484 20.7958 21.6363 20.805 21.6301C20.8392 21.6065 20.8748 21.5846 20.9091 21.5611C20.918 21.5551 20.9257 21.5463 20.9315 21.5373C20.9406 21.5223 20.9452 21.504 20.9563 21.4906C20.9874 21.4533 21.0153 21.4111 21.0674 21.3971C21.0758 21.395 21.0852 21.3869 21.0891 21.3793C21.117 21.3217 21.1816 21.3126 21.2257 21.2769C21.2578 21.2512 21.293 21.2243 21.313 21.1903C21.3443 21.1368 21.3843 21.093 21.4301 21.0527C21.4284 21.0435 21.4219 21.0292 21.4257 21.0256C21.4513 21.0013 21.4792 20.9794 21.5062 20.9568C21.525 20.933 21.5405 20.9052 21.5634 20.8859C21.6226 20.8362 21.6638 20.7717 21.7145 20.7148C21.7737 20.6482 21.8347 20.5827 21.8933 20.5154C21.9092 20.4973 21.9176 20.473 21.9311 20.4528C21.9489 20.4264 21.9685 20.4009 21.988 20.3757C22.0239 20.3293 22.0615 20.2838 22.0964 20.2367C22.1058 20.2238 22.1046 20.2024 22.1152 20.1915C22.1328 20.1732 22.1381 20.1389 22.1772 20.1429C22.1863 20.1439 22.2051 20.1234 22.2066 20.1113C22.2109 20.0761 22.2364 20.0565 22.2552 20.0311C22.3198 19.9437 22.3825 19.855 22.4454 19.7664C22.4516 19.7576 22.4545 19.7462 22.4591 19.7362C22.4492 19.7419 22.4391 19.7474 22.4292 19.7531C22.4275 19.751 22.4261 19.7488 22.4244 19.7464C22.4367 19.7307 22.4488 19.715 22.461 19.6993C22.4627 19.7005 22.4644 19.7017 22.4661 19.7029C22.463 19.7131 22.4601 19.725 22.4569 19.7367ZM13.3378 21.3188C13.3646 21.3226 13.3911 21.3267 13.4178 21.3305C13.4251 21.3321 13.4325 21.3345 13.44 21.3355C13.5379 21.3476 13.6357 21.359 13.7335 21.3721C13.7429 21.3733 13.7514 21.3826 13.7605 21.3881C13.7904 21.3864 13.8203 21.3845 13.8502 21.3828C13.8502 21.3859 13.8502 21.3893 13.8502 21.3923C13.8203 21.3909 13.7904 21.3895 13.7605 21.3881C13.6567 21.3747 13.553 21.3616 13.4494 21.3474C13.4386 21.3459 13.4292 21.3359 13.4186 21.3302C13.3901 21.3357 13.361 21.35 13.3378 21.3188C13.3087 21.3195 13.2793 21.3205 13.2499 21.3214C13.1903 21.3083 13.1311 21.2952 13.0715 21.2822C12.9359 21.2629 12.8036 21.2298 12.6722 21.1927C12.6785 21.1886 12.6843 21.1877 12.6896 21.1889C12.8108 21.2158 12.932 21.2427 13.053 21.2703C13.0595 21.2717 13.0648 21.2786 13.0708 21.2829C13.1315 21.2691 13.186 21.2991 13.2436 21.3067C13.2463 21.3069 13.2477 21.3164 13.2499 21.3217C13.2795 21.3207 13.3087 21.3198 13.3378 21.3188ZM5.77384 16.9308C5.7401 16.9082 5.73504 16.8894 5.74974 16.8387C5.74492 16.8361 5.73697 16.8342 5.73552 16.8304C5.72396 16.7985 5.71239 16.7666 5.70299 16.734C5.69383 16.7024 5.68756 16.6703 5.67985 16.6384C5.68395 16.6374 5.68805 16.6365 5.69214 16.6355C5.69648 16.6553 5.70106 16.6753 5.7054 16.695C5.70684 16.7021 5.70805 16.7095 5.70926 16.7169C5.71986 16.7148 5.73046 16.7117 5.73167 16.7286C5.73263 16.7416 5.73504 16.7547 5.73697 16.7678C5.74082 16.7916 5.74492 16.8157 5.74829 16.8402C5.75673 16.8704 5.76492 16.9009 5.77287 16.9313C5.77673 16.948 5.78035 16.9646 5.7842 16.9813C5.77962 16.9813 5.77529 16.9813 5.77071 16.9813C5.77167 16.9644 5.77288 16.9477 5.77384 16.9308ZM8.4915 7.83127C8.50307 7.82127 8.51463 7.81104 8.5262 7.80104C8.52885 7.80414 8.53126 7.80699 8.53391 7.81009C8.52162 7.81913 8.50933 7.82818 8.49704 7.83722C8.44668 7.89505 8.44668 7.89505 8.40522 7.89648C8.43848 7.87149 8.46499 7.8515 8.4915 7.83127ZM5.92615 10.9986C5.93964 10.9836 5.95314 10.9689 5.97169 10.9484C5.97169 10.9636 5.97169 10.9708 5.97169 10.9779C5.9835 10.9591 5.99772 10.9415 6.00712 10.9215C6.07146 10.7816 6.13243 10.6402 6.21702 10.5105C6.22522 10.4981 6.22763 10.4822 6.23438 10.4686C6.25293 10.4315 6.27149 10.3946 6.29149 10.3582C6.3033 10.3368 6.31872 10.3175 6.33077 10.2963C6.37439 10.2183 6.41705 10.1397 6.46066 10.0619C6.4679 10.0488 6.47874 10.0376 6.48814 10.0257C6.51392 9.99312 6.54067 9.96123 6.56453 9.9272C6.57056 9.91863 6.5667 9.90316 6.56742 9.89079V9.89198C6.57514 9.87508 6.58068 9.85676 6.5908 9.84129C6.62936 9.78274 6.67009 9.72563 6.70816 9.66684C6.72841 9.63567 6.73901 9.59616 6.76431 9.57022C6.82673 9.50644 6.86963 9.43029 6.91686 9.35699C6.96024 9.2894 7.00844 9.22657 7.06869 9.17303C7.06989 9.17231 7.07206 9.17112 7.07519 9.16898C7.09158 9.16898 7.10797 9.16898 7.13134 9.16898C7.12363 9.18112 7.12026 9.18707 7.11616 9.19278C7.07375 9.25394 7.03133 9.31486 6.98892 9.37603C6.94458 9.44028 6.90457 9.50787 6.85541 9.56808C6.73347 9.71849 6.66165 9.90031 6.53875 10.0502C6.51537 10.0786 6.50669 10.1183 6.48934 10.1519C6.45536 10.2175 6.41729 10.2801 6.39126 10.3506C6.37222 10.4027 6.35559 10.465 6.29197 10.4879C6.28474 10.589 6.26329 10.6345 6.18786 10.713C6.18256 10.7185 6.17871 10.7252 6.17509 10.7321C6.12304 10.8315 6.0664 10.9291 6.02061 11.0314C5.95844 11.1702 5.90542 11.3127 5.84638 11.4529C5.81649 11.5243 5.78227 11.5938 5.74974 11.664C5.73721 11.6911 5.72468 11.718 5.7066 11.7568C5.7013 11.733 5.69841 11.7211 5.69576 11.7095C5.68443 11.7395 5.67311 11.7694 5.65744 11.8113C5.6519 11.7751 5.67648 11.7525 5.65069 11.7304C5.64611 11.7266 5.65358 11.7057 5.65961 11.6947C5.66347 11.6876 5.67479 11.685 5.68202 11.6795C5.68877 11.6745 5.69455 11.6685 5.70877 11.6557C5.70251 11.6747 5.7001 11.6819 5.69769 11.689C5.73094 11.6612 5.73866 11.6226 5.73914 11.5829C5.73962 11.5431 5.75311 11.5098 5.78493 11.4827C5.783 11.4955 5.78131 11.5086 5.77938 11.5215C5.78926 11.5122 5.79529 11.5024 5.79914 11.4919C5.82059 11.432 5.81409 11.3634 5.85602 11.3094C5.85963 11.3049 5.8553 11.2947 5.85626 11.2873C5.85819 11.2728 5.85939 11.2575 5.86445 11.2437C5.89241 11.1683 5.92133 11.0933 5.94976 11.0181C5.94302 11.0203 5.93627 11.0222 5.92759 11.025C5.92759 11.0148 5.92759 11.0057 5.92759 10.9967C5.91699 11.0036 5.90639 11.0103 5.89602 11.0172C5.89409 11.015 5.89217 11.0129 5.89024 11.0105C5.89964 10.996 5.90928 10.9815 5.92566 10.956C5.92615 10.9808 5.92615 10.9898 5.92615 10.9986ZM8.29919 8.01856C8.28304 8.03308 8.2669 8.0476 8.25075 8.06235C8.24834 8.05926 8.24593 8.05593 8.24328 8.05283C8.26063 8.04022 8.27822 8.02761 8.29557 8.01475C8.31582 7.9862 8.34257 7.96573 8.37486 7.95217C8.35895 7.98477 8.33148 8.00452 8.29919 8.01856ZM6.82745 13.2012C6.82336 13.224 6.81926 13.2471 6.81324 13.2816C6.79082 13.2395 6.81805 13.2233 6.8289 13.2023C6.81275 13.139 6.81998 13.0784 6.84697 13.0134C6.84697 13.0634 6.8489 13.1069 6.84601 13.1502C6.84505 13.1674 6.83396 13.184 6.82745 13.2012ZM8.49752 18.5579C8.58814 18.6593 8.67923 18.7605 8.76936 18.8621C8.77635 18.8699 8.779 18.8818 8.78358 18.8918C8.7937 18.9002 8.80431 18.9075 8.8137 18.9166C8.89805 18.9996 8.98168 19.0832 9.06602 19.1662C9.13832 19.2372 9.21134 19.3074 9.28364 19.378C9.28677 19.3811 9.28798 19.3861 9.2899 19.3902C9.27665 19.3883 9.26773 19.3826 9.26026 19.3754C9.10916 19.2267 8.95806 19.0779 8.80768 18.9285C8.79756 18.9185 8.79153 18.9042 8.78358 18.8918C8.77081 18.8816 8.75611 18.873 8.7455 18.8609C8.68478 18.7933 8.62429 18.7253 8.565 18.6565C8.53922 18.6265 8.51632 18.5941 8.49198 18.5629C8.47656 18.5439 8.46089 18.5249 8.44547 18.5058C8.43246 18.492 8.41848 18.4789 8.40691 18.4642C7.92035 17.8535 7.53428 17.186 7.24967 16.4613C7.2422 16.4423 7.23907 16.4216 7.23376 16.4016C7.21449 16.3568 7.19304 16.3128 7.17641 16.2671C7.00675 15.8009 6.88626 15.3223 6.80866 14.833C6.79034 14.7181 6.77757 14.6022 6.76239 14.4867C6.79395 14.5305 6.78938 14.5803 6.79588 14.6288C6.81685 14.7849 6.8395 14.9411 6.86794 15.096C6.88867 15.2095 6.91734 15.3221 6.9465 15.4339C6.98313 15.5755 7.02338 15.7162 7.0629 15.8568C7.06628 15.8685 7.07278 15.8816 7.08194 15.889C7.12363 15.9216 7.12315 15.967 7.12436 16.0125C7.12484 16.0306 7.12363 16.0494 7.12893 16.0662C7.16026 16.1641 7.19352 16.2612 7.22533 16.3587C7.22991 16.3725 7.23039 16.3878 7.2328 16.4023C7.23834 16.4066 7.2463 16.4099 7.24871 16.4156C7.26534 16.4515 7.2822 16.4875 7.29594 16.5246C7.43764 16.9035 7.62562 17.2602 7.83239 17.6072C8.01217 17.909 8.2134 18.1967 8.43318 18.4716C8.44017 18.4804 8.44499 18.4906 8.45101 18.5004C8.46644 18.5201 8.48186 18.5389 8.49752 18.5579ZM8.16134 9.57641C8.19412 9.53762 8.23894 9.50359 8.25605 9.45885C8.26858 9.426 8.28545 9.39959 8.30545 9.37436C8.34208 9.32819 8.38209 9.28464 8.42113 9.24014C8.42499 9.23562 8.43173 9.23371 8.44933 9.22324C8.43872 9.24371 8.43559 9.25227 8.43053 9.25918C8.37221 9.33938 8.31413 9.41982 8.25436 9.49906C8.2293 9.53214 8.20014 9.56237 8.17291 9.59402C8.16423 9.61496 8.15845 9.63781 8.1464 9.65661C8.09121 9.74347 8.03434 9.82963 7.97746 9.91554C7.96855 9.9291 7.95722 9.941 7.9471 9.95385C7.94469 9.9529 7.94252 9.95171 7.94011 9.95076C7.94445 9.93648 7.94855 9.9222 7.95602 9.89769C7.93168 9.92934 7.91384 9.95147 7.89746 9.97456C7.8924 9.9817 7.88685 9.9955 7.88999 9.99955C7.91167 10.0262 7.89167 10.0464 7.88034 10.0667C7.83046 10.1564 7.7813 10.2468 7.72828 10.3349C7.70105 10.3801 7.68972 10.4386 7.63068 10.4605C7.62634 10.4622 7.62417 10.4696 7.62128 10.4746C7.60562 10.5005 7.58923 10.5262 7.57477 10.5529C7.56802 10.5652 7.56537 10.5798 7.56079 10.5931C7.56224 10.5933 7.56368 10.5936 7.56513 10.5936C7.57887 10.5733 7.5926 10.5531 7.60634 10.5329C7.61019 10.535 7.61381 10.5374 7.61766 10.5395C7.59597 10.5831 7.57429 10.6264 7.55284 10.6699C7.55043 10.6764 7.54826 10.683 7.54585 10.6895C7.54199 10.7037 7.54055 10.7194 7.53404 10.7323C7.50657 10.7863 7.47741 10.8396 7.44873 10.8932C7.44246 10.9048 7.43403 10.9158 7.42993 10.9279C7.41065 10.9862 7.41547 11.0574 7.34125 11.0852C7.32221 11.1304 7.29353 11.1719 7.29016 11.2233C7.3092 11.1928 7.32799 11.1623 7.34703 11.1321C7.33691 11.1759 7.31185 11.2133 7.30245 11.2542C7.29209 11.2994 7.27594 11.3404 7.25328 11.3799H7.25401C7.23883 11.4148 7.2316 11.4567 7.20702 11.4831C7.15135 11.5431 7.14894 11.6212 7.11496 11.6897C7.12749 11.6916 7.13472 11.6928 7.14773 11.6949C7.13568 11.7218 7.13134 11.7552 7.11279 11.7673C7.08242 11.7873 7.07399 11.8147 7.07061 11.8427C7.06579 11.8839 7.04844 11.9203 7.0376 11.9589C7.0029 12.0833 6.97759 12.2102 6.94867 12.3361C6.94289 12.3618 6.93831 12.3877 6.93204 12.4132C6.91903 12.466 6.9024 12.5181 6.89276 12.5717C6.88071 12.6395 6.89011 12.7111 6.85372 12.7742C6.82986 12.9644 6.80408 13.1545 6.78311 13.3449C6.77179 13.4468 6.76672 13.5496 6.76311 13.6519C6.75684 13.8268 6.75395 14.0017 6.74986 14.1767C6.74937 14.1988 6.74986 14.2207 6.74986 14.2428C6.74576 14.2428 6.74142 14.2428 6.73732 14.2428C6.73323 14.1424 6.7231 14.042 6.72624 13.9418C6.73274 13.7442 6.74311 13.5465 6.75781 13.3494C6.78287 13.0134 6.8342 12.6809 6.90963 12.352C6.94024 12.2185 6.96964 12.0848 7.0082 11.9534C7.05182 11.8042 7.10869 11.6588 7.15279 11.5096C7.18629 11.3965 7.22003 11.2842 7.27353 11.178C7.2851 11.1547 7.28871 11.1276 7.29642 11.1024C7.30076 11.0879 7.30486 11.0731 7.31137 11.0595C7.37836 10.9165 7.44656 10.7739 7.51283 10.6307C7.60007 10.4417 7.70177 10.2611 7.81865 10.0886C7.82709 10.0759 7.84251 10.0605 7.8401 10.0495C7.83263 10.0174 7.85504 10.0007 7.86878 9.97956C7.89673 9.93648 7.92541 9.89364 7.95433 9.85104C7.96035 9.842 7.96855 9.83415 7.97698 9.82725C8.02542 9.7875 8.07145 9.74609 8.09025 9.6835C8.08687 9.67446 8.07796 9.66185 8.08109 9.65709C8.10615 9.62044 8.13339 9.58545 8.16664 9.54143C8.16664 9.55832 8.16737 9.56213 8.1664 9.5657C8.16568 9.57022 8.16327 9.57332 8.16134 9.57641ZM9.84346 7.32246C9.82563 7.31841 9.80755 7.31437 9.78972 7.31032C9.84949 7.25987 9.84949 7.26034 9.9319 7.23607C9.94805 7.23131 9.96323 7.22179 9.97793 7.21322C9.99938 7.20061 10.0196 7.18609 10.0408 7.17348C10.0485 7.16896 10.0618 7.16229 10.0666 7.16539C10.1028 7.18942 10.1273 7.16348 10.1551 7.14873C10.1635 7.14421 10.1731 7.1423 10.1823 7.13921C10.1623 7.17467 10.1266 7.18347 10.0946 7.19228C10.0006 7.21822 9.92154 7.27034 9.84153 7.32198C9.74104 7.3948 9.64055 7.46739 9.54029 7.54021C9.52029 7.55473 9.5015 7.57139 9.48077 7.58495C9.46004 7.59852 9.43739 7.60899 9.41618 7.6216C9.39498 7.63398 9.37425 7.64731 9.35328 7.66016C9.48703 7.51856 9.65404 7.42384 9.81671 7.32341C9.82346 7.3196 9.83479 7.3227 9.84346 7.32246ZM5.67335 11.9022C5.67624 11.8801 5.67913 11.8582 5.68178 11.8361C5.68588 11.8368 5.68998 11.8377 5.69407 11.8385C5.69552 11.8618 5.68732 11.8825 5.67214 11.9013C5.66371 11.936 5.65744 11.9712 5.64635 12.0053C5.62635 12.0679 5.60683 12.1312 5.58081 12.1916C5.56225 12.2349 5.53671 12.2747 5.53381 12.3239C5.53309 12.3377 5.53285 12.3592 5.49766 12.3594C5.52441 12.3006 5.51309 12.2411 5.53261 12.1833C5.54899 12.1352 5.58225 12.0914 5.57912 12.0374C5.58056 12.0277 5.58225 12.0179 5.5837 12.0081C5.60201 11.9532 5.62057 11.8979 5.64057 11.8377C5.65599 11.8623 5.63696 11.8963 5.67335 11.9022ZM9.98613 19.9549C10.0223 19.9747 10.0599 19.9925 10.0946 20.0149C10.1751 20.0665 10.2536 20.1213 10.3344 20.1724C10.4052 20.2174 10.4843 20.2522 10.5488 20.3043C10.6081 20.3521 10.6768 20.379 10.7409 20.4159C10.8204 20.4618 10.9021 20.5042 10.9826 20.5485C11.033 20.5761 11.0831 20.6044 11.1332 20.6325C11.1231 20.6367 11.1161 20.6348 11.1099 20.6317C10.7243 20.4445 10.357 20.2267 10.0085 19.9782C9.99986 19.9721 9.99432 19.9621 9.98709 19.954C9.97528 19.9487 9.96179 19.9456 9.95191 19.938C9.83455 19.849 9.71766 19.7593 9.60102 19.6696C9.59476 19.6648 9.5909 19.657 9.58319 19.6467C9.61018 19.6479 9.63115 19.6439 9.64079 19.6712C9.64488 19.6827 9.65693 19.6924 9.6673 19.7005C9.75429 19.7686 9.83888 19.84 9.93311 19.8988C9.95456 19.9118 9.96878 19.9359 9.98613 19.9549ZM5.54562 13.5562L5.54369 13.5584C5.53333 13.5053 5.55647 13.457 5.57068 13.4087C5.58177 13.3711 5.58683 13.3363 5.58297 13.2978C5.58056 13.2745 5.58659 13.2497 5.59189 13.2261C5.59743 13.2007 5.60804 13.1764 5.61382 13.1509C5.62322 13.1098 5.62708 13.0669 5.65913 13.0336C5.65455 13.0769 5.64539 13.119 5.63575 13.1612C5.63382 13.1702 5.62563 13.1847 5.62876 13.1871C5.66515 13.2176 5.6384 13.249 5.62828 13.2771C5.61503 13.3135 5.60756 13.3494 5.61093 13.388C5.61213 13.4027 5.60804 13.4182 5.60563 13.4332C5.5902 13.5358 5.57213 13.6381 5.55984 13.7411C5.5449 13.867 5.53526 13.9934 5.52297 14.1193C5.52176 14.1319 5.51887 14.1443 5.5167 14.1569C5.51429 14.1236 5.50754 14.0924 5.51357 14.0577C5.52731 13.9782 5.52441 13.8956 5.52851 13.8144C5.49839 13.7804 5.52273 13.7526 5.53646 13.7214C5.54514 13.7021 5.55285 13.6733 5.54442 13.6574C5.52538 13.621 5.53767 13.5895 5.54562 13.5562ZM5.42609 12.9251C5.40633 12.8901 5.42681 12.863 5.43983 12.8344C5.44392 12.8354 5.44802 12.8363 5.45236 12.8373C5.44344 12.8665 5.43476 12.8958 5.42585 12.9251C5.41332 12.9791 5.40079 13.0331 5.38825 13.0879C5.38343 13.0791 5.3791 13.0707 5.37066 13.0553C5.36536 13.0741 5.36174 13.0845 5.35958 13.0955C5.33524 13.2185 5.3109 13.3416 5.2868 13.4646C5.28559 13.4713 5.28439 13.481 5.28824 13.4855C5.31885 13.522 5.29812 13.565 5.28391 13.5912C5.26583 13.625 5.26703 13.6548 5.26655 13.6876C5.26631 13.7064 5.26896 13.7269 5.26294 13.744C5.23137 13.8351 5.23137 13.9308 5.22101 14.0248C5.21426 14.0862 5.21257 14.1483 5.2092 14.2102C5.20703 14.2514 5.20462 14.2926 5.20462 14.3337C5.20462 14.3504 5.21329 14.368 5.18944 14.3763C5.18727 14.377 5.18799 14.387 5.18775 14.3927C5.18582 14.4387 5.17594 14.4829 5.19546 14.5305C5.20727 14.5593 5.19498 14.5979 5.19353 14.6322C5.19281 14.6474 5.18317 14.6602 5.21136 14.669C5.23691 14.6769 5.24077 14.7278 5.21908 14.739C5.18727 14.7554 5.19618 14.779 5.19883 14.8023C5.20052 14.8171 5.20896 14.8318 5.20775 14.8461C5.20004 14.9427 5.2251 15.0386 5.21209 15.136C5.20703 15.1736 5.2251 15.2138 5.22751 15.2531C5.23064 15.2999 5.22848 15.3473 5.22799 15.3944C5.22799 15.4027 5.22438 15.4108 5.22245 15.4192C5.21811 15.4194 5.21378 15.4194 5.20944 15.4196C5.20317 15.3854 5.19016 15.3506 5.19184 15.3166C5.19883 15.1812 5.18124 15.0472 5.17208 14.9125C5.1704 14.8863 5.16317 14.8585 5.16992 14.8347C5.17715 14.8092 5.15811 14.7942 5.15763 14.7752C5.15594 14.7031 5.15425 14.6305 5.16148 14.5591C5.16967 14.4765 5.15714 14.3937 5.17401 14.3114C5.18413 14.2619 5.17883 14.209 5.1798 14.1579C5.18004 14.1469 5.18052 14.1329 5.17449 14.1255C5.15787 14.105 5.16847 14.0872 5.17257 14.0667C5.17835 14.0367 5.20414 14.0127 5.19642 13.9784C5.18172 13.9125 5.18799 13.8473 5.20414 13.7818C5.22101 13.7128 5.25619 13.6464 5.23354 13.5707C5.22896 13.5555 5.24197 13.5348 5.24751 13.5167C5.25402 13.4953 5.26342 13.4744 5.26703 13.4525C5.28149 13.3687 5.3015 13.2859 5.30415 13.1997C5.30511 13.1678 5.30656 13.1367 5.30246 13.105C5.30005 13.0872 5.29812 13.0681 5.30222 13.051C5.31981 12.9753 5.3403 12.9001 5.35837 12.8244C5.36536 12.7954 5.37114 12.7678 5.39331 12.7442C5.40464 12.7323 5.41525 12.7011 5.40922 12.695C5.38416 12.6693 5.40295 12.6605 5.42031 12.6481C5.42633 12.6438 5.43669 12.6362 5.43573 12.6331C5.42175 12.5922 5.46296 12.5693 5.4673 12.5353C5.46971 12.5177 5.47164 12.4981 5.46634 12.482C5.45718 12.4551 5.47212 12.4398 5.4873 12.4239C5.4967 12.4141 5.50899 12.4068 5.52225 12.3965C5.51791 12.417 5.51429 12.4353 5.51044 12.4536C5.49357 12.5298 5.50562 12.6112 5.46778 12.6838C5.46441 12.6904 5.47019 12.7014 5.47019 12.7104C5.47019 12.7226 5.4726 12.7366 5.46754 12.7468C5.45862 12.7652 5.44585 12.7818 5.43308 12.7978C5.39693 12.842 5.39428 12.8865 5.42609 12.9251ZM12.5544 21.1613C12.0914 21.0463 11.6468 20.8854 11.2202 20.6763C11.6548 20.8666 12.0987 21.0313 12.5544 21.1613ZM5.72636 12.7699C5.72395 12.769 5.72154 12.7683 5.71914 12.7673C5.71721 12.7528 5.72034 12.7342 5.71239 12.7242C5.68949 12.6952 5.69817 12.6666 5.70757 12.6376C5.72227 12.5924 5.73841 12.5476 5.75408 12.5027C5.76034 12.4846 5.77239 12.4663 5.77143 12.4486C5.76781 12.3877 5.8071 12.3451 5.82372 12.2963C5.8606 12.3525 5.783 12.3991 5.81649 12.4558C5.80252 12.4803 5.79023 12.5058 5.77408 12.5288C5.75239 12.5603 5.73649 12.5919 5.74733 12.645C5.76034 12.611 5.76878 12.5891 5.77721 12.5674C5.78107 12.5691 5.78493 12.5707 5.78854 12.5724C5.76781 12.6383 5.74709 12.7042 5.72636 12.7699ZM8.79973 8.83318C8.79756 8.82819 8.79563 8.82343 8.79346 8.81843C8.85371 8.75774 8.91396 8.69658 8.97493 8.63637C8.97927 8.63209 8.98939 8.63351 9.00192 8.63161C8.94143 8.69872 8.886 8.7606 8.82937 8.82176C8.82286 8.82866 8.80961 8.82961 8.79973 8.83318ZM9.23423 7.81199C9.24773 7.79771 9.25255 7.792 9.25809 7.78724C9.29906 7.75131 9.34967 7.72727 9.38076 7.67896C9.3916 7.66206 9.41811 7.65492 9.44727 7.63755C9.41426 7.70323 9.30605 7.79153 9.23423 7.81199ZM6.76865 13.6269C6.77034 13.6048 6.77082 13.5824 6.77371 13.5603C6.77709 13.536 6.78311 13.5124 6.78721 13.4882C6.79034 13.4689 6.79203 13.4494 6.79444 13.4299C6.80239 13.4979 6.7995 13.5643 6.76865 13.6269ZM13.2142 23.8862C13.2147 23.8812 13.2154 23.8762 13.2159 23.8712C13.2877 23.8705 13.3578 23.8852 13.4268 23.909C13.3559 23.9014 13.2851 23.8938 13.2142 23.8862ZM14.8397 21.4195C14.839 21.4209 14.8382 21.4226 14.8378 21.424C14.7488 21.424 14.6597 21.424 14.5707 21.424C14.5707 21.4226 14.5707 21.4209 14.5707 21.4195C14.6602 21.4195 14.7498 21.4195 14.8397 21.4195ZM8.6414 8.33651C8.6385 8.33342 8.63537 8.33008 8.63248 8.32699C8.67586 8.27606 8.72357 8.22989 8.78695 8.20015C8.73827 8.24536 8.68984 8.29105 8.6414 8.33651ZM7.31329 20.6394C7.24919 20.6391 7.23859 20.5994 7.23931 20.5411C7.26702 20.578 7.29016 20.6087 7.31329 20.6394ZM21.1696 7.91195C21.1734 7.90814 21.1773 7.90457 21.1811 7.90076C21.2252 7.94693 21.2734 7.98929 21.3118 8.0407C21.3084 8.04379 21.305 8.04664 21.3016 8.04974C21.2575 8.00381 21.2137 7.95788 21.1696 7.91195ZM5.26342 14.0524C5.21932 14.0024 5.24824 13.9613 5.28077 13.9144C5.27451 13.9641 5.26896 14.0079 5.26342 14.0524ZM10.2425 7.12826C10.2797 7.10542 10.3165 7.08257 10.3536 7.05972C10.3385 7.11851 10.2862 7.11612 10.2425 7.12826ZM10.3826 23.0206C10.385 23.0168 10.3876 23.013 10.39 23.0092C10.4315 23.0311 10.4732 23.053 10.5146 23.0749C10.4633 23.0739 10.4633 23.0739 10.3826 23.0206ZM5.5784 17.2652C5.57189 17.2267 5.56659 17.1964 5.56153 17.1662C5.58201 17.195 5.6172 17.2205 5.5784 17.2652ZM6.67515 15.9287C6.64984 15.8682 6.64213 15.8321 6.64575 15.7911C6.67201 15.8397 6.68117 15.8828 6.67515 15.9287ZM14.0808 21.414C14.1777 21.3959 14.2107 21.3966 14.2367 21.414C14.1837 21.414 14.1324 21.414 14.0808 21.414ZM14.3158 21.424C14.3158 21.4223 14.3158 21.4204 14.3158 21.4188C14.3695 21.4188 14.4235 21.4188 14.4772 21.4188C14.4772 21.4204 14.4772 21.4223 14.4772 21.424C14.4235 21.424 14.3695 21.424 14.3158 21.424ZM5.43284 16.6726C5.42826 16.6277 5.42392 16.5824 5.41934 16.5375C5.45091 16.5803 5.43621 16.6269 5.43284 16.6726ZM9.34148 22.4654C9.30051 22.4876 9.28966 22.4547 9.26822 22.4402C9.29858 22.4159 9.29858 22.4159 9.34148 22.4654ZM7.14628 9.36151C7.13424 9.37222 7.12339 9.38245 7.11182 9.39173C7.1005 9.40102 7.08893 9.40982 7.07736 9.41886C7.07543 9.41648 7.07351 9.41434 7.07158 9.41196C7.08724 9.38935 7.10315 9.36698 7.11978 9.34318C7.12966 9.35009 7.13713 9.35508 7.14628 9.36151ZM9.66007 7.51689C9.62898 7.53379 9.59789 7.55092 9.56704 7.56782C9.58849 7.5345 9.61452 7.5088 9.66007 7.51689ZM5.65286 12.9479C5.66081 12.9227 5.66347 12.8965 5.68443 12.8792C5.67913 12.9041 5.69624 12.9398 5.65286 12.9479ZM12.8199 23.8184C12.8192 23.8229 12.8185 23.8274 12.8178 23.8319C12.7881 23.8262 12.7587 23.8205 12.719 23.8126C12.7638 23.7886 12.7915 23.8062 12.8199 23.8184ZM8.49174 9.18254C8.5062 9.13923 8.52186 9.12828 8.56476 9.12281C8.53608 9.14613 8.51391 9.16422 8.49174 9.18254ZM6.1011 17.8787C6.13027 17.9035 6.12665 17.9313 6.11557 17.9677C6.10858 17.9344 6.07893 17.9123 6.1011 17.8787ZM5.93699 18.631C5.97965 18.6627 5.98182 18.6686 5.97748 18.7167C5.96229 18.6843 5.94952 18.6577 5.93699 18.631ZM9.31015 19.4211C9.35521 19.4368 9.37449 19.4528 9.39907 19.4989C9.37112 19.4747 9.3434 19.4504 9.31015 19.4211ZM9.06819 8.56093C9.06482 8.55736 9.06144 8.55379 9.05807 8.55022C9.07952 8.52999 9.10073 8.50976 9.12217 8.48953C9.11952 8.52785 9.09422 8.54475 9.06819 8.56093ZM10.0924 22.9093C10.0948 22.9059 10.0975 22.9024 10.0999 22.899C10.129 22.9154 10.1582 22.9319 10.1876 22.948C10.1461 22.9535 10.1211 22.9278 10.0924 22.9093ZM21.9885 8.75727C21.9545 8.77892 21.9403 8.77131 21.9333 8.74965C21.9316 8.74442 21.9371 8.7368 21.9393 8.73014C21.9538 8.73799 21.968 8.74584 21.9885 8.75727ZM6.36041 19.0013C6.32812 18.9866 6.30764 18.9654 6.31462 18.9235C6.33149 18.9525 6.34595 18.977 6.36041 19.0013ZM5.37428 16.3292C5.36897 16.3304 5.36367 16.3318 5.35837 16.333C5.35379 16.3049 5.34921 16.2766 5.34464 16.2485C5.34945 16.2476 5.35403 16.2469 5.35885 16.2459C5.36391 16.2738 5.36897 16.3016 5.37428 16.3292ZM15.0619 21.4095C15.0619 21.4104 15.0619 21.4114 15.0619 21.4123C15.0301 21.4123 14.998 21.4123 14.9662 21.4123C14.9662 21.4114 14.9662 21.4104 14.9662 21.4095C14.998 21.4095 15.0298 21.4095 15.0619 21.4095ZM5.87168 17.9061C5.90615 17.963 5.90614 17.963 5.8847 17.9839C5.88036 17.9592 5.8765 17.9359 5.87168 17.9061ZM9.42004 19.517C9.42293 19.5137 9.42582 19.5104 9.42847 19.507C9.45209 19.5275 9.47571 19.5482 9.49932 19.5687C9.49667 19.5718 9.49426 19.5746 9.49161 19.5777C9.46776 19.5575 9.4439 19.5373 9.42004 19.517ZM6.96554 19.5268C6.92867 19.5018 6.92867 19.5018 6.93277 19.4661C6.94265 19.4842 6.95229 19.5023 6.96554 19.5268ZM5.55382 17.6389C5.54851 17.6405 5.54321 17.6419 5.53767 17.6436C5.53116 17.6193 5.52441 17.5953 5.51791 17.571C5.52201 17.5698 5.52586 17.5686 5.52996 17.5675C5.53791 17.5913 5.54586 17.6151 5.55382 17.6389ZM5.54514 17.0553C5.54152 17.0565 5.53791 17.0579 5.53405 17.0591C5.52465 17.0346 5.51525 17.0099 5.5061 16.9853C5.51019 16.9839 5.51453 16.9825 5.51863 16.9811C5.52755 17.0058 5.53622 17.0306 5.54514 17.0553ZM5.69335 18.092C5.69696 18.0903 5.70082 18.0886 5.70444 18.087C5.71239 18.112 5.73866 18.1286 5.72468 18.1631C5.71431 18.1396 5.70395 18.1158 5.69335 18.092ZM22.2492 12.3377C22.2456 12.3385 22.242 12.3394 22.2384 12.3401C22.2336 12.3199 22.2285 12.2997 22.2237 12.2794C22.2282 12.2785 22.2328 12.2773 22.2374 12.2763C22.2413 12.2968 22.2451 12.3173 22.2492 12.3377ZM13.9218 21.4012C13.9218 21.4 13.9218 21.399 13.9218 21.3978C13.9471 21.3978 13.9724 21.3978 13.9977 21.3978C13.9977 21.399 13.9977 21.4 13.9977 21.4012C13.9724 21.4012 13.9471 21.4012 13.9218 21.4012ZM13.1262 23.8636C13.1041 23.8626 13.0821 23.8614 13.06 23.8605C13.0894 23.8414 13.0894 23.8414 13.1262 23.8636ZM5.58129 16.1084C5.57671 16.1084 5.57213 16.1081 5.56731 16.1081C5.56394 16.0784 5.56056 16.0486 5.55719 16.0189C5.5596 16.0187 5.56201 16.0184 5.56442 16.0182C5.5702 16.0482 5.57574 16.0784 5.58129 16.1084ZM5.19715 13.4006C5.19185 13.3996 5.18654 13.3984 5.18124 13.3975C5.18678 13.3785 5.19233 13.3594 5.19787 13.3404C5.20197 13.3413 5.20606 13.3425 5.2104 13.3435C5.20606 13.3627 5.20173 13.3815 5.19715 13.4006ZM11.0438 6.40289C11.0462 6.40836 11.0487 6.41383 11.0511 6.41931C11.0315 6.42668 11.012 6.43382 10.9925 6.4412C10.9911 6.43739 10.9894 6.43359 10.9879 6.42978C11.0065 6.42097 11.025 6.41193 11.0438 6.40289ZM10.1777 7.09613C10.1799 7.10042 10.1823 7.10446 10.1845 7.10875C10.1645 7.11874 10.1442 7.12874 10.1242 7.13873C10.1225 7.1354 10.1208 7.13231 10.1192 7.12898C10.1387 7.11779 10.1582 7.10684 10.1777 7.09613ZM14.3975 21.4023C14.3977 21.3978 14.398 21.3935 14.3982 21.389C14.416 21.3819 14.4339 21.3724 14.4539 21.4047C14.4322 21.4038 14.4148 21.4031 14.3975 21.4023ZM8.91275 22.1839C8.89347 22.1708 8.87419 22.1575 8.85467 22.1444C8.85756 22.1401 8.8607 22.136 8.86359 22.1318C8.88697 22.1394 8.90335 22.157 8.91275 22.1839ZM7.58634 8.64589C7.58899 8.64851 7.59164 8.65113 7.59429 8.65374C7.57935 8.66993 7.56417 8.68611 7.54922 8.70205C7.54633 8.6992 7.5432 8.69634 7.54031 8.69349C7.55573 8.67754 7.57115 8.66183 7.58634 8.64589ZM8.54138 21.5996C8.53873 21.603 8.53608 21.6063 8.53319 21.6099C8.51006 21.5972 8.48957 21.5811 8.47342 21.5594C8.47608 21.5561 8.47849 21.553 8.48114 21.5497C8.50114 21.5663 8.52114 21.583 8.54138 21.5996ZM7.8589 19.825C7.86227 19.8224 7.86564 19.8197 7.86878 19.8171C7.87914 19.8305 7.8895 19.844 7.89987 19.8573C7.89721 19.8592 7.8948 19.8614 7.89215 19.8633C7.88107 19.8507 7.86998 19.8378 7.8589 19.825ZM9.69501 7.47762C9.69164 7.47263 9.68826 7.46763 9.68489 7.46287C9.69863 7.45406 9.71236 7.44526 9.72586 7.43669C9.72851 7.44026 9.73116 7.44359 9.73357 7.44716C9.7208 7.45716 9.70778 7.46739 9.69501 7.47762ZM5.99266 17.6101C5.98856 17.6117 5.98423 17.6136 5.98013 17.6153C5.97338 17.5963 5.96663 17.5772 5.95988 17.5582C5.9635 17.5567 5.96736 17.5556 5.97097 17.5541C5.9782 17.5727 5.98543 17.5913 5.99266 17.6101ZM5.22968 14.9422C5.22799 14.9422 5.22631 14.942 5.22462 14.942C5.22462 14.9189 5.22462 14.8958 5.22462 14.8728C5.22631 14.873 5.22799 14.873 5.22968 14.8732C5.22968 14.8963 5.22968 14.9192 5.22968 14.9422ZM11.9001 23.5975C11.8991 23.602 11.8984 23.6068 11.8974 23.6113C11.8765 23.6054 11.8555 23.5994 11.8345 23.5935C11.8357 23.5892 11.8372 23.5849 11.8384 23.5804C11.8589 23.5863 11.8794 23.592 11.9001 23.5975ZM10.4264 7.07067C10.4377 7.05235 10.4481 7.03259 10.4761 7.05044C10.4594 7.0571 10.443 7.06377 10.4264 7.07067ZM5.27788 13.8142C5.27402 13.8132 5.27017 13.8123 5.26607 13.8113C5.27041 13.7949 5.27475 13.7785 5.27933 13.7621C5.28294 13.763 5.28631 13.7637 5.28993 13.7647C5.28607 13.7811 5.28198 13.7975 5.27788 13.8142ZM9.51499 19.5968C9.5174 19.5939 9.51981 19.5913 9.52222 19.5884C9.53668 19.6008 9.55138 19.6132 9.56584 19.6258C9.56367 19.6284 9.56126 19.631 9.55909 19.6336C9.54439 19.6213 9.52969 19.6091 9.51499 19.5968ZM8.74743 8.88768C8.75225 8.87578 8.75707 8.86412 8.76358 8.84818C8.79081 8.87816 8.76864 8.88268 8.74743 8.88768ZM6.03242 18.3588C6.03628 18.3576 6.04013 18.3564 6.04399 18.3549C6.04737 18.3707 6.0505 18.3864 6.05387 18.4023C6.05074 18.403 6.04761 18.4035 6.04447 18.4042C6.04038 18.389 6.03652 18.3737 6.03242 18.3588ZM5.26969 15.779C5.27161 15.7788 5.27378 15.7785 5.27571 15.7783C5.27812 15.7921 5.28077 15.8057 5.28318 15.8195C5.28005 15.8199 5.27692 15.8202 5.27354 15.8204C5.27234 15.8066 5.27089 15.7928 5.26969 15.779ZM5.2292 15.5939C5.23306 15.5939 5.23667 15.5936 5.24053 15.5936C5.24053 15.6143 5.24053 15.635 5.24053 15.656C5.23787 15.656 5.23522 15.656 5.23257 15.656C5.23137 15.6353 5.2304 15.6146 5.2292 15.5939ZM6.49657 14.9841C6.4985 14.9844 6.50067 14.9844 6.5026 14.9846C6.5026 15.0001 6.5026 15.0155 6.5026 15.031C6.50067 15.031 6.4985 15.031 6.49657 15.031C6.49657 15.0155 6.49657 14.9998 6.49657 14.9841ZM6.03869 11.0952C6.03459 11.0924 6.03074 11.0893 6.02664 11.0864C6.03676 11.0707 6.04664 11.0552 6.05676 11.0395C6.06014 11.0414 6.06375 11.0433 6.06713 11.0453C6.05773 11.0617 6.04833 11.0786 6.03869 11.0952ZM8.60163 21.6429C8.59874 21.6465 8.59609 21.6503 8.5932 21.6539C8.58308 21.646 8.57295 21.6382 8.56283 21.6303C8.56476 21.6277 8.56669 21.6251 8.56838 21.6225C8.57946 21.6294 8.59055 21.6363 8.60163 21.6429ZM10.5544 6.47952C10.5563 6.48237 10.5585 6.48523 10.5604 6.48808C10.5532 6.49403 10.5467 6.50117 10.5387 6.50546C10.5349 6.5076 10.5279 6.50403 10.5091 6.5007C10.5325 6.48975 10.5433 6.48475 10.5544 6.47952ZM5.92494 18.5741C5.92133 18.576 5.91795 18.5782 5.91434 18.5801C5.90783 18.5649 5.90108 18.5499 5.89458 18.5346C5.89795 18.5332 5.90157 18.5318 5.90494 18.5303C5.91169 18.5451 5.91843 18.5596 5.92494 18.5741ZM10.1623 7.2394C10.1577 7.25963 10.1507 7.27462 10.1211 7.25915C10.1392 7.25059 10.1507 7.24511 10.1623 7.2394ZM9.87359 7.40385C9.87118 7.40028 9.86876 7.39671 9.8666 7.39314C9.87937 7.38505 9.89214 7.37672 9.90467 7.36863C9.90684 7.37196 9.90901 7.37505 9.91118 7.37838C9.89841 7.38695 9.88588 7.39528 9.87359 7.40385ZM5.22872 14.5058C5.22727 14.5058 5.22607 14.5058 5.22462 14.5058C5.22462 14.4946 5.22462 14.4834 5.22462 14.4725C5.22607 14.4725 5.22727 14.4725 5.22872 14.4725C5.22872 14.4834 5.22872 14.4946 5.22872 14.5058ZM7.41595 18.5558C7.41957 18.5539 7.42318 18.5518 7.4268 18.5499C7.43451 18.5641 7.44198 18.5782 7.44969 18.5925C7.44656 18.5941 7.44343 18.5958 7.44029 18.5977C7.4321 18.5837 7.42391 18.5698 7.41595 18.5558ZM7.60538 20.3819C7.60875 20.3797 7.61236 20.3773 7.61574 20.3752C7.62273 20.3859 7.62996 20.3964 7.63694 20.4071C7.63405 20.409 7.63116 20.4107 7.62851 20.4126C7.6208 20.4021 7.61309 20.3919 7.60538 20.3819ZM5.2627 15.6867C5.26703 15.6862 5.27161 15.6857 5.27595 15.6852C5.27595 15.6981 5.27595 15.7109 5.27595 15.7236C5.27258 15.7236 5.26896 15.7236 5.26559 15.7238C5.26463 15.7114 5.26366 15.699 5.2627 15.6867ZM17.2672 20.9509C17.266 20.9468 17.265 20.9426 17.2638 20.9385C17.2785 20.934 17.2932 20.9297 17.3079 20.9252C17.3091 20.929 17.3103 20.933 17.3118 20.9368C17.2968 20.9416 17.2821 20.9464 17.2672 20.9509ZM5.60442 11.8175C5.6078 11.8187 5.61117 11.8199 5.61454 11.8211C5.60948 11.8361 5.60418 11.8511 5.59912 11.8661C5.59527 11.8646 5.59141 11.8632 5.58731 11.862C5.5931 11.8473 5.59888 11.8323 5.60442 11.8175ZM10.5816 23.1113C10.5799 23.1156 10.578 23.1199 10.5763 23.1244C10.5587 23.1284 10.5479 23.1211 10.5409 23.093C10.5587 23.1008 10.5701 23.1061 10.5816 23.1113ZM11.481 23.4868C11.48 23.4897 11.4791 23.4926 11.4781 23.4952C11.4653 23.4907 11.4523 23.4859 11.4395 23.4814C11.4405 23.4785 11.4415 23.4759 11.4424 23.473C11.4552 23.4776 11.4682 23.4821 11.481 23.4868ZM5.28198 13.2062C5.27716 13.204 5.27161 13.2028 5.27161 13.2016C5.27161 13.1966 5.2733 13.1919 5.27451 13.1869C5.27764 13.1883 5.2827 13.1893 5.28318 13.1914C5.28415 13.1957 5.2827 13.2007 5.28198 13.2062ZM9.78297 6.92217C9.78562 6.92598 9.78803 6.92978 9.79068 6.93359C9.77767 6.94002 9.76466 6.94644 9.7514 6.95263C9.74996 6.95025 9.74875 6.94763 9.74731 6.94525C9.75936 6.93764 9.77116 6.92978 9.78297 6.92217ZM9.59572 7.58257C9.59861 7.58567 9.60175 7.58876 9.60464 7.59186C9.59235 7.59947 9.58006 7.60733 9.56777 7.61494C9.56584 7.61208 9.56391 7.60899 9.56222 7.60614C9.57331 7.59828 9.5844 7.59043 9.59572 7.58257ZM9.15615 8.47145C9.15374 8.46954 9.15109 8.4674 9.14868 8.4655C9.15567 8.45955 9.1629 8.4536 9.16989 8.44741C9.17134 8.44908 9.17278 8.45074 9.17447 8.45217C9.16844 8.45883 9.16242 8.46502 9.15615 8.47145ZM5.51815 12.7042C5.51574 12.7033 5.51333 12.7023 5.51092 12.7014C5.51574 12.69 5.52056 12.6785 5.52538 12.6671C5.52755 12.6681 5.52996 12.6688 5.53213 12.6697C5.52731 12.6812 5.52273 12.6928 5.51815 12.7042ZM6.72286 19.5929C6.7207 19.5951 6.71852 19.597 6.71612 19.5991C6.70889 19.5913 6.70142 19.5834 6.69419 19.5756C6.6966 19.5732 6.69925 19.571 6.70166 19.5687C6.70889 19.5768 6.71588 19.5849 6.72286 19.5929ZM9.83864 7.36125C9.84057 7.36482 9.8425 7.36815 9.84418 7.37172C9.83334 7.37672 9.82249 7.38172 9.81165 7.38648C9.81045 7.38433 9.80948 7.38219 9.80828 7.38005C9.8184 7.37386 9.82852 7.36744 9.83864 7.36125ZM5.49622 12.8149C5.49405 12.8149 5.49212 12.8149 5.48995 12.8149C5.48995 12.7999 5.48995 12.7849 5.48995 12.7699C5.49212 12.7699 5.49405 12.7699 5.49622 12.7699C5.49622 12.7849 5.49622 12.7999 5.49622 12.8149ZM7.0858 9.45075C7.0829 9.46099 7.07929 9.47289 7.07567 9.48502C7.07206 9.48169 7.06869 9.47812 7.06507 9.47479C7.07254 9.46622 7.08001 9.45742 7.0858 9.45075ZM5.51212 15.7659C5.51477 15.7657 5.51743 15.7654 5.52007 15.7652C5.51959 15.7766 5.51911 15.788 5.51863 15.7997C5.51646 15.7995 5.51429 15.7992 5.51212 15.799C5.51212 15.7878 5.51212 15.7769 5.51212 15.7659ZM15.4593 23.8919C15.4593 23.8909 15.459 23.89 15.459 23.8888C15.468 23.8888 15.4766 23.8888 15.4856 23.8888C15.4856 23.8898 15.4856 23.8907 15.4856 23.8919C15.4769 23.8919 15.4682 23.8919 15.4593 23.8919Z" fill="white"/>
<path d="M14.7173 3.33436C14.7148 3.3434 14.7153 3.35554 14.7095 3.36125C14.678 3.39338 14.6719 3.4355 14.6616 3.47572C14.6146 3.65635 14.5674 3.83675 14.5218 4.01761C14.4734 4.20967 14.4319 4.40339 14.3777 4.59378C14.2912 4.89768 14.1979 5.19992 14.1051 5.50216C13.9574 5.98337 13.8323 6.47005 13.7523 6.96696C13.7191 7.17353 13.6875 7.38058 13.661 7.5881C13.6475 7.69352 13.6456 7.80038 13.64 7.90676C13.6321 8.05645 13.6285 8.20662 13.6181 8.35631C13.6022 8.58406 13.6053 8.81205 13.6087 9.04004C13.6106 9.17117 13.6164 9.30206 13.6198 9.43295C13.6241 9.59621 13.6285 9.75971 13.6306 9.92297C13.6311 9.95057 13.621 9.97818 13.6159 10.0058C13.6121 10.0279 13.6053 10.0503 13.6056 10.0727C13.607 10.2076 13.6056 10.3425 13.628 10.4768C13.6388 10.542 13.6345 10.6096 13.6386 10.6759C13.6487 10.8354 13.6591 10.9948 13.6706 11.1541C13.6885 11.4006 13.7051 11.6474 13.7268 11.8937C13.7502 12.1593 13.7878 12.4232 13.8384 12.685C13.8967 12.9882 13.941 13.2933 13.9721 13.6003C14.0039 13.9147 14.0931 14.2114 14.2324 14.4951C14.2497 14.5306 14.2579 14.5708 14.2668 14.6096C14.2825 14.6774 14.3497 14.7538 14.4163 14.7767C14.4322 14.7821 14.4466 14.7912 14.4649 14.8002C14.4707 14.794 14.4801 14.7883 14.4825 14.7807C14.4989 14.726 14.5208 14.6717 14.5264 14.6158C14.5302 14.576 14.5387 14.5422 14.5601 14.5096C14.5683 14.4973 14.5734 14.4825 14.5816 14.4656C14.6148 14.4785 14.6406 14.4706 14.6519 14.4311C14.6932 14.4461 14.7158 14.4275 14.7298 14.393C14.7363 14.3771 14.7467 14.3621 14.7493 14.3457C14.7647 14.2521 14.791 14.1603 14.7816 14.0634C14.7765 14.0111 14.7806 13.958 14.7806 13.8985C14.7997 13.9023 14.8144 13.9037 14.8279 13.9085C14.8575 13.9187 14.8833 13.9142 14.8963 13.8852C14.9185 13.8357 14.9619 13.8128 15.0069 13.7902C15.0498 13.7686 15.093 13.7469 15.133 13.721C15.2036 13.6753 15.2513 13.6129 15.2617 13.5272C15.2641 13.5065 15.2701 13.4863 15.2735 13.4656C15.2778 13.4378 15.2898 13.4197 15.3176 13.4047C15.3402 13.3925 15.3537 13.363 15.3699 13.3404C15.3838 13.3209 15.3976 13.3007 15.4091 13.2797C15.4209 13.2583 15.4328 13.2362 15.4393 13.2129C15.4846 13.0539 15.4916 12.8906 15.4937 12.7264C15.4971 12.4699 15.4559 12.2183 15.4207 11.9656C15.3715 11.6129 15.3371 11.2588 15.34 10.9018C15.3419 10.6774 15.3344 10.4527 15.3323 10.2281C15.3311 10.1138 15.3337 9.9996 15.3311 9.8856C15.3296 9.82753 15.3159 9.7697 15.3149 9.71163C15.3118 9.49269 15.3077 9.27398 15.3108 9.05503C15.3164 8.68402 15.3253 8.313 15.3368 7.94198C15.3402 7.83489 15.339 7.73041 15.32 7.62427C15.3082 7.55835 15.3214 7.48814 15.3236 7.41984C15.3272 7.30204 15.3301 7.18424 15.3349 7.06667C15.3385 6.97791 15.3448 6.88914 15.3508 6.80061C15.3527 6.77133 15.3503 6.74587 15.3313 6.72017C15.3205 6.70541 15.318 6.68066 15.32 6.66091C15.3448 6.3996 15.3706 6.13853 15.4265 5.88127C15.4359 5.83843 15.4477 5.79607 15.454 5.753C15.4581 5.72563 15.4535 5.69731 15.4535 5.66923C15.4535 5.64876 15.4516 5.62806 15.4549 5.60807C15.4798 5.4617 15.5065 5.31558 15.5311 5.16922C15.5386 5.12424 15.5434 5.07855 15.5453 5.03309C15.5463 5.00906 15.5407 4.98407 15.5352 4.96027C15.5243 4.9141 15.5082 4.86889 15.5 4.82224C15.4947 4.79106 15.4998 4.75822 15.5002 4.72609C15.5005 4.71396 15.5002 4.70182 15.4904 4.68683C15.4846 4.69492 15.4749 4.70206 15.4735 4.71086C15.4689 4.73514 15.4641 4.76013 15.466 4.7844C15.4713 4.84604 15.4491 4.90054 15.4246 4.95432C15.4195 4.96551 15.4031 4.97907 15.3925 4.97836C15.3706 4.97717 15.3689 4.95646 15.3713 4.93885C15.3797 4.87293 15.3882 4.80701 15.3978 4.74109C15.4048 4.69206 15.3908 4.65399 15.3421 4.63447C15.3207 4.6259 15.3164 4.61091 15.3139 4.58997C15.3118 4.57021 15.3048 4.54927 15.2939 4.53238C15.2761 4.50429 15.2761 4.47811 15.2826 4.44599C15.3067 4.32818 15.3091 4.20824 15.305 4.08853C15.3048 4.07759 15.3002 4.06593 15.2944 4.05641C15.2578 3.99643 15.2204 3.93694 15.1831 3.87744C15.1749 3.86459 15.1679 3.85031 15.1571 3.83984C15.1257 3.8089 15.113 3.76987 15.1007 3.72918C15.0891 3.69134 15.0732 3.65469 15.0592 3.61756C15.0231 3.51975 15.0108 3.41837 15.0108 3.31485C15.0108 3.26939 15.0096 3.2237 15.0101 3.17824C15.0103 3.16349 15.0113 3.14707 15.0178 3.13422C15.0332 3.10328 15.0248 3.07948 15.0014 3.05758C14.9903 3.04711 14.9807 3.03521 14.9701 3.02403C14.9366 2.98881 14.9153 2.99166 14.8908 3.03426C14.8852 3.04402 14.8794 3.05354 14.8635 3.08091C14.8532 3.05592 14.8459 3.03855 14.8387 3.02117C14.7936 3.06401 14.7669 3.10114 14.7662 3.15325C14.7655 3.20038 14.7592 3.2475 14.7553 3.29462C14.7534 3.31913 14.7387 3.33174 14.7153 3.33626L14.7173 3.33436Z" fill="white"/>
<path d="M7.22182 8.94194C7.27652 8.87887 7.33123 8.81604 7.38569 8.75274C7.44666 8.68182 7.50667 8.60995 7.5686 8.53974C7.6127 8.48953 7.66018 8.44217 7.70428 8.39196C7.7238 8.36982 7.7385 8.34365 7.75537 8.31937C7.752 8.31675 7.74886 8.3139 7.74549 8.31128C7.72501 8.32913 7.70308 8.34579 7.68452 8.3653C7.60861 8.44526 7.5298 8.52094 7.46642 8.614C7.39967 8.71228 7.30664 8.79344 7.22495 8.88173C7.21724 8.89006 7.20712 8.89648 7.20037 8.90553C7.18952 8.92052 7.19121 8.93408 7.21073 8.94146C7.21459 8.9417 7.2182 8.9417 7.22182 8.94194Z" fill="white"/>
<path d="M22.4447 9.29639C22.4797 9.37873 22.5103 9.46107 22.5734 9.52866C22.6028 9.56007 22.6105 9.61029 22.6312 9.65051C22.6474 9.68192 22.6681 9.71096 22.6867 9.74118C22.6905 9.73928 22.6944 9.73737 22.6982 9.73523C22.678 9.69001 22.6587 9.64432 22.637 9.59982C22.6055 9.53509 22.571 9.47154 22.5402 9.40657C22.518 9.36088 22.4816 9.32875 22.4447 9.29639Z" fill="white"/>
<path d="M12.1451 6.62256C12.0648 6.65159 11.9812 6.67396 11.9055 6.7118C11.8378 6.74536 11.7607 6.7613 11.6983 6.80509C11.7004 6.80961 11.7026 6.81414 11.7045 6.8189C11.8528 6.7575 12.0012 6.6961 12.1494 6.6347C12.148 6.63041 12.1465 6.6266 12.1451 6.62256Z" fill="white"/>
<path d="M11.544 6.08013C11.6395 6.06299 11.7346 6.04562 11.8301 6.02848C11.8294 6.0242 11.8286 6.02015 11.8279 6.01587C11.7318 6.03205 11.6358 6.048 11.5397 6.06418C11.5411 6.06965 11.5426 6.07489 11.544 6.08013Z" fill="white"/>
<path d="M23.545 11.6248C23.5484 11.6309 23.5517 11.6369 23.5549 11.6431C23.5667 11.6857 23.5785 11.728 23.5901 11.7706C23.592 11.7761 23.5942 11.7814 23.5961 11.7868C23.6036 11.7961 23.6113 11.8054 23.6187 11.8149C23.6209 11.8142 23.6233 11.8132 23.6255 11.8125C23.5985 11.7216 23.5715 11.6309 23.5445 11.54C23.5407 11.5408 23.5368 11.5415 23.5327 11.5422C23.537 11.5695 23.5409 11.5972 23.545 11.6248Z" fill="white"/>
<path d="M6.11768 19.0119C6.10996 18.9539 6.07141 18.9148 6.04176 18.8711C6.04056 18.8694 6.03164 18.8727 6.0167 18.8758C6.05357 18.9234 6.06442 18.982 6.11768 19.0119Z" fill="white"/>
<path d="M5.02979 15.2233C5.02448 15.1243 5.01894 15.0253 5.01364 14.9263C5.00882 14.9265 5.00424 14.9267 4.99942 14.927C5.00472 15.0274 5.01002 15.1278 5.01533 15.2283C5.02015 15.2266 5.02497 15.2249 5.02979 15.2233Z" fill="white"/>
<path d="M11.7822 5.99755C11.8692 5.98661 11.956 5.97542 12.043 5.96447C12.0425 5.95971 12.0422 5.95496 12.0418 5.9502C12.0247 5.95115 12.0075 5.95139 11.9904 5.95329C11.9714 5.95543 11.9526 5.95852 11.9338 5.96162C11.894 5.96804 11.8543 5.97399 11.815 5.98185C11.8037 5.98423 11.7938 5.99303 11.7832 5.99874L11.7822 5.99755Z" fill="white"/>
<path d="M7.90723 8.15942C7.86337 8.19512 7.81926 8.23058 7.76793 8.27223C7.82143 8.26676 7.82167 8.26652 7.90723 8.15942Z" fill="white"/>
<path d="M5.17652 16.3082C5.16327 16.2185 5.15001 16.1288 5.13676 16.0391C5.13314 16.0393 5.12953 16.0398 5.12567 16.04C5.12881 16.0681 5.13122 16.0962 5.13555 16.1238C5.14423 16.178 5.15363 16.2323 5.16375 16.2863C5.1652 16.2937 5.17267 16.3001 5.17725 16.3068L5.17652 16.3082Z" fill="white"/>
<path d="M8.08164 8.16484L8.08573 8.16341C8.09803 8.14532 8.10959 8.12652 8.12309 8.10963C8.13586 8.09368 8.1508 8.0794 8.16357 8.06274C8.11393 8.09773 8.06019 8.12843 8.02428 8.18007C8.04332 8.17483 8.06236 8.16984 8.08164 8.16484Z" fill="white"/>
<path d="M22.254 9.07154C22.2595 9.07796 22.2651 9.08415 22.2706 9.09058C22.2723 9.08344 22.2774 9.07558 22.2754 9.0694C22.2598 9.01847 22.2436 8.99776 22.1868 8.9585C22.213 9.00229 22.2335 9.03679 22.254 9.07154Z" fill="white"/>
<path d="M22.2777 12.8428C22.2756 12.8592 22.2703 12.8759 22.2715 12.8918C22.2753 12.942 22.2813 12.9922 22.2912 13.042C22.2956 12.9753 22.304 12.9087 22.2763 12.8437C22.2768 12.8437 22.2777 12.8428 22.2777 12.8428Z" fill="white"/>
<path d="M23.5133 11.4612C23.5178 11.4455 23.5241 11.4302 23.5263 11.4143C23.5272 11.4064 23.5203 11.3974 23.5166 11.3891C23.4795 11.405 23.4851 11.3653 23.4612 11.3479C23.4762 11.391 23.4887 11.4264 23.501 11.4619C23.5051 11.4614 23.5092 11.4614 23.5133 11.4612Z" fill="white"/>
<path d="M10.7239 6.85277C10.7311 6.84254 10.7367 6.8304 10.7458 6.82255C10.7598 6.81041 10.7764 6.80137 10.7993 6.7859C10.7297 6.78495 10.7099 6.84016 10.6622 6.86967C10.6783 6.87181 10.6856 6.87277 10.6928 6.87396C10.7034 6.86705 10.7138 6.85991 10.7239 6.85277Z" fill="white"/>
<path d="M6.15391 10.5447C6.16258 10.5202 6.1715 10.4955 6.18018 10.4709C6.17005 10.4769 6.15969 10.4826 6.14957 10.4886C6.14595 10.4912 6.14234 10.4936 6.13848 10.4962C6.12909 10.5085 6.11945 10.5209 6.10306 10.5421C6.12716 10.5433 6.14065 10.544 6.15391 10.5447Z" fill="white"/>
<path d="M10.9121 6.74463C10.8615 6.75415 10.8263 6.77128 10.816 6.83316C10.8509 6.80103 10.8789 6.77533 10.9121 6.74463Z" fill="white"/>
<path d="M22.3405 9.12385C22.3665 9.1693 22.3928 9.21499 22.4188 9.26045C22.422 9.25878 22.4251 9.25712 22.4282 9.25521C22.4032 9.20904 22.3779 9.16311 22.3528 9.11694C22.3487 9.11932 22.3446 9.12147 22.3405 9.12385Z" fill="white"/>
<path d="M11.511 6.12383C11.5083 6.12621 11.5057 6.12812 11.5033 6.12931C11.5129 6.13216 11.5242 6.13978 11.5317 6.13716C11.564 6.12597 11.5953 6.1117 11.6235 6.08813C11.5859 6.10003 11.5483 6.11193 11.511 6.12383Z" fill="white"/>
<path d="M22.314 13.5512C22.314 13.5006 22.314 13.4499 22.314 13.3992C22.3125 13.3992 22.3111 13.3992 22.3094 13.3992C22.3094 13.4506 22.3094 13.502 22.3094 13.5534C22.3108 13.5527 22.3125 13.552 22.314 13.5512Z" fill="white"/>
<path d="M10.724 6.85278C10.7137 6.85992 10.7036 6.86706 10.6932 6.8742C10.6792 6.88681 10.6652 6.89967 10.6515 6.91228C10.6529 6.9149 10.6546 6.91751 10.6561 6.91989C10.6891 6.90014 10.7221 6.88015 10.7549 6.8604C10.7544 6.85778 10.7539 6.8554 10.7532 6.85278C10.7438 6.85278 10.7339 6.85278 10.724 6.85278Z" fill="white"/>
<path d="M6.51971 19.6769L6.52091 19.6807C6.51151 19.6657 6.50187 19.6505 6.49248 19.6355C6.48549 19.6738 6.50308 19.7012 6.5332 19.7247C6.53128 19.7176 6.52935 19.7105 6.52718 19.7033C6.52477 19.6945 6.52212 19.6857 6.51971 19.6769Z" fill="white"/>
<path d="M9.64924 22.6575C9.64274 22.6549 9.63623 22.6523 9.62972 22.6497C9.65696 22.7132 9.65696 22.7132 9.71094 22.7146C9.68949 22.6944 9.66925 22.6761 9.64924 22.6575Z" fill="white"/>
<path d="M23.2336 10.8485C23.2478 10.8837 23.2621 10.9189 23.2765 10.9544C23.2804 10.9529 23.2842 10.9515 23.2881 10.9501C23.2751 10.9142 23.2621 10.8782 23.249 10.8423C23.2437 10.8442 23.2387 10.8463 23.2336 10.8485Z" fill="white"/>
<path d="M5.08828 15.8594C5.09334 15.9034 5.09864 15.9477 5.1037 15.9917C5.10828 15.991 5.1131 15.9903 5.11768 15.9896C5.1143 15.9453 5.11551 15.9003 5.08755 15.8603L5.08828 15.8594Z" fill="white"/>
<path d="M22.2702 14.3093C22.2665 14.3479 22.2632 14.3864 22.2595 14.425C22.2627 14.4252 22.2656 14.4257 22.2687 14.4259C22.2726 14.3888 22.2764 14.3514 22.2803 14.3143C22.2769 14.3127 22.2735 14.311 22.2702 14.3093Z" fill="white"/>
<path d="M9.13037 22.3758C9.12603 22.3703 9.1217 22.3649 9.1176 22.3594C9.09928 22.3532 9.08097 22.347 9.06265 22.3408C9.06072 22.3442 9.0588 22.3475 9.05687 22.3508C9.07229 22.3627 9.08699 22.3763 9.10386 22.3856C9.10916 22.3882 9.12121 22.3794 9.13037 22.3758Z" fill="white"/>
<path d="M14.7157 3.33615C14.7183 3.31235 14.7207 3.28855 14.7241 3.25928C14.6875 3.29474 14.6872 3.3064 14.7174 3.33448L14.7157 3.33615Z" fill="white"/>
<path d="M23.6788 17.1407C23.709 17.1098 23.7063 17.0693 23.708 17.03C23.6989 17.0674 23.6895 17.1048 23.6803 17.1419L23.6788 17.1407Z" fill="white"/>
<path d="M5.08741 15.8602C5.08573 15.8176 5.08404 15.7748 5.08259 15.7322C5.07729 15.7327 5.07199 15.7334 5.06669 15.7338C5.07392 15.7755 5.08139 15.8171 5.08838 15.8588C5.08814 15.8593 5.08741 15.8602 5.08741 15.8602Z" fill="white"/>
<path d="M5.39795 17.2905C5.39217 17.2643 5.38662 17.2383 5.38084 17.2122C5.37698 17.2129 5.37289 17.2136 5.36903 17.2145C5.37409 17.2407 5.37891 17.2669 5.38397 17.2931C5.38879 17.2921 5.39337 17.2912 5.39795 17.2905Z" fill="white"/>
<path d="M6.85645 20.1567C6.83572 20.1267 6.82246 20.1074 6.80319 20.0793C6.81017 20.1258 6.81017 20.1258 6.85645 20.1567Z" fill="white"/>
<path d="M8.63114 21.9411C8.62053 21.9299 8.60993 21.919 8.59909 21.9078C8.58728 21.9059 8.57571 21.9038 8.5639 21.9019C8.58318 21.9238 8.6027 21.9459 8.62198 21.9678C8.62584 21.9654 8.62969 21.9633 8.63379 21.9609C8.63283 21.9544 8.6321 21.9478 8.63114 21.9411Z" fill="white"/>
<path d="M11.0335 6.70068C11.0111 6.71282 10.9887 6.72496 10.9665 6.73686C10.9687 6.74114 10.9711 6.74519 10.9733 6.74947C10.995 6.7371 11.0169 6.72496 11.0386 6.71258C11.0369 6.70854 11.0352 6.70449 11.0335 6.70068Z" fill="white"/>
<path d="M11.6361 6.82642C11.6177 6.83475 11.5994 6.84308 11.5811 6.8514C11.611 6.86997 11.6216 6.84355 11.6411 6.83784C11.6394 6.83403 11.6377 6.83022 11.6361 6.82642Z" fill="white"/>
<path d="M6.90967 20.2289C6.90654 20.2194 6.90364 20.2097 6.90051 20.2002C6.89135 20.1937 6.8822 20.1873 6.87135 20.1797C6.87954 20.2185 6.87954 20.2185 6.90967 20.2289Z" fill="white"/>
<path d="M8.40171 21.851C8.42051 21.8657 8.43906 21.8803 8.45786 21.895C8.46027 21.8924 8.46268 21.8895 8.46533 21.8869C8.44822 21.8707 8.43135 21.8546 8.41424 21.8384C8.4099 21.8427 8.40581 21.8467 8.40171 21.851Z" fill="white"/>
<path d="M5.17753 16.3071C5.17994 16.3414 5.18236 16.3757 5.18501 16.4097C5.18983 16.409 5.19489 16.4083 5.19971 16.4076C5.192 16.3745 5.18404 16.3412 5.17633 16.3081C5.17657 16.3081 5.17753 16.3071 5.17753 16.3071Z" fill="white"/>
<path d="M11.5649 6.25205C11.6011 6.2768 11.611 6.25895 11.6196 6.23682C11.6047 6.24086 11.5895 6.24515 11.5649 6.25205Z" fill="white"/>
<path d="M22.8142 9.93698C22.8039 9.91127 22.7935 9.88581 22.7831 9.86011C22.7798 9.86177 22.7764 9.8632 22.773 9.86487C22.7817 9.89128 22.7899 9.91794 22.8154 9.93602L22.8142 9.93698Z" fill="white"/>
<path d="M23.7528 12.2013C23.7573 12.223 23.7617 12.2444 23.7662 12.2661C23.7696 12.2656 23.773 12.2649 23.7764 12.2644C23.7725 12.2425 23.7689 12.2206 23.765 12.1987C23.7609 12.1994 23.7568 12.2004 23.7528 12.2013Z" fill="white"/>
<path d="M6.99609 20.3589C6.98188 20.3429 6.9679 20.3267 6.95368 20.3108C6.95079 20.3134 6.94765 20.3158 6.94476 20.3184C6.95922 20.3346 6.97368 20.3508 6.98838 20.367C6.99079 20.3643 6.99344 20.3617 6.99609 20.3589Z" fill="white"/>
<path d="M23.6801 17.1419C23.6734 17.1464 23.6666 17.1511 23.6599 17.1557L23.6616 17.154C23.6608 17.1704 23.6599 17.1866 23.6582 17.2161C23.6787 17.1852 23.6876 17.1654 23.6787 17.1409C23.6787 17.1407 23.6801 17.1419 23.6801 17.1419Z" fill="white"/>
<path d="M22.0377 8.77735C22.0495 8.7914 22.0613 8.80544 22.0729 8.81924C22.0758 8.8171 22.0787 8.81496 22.0815 8.81281C22.0707 8.79806 22.0601 8.7833 22.0493 8.76831C22.0456 8.7714 22.0415 8.77426 22.0377 8.77735Z" fill="white"/>
<path d="M7.84717 21.3156C7.84114 21.3013 7.83536 21.287 7.82933 21.2727C7.82861 21.2722 7.82789 21.2715 7.82693 21.2711C7.82138 21.2672 7.8156 21.2632 7.80307 21.2544C7.80957 21.288 7.83391 21.2979 7.84717 21.3156Z" fill="white"/>
<path d="M22.1152 8.91129C22.1234 8.91771 22.1314 8.92414 22.1395 8.93057C22.1451 8.9051 22.1287 8.89225 22.1036 8.87012C22.1094 8.8913 22.1123 8.90129 22.1152 8.91129Z" fill="white"/>
<path d="M7.61572 21.0644C7.60223 21.0485 7.58849 21.0325 7.575 21.0166C7.57138 21.0197 7.56752 21.0226 7.56391 21.0256C7.57765 21.0416 7.59138 21.0573 7.60488 21.0732C7.60849 21.0701 7.61211 21.0673 7.61572 21.0644Z" fill="white"/>
<path d="M23.7655 16.5944C23.7635 16.6099 23.7614 16.6253 23.7594 16.6406C23.764 16.6415 23.7684 16.6425 23.7729 16.6434C23.7782 16.6251 23.7833 16.6068 23.7905 16.582C23.7761 16.5896 23.77 16.593 23.764 16.5961C23.7638 16.5963 23.7655 16.5944 23.7655 16.5944Z" fill="white"/>
<path d="M8.04536 21.4815L8.04632 21.4825C8.03524 21.4737 8.02415 21.4649 8.01306 21.4558C8.01066 21.4584 8.00825 21.4608 8.00584 21.4634C8.02126 21.4782 8.03644 21.4929 8.05186 21.5077C8.05452 21.5053 8.05741 21.5032 8.06006 21.5008C8.055 21.4946 8.05018 21.4879 8.04536 21.4815Z" fill="white"/>
<path d="M5.01568 15.4153C5.01568 15.4357 5.01568 15.456 5.01568 15.4764C5.01713 15.4764 5.01857 15.4764 5.02002 15.4764C5.02002 15.456 5.02002 15.4357 5.02002 15.4153C5.01857 15.4153 5.01713 15.4153 5.01568 15.4153Z" fill="white"/>
<path d="M7.9088 21.3495C7.89844 21.3488 7.88832 21.3479 7.87796 21.3472C7.89459 21.3629 7.91097 21.3786 7.9276 21.3943C7.93049 21.3921 7.93314 21.3898 7.93604 21.3876C7.93218 21.3819 7.92832 21.376 7.92471 21.3703C7.91941 21.3631 7.9141 21.3564 7.9088 21.3495Z" fill="white"/>
<path d="M23.3464 10.7813C23.3536 10.7997 23.3608 10.8177 23.3683 10.8361C23.3719 10.8346 23.3753 10.8334 23.3789 10.832C23.3719 10.813 23.3649 10.7939 23.3579 10.7749C23.3541 10.7773 23.3502 10.7794 23.3464 10.7813Z" fill="white"/>
<path d="M9.75496 7.99414C9.74532 8.00271 9.73568 8.01104 9.72628 8.01961C9.73038 8.02317 9.73641 8.03079 9.73761 8.03008C9.75014 8.02246 9.76195 8.01366 9.77979 8.00128C9.76725 7.99771 9.76099 7.99604 9.75496 7.99414Z" fill="white"/>
<path d="M23.1821 10.6396C23.1618 10.6696 23.1686 10.6818 23.1973 10.693C23.1917 10.6734 23.1881 10.6606 23.1821 10.6396Z" fill="white"/>
<path d="M11.7832 5.99868C11.7598 5.99344 11.7369 5.99035 11.7201 6.01652C11.7405 6.0101 11.7613 6.00367 11.782 5.99725C11.782 5.99749 11.7832 5.99868 11.7832 5.99868Z" fill="white"/>
<path d="M22.2869 14.1211C22.2869 14.1387 22.2869 14.1561 22.2869 14.1737C22.2879 14.1737 22.2891 14.1739 22.29 14.1739C22.29 14.1563 22.29 14.1389 22.29 14.1213C22.2891 14.1213 22.2881 14.1213 22.2869 14.1211Z" fill="white"/>
<path d="M10.4383 6.95585C10.4393 6.94942 10.4402 6.94276 10.4424 6.92896C10.4238 6.93847 10.4086 6.94633 10.3937 6.95394C10.3949 6.95728 10.3961 6.96037 10.3973 6.9637C10.4115 6.96061 10.4258 6.95728 10.44 6.95418C10.44 6.95394 10.4383 6.95585 10.4383 6.95585Z" fill="white"/>
<path d="M9.55615 22.6539C9.54217 22.6456 9.52844 22.637 9.51446 22.6287C9.51277 22.631 9.51085 22.6334 9.50916 22.6356C9.52241 22.6458 9.53567 22.6558 9.54868 22.666C9.55109 22.6622 9.55374 22.6582 9.55615 22.6539Z" fill="white"/>
<path d="M7.22168 8.94189C7.21806 8.94189 7.21445 8.94165 7.2106 8.94165C7.19975 8.95379 7.18915 8.96569 7.1783 8.97782C7.18143 8.98187 7.18457 8.98568 7.1877 8.98972C7.19927 8.97378 7.21059 8.95783 7.22168 8.94189Z" fill="white"/>
<path d="M7.22785 9.04432C7.22954 9.03671 7.23122 9.02886 7.23291 9.02124C7.21845 9.02933 7.20423 9.03766 7.18977 9.04575C7.18905 9.05313 7.18833 9.06075 7.18736 9.06812L7.18616 9.06717C7.20014 9.05979 7.21411 9.05194 7.22785 9.04432Z" fill="white"/>
<path d="M22.2989 13.1921C22.2989 13.2081 22.2989 13.2243 22.2989 13.2402C22.3001 13.2402 22.3015 13.2402 22.3027 13.2402C22.3027 13.2243 22.3027 13.2081 22.3027 13.1921C22.3015 13.1921 22.3001 13.1921 22.2989 13.1921Z" fill="white"/>
<path d="M23.7836 16.7191C23.7885 16.7024 23.793 16.6858 23.7979 16.6691C23.795 16.6682 23.7921 16.6675 23.7894 16.6665C23.7836 16.6832 23.7776 16.6998 23.7718 16.7165C23.7757 16.7174 23.7798 16.7184 23.7836 16.7191Z" fill="white"/>
<path d="M8.36475 21.7618C8.35077 21.7504 8.33655 21.7387 8.32257 21.7273C8.32378 21.7528 8.33559 21.7668 8.36475 21.7618Z" fill="white"/>
<path d="M5.0083 15.3483C5.0083 15.334 5.0083 15.3197 5.0083 15.3054C5.00734 15.3054 5.00637 15.3054 5.00541 15.3054C5.00541 15.3192 5.00541 15.333 5.00541 15.3468C5.00637 15.3475 5.00734 15.348 5.0083 15.3483Z" fill="white"/>
<path d="M5.03076 15.577C5.03076 15.5682 5.03076 15.5596 5.03076 15.5508C5.03028 15.5508 5.02956 15.5508 5.02907 15.5508C5.02907 15.5591 5.02907 15.5674 5.02907 15.5758C5.0298 15.5762 5.03028 15.5765 5.03076 15.577Z" fill="white"/>
<path d="M8.34439 7.76305C8.35452 7.75401 8.36488 7.74521 8.375 7.73616C8.37331 7.73402 8.37138 7.73188 8.3697 7.72974C8.35861 7.73807 8.34777 7.74663 8.33668 7.75496C8.33933 7.75782 8.34174 7.76044 8.34439 7.76305Z" fill="white"/>
<path d="M6.12297 19.0752C6.1314 19.0871 6.13936 19.0985 6.14731 19.1099C6.14972 19.1085 6.15189 19.1073 6.1543 19.1059C6.14731 19.0945 6.14032 19.083 6.13285 19.0718C6.13237 19.0714 6.12827 19.0735 6.12297 19.0752Z" fill="white"/>
<path d="M22.7912 9.83423C22.7989 9.85113 22.8069 9.86802 22.8146 9.88468C22.8182 9.88278 22.8216 9.88087 22.8252 9.87897C22.817 9.86231 22.8124 9.84375 22.7898 9.83542C22.79 9.83542 22.7912 9.83423 22.7912 9.83423Z" fill="white"/>
<path d="M22.7903 9.83552C22.7852 9.82077 22.7802 9.80601 22.7751 9.79126C22.772 9.79269 22.7689 9.79435 22.7657 9.79578C22.7744 9.80863 22.7828 9.82148 22.7915 9.83433L22.7903 9.83552Z" fill="white"/>
<path d="M6.13847 10.4962C6.14209 10.4936 6.14594 10.4912 6.14956 10.4886C6.15317 10.4771 6.15703 10.466 6.16064 10.4545C6.15823 10.4538 6.15582 10.4529 6.15342 10.4521C6.14835 10.4669 6.14353 10.4814 6.13847 10.4962Z" fill="white"/>
<path d="M8.09733 7.99331C8.10769 7.98474 8.11806 7.97617 8.12842 7.96737C8.12673 7.96523 8.12505 7.96309 8.12336 7.96118C8.113 7.96975 8.10239 7.97832 8.09203 7.98688C8.09396 7.98879 8.09564 7.99093 8.09733 7.99331Z" fill="white"/>
<path d="M23.3704 11.1012C23.366 11.0869 23.3617 11.0729 23.3574 11.0586C23.3537 11.0605 23.3501 11.0622 23.3465 11.0641C23.355 11.0762 23.3631 11.0881 23.3716 11.1002L23.3704 11.1012Z" fill="white"/>
<path d="M23.3714 11.1001C23.3753 11.116 23.3791 11.132 23.3832 11.1479C23.3873 11.1463 23.3914 11.1446 23.3955 11.1429C23.3871 11.1289 23.3789 11.1151 23.3704 11.101C23.3702 11.101 23.3714 11.1001 23.3714 11.1001Z" fill="white"/>
<path d="M7.62801 21.0953C7.63452 21.1022 7.64126 21.1091 7.64777 21.116C7.64946 21.1146 7.65115 21.1131 7.65283 21.1117C7.64681 21.1041 7.64078 21.0965 7.63476 21.0891C7.63235 21.0913 7.63018 21.0932 7.62801 21.0953Z" fill="white"/>
<path d="M8.0377 8.04569C8.04637 8.03855 8.05529 8.03141 8.06396 8.02427C8.06228 8.02237 8.06059 8.0207 8.05914 8.0188C8.05071 8.02641 8.04228 8.03379 8.03384 8.04141C8.03505 8.04284 8.03649 8.04426 8.0377 8.04569Z" fill="white"/>
<path d="M23.798 12.4873C23.7987 12.5009 23.7994 12.5147 23.8001 12.5282C23.8023 12.5282 23.8045 12.5282 23.8066 12.5282C23.8066 12.5147 23.8066 12.5013 23.8066 12.4878C23.8037 12.4878 23.8009 12.4875 23.798 12.4873Z" fill="white"/>
<path d="M8.28084 7.95272C8.28903 7.9463 8.29698 7.93963 8.30518 7.93321C8.30373 7.9313 8.30228 7.92964 8.30084 7.92773C8.29264 7.9344 8.28445 7.94082 8.27626 7.94749C8.27794 7.94915 8.27939 7.95082 8.28084 7.95272Z" fill="white"/>
<path d="M7.55273 10.6702C7.55008 10.65 7.53803 10.6555 7.53153 10.6652C7.51369 10.6928 7.49803 10.7219 7.48164 10.7504C7.48526 10.7528 7.48911 10.7552 7.49273 10.7576C7.51032 10.735 7.52815 10.7121 7.54574 10.6895C7.54815 10.6831 7.55057 10.6767 7.55273 10.6702Z" fill="white"/>
<path d="M5.57888 12.0373C5.61936 12.0373 5.61045 12.0076 5.61768 11.979C5.60225 11.9921 5.59285 11.9999 5.58346 12.008C5.58201 12.0178 5.58056 12.0276 5.57888 12.0373Z" fill="white"/>
<path d="M7.06845 9.17348C7.06266 9.18514 7.05712 9.19656 7.05134 9.20823C7.0564 9.20989 7.06122 9.21156 7.06628 9.21322C7.06917 9.19871 7.07206 9.18395 7.0752 9.16943C7.07182 9.17134 7.06965 9.17277 7.06845 9.17348Z" fill="white"/>
<path d="M6.56692 9.89083C6.578 9.90463 6.59174 9.91177 6.60475 9.89583C6.64042 9.85204 6.66765 9.80349 6.68066 9.7478C6.64813 9.80064 6.61728 9.85394 6.56716 9.8925C6.56716 9.89178 6.56692 9.89083 6.56692 9.89083Z" fill="white"/>
<path d="M7.26102 11.338C7.26728 11.3135 7.27379 11.289 7.28223 11.2568C7.24873 11.2949 7.24873 11.2949 7.26102 11.338Z" fill="white"/>
<path d="M7.25337 11.3799C7.24518 11.378 7.23675 11.3759 7.2247 11.373C7.21891 11.3899 7.21313 11.4073 7.20518 11.4299C7.22446 11.4102 7.23916 11.3952 7.25386 11.3802C7.2541 11.3802 7.25337 11.3799 7.25337 11.3799Z" fill="white"/>
<path d="M8.13086 9.63843C8.11688 9.65413 8.10266 9.66984 8.08869 9.68555C8.10266 9.66984 8.11664 9.65413 8.13086 9.63843Z" fill="white"/>
<path d="M5.21288 13.8455C5.20709 13.8607 5.20131 13.8759 5.19553 13.8912C5.19842 13.8928 5.20131 13.8942 5.2042 13.8959C5.20951 13.8885 5.21673 13.8816 5.21939 13.8735C5.22204 13.8655 5.21987 13.8559 5.21987 13.8471C5.21746 13.8464 5.21529 13.8459 5.21288 13.8455Z" fill="white"/>
<path d="M5.54542 13.5561C5.54494 13.5651 5.54446 13.5742 5.54398 13.5851C5.56325 13.5699 5.56325 13.5699 5.56494 13.5442C5.55747 13.5489 5.55048 13.5535 5.54349 13.558L5.54542 13.5561Z" fill="white"/>
</svg>
