<?xml version='1.0' encoding='utf-8'?>
<svg xmlns="http://www.w3.org/2000/svg" width="18" height="21" viewBox="0 0 18 21" fill="none">
<path d="M0.00948875 2.02564C0.158968 2.00848 0.298963 1.99245 0.437378 1.97664C0.436474 1.9746 0.435346 1.96625 0.430605 1.96264C0.383413 1.92582 0.335542 1.88992 0.287899 1.85378C0.335542 1.80658 0.376186 1.74719 0.432411 1.71534C0.506246 1.67334 0.592275 1.65301 0.681015 1.62026C0.622759 1.5227 0.681242 1.49199 0.765012 1.49492C0.880848 1.49921 0.996458 1.51525 1.11207 1.52609C1.14594 1.52925 1.17981 1.53173 1.21368 1.53444C1.21458 1.52247 1.21548 1.51028 1.21638 1.49831C1.00526 1.48431 0.79414 1.4703 0.583244 1.45608L0.582567 1.41023C0.789173 1.38675 0.995554 1.36303 1.20216 1.33954L1.20171 1.31086L0.72324 1.31086L0.722563 1.27405L1.13194 1.27405C1.10845 1.18914 1.09355 1.11551 1.06645 1.04641C1.05132 1.00756 1.02265 0.966687 0.988554 0.943877C0.889202 0.876576 0.78014 0.822827 0.682821 0.753043C0.638565 0.721424 0.580309 0.659092 0.586632 0.620022C0.594309 0.571467 0.654596 0.513878 0.705627 0.492649C0.931877 0.397797 1.1658 0.330046 1.41622 0.340886C1.52776 0.345627 1.63976 0.34179 1.75717 0.317399C1.65985 0.279006 1.56253 0.240839 1.46522 0.202446C1.46522 0.192736 1.46567 0.183251 1.46567 0.173541C1.63321 0.139891 1.8003 0.103755 1.96852 0.0725885C2.68679 -0.0606569 3.3967 0.0023543 4.10435 0.157731C5.00936 0.356694 5.86807 0.68529 6.69675 1.09112C7.38138 1.42649 8.06351 1.76909 8.73075 2.13766C9.21012 2.40234 9.66804 2.707 10.1262 3.00827C10.5498 3.28673 10.9657 3.57761 11.3755 3.87594C11.8219 4.2007 12.2573 4.54059 12.6976 4.8737C12.9552 5.0686 13.2169 5.25875 13.4696 5.45998C13.6396 5.59548 13.8008 5.74273 13.96 5.89133C14.273 6.18357 14.5846 6.47738 14.8919 6.77571C15.318 7.18945 15.7502 7.59777 16.16 8.02686C16.6656 8.55623 17.1519 9.10411 17.6444 9.6459C17.6787 9.68362 17.6929 9.73872 17.7221 9.78186C17.755 9.83086 17.7954 9.87468 17.8302 9.92233C17.8862 9.99934 17.9409 10.0773 17.9942 10.1563C18.0012 10.1665 18.0023 10.1899 17.9953 10.1988C17.9156 10.3004 17.8352 10.4016 17.7519 10.5005C17.7187 10.5398 17.6762 10.5714 17.6412 10.6093C17.2142 11.0739 16.7936 11.5445 16.3598 12.0028C15.962 12.423 15.56 12.8404 15.1416 13.2401C14.5582 13.7979 13.9673 14.349 13.3608 14.8813C13.0428 15.1602 12.6863 15.3955 12.3438 15.646C11.7038 16.1139 11.0682 16.5884 10.4177 17.0412C9.98348 17.3436 9.52895 17.6173 9.07871 17.8962C8.35908 18.3418 7.61191 18.7366 6.84533 19.0955C6.0749 19.4561 5.29093 19.782 4.46744 20.0011C3.82594 20.1718 3.17271 20.2865 2.5066 20.2393C2.17084 20.2156 1.83914 20.1366 1.50563 20.0817C1.49208 20.0794 1.47966 20.0693 1.44173 20.0505C1.55937 20.006 1.65692 19.9692 1.75424 19.9324C1.75356 19.9238 1.75311 19.915 1.75243 19.9064C1.70659 19.9064 1.66053 19.9044 1.61492 19.9067C1.32251 19.9213 1.0371 19.8875 0.761623 19.7843C0.744011 19.7777 0.722336 19.7761 0.709013 19.7648C0.659111 19.7226 0.586403 19.684 0.57263 19.6307C0.563599 19.5957 0.632919 19.5275 0.680788 19.4932C0.778107 19.4234 0.888071 19.3714 0.986069 19.3023C1.024 19.2754 1.04907 19.2246 1.06849 19.1797C1.094 19.121 1.108 19.0573 1.12945 18.9877C0.997131 18.9819 0.848557 18.9753 0.699982 18.9688C0.700434 18.9577 0.700659 18.9468 0.701111 18.9358L1.19945 18.9358C1.19945 18.9268 1.19945 18.9177 1.19967 18.9085C0.9951 18.885 0.790527 18.8615 0.585953 18.838C0.584824 18.8242 0.583695 18.8102 0.582565 18.7964C0.646692 18.787 0.710594 18.7775 0.783075 18.7666C0.714659 18.7389 0.615532 18.7364 0.67424 18.6291C0.574436 18.5891 0.476891 18.5586 0.388378 18.5114C0.345701 18.4886 0.299187 18.4367 0.293993 18.3933C0.290833 18.3662 0.360378 18.3285 0.40012 18.2994C0.416828 18.2872 0.440762 18.2845 0.477568 18.272C0.313637 18.2544 0.167547 18.2386 3.99207e-06 18.2208C0.0232622 18.1727 0.0293581 18.132 0.0512602 18.1196C0.151514 18.0627 0.253126 18.0058 0.359928 17.9635C0.777205 17.798 1.22067 17.8172 1.65737 17.7802C2.22006 17.7325 2.77349 17.6237 3.31631 17.4674C3.66653 17.3667 4.0129 17.2517 4.36086 17.1431C4.42115 17.1243 4.48144 17.0882 4.51576 17.1853C4.52186 17.2025 4.59388 17.2153 4.62233 17.202C4.74765 17.144 4.86913 17.0769 4.99039 17.0103C5.08229 16.9597 5.17057 16.9021 5.26315 16.8531C5.2986 16.8344 5.35167 16.81 5.37989 16.8235C5.50408 16.8825 5.57972 16.8007 5.66146 16.739C5.99 16.4904 6.35331 16.3045 6.72678 16.1345C6.9589 16.0288 7.18335 15.9066 7.41118 15.7917C7.42789 15.7833 7.44618 15.7659 7.46153 15.7684C7.6984 15.8054 7.82958 15.615 8.00255 15.5168C8.08067 15.4723 8.14683 15.4064 8.22609 15.365C8.29292 15.33 8.37105 15.3172 8.44398 15.2935C8.47176 15.2844 8.50066 15.2761 8.52527 15.2614C8.80458 15.0931 9.08209 14.9219 9.36208 14.7546C9.91981 14.4213 10.4872 14.1031 11.0348 13.7537C11.6016 13.3921 12.148 12.9992 12.7059 12.6236C12.9645 12.4495 13.2264 12.2805 13.491 12.1157C13.8607 11.8853 14.1411 11.561 14.4268 11.2419C14.592 11.0574 14.7519 10.8679 14.9165 10.683C14.933 10.6644 14.9725 10.647 14.9924 10.654C15.157 10.713 15.3017 10.6529 15.4485 10.5906C15.5937 10.5289 15.7398 10.4691 15.8874 10.4135C16.0006 10.3708 16.1144 10.3564 16.2056 10.4533C16.2169 10.4499 16.2216 10.4501 16.2237 10.4476C16.3169 10.3408 16.4102 10.2338 16.5032 10.1269C16.4129 10.0142 16.3226 9.90155 16.227 9.78253C16.1029 9.90381 15.9753 9.86768 15.8502 9.81935C15.6854 9.75589 15.5248 9.68091 15.3586 9.62196C15.2414 9.58041 15.1218 9.52011 14.9901 9.59305C14.9734 9.60231 14.9197 9.56528 14.896 9.5384C14.6693 9.28275 14.4464 9.02372 14.2201 8.76761C13.9259 8.43495 13.5728 8.1775 13.1975 7.9424C12.8385 7.71724 12.4984 7.46227 12.1439 7.22943C11.541 6.83353 10.9406 6.43357 10.3258 6.05687C9.82317 5.74882 9.30112 5.47285 8.7881 5.18152C8.75243 5.16142 8.72262 5.13138 8.68807 5.10902C8.58759 5.04398 8.51105 4.9401 8.36563 4.95094C8.31234 4.95478 8.25183 4.89922 8.19899 4.86444C8.02016 4.74655 7.84539 4.62257 7.66385 4.50897C7.6223 4.48277 7.56066 4.48842 7.5085 4.47938C7.48005 4.47442 7.44844 4.47509 7.42337 4.46312C7.03477 4.275 6.64256 4.09388 6.26096 3.8922C6.053 3.78222 5.86355 3.63723 5.66621 3.5076C5.5804 3.45114 5.50928 3.39491 5.38238 3.41817C5.2959 3.43398 5.18728 3.35719 5.09539 3.30863C5.00958 3.26324 4.93642 3.19459 4.85152 3.14694C4.77385 3.10335 4.68985 3.06902 4.60518 3.04124C4.57808 3.03243 4.51757 3.04937 4.51079 3.06857C4.47737 3.16049 4.42092 3.12525 4.36493 3.10583C3.72501 2.88383 3.07787 2.68306 2.40906 2.57217C2.01391 2.50668 1.61244 2.46874 1.21232 2.44548C0.866171 2.42538 0.537859 2.3434 0.214965 2.23116C0.130516 2.2018 0.0316178 2.1625 0.00835959 2.02632L0.00948875 2.02564Z" fill="#B7B7CE" />
</svg>