<?xml version='1.0' encoding='utf-8'?>
<svg xmlns="http://www.w3.org/2000/svg" width="18" height="21" viewBox="0 0 18 21" fill="none">
<path d="M17.9905 18.2211C17.841 18.2383 17.701 18.2543 17.5626 18.2701C17.5635 18.2722 17.5647 18.2805 17.5694 18.2841C17.6166 18.3209 17.6645 18.3568 17.7121 18.393C17.6645 18.4401 17.6238 18.4995 17.5676 18.5314C17.4938 18.5734 17.4077 18.5937 17.319 18.6264C17.3772 18.724 17.3188 18.7547 17.235 18.7517C17.1192 18.7475 17.0035 18.7314 16.8879 18.7206C16.8541 18.7174 16.8202 18.7149 16.7863 18.7122C16.7854 18.7242 16.7845 18.7364 16.7836 18.7484C16.9947 18.7624 17.2059 18.7764 17.4168 18.7906L17.4174 18.8364C17.2108 18.8599 17.0045 18.8836 16.7978 18.9071L16.7983 18.9358H17.2768L17.2774 18.9726H16.8681C16.8916 19.0575 16.9065 19.1311 16.9336 19.2002C16.9487 19.239 16.9774 19.2799 17.0115 19.3027C17.1108 19.37 17.2199 19.4237 17.3172 19.4935C17.3614 19.5251 17.4197 19.5874 17.4134 19.6265C17.4057 19.675 17.3454 19.7326 17.2944 19.7538C17.0681 19.8487 16.8342 19.9164 16.5838 19.9056C16.4722 19.9008 16.3602 19.9047 16.2428 19.9291C16.3402 19.9674 16.4375 20.0056 16.5348 20.044C16.5348 20.0537 16.5343 20.0632 16.5343 20.0729C16.3668 20.1065 16.1997 20.1427 16.0315 20.1738C15.3132 20.307 14.6033 20.2441 13.8957 20.0887C12.9906 19.8898 12.1319 19.5612 11.3033 19.1555C10.6186 18.8202 9.93649 18.4776 9.26925 18.1091C8.78988 17.8445 8.33196 17.5399 7.87382 17.2387C7.45022 16.9603 7.0343 16.6694 6.62447 16.3712C6.17806 16.0465 5.74272 15.7066 5.30242 15.3736C5.04478 15.1787 4.78308 14.9886 4.53041 14.7874C4.36038 14.6519 4.19916 14.5047 4.03997 14.3561C3.72702 14.0639 3.41541 13.7702 3.1081 13.4719C2.68202 13.0582 2.24984 12.65 1.84001 12.221C1.33445 11.6917 0.848079 11.1439 0.355611 10.6022C0.32129 10.5645 0.307064 10.5094 0.277936 10.4663C0.24497 10.4173 0.204551 10.3735 0.169778 10.3258C0.11378 10.2488 0.0591369 10.1709 0.00584832 10.0919C-0.00115145 10.0817 -0.00228044 10.0583 0.00471933 10.0495C0.0844264 9.94785 0.164811 9.84669 0.248131 9.74779C0.281323 9.70851 0.323773 9.67689 0.358772 9.63896C0.785758 9.17449 1.20642 8.70393 1.64018 8.24578C2.03804 7.82557 2.43996 7.40829 2.85837 7.00863C3.44183 6.45091 4.03275 5.89996 4.63925 5.36775C4.95717 5.08889 5.31371 4.8536 5.65624 4.60319C6.29616 4.13534 6.93178 3.66093 7.58231 3.20821C8.01652 2.90586 8.47106 2.6322 8.9213 2.35333C9.64092 1.90783 10.3881 1.51314 11.1547 1.15434C11.9251 0.793741 12.7091 0.467914 13.5326 0.248889C14.1741 0.0781848 14.8273 -0.0365211 15.4934 0.0106709C15.8292 0.0343798 16.1609 0.113409 16.4944 0.168278C16.5079 0.170536 16.5203 0.180697 16.5583 0.199439C16.4406 0.243921 16.3431 0.280726 16.2458 0.317531C16.2464 0.326112 16.2469 0.334918 16.2476 0.343498C16.2934 0.343498 16.3395 0.345531 16.3851 0.343273C16.6775 0.328596 16.9629 0.362465 17.2384 0.465656C17.256 0.472204 17.2777 0.473784 17.291 0.485074C17.3409 0.527299 17.4136 0.56591 17.4274 0.619199C17.4364 0.654198 17.3671 0.722389 17.3192 0.75671C17.2219 0.826482 17.1119 0.878416 17.0139 0.94751C16.976 0.97438 16.9509 1.02518 16.9315 1.07012C16.906 1.12883 16.892 1.1925 16.8706 1.26205C17.0029 1.26792 17.1514 1.27447 17.3 1.28102C17.2996 1.29208 17.2993 1.30292 17.2989 1.31398H16.8006C16.8006 1.32301 16.8006 1.33205 16.8003 1.3413C17.0049 1.36479 17.2095 1.38827 17.4141 1.41175C17.4152 1.42553 17.4163 1.43953 17.4174 1.4533C17.3533 1.46278 17.2894 1.47227 17.2169 1.48311C17.2853 1.51088 17.3845 1.51336 17.3258 1.62062C17.4256 1.66058 17.5231 1.69107 17.6116 1.73826C17.6543 1.76106 17.7008 1.813 17.706 1.85635C17.7092 1.88345 17.6396 1.92115 17.5999 1.95028C17.5832 1.96248 17.5592 1.96519 17.5224 1.9776C17.6864 1.99522 17.8325 2.01102 18 2.02886C17.9767 2.07696 17.9706 2.1176 17.9487 2.13002C17.8485 2.18692 17.7469 2.24382 17.6401 2.28605C17.2228 2.45156 16.7793 2.43236 16.3426 2.46939C15.7799 2.51704 15.2265 2.62587 14.6837 2.78213C14.3335 2.88283 13.9871 2.99776 13.6391 3.10637C13.5789 3.12511 13.5186 3.16124 13.4842 3.06415C13.4781 3.04699 13.4061 3.03412 13.3777 3.04744C13.2523 3.10547 13.1309 3.17253 13.0096 3.23914C12.9177 3.28972 12.8294 3.3473 12.7369 3.3963C12.7014 3.41504 12.6483 3.43943 12.6201 3.42588C12.4959 3.36694 12.4203 3.44868 12.3385 3.51033C12.01 3.75893 11.6467 3.94476 11.2732 4.11479C11.0411 4.22046 10.8167 4.34262 10.5888 4.45755C10.5721 4.46591 10.5538 4.48329 10.5385 4.48081C10.3016 4.44378 10.1704 4.63413 9.99746 4.73235C9.91933 4.77683 9.85317 4.84277 9.77391 4.88409C9.70708 4.91909 9.62895 4.93196 9.55602 4.95567C9.52825 4.9647 9.49934 4.97305 9.47473 4.98773C9.19542 5.15595 8.91791 5.3271 8.63792 5.49442C8.0802 5.8277 7.51276 6.14585 6.9652 6.49516C6.39844 6.85667 5.85201 7.24956 5.29406 7.62506C5.03552 7.79915 4.7736 7.96805 4.50896 8.13288C4.13933 8.3632 3.85888 8.68744 3.57325 9.0065C3.40796 9.19097 3.2481 9.38042 3.08349 9.56535C3.06701 9.58386 3.02749 9.60125 3.00762 9.59425C2.84301 9.53532 2.69828 9.59538 2.55151 9.6577C2.40632 9.71934 2.26023 9.77918 2.11255 9.83473C1.99943 9.8774 1.88563 9.89185 1.7944 9.79499C1.78311 9.79837 1.77837 9.79815 1.77634 9.80063C1.68308 9.90743 1.58983 10.0145 1.4968 10.1213C1.58712 10.2339 1.67744 10.3466 1.77295 10.4656C1.89714 10.3444 2.02472 10.3805 2.14981 10.4288C2.31464 10.4923 2.47519 10.5672 2.64137 10.6262C2.75856 10.6677 2.87824 10.728 3.00988 10.6551C3.02659 10.6458 3.08033 10.6828 3.10404 10.7097C3.33074 10.9653 3.5536 11.2243 3.77985 11.4803C4.07407 11.8129 4.42722 12.0704 4.8025 12.3054C5.16152 12.5305 5.50157 12.7855 5.85608 13.0183C6.45896 13.4141 7.05936 13.814 7.67421 14.1906C8.17684 14.4986 8.69888 14.7745 9.2119 15.0658C9.24758 15.0859 9.27738 15.1159 9.31193 15.1383C9.41241 15.2033 9.48896 15.3072 9.63437 15.2963C9.68766 15.2925 9.74817 15.3481 9.80101 15.3828C9.97984 15.5007 10.1546 15.6247 10.3362 15.7382C10.3777 15.7644 10.4393 15.7588 10.4915 15.7678C10.52 15.7728 10.5516 15.7721 10.5766 15.7841C10.9652 15.9722 11.3574 16.1533 11.739 16.3549C11.947 16.4649 12.1364 16.6098 12.3338 16.7394C12.4196 16.7959 12.4907 16.8521 12.6176 16.8288C12.7041 16.813 12.8127 16.8898 12.9046 16.9384C12.9904 16.9837 13.0636 17.0524 13.1485 17.1C13.2262 17.1436 13.3102 17.1779 13.3948 17.2057C13.4219 17.2145 13.4824 17.1976 13.4892 17.1784C13.5226 17.0865 13.5791 17.1217 13.6351 17.1411C14.275 17.3631 14.9221 17.5638 15.591 17.6747C15.9861 17.7402 16.3876 17.7781 16.7877 17.8014C17.1338 17.8215 17.4621 17.9034 17.785 18.0156C17.8695 18.045 17.9684 18.0843 17.9916 18.2204L17.9905 18.2211Z" fill="#B7B7CE" />
</svg>