<svg width="30" height="30" viewBox="0 0 30 30" fill="none" xmlns="http://www.w3.org/2000/svg">
<path d="M26.9735 0.572241L27.0693 1.30629L27.2171 0.959482C27.5348 1.16289 27.5292 1.49518 27.6027 1.75355L27.9075 1.53118C27.952 1.87989 27.9903 2.19701 28.0274 2.47812C28.6491 2.4478 28.7307 1.81609 29.1034 1.40484C29.5188 2.0593 29.5151 2.74976 29.5336 3.46107C29.5948 3.30061 29.6572 3.13826 29.7326 2.93864C30.0003 4.09847 30.0757 5.22292 29.9193 6.36822C29.5392 9.17492 28.4223 11.7157 27.2078 14.2192C25.84 17.0391 24.1403 19.6557 22.3207 22.1851C21.3497 23.5357 20.2687 24.8092 19.1685 26.0556C18.0609 27.3102 16.8705 28.4889 15.719 29.7037C15.6325 29.7941 15.5713 29.9128 15.5126 30H14.4884C14.4272 29.9135 14.3648 29.7852 14.269 29.6924C12.0711 27.5647 10.0018 25.3089 8.15811 22.8604C6.54865 20.7233 5.09617 18.4655 3.78771 16.1187C2.65292 14.0833 1.66895 11.9728 0.901297 9.76368C0.356774 8.20461 -0.0313773 6.60637 0.00199878 4.93739C0.0149783 4.2943 0.134885 3.65311 0.204727 3.01129H0.283841L0.442686 3.396C0.485333 2.71691 0.483479 2.04161 0.900679 1.37768C1.05582 1.63036 1.18499 1.82683 1.29563 2.03213C1.38216 2.19638 1.46189 2.3303 1.68131 2.33409C1.77711 2.33409 1.87167 2.44717 1.96748 2.50971C2.00085 2.21533 2.03732 1.90074 2.07255 1.58362H2.13745C2.15784 1.90832 2.17824 2.2286 2.19678 2.54951L2.26848 2.54572C2.24994 2.34167 2.22583 2.13637 2.21285 1.93295C2.20358 1.79334 2.21841 1.80282 2.38097 1.667C2.43474 1.62152 2.43289 1.51223 2.46564 1.43516C2.53178 1.2785 2.60595 1.12562 2.69619 0.926001L2.91931 1.20332C2.9564 0.990436 2.99101 0.788287 3.03922 0.50528C3.42119 1.01444 3.54295 1.53497 3.55778 2.03719C3.61341 3.96328 3.99723 5.82115 4.55783 7.6506C4.59491 7.76936 4.7074 7.89949 4.50406 7.98983C4.47624 8.0012 4.47253 8.12754 4.49664 8.18629C4.56834 8.36949 4.65734 8.54637 4.74201 8.72388C4.87119 8.99362 5.11471 9.22167 5.00779 9.57859C4.98924 9.64302 5.07577 9.74852 5.12955 9.82369C5.76431 10.7289 6.17038 11.7593 6.54123 12.7852C6.72974 13.3057 7.04125 13.7283 7.25202 14.2147C7.80581 15.5034 8.45541 16.7403 9.13653 17.9589C9.80837 19.1604 10.5426 20.3266 11.2516 21.5072C11.3696 21.7031 11.5081 21.8901 11.6057 22.0979C12.1447 23.252 12.997 24.1409 13.9087 24.9842C14.0731 25.1352 14.2171 25.2596 14.1707 25.5521C14.1355 25.7669 14.274 26.0126 14.3463 26.2426C14.4106 26.4523 14.5125 26.6519 14.5583 26.8648C14.5935 27.0234 14.5657 27.1946 14.5657 27.3607L14.4866 27.3816C14.6491 27.5382 14.8117 27.6949 14.9977 27.8756C15.1658 27.717 15.3284 27.5622 15.4903 27.4075L15.4112 27.3885C15.4372 27.1548 15.439 26.9166 15.494 26.6905C15.5626 26.4169 15.6788 26.1567 15.7709 25.8907C15.8006 25.8023 15.8612 25.6961 15.8377 25.621C15.7122 25.2306 16.0002 25.0644 16.216 24.8667C17.1424 24.0177 17.8971 23.048 18.4991 21.9242C19.2081 20.6001 20.0622 19.3588 20.8082 18.0537C21.3361 17.1314 21.7898 16.1655 22.2811 15.2204C22.5988 14.6096 22.9493 14.0151 23.2354 13.3891C23.5401 12.7233 23.7725 12.0252 24.0624 11.3518C24.2435 10.933 24.4759 10.535 24.6805 10.1257C24.8041 9.87865 25.0087 9.68598 24.9704 9.34296C24.9481 9.15218 25.1583 8.93929 25.251 8.7302C25.3709 8.45856 25.6867 8.21724 25.3876 7.8698C25.3635 7.84137 25.4024 7.75104 25.4228 7.69229C25.8622 6.30189 26.1886 4.88558 26.3493 3.43327C26.3882 3.07888 26.3715 2.71817 26.4198 2.36568C26.4859 1.89252 26.5823 1.42063 26.6855 0.952533C26.7152 0.816715 26.8147 0.697952 26.8815 0.569714H26.9773L26.9735 0.573505V0.572241Z" fill="white"/>
<path d="M20.7614 3.99117C20.6317 4.39684 20.4621 4.80988 20.2164 5.1493C19.3658 6.31888 18.6368 7.53998 18.0126 8.86169C17.4989 9.94784 16.7082 10.9007 16.032 11.9067C15.9392 12.0441 15.4671 12.022 15.3302 11.8911L16.1625 10.6848L15.255 9.37041H15.2534V9.36878L16.1609 8.05525L15.2542 6.74091L16.1617 5.42493L15.2542 4.10977H15.2534L16.1601 2.79542L15.7752 2.23762C15.824 2.22863 15.8688 2.21145 15.9008 2.18937C16.032 2.09613 16.0993 1.91047 16.1489 1.75671C16.1993 1.59068 16.2065 1.39275 16.3041 1.26352C16.5482 0.943728 16.8259 0.646018 17.1027 0.35485C17.4781 -0.0352815 17.8366 -0.0990767 18.3167 0.140564C18.3903 0.176551 18.4215 0.306595 18.4551 0.406377C18.5456 0.565047 18.6368 0.721263 18.7248 0.879933C18.7368 0.902016 18.72 0.941275 18.732 0.960904C19.0313 1.42955 19.3106 1.8982 19.8843 2.09613C20.1036 2.17219 20.2997 2.39466 20.4405 2.59668C20.5053 2.68992 20.4165 2.89766 20.3957 3.06124H20.3933C20.6774 3.1512 20.895 3.56914 20.7614 3.99117Z" fill="#010E22"/>
<path d="M15.4423 10.6843L14.6101 11.8907C14.6029 11.885 14.5973 11.8784 14.5925 11.8719C14.5733 11.8449 14.5541 11.8187 14.5349 11.7917C13.769 10.7293 13.0248 9.65869 12.4495 8.45804C11.9165 7.34408 11.2067 6.31354 10.5209 5.283C10.1456 4.71866 9.7639 4.18867 9.93355 3.46402C9.96876 3.30453 10.0888 3.16549 10.2272 2.91686C10.1008 2.53081 10.2032 2.32552 10.7146 2.09815C10.9795 1.98119 11.2691 1.86178 11.4652 1.6614C11.6676 1.45366 11.7781 1.14859 11.9213 0.879501C11.9645 0.799348 11.9645 0.693841 12.0141 0.621049C12.0958 0.503273 12.363 0.486916 12.1958 0.239914C12.1958 0.23746 12.2654 0.171211 12.311 0.144221C12.6999 -0.0823333 13.1857 -0.0267171 13.5034 0.306163C13.8091 0.625956 14.1099 0.955565 14.3876 1.30235C14.4732 1.40704 14.4732 1.58288 14.4492 1.74646C14.4788 1.79144 14.5053 1.8397 14.5325 1.88796C14.5989 2.00818 14.6637 2.13005 14.7645 2.20366C14.8285 2.24946 14.951 2.25928 15.055 2.23719L15.4399 2.79499L14.5333 4.10852L14.5341 4.10933L15.4415 5.4245L14.5341 6.73966L15.4407 8.05482L14.5341 9.36834V9.36998H14.5349L15.4423 10.6843Z" fill="#010E22"/>
</svg>
