<?xml version='1.0' encoding='utf-8'?>
<svg xmlns="http://www.w3.org/2000/svg" width="30" height="36" viewBox="0 0 30 36" fill="none">
<path d="M17.9794 9.06667C17.9461 9.06451 17.9109 9.06221 17.8802 9.04848L17.8878 9.04173C18.3412 7.9725 18.7365 6.88739 19.0217 5.79867L19.1232 5.38935C19.1399 5.32696 19.1569 5.25758 19.1739 5.1882L19.21 4.97955L19.2969 4.56975C19.311 4.49916 19.3229 4.42851 19.3351 4.35679C19.3457 4.29437 19.3564 4.23115 19.3688 4.16646C19.4146 3.8882 19.4451 3.63043 19.476 3.35868L19.511 2.96117C19.5206 2.89155 19.5227 2.82867 19.5249 2.75881L19.5313 2.56319C19.5334 2.50031 19.5506 2.42394 19.5755 2.33384C19.6003 2.25072 19.6328 2.15387 19.6729 2.05027C19.708 1.96904 19.7351 1.88756 19.7632 1.80331C19.7733 1.77311 19.7834 1.74256 19.7941 1.71153C19.8339 1.61404 19.8584 1.52087 19.8847 1.42056C19.89 1.40015 19.8955 1.37944 19.9011 1.35834C19.9328 1.28944 19.9639 1.23451 20.0027 1.17283C20.0089 1.16448 20.0152 1.15381 20.0221 1.14226C20.0321 1.12547 20.0432 1.1068 20.0567 1.09067C20.0723 1.0632 20.0955 1.02899 20.1108 1.00851L20.1301 1.09307L20.1418 1.18437L20.1543 1.24454C20.151 1.21191 20.1493 1.18009 20.1503 1.14968L20.1569 0.947071C20.1876 0.906112 20.2557 0.845392 20.2557 0.845392L20.2687 0.894776L20.2814 0.958133C20.2873 1.00029 20.2933 1.04245 20.3064 1.09183L20.3309 1.23951L20.3552 1.39417C20.338 1.24673 20.3171 0.987277 20.3077 0.826111L20.3224 0.82659L20.3217 0.847549C20.3215 0.85383 20.3242 0.860208 20.3273 0.867229C20.331 0.875829 20.3351 0.885395 20.3348 0.896934C20.3362 0.905237 20.3376 0.914318 20.3392 0.923906C20.3441 0.954932 20.3498 0.991259 20.36 1.02365C20.3615 1.03435 20.3635 1.04596 20.3655 1.05814C20.3715 1.09394 20.3784 1.13459 20.3772 1.17108L20.3893 1.24841L20.3868 1.32526C20.3901 1.41388 20.3895 1.50361 20.3888 1.59091C20.388 1.71056 20.3871 1.82565 20.3965 1.92705C20.5088 1.41317 20.6305 1.28427 20.7797 1.43602C20.8581 1.50852 20.9267 1.65763 21.0007 1.86287C21.0075 1.89051 21.0148 1.91912 21.0222 1.94857C21.0433 2.03179 21.066 2.12171 21.0847 2.21531C21.1099 2.34202 21.1273 2.48247 21.1443 2.63689L21.1564 2.26661C21.1532 2.14061 21.1633 2.05702 21.1926 2.05798C21.2655 2.07435 21.3075 2.13866 21.3189 2.23695C21.3377 2.33548 21.3187 2.46774 21.2997 2.6C21.2911 2.63207 21.2864 2.66426 21.2816 2.6974C21.277 2.72874 21.2722 2.76093 21.264 2.79466C21.2473 2.85706 21.2305 2.91946 21.2212 2.9821C21.2188 2.99688 21.2165 3.01123 21.2143 3.02513C21.1987 3.12244 21.1866 3.19778 21.1978 3.2471C21.256 3.26299 21.2948 3.20131 21.3204 3.09025C21.3296 3.0346 21.3392 2.96497 21.3488 2.89535L21.3566 2.65781C21.3618 2.49713 21.3673 2.32945 21.3866 2.1902C21.3982 2.0577 21.4237 1.95363 21.4839 1.90664C21.4878 2.01167 21.4991 2.11695 21.5179 2.21548C21.5365 2.32097 21.5477 2.42623 21.559 2.53148C21.5702 2.63676 21.5815 2.74209 21.578 2.84689C21.5819 2.95193 21.5714 3.0495 21.5535 3.14683C21.703 3.29159 21.7115 3.03309 21.7061 2.74617C21.704 2.71526 21.7017 2.68402 21.6994 2.65289C21.6803 2.39468 21.6619 2.14476 21.74 2.15979C21.7559 2.57293 21.749 2.78252 21.7355 3.19467C21.8403 2.91135 21.9585 2.8873 22.0757 2.89812C22.0896 2.89858 22.1035 2.89938 22.1173 2.90018C22.2276 2.90655 22.3347 2.91273 22.4185 2.74148C22.492 2.64468 22.5621 2.53898 22.6289 2.4381C22.7506 2.25448 22.8618 2.08684 22.9635 2.01794C23.1212 1.91119 23.3 2.05692 23.4445 2.80299C23.4989 2.93765 23.5275 3.18337 23.5253 3.47704C23.523 3.54795 23.5188 3.62207 23.5146 3.69866C23.51 3.78054 23.5053 3.86524 23.5024 3.95187C23.4923 4.03545 23.4823 4.11908 23.4795 4.2029C23.4745 4.24465 23.4694 4.28814 23.4643 4.33163C23.4592 4.37523 23.4541 4.41883 23.4491 4.46068C23.5891 4.22047 23.7011 3.93739 23.8292 3.61286C23.8602 3.78868 23.8912 3.96461 23.9295 4.14068C23.9602 4.32352 23.9838 4.49914 24.0075 4.67476L24.0428 4.94168L24.0602 5.08213L24.0706 5.21535C24.0869 5.39066 24.0958 5.56573 24.1048 5.7408L24.0952 6.03443L24.0933 6.05292C24.0832 6.15056 24.0737 6.24276 24.0705 6.34135C24.049 6.55047 24.0274 6.75958 23.9981 6.98242C23.969 7.19828 23.9248 7.42764 23.8809 7.65C23.8366 7.87935 23.7924 8.10871 23.7262 8.33734C23.6673 8.56621 23.6009 8.80183 23.5349 9.02348L23.4852 9.1967L23.4284 9.36269C23.3981 9.43674 23.3739 9.50819 23.3499 9.57863C23.3359 9.61981 23.322 9.66064 23.3072 9.70143C23.2265 9.9226 23.1458 10.1438 23.0654 10.3579C22.9779 10.5649 22.8904 10.7719 22.803 10.9718C22.7707 11.0617 22.7384 11.1516 22.6988 11.2412C22.682 11.2792 22.6638 11.3185 22.6448 11.3595C22.619 11.4151 22.5917 11.474 22.5643 11.5375C22.5168 11.6409 22.4616 11.758 22.3991 11.8748C22.3654 11.9436 22.331 12.0146 22.2956 12.0878C22.2071 12.2708 22.1123 12.4668 22.0058 12.6733C21.963 12.7606 21.9148 12.8503 21.866 12.9411C21.8341 13.0005 21.8019 13.0603 21.7709 13.1202C21.6852 13.2712 21.5993 13.4293 21.5131 13.5943C21.4497 13.7274 21.3767 13.8602 21.3017 13.9965C21.2836 14.0295 21.2653 14.0627 21.2471 14.0962C21.1846 14.2107 21.1156 14.325 21.0466 14.4393C21.0121 14.4965 20.9776 14.5536 20.9439 14.6108C20.8924 14.6982 20.8408 14.7875 20.7882 14.8785C20.7376 14.9661 20.686 15.0553 20.6327 15.1462C20.5238 15.3314 20.415 15.5167 20.299 15.6948C20.2392 15.7884 20.1793 15.8829 20.1192 15.9781C20.1731 16.0409 20.2267 16.1027 20.2801 16.1634C20.344 16.2342 20.4015 16.3057 20.4577 16.3755C20.5039 16.433 20.5492 16.4893 20.5964 16.5433C20.6945 16.6613 20.7927 16.7796 20.8842 16.8962C20.9612 16.9881 21.0357 17.0762 21.1071 17.1606C21.2131 17.2858 21.3124 17.4032 21.4033 17.5138C21.5637 17.6939 21.7071 17.8565 21.8155 17.9906C21.8703 18.0514 21.9199 18.108 21.9647 18.1589C22.0149 18.2162 22.059 18.2665 22.0974 18.3078C23.5631 20.3268 24.8822 22.3551 26.132 24.4165C26.4391 24.9324 26.7448 25.4549 27.0506 25.9774C27.2407 26.3151 27.4241 26.6573 27.6088 27.0017C27.7082 27.1871 27.8079 27.3732 27.9093 27.5597C28.4901 28.6186 29.0002 29.7173 29.5088 30.8226C29.3574 30.6962 29.3746 30.9242 29.3917 31.1523C29.4089 31.3803 29.4261 31.6083 29.2746 31.482C29.1791 31.4028 29.0657 31.1192 28.9324 30.7859C28.7971 30.4475 28.6413 30.0579 28.463 29.7789C28.2132 29.4412 27.9753 29.1751 27.7573 28.9755C27.5327 28.7744 27.3294 28.6332 27.1437 28.5373C26.7643 28.3506 26.4635 28.3398 26.2104 28.3947C26.0477 28.4329 25.6416 27.6462 25.357 27.0947L25.3339 27.0501C25.1902 27.3912 24.777 27.1073 24.3433 26.7914C24.3253 26.7781 24.3072 26.7648 24.2891 26.7514C23.8788 26.4486 23.4594 26.1391 23.2508 26.3379C23.2227 26.2847 23.194 26.2305 23.1647 26.1753C23.0823 26.0198 22.996 25.8569 22.9105 25.6905C22.7946 25.4649 22.6655 25.2365 22.5313 25.0001C22.2681 24.5352 21.9969 24.0755 21.7295 23.6925C21.7121 23.6715 21.6948 23.6497 21.6774 23.6276C21.6456 23.5875 21.6131 23.5463 21.5772 23.5073C21.5281 23.4482 21.4725 23.3877 21.4169 23.3272C21.3056 23.2062 21.1943 23.0851 21.075 22.9693C20.9204 22.8158 20.7599 22.661 20.5994 22.5062C20.5192 22.4288 20.4389 22.3513 20.3594 22.2741C20.3059 22.212 20.2544 22.1515 20.2036 22.0918C20.1291 22.0042 20.0561 21.9185 19.9808 21.8322C19.9284 21.7721 19.8746 21.7129 19.821 21.654C19.7451 21.5706 19.6698 21.4877 19.5994 21.4035C19.45 21.2372 19.3 21.0731 19.1512 20.9102C19.0463 20.7954 18.942 20.6813 18.8389 20.5674C18.5907 20.2852 18.3316 20.0214 18.0711 19.7641C17.9592 19.6478 17.8472 19.5315 17.7352 19.4158C17.6886 19.4793 17.6416 19.5431 17.5938 19.6068L17.3869 19.8728C17.3456 19.9368 17.2981 19.9943 17.2505 20.0518C17.2267 20.0805 17.2029 20.1093 17.18 20.1388C17.0425 20.3075 16.9086 20.4763 16.7765 20.6428C16.6365 20.8192 16.4986 20.9929 16.3609 21.1611C16.1868 21.3868 16.0102 21.5948 15.8387 21.7967C15.7458 21.906 15.6545 22.0136 15.5658 22.1213C15.4387 22.2757 15.3117 22.4248 15.1877 22.5705C15.0656 22.7139 14.9463 22.854 14.8325 22.9925C14.7694 23.0711 14.7044 23.1432 14.6409 23.2137C14.5887 23.2717 14.5374 23.3286 14.4891 23.3869C14.3823 23.5093 14.2755 23.6317 14.169 23.7472C14.086 23.843 14.0067 23.9356 13.9306 24.0245C13.8178 24.1562 13.712 24.2797 13.6118 24.3934C13.4512 24.5909 13.3059 24.768 13.184 24.9039C13.1299 24.9713 13.0793 25.0326 13.0337 25.0878C12.9824 25.1499 12.9374 25.2044 12.9009 25.2514C11.0333 27.1276 9.12644 28.8557 7.1703 30.5193C6.6796 30.9298 6.18157 31.3402 5.68353 31.7505C5.36009 32.0082 5.03065 32.2597 4.69898 32.513C4.52041 32.6493 4.34119 32.7862 4.16192 32.9247C3.14477 33.7168 2.07099 34.444 0.989873 35.171C1.09483 34.9926 0.85422 35.0529 0.613609 35.1132C0.372999 35.1736 0.132389 35.2339 0.237347 35.0555C0.302966 34.9431 0.583814 34.774 0.913893 34.5753C1.24896 34.3736 1.63475 34.1413 1.89764 33.9068C2.2091 33.5883 2.4463 33.2953 2.61634 33.0351C2.78662 32.7679 2.89707 32.5337 2.9626 32.326C3.08655 31.9035 3.03792 31.5941 2.92855 31.3458C2.85513 31.1868 3.61584 30.6243 4.1491 30.2301L4.1923 30.1981C3.7985 30.1153 4.01963 29.64 4.27102 29.1376C4.28163 29.1167 4.29229 29.0957 4.30296 29.0747C4.54497 28.5988 4.79236 28.1122 4.5379 27.9364C4.58924 27.8977 4.64161 27.8581 4.69489 27.8179C4.84474 27.7045 5.00172 27.5858 5.16268 27.4673C5.38087 27.3065 5.59952 27.1319 5.82574 26.9504C6.2706 26.5943 6.70835 26.2309 7.06474 25.8859C7.0837 25.8641 7.10358 25.8425 7.12374 25.8204C7.16037 25.7805 7.19791 25.7395 7.2325 25.6955C7.2859 25.6343 7.33953 25.5661 7.39315 25.498C7.50041 25.3616 7.60766 25.2252 7.70781 25.0816C7.84119 24.8948 7.97477 24.7018 8.10834 24.5088C8.17514 24.4123 8.24194 24.3158 8.30871 24.22C8.36445 24.1538 8.41892 24.0898 8.47264 24.0267C8.55143 23.9342 8.62861 23.8436 8.70588 23.7504C8.75969 23.6856 8.81228 23.6195 8.86465 23.5537C8.93874 23.4606 9.01238 23.368 9.08838 23.2804C9.23653 23.0965 9.38216 22.9125 9.52671 22.7299C9.62856 22.6013 9.72987 22.4733 9.83115 22.3465C10.0835 22.04 10.314 21.7258 10.5372 21.4114C10.7676 21.1042 10.9979 20.797 11.2209 20.4896C11.241 20.4614 11.2622 20.4333 11.2837 20.4048C11.3196 20.3573 11.3562 20.3087 11.39 20.2573L11.5518 20.0248C11.6595 19.8745 11.7675 19.7171 11.8681 19.5596C12.0243 19.3415 12.1768 19.1196 12.3282 18.8994C12.3855 18.8159 12.4427 18.7327 12.4999 18.65L13.0808 17.7249C13.2818 17.4167 13.4752 17.1153 13.6542 16.8064C13.8064 16.6435 13.959 16.4667 14.1272 16.2624C14.0988 16.2335 14.0637 16.1834 14.0663 16.1065C14.0879 16.0715 14.1078 16.0379 14.1277 16.0044C14.0265 15.8791 13.9166 15.7499 13.7938 15.6103C13.7617 15.6309 13.7085 15.6537 13.6361 15.6378C13.6043 15.6102 13.5738 15.5845 13.5432 15.5588C13.5127 15.5331 13.4822 15.5075 13.4503 15.4798C13.2695 15.2676 13.0923 15.07 12.9189 14.8871C12.8939 14.8619 12.8693 14.837 12.8451 14.8124C12.6993 14.6645 12.5654 14.5286 12.4337 14.4287C12.3555 14.3771 12.3242 14.4254 12.2966 14.4884C12.2826 14.4757 12.2683 14.4627 12.254 14.4496C12.1861 14.3877 12.1151 14.3228 12.042 14.2669L11.778 14.0572C11.6024 13.9152 11.4268 13.7732 11.2527 13.6246C11.2085 13.5907 11.1649 13.5536 11.1214 13.5164C11.0779 13.4793 11.0343 13.4421 10.9901 13.4083L10.718 13.2037C10.6027 13.1104 10.4867 13.0199 10.3691 12.9281C10.3077 12.8802 10.2458 12.832 10.1833 12.7828C10.049 12.6301 9.91713 12.487 9.78296 12.3415C9.75185 12.3077 9.72062 12.2738 9.68921 12.2397C9.61205 12.1595 9.53658 12.0782 9.46174 11.9976C9.3733 11.9024 9.28574 11.8082 9.19734 11.7177C9.16038 11.7512 9.11855 11.7836 9.08115 11.8125C9.07506 11.8172 9.06909 11.8218 9.06328 11.8264C8.78846 11.6971 8.61131 11.4995 8.42902 11.2939C8.40377 11.2677 8.3818 11.2422 8.35984 11.2166C8.33788 11.1911 8.31591 11.1656 8.29066 11.1394C8.24016 11.0869 8.19479 11.0424 8.14284 10.9965C8.03751 10.9113 7.92416 10.8313 7.7853 10.7732C7.65553 10.7303 7.64041 10.7896 7.62303 10.8577C7.61545 10.8874 7.60744 10.9188 7.58934 10.9441L7.58421 10.9361C6.64755 10.3374 5.68619 9.78839 4.70318 9.33817L4.33264 9.1741C4.27636 9.14796 4.21351 9.12037 4.15066 9.09279L3.95922 9.0232L3.58579 8.87229C3.52132 8.84709 3.45644 8.82376 3.39058 8.80008C3.33327 8.77948 3.27522 8.75861 3.21605 8.736C2.96031 8.64541 2.72141 8.57231 2.46936 8.49633L2.09897 8.3944C2.03468 8.3734 1.97551 8.36042 1.90977 8.346L1.7257 8.30564C1.66654 8.29266 1.59711 8.26363 1.51598 8.22514C1.44142 8.18808 1.35517 8.14156 1.26378 8.08702C1.19273 8.04096 1.12012 8.00204 1.04505 7.9618C1.01813 7.94737 0.990901 7.93277 0.963311 7.91761C0.877648 7.86442 0.793533 7.82586 0.702965 7.78435C0.684537 7.7759 0.665841 7.76733 0.64681 7.75849C0.586846 7.71774 0.540031 7.67986 0.488085 7.63397C0.481224 7.62684 0.47218 7.61923 0.462384 7.61099C0.448144 7.59901 0.432318 7.5857 0.419305 7.57058C0.395897 7.55164 0.367359 7.52468 0.350525 7.50719L0.433745 7.50474L0.522094 7.51031L0.581114 7.50965C0.549693 7.50685 0.519284 7.5028 0.490668 7.49652L0.300023 7.45471C0.266355 7.41972 0.220185 7.34749 0.220185 7.34749L0.269091 7.34441L0.331145 7.34422C0.372032 7.34629 0.41292 7.34836 0.461826 7.34528L0.605655 7.34922L0.756058 7.3546C0.613673 7.34408 0.36466 7.31707 0.210571 7.29708L0.213459 7.28391L0.233181 7.28823C0.239091 7.28953 0.245584 7.28817 0.252733 7.28666C0.26149 7.28482 0.27123 7.28278 0.282087 7.28516C0.290187 7.28531 0.299019 7.28561 0.308344 7.28594C0.338522 7.28699 0.373855 7.28823 0.406194 7.28477C0.416573 7.2853 0.427892 7.28558 0.439757 7.28588C0.474637 7.28677 0.514242 7.28777 0.548579 7.2953L0.62378 7.29799L0.696094 7.31385C0.780505 7.32654 0.865315 7.343 0.947829 7.35902C1.06092 7.38097 1.1697 7.40208 1.26723 7.4115C0.799529 7.21922 0.697727 7.08648 0.866104 6.97849C0.947727 6.92049 1.10022 6.88492 1.30675 6.85431C1.33403 6.85308 1.36231 6.8516 1.39142 6.85007C1.47368 6.84575 1.56255 6.84109 1.65422 6.84081C1.77833 6.84042 1.91414 6.8495 2.0631 6.86147L1.71468 6.78506C1.5949 6.76569 1.51746 6.74181 1.52323 6.71547C1.55082 6.65251 1.61865 6.62598 1.71357 6.633C1.80994 6.63343 1.93196 6.67399 2.05398 6.71456C2.0829 6.72799 2.11258 6.73795 2.14313 6.7482C2.17203 6.75789 2.20172 6.76785 2.23227 6.78126C2.28855 6.8074 2.34483 6.83355 2.40255 6.85311C2.41616 6.85782 2.42936 6.86244 2.44214 6.86691C2.53164 6.89824 2.60093 6.92249 2.64947 6.92106C2.67417 6.87127 2.62222 6.82538 2.52137 6.78256C2.47022 6.76444 2.40593 6.74344 2.34163 6.72244L2.11812 6.67342C1.96692 6.64026 1.80914 6.60565 1.68055 6.56365C1.55709 6.52967 1.46281 6.4883 1.42835 6.42553C1.5284 6.44057 1.6299 6.44903 1.72626 6.44946C1.82921 6.45134 1.9307 6.4598 2.0322 6.46825C2.1337 6.47671 2.2352 6.48517 2.3338 6.5068C2.43386 6.52184 2.52445 6.54861 2.6136 6.58196C2.7754 6.47253 2.53216 6.41919 2.25974 6.37324C2.23013 6.36972 2.20018 6.36628 2.17035 6.36285C1.92281 6.33442 1.68322 6.3069 1.71042 6.23897C2.10404 6.29769 2.30126 6.34094 2.6891 6.426C2.43834 6.2813 2.43519 6.17019 2.46486 6.06629C2.4676 6.05381 2.47067 6.0414 2.47372 6.02903C2.49805 5.93052 2.52166 5.83489 2.37351 5.72882C2.29409 5.64534 2.20569 5.56335 2.12131 5.48511C1.96773 5.34269 1.82751 5.21266 1.77919 5.10853C1.70433 4.9472 1.87191 4.81143 2.60196 4.81282C2.73842 4.78754 2.97573 4.80508 3.25328 4.85905C3.32 4.87369 3.38946 4.89053 3.46124 4.90794C3.53797 4.92655 3.61735 4.9458 3.69886 4.96368C3.77631 4.98756 3.85375 5.01145 3.93264 5.02875C3.97136 5.04069 4.01173 5.05299 4.05209 5.0653C4.09246 5.0776 4.13282 5.0899 4.17154 5.10185C3.96745 4.93287 3.71813 4.78158 3.43226 4.60848C3.60382 4.6116 3.7754 4.61472 3.94841 4.61126C4.12655 4.61583 4.29667 4.62554 4.4668 4.63524L4.72527 4.65053L4.86108 4.65961L4.98888 4.67383C5.15756 4.69013 5.32479 4.713 5.49203 4.73588L5.76814 4.79643C5.77387 4.79809 5.77957 4.79975 5.78526 4.8014C5.87601 4.82778 5.96171 4.85268 6.05451 4.87304C6.24884 4.92946 6.44317 4.98588 6.6492 5.05177C6.84866 5.11621 7.05838 5.19671 7.26153 5.27577C7.47125 5.35627 7.68097 5.43676 7.88636 5.53701C8.0932 5.63068 8.30516 5.73237 8.50397 5.83118L8.65966 5.90673L8.80733 5.98742C8.87239 6.02782 8.93598 6.0624 8.99867 6.09649C9.03531 6.11641 9.07165 6.13617 9.10779 6.15683C9.30365 6.26877 9.49971 6.38081 9.689 6.49131C9.87032 6.60698 10.0517 6.72268 10.2264 6.8369C10.3061 6.88198 10.3858 6.92706 10.464 6.97872C10.4973 7.00065 10.5314 7.02403 10.5671 7.04845C10.6154 7.08158 10.6666 7.11663 10.7222 7.15265C10.8121 7.21378 10.9138 7.28438 11.014 7.36156C11.0735 7.40416 11.135 7.44777 11.1983 7.49265C11.3569 7.605 11.5267 7.72536 11.7044 7.858C11.7799 7.91211 11.8569 7.97155 11.9346 8.03166C11.9855 8.07101 12.0368 8.11064 12.0883 8.14924C12.2171 8.25338 12.3524 8.35897 12.4943 8.46599C12.6097 8.54688 12.7233 8.6363 12.8399 8.72813C12.8681 8.75034 12.8965 8.77269 12.9251 8.7951C13.0231 8.8718 13.1198 8.95435 13.2166 9.0369C13.2649 9.07818 13.3133 9.11946 13.3618 9.16001C13.436 9.22199 13.5119 9.28435 13.5893 9.34795C13.6638 9.40917 13.7397 9.47153 13.8168 9.53583C13.9741 9.66693 14.1314 9.79805 14.2807 9.93428C14.39 10.0324 14.501 10.131 14.613 10.2304C14.8135 10.4083 15.017 10.589 15.2194 10.775C15.2778 10.8279 15.3356 10.8843 15.3911 10.9386C15.412 10.9591 15.4326 10.9792 15.4528 10.9987C15.5333 11.0716 15.6072 11.143 15.6863 11.2224C15.8457 11.3747 16.0054 11.5271 16.1582 11.6779L16.3983 11.9031C16.4256 11.9305 16.453 11.9572 16.4803 11.9835C16.5984 11.8385 16.7101 11.6962 16.8235 11.5516C16.8534 11.5135 16.8834 11.4753 16.9137 11.4368C16.984 11.3429 17.0559 11.2505 17.1272 11.159C17.2114 11.0507 17.2948 10.9436 17.3739 10.8363C17.3307 10.8049 17.2877 10.7682 17.2492 10.7354C17.243 10.7301 17.2368 10.7249 17.2308 10.7198C17.3142 10.4148 17.4902 10.1967 17.6738 9.97191C17.6968 9.94119 17.7197 9.91397 17.7427 9.88674C17.7656 9.85951 17.7885 9.83229 17.8115 9.80157C17.8576 9.74013 17.8961 9.68544 17.9348 9.62376C18.0049 9.50016 18.068 9.36934 18.1023 9.21659C18.1223 9.07598 18.0558 9.07165 17.9794 9.06667Z" fill="white" />
</svg>