<svg width="28" height="35" viewBox="0 0 28 35" fill="none" xmlns="http://www.w3.org/2000/svg">
<path d="M14.6615 6.19489C14.4557 6.35121 14.2002 6.43648 13.9447 6.43648C13.9447 6.91255 14.8957 6.91255 14.6544 7.6302C14.5266 7.76521 14.3137 7.76521 14.186 7.63731C14.186 7.63731 14.186 7.63731 14.1789 7.6302L15.1299 8.58234C15.3357 9.27868 15.4138 10.0105 15.357 10.7353C15.357 10.7353 14.8815 10.7353 15.1157 10.9769C15.1157 11.3535 15.2931 11.7017 15.5912 11.929L15.3499 12.1706L15.5912 12.4122C15.3428 14.5652 14.8531 16.9597 14.3705 19.3543C14.1292 20.0719 13.6466 20.5551 13.6395 21.0241C13.8099 21.7275 14.1292 22.3812 14.5905 22.9355C12.9156 23.1842 12.4331 25.0955 10.7582 25.3442C11.0492 25.6071 11.0704 26.0477 10.8079 26.339C10.7227 26.4314 10.6233 26.4953 10.5027 26.5379C9.00524 26.943 7.77038 28.0017 7.14585 29.4228C7.14585 29.8988 8.09684 30.3749 7.85554 30.6165C7.37295 31.0997 6.66326 30.382 6.18067 30.8652C4.88193 27.7956 3.93095 24.591 3.3561 21.3083C3.84578 19.8801 1.7238 12.4548 0.765721 10.5577C0.247646 9.52738 0.0844169 8.34786 0.304421 7.21098C0.545716 6.49332 1.02831 6.01015 1.0354 5.54119C1.2767 5.78277 1.7451 5.76856 2.22769 5.77567C1.99349 5.49855 2.00058 5.09354 2.23478 4.82353C2.71737 3.86429 3.67546 3.86429 4.86774 4.09167C5.34323 4.09167 6.29422 3.60138 6.54261 3.84297C6.38175 3.68191 6.30605 3.44506 6.31551 3.13242C6.791 3.13242 6.30841 4.08456 7.2665 3.60849C7.0252 3.3669 7.2665 3.13242 7.03939 2.89794C7.75618 2.65635 7.51489 3.85008 8.23168 3.60849C8.47297 3.3669 7.28069 3.13242 8.00457 2.89794L8.24587 3.13953C8.25297 2.18739 8.97685 1.46973 9.92074 1.9387C9.62977 1.71132 9.45235 1.35604 9.44525 0.986558C9.57299 0.851554 9.7859 0.851555 9.91365 0.979454C9.91365 0.979454 9.91365 0.979453 9.92074 0.986558H10.8717L12.3053 1.44842C13.015 3.11821 13.966 4.55352 14.6757 6.22332" fill="white"/>
<path d="M19.4011 8.52644C19.1953 8.68276 18.9398 8.76802 18.6843 8.76802C18.6843 9.24409 19.6353 9.24409 19.394 9.96175C19.2663 10.0968 19.0534 10.0968 18.9256 9.96885C18.9256 9.96885 18.9256 9.96885 18.9185 9.96175L19.8695 10.9139C20.0753 11.6102 20.1534 12.3421 20.0966 13.0669C20.0966 13.0669 19.6211 13.0669 19.8553 13.3084C19.8553 13.685 20.0327 14.0332 20.3308 14.2606L20.0895 14.5022L20.3308 14.7438C20.0824 16.8967 19.5927 19.2913 19.1101 21.6858C18.8688 22.4035 18.3862 22.8867 18.3791 23.3556C18.5495 24.0591 18.8688 24.7128 19.3301 25.267C17.6553 25.5157 17.1727 27.4271 15.4978 27.6758C15.7888 27.9387 15.8101 28.3792 15.5475 28.6705C15.4623 28.7629 15.363 28.8269 15.2423 28.8695C13.7449 29.2745 12.51 30.3332 11.8855 31.7543C11.8855 32.2304 12.8365 32.7065 12.5952 32.948C12.1126 33.4312 11.4029 32.7136 10.9203 33.1967C9.62156 30.1272 8.67057 26.9226 8.09572 23.6398C8.5854 22.2116 6.46343 14.7864 5.50534 12.8892C4.98727 11.8589 4.82404 10.6794 5.04405 9.54252C5.28534 8.82487 5.76793 8.34169 5.77503 7.87273C6.01632 8.11432 6.48472 8.10011 6.96731 8.10721C6.73311 7.8301 6.7402 7.42508 6.9744 7.15507C7.45699 6.19583 8.41508 6.19583 9.60736 6.42321C10.0829 6.42321 11.0338 5.93293 11.2822 6.17451C11.1214 6.01346 11.0457 5.77661 11.0551 5.46396C11.5306 5.46396 11.048 6.4161 12.0061 5.94003C11.7648 5.69845 12.0061 5.46396 11.779 5.22948C12.4958 4.9879 12.2545 6.18162 12.9713 5.94003C13.2126 5.69845 12.0203 5.46396 12.7442 5.22948L12.9855 5.47107C12.9926 4.51893 13.7165 3.80128 14.6604 4.27024C14.3694 4.04286 14.192 3.68759 14.1849 3.3181C14.3126 3.1831 14.5255 3.1831 14.6533 3.311C14.6533 3.311 14.6533 3.311 14.6604 3.3181H15.6114L17.0449 3.77996C17.7546 5.44975 18.7056 6.88506 19.4153 8.55486" fill="#0E336C"/>
<path d="M27.6556 12.6484C27.4214 12.7549 27.1517 12.7763 26.9033 12.7123C26.7898 13.1742 27.7195 13.4015 27.3149 14.041C27.1588 14.1405 26.953 14.0908 26.8536 13.9416C26.8536 13.9416 26.8536 13.9416 26.8536 13.9345L27.5562 15.0855C27.5917 15.8103 27.4995 16.5422 27.2724 17.2314C27.2724 17.2314 26.804 17.1177 26.9814 17.409C26.8962 17.7714 26.9814 18.1551 27.2156 18.4464L26.9246 18.6241L27.102 18.9154C26.3568 20.9476 25.3136 23.1645 24.2774 25.3743C23.8729 26.0138 23.291 26.3691 23.1774 26.8238C23.1774 27.5415 23.3336 28.252 23.6458 28.9057C21.9639 28.7494 21.0342 30.4974 19.3522 30.3411C19.5722 30.6608 19.487 31.1013 19.1677 31.3216C19.0683 31.3927 18.9477 31.4353 18.827 31.4424C17.2728 31.4779 15.825 32.2169 14.8811 33.4533C14.7676 33.9151 15.5837 34.6044 15.2928 34.782C14.7108 35.1373 14.1856 34.2704 13.6108 34.6257C13.0714 31.3358 12.9011 27.9962 13.114 24.6709C13.923 23.3919 13.6179 15.6824 13.1353 13.6076C12.8727 12.4778 12.9934 11.2983 13.4759 10.2467C13.8805 9.6072 14.4624 9.25192 14.576 8.79717C14.7534 9.08849 15.2147 9.18797 15.6831 9.30877C15.5199 8.98902 15.6192 8.59111 15.9173 8.38505C16.6128 7.56792 17.5425 7.78819 18.6425 8.29979C19.1109 8.41347 20.147 8.16478 20.3245 8.45611C20.2062 8.26189 20.1873 8.0132 20.2677 7.71003C20.7361 7.82372 20.0335 8.63374 21.0838 8.39926C20.9064 8.10794 21.1974 7.9374 21.0271 7.65318C21.7793 7.58923 21.2613 8.69059 22.0206 8.62664C22.3116 8.449 21.2045 7.9374 21.9639 7.88056L22.1413 8.17189C22.3755 7.24817 23.2413 6.72236 24.0574 7.39738C23.8232 7.10606 23.7381 6.72236 23.8232 6.35998C23.9794 6.2605 24.1852 6.31024 24.2845 6.45946C24.2845 6.45946 24.2845 6.45946 24.2845 6.46657L25.2071 6.67973L26.4846 7.47555C26.7827 9.26613 27.3646 10.8862 27.6627 12.6768" fill="#9E172F"/>
</svg>
