<?xml version='1.0' encoding='utf-8'?>
<svg xmlns="http://www.w3.org/2000/svg" id="Livello_1" data-name="Livello 1" version="1.1" viewBox="0 0 1080 1080">
  <defs>
    </defs>
  <path class="cls-1" d="M853.66,499.67c-.83.02-1.67-.28-2.38-.86-.82,1.48,1.81,3.6-.08,5.29-.57.13-1.16-.33-1.31-1.02,0-.01,0-.03,0-.04l.99,5.08c-.61,2.63-1.64,5.06-3.03,7.19,0,0-1.31-1.06-1.07.21-.62,1.17-.74,2.65-.32,4.02h0l-1.07.21.25,1.27c-4.34,6.12-9.75,12.45-15.15,18.78-1.88,1.69-4.02,2.1-4.84,3.55-.73,2.55-.95,5.3-.65,8.04-5.01-2.98-9.6,1.87-14.61-1.11.35,1.45-.34,2.88-1.54,3.2-.38.1-.78.08-1.16-.06-4.79-2.11-9.99-1.58-14.12,1.43-.82,1.48.99,5.08-.08,5.29-2.13.42-2.88-3.39-5.01-2.98,1.64-12.42,4.49-24.49,8.49-35.96,3.78-3.34,10.58-31.09,11.18-39.12h0c.33-4.37,1.89-8.38,4.42-11.41,1.88-1.69,4.02-2.1,4.84-3.55.25,1.27,1.56,2.3,2.88,3.39-.17-1.38.53-2.62,1.64-2.93,2.95-1.9,5.58.23,8.46,3.63,1.31,1.06,4.76,1.68,5.01,2.98q-.25-1.27.58-2.72c1.31,1.06-1.64,2.93,1.81,3.6-.25-1.27.82-1.48.58-2.72,2.38.86-.32,4.02,2.06,4.87,1.07-.21-1.81-3.6.58-2.72l.25,1.27c1.64-2.93,4.84-3.55,6.65.03-.42-1.37-.3-2.85.32-4.02h0c.57-.13,1.16.33,1.31,1.02,0,.01,0,.03,0,.04h0l2.62,2.1,3.12,4.67c-.89,6.77-.72,13.34-1.61,20.11M673.73,811.22c.9-6.83.73-13.45,1.63-20.27l-3.15-4.71-2.64-2.11h0s0-.03,0-.04c-.15-.7-.74-1.16-1.32-1.03h0c-.63,1.18-.75,2.67-.33,4.05-1.82-3.61-5.05-2.98-6.7-.03l-.25-1.28c-2.41-.89.49,2.53-.58,2.74-2.4-.86.33-4.05-2.07-4.92.24,1.25-.83,1.46-.58,2.74-3.48-.68-.5-2.56-1.82-3.63q-.83,1.46-.58,2.74c-.26-1.31-3.72-1.93-5.05-3-2.9-3.42-5.55-5.57-8.53-3.66-1.12.31-1.83,1.57-1.66,2.95-1.33-1.1-2.65-2.14-2.9-3.42-.83,1.46-2.98,1.88-4.88,3.58-2.55,3.06-4.12,7.11-4.45,11.51h0c-.61,8.1-7.47,36.08-11.27,39.45-4.03,11.56-6.91,23.73-8.56,36.25,2.15-.42,2.9,3.42,5.05,3,1.08-.21-.75-3.84.08-5.33,4.16-3.04,9.4-3.57,14.24-1.44.39.14.79.16,1.17.06,1.21-.32,1.91-1.76,1.56-3.23,5.05,3,9.68-1.89,14.73,1.12-.31-2.77-.09-5.54.65-8.11.83-1.46,2.98-1.88,4.88-3.58,5.44-6.38,10.9-12.76,15.27-18.94l-.25-1.28,1.08-.21h0c-.42-1.38-.3-2.87.33-4.05-.25-1.28,1.08-.21,1.08-.21,1.4-2.14,2.43-4.6,3.05-7.25l-1-5.13s0,.03,0,.04c.15.7.74,1.16,1.32,1.03,1.9-1.7-.75-3.84.08-5.33.72.58,1.56.89,2.4.86M772.46,642.12c.89-6.71.71-13.21,1.6-19.92l-3.09-4.62-2.6-2.08h0s0-.03,0-.04c-.15-.68-.72-1.14-1.29-1.01h0c-.62,1.16-.73,2.62-.32,3.98-1.79-3.54-4.96-2.93-6.58-.03l-.25-1.26c-2.36-.87.49,2.49-.57,2.69-2.36-.85.32-3.98-2.04-4.83.24,1.23-.82,1.43-.57,2.69-3.42-.67-.49-2.51-1.79-3.57q-.82,1.43-.57,2.69c-.25-1.29-3.66-1.9-4.96-2.95-2.85-3.36-5.45-5.47-8.38-3.59-1.1.3-1.8,1.54-1.63,2.9-1.31-1.08-2.6-2.1-2.85-3.36-.82,1.43-2.93,1.85-4.8,3.52-2.51,3.01-4.05,6.98-4.37,11.31h0c-.6,7.96-7.34,35.45-11.08,38.76-3.96,11.36-6.79,23.31-8.41,35.62,2.11-.41,2.85,3.36,4.96,2.95,1.06-.21-.74-3.77.07-5.24,4.09-2.98,9.24-3.51,13.99-1.42.38.14.78.16,1.15.06,1.19-.31,1.88-1.73,1.53-3.17,4.96,2.95,9.51-1.86,14.48,1.1-.3-2.72-.08-5.45.64-7.97.82-1.43,2.93-1.85,4.8-3.52,5.34-6.27,10.71-12.54,15.01-18.61l-.25-1.26,1.06-.21h0c-.41-1.36-.29-2.82.32-3.98-.25-1.26,1.06-.21,1.06-.21,1.37-2.1,2.39-4.52,3-7.12l-.98-5.04s0,.03,0,.04c.15.68.72,1.14,1.29,1.01,1.87-1.67-.74-3.77.07-5.24.7.57,1.53.87,2.36.85M458.57,586.63c4.24-4.43,7.6-9.27,11.84-13.69l.22-5.03-.79-2.91h0s.01-.02.02-.03c.26-.58.08-1.22-.4-1.43h0c-1.07.52-1.94,1.52-2.37,2.74.59-3.55-2.05-4.79-4.8-3.54l.5-1.05c-1.26-1.9-.98,2.08-1.86,1.66-1.27-1.88,2.37-2.74,1.1-4.62-.48,1.02-1.36.61-1.86,1.66-2.14-2.32.99-2.1.6-3.57q-1.36.61-1.86,1.66c.51-1.07-1.66-3.34-2.04-4.81-.28-3.98-1.05-6.92-4.19-7.11-.97-.37-2.14.16-2.74,1.25-.38-1.49-.78-2.93-.28-3.98-1.36.61-3.13-.22-5.39,0-3.44.85-6.69,2.93-9.25,5.92h0c-4.7,5.49-24.34,21.96-28.85,22.37-8.98,6.17-17.44,13.39-25.22,21.51,1.76.83.28,3.98,2.04,4.81.88.42,1.48-3.15,2.86-3.79,4.59.01,8.62,2.39,10.97,6.45.2.31.48.53.81.66,1.04.41,2.3-.26,2.81-1.49,2.04,4.81,7.94,3.74,9.99,8.55,1.24-2.15,2.86-4.02,4.73-5.48,1.36-.61,3.13.22,5.39,0,7.26-1.72,14.54-3.43,20.92-5.55l.5-1.05.88.42h0c.43-1.21,1.3-2.22,2.37-2.74.5-1.05.88.42.88.42,2.13-.8,4.16-2.02,6-3.59l1.98-4.2s-.01.02-.02.03c-.26.58-.08,1.22.4,1.43,2.26-.22,1.48-3.15,2.86-3.79.21.8.65,1.46,1.27,1.88M272.76,720.87c4.08-4.26,7.31-8.91,11.38-13.17l.21-4.84-.76-2.8h0s.01-.02.02-.03c.25-.56.08-1.17-.39-1.38h0c-1.03.5-1.87,1.46-2.28,2.63.57-3.41-1.97-4.61-4.61-3.41l.48-1.01c-1.21-1.83-.94,2-1.79,1.6-1.22-1.81,2.28-2.63,1.06-4.44-.46.99-1.31.59-1.79,1.6-2.06-2.23.95-2.02.58-3.43q-1.31.59-1.79,1.6c.49-1.03-1.59-3.22-1.97-4.63-.27-3.83-1.01-6.65-4.03-6.84-.93-.35-2.05.16-2.64,1.2-.36-1.43-.75-2.82-.27-3.83-1.31.59-3.01-.21-5.18,0-3.31.82-6.44,2.82-8.9,5.69h0c-4.52,5.28-23.41,21.12-27.74,21.52-8.64,5.94-16.77,12.88-24.26,20.69,1.7.8.27,3.83,1.97,4.63.85.4,1.43-3.03,2.75-3.64,4.41.01,8.29,2.29,10.55,6.21.2.29.46.51.78.64,1,.39,2.21-.25,2.71-1.44,1.97,4.63,7.64,3.6,9.6,8.23,1.19-2.07,2.75-3.87,4.55-5.27,1.31-.59,3.01.21,5.18,0,6.98-1.65,13.98-3.3,20.12-5.34l.48-1.01.85.4h0c.41-1.17,1.25-2.13,2.28-2.63.48-1.01.85.4.85.4,2.05-.77,4.01-1.94,5.77-3.46l1.9-4.04s-.01.02-.02.03c-.25.56-.08,1.17.39,1.38,2.17-.21,1.43-3.03,2.75-3.64.2.77.63,1.4,1.22,1.81M363.86,636.34c2.38-5.1,3.88-10.3,6.26-15.4l-1.3-4.44-1.54-2.3h0s0-.02,0-.04c.06-.58-.29-1.09-.77-1.13h0c-.78.77-1.24,1.9-1.25,3.08-.53-3.26-3.2-3.56-5.22-1.67l.12-1.06c-1.66-1.29-.24,2.1-1.13,1.99-1.66-1.27,1.25-3.08-.41-4.34-.12,1.03-1.01.93-1.13,1.99-2.55-1.39.24-2.12-.53-3.28q-1.01.93-1.13,1.99c.12-1.08-2.43-2.42-3.2-3.59-1.42-3.38-2.95-5.71-5.75-4.95-.95-.04-1.81.77-2.02,1.89-.77-1.18-1.54-2.32-1.42-3.38-1.01.93-2.79.73-4.69,1.59-2.74,1.76-4.96,4.52-6.31,7.87h0c-2.47,6.17-14.71,26.28-18.51,27.97-5.99,8.02-11.23,16.79-15.61,26.15,1.78.2,1.42,3.38,3.2,3.59.89.1.36-3.18,1.37-4.14,3.99-1.34,8.21-.47,11.45,2.38.27.21.58.32.9.34,1.02.05,1.92-.9,2.01-2.13,3.2,3.59,8.01.91,11.21,4.5.44-2.24,1.3-4.34,2.51-6.16,1.01-.93,2.79-.73,4.69-1.59,5.81-3.63,11.64-7.27,16.57-11l.12-1.06.89.1h0c.01-1.18.47-2.31,1.25-3.08.12-1.06.89.1.89.1,1.62-1.33,3.03-2.99,4.16-4.9l.48-4.24s0,.02,0,.04c-.06.58.29,1.09.77,1.13,1.9-.86.36-3.18,1.37-4.14.42.63,1,1.08,1.66,1.27M255.27,450.22c-4.84-4.63-10.13-8.31-14.97-12.94l-5.5-.24-3.18.86h0s-.03-.01-.04-.02c-.63-.28-1.33-.09-1.57.44h0c.57,1.17,1.67,2.12,2.99,2.59-3.88-.65-5.24,2.24-3.88,5.24l-1.15-.54c-2.08,1.38,2.27,1.07,1.82,2.03-2.06,1.39-2.99-2.59-5.05-1.2,1.12.53.67,1.49,1.82,2.03-2.54,2.34-2.29-1.08-3.9-.66q.67,1.49,1.82,2.03c-1.17-.55-3.66,1.81-5.26,2.23-4.35.31-7.56,1.15-7.77,4.58-.4,1.06.18,2.33,1.36,3-1.63.41-3.2.85-4.35.31.67,1.49-.24,3.42,0,5.89.93,3.76,3.21,7.32,6.47,10.11h0c6.01,5.14,24.01,26.61,24.46,31.54,6.75,9.82,14.64,19.07,23.52,27.58.91-1.93,4.35-.31,5.26-2.23.45-.96-3.45-1.62-4.14-3.13.01-5.01,2.61-9.43,7.06-12,.33-.22.58-.53.73-.88.45-1.13-.28-2.51-1.63-3.08,5.26-2.23,4.09-8.68,9.35-10.92-2.35-1.35-4.4-3.12-5.99-5.18-.67-1.49.24-3.42,0-5.89-1.88-7.94-3.75-15.89-6.07-22.88l-1.15-.54.45-.96h0c-1.33-.47-2.43-1.42-2.99-2.59-1.15-.54.45-.96.45-.96-.88-2.33-2.21-4.55-3.93-6.56l-4.6-2.16s.03.01.04.02c.63.28,1.33.09,1.57-.44-.24-2.47-3.45-1.62-4.14-3.13.87-.23,1.59-.71,2.06-1.39M382.12,250.83c-4.66-3.36-9.6-5.85-14.27-9.21l-4.71.46-2.6,1.11h0s-.02,0-.03-.01c-.57-.17-1.14.08-1.28.56h0c.62.93,1.67,1.6,2.85,1.84-3.37-.09-4.18,2.53-2.67,4.92l-1.04-.32c-1.61,1.42,2.06.64,1.79,1.51-1.58,1.42-2.85-1.84-4.43-.42,1.02.31.74,1.19,1.79,1.51-1.88,2.29-2.08-.64-3.39-.09q.74,1.19,1.79,1.51c-1.06-.33-2.89,1.98-4.21,2.53-3.66.78-6.29,1.88-6.06,4.82-.22.95.43,1.96,1.52,2.39-1.33.54-2.62,1.1-3.66.78.74,1.19.2,2.94.7,5.01,1.24,3.09,3.6,5.84,6.7,7.82h0c5.72,3.65,23.58,19.76,24.55,23.89,6.91,7.54,14.72,14.46,23.27,20.63.54-1.75,3.66-.78,4.21-2.53.27-.87-3.12-.97-3.89-2.17-.59-4.26,1.09-8.32,4.57-11.04.26-.23.43-.52.51-.84.25-1.02-.54-2.1-1.76-2.42,4.21-2.53,2.44-7.87,6.65-10.39-2.16-.87-4.11-2.13-5.71-3.69-.74-1.19-.2-2.94-.7-5.01-2.54-6.52-5.08-13.06-7.89-18.72l-1.04-.32.27-.87h0c-1.18-.24-2.23-.92-2.85-1.84-1.04-.32.27-.87.27-.87-1.02-1.87-2.42-3.61-4.12-5.11l-4.16-1.29s.02,0,.03.01c.57.17,1.14-.08,1.28-.56-.5-2.07-3.12-.97-3.89-2.17.71-.3,1.27-.8,1.58-1.42M476.28,310.46c-5.07-3.65-10.43-6.36-15.5-10.01l-5.11.49-2.82,1.2h0s-.03,0-.04-.01c-.62-.18-1.24.09-1.39.61h0c.67,1.01,1.81,1.74,3.1,2-3.66-.1-4.55,2.75-2.9,5.34l-1.13-.35c-1.74,1.54,2.24.69,1.94,1.64-1.72,1.55-3.1-2-4.82-.45,1.1.34.81,1.29,1.94,1.64-2.04,2.49-2.26-.7-3.69-.1q.81,1.29,1.94,1.64c-1.16-.36-3.14,2.15-4.57,2.74-3.98.85-6.83,2.04-6.58,5.24-.24,1.03.47,2.13,1.65,2.59-1.45.59-2.85,1.2-3.98.85.81,1.29.22,3.19.76,5.44,1.35,3.35,3.91,6.34,7.28,8.5h0c6.21,3.97,25.61,21.46,26.67,25.95,7.51,8.19,15.99,15.71,25.29,22.42.59-1.9,3.98-.85,4.57-2.74.29-.95-3.39-1.05-4.23-2.35-.64-4.63,1.19-9.04,4.96-11.99.28-.25.47-.56.56-.91.27-1.11-.59-2.28-1.91-2.63,4.57-2.74,2.65-8.55,7.22-11.29-2.35-.94-4.47-2.31-6.2-4-.81-1.29-.22-3.19-.76-5.44-2.76-7.09-5.52-14.19-8.57-20.34l-1.13-.35.29-.95h0c-1.28-.26-2.42-.99-3.1-2-1.13-.35.29-.95.29-.95-1.11-2.04-2.63-3.92-4.48-5.55l-4.52-1.4s.03,0,.04.01c.62.18,1.24-.09,1.39-.61-.54-2.25-3.39-1.05-4.23-2.35.78-.32,1.38-.86,1.72-1.55M579.29,365.21c-4.84-3.49-9.97-6.08-14.81-9.57l-4.89.47-2.7,1.15h0s-.02,0-.04-.01c-.59-.17-1.19.09-1.33.58h0c.64.96,1.73,1.67,2.96,1.91-3.5-.09-4.35,2.63-2.77,5.11l-1.08-.34c-1.67,1.47,2.14.66,1.86,1.57-1.65,1.48-2.96-1.91-4.61-.43,1.05.33.77,1.23,1.86,1.57-1.95,2.38-2.16-.67-3.52-.1q.77,1.23,1.86,1.57c-1.1-.34-3,2.05-4.37,2.62-3.8.81-6.53,1.95-6.29,5.01-.22.98.45,2.04,1.57,2.48-1.39.56-2.72,1.14-3.8.81.77,1.23.21,3.05.73,5.2,1.29,3.2,3.74,6.06,6.96,8.13h0c5.94,3.79,24.48,20.52,25.49,24.81,7.17,7.83,15.28,15.02,24.17,21.43.56-1.81,3.8-.81,4.37-2.62.28-.91-3.24-1.01-4.04-2.25-.61-4.43,1.14-8.64,4.74-11.46.27-.24.45-.54.53-.87.26-1.06-.56-2.18-1.82-2.51,4.37-2.62,2.53-8.17,6.9-10.79-2.24-.9-4.27-2.21-5.93-3.83-.77-1.23-.21-3.05-.73-5.2-2.64-6.77-5.27-13.56-8.19-19.44l-1.08-.34.28-.91h0c-1.23-.25-2.32-.95-2.96-1.91-1.08-.34.28-.91.28-.91-1.06-1.95-2.51-3.75-4.28-5.31l-4.32-1.34s.02,0,.04.01c.59.17,1.19-.09,1.33-.58-.52-2.15-3.24-1.01-4.04-2.25.74-.31,1.32-.83,1.65-1.48M713.14,341.02c4.71,3.39,9.69,5.91,14.4,9.3l4.75-.46,2.62-1.12h0s.02,0,.03.01c.58.17,1.15-.09,1.29-.57h0c-.63-.94-1.68-1.62-2.88-1.86,3.4.09,4.22-2.56,2.69-4.96l1.05.33c1.62-1.43-2.08-.64-1.8-1.53,1.6-1.44,2.88,1.86,4.48.42-1.02-.32-.75-1.2-1.8-1.53,1.89-2.31,2.1.65,3.42.1q-.75-1.2-1.8-1.53c1.07.33,2.92-1.99,4.24-2.55,3.7-.79,6.35-1.9,6.12-4.87.22-.96-.43-1.98-1.53-2.41,1.35-.55,2.64-1.11,3.7-.79-.75-1.2-.2-2.96-.71-5.05-1.25-3.11-3.63-5.89-6.76-7.9h0c-5.77-3.69-23.79-19.94-24.78-24.11-6.97-7.61-14.85-14.59-23.49-20.82-.55,1.76-3.7.79-4.24,2.55-.27.88,3.15.98,3.93,2.19.59,4.3-1.1,8.4-4.61,11.14-.26.23-.44.52-.52.85-.25,1.03.55,2.12,1.77,2.44-4.24,2.55-2.46,7.94-6.71,10.49,2.18.88,4.15,2.15,5.76,3.72.75,1.2.2,2.96.71,5.05,2.57,6.58,5.12,13.18,7.96,18.89l1.05.33-.27.88h0c1.19.24,2.25.92,2.88,1.86,1.05.33-.27.88-.27.88,1.03,1.89,2.44,3.64,4.16,5.16l4.2,1.3s-.02,0-.03-.01c-.58-.17-1.15.09-1.29.57.51,2.09,3.15.98,3.93,2.19-.72.3-1.28.8-1.6,1.44M619.57,279.23c4.6,3.31,9.46,5.77,14.06,9.08l4.64-.45,2.56-1.09h0s.02,0,.03.01c.56.16,1.13-.08,1.26-.55h0c-.61-.91-1.64-1.58-2.81-1.82,3.32.09,4.13-2.5,2.63-4.85l1.03.32c1.58-1.4-2.03-.63-1.76-1.49,1.56-1.4,2.81,1.82,4.37.41-1-.31-.73-1.17-1.76-1.49,1.85-2.26,2.05.64,3.34.09q-.73-1.17-1.76-1.49c1.05.33,2.85-1.95,4.15-2.49,3.61-.77,6.2-1.85,5.97-4.75.21-.93-.42-1.94-1.49-2.35,1.32-.54,2.58-1.09,3.61-.77-.73-1.17-.2-2.89-.69-4.94-1.22-3.04-3.55-5.75-6.61-7.71h0c-5.64-3.6-23.24-19.48-24.2-23.55-6.81-7.43-14.51-14.26-22.94-20.34-.53,1.72-3.61.77-4.15,2.49-.27.86,3.08.95,3.84,2.13.58,4.2-1.08,8.21-4.5,10.88-.25.23-.43.51-.5.83-.24,1,.53,2.07,1.73,2.39-4.15,2.49-2.41,7.76-6.55,10.25,2.13.86,4.05,2.1,5.63,3.63.73,1.17.2,2.89.69,4.94,2.51,6.43,5.01,12.87,7.78,18.45l1.03.32-.27.86h0c1.17.23,2.2.9,2.81,1.82,1.03.32-.27.86-.27.86,1.01,1.85,2.39,3.56,4.06,5.04l4.1,1.27s-.02,0-.03-.01c-.56-.16-1.13.08-1.26.55.49,2.04,3.08.95,3.84,2.13-.7.29-1.25.78-1.56,1.4M515.32,224.26c4.61,3.32,9.49,5.78,14.1,9.11l4.65-.45,2.57-1.1h0s.02,0,.03.01c.56.16,1.13-.08,1.26-.55h0c-.61-.92-1.65-1.59-2.82-1.82,3.33.09,4.14-2.5,2.64-4.86l1.03.32c1.59-1.4-2.03-.63-1.77-1.49,1.57-1.41,2.82,1.82,4.38.41-1-.31-.74-1.17-1.77-1.49,1.85-2.26,2.05.64,3.35.09q-.74-1.17-1.77-1.49c1.05.33,2.86-1.95,4.16-2.5,3.62-.77,6.22-1.86,5.99-4.77.21-.94-.42-1.94-1.5-2.36,1.32-.54,2.59-1.09,3.62-.77-.74-1.17-.2-2.9-.69-4.95-1.23-3.05-3.56-5.77-6.62-7.73h0c-5.65-3.61-23.3-19.53-24.27-23.61-6.83-7.45-14.55-14.29-23.01-20.39-.54,1.73-3.62.77-4.16,2.5-.27.86,3.09.96,3.85,2.14.58,4.21-1.08,8.23-4.51,10.91-.25.23-.43.51-.51.83-.24,1.01.53,2.08,1.74,2.39-4.16,2.5-2.41,7.78-6.57,10.27,2.13.86,4.06,2.1,5.64,3.64.74,1.17.2,2.9.69,4.95,2.51,6.45,5.02,12.91,7.8,18.5l1.03.32-.27.86h0c1.17.23,2.2.9,2.82,1.82,1.03.32-.27.86-.27.86,1.01,1.85,2.39,3.57,4.08,5.05l4.12,1.28s-.02,0-.03-.01c-.56-.16-1.13.08-1.26.55.49,2.05,3.09.96,3.85,2.14-.71.29-1.26.79-1.57,1.41M323.5,607.74c-3.17-4.58-6.83-8.54-9.99-13.12l-4.31-1.46-2.63-.1h0s-.02-.01-.03-.02c-.46-.36-1.04-.38-1.3-.04h0c.28,1,1.02,1.97,2,2.62-2.97-1.38-4.45.45-3.8,3l-.83-.67c-1.84.54,1.64,1.33,1.15,1.94-1.82.55-2-2.62-3.82-2.07.81.65.32,1.27,1.15,1.94-2.33,1.15-1.66-1.34-2.98-1.4q.32,1.27,1.15,1.94c-.85-.68-3.14.5-4.47.44-3.48-.79-6.13-.9-6.78,1.6-.47.69-.19,1.78.65,2.55-1.34-.07-2.65-.11-3.48-.79.32,1.27-.67,2.49-.83,4.39.21,3.02,1.5,6.2,3.68,9.04h0c4.02,5.22,15.2,25.4,14.86,29.18,3.94,8.88,8.87,17.61,14.67,26.01.99-1.22,3.48.79,4.47-.44.49-.61-2.49-2.01-2.83-3.29.72-3.73,3.39-6.41,7.26-7.29.29-.09.54-.26.7-.49.51-.74.13-1.94-.86-2.67,4.47-.44,4.45-5.51,8.92-5.95-1.66-1.55-3.03-3.35-4-5.25-.32-1.27.67-2.49.83-4.39-.36-6.35-.72-12.71-1.57-18.45l-.83-.67.49-.61h0c-.98-.66-1.71-1.62-2-2.62-.83-.67.49-.61.49-.61-.36-1.94-1.1-3.9-2.18-5.8l-3.32-2.68s.02.01.03.02c.46.36,1.04.38,1.3.04.16-1.9-2.49-2.01-2.83-3.29.72.03,1.36-.16,1.82-.55M429.81,757.84c-5.05-4.83-10.57-8.66-15.61-13.5l-5.74-.25-3.32.9h0s-.03-.01-.04-.02c-.66-.3-1.39-.09-1.63.46h0c.59,1.22,1.74,2.21,3.12,2.7-4.04-.68-5.46,2.34-4.04,5.47l-1.2-.57c-2.17,1.43,2.37,1.12,1.9,2.12-2.15,1.45-3.12-2.7-5.27-1.25,1.17.55.7,1.56,1.9,2.12-2.64,2.44-2.39-1.13-4.07-.69q.7,1.56,1.9,2.12c-1.22-.58-3.81,1.89-5.49,2.33-4.54.32-7.89,1.2-8.11,4.78-.42,1.1.18,2.44,1.42,3.13-1.7.43-3.34.88-4.54.32.7,1.56-.25,3.57,0,6.14.97,3.92,3.34,7.63,6.74,10.55h0c6.27,5.36,25.04,27.75,25.51,32.89,7.04,10.24,15.27,19.89,24.53,28.76.95-2.01,4.54-.32,5.49-2.33.47-1.01-3.59-1.69-4.32-3.26.01-5.23,2.72-9.83,7.36-12.51.35-.23.61-.55.76-.92.47-1.18-.3-2.62-1.7-3.21,5.49-2.33,4.27-9.06,9.75-11.39-2.45-1.41-4.59-3.26-6.25-5.4-.7-1.56.25-3.57,0-6.14-1.96-8.28-3.91-16.57-6.33-23.86l-1.2-.57.47-1.01h0c-1.38-.49-2.53-1.48-3.12-2.7-1.2-.57.47-1.01.47-1.01-.91-2.43-2.3-4.75-4.1-6.84l-4.79-2.26s.03.01.04.02c.66.3,1.39.09,1.63-.46-.25-2.58-3.59-1.69-4.32-3.26.91-.24,1.66-.74,2.15-1.45M993.43,331.94c-.66,1.33-.74,2.76-1.04,4.13-.31,1.33-.62,2.53-.97,3.52-.31,1.05-.66,1.91-1.1,2.48l-1.23,1.8c-.41.61-.78,1.28-1.17,1.91-.13.22-.27.43-.4.65.63.56,1.09,1.11,1.35,1.65.86,1.91-.36,3.2-4.55,3.94-.13.24-.26.47-.38.71,1.44.22-3.56,8.37-4.2,8.54-.14.31-.29.6-.42.92l-1.87,4.45-.95,2.23c-.31.74-.57,1.54-.87,2.31l-1.71,4.64c-4.45,12.49-7.86,26.01-10.61,40.02-1.26-.62-2.19-2.81-3.24-.77-.66,1.68-.99,3.46-1.13,5.27-.08.9-.08,1.83-.03,2.8.03.94.1,1.89.15,2.84.23,3.8.45,7.55-.73,11.06-.68-.14-1.4-.26-2.1-.39.11,3.23.27,6.54.43,9.88.17,3.35.29,6.69.6,10.2-.3,2.97-.59,5.95-.88,8.91l-.47,4.44c-.12,1.51-.21,3.02-.33,4.54-.22,3.02-.45,6.03-.68,9.04l-.37,4.5c-.14,1.5-.16,3.05-.25,4.57-.75-.57-1.45-.94-1.71.22-.26,2.51-.19,5.63-.03,9.05.18,3.44.36,7.13.69,10.97-.07,1.09-.14,2.18-.21,3.24-.41.75-1.12.78-1.55.79.22,3.46.54,6.56.88,9.44-.39,4.51-.45,9.14-.63,13.78-.17,4.65-.35,9.31-.53,13.99-.03,4.75-.05,9.52-.08,14.32-.02,2.41-.03,4.83-.04,7.24l-.02,3.64c-.02,1.22.05,2.45.07,3.68.12,4.94.24,9.91.38,14.92.13,5.02.2,10.07.56,15.23.29,5.16.59,10.36.89,15.59.15,2.64.31,5.28.47,7.94.21,2.67.47,5.36.7,8.05-.04,4.54-.06,9.09.03,13.62.04,2.26.12,4.52.24,6.78.06,1.13.13,2.25.21,3.36.09,1.13.23,2.25.37,3.36,1.07,6.61,2.87,14.16,4.76,21.68.97,3.76,1.89,7.49,2.91,11.12,1.02,3.62,2,7.1,2.85,10.34-3.74-1.03-4.53,6.36-5.44,13.28-.92,6.91-1.95,13.37-6.24,10.21,2.44,8.76,6.24,21.9,4.45,22.64-2.66,1.12,10.32,43.33,8.55,45.24-1.74,1.82-6.11,3.63-9.84,5.87,1.4,3.9,2.46,7.08,2.37,8.45-.23,3.28-2.35,1.64-5.44.98-3.14-.52-6.03-.76-5,1.36,1.15-.1,2.3-.05,3.44.09,1.15.12,2.24.47,3.33.77,1.1.32,2.2.65,3.3.97,1.07.36,2.14.68,3.23.91-.67.7-1.95.91-3.51.89-1.56-.03-2.69,3.36-1.37,3.89,1.3.56,2.48,1.11,3.51,1.67,1.97,1.21,3.35,2.37,3.86,3.46,1.01,2.23-.82,3.62-6.96,4.28,1.86.45,4.28.62,6.53,1.07l.86.16.79.2c.52.14,1.06.28,1.55.44.44.17.88.36,1.29.56.18.1.31.18.46.28l.21.15s-.08,0-.12-.02c0,0-3.48,2.9-3.85,3.11-.38.2-.79.4-1.19.58-.82.38-1.56.71-2.44,1.06-1.45.22-2.81.46-4.29.84-1.45.36-2.77.68-4.12,1.09-1.32.37-2.51.68-3.55.86-1.07.24-1.99.34-2.7.24l-2.17-.2c-.73-.06-1.49-.07-2.24-.1-1.51-.04-2.96-.16-4.51-.16-3.09.05-6.11-.02-9.3.26-1.58.11-3.12.14-4.73.31l-4.8.52-2.41.25c-.8.08-1.63.24-2.44.36l-4.89.75c-13.08,2.15-26.57,5.7-40.15,10.09-.07-1.4,1.4-3.28-.89-3.21-1.8.23-3.51.81-5.16,1.56-.83.37-1.64.82-2.46,1.32-.81.48-1.61,1-2.41,1.5-3.22,2.04-6.39,4.05-10.03,4.71-.21-.67-.45-1.35-.67-2.03-2.77,1.66-5.59,3.4-8.44,5.16-2.85,1.77-5.72,3.49-8.63,5.46-2.74,1.18-5.49,2.36-8.23,3.54l-4.11,1.73c-1.38.62-2.75,1.28-4.13,1.91-2.75,1.27-5.49,2.52-8.24,3.78l-4.12,1.86c-1.38.6-2.75,1.34-4.13,1.99.14-.93.13-1.72-1.02-1.39-2.32.99-5.02,2.56-7.93,4.35-2.92,1.82-6.06,3.76-9.26,5.91-.99.47-1.97.93-2.94,1.38-.85,0-1.22-.6-1.45-.98-2.92,1.86-5.48,3.65-7.84,5.34-4.13,1.84-8.22,4.03-12.36,6.12-4.15,2.1-8.32,4.2-12.5,6.31-4.17,2.27-8.36,4.56-12.57,6.86-2.12,1.15-4.24,2.31-6.36,3.47l-3.2,1.74c-1.07.57-2.12,1.23-3.19,1.84-4.27,2.5-8.55,5.01-12.87,7.55-4.33,2.54-8.71,5.05-13.06,7.86-4.37,2.75-8.78,5.53-13.21,8.32-2.24,1.41-4.47,2.83-6.72,4.25-2.24,1.47-4.46,3-6.71,4.5-3.99,2.17-7.98,4.34-11.91,6.62-1.96,1.13-3.9,2.29-5.81,3.49-.96.6-1.91,1.2-2.84,1.81-.94.63-1.86,1.29-2.76,1.95-5.27,4.14-11.01,9.36-16.67,14.66-2.82,2.67-5.64,5.28-8.32,7.92-2.68,2.65-5.25,5.18-7.67,7.5-.91-3.77-7.76-.88-14.26,1.67-6.5,2.54-12.64,4.76-11.96-.52-6.49,6.38-16.15,16.06-17.66,14.86-2.26-1.78-5.52-2.91-10.65-1.85-.97.2-2.03.51-3.14.88,1.73,4.76,3.17,8.78,3.06,10.36-.13,1.9-1.16.9-2.43-.9-2.55-2.46-4.96-4.69-7.34-6.54-.11.06-.21.12-.32.17.35.57.7,1.15,1.04,1.71.49.86.93,1.71,1.37,2.55.89,1.68,1.72,3.3,2.42,4.8,1.31,3.05,2.09,5.63,2.01,7.19,1.46,8.17-.04,10.25-2.45,9.71-2.38-.57-6.16-3.56-9.92-5.63-2.05-1.66-3.38-.89-4.83-.43-1.46.48-3.06.66-5.57-1.94,2.07,4.21,2.98,6.34,4.7,10.65-1,.49-2-2.87-3.06-5.9-1.2-3-2.49-5.63-3.63-3.64.67.95,1.22,1.97,1.69,3.03.5,1.06.78,2.19,1.1,3.29.31,1.12.62,2.25.92,3.37.26,1.12.56,2.22.94,3.28-.9-.22-1.72-1.22-2.5-2.58-.78-1.37-1.66-3.07-2.44-4.71l-.59-1.21c-.22-.39-.44-.78-.65-1.14-.43-.72-.85-1.38-1.24-1.91-.66-.87-1.27-1.38-1.84-1.34-.1.11-.2.23-.3.34.18.6.72,1.44,1.45,2.42.43.56.89,1.17,1.37,1.79.46.62.9,1.27,1.33,1.92.84,1.29,1.62,2.58,1.91,3.63.26,1.06.1,1.9-.79,2.29-.35.16-.9-.79-1.45-2.03-.63-1.24-1.27-2.77-1.7-3.79.45,1.62.9,3.15,1.16,4.58.23,1.42.39,2.74.48,3.91.06,2.34-.15,4.14-.75,5.16-1.24,2.04-3.28,1.17-6.94-3.81.6,1.85,1.7,4.04,2.5,6.22l.32.83.25.79c.16.53.32,1.06.45,1.57.09.48.17.95.22,1.41.02.21.01.36.01.55v.26s-.04-.07-.06-.11h-.06c-.54-1.6-1.46-4.36-1.95-5.85l.41,1.63.31,1.57c.13.54.18,1,.26,1.48l.11.69.07.54c-.58-.22-1.12-.38-1.7-.7-.33-.68-.61-1.32-.93-2.1-.29-.75-.52-1.5-.76-2.35l.28,1.06.2,1,.22,1.01c.07.34.1.61.15.92-.33-.2-.67-.41-1.02-.62-.36-.23-.72-.48-1.07-.73-.72-.51-1.36-.99-2.09-1.57-.92-1.14-1.81-2.2-2.86-3.29-1.03-1.07-1.96-2.05-2.97-3.01-.97-.95-1.82-1.83-2.5-2.64-.74-.81-1.29-1.55-1.57-2.22l-.95-1.99c-.33-.67-.71-1.33-1.07-2-.74-1.33-1.39-2.66-2.19-3.99-1.62-2.65-3.12-5.31-4.97-7.94-.9-1.31-1.71-2.64-2.66-3.94l-2.87-3.9-1.43-1.96c-.48-.65-1.03-1.29-1.54-1.93l-3.1-3.85c-8.4-10.24-18.12-20.1-28.53-29.61,1.07-.79,3.3-.5,2.07-2.44-1.1-1.44-2.44-2.62-3.88-3.66-.71-.53-1.49-1-2.31-1.45-.79-.45-1.62-.88-2.42-1.31-3.26-1.73-6.47-3.44-8.86-6.26.42-.53.84-1.09,1.25-1.64-2.73-1.54-5.55-3.08-8.39-4.64-2.86-1.55-5.68-3.15-8.73-4.65-2.34-1.77-4.68-3.54-7.01-5.3l-3.47-2.67c-1.2-.87-2.42-1.72-3.62-2.59-2.41-1.73-4.8-3.46-7.21-5.18l-3.57-2.61c-1.18-.89-2.46-1.69-3.69-2.54.8-.37,1.42-.79.58-1.61-1.97-1.5-4.59-3.02-7.5-4.62-2.93-1.59-6.08-3.3-9.41-4.97-.88-.62-1.75-1.23-2.6-1.83-.44-.74-.15-1.37.03-1.76-2.97-1.56-5.69-2.86-8.23-4.02-3.57-2.63-7.39-5.04-11.16-7.55-3.78-2.51-7.57-5.04-11.38-7.57-3.93-2.44-7.88-4.88-11.85-7.34-1.99-1.24-4-2.48-5.99-3.72l-3.01-1.87c-1-.63-2.06-1.21-3.09-1.81-4.16-2.4-8.33-4.82-12.55-7.24-4.22-2.44-8.45-4.94-12.89-7.24-4.41-2.36-8.86-4.74-13.34-7.14-2.26-1.21-4.52-2.41-6.8-3.63-2.31-1.18-4.65-2.31-6.99-3.48-3.75-2.34-7.52-4.67-11.32-6.9-1.9-1.11-3.81-2.19-5.73-3.23-.96-.52-1.92-1.03-2.88-1.52-.98-.49-1.97-.94-2.95-1.39-5.96-2.42-13.02-4.68-20.1-6.84-3.55-1.06-7.06-2.15-10.51-3.1-3.46-.95-6.78-1.86-9.84-2.76,2.51-2.75-3.28-7.2-8.62-11.51-5.33-4.32-10.23-8.5-5.72-10.66-8.35-2.31-20.94-5.66-20.76-7.6.25-2.89-.53-6.31-4-10.21-1.73-1.94-4.15-4.01-7.43-6.19-3.31-2.1-7.52-4.3-12.82-6.58-5.72-2.07-14.12-3.36-19.84-4.56-3.96,2.51-5.77,1.84-6.43-.19-.77-2.53-32.91-16.01-33.07-15.93l-.23.11s-.75-6.03-.72-6.48c.06-.93,1.21-5.5,1.6-7.02.38-1.49.75-2.84,1.05-4.26.31-1.38.63-2.61.97-3.63.32-1.09.67-1.97,1.1-2.55l1.23-1.85c.41-.63.79-1.32,1.18-1.97.77-1.34,1.58-2.59,2.33-3.99,1.46-2.81,2.98-5.5,4.29-8.51.67-1.48,1.4-2.88,2.03-4.42l1.88-4.59.95-2.3c.32-.76.58-1.59.87-2.38l1.72-4.78c4.47-12.88,7.9-26.82,10.66-41.26,1.26.64,2.21,2.9,3.25.79.67-1.74.99-3.57,1.13-5.43.08-.93.08-1.89.03-2.88-.03-.97-.1-1.95-.15-2.93-.23-3.92-.45-7.79.73-11.4.69.14,1.4.27,2.11.4-.11-3.33-.27-6.74-.44-10.19-.17-3.45-.29-6.9-.6-10.51.3-3.06.59-6.13.88-9.19l.48-4.58c.12-1.55.21-3.12.33-4.68.22-3.11.46-6.21.68-9.32l.37-4.64c.14-1.54.16-3.15.25-4.72.75.59,1.45.97,1.72-.22.26-2.59.19-5.8.03-9.33-.18-3.54-.36-7.35-.69-11.31.07-1.13.14-2.24.21-3.34.41-.77,1.12-.8,1.56-.82-.22-3.56-.54-6.76-.89-9.74.39-4.65.45-9.42.63-14.2.17-4.79.35-9.6.53-14.42.03-4.9.05-9.82.08-14.76.02-2.48.03-4.98.04-7.47l.02-3.76c.02-1.26-.05-2.53-.07-3.8-.12-5.1-.25-10.21-.38-15.38-.13-5.17-.2-10.38-.56-15.7-.29-5.31-.6-10.68-.89-16.08-.15-2.72-.31-5.45-.47-8.19-.21-2.75-.47-5.52-.7-8.3.04-4.68.06-9.37-.03-14.05-.04-2.33-.12-4.66-.24-6.99-.06-1.16-.13-2.32-.21-3.46-.09-1.16-.23-2.32-.37-3.47-1.08-6.82-2.88-14.6-4.79-22.35-.97-3.88-1.9-7.73-2.92-11.46-1.03-3.74-2.01-7.33-2.86-10.66,3.76,1.06,4.55-6.56,5.46-13.7.93-7.13,1.96-13.78,6.27-10.53-2.46-9.03-6.27-22.58-4.48-23.34,2.67-1.15,5.24-3.53,6.8-8.69.77-2.57,1.3-5.86,1.44-10.02.04-2.49-.07-5.31-.34-8.48-.42-.16-.84-.32-1.25-.49.14-.04.27-.08.4-.12-4.46-.86-8.16-1.61-9.38-2.47-2.5-1.78,2.57-1.7,6.21-1.96-2.06-.42-3.67-.96-4.58-1.63-7.57-3.07-8.48-5.56-6.71-7.47,1.78-1.86,8.1-12.96,7.3-15.53-.31-.05-.08-6.49.07-7.51.06-.41-.37-2.25-1.39-2.81-1.97-1.21-3.35-2.37-3.86-3.46-1.01-2.23.82-3.62,6.96-4.28-1.86-.45-4.28-.62-6.53-1.07l-.86-.16-.79-.2c-.52-.14-1.06-.28-1.55-.44-.44-.17-.88-.36-1.29-.56-.18-.1-.31-.18-.46-.28l-.21-.15s.08,0,.12.02l.02-.06c1.63.37,4.43,1.02,5.93,1.37l-1.57-.5-1.47-.56c-.52-.17-.93-.38-1.37-.56l-.63-.27-.49-.22c.5-.41.93-.82,1.51-1.17.74.06,1.43.15,2.25.28.78.14,1.53.33,2.37.57l-1.03-.32-.94-.35-.96-.35c-.32-.12-.56-.24-.85-.36.35-.19.7-.39,1.07-.59.38-.2.79-.4,1.19-.58.82-.38,1.56-.71,2.44-1.06,1.45-.22,2.81-.46,4.29-.84,1.45-.36,2.77-.68,4.12-1.09,1.32-.37,2.51-.68,3.55-.86,1.07-.24,1.99-.34,2.7-.24l2.17.2c.73.06,1.49.07,2.24.1,1.51.04,2.96.16,4.51.16,3.09-.05,6.11.02,9.3-.26,1.58-.11,3.12-.14,4.73-.31l4.8-.52,2.41-.25c.8-.08,1.63-.24,2.44-.36l4.89-.75c13.08-2.15,26.57-5.7,40.15-10.09.07,1.4-1.4,3.28.89,3.21,1.8-.23,3.51-.81,5.16-1.56.83-.37,1.64-.82,2.46-1.32.81-.48,1.61-1,2.41-1.5,3.22-2.04,6.39-4.05,10.03-4.71.21.67.45,1.35.67,2.03,2.77-1.66,5.59-3.4,8.44-5.16,2.85-1.77,5.72-3.49,8.63-5.46,2.74-1.18,5.49-2.36,8.23-3.54l4.11-1.73c1.38-.62,2.75-1.28,4.13-1.91,2.75-1.27,5.49-2.52,8.24-3.78l4.12-1.86c1.38-.6,2.75-1.34,4.13-1.99-.14.93-.13,1.72,1.02,1.39,2.32-.99,5.02-2.56,7.93-4.35,2.92-1.82,6.06-3.76,9.26-5.91.99-.47,1.97-.93,2.94-1.38.85,0,1.22.6,1.45.98,2.92-1.86,5.48-3.65,7.84-5.34,4.13-1.84,8.22-4.03,12.36-6.12,4.15-2.1,8.32-4.2,12.5-6.31,4.17-2.27,8.36-4.56,12.57-6.86,2.12-1.15,4.24-2.31,6.36-3.47l3.2-1.74c1.07-.57,2.12-1.23,3.19-1.84,4.27-2.5,8.55-5.01,12.87-7.55,4.33-2.54,8.71-5.05,13.06-7.86,4.37-2.75,8.78-5.53,13.21-8.32,2.24-1.41,4.47-2.83,6.72-4.25,2.24-1.47,4.46-3,6.71-4.5,3.99-2.17,7.98-4.34,11.91-6.62,1.96-1.13,3.9-2.29,5.81-3.49.96-.6,1.91-1.2,2.84-1.81.94-.63,1.86-1.29,2.76-1.95,5.27-4.14,11.01-9.36,16.67-14.66,2.82-2.67,5.64-5.28,8.32-7.92,2.68-2.65,5.25-5.18,7.67-7.5.91,3.77,7.76.88,14.26-1.67,6.5-2.54,12.64-4.76,11.96.52,6.49-6.38,48.1-45.52,50.58-44.92,2.45.63,6.33,3.89,10.19,6.16.6.52,1.14.81,1.65.96,2.31-2.65,6.7-12.64,6.31-13.8.93.24,3.49.99,4.4.55.36-.18,1.63-1.64,1.54-2.92-.06-2.57,4.14-6.93,7.9-1.47-.61-2.03-1.75-4.42-2.57-6.81l-.33-.9-.26-.87c-.17-.58-.33-1.16-.46-1.72-.09-.52-.17-1.04-.23-1.54-.02-.23-.02-.4-.01-.6v-.28s.93.06.93.06c.59.25,1.15.42,1.74.76.34.74,1.56.95,1.93,1.18.37.25.74.52,1.1.8.74.56,4,4.12,5.09,5.31,1.06,1.17,2.02,2.25,3.05,3.3,1,1.04,1.87,2,2.57,2.89.76.89,1.33,1.7,1.62,2.43l.98,2.17c.33.73.73,1.46,1.1,2.19.76,1.46,1.43,2.91,2.25,4.37,1.67,2.9,3.2,5.81,5.1,8.69.93,1.44,1.75,2.89,2.74,4.32l2.95,4.27,1.47,2.15c.49.71,1.05,1.41,1.58,2.12l3.18,4.22c8.64,11.2,18.62,21.99,29.33,32.41-1.1.86-3.39.54-2.13,2.68,1.14,1.57,2.5,2.87,3.98,4.01.73.58,1.53,1.1,2.37,1.59.81.49,1.66.96,2.49,1.44,3.35,1.9,6.65,3.77,9.11,6.85-.43.58-.86,1.19-1.29,1.8,2.81,1.69,5.7,3.37,8.63,5.08,2.93,1.69,5.84,3.44,8.97,5.09,2.4,1.94,4.81,3.87,7.21,5.8l3.57,2.92c1.23.96,2.48,1.88,3.72,2.83,2.47,1.89,4.94,3.78,7.41,5.67l3.67,2.86c1.21.97,2.53,1.85,3.79,2.78-.83.4-1.46.86-.59,1.76,2.02,1.64,4.71,3.31,7.71,5.06,3.01,1.74,6.24,3.62,9.67,5.44.9.68,1.8,1.34,2.67,2,.45.81.16,1.5-.03,1.93,3.05,1.71,5.84,3.13,8.46,4.4,3.67,2.88,7.59,5.51,11.47,8.26,3.89,2.75,7.78,5.51,11.69,8.28,4.04,2.67,8.1,5.34,12.18,8.04,2.05,1.36,4.11,2.71,6.16,4.07l3.1,2.04c1.03.69,2.11,1.32,3.17,1.98,4.27,2.63,8.56,5.27,12.9,7.93,4.34,2.67,8.68,5.4,13.25,7.93,4.53,2.59,9.11,5.19,13.71,7.81,2.32,1.32,4.65,2.64,6.99,3.97,2.37,1.29,4.78,2.53,7.18,3.81,3.86,2.56,7.73,5.11,11.63,7.55,1.95,1.22,3.91,2.4,5.89,3.54.99.57,1.98,1.13,2.96,1.66,1,.54,2.03,1.03,3.03,1.52,6.13,2.65,13.39,5.13,20.66,7.48,3.65,1.16,7.25,2.36,10.8,3.39,3.56,1.03,6.97,2.04,10.12,3.02-2.58,3.01,3.37,7.88,8.86,12.59,5.48,4.73,10.52,9.3,5.88,11.66,8.59,2.53,21.52,6.19,21.34,8.31-.25,3.17.55,6.9,4.12,11.17.25.3.55.6.82.91,1.46,0,2.9.02,4.29.07,1.17.03,2.31.09,3.43.15,1.11.1,2.19.24,3.24.37,1.9.39,3.79.81,5.68,1.25l1.41.33,1.41.42,2.8.85c1.85.59,3.7,1.12,5.52,1.8,1.81.7,3.61,1.4,5.42,2.1-3.98,1.16-7.63,2.28-10.81,3.69.99-.01,1.97-.03,2.94-.05.98.01,1.93.07,2.86.12,1.88.09,3.67.21,5.3.38,3.24.44,5.81,1.13,7.06,2.04,7.57,3.07,8.95,8.18,9.32,7.91.17-.11,1.85,8.65-.17,12.72ZM180.94,296.9c-1.07.2-2.13.35-3.19.49.05.01.1.03.14.04,8.07,2.32,16.15,4.59,24.15,7.04,7.95,2.57,15.9,5.13,23.85,7.7,31.64,10.61,62.95,22.1,94.42,35.14,1.24.7,2.96,1.59,5.12,2.64,2.16,1.04,4.68,2.39,7.59,3.82,2.91,1.44,6.19,3.04,9.78,4.76,1.79.86,3.66,1.75,5.61,2.68,1.93.94,3.98,1.84,6.01,2.9,4.09,2.06,8.43,4.25,12.95,6.53,4.52,2.3,9.31,4.56,14.06,7.18,4.78,2.55,9.7,5.18,14.7,7.85,1.25.67,2.52,1.32,3.77,2.01,1.23.7,2.47,1.42,3.71,2.12,2.48,1.43,4.99,2.86,7.5,4.29,2.51,1.43,5.03,2.87,7.54,4.31,1.28.71,2.5,1.46,3.74,2.22l3.69,2.27c2.46,1.51,4.9,3.01,7.35,4.51,1.22.75,2.44,1.49,3.65,2.23,1.21.75,2.44,1.47,3.59,2.27,4.71,3.1,9.34,6.17,13.85,9.14,2.28,1.46,4.42,3.03,6.56,4.54,2.14,1.52,4.23,3.01,6.28,4.47,2.04,1.47,4.08,2.87,6.02,4.3,1.91,1.46,3.77,2.88,5.57,4.27,1.82,1.39,3.57,2.73,5.28,4.03,1.69,1.31,3.37,2.53,4.87,3.81,3.07,2.51,5.89,4.82,8.42,6.88,1.27,1.03,2.48,1.98,3.57,2.91,1.09.94,2.1,1.81,3.03,2.61.84.82,1.66,1.63,2.51,2.44,1.98,1.77,4.01,3.59,6.05,5.46,1.95,1.94,3.92,3.94,5.88,5.95.98,1.02,1.96,2.03,2.94,3.05l1.46,1.53,1.38,1.61c1.84,2.13,3.65,4.28,5.41,6.43,1.81,2.11,3.41,4.35,4.97,6.53,1.55,2.19,3.07,4.34,4.45,6.47,1.32,2.18,2.56,4.32,3.71,6.39.58,1.03,1.12,2.05,1.64,3.05.5,1.02.94,2.03,1.37,3.01.67,1.86,1.3,3.72,1.92,5.58l.46,1.4.09.34c4.76-3.32,6.85-2.74,7.57-.58.77,2.46.19,7.32.38,11.75-.36,2.66,1.02,3.53,2.21,4.65.55.51,1.05,1.09,1.35,1.9,5.5-5.63,11.03-11.18,16.67-16.56,6.34-6.12,12.64-12.26,19.05-18.24,6.48-5.87,12.95-11.74,19.43-17.61,26.11-23.16,52.76-45.54,80.78-67.23,1.26-.75,2.94-1.84,4.99-3.25,2.04-1.41,4.54-2.98,7.32-4.87,2.79-1.88,5.91-4.01,9.3-6.36,1.69-1.17,3.45-2.4,5.29-3.67,1.84-1.26,3.7-2.64,5.69-3.92,3.95-2.62,8.13-5.41,12.5-8.31,4.38-2.88,8.87-6.04,13.64-8.96,4.73-2.99,9.6-6.06,14.55-9.19,1.24-.77,2.48-1.59,3.73-2.36,1.26-.74,2.53-1.49,3.79-2.25,2.54-1.5,5.1-3.02,7.66-4.53,2.56-1.52,5.13-3.04,7.69-4.56,1.28-.78,2.58-1.5,3.89-2.21l3.9-2.15c2.59-1.43,5.18-2.86,7.76-4.27,1.29-.71,2.57-1.42,3.85-2.13,1.29-.7,2.55-1.43,3.85-2.05,5.15-2.62,10.22-5.2,15.15-7.71,2.46-1.3,4.93-2.4,7.35-3.54,2.42-1.13,4.81-2.23,7.14-3.32,2.33-1.07,4.61-2.18,6.86-3.17,2.25-.95,4.45-1.89,6.59-2.78,2.14-.91,4.21-1.79,6.22-2.65,2.01-.84,3.94-1.72,5.83-2.39,3.76-1.45,7.21-2.78,10.31-3.98,1.55-.6,3-1.19,4.37-1.7,1.38-.49,2.65-.94,3.81-1.36,1.14-.32,2.26-.64,3.39-.97,2.55-.86,5.17-1.72,7.84-2.58,2.68-.73,5.41-1.46,8.15-2.16.95-.24,1.9-.48,2.85-.72-1.82-.57-3.64-1.13-5.45-1.72-8.17-2.81-16.34-5.61-24.51-8.42-32.52-11.61-64.7-24.18-97.04-38.45-1.27-.77-3.04-1.74-5.26-2.89-2.22-1.13-4.81-2.61-7.81-4.18-2.99-1.57-6.36-3.32-10.05-5.21-1.84-.94-3.76-1.92-5.76-2.93-1.99-1.03-4.09-2.01-6.17-3.18-4.21-2.26-8.66-4.65-13.31-7.14-4.65-2.52-9.57-4.99-14.45-7.86-4.92-2.79-9.97-5.67-15.11-8.59-1.28-.74-2.59-1.45-3.88-2.2-1.26-.77-2.54-1.55-3.82-2.33-2.55-1.56-5.13-3.13-7.71-4.69-2.58-1.57-5.17-3.14-7.75-4.71-1.31-.77-2.57-1.6-3.84-2.43l-3.79-2.48c-2.52-1.65-5.04-3.29-7.55-4.94-1.25-.82-2.51-1.63-3.76-2.44-1.25-.82-2.5-1.61-3.69-2.49-4.84-3.39-9.6-6.75-14.23-10-2.35-1.59-4.54-3.32-6.74-4.97-2.19-1.66-4.34-3.3-6.46-4.89-2.1-1.61-4.19-3.14-6.19-4.71-1.96-1.6-3.88-3.16-5.73-4.68-1.87-1.52-3.67-2.98-5.42-4.41-1.74-1.43-3.47-2.77-5.01-4.17-3.16-2.75-6.05-5.27-8.65-7.53-1.3-1.13-2.55-2.17-3.67-3.18-1.12-1.03-2.16-1.98-3.11-2.85-.86-.9-1.71-1.78-2.57-2.67-2.04-1.94-4.12-3.93-6.22-5.98-2-2.13-4.03-4.31-6.04-6.51-1.01-1.11-2.02-2.22-3.02-3.33l-1.5-1.68-1.42-1.76c-1.89-2.33-3.75-4.69-5.57-7.04-1.86-2.31-3.51-4.76-5.11-7.15-1.59-2.4-3.16-4.75-4.58-7.08-1.36-2.39-2.64-4.73-3.81-6.99-.59-1.13-1.15-2.24-1.68-3.34-.51-1.11-.96-2.22-1.41-3.29-.68-2.03-1.34-4.07-1.98-6.11l-.47-1.53-.4-1.57-.79-3.14c-.29-1.22-.58-2.43-.87-3.65-6.1,6.28-12.24,12.45-18.51,18.42-6.34,6.12-12.64,12.26-19.05,18.25-6.48,5.87-12.95,11.74-19.43,17.61-26.11,23.16-52.76,45.54-80.78,67.23-1.26.75-2.94,1.84-4.99,3.25-2.04,1.41-4.54,2.98-7.32,4.87-2.79,1.88-5.91,4.01-9.3,6.36-1.69,1.17-3.45,2.4-5.29,3.67-1.84,1.26-3.7,2.64-5.69,3.92-3.95,2.62-8.13,5.41-12.5,8.31-4.38,2.88-8.87,6.04-13.64,8.96-4.73,2.99-9.6,6.06-14.55,9.19-1.24.77-2.48,1.59-3.73,2.36-1.26.74-2.53,1.49-3.79,2.25-2.54,1.5-5.1,3.02-7.66,4.53-2.56,1.52-5.13,3.04-7.69,4.56-1.28.78-2.58,1.5-3.89,2.21l-3.9,2.15c-2.59,1.43-5.18,2.86-7.76,4.27-1.29.71-2.57,1.42-3.85,2.13-1.29.7-2.55,1.43-3.85,2.05-5.15,2.62-10.22,5.2-15.15,7.71-2.46,1.3-4.93,2.4-7.35,3.54-2.42,1.13-4.81,2.23-7.14,3.32-2.33,1.07-4.61,2.18-6.86,3.17-2.25.95-4.45,1.89-6.59,2.78-2.14.91-4.21,1.79-6.22,2.65-2.01.84-3.94,1.72-5.83,2.39-3.76,1.45-7.21,2.78-10.31,3.98-1.55.6-3,1.19-4.37,1.7-1.38.49-2.65.94-3.81,1.36-1.14.32-2.26.64-3.39.97-2.55.86-5.17,1.72-7.84,2.58-2.68.73-5.41,1.46-8.15,2.16-1.38.35-2.75.7-4.13,1.04l-2.07.51-2.09.39c-2.78.53-5.55,1.03-8.29,1.48ZM509.56,961.6c1.95,1.94,3.92,3.94,5.88,5.95.98,1.02,1.96,2.03,2.94,3.05l1.46,1.53,1.38,1.61c1.84,2.13,3.65,4.28,5.41,6.43,1.81,2.11,3.41,4.35,4.97,6.53.19.27.37.52.55.79-1.56-5.33-3.05-10.67-4.45-16.01-2.29-8.51-4.62-16.99-6.75-25.5-2-8.51-4.01-17.01-6.01-25.52-7.63-34.06-14.32-68.21-19.74-103.23-.05-1.47-.19-3.46-.43-5.94-.25-2.47-.42-5.41-.72-8.76-.3-3.35-.65-7.11-1.07-11.22-.2-2.04-.43-4.18-.66-6.4-.21-2.21-.52-4.51-.67-6.88-.38-4.73-.8-9.73-1.22-14.96-.4-5.23-.99-10.68-1.23-16.27-.33-5.59-.66-11.33-1-17.18-.08-1.46-.19-2.94-.26-4.41-.04-1.46-.08-2.93-.13-4.41-.08-2.95-.17-5.92-.26-8.9-.09-2.98-.18-5.96-.27-8.94-.06-1.5-.06-2.98-.06-4.47v-4.45c.01-2.96.01-5.91.02-8.86,0-1.47,0-2.94,0-4.4,0-1.47-.02-2.93.07-4.36.19-5.77.39-11.46.58-16.99.05-2.78.29-5.48.46-8.14.18-2.67.37-5.29.55-7.86.19-2.56.33-5.09.54-7.54.26-2.43.5-4.81.75-7.11.24-2.31.47-4.55.7-6.73.23-2.17.4-4.28.73-6.26.55-4,1.06-7.66,1.51-10.95.23-1.64.41-3.2.63-4.64.24-1.44.46-2.77.66-4,.27-1.15.53-2.29.79-3.44.48-2.65.99-5.36,1.54-8.11.66-2.69,1.34-5.44,2.05-8.18.36-1.37.72-2.75,1.09-4.12l.55-2.06.67-2.02c.88-2.69,1.79-5.35,2.72-7.97.25-.74.54-1.45.81-2.18-.06-.06-.12-.12-.18-.18-.97-.95-1.82-1.83-2.5-2.64-.74-.81-1.29-1.55-1.57-2.22l-.95-1.99c-.33-.67-.71-1.33-1.07-2-.74-1.33-1.39-2.66-2.19-3.99-1.62-2.65-3.12-5.31-4.97-7.94-.9-1.31-1.71-2.64-2.66-3.94l-2.87-3.9-1.43-1.96c-.48-.65-1.03-1.29-1.54-1.93l-3.1-3.85c-8.4-10.24-18.12-20.1-28.53-29.61,1.07-.79,3.3-.5,2.07-2.44-1.1-1.44-2.44-2.62-3.88-3.66-.71-.53-1.49-1-2.31-1.45-.79-.45-1.62-.88-2.42-1.31-3.26-1.73-6.47-3.44-8.86-6.26.42-.53.84-1.09,1.25-1.64-2.73-1.54-5.55-3.08-8.39-4.64-2.86-1.55-5.68-3.15-8.73-4.65-2.34-1.77-4.68-3.54-7.01-5.3l-3.47-2.67c-1.2-.87-2.42-1.72-3.62-2.59-2.41-1.73-4.8-3.46-7.21-5.18l-3.57-2.61c-1.18-.89-2.46-1.69-3.69-2.54.8-.37,1.42-.79.58-1.61-1.97-1.5-4.59-3.02-7.5-4.62-2.93-1.59-6.08-3.3-9.41-4.97-.88-.62-1.75-1.23-2.6-1.83-.44-.74-.15-1.37.03-1.76-2.97-1.56-5.69-2.86-8.23-4.02-3.57-2.63-7.39-5.04-11.16-7.55-3.78-2.51-7.57-5.04-11.38-7.57-3.93-2.44-7.88-4.88-11.85-7.34-1.99-1.24-4-2.48-5.99-3.72l-3.01-1.87c-1-.63-2.06-1.21-3.09-1.81-4.16-2.4-8.33-4.82-12.55-7.24-4.22-2.44-8.45-4.94-12.89-7.24-4.41-2.36-8.86-4.74-13.34-7.14-2.26-1.21-4.52-2.41-6.8-3.63-2.31-1.18-4.65-2.31-6.99-3.48-3.75-2.34-7.52-4.67-11.32-6.9-1.9-1.11-3.81-2.19-5.73-3.23-.96-.52-1.92-1.03-2.88-1.52-.98-.49-1.97-.94-2.95-1.39-5.96-2.42-13.02-4.68-20.1-6.84-3.55-1.06-82.65-44.1-80.76-36.71,2.3,8.77,4.64,17.52,6.78,26.29,2.01,8.77,4.03,17.54,6.04,26.31,7.67,35.11,14.39,70.32,19.84,106.43.05,1.51.19,3.57.43,6.12.25,2.54.42,5.58.73,9.03.3,3.45.66,7.33,1.07,11.56.21,2.11.43,4.31.66,6.6.21,2.28.52,4.65.68,7.09.39,4.87.8,10.03,1.23,15.42.4,5.39,1,11.02,1.24,16.78.33,5.76.66,11.69,1.01,17.71.08,1.51.19,3.03.26,4.54.04,1.5.08,3.03.13,4.54.08,3.04.17,6.11.26,9.17.09,3.07.18,6.14.27,9.22.06,1.55.06,3.07.06,4.61v4.59c-.01,3.05-.01,6.09-.02,9.13,0,1.51,0,3.03,0,4.54,0,1.51.02,3.02-.07,4.5-.19,5.95-.39,11.82-.58,17.52-.05,2.86-.29,5.65-.46,8.4-.18,2.75-.37,5.45-.55,8.1-.19,2.64-.33,5.25-.54,7.77-.26,2.51-.5,4.96-.76,7.33-.24,2.39-.47,4.7-.7,6.93-.24,2.23-.41,4.41-.73,6.45-.55,4.12-1.06,7.9-1.52,11.29-.23,1.7-.41,3.3-.63,4.79-.24,1.48-.46,2.86-.66,4.12-.27,1.19-.54,2.36-.8,3.55-.49,2.73-1,5.52-1.54,8.36-.66,2.78-1.35,5.61-2.06,8.43-.37,1.42-.73,2.83-1.09,4.25l-.56,2.12-.67,2.08c-.88,2.77-1.79,5.52-2.73,8.22-.88,2.73-1.98,5.32-3.06,7.84-1.09,2.52-2.15,4.99-3.28,7.33-1.2,2.3-2.41,4.5-3.61,6.58-.6,1.04-1.2,2.04-1.8,3.02-.63.96-1.27,1.86-1.9,2.74-1.27,1.52-2.56,3.02-3.86,4.5l-.98,1.11-1.05,1.06-2.11,2.1c-1.42,1.38,15.98,16.61,31.1,21.07,8.07,2.32,16.15,4.59,24.15,7.04,7.95,2.57,15.9,5.13,23.85,7.7,31.64,10.61,62.95,22.1,94.42,35.14,1.24.7,2.96,1.59,5.12,2.64,2.16,1.04,4.68,2.39,7.59,3.82,2.91,1.44,6.19,3.04,9.78,4.76,1.79.86,3.66,1.75,5.61,2.68,1.93.94,3.98,1.84,6.01,2.9,4.09,2.06,8.43,4.25,12.95,6.53,4.52,2.3,9.31,4.56,14.06,7.18,4.78,2.55,9.7,5.18,14.7,7.85,1.25.67,2.52,1.32,3.77,2.01,1.23.7,2.47,1.42,3.71,2.12,2.48,1.43,4.99,2.86,7.5,4.29,2.51,1.43,5.03,2.87,7.54,4.31,1.28.71,2.5,1.46,3.74,2.22l3.69,2.27c2.46,1.51,4.9,3.01,7.35,4.51,1.22.75,2.44,1.49,3.65,2.23,1.21.75,2.44,1.47,3.59,2.27,4.71,3.1,9.34,6.17,13.85,9.14,2.28,1.46,4.42,3.03,6.56,4.54,2.14,1.52,4.23,3.01,6.28,4.47,2.04,1.47,4.08,2.87,6.02,4.3,1.91,1.46,3.77,2.88,5.57,4.27,1.82,1.39,3.57,2.73,5.28,4.03,1.69,1.31,3.37,2.53,4.87,3.81,3.07,2.51,5.89,4.82,8.42,6.88,1.27,1.03,2.48,1.98,3.57,2.91,1.09.94,2.1,1.81,3.03,2.61.84.82,1.66,1.63,2.51,2.44,1.98,1.77,4.01,3.59,6.05,5.46ZM941.8,788.9c.59.19,1.17.37,1.76.55-2.67-8.75-5.22-17.49-7.51-26.25-2.29-8.51-4.62-16.99-6.75-25.5-2-8.51-4.01-17.01-6.01-25.52-7.63-34.06-14.32-68.21-19.75-103.23-.05-1.47-.19-3.46-.43-5.94-.25-2.47-.42-5.41-.72-8.76-.3-3.35-.65-7.11-1.07-11.22-.2-2.04-.43-4.18-.66-6.4-.21-2.21-.52-4.51-.67-6.88-.38-4.73-.8-9.73-1.22-14.96-.4-5.23-.99-10.68-1.23-16.27-.33-5.59-.66-11.33-1-17.18-.08-1.46-.19-2.94-.25-4.41-.04-1.46-.08-2.93-.13-4.41-.08-2.95-.17-5.92-.26-8.9-.09-2.98-.18-5.96-.27-8.94-.06-1.5-.06-2.98-.06-4.47v-4.45c.01-2.96.01-5.91.02-8.86,0-1.47,0-2.94,0-4.4,0-1.47-.02-2.93.07-4.36.19-5.77.39-11.46.58-16.99.05-2.78.29-5.48.46-8.14.18-2.67.37-5.29.55-7.86.19-2.56.33-5.09.54-7.54.26-2.43.5-4.81.75-7.11.24-2.31.47-4.55.7-6.73.23-2.17.4-4.28.73-6.26.55-4,1.06-7.66,1.51-10.95.23-1.64.41-3.2.63-4.64.24-1.44.46-2.77.66-4,.27-1.15.53-2.29.79-3.44.48-2.65.99-5.36,1.54-8.11.42-1.72.87-3.47,1.31-5.21-4.21,1.19-8.43,2.46-12.67,3.83-.07-1.4,1.4-3.28-.89-3.21-1.8.23-3.51.81-5.16,1.56-.83.37-1.64.82-2.46,1.32-.81.48-1.61,1-2.41,1.5-3.22,2.04-6.39,4.05-10.03,4.71-.21-.67-.45-1.35-.67-2.03-2.77,1.66-5.59,3.4-8.44,5.16-2.85,1.77-5.72,3.49-8.63,5.46-2.74,1.18-5.49,2.36-8.23,3.54l-4.11,1.73c-1.38.62-2.75,1.28-4.13,1.91-2.75,1.27-5.49,2.52-8.24,3.78l-4.12,1.86c-1.38.6-2.75,1.34-4.13,1.99.14-.93.13-1.72-1.02-1.39-2.32.99-5.02,2.56-7.93,4.35-2.92,1.82-6.06,3.76-9.26,5.91-.99.47-1.97.93-2.94,1.38-.85,0-1.22-.6-1.45-.98-2.92,1.86-5.48,3.65-7.84,5.34-4.13,1.84-8.22,4.03-12.36,6.12-4.15,2.1-8.32,4.2-12.5,6.31-4.17,2.27-8.36,4.56-12.57,6.86-2.12,1.15-4.24,2.31-6.36,3.47l-3.2,1.74c-1.07.57-2.12,1.23-3.19,1.84-4.27,2.5-8.55,5.01-12.87,7.55-4.33,2.54-8.71,5.05-13.06,7.86-4.37,2.75-8.78,5.53-13.21,8.32-2.24,1.41-4.47,2.83-6.72,4.25-2.24,1.47-4.46,3-6.71,4.5-3.99,2.17-7.98,4.34-11.91,6.62-1.96,1.13-3.9,2.29-5.81,3.49-.96.6-1.91,1.2-2.84,1.81-.94.63-1.86,1.29-2.76,1.95-5.27,4.14-11.01,9.36-16.67,14.66-2.82,2.67-5.64,5.28-8.32,7.92-2.68,2.65-5.25,5.18-7.67,7.5-.91-3.77-40.17,15.01-43.03,15.99,0,.04,0,.08,0,.13-.01.43-.04.88-.07,1.32-.06.9-.14,1.71-.25,2.65-.51,1.37-.96,2.68-1.34,4.16-.38,1.44-.74,2.76-1.04,4.13-.31,1.33-.62,2.53-.97,3.52-.31,1.05-.66,1.91-1.1,2.48l-1.23,1.8c-.41.61-.78,1.28-1.17,1.91-.76,1.3-1.58,2.51-2.32,3.87-1.45,2.73-2.97,5.34-4.27,8.26-.67,1.44-1.39,2.8-2.02,4.28l-1.87,4.45-.95,2.23c-.31.74-.57,1.54-.87,2.31l-1.71,4.64c-4.45,12.49-7.86,26.01-10.6,40.02-1.26-.62-2.19-2.81-3.24-.77-.66,1.68-.99,3.46-1.13,5.27-.08.9-.08,1.83-.03,2.8.03.94.1,1.89.15,2.84.23,3.8.45,7.55-.73,11.06-.68-.14-1.4-.26-2.1-.39.11,3.23.27,6.54.43,9.88.17,3.35.29,6.69.6,10.2-.3,2.97-.59,5.95-.88,8.91l-.47,4.44c-.12,1.51-.21,3.02-.33,4.54-.22,3.02-.45,6.03-.68,9.04l-.37,4.5c-.14,1.5-.16,3.05-.25,4.57-.75-.57-1.45-.94-1.71.22-.26,2.51-.19,5.63-.03,9.05.18,3.44.36,7.13.69,10.97-.07,1.09-.14,2.18-.21,3.24-.41.75-1.12.78-1.55.79.22,3.46.54,6.56.88,9.44-.39,4.51-.45,9.14-.63,13.78-.17,4.65-.35,9.31-.53,13.99-.03,4.75-.05,9.52-.08,14.32-.02,2.41-.03,4.83-.04,7.24l-.02,3.64c-.02,1.22.05,2.45.07,3.68.12,4.94.24,9.91.38,14.92.13,5.02.2,10.07.56,15.23.29,5.16.59,10.36.89,15.59.15,2.64.31,5.28.47,7.94.21,2.67.47,5.36.7,8.05-.04,4.54-.06,9.09.03,13.62.04,2.26.12,4.52.24,6.78.06,1.13.13,2.25.21,3.36.09,1.13.23,2.25.37,3.36,1.07,6.61,2.87,14.16,4.76,21.68.97,3.76,1.89,7.49,2.91,11.12,1.02,3.62,2,7.1,2.85,10.34-3.74-1.03-4.53,6.36-5.44,13.28-.92,6.91-1.95,13.37-6.24,10.21,2.44,8.76,6.24,21.9,4.45,22.64-2.66,1.12-5.22,3.42-6.77,8.43-.77,2.5-1.29,5.68-1.43,9.72-.07,4.03.26,8.92,1.1,14.85.25,1.26.6,2.61.99,4.01,1.81-1.77,3.61-3.56,5.44-5.3,6.34-6.12,12.64-12.26,19.05-18.25,6.48-5.87,12.95-11.74,19.43-17.61,26.11-23.16,52.76-45.54,80.78-67.23,1.26-.75,2.94-1.84,4.99-3.25,2.04-1.41,4.54-2.98,7.32-4.87,2.79-1.88,5.91-4.01,9.3-6.36,1.69-1.17,3.45-2.4,5.29-3.67,1.84-1.26,3.7-2.64,5.69-3.92,3.95-2.62,8.13-5.41,12.5-8.31,4.38-2.88,8.87-6.04,13.64-8.96,4.73-2.99,9.6-6.06,14.55-9.19,1.24-.77,2.48-1.59,3.73-2.36,1.26-.74,2.53-1.49,3.79-2.25,2.54-1.5,5.1-3.02,7.66-4.53,2.56-1.52,5.13-3.04,7.69-4.56,1.28-.78,2.58-1.5,3.89-2.21l3.9-2.15c2.59-1.43,5.18-2.86,7.76-4.27,1.28-.71,2.57-1.42,3.85-2.13,1.29-.7,2.55-1.43,3.85-2.05,5.15-2.62,10.22-5.2,15.15-7.71,2.46-1.3,4.93-2.4,7.35-3.54,2.42-1.13,4.81-2.23,7.14-3.32,2.33-1.07,4.61-2.18,6.86-3.17,2.25-.95,4.45-1.89,6.59-2.78,2.14-.91,4.21-1.79,6.22-2.65,2.01-.84,3.94-1.72,5.83-2.39,3.76-1.45,7.21-2.78,10.31-3.98,1.55-.6,3-1.19,4.37-1.7,1.38-.49,2.65-.94,3.81-1.36,1.14-.32,2.26-.64,3.39-.97,2.55-.86,5.17-1.72,7.84-2.58,2.68-.73,5.41-1.46,8.15-2.16,1.38-.35,2.75-.7,4.13-1.04l2.07-.51,2.09-.39c2.78-.53,5.55-1.03,8.29-1.48,2.74-.51,5.47-.77,8.13-1.02,2.66-.24,5.27-.47,7.8-.58,2.53-.03,4.98-.01,7.32.06,1.17.03,2.31.09,3.43.15,1.11.1,2.19.24,3.24.37,1.9.39,3.79.81,5.68,1.25l1.41.33,1.41.42,2.8.85Z" />
</svg>