<?xml version='1.0' encoding='utf-8'?>
<svg xmlns="http://www.w3.org/2000/svg" id="Livello_1" data-name="Livello 1" version="1.1" viewBox="0 0 1080 1080">
  <defs>
    </defs>
  <path class="cls-1" d="M469.85,564.96c.26-.58.08-1.22-.4-1.43-1.07.52-1.94,1.52-2.37,2.74.59-3.55-2.05-4.79-4.8-3.54l.5-1.05c-1.26-1.9-.98,2.08-1.86,1.66-1.27-1.88,2.37-2.74,1.1-4.62-.48,1.02-1.36.61-1.86,1.66-2.14-2.32.99-2.1.6-3.57q-1.36.61-1.86,1.66c.51-1.07-1.66-3.34-2.04-4.81-.28-3.98-1.05-6.92-4.19-7.11-.97-.37-2.14.16-2.74,1.25-.38-1.49-.78-2.93-.28-3.98-1.36.61-3.13-.22-5.39,0-3.44.85-6.69,2.93-9.25,5.92-4.7,5.49-24.34,21.96-28.85,22.37-8.98,6.17-17.44,13.39-25.22,21.51,1.76.83.28,3.98,2.04,4.81.88.42,1.48-3.15,2.86-3.79,4.59.01,8.62,2.39,10.97,6.45.2.31.48.53.81.66,1.04.41,2.3-.26,2.81-1.49,2.04,4.81,7.94,3.74,9.99,8.55,1.24-2.15,2.86-4.02,4.73-5.48,1.36-.61,3.13.22,5.39,0,7.26-1.72,14.54-3.43,20.92-5.55l.5-1.05.88.42c.43-1.21,1.3-2.22,2.37-2.74.5-1.05.88.42.88.42,2.13-.8,4.16-2.02,6-3.59l1.98-4.2s-.01.02-.02.03c-.26.58-.08,1.22.4,1.43,2.26-.22,1.48-3.15,2.86-3.79.21.8.65,1.46,1.27,1.88l-.03.05c4.24-4.43,7.6-9.27,11.84-13.69l.22-5.03-.79-2.91s.01-.02.02-.03Z" />
  <path class="cls-1" d="M402.59,283.98c-2.54-6.52-5.08-13.06-7.89-18.72l-1.04-.32.27-.87c-1.18-.24-2.23-.92-2.85-1.84-1.04-.32.27-.87.27-.87-1.02-1.87-2.42-3.61-4.12-5.11l-4.16-1.29s.02,0,.03.01c.57.17,1.14-.08,1.28-.56-.5-2.07-3.12-.97-3.89-2.17.71-.3,1.27-.8,1.58-1.42l.05.02c-4.66-3.36-9.6-5.85-14.27-9.21l-4.71.46-2.6,1.11s-.02,0-.03-.01c-.57-.17-1.14.08-1.28.56.62.93,1.67,1.6,2.85,1.84-3.37-.09-4.18,2.53-2.67,4.92l-1.04-.32c-1.61,1.42,2.06.64,1.79,1.51-1.58,1.42-2.85-1.84-4.43-.42,1.02.31.74,1.19,1.79,1.51-1.88,2.29-2.08-.64-3.39-.09q.74,1.19,1.79,1.51c-1.06-.33-2.89,1.98-4.21,2.53-3.66.78-6.29,1.88-6.06,4.82-.22.95.43,1.96,1.52,2.39-1.33.54-2.62,1.1-3.66.78.74,1.19.2,2.94.7,5.01,1.24,3.09,3.6,5.84,6.7,7.82,5.72,3.65,23.58,19.76,24.55,23.89,6.91,7.54,14.72,14.46,23.27,20.63.54-1.75,3.66-.78,4.21-2.53.27-.87-3.12-.97-3.89-2.17-.59-4.26,1.09-8.32,4.57-11.04.26-.23.43-.52.51-.84.25-1.02-.54-2.1-1.76-2.42,4.21-2.53,2.44-7.87,6.65-10.39-2.16-.87-4.11-2.13-5.71-3.69-.74-1.19-.2-2.94-.7-5.01Z" />
  <path class="cls-1" d="M692.47,307.56c2.57,6.58,5.12,13.18,7.96,18.89l1.05.33-.27.88c1.19.24,2.25.92,2.88,1.86,1.05.33-.27.88-.27.88,1.03,1.89,2.44,3.64,4.16,5.16l4.2,1.3s-.02,0-.03-.01c-.58-.17-1.15.09-1.29.57.51,2.09,3.15.98,3.93,2.19-.72.3-1.28.8-1.6,1.44l-.05-.02c4.71,3.39,9.69,5.91,14.4,9.3l4.75-.46,2.62-1.12s.02,0,.03.01c.58.17,1.15-.09,1.29-.57-.63-.94-1.68-1.62-2.88-1.86,3.4.09,4.22-2.56,2.69-4.96l1.05.33c1.62-1.43-2.08-.64-1.8-1.53,1.6-1.44,2.88,1.86,4.48.42-1.02-.32-.75-1.2-1.8-1.53,1.89-2.31,2.1.65,3.42.1q-.75-1.2-1.8-1.53c1.07.33,2.92-1.99,4.24-2.55,3.7-.79,6.35-1.9,6.12-4.87.22-.96-.43-1.98-1.53-2.41,1.35-.55,2.64-1.11,3.7-.79-.75-1.2-.2-2.96-.71-5.05-1.25-3.11-3.63-5.89-6.76-7.9-5.77-3.69-23.79-19.94-24.78-24.11-6.97-7.61-14.85-14.59-23.49-20.82-.55,1.76-3.7.79-4.24,2.55-.27.88,3.15.98,3.93,2.19.59,4.3-1.1,8.4-4.61,11.14-.26.23-.44.52-.52.85-.25,1.03.55,2.12,1.77,2.44-4.24,2.55-2.46,7.94-6.71,10.49,2.18.88,4.15,2.15,5.76,3.72.75,1.2.2,2.96.71,5.05Z" />
  <path class="cls-1" d="M208.46,465.87c.93,3.76,3.21,7.32,6.47,10.11,6.01,5.14,24.01,26.61,24.46,31.54,6.75,9.82,14.64,19.07,23.52,27.58.91-1.93,4.35-.31,5.26-2.23.45-.96-3.45-1.62-4.14-3.13.01-5.01,2.61-9.43,7.06-12,.33-.22.58-.53.73-.88.45-1.13-.28-2.51-1.63-3.08,5.26-2.23,4.09-8.68,9.35-10.92-2.35-1.35-4.4-3.12-5.99-5.18-.67-1.49.24-3.42,0-5.89-1.88-7.94-3.75-15.89-6.07-22.88l-1.15-.54.45-.96c-1.33-.47-2.43-1.42-2.99-2.59-1.15-.54.45-.96.45-.96-.88-2.33-2.21-4.55-3.93-6.56l-4.6-2.16s.03.01.04.02c.63.28,1.33.09,1.57-.44-.24-2.47-3.45-1.62-4.14-3.13.87-.23,1.59-.71,2.06-1.39l.05.03c-4.84-4.63-10.13-8.31-14.97-12.94l-5.5-.24-3.18.86s-.03-.01-.04-.02c-.63-.28-1.33-.09-1.57.44.57,1.17,1.67,2.12,2.99,2.59-3.88-.65-5.24,2.24-3.88,5.24l-1.15-.54c-2.08,1.38,2.27,1.07,1.82,2.03-2.06,1.39-2.99-2.59-5.05-1.2,1.12.53.67,1.49,1.82,2.03-2.54,2.34-2.29-1.08-3.9-.66q.67,1.49,1.82,2.03c-1.17-.55-3.66,1.81-5.26,2.23-4.35.31-7.56,1.15-7.77,4.58-.4,1.06.18,2.33,1.36,3-1.63.41-3.2.85-4.35.31.67,1.49-.24,3.42,0,5.89Z" />
  <path class="cls-1" d="M283.61,700.03c.25-.56.08-1.17-.39-1.38-1.03.5-1.87,1.46-2.28,2.63.57-3.41-1.97-4.61-4.61-3.41l.48-1.01c-1.21-1.83-.94,2-1.79,1.6-1.22-1.81,2.28-2.63,1.06-4.44-.46.99-1.31.59-1.79,1.6-2.06-2.23.95-2.02.58-3.43q-1.31.59-1.79,1.6c.49-1.03-1.59-3.22-1.97-4.63-.27-3.83-1.01-6.65-4.03-6.84-.93-.35-2.05.16-2.64,1.2-.36-1.43-.75-2.82-.27-3.83-1.31.59-3.01-.21-5.18,0-3.31.82-6.44,2.82-8.9,5.69-4.52,5.28-23.41,21.12-27.74,21.52-8.64,5.94-16.77,12.88-24.26,20.69,1.7.8.27,3.83,1.97,4.63.85.4,1.43-3.03,2.75-3.64,4.41.01,8.29,2.29,10.55,6.21.2.29.46.51.78.64,1,.39,2.21-.25,2.71-1.44,1.97,4.63,7.64,3.6,9.6,8.23,1.19-2.07,2.75-3.87,4.55-5.27,1.31-.59,3.01.21,5.18,0,6.98-1.65,13.98-3.3,20.12-5.34l.48-1.01.85.4c.41-1.17,1.25-2.13,2.28-2.63.48-1.01.85.4.85.4,2.05-.77,4.01-1.94,5.77-3.46l1.9-4.04s-.01.02-.02.03c-.25.56-.08,1.17.39,1.38,2.17-.21,1.43-3.03,2.75-3.64.2.77.63,1.4,1.22,1.81l-.03.04c4.08-4.26,7.31-8.91,11.38-13.17l.21-4.84-.76-2.8s.01-.02.02-.03Z" />
  <path class="cls-1" d="M448.85,807.33c-.7-1.56.25-3.57,0-6.14-1.96-8.28-3.91-16.57-6.33-23.86l-1.2-.57.47-1.01c-1.38-.49-2.53-1.48-3.12-2.7-1.2-.57.47-1.01.47-1.01-.91-2.43-2.3-4.75-4.1-6.84l-4.79-2.26s.03.01.04.02c.66.3,1.39.09,1.63-.46-.25-2.58-3.59-1.69-4.32-3.26.91-.24,1.66-.74,2.15-1.45l.05.03c-5.05-4.83-10.57-8.66-15.61-13.5l-5.74-.25-3.32.9s-.03-.01-.04-.02c-.66-.3-1.39-.09-1.63.46.59,1.22,1.74,2.21,3.12,2.7-4.04-.68-5.46,2.34-4.04,5.47l-1.2-.57c-2.17,1.43,2.37,1.12,1.9,2.12-2.15,1.45-3.12-2.7-5.27-1.25,1.17.55.7,1.56,1.9,2.12-2.64,2.44-2.39-1.13-4.07-.69q.7,1.56,1.9,2.12c-1.22-.58-3.81,1.89-5.49,2.33-4.54.32-7.89,1.2-8.11,4.78-.42,1.1.18,2.44,1.42,3.13-1.7.43-3.34.88-4.54.32.7,1.56-.25,3.57,0,6.14.97,3.92,3.34,7.63,6.74,10.55,6.27,5.36,25.04,27.75,25.51,32.89,7.04,10.24,15.27,19.89,24.53,28.76.95-2.01,4.54-.32,5.49-2.33.47-1.01-3.59-1.69-4.32-3.26.01-5.23,2.72-9.83,7.36-12.51.35-.23.61-.55.76-.92.47-1.18-.3-2.62-1.7-3.21,5.49-2.33,4.27-9.06,9.75-11.39-2.45-1.41-4.59-3.26-6.25-5.4Z" />
  <path class="cls-1" d="M367.28,614.19s0-.02,0-.04c.06-.58-.29-1.09-.77-1.13-.78.77-1.24,1.9-1.25,3.08-.53-3.26-3.2-3.56-5.22-1.67l.12-1.06c-1.66-1.29-.24,2.1-1.13,1.99-1.66-1.27,1.25-3.08-.41-4.34-.12,1.03-1.01.93-1.13,1.99-2.55-1.39.24-2.12-.53-3.28q-1.01.93-1.13,1.99c.12-1.08-2.43-2.42-3.2-3.59-1.42-3.38-2.95-5.71-5.75-4.95-.95-.04-1.81.77-2.02,1.89-.77-1.18-1.54-2.32-1.42-3.38-1.01.93-2.79.73-4.69,1.59-2.74,1.76-4.96,4.52-6.31,7.87-.7,1.75-2.19,4.62-4.05,7.88-.41-1.63-1.05-3.28-1.96-4.87l-3.32-2.68s.02.01.03.02c.46.36,1.04.38,1.3.04.16-1.9-2.49-2.01-2.83-3.29.72.03,1.36-.16,1.82-.55l.04.03c-3.17-4.58-6.83-8.54-9.99-13.12l-4.31-1.46-2.63-.1s-.02-.01-.03-.02c-.46-.36-1.04-.38-1.3-.04.28,1,1.02,1.97,2,2.62-2.97-1.38-4.45.45-3.8,3l-.83-.67c-1.84.54,1.64,1.33,1.15,1.94-1.82.55-2-2.62-3.82-2.07.81.65.32,1.27,1.15,1.94-2.33,1.15-1.66-1.34-2.98-1.4q.32,1.27,1.15,1.94c-.85-.68-3.14.5-4.47.44-3.48-.79-6.13-.9-6.78,1.6-.47.69-.19,1.78.65,2.55-1.34-.07-2.65-.11-3.48-.79.32,1.27-.67,2.49-.83,4.39.21,3.02,1.5,6.2,3.68,9.04,4.02,5.22,15.2,25.4,14.86,29.18.79,1.77,1.63,3.54,2.49,5.3-2.54,4.27-4.89,8.71-7.03,13.28,1.78.2,1.42,3.38,3.2,3.59.89.1.36-3.18,1.37-4.14,3.59-1.21,7.35-.61,10.43,1.59,1.35,2.15,2.75,4.28,4.21,6.39.99-1.22,3.48.79,4.47-.44.49-.61-2.49-2.01-2.83-3.29.14-.71.36-1.36.63-1.99,2.88.98,6.24.11,8.66,2.83.44-2.24,1.3-4.34,2.51-6.16,1.01-.93,2.79-.73,4.69-1.59,5.81-3.63,11.64-7.27,16.57-11l.12-1.06.89.1c.01-1.18.47-2.31,1.25-3.08.12-1.06.89.1.89.1,1.62-1.33,3.03-2.99,4.16-4.9l.48-4.24s0,.02,0,.04c-.06.58.29,1.09.77,1.13,1.9-.86.36-3.18,1.37-4.14.41.63,1,1.08,1.66,1.27v.05c2.37-5.1,3.87-10.3,6.25-15.4l-1.3-4.44-1.54-2.3Z" />
  <path class="cls-1" d="M572.37,417.75c7.17,7.83,15.28,15.02,24.17,21.43.56-1.81,3.8-.81,4.37-2.62.28-.91-3.24-1.01-4.04-2.25-.61-4.43,1.14-8.64,4.74-11.46.27-.24.45-.54.53-.87.26-1.06-.56-2.18-1.82-2.51,4.37-2.62,2.53-8.17,6.9-10.79-2.24-.9-4.27-2.21-5.93-3.83-.77-1.23-.21-3.05-.73-5.2-2.64-6.77-5.27-13.56-8.19-19.44l-1.08-.34.28-.91c-1.23-.25-2.32-.95-2.96-1.91-1.08-.34.28-.91.28-.91-1.06-1.95-2.51-3.75-4.28-5.31l-4.32-1.34s.02,0,.04.01c.59.17,1.19-.09,1.33-.58-.52-2.15-3.24-1.01-4.04-2.25.74-.31,1.32-.83,1.65-1.48l.05.02c-4.84-3.49-9.97-6.08-14.81-9.57l-4.89.47-2.7,1.15s-.02,0-.04-.01c-.59-.17-1.19.09-1.33.58.64.96,1.73,1.67,2.96,1.91-3.5-.09-4.35,2.63-2.77,5.11l-1.08-.34c-1.67,1.47,2.14.66,1.86,1.57-1.65,1.48-2.96-1.91-4.61-.43,1.05.33.77,1.23,1.86,1.57-1.95,2.38-2.16-.67-3.52-.1q.77,1.23,1.86,1.57c-1.1-.34-3,2.05-4.37,2.62-3.8.81-6.53,1.95-6.29,5.01-.22.98.45,2.04,1.57,2.48-1.39.56-2.72,1.14-3.8.81.77,1.23.21,3.05.73,5.2,1.29,3.2,3.74,6.06,6.96,8.13,5.94,3.79,24.48,20.52,25.49,24.81Z" />
  <path class="cls-1" d="M849.53,472.86s0-.03,0-.04c-.15-.69-.73-1.15-1.31-1.02-.62,1.17-.74,2.65-.32,4.02-1.8-3.58-5-2.95-6.65-.03l-.25-1.27c-2.39-.88.49,2.51-.58,2.72-2.38-.86.32-4.02-2.06-4.88.24,1.24-.82,1.45-.58,2.72-3.45-.67-.49-2.54-1.81-3.6q-.82,1.45-.58,2.72c-.25-1.3-3.69-1.91-5.01-2.98-2.88-3.39-5.5-5.52-8.46-3.63-1.11.31-1.81,1.55-1.64,2.93-1.32-1.09-2.63-2.12-2.88-3.39-.82,1.45-2.96,1.86-4.84,3.55-2.53,3.03-4.08,7.05-4.42,11.41-.6,8.04-7.41,35.78-11.18,39.12-4,11.47-6.85,23.53-8.49,35.96,2.13-.42,2.88,3.39,5.01,2.98,1.07-.21-.74-3.81.08-5.29,4.13-3.01,9.32-3.54,14.12-1.43.38.14.79.16,1.16.06,1.2-.32,1.89-1.75,1.54-3.2,5.01,2.98,9.6-1.87,14.61,1.11-.31-2.75-.09-5.5.65-8.04.82-1.45,2.96-1.86,4.84-3.55,5.39-6.33,10.81-12.66,15.15-18.78l-.25-1.27,1.07-.21c-.42-1.37-.3-2.85.32-4.02-.25-1.27,1.07-.21,1.07-.21,1.39-2.12,2.41-4.56,3.03-7.19l-.99-5.08s0,.03,0,.04c.15.69.73,1.15,1.31,1.02,1.88-1.69-.74-3.81.08-5.29.71.58,1.55.88,2.38.86v.06c.9-6.77.73-13.34,1.62-20.11l-3.12-4.67-2.62-2.1Z" />
  <path class="cls-1" d="M993.6,319.22c-.37.27-1.76-4.85-9.32-7.91-1.25-.91-3.81-1.6-7.06-2.04-1.63-.17-3.42-.28-5.3-.38-.94-.04-1.88-.1-2.86-.12-.97.02-1.95.03-2.94.05,3.18-1.42,6.83-2.54,10.81-3.69-1.81-.7-3.61-1.39-5.42-2.1-1.82-.68-3.67-1.21-5.52-1.8l-2.8-.85-1.41-.42-1.41-.33c-1.89-.44-3.78-.86-5.68-1.25-1.05-.13-2.13-.27-3.24-.37-1.12-.06-2.26-.12-3.43-.15-1.39-.04-2.83-.06-4.29-.07-.28-.3-.57-.61-.82-.91-3.57-4.27-4.37-8.01-4.12-11.17.18-2.12-12.75-5.79-21.34-8.31,4.64-2.36-.4-6.93-5.88-11.66-5.49-4.72-11.44-9.58-8.86-12.59-3.15-.98-6.56-1.99-10.12-3.02-3.55-1.04-7.16-2.23-10.8-3.39-7.27-2.36-14.53-4.84-20.66-7.48-1.01-.49-2.03-.98-3.03-1.52-.99-.54-1.97-1.09-2.96-1.66-1.98-1.14-3.94-2.32-5.89-3.54-3.91-2.44-7.78-4.99-11.64-7.55-2.4-1.28-4.81-2.52-7.18-3.81-2.34-1.33-4.67-2.65-6.99-3.97-4.6-2.63-9.18-5.23-13.71-7.81-4.57-2.53-8.91-5.26-13.25-7.93-4.34-2.66-8.63-5.3-12.9-7.93-1.06-.66-2.14-1.28-3.17-1.98l-3.1-2.04c-2.05-1.36-4.11-2.71-6.16-4.07-4.08-2.69-8.13-5.37-12.18-8.04-3.91-2.77-7.81-5.53-11.69-8.28-3.87-2.75-7.8-5.38-11.47-8.26-2.61-1.28-5.41-2.69-8.46-4.4.19-.43.48-1.12.03-1.93-.87-.66-1.77-1.33-2.67-2-3.42-1.82-6.65-3.7-9.67-5.44-2.99-1.75-5.68-3.41-7.71-5.06-.87-.9-.23-1.36.59-1.76-1.26-.93-2.58-1.81-3.79-2.78l-3.67-2.86c-2.47-1.89-4.93-3.78-7.41-5.67-1.24-.95-2.49-1.88-3.72-2.83l-3.57-2.92c-2.4-1.93-4.8-3.86-7.21-5.8-3.13-1.65-6.04-3.4-8.97-5.09-2.93-1.7-5.82-3.39-8.63-5.08.43-.6.86-1.22,1.29-1.8-2.46-3.08-5.76-4.95-9.11-6.85-.83-.48-1.68-.94-2.49-1.44-.84-.49-1.64-1.01-2.37-1.59-1.48-1.14-2.85-2.44-3.98-4.01-1.27-2.13,1.03-1.81,2.13-2.68-10.71-10.41-20.69-21.2-29.33-32.41l-3.18-4.22c-.52-.71-1.09-1.4-1.58-2.12l-1.47-2.15-2.95-4.27c-.98-1.42-1.81-2.88-2.74-4.32-1.9-2.88-3.44-5.78-5.1-8.69-.82-1.46-1.48-2.92-2.25-4.37-.36-.73-.76-1.45-1.1-2.19l-.98-2.17c-.29-.73-.86-1.54-1.62-2.43-.69-.88-1.57-1.85-2.57-2.89-1.04-1.05-2-2.13-3.05-3.3-1.09-1.19-4.35-4.75-5.09-5.31-.36-.27-.73-.54-1.1-.8-.36-.23-1.59-.45-1.93-1.18-.59-.34-1.15-.52-1.74-.76,0,0-.9-.03-.92-.06v.28c-.01.2-.02.37,0,.6.06.5.14,1.02.23,1.54.13.56.3,1.15.46,1.72l.26.87.33.9c.82,2.39,1.96,4.78,2.57,6.81-3.76-5.46-7.96-1.1-7.9,1.47.09,1.29-1.18,2.75-1.54,2.92-.91.44-3.48-.31-4.4-.55.39,1.16-3.99,11.15-6.31,13.8-.5-.15-1.04-.44-1.65-.96-3.86-2.27-7.75-5.54-10.19-6.16-2.48-.59-44.09,38.55-50.58,44.92.68-5.28-5.46-3.06-11.96-.52-6.5,2.55-13.35,5.44-14.26,1.67-2.42,2.31-5,4.85-7.67,7.5-2.68,2.64-5.5,5.26-8.32,7.92-5.66,5.3-11.4,10.52-16.67,14.66-.91.65-1.82,1.32-2.76,1.95-.93.61-1.88,1.22-2.84,1.81-1.92,1.19-3.85,2.35-5.81,3.49-3.93,2.27-7.92,4.45-11.91,6.62-2.25,1.51-4.47,3.03-6.71,4.5-2.25,1.42-4.49,2.84-6.72,4.25-4.44,2.79-8.84,5.57-13.21,8.32-4.35,2.81-8.73,5.32-13.06,7.86-4.32,2.54-8.61,5.05-12.87,7.55-1.06.62-2.11,1.27-3.19,1.84l-3.2,1.74c-2.12,1.16-4.24,2.32-6.36,3.47-4.21,2.29-8.39,4.58-12.57,6.86-4.18,2.11-8.35,4.21-12.5,6.31-4.14,2.09-8.23,4.28-12.36,6.12-2.36,1.69-4.92,3.48-7.84,5.34-.22-.38-.59-.98-1.45-.98-.97.45-1.95.92-2.94,1.38-3.2,2.14-6.35,4.09-9.26,5.91-2.92,1.8-5.61,3.37-7.93,4.35-1.14.33-1.15-.46-1.02-1.39-1.38.66-2.75,1.39-4.13,1.99l-4.12,1.86c-2.74,1.26-5.49,2.52-8.24,3.78-1.38.63-2.75,1.29-4.13,1.91l-4.11,1.73c-2.74,1.18-5.48,2.36-8.23,3.54-2.91,1.97-5.79,3.69-8.63,5.46-2.85,1.76-5.66,3.5-8.44,5.16-.23-.68-.46-1.36-.67-2.03-3.64.67-6.81,2.67-10.03,4.71-.8.5-1.61,1.02-2.41,1.5-.82.51-1.63.96-2.46,1.32-1.65.75-3.36,1.33-5.16,1.56-2.29.07-.83-1.81-.89-3.21-13.59,4.38-27.07,7.93-40.15,10.09l-4.89.75c-.82.12-1.64.28-2.44.36l-2.41.25-4.8.52c-1.6.17-3.14.19-4.73.31-3.19.27-6.21.2-9.3.26-1.54,0-3-.12-4.51-.16-.74-.03-1.51-.04-2.24-.1l-2.17-.2c-.71-.1-1.62,0-2.7.24-1.04.18-2.23.48-3.55.86-1.35.4-2.68.72-4.12,1.09-1.48.38-2.84.62-4.29.84-.87.35-1.62.68-2.44,1.06-.4.19-.8.38-1.19.58-.37.21-.73.4-1.07.59.29.12.53.25.85.36l.96.35.94.35,1.03.32c-.84-.24-1.59-.43-2.37-.57-.83-.14-1.51-.22-2.25-.28-.58.36-1,.77-1.51,1.17l.49.22.63.27c.44.18.86.39,1.37.56l1.47.56,1.57.5c-1.5-.35-4.3-1-5.93-1.37l-.02.06s-.08-.02-.12-.02l.21.15c.15.1.28.19.46.28.41.2.85.38,1.29.56.49.16,1.03.3,1.55.44l.79.2.86.16c2.25.44,4.66.61,6.53,1.07-6.14.65-7.97,2.04-6.96,4.28.52,1.1,1.89,2.25,3.86,3.46,1.02.55,1.45,2.4,1.39,2.81-.15,1.02-.39,7.46-.07,7.51.8,2.57-5.52,13.67-7.3,15.53-1.77,1.91-.86,4.4,6.71,7.47.91.67,2.52,1.21,4.58,1.63-3.64.27-8.71.19-6.21,1.96,1.22.86,4.92,1.62,9.38,2.47-.14.04-.27.08-.4.12.42.16.84.32,1.25.48.27,3.17.38,5.99.34,8.48-.14,4.16-.66,7.45-1.44,10.02-1.56,5.16-4.13,7.54-6.8,8.69-1.79.76,2.02,14.31,4.48,23.34-4.31-3.25-5.35,3.4-6.27,10.53-.91,7.13-1.71,14.76-5.46,13.7.86,3.34,1.83,6.93,2.86,10.66,1.02,3.73,1.95,7.58,2.92,11.46,1.91,7.75,3.71,15.53,4.79,22.35.13,1.15.28,2.31.37,3.47.09,1.15.15,2.3.21,3.46.12,2.32.2,4.65.24,6.99.09,4.67.06,9.36.03,14.05.23,2.78.49,5.55.7,8.3.16,2.74.32,5.47.47,8.19.3,5.4.6,10.76.89,16.08.36,5.32.44,10.53.56,15.7.14,5.17.26,10.28.38,15.38.03,1.27.09,2.54.07,3.8l-.02,3.76c-.02,2.49-.03,4.98-.04,7.47-.03,4.94-.05,9.86-.08,14.76-.18,4.82-.36,9.63-.53,14.42-.18,4.78-.24,9.55-.63,14.2.34,2.97.66,6.17.89,9.74-.44.01-1.15.05-1.56.82-.07,1.1-.14,2.21-.21,3.34.33,3.96.51,7.76.69,11.31.16,3.53.23,6.74-.03,9.33-.26,1.2-.97.81-1.72.22-.09,1.57-.11,3.17-.25,4.72l-.37,4.64c-.22,3.11-.46,6.21-.68,9.32-.12,1.56-.2,3.12-.33,4.68l-.48,4.58c-.29,3.06-.59,6.13-.88,9.19.31,3.61.43,7.06.6,10.51.16,3.45.32,6.86.44,10.19-.71-.13-1.42-.26-2.11-.4-1.18,3.62-.96,7.48-.73,11.4.05.98.12,1.96.15,2.93.05.99.05,1.95-.03,2.88-.14,1.86-.46,3.7-1.13,5.43-1.05,2.1-1.99-.15-3.25-.79-2.75,14.44-6.19,28.38-10.66,41.26l-1.72,4.78c-.29.79-.56,1.62-.87,2.38l-.95,2.3-1.88,4.59c-.63,1.53-1.36,2.93-2.03,4.42-1.31,3.01-2.84,5.7-4.29,8.51-.74,1.4-1.56,2.65-2.33,3.99-.39.65-.77,1.34-1.18,1.97l-1.23,1.85c-.44.59-.79,1.47-1.1,2.55-.35,1.03-.66,2.26-.97,3.63-.3,1.42-.66,2.78-1.05,4.26-.39,1.53-1.54,6.09-1.6,7.02-.03.45.74,6.45.72,6.48l.23-.11c.16-.08,32.3,13.4,33.07,15.93.66,2.04,2.48,2.71,6.43.19,5.71,1.2,14.12,2.49,19.84,4.56,5.29,2.28,9.5,4.47,12.82,6.58,3.29,2.17,5.7,4.25,7.43,6.19,3.47,3.9,4.25,7.32,4,10.21-.17,1.94,12.41,5.29,20.76,7.6-4.51,2.16.39,6.34,5.72,10.66,5.34,4.31,11.13,8.76,8.62,11.51,3.06.9,6.39,1.81,9.84,2.76,3.46.95,6.96,2.04,10.51,3.1,7.08,2.15,14.14,4.42,20.1,6.84.98.45,1.98.9,2.95,1.39.96.49,1.92,1,2.88,1.52,1.92,1.04,3.83,2.12,5.73,3.23,3.8,2.23,7.57,4.56,11.32,6.9,2.34,1.17,4.68,2.3,6.99,3.48,2.27,1.21,4.54,2.42,6.8,3.63,4.48,2.4,8.93,4.78,13.34,7.14,4.45,2.31,8.67,4.81,12.89,7.24,4.22,2.43,8.39,4.84,12.55,7.24,1.03.6,2.08,1.17,3.09,1.81l3.01,1.87c2,1.24,4,2.48,5.99,3.72,3.97,2.46,7.91,4.9,11.85,7.34,3.8,2.53,7.6,5.06,11.38,7.57,3.77,2.51,7.59,4.92,11.16,7.55,2.54,1.17,5.26,2.46,8.23,4.02-.18.39-.47,1.03-.03,1.76.85.61,1.72,1.21,2.6,1.83,3.33,1.67,6.47,3.38,9.41,4.97,2.91,1.6,5.53,3.12,7.5,4.62.85.82.23,1.24-.58,1.61,1.22.85,2.51,1.66,3.69,2.54l3.57,2.61c2.4,1.73,4.8,3.46,7.21,5.18,1.2.87,2.43,1.72,3.62,2.59l3.47,2.67c2.33,1.76,4.68,3.53,7.01,5.3,3.05,1.51,5.88,3.1,8.73,4.65,2.85,1.56,5.66,3.1,8.39,4.64-.42.55-.84,1.11-1.25,1.64,2.39,2.81,5.6,4.52,8.86,6.26.81.44,1.63.86,2.42,1.31.82.45,1.59.92,2.31,1.45,1.44,1.04,2.77,2.23,3.88,3.66,1.23,1.95-1,1.66-2.07,2.44,10.42,9.52,20.13,19.38,28.53,29.61l3.1,3.85c.51.65,1.06,1.28,1.54,1.93l1.43,1.96,2.87,3.9c.96,1.3,1.76,2.63,2.66,3.94,1.85,2.63,3.34,5.29,4.97,7.94.8,1.34,1.44,2.66,2.19,3.99.35.66.74,1.33,1.07,2l.95,1.99c.28.67.84,1.41,1.57,2.22.67.81,1.53,1.69,2.5,2.64,1.01.96,1.94,1.95,2.97,3.01,1.06,1.09,1.95,2.14,2.86,3.29.72.58,1.37,1.06,2.09,1.57.35.25.71.5,1.07.73.35.21.69.42,1.02.62-.05-.31-.08-.59-.15-.92l-.22-1.01-.2-1-.28-1.06c.24.85.48,1.61.76,2.35.32.79.6,1.43.93,2.1.58.31,1.12.47,1.7.7l-.07-.54-.11-.69c-.08-.48-.13-.94-.26-1.48l-.31-1.57-.41-1.63c.49,1.48,1.41,4.25,1.95,5.86h.06s.03.07.05.1v-.26c.01-.18.02-.34,0-.55-.06-.46-.13-.93-.22-1.41-.13-.51-.29-1.05-.45-1.57l-.25-.79-.32-.83c-.8-2.18-1.91-4.37-2.5-6.22,3.66,4.99,5.7,5.86,6.94,3.81.6-1.02.81-2.81.75-5.16-.09-1.18-.26-2.49-.48-3.91-.26-1.43-.71-2.96-1.16-4.58.42,1.02,1.07,2.55,1.7,3.79.55,1.24,1.1,2.2,1.45,2.03.89-.4,1.05-1.23.79-2.29-.29-1.05-1.06-2.34-1.91-3.63-.43-.65-.86-1.29-1.33-1.92-.48-.62-.94-1.22-1.37-1.79-.73-.98-1.27-1.82-1.45-2.42.1-.11.2-.23.3-.34.57-.05,1.18.47,1.84,1.34.4.53.82,1.19,1.24,1.91.21.36.42.75.65,1.14l.59,1.21c.78,1.65,1.66,3.34,2.44,4.71.78,1.36,1.6,2.37,2.5,2.58-.38-1.06-.68-2.16-.94-3.28-.31-1.12-.61-2.25-.92-3.37-.33-1.11-.61-2.23-1.1-3.29-.47-1.06-1.02-2.09-1.69-3.03,1.14-1.99,2.44.64,3.63,3.64,1.06,3.03,2.06,6.39,3.06,5.9-1.72-4.32-2.62-6.45-4.7-10.65,2.51,2.6,4.11,2.42,5.57,1.94,1.45-.47,2.79-1.24,4.83.43,3.76,2.08,7.54,5.06,9.92,5.63,2.41.54,3.91-1.55,2.45-9.71.08-1.56-.69-4.14-2.01-7.19-.7-1.5-1.53-3.12-2.42-4.8-.45-.84-.88-1.69-1.37-2.55-.35-.56-.7-1.14-1.04-1.71.11-.06.21-.12.32-.17,2.38,1.85,4.79,4.08,7.34,6.54,1.28,1.8,2.3,2.8,2.43.9.11-1.59-1.33-5.6-3.06-10.36,1.11-.37,2.17-.68,3.14-.88,5.13-1.06,8.39.06,10.65,1.85,1.51,1.2,11.17-8.48,17.66-14.86-.68,5.28,5.46,3.06,11.96.52,6.5-2.55,13.35-5.44,14.26-1.67,2.42-2.31,5-4.85,7.67-7.5,2.68-2.64,5.5-5.26,8.32-7.92,5.66-5.3,11.4-10.52,16.67-14.66.91-.66,1.82-1.32,2.76-1.95.93-.61,1.88-1.22,2.84-1.81,1.92-1.19,3.85-2.35,5.81-3.49,3.93-2.27,7.92-4.45,11.91-6.62,2.25-1.51,4.47-3.03,6.71-4.5,2.25-1.42,4.49-2.84,6.72-4.25,4.44-2.79,8.84-5.57,13.21-8.32,4.35-2.81,8.73-5.32,13.06-7.86,4.32-2.54,8.61-5.05,12.87-7.55,1.06-.62,2.11-1.27,3.19-1.84l3.2-1.74c2.12-1.16,4.24-2.32,6.36-3.47,4.21-2.29,8.39-4.58,12.57-6.86,4.18-2.11,8.35-4.21,12.5-6.31,4.14-2.09,8.23-4.28,12.36-6.12,2.36-1.69,4.92-3.48,7.84-5.34.22.38.59.98,1.45.98.97-.45,1.95-.92,2.94-1.38,3.2-2.14,6.35-4.09,9.26-5.91,2.92-1.8,5.61-3.37,7.93-4.35,1.14-.33,1.15.46,1.02,1.39,1.38-.66,2.75-1.39,4.13-1.99l4.12-1.86c2.74-1.26,5.49-2.52,8.24-3.78,1.38-.63,2.75-1.29,4.13-1.91l4.11-1.73c2.74-1.18,5.48-2.36,8.23-3.54,2.91-1.97,5.79-3.69,8.63-5.46,2.85-1.76,5.66-3.5,8.44-5.16.23.68.46,1.36.67,2.03,3.64-.67,6.81-2.67,10.03-4.71.8-.5,1.61-1.02,2.41-1.5.82-.51,1.63-.96,2.46-1.32,1.65-.75,3.36-1.33,5.16-1.56,2.29-.07.83,1.81.89,3.21,13.59-4.38,27.07-7.93,40.15-10.09l4.89-.75c.82-.12,1.64-.28,2.44-.36l2.41-.25,4.8-.52c1.6-.17,3.14-.19,4.73-.31,3.19-.27,6.21-.2,9.3-.26,1.54,0,3,.12,4.51.16.74.03,1.51.04,2.24.1l2.17.2c.71.1,1.62,0,2.7-.24,1.04-.18,2.23-.48,3.55-.86,1.35-.4,2.68-.72,4.12-1.09,1.48-.38,2.84-.62,4.29-.84.87-.35,1.62-.68,2.44-1.06.4-.19.8-.38,1.19-.58.37-.21,3.85-3.11,3.85-3.11.04.01.08.02.12.02l-.21-.15c-.15-.1-.28-.19-.46-.28-.41-.2-.85-.38-1.29-.56-.49-.16-1.03-.3-1.55-.44l-.79-.2-.86-.16c-2.25-.44-4.66-.61-6.53-1.07,6.14-.65,7.97-2.04,6.96-4.28-.52-1.1-1.89-2.25-3.86-3.46-1.02-.55-2.2-1.11-3.51-1.67-1.33-.53-.19-3.92,1.37-3.89,1.55.02,2.83-.18,3.51-.89-1.09-.22-2.16-.55-3.23-.91-1.09-.32-2.2-.66-3.3-.97-1.1-.3-2.18-.65-3.33-.77-1.14-.14-2.29-.2-3.44-.09-1.02-2.11,1.86-1.88,5-1.36,3.09.66,5.21,2.3,5.44-.98.09-1.37-.97-4.55-2.37-8.45,3.72-2.24,8.1-4.05,9.84-5.87,1.77-1.91-11.21-44.12-8.55-45.24,1.78-.74-2.01-13.88-4.45-22.64,4.29,3.15,5.32-3.3,6.24-10.21.91-6.92,1.7-14.31,5.44-13.28-.85-3.24-1.83-6.72-2.85-10.34-1.02-3.62-1.94-7.36-2.91-11.12-1.9-7.51-3.69-15.06-4.76-21.68-.13-1.11-.27-2.24-.37-3.36-.09-1.11-.15-2.23-.21-3.36-.12-2.25-.2-4.51-.24-6.78-.09-4.53-.06-9.08-.03-13.62-.23-2.7-.49-5.38-.7-8.05-.15-2.66-.31-5.3-.47-7.94-.3-5.24-.6-10.44-.89-15.59-.36-5.16-.43-10.22-.56-15.23-.13-5.01-.26-9.98-.38-14.92-.03-1.23-.09-2.46-.07-3.68l.02-3.64c.02-2.42.03-4.84.04-7.24.03-4.79.05-9.56.08-14.32.18-4.68.36-9.34.53-13.99.18-4.64.24-9.27.63-13.78-.34-2.88-.66-5.99-.88-9.44.44-.01,1.14-.05,1.55-.79.07-1.06.14-2.15.21-3.24-.32-3.84-.5-7.53-.69-10.97-.16-3.42-.23-6.54.03-9.05.26-1.16.96-.79,1.71-.22.09-1.52.11-3.08.25-4.57l.37-4.5c.22-3.01.45-6.02.68-9.04.12-1.51.2-3.03.33-4.54l.47-4.44c.29-2.97.58-5.94.88-8.91-.31-3.5-.43-6.85-.6-10.2-.16-3.34-.32-6.65-.43-9.88.7.13,1.42.25,2.1.39,1.18-3.51.96-7.26.73-11.06-.05-.95-.12-1.9-.15-2.84-.05-.96-.05-1.89.03-2.8.14-1.81.46-3.59,1.13-5.27,1.04-2.04,1.98.15,3.24.77,2.74-14.01,6.16-27.53,10.61-40.02l1.71-4.64c.29-.77.55-1.57.87-2.31l.95-2.23,1.87-4.45c.13-.32.28-.61.42-.92.65-.17,5.64-8.32,4.2-8.54.13-.24.26-.47.38-.71,4.19-.74,5.41-2.03,4.55-3.94-.25-.54-.72-1.09-1.35-1.65.13-.22.27-.43.4-.65.39-.64.76-1.3,1.17-1.91l1.23-1.8c.43-.57.78-1.42,1.1-2.48.35-1,.66-2.19.97-3.52.3-1.38.38-2.8,1.04-4.13,2.03-4.07.34-12.83.17-12.72ZM531.61,986.69c-1.56-2.18-3.16-4.42-4.97-6.53-1.76-2.15-3.57-4.3-5.41-6.43l-1.38-1.61-1.46-1.53c-.98-1.02-1.96-2.03-2.94-3.05-1.96-2.01-3.93-4.01-5.88-5.95-2.04-1.87-4.07-3.69-6.05-5.46-.84-.81-1.67-1.62-2.51-2.44-.93-.8-1.94-1.66-3.03-2.61-1.1-.92-2.31-1.88-3.57-2.91-2.53-2.07-5.35-4.37-8.42-6.88-1.5-1.29-3.18-2.51-4.87-3.81-1.7-1.3-3.46-2.64-5.28-4.03-1.8-1.39-3.66-2.81-5.57-4.27-1.94-1.43-3.98-2.84-6.02-4.3-2.06-1.46-4.15-2.95-6.28-4.47-2.14-1.51-4.27-3.08-6.56-4.54-4.51-2.97-9.14-6.04-13.85-9.14-1.16-.8-2.38-1.52-3.59-2.27-1.21-.74-2.44-1.48-3.65-2.23-2.44-1.5-4.89-3.01-7.35-4.51l-3.69-2.27c-1.23-.76-2.46-1.52-3.74-2.22-2.52-1.44-5.03-2.87-7.54-4.31-2.51-1.43-5.02-2.86-7.5-4.29-1.24-.71-2.48-1.42-3.71-2.12-1.25-.69-2.52-1.34-3.77-2.01-5-2.67-9.92-5.3-14.7-7.85-4.75-2.63-9.54-4.88-14.06-7.18-4.52-2.28-8.86-4.46-12.95-6.53-2.03-1.06-4.07-1.96-6.01-2.9-1.95-.93-3.82-1.82-5.61-2.68-3.59-1.72-6.87-3.32-9.78-4.76-2.92-1.43-5.44-2.78-7.59-3.82-2.16-1.05-3.88-1.94-5.12-2.64-31.47-13.04-62.77-24.52-94.42-35.14-7.95-2.57-15.9-5.13-23.85-7.7-8-2.45-16.08-4.72-24.15-7.04-15.12-4.46-32.52-19.7-31.1-21.07l2.11-2.1,1.05-1.06.98-1.11c1.31-1.48,2.59-2.98,3.86-4.5.63-.88,1.27-1.78,1.9-2.74.6-.98,1.2-1.98,1.8-3.02,1.2-2.08,2.41-4.28,3.61-6.58,1.13-2.33,2.2-4.81,3.28-7.33,1.07-2.52,2.18-5.12,3.06-7.84.94-2.7,1.85-5.45,2.73-8.22l.67-2.08.56-2.12c.37-1.42.73-2.83,1.09-4.25.72-2.82,1.4-5.65,2.06-8.43.55-2.83,1.06-5.63,1.54-8.36.26-1.19.53-2.36.8-3.55.2-1.26.42-2.63.66-4.12.22-1.48.41-3.09.63-4.79.45-3.39.97-7.17,1.52-11.29.32-2.04.49-4.22.73-6.45.23-2.24.46-4.55.7-6.93.25-2.37.5-4.82.76-7.33.22-2.53.35-5.13.54-7.77.17-2.65.37-5.35.55-8.1.18-2.75.41-5.53.46-8.4.19-5.7.39-11.57.58-17.52.08-1.48.06-2.98.07-4.5,0-1.5,0-3.02,0-4.54,0-3.04.01-6.08.01-9.13v-4.59c.02-1.54.02-3.06-.05-4.61-.09-3.08-.18-6.15-.27-9.22-.09-3.07-.18-6.13-.26-9.17-.05-1.52-.09-3.04-.13-4.54-.06-1.51-.18-3.04-.26-4.54-.34-6.02-.68-11.95-1.01-17.71-.24-5.76-.84-11.39-1.24-16.78-.43-5.39-.84-10.55-1.23-15.42-.16-2.44-.46-4.81-.68-7.09-.23-2.29-.45-4.5-.66-6.6-.42-4.23-.77-8.11-1.07-11.56-.31-3.45-.48-6.49-.73-9.03-.24-2.55-.38-4.61-.43-6.12-5.45-36.1-12.17-71.31-19.84-106.43-2.01-8.77-4.03-17.54-6.04-26.31-2.14-8.77-4.49-17.51-6.78-26.29-1.88-7.39,77.22,35.65,80.76,36.71,7.08,2.15,14.14,4.42,20.1,6.84.98.45,1.98.9,2.95,1.39.96.49,1.92,1,2.88,1.52,1.92,1.04,3.83,2.12,5.73,3.23,3.8,2.23,7.57,4.56,11.32,6.9,2.34,1.17,4.68,2.3,6.99,3.48,2.27,1.21,4.54,2.42,6.8,3.63,4.48,2.4,8.93,4.78,13.34,7.14,4.45,2.31,8.67,4.81,12.89,7.24,4.22,2.43,8.39,4.84,12.55,7.24,1.03.6,2.08,1.17,3.09,1.81l3.01,1.87c2,1.24,4,2.48,5.99,3.72,3.97,2.46,7.91,4.9,11.85,7.34,3.8,2.53,7.6,5.06,11.38,7.57,3.77,2.51,7.59,4.92,11.16,7.55,2.54,1.17,5.26,2.46,8.23,4.02-.18.39-.47,1.03-.03,1.76.85.61,1.72,1.21,2.6,1.83,3.33,1.67,6.47,3.38,9.41,4.97,2.91,1.6,5.53,3.12,7.5,4.62.85.82.23,1.24-.58,1.61,1.22.85,2.51,1.66,3.69,2.54l3.57,2.61c2.4,1.73,4.8,3.46,7.21,5.18,1.2.87,2.43,1.72,3.62,2.59l3.47,2.67c2.33,1.76,4.68,3.53,7.01,5.3,3.05,1.51,5.88,3.1,8.73,4.65,2.85,1.56,5.66,3.1,8.39,4.64-.42.55-.84,1.11-1.25,1.64,2.39,2.81,5.6,4.52,8.86,6.26.81.44,1.63.86,2.42,1.31.82.45,1.59.92,2.31,1.45,1.44,1.04,2.77,2.23,3.88,3.66,1.23,1.95-1,1.66-2.07,2.44,10.42,9.52,20.13,19.38,28.53,29.61l3.1,3.85c.51.65,1.06,1.28,1.54,1.93l1.43,1.96,2.87,3.9c.96,1.3,1.76,2.63,2.66,3.94,1.85,2.63,3.34,5.29,4.97,7.94.8,1.34,1.44,2.66,2.19,3.99.35.66.74,1.33,1.07,2l.95,1.99c.28.67.84,1.41,1.57,2.22.67.81,1.53,1.69,2.5,2.64.06.06.12.12.18.18-.28.72-.57,1.43-.81,2.18-.93,2.62-1.84,5.28-2.72,7.97l-.67,2.02-.55,2.06c-.36,1.38-.72,2.75-1.09,4.12-.71,2.74-1.4,5.48-2.05,8.18-.54,2.75-1.05,5.46-1.54,8.11-.26,1.15-.53,2.29-.79,3.44-.2,1.22-.42,2.56-.66,4-.22,1.44-.4,3-.63,4.64-.45,3.29-.96,6.95-1.51,10.95-.32,1.98-.49,4.09-.73,6.26-.22,2.17-.46,4.41-.7,6.73-.25,2.3-.5,4.68-.75,7.11-.21,2.45-.35,4.98-.54,7.54-.17,2.57-.36,5.19-.55,7.86-.18,2.67-.41,5.37-.46,8.14-.19,5.53-.39,11.22-.58,16.99-.08,1.44-.06,2.89-.07,4.36,0,1.46,0,2.93,0,4.4,0,2.95-.01,5.9-.01,8.86v4.45c-.02,1.49-.02,2.97.05,4.47.09,2.98.18,5.96.27,8.94.09,2.98.18,5.95.26,8.9.05,1.47.09,2.95.13,4.41.06,1.47.18,2.95.26,4.41.34,5.84.68,11.59,1,17.18.24,5.59.83,11.04,1.23,16.27.43,5.22.84,10.23,1.22,14.96.16,2.36.46,4.66.67,6.88.23,2.22.45,4.36.66,6.4.41,4.11.77,7.87,1.07,11.22.31,3.35.48,6.3.72,8.76.23,2.48.37,4.47.43,5.94,5.42,35.02,12.11,69.17,19.74,103.23,2,8.51,4.01,17.02,6.01,25.52,2.13,8.5,4.46,16.99,6.75,25.5,1.4,5.34,2.89,10.67,4.45,16.01-.19-.26-.37-.52-.55-.79ZM542.89,504.72c-1.14-2.07-2.38-4.21-3.71-6.39-1.38-2.13-2.9-4.28-4.45-6.47-1.56-2.18-3.16-4.42-4.97-6.53-1.76-2.15-3.57-4.3-5.41-6.43l-1.38-1.61-1.46-1.53c-.98-1.02-1.96-2.03-2.94-3.05-1.96-2.01-3.93-4.01-5.88-5.95-2.04-1.87-4.07-3.69-6.05-5.46-.84-.81-1.67-1.62-2.51-2.44-.93-.8-1.94-1.66-3.03-2.61-1.1-.92-2.31-1.88-3.57-2.91-2.53-2.07-5.35-4.37-8.42-6.88-1.5-1.29-3.18-2.51-4.87-3.81-1.7-1.3-3.46-2.64-5.28-4.03-1.8-1.39-3.66-2.81-5.57-4.27-1.94-1.43-3.98-2.84-6.02-4.3-2.06-1.46-4.15-2.95-6.28-4.47-2.14-1.51-4.27-3.08-6.56-4.54-4.51-2.97-9.14-6.04-13.85-9.14-1.16-.8-2.38-1.52-3.59-2.27-1.21-.74-2.44-1.48-3.65-2.23-2.44-1.5-4.89-3.01-7.35-4.51l-3.69-2.27c-1.23-.76-2.46-1.52-3.74-2.22-2.52-1.44-5.03-2.87-7.54-4.31-2.51-1.43-5.02-2.86-7.5-4.29-1.24-.71-2.48-1.42-3.71-2.12-1.25-.69-2.52-1.34-3.77-2.01-5-2.67-9.92-5.3-14.7-7.85-4.75-2.63-9.54-4.88-14.06-7.18-4.52-2.28-8.86-4.46-12.95-6.53-2.03-1.06-4.07-1.96-6.01-2.9-1.95-.93-3.82-1.82-5.61-2.68-3.59-1.72-6.87-3.32-9.78-4.76-2.92-1.43-5.44-2.78-7.59-3.82-2.16-1.05-3.88-1.94-5.12-2.64-31.47-13.04-62.77-24.52-94.42-35.14-7.95-2.57-15.9-5.13-23.85-7.7-8-2.45-16.08-4.72-24.15-7.04-.05-.01-.1-.03-.14-.04,1.06-.14,2.12-.29,3.19-.49,2.74-.45,5.51-.95,8.29-1.48l2.09-.39,2.07-.51c1.38-.35,2.76-.7,4.13-1.04,2.74-.7,5.47-1.43,8.15-2.16,2.67-.85,5.28-1.72,7.84-2.58,1.13-.33,2.26-.65,3.39-.97,1.17-.42,2.44-.87,3.81-1.36,1.37-.5,2.82-1.1,4.37-1.7,3.1-1.19,6.55-2.52,10.31-3.98,1.89-.67,3.82-1.55,5.83-2.39,2.01-.85,4.08-1.74,6.22-2.65,2.13-.89,4.34-1.83,6.59-2.78,2.25-1,4.53-2.1,6.86-3.17,2.33-1.09,4.72-2.19,7.14-3.32,2.42-1.14,4.89-2.24,7.35-3.54,4.93-2.51,10.01-5.09,15.15-7.71,1.3-.62,2.56-1.35,3.85-2.05,1.27-.71,2.56-1.43,3.85-2.13,2.58-1.42,5.17-2.85,7.76-4.27l3.9-2.15c1.31-.71,2.6-1.43,3.89-2.21,2.57-1.52,5.13-3.04,7.69-4.56,2.56-1.52,5.12-3.04,7.66-4.53,1.26-.75,2.54-1.5,3.79-2.25,1.26-.77,2.49-1.58,3.73-2.36,4.95-3.13,9.82-6.2,14.55-9.19,4.77-2.92,9.26-6.07,13.64-8.96,4.37-2.9,8.55-5.68,12.5-8.31,1.99-1.28,3.86-2.66,5.69-3.92,1.83-1.28,3.6-2.51,5.29-3.67,3.39-2.35,6.51-4.48,9.3-6.36,2.78-1.89,5.28-3.46,7.32-4.87,2.05-1.4,3.73-2.49,4.99-3.25,28.02-21.69,54.67-44.07,80.78-67.23,6.48-5.87,12.95-11.74,19.43-17.61,6.41-5.98,12.71-12.13,19.05-18.25,6.27-5.97,12.42-12.14,18.51-18.42.28,1.21.58,2.42.87,3.65l.79,3.14.4,1.57.47,1.53c.63,2.04,1.29,4.08,1.98,6.11.44,1.07.9,2.18,1.41,3.29.54,1.1,1.09,2.21,1.68,3.34,1.17,2.26,2.45,4.6,3.81,6.99,1.42,2.34,2.98,4.69,4.58,7.08,1.6,2.39,3.25,4.84,5.11,7.15,1.81,2.35,3.67,4.7,5.57,7.04l1.42,1.76,1.5,1.68c1.01,1.11,2.02,2.22,3.02,3.33,2.01,2.2,4.04,4.39,6.04,6.51,2.1,2.05,4.18,4.04,6.22,5.98.86.89,1.71,1.78,2.57,2.67.95.87,1.99,1.82,3.11,2.85,1.13,1.01,2.37,2.05,3.67,3.18,2.6,2.26,5.49,4.79,8.65,7.53,1.54,1.41,3.27,2.74,5.01,4.17,1.75,1.42,3.56,2.89,5.42,4.41,1.85,1.52,3.77,3.08,5.73,4.68,1.99,1.57,4.09,3.1,6.19,4.71,2.11,1.59,4.26,3.23,6.46,4.89,2.2,1.65,4.39,3.38,6.74,4.97,4.63,3.26,9.39,6.61,14.23,10,1.19.88,2.44,1.66,3.69,2.49,1.25.81,2.5,1.62,3.76,2.44,2.51,1.65,5.03,3.29,7.55,4.94l3.79,2.48c1.27.84,2.53,1.66,3.84,2.43,2.59,1.57,5.17,3.14,7.75,4.71,2.58,1.57,5.16,3.13,7.71,4.69,1.28.77,2.55,1.56,3.82,2.33,1.28.76,2.59,1.47,3.88,2.2,5.14,2.92,10.2,5.79,15.11,8.59,4.88,2.88,9.8,5.34,14.45,7.86,4.65,2.5,9.11,4.88,13.31,7.14,2.09,1.16,4.19,2.15,6.17,3.18,2,1.01,3.93,1.99,5.76,2.93,3.69,1.89,7.06,3.64,10.05,5.21,3,1.56,5.59,3.04,7.81,4.18,2.22,1.15,3.99,2.13,5.26,2.89,32.34,14.27,64.52,26.84,97.04,38.45,8.17,2.81,16.34,5.61,24.51,8.42,1.81.59,3.63,1.15,5.45,1.72-.95.24-1.9.48-2.85.72-2.74.7-5.47,1.43-8.15,2.16-2.67.85-5.28,1.72-7.84,2.58-1.13.33-2.26.65-3.39.97-1.17.42-2.44.87-3.81,1.36-1.37.5-2.82,1.1-4.37,1.7-3.1,1.19-6.55,2.52-10.31,3.98-1.89.67-3.82,1.55-5.83,2.39-2.01.85-4.08,1.74-6.22,2.65-2.13.89-4.34,1.83-6.59,2.78-2.25,1-4.53,2.1-6.86,3.17-2.33,1.09-4.72,2.19-7.14,3.32-2.42,1.14-4.89,2.24-7.35,3.54-4.93,2.51-10.01,5.09-15.15,7.71-1.3.62-2.56,1.35-3.85,2.05-1.28.71-2.56,1.43-3.85,2.13-2.58,1.42-5.17,2.85-7.76,4.27l-3.9,2.15c-1.31.71-2.6,1.43-3.89,2.21-2.57,1.52-5.13,3.04-7.69,4.56-2.56,1.52-5.12,3.04-7.66,4.53-1.27.75-2.54,1.5-3.79,2.25-1.26.77-2.49,1.58-3.73,2.36-4.95,3.13-9.82,6.2-14.55,9.19-4.77,2.92-9.26,6.07-13.64,8.96-4.37,2.9-8.55,5.68-12.5,8.31-1.99,1.28-3.86,2.66-5.69,3.92-1.83,1.28-3.6,2.51-5.29,3.67-3.39,2.35-6.51,4.48-9.3,6.36-2.78,1.89-5.28,3.46-7.32,4.87-2.05,1.4-3.73,2.49-4.99,3.25-28.02,21.69-54.67,44.07-80.78,67.23-6.48,5.87-12.95,11.74-19.43,17.61-6.41,5.98-12.71,12.13-19.05,18.24-5.64,5.37-11.18,10.92-16.67,16.56-.3-.81-.8-1.39-1.35-1.9-1.18-1.12-2.57-1.99-2.21-4.65-.19-4.42.39-9.29-.38-11.75-.71-2.16-2.81-2.75-7.57.58l-.09-.34-.46-1.4c-.62-1.87-1.26-3.73-1.92-5.58-.43-.98-.87-1.99-1.37-3.01-.52-1-1.06-2.02-1.64-3.05ZM941.8,788.9l-2.8-.85-1.41-.42-1.41-.33c-1.89-.44-3.78-.86-5.68-1.25-1.05-.13-2.13-.27-3.24-.37-1.12-.06-2.26-.12-3.43-.15-2.34-.07-4.79-.09-7.32-.06-2.53.11-5.14.34-7.8.58-2.66.25-5.39.5-8.13,1.02-2.74.45-5.51.95-8.29,1.48l-2.09.39-2.07.51c-1.38.35-2.76.7-4.13,1.04-2.74.7-5.47,1.43-8.15,2.16-2.67.85-5.28,1.72-7.84,2.58-1.13.33-2.26.65-3.39.97-1.17.42-2.44.87-3.81,1.36-1.36.5-2.82,1.1-4.37,1.7-3.1,1.19-6.55,2.52-10.31,3.98-1.89.67-3.82,1.55-5.83,2.39-2.01.85-4.08,1.74-6.22,2.65-2.13.89-4.34,1.83-6.59,2.78-2.25,1-4.53,2.1-6.86,3.17-2.33,1.09-4.72,2.19-7.14,3.32-2.42,1.14-4.89,2.24-7.35,3.54-4.93,2.51-10.01,5.09-15.15,7.71-1.3.62-2.56,1.35-3.85,2.05-1.27.71-2.56,1.43-3.85,2.13-2.58,1.42-5.17,2.85-7.76,4.27l-3.9,2.15c-1.31.71-2.6,1.43-3.89,2.21-2.57,1.52-5.13,3.04-7.69,4.56-2.56,1.52-5.12,3.04-7.66,4.53-1.26.75-2.54,1.5-3.79,2.25-1.26.77-2.49,1.58-3.73,2.36-4.95,3.13-9.82,6.2-14.55,9.19-4.77,2.92-9.26,6.07-13.64,8.96-4.37,2.9-8.55,5.68-12.5,8.31-1.99,1.28-3.86,2.66-5.69,3.92-1.83,1.28-3.6,2.51-5.29,3.67-3.39,2.35-6.51,4.48-9.3,6.36-2.78,1.89-5.28,3.46-7.32,4.87-2.05,1.4-3.73,2.49-4.99,3.25-28.02,21.69-54.67,44.07-80.78,67.23-6.48,5.87-12.95,11.74-19.43,17.61-6.41,5.98-12.71,12.13-19.05,18.25-1.83,1.74-3.63,3.53-5.44,5.3-.4-1.4-.74-2.75-.99-4.01-.84-5.93-1.17-10.83-1.1-14.85.14-4.04.66-7.22,1.43-9.72,1.55-5.01,4.11-7.31,6.77-8.43,1.78-.74-2.01-13.88-4.45-22.64,4.29,3.15,5.32-3.3,6.24-10.21.91-6.92,1.7-14.31,5.44-13.28-.85-3.24-1.83-6.72-2.85-10.34-1.02-3.62-1.94-7.36-2.91-11.12-1.9-7.51-3.69-15.07-4.76-21.68-.13-1.11-.27-2.24-.37-3.36-.09-1.11-.15-2.23-.21-3.36-.12-2.25-.2-4.51-.24-6.78-.09-4.53-.06-9.08-.03-13.62-.23-2.7-.49-5.38-.7-8.05-.15-2.66-.31-5.3-.47-7.94-.3-5.24-.6-10.44-.89-15.59-.36-5.16-.43-10.22-.56-15.23-.13-5.01-.26-9.98-.38-14.92-.03-1.23-.09-2.46-.07-3.68l.02-3.64c.02-2.42.03-4.83.04-7.24.03-4.79.05-9.56.08-14.32.18-4.68.36-9.34.53-13.99.18-4.64.24-9.27.63-13.78-.34-2.88-.66-5.99-.88-9.44.44-.01,1.14-.05,1.55-.79.07-1.06.14-2.15.21-3.24-.32-3.84-.5-7.53-.69-10.97-.16-3.42-.23-6.54.03-9.05.26-1.16.96-.79,1.71-.22.09-1.52.11-3.08.25-4.57l.37-4.5c.22-3.01.45-6.02.68-9.04.12-1.51.2-3.03.33-4.54l.47-4.44c.29-2.97.58-5.94.88-8.91-.31-3.5-.43-6.85-.6-10.2-.16-3.34-.32-6.65-.43-9.88.7.13,1.42.25,2.1.39,1.18-3.51.96-7.26.73-11.06-.05-.95-.12-1.9-.15-2.84-.05-.96-.05-1.89.03-2.8.14-1.81.46-3.59,1.13-5.27,1.04-2.04,1.98.15,3.24.77,2.74-14.01,6.16-27.53,10.6-40.02l1.71-4.64c.29-.77.55-1.57.87-2.31l.95-2.23,1.87-4.45c.63-1.49,1.35-2.84,2.02-4.28,1.31-2.92,2.83-5.53,4.27-8.26.74-1.36,1.55-2.57,2.32-3.87.39-.64.76-1.3,1.17-1.91l1.23-1.8c.43-.57.78-1.42,1.1-2.48.35-1,.66-2.19.97-3.52.3-1.38.66-2.69,1.04-4.13.38-1.48.83-2.79,1.34-4.16.12-.94.19-1.75.25-2.65.03-.44.05-.89.07-1.32,0-.04,0-.08,0-.13,2.87-.99,42.12-19.76,43.03-15.99,2.42-2.31,5-4.85,7.67-7.5,2.68-2.64,5.5-5.26,8.32-7.92,5.66-5.3,11.4-10.52,16.67-14.66.91-.66,1.82-1.32,2.76-1.95.93-.61,1.88-1.22,2.84-1.81,1.92-1.19,3.85-2.35,5.81-3.49,3.93-2.27,7.92-4.45,11.91-6.62,2.25-1.51,4.47-3.03,6.71-4.5,2.25-1.42,4.49-2.84,6.72-4.25,4.44-2.79,8.84-5.57,13.21-8.32,4.35-2.81,8.73-5.32,13.06-7.86,4.32-2.54,8.61-5.05,12.87-7.55,1.06-.62,2.11-1.27,3.19-1.84l3.2-1.74c2.12-1.16,4.24-2.32,6.36-3.47,4.21-2.29,8.39-4.58,12.57-6.86,4.18-2.11,8.35-4.21,12.5-6.31,4.14-2.09,8.23-4.28,12.36-6.12,2.36-1.69,4.92-3.48,7.84-5.34.22.38.59.98,1.45.98.97-.45,1.95-.92,2.94-1.38,3.2-2.14,6.35-4.09,9.26-5.91,2.92-1.8,5.61-3.37,7.93-4.35,1.14-.33,1.15.46,1.02,1.39,1.38-.66,2.75-1.39,4.13-1.99l4.12-1.86c2.74-1.26,5.49-2.52,8.24-3.78,1.38-.63,2.75-1.29,4.13-1.91l4.11-1.73c2.74-1.18,5.48-2.36,8.23-3.54,2.91-1.97,5.79-3.69,8.63-5.46,2.85-1.76,5.66-3.5,8.44-5.16.23.68.46,1.36.67,2.03,3.64-.67,6.81-2.67,10.03-4.71.8-.5,1.61-1.02,2.41-1.5.82-.51,1.63-.96,2.46-1.32,1.65-.75,3.36-1.33,5.16-1.56,2.29-.07.83,1.81.89,3.21,4.24-1.37,8.46-2.64,12.67-3.83-.44,1.74-.89,3.49-1.31,5.21-.54,2.75-1.05,5.46-1.54,8.11-.26,1.15-.53,2.29-.79,3.44-.2,1.22-.42,2.56-.66,4-.22,1.44-.4,3-.63,4.64-.45,3.29-.96,6.95-1.51,10.95-.32,1.98-.49,4.09-.73,6.26-.22,2.17-.46,4.41-.7,6.73-.25,2.3-.5,4.68-.75,7.11-.21,2.45-.35,4.98-.54,7.54-.17,2.57-.36,5.19-.55,7.86-.18,2.67-.41,5.37-.46,8.14-.19,5.53-.39,11.22-.58,16.99-.08,1.44-.06,2.89-.07,4.36,0,1.46,0,2.93,0,4.4,0,2.95-.01,5.9-.01,8.86v4.45c-.02,1.49-.02,2.97.05,4.47.09,2.98.18,5.96.27,8.94.09,2.98.18,5.95.26,8.9.05,1.47.09,2.95.13,4.41.06,1.47.18,2.95.25,4.41.34,5.84.68,11.59,1,17.18.24,5.59.83,11.04,1.23,16.27.43,5.22.84,10.23,1.22,14.96.16,2.36.46,4.66.67,6.88.23,2.22.45,4.36.66,6.4.41,4.11.77,7.87,1.07,11.22.31,3.35.48,6.3.72,8.76.23,2.48.38,4.47.43,5.94,5.42,35.02,12.11,69.17,19.75,103.23,2,8.51,4.01,17.02,6.01,25.52,2.13,8.5,4.46,16.99,6.75,25.5,2.29,8.76,4.83,17.49,7.51,26.25-.58-.18-1.17-.36-1.76-.55Z" />
  <path class="cls-1" d="M768.37,615.5s0-.03,0-.04c-.15-.68-.72-1.14-1.29-1.01-.62,1.16-.73,2.62-.32,3.98-1.79-3.54-4.96-2.93-6.58-.03l-.25-1.26c-2.36-.87.49,2.49-.57,2.69-2.36-.85.32-3.98-2.04-4.83.24,1.23-.82,1.43-.57,2.69-3.42-.67-.49-2.51-1.79-3.57q-.82,1.43-.57,2.69c-.25-1.29-3.66-1.9-4.96-2.95-2.85-3.36-5.45-5.47-8.38-3.59-1.1.3-1.8,1.54-1.63,2.9-1.31-1.08-2.6-2.1-2.85-3.36-.82,1.43-2.93,1.85-4.8,3.52-2.51,3.01-4.05,6.98-4.37,11.31-.6,7.96-7.34,35.45-11.08,38.76-3.96,11.36-6.79,23.31-8.41,35.62,2.11-.41,2.85,3.36,4.96,2.95,1.06-.21-.74-3.77.07-5.24,4.09-2.98,9.24-3.51,13.99-1.42.38.14.78.16,1.15.06,1.19-.31,1.88-1.73,1.53-3.17,4.96,2.95,9.51-1.86,14.48,1.1-.3-2.72-.08-5.45.64-7.97.82-1.43,2.93-1.85,4.8-3.52,5.34-6.27,10.71-12.54,15.01-18.61l-.25-1.26,1.06-.21c-.41-1.36-.29-2.82.32-3.98-.25-1.26,1.06-.21,1.06-.21,1.37-2.1,2.39-4.52,3-7.12l-.98-5.04s0,.03,0,.04c.15.68.72,1.14,1.29,1.01,1.87-1.67-.74-3.77.07-5.24.7.57,1.53.87,2.36.85v.06c.89-6.71.72-13.21,1.6-19.92l-3.09-4.62-2.6-2.08Z" />
  <path class="cls-1" d="M498.52,346.47c-2.76-7.09-5.52-14.19-8.57-20.34l-1.13-.35.29-.95c-1.28-.26-2.42-.99-3.1-2-1.13-.35.29-.95.29-.95-1.11-2.04-2.63-3.92-4.48-5.55l-4.52-1.4s.03,0,.04.01c.62.18,1.24-.09,1.39-.61-.54-2.25-3.39-1.05-4.23-2.35.78-.32,1.38-.86,1.72-1.55l.05.02c-5.07-3.65-10.43-6.36-15.5-10.01l-5.11.49-2.82,1.2s-.03,0-.04-.01c-.62-.18-1.24.09-1.39.61.67,1.01,1.81,1.74,3.1,2-3.66-.1-4.55,2.75-2.9,5.34l-1.13-.35c-1.74,1.54,2.24.69,1.94,1.64-1.72,1.55-3.1-2-4.82-.45,1.1.34.81,1.29,1.94,1.64-2.04,2.49-2.26-.7-3.69-.1q.81,1.29,1.94,1.64c-1.16-.36-3.14,2.15-4.57,2.74-3.98.85-6.83,2.04-6.58,5.24-.24,1.03.47,2.13,1.65,2.59-1.45.59-2.85,1.2-3.98.85.81,1.29.22,3.19.76,5.44,1.35,3.35,3.91,6.34,7.28,8.5,6.21,3.97,25.61,21.46,26.67,25.95,7.51,8.19,15.99,15.71,25.29,22.42.59-1.9,3.98-.85,4.57-2.74.29-.95-3.39-1.05-4.23-2.35-.64-4.63,1.19-9.04,4.96-11.99.28-.25.47-.56.56-.91.27-1.11-.59-2.28-1.91-2.63,4.57-2.74,2.65-8.55,7.22-11.29-2.35-.94-4.47-2.31-6.2-4-.81-1.29-.22-3.19-.76-5.44Z" />
  <path class="cls-1" d="M599.39,246.55c2.51,6.43,5.01,12.88,7.78,18.45l1.03.32-.27.86c1.17.23,2.2.9,2.81,1.82,1.03.32-.27.86-.27.86,1.01,1.85,2.39,3.56,4.06,5.04l4.1,1.27s-.02,0-.03-.01c-.56-.16-1.13.08-1.26.55.49,2.04,3.08.95,3.84,2.13-.7.29-1.25.78-1.56,1.4l-.05-.02c4.6,3.31,9.46,5.77,14.06,9.08l4.64-.45,2.56-1.09s.02,0,.03.01c.56.16,1.13-.08,1.26-.55-.61-.91-1.64-1.58-2.81-1.82,3.32.09,4.13-2.5,2.63-4.85l1.03.32c1.58-1.4-2.03-.63-1.76-1.49,1.56-1.4,2.81,1.82,4.37.41-1-.31-.73-1.17-1.76-1.49,1.85-2.26,2.05.64,3.34.09q-.73-1.17-1.76-1.49c1.05.33,2.85-1.95,4.15-2.49,3.61-.77,6.2-1.85,5.97-4.75.21-.93-.42-1.94-1.49-2.35,1.32-.54,2.58-1.09,3.61-.77-.73-1.17-.2-2.89-.69-4.94-1.22-3.04-3.55-5.75-6.61-7.71-5.64-3.6-23.24-19.48-24.2-23.55-6.81-7.43-14.51-14.26-22.94-20.34-.53,1.72-3.61.77-4.15,2.49-.27.86,3.08.95,3.84,2.13.58,4.2-1.08,8.21-4.5,10.88-.25.23-.43.51-.5.83-.24,1,.53,2.07,1.73,2.39-4.15,2.49-2.41,7.76-6.55,10.25,2.13.86,4.05,2.1,5.63,3.63.73,1.17.2,2.89.69,4.94Z" />
  <path class="cls-1" d="M669.57,784.13s0-.03,0-.04c-.15-.7-.74-1.16-1.32-1.03-.63,1.18-.75,2.67-.33,4.05-1.82-3.61-5.04-2.98-6.7-.03l-.25-1.28c-2.41-.89.49,2.53-.58,2.74-2.4-.86.33-4.05-2.07-4.92.24,1.25-.83,1.46-.58,2.74-3.48-.68-.5-2.56-1.82-3.63q-.83,1.46-.58,2.74c-.26-1.31-3.72-1.93-5.05-3-2.9-3.42-5.55-5.57-8.53-3.66-1.12.31-1.83,1.57-1.66,2.95-1.33-1.1-2.65-2.14-2.9-3.42-.83,1.46-2.98,1.88-4.88,3.58-2.55,3.06-4.12,7.11-4.45,11.51-.61,8.1-7.47,36.08-11.27,39.45-4.03,11.56-6.91,23.73-8.56,36.25,2.15-.42,2.9,3.42,5.05,3,1.08-.21-.75-3.84.08-5.33,4.16-3.04,9.4-3.57,14.24-1.44.39.14.79.16,1.17.06,1.21-.32,1.91-1.76,1.56-3.23,5.05,3,9.68-1.89,14.73,1.12-.31-2.77-.09-5.54.65-8.11.83-1.46,2.98-1.88,4.88-3.58,5.44-6.38,10.9-12.76,15.27-18.94l-.25-1.28,1.08-.21c-.42-1.38-.3-2.87.33-4.05-.25-1.28,1.08-.21,1.08-.21,1.4-2.14,2.43-4.6,3.05-7.25l-1-5.13s0,.03,0,.04c.15.7.74,1.16,1.32,1.03,1.9-1.7-.75-3.84.08-5.33.72.58,1.56.89,2.4.86v.06c.91-6.83.73-13.45,1.63-20.27l-3.15-4.71-2.64-2.11Z" />
  <path class="cls-1" d="M537.03,223.42c1.57-1.41,2.82,1.82,4.38.41-1-.31-.74-1.17-1.77-1.49,1.85-2.26,2.05.64,3.35.09q-.74-1.17-1.77-1.49c1.05.33,2.86-1.95,4.16-2.5,3.62-.77,6.22-1.86,5.99-4.77.21-.94-.42-1.94-1.5-2.36,1.32-.54,2.59-1.09,3.62-.77-.74-1.17-.2-2.9-.7-4.95-1.23-3.05-3.56-5.77-6.62-7.73-5.65-3.61-23.3-19.53-24.27-23.61-6.83-7.45-14.55-14.29-23.01-20.39-.54,1.73-3.62.77-4.16,2.5-.27.86,3.09.96,3.85,2.14.58,4.21-1.08,8.23-4.51,10.91-.25.23-.43.51-.51.83-.24,1.01.53,2.08,1.74,2.39-4.16,2.5-2.41,7.78-6.57,10.27,2.13.86,4.06,2.1,5.64,3.64.74,1.17.2,2.9.7,4.95,2.51,6.45,5.02,12.91,7.8,18.5l1.03.32-.27.86c1.17.23,2.2.9,2.82,1.82,1.03.32-.27.86-.27.86,1.01,1.85,2.39,3.57,4.08,5.05l4.12,1.28s-.02,0-.03-.01c-.56-.16-1.13.08-1.26.55.49,2.05,3.09.96,3.85,2.14-.71.29-1.26.79-1.57,1.41l-.05-.02c4.61,3.32,9.49,5.78,14.1,9.11l4.65-.45,2.57-1.1s.02,0,.03.01c.56.16,1.13-.08,1.26-.55-.61-.92-1.65-1.59-2.82-1.82,3.33.09,4.14-2.5,2.64-4.86l1.03.32c1.59-1.4-2.03-.63-1.77-1.49Z" />
</svg>