<?xml version='1.0' encoding='utf-8'?>
<svg xmlns="http://www.w3.org/2000/svg" width="30" height="30" viewBox="0 0 30 30" fill="none">
<path d="M26.9734 0.552769L27.0694 1.2707L27.2171 0.931115C27.5345 1.13044 27.529 1.45526 27.6028 1.70811L27.9073 1.49033C27.9516 1.83176 27.9904 2.14182 28.0273 2.41682C28.6492 2.38729 28.7304 1.76901 29.1032 1.36667C29.5185 2.00709 29.5148 2.68258 29.5333 3.37837C29.5942 3.22149 29.6569 3.06277 29.7326 2.86714C30.0002 4.00218 30.0759 5.10215 29.919 6.22242C29.5388 8.96866 28.4222 11.4547 27.2078 13.9038C25.8402 16.6629 24.1405 19.2228 22.3207 21.6977C21.3499 23.0191 20.2684 24.2649 19.1684 25.4848C18.0611 26.7122 16.8707 27.8657 15.719 29.0542C15.6323 29.1428 15.5714 29.2591 15.5123 29.344H14.488C14.4271 29.2591 14.3644 29.1336 14.2684 29.0431C12.0703 26.9613 10.0014 24.754 8.15765 22.3584C6.54829 20.2674 5.09581 18.0582 3.78729 15.7623C2.65225 13.7709 1.66855 11.7057 0.900786 9.54448C0.356337 8.02002 -0.0312371 6.45681 0.00198355 4.82346C0.0149027 4.19412 0.134866 3.56662 0.204998 2.93912H0.284359L0.44308 3.31562C0.485528 2.6512 0.483683 1.99048 0.900786 1.34084C1.05582 1.58815 1.18501 1.78009 1.29574 1.98126C1.38248 2.14182 1.46185 2.27286 1.68147 2.27655C1.77744 2.27655 1.87157 2.38729 1.96754 2.44819C2.00076 2.16028 2.03767 1.85206 2.07274 1.54201H2.13733C2.15763 1.85945 2.17793 2.1732 2.19639 2.48695L2.26837 2.48326C2.24991 2.28393 2.22592 2.08276 2.213 1.88344C2.20377 1.74687 2.21854 1.75609 2.38095 1.62321C2.43447 1.57892 2.43263 1.47187 2.46585 1.3962C2.53229 1.24302 2.60611 1.09353 2.69654 0.897895L2.91986 1.1692C2.95677 0.960645 2.99184 0.763167 3.03982 0.486328C3.42186 0.984637 3.54367 1.49402 3.55844 1.98495C3.6138 3.86929 3.99769 5.6872 4.55874 7.47742C4.59566 7.59369 4.70824 7.72104 4.50522 7.80963C4.47754 7.8207 4.47385 7.94436 4.49784 8.00157C4.56982 8.18059 4.65841 8.35408 4.7433 8.52756C4.8725 8.79148 5.11611 9.0148 5.00907 9.36361C4.99061 9.42636 5.07736 9.52972 5.13088 9.60354C5.76576 10.4894 6.17179 11.4971 6.54275 12.5011C6.731 13.0105 7.04291 13.4239 7.25331 13.9001C7.80698 15.1606 8.45663 16.3713 9.13765 17.5636C9.80945 18.7392 10.544 19.8798 11.2527 21.0351C11.3708 21.2271 11.5092 21.4098 11.6071 21.6128C12.146 22.7423 12.9986 23.6116 13.9103 24.4365C14.0746 24.5842 14.2186 24.706 14.1724 24.9921C14.1374 25.2025 14.2758 25.4424 14.3478 25.6676C14.4123 25.8724 14.5139 26.068 14.56 26.2766C14.5951 26.4316 14.5674 26.5996 14.5674 26.762L14.488 26.7823C14.6504 26.9355 14.8128 27.0887 14.9992 27.2658C15.1672 27.1108 15.3296 26.9595 15.492 26.8081L15.4127 26.7897C15.4385 26.5608 15.4403 26.3283 15.4957 26.1068C15.564 25.8392 15.6803 25.5845 15.7725 25.3243C15.8021 25.2375 15.863 25.1342 15.839 25.0604C15.7135 24.6783 16.0014 24.5159 16.2173 24.3221C17.1438 23.4916 17.8987 22.543 18.5003 21.443C19.209 20.1474 20.0635 18.933 20.8092 17.6559C21.337 16.7534 21.791 15.8084 22.2819 14.8838C22.5994 14.2858 22.95 13.7044 23.2361 13.0917C23.5406 12.4402 23.7732 11.7573 24.0629 11.0985C24.2438 10.6887 24.4764 10.2993 24.6812 9.89884C24.8049 9.65706 25.0097 9.46881 24.971 9.13292C24.9488 8.94651 25.1592 8.73796 25.2515 8.5331C25.3715 8.26733 25.6871 8.0311 25.3881 7.69151C25.3641 7.66383 25.4028 7.57524 25.4231 7.51802C25.8624 6.15782 26.1891 4.77179 26.3496 3.35068C26.3884 3.00371 26.3718 2.6512 26.4198 2.30608C26.4862 1.84284 26.5822 1.38144 26.6855 0.923733C26.7151 0.79085 26.8147 0.674578 26.8812 0.549078H26.9771L26.9734 0.552769Z" fill="#010E22" />
<path d="M19.5991 3.06121C19.8782 3.15157 20.0916 3.56918 19.9603 3.99168C19.8337 4.39708 19.6672 4.8098 19.4256 5.14926C18.5908 6.31906 17.8755 7.54014 17.2635 8.86135C16.7593 9.94811 15.9831 10.9006 15.3194 11.9067C15.2232 12.0508 14.7191 12.0191 14.6135 11.8725C13.842 10.7833 13.0892 9.68924 12.51 8.45839C11.9871 7.34477 11.2906 6.31417 10.6175 5.28358C10.2494 4.71944 9.87415 4.18949 10.0407 3.46417C10.0758 3.30543 10.1931 3.16623 10.3291 2.91713C10.2048 2.53127 10.3056 2.32612 10.8075 2.099C11.0678 1.98178 11.3515 1.86211 11.5438 1.66186C11.7432 1.45427 11.851 1.149 11.9917 0.880365C12.034 0.799773 12.034 0.694761 12.0832 0.621496C12.1629 0.504272 12.4256 0.487177 12.2614 0.240519C12.2614 0.240519 12.3294 0.172138 12.374 0.145274C12.7562 -0.0818467 13.2323 -0.025677 13.5442 0.306457C13.8443 0.62638 14.1398 0.956072 14.4119 1.30286C14.4963 1.40787 14.4963 1.58371 14.4728 1.74733C14.5737 1.90363 14.644 2.10145 14.7824 2.20402C14.8738 2.2724 15.0919 2.26019 15.1904 2.18936C15.3194 2.09656 15.3851 1.91096 15.4343 1.7571C15.4836 1.59103 15.4906 1.39322 15.5867 1.26378C15.8259 0.943861 16.098 0.645917 16.37 0.3553C16.7382 -0.0354456 17.0899 -0.0989418 17.5613 0.14039C17.634 0.177022 17.6645 0.306457 17.6973 0.406586C17.7864 0.565326 17.8755 0.721624 17.9623 0.880365C17.974 0.902344 17.9576 0.941419 17.9693 0.960956C18.2625 1.42985 18.5368 1.89875 19.0996 2.09656C19.3154 2.17227 19.5077 2.3945 19.646 2.5972C19.7094 2.69001 19.6226 2.89759 19.6015 3.06121H19.5991Z" fill="#9E172F" />
</svg>