<svg width="34" height="30" viewBox="0 0 34 30" fill="none" xmlns="http://www.w3.org/2000/svg">
<path d="M13.4034 7.0955H13.4062H13.4034ZM33.75 29.9004C33.6487 29.7018 32.8556 29.2789 32.4506 28.8617C32.2452 28.6233 32.0596 28.365 31.8993 28.0925C31.7896 27.8995 31.7024 27.6923 31.6462 27.4766C31.5646 27.2013 31.5843 26.9033 31.7024 26.6394C31.7671 26.5003 31.1371 25.9752 30.7208 25.6176C31.0414 25.5608 30.8783 25.1465 30.6899 24.7094C30.5042 24.2751 30.2961 23.8182 30.5155 23.6734C30.3664 23.54 30.2005 23.3981 30.0261 23.2505C29.8545 23.103 29.6829 22.944 29.5086 22.7879C29.171 22.4871 28.8504 22.1692 28.5438 21.8371C28.4988 21.7832 28.4538 21.7264 28.4116 21.6697C28.3694 21.6129 28.3301 21.5533 28.2879 21.4937C28.2063 21.3745 28.1276 21.2524 28.0488 21.1276C27.8941 20.8806 27.7422 20.6252 27.5903 20.3698C27.4891 20.2335 27.385 20.0945 27.2866 19.9582L26.9969 19.541L26.4287 18.7179C26.2375 18.4483 26.0631 18.173 25.8915 17.8977C25.7171 17.6252 25.5456 17.3556 25.374 17.086C25.3318 17.0207 25.2868 16.9526 25.2474 16.8845L25.1265 16.6801L24.8846 16.2742L24.4093 15.471C24.2602 15.2014 24.1139 14.9318 23.9677 14.6621C23.8214 14.3954 23.6695 14.1342 23.5373 13.8589C23.4248 13.717 23.3039 13.5609 23.1773 13.3793C23.2111 13.3452 23.2308 13.2998 23.2279 13.2516C23.197 13.1891 23.1633 13.1238 23.1295 13.0586C22.9861 12.8627 22.8511 12.6669 22.7273 12.4852C22.6148 12.3235 22.5135 12.156 22.4263 11.98C22.401 11.9006 22.4488 11.8835 22.5051 11.875C22.4601 11.7842 22.4067 11.6962 22.3645 11.6054L22.2323 11.3301L21.9595 10.788C21.9145 10.6972 21.8666 10.6092 21.8244 10.5184L21.7007 10.2431C21.6163 10.0614 21.5319 9.87978 21.4447 9.69813C21.3125 9.51932 21.1944 9.34052 21.0735 9.16171C20.9525 8.9829 20.8344 8.80977 20.7219 8.63381C20.7613 8.60259 20.8006 8.57137 20.84 8.54298C20.7725 8.30458 20.66 8.08036 20.5053 7.88736C20.4716 7.83627 20.435 7.78802 20.4041 7.73693C20.3703 7.68585 20.3394 7.63476 20.3113 7.578C20.255 7.46731 20.2128 7.34526 20.1903 7.22322C20.1734 7.05577 20.2888 7.12105 20.3731 7.09266C20.0412 6.17876 19.7712 5.24216 19.5631 4.29136L19.4956 3.93942C19.4843 3.87982 19.4703 3.82306 19.4618 3.76345L19.4337 3.58749L19.3775 3.23839C19.3578 3.12202 19.3493 3.00565 19.3353 2.88929C19.3015 2.65656 19.2903 2.42666 19.2734 2.19677C19.265 2.0804 19.265 1.96687 19.2593 1.85335C19.2593 1.79658 19.2537 1.73982 19.2537 1.68305V1.5156C19.2537 1.44748 19.2453 1.3822 19.2256 1.31693C19.2115 1.24313 19.189 1.16082 19.1581 1.06716C19.1271 0.973503 19.1018 0.88268 19.0709 0.780505C19.0399 0.67833 19.0174 0.578993 18.9978 0.476818C18.9724 0.417215 18.9499 0.368966 18.9218 0.31504C18.9077 0.289496 18.8965 0.263953 18.8824 0.238409L18.8402 0.170292C18.8346 0.192998 18.829 0.212865 18.8234 0.238409L18.8065 0.317878L18.7896 0.39451L18.7756 0.476818C18.7868 0.408701 18.7924 0.351937 18.7981 0.286658C18.8037 0.22138 18.8037 0.167454 18.8037 0.11069C18.7812 0.0794696 18.7531 0.0482494 18.7249 0.0227056L18.7137 0.0624404L18.6996 0.116366C18.6912 0.153263 18.6799 0.187321 18.6743 0.229894L18.649 0.351937L18.6265 0.479656C18.6405 0.360451 18.663 0.136234 18.6771 0.0085146H18.6743C18.6743 0.0085146 18.6743 0.0028382 18.6743 0L18.6659 0.0198674C18.6659 0.0198674 18.6546 0.0454112 18.6518 0.0596022C18.6434 0.0936606 18.6321 0.127719 18.6265 0.167454C18.6209 0.207189 18.6124 0.249762 18.6068 0.292335L18.5984 0.354775L18.5927 0.422892C18.5787 0.601699 18.5787 0.786182 18.5618 0.933768C18.4915 0.485332 18.3987 0.377481 18.2693 0.499523C18.1849 0.607375 18.1202 0.729418 18.0808 0.859975C18.0527 0.950797 18.0246 1.0473 17.9993 1.15799C17.974 1.26868 17.9571 1.39072 17.9374 1.51844C17.9402 1.43613 17.943 1.30557 17.9458 1.2034C17.9458 1.10122 17.9458 1.01891 17.9205 1.02175C17.8586 1.03027 17.8249 1.08703 17.8108 1.17218C17.8024 1.27435 17.8052 1.37937 17.8193 1.48154C17.8249 1.5383 17.8305 1.59507 17.8418 1.65183C17.853 1.7086 17.8615 1.76252 17.8699 1.81361C17.8868 1.8874 17.8924 1.96687 17.884 2.04067C17.8333 2.05486 17.808 1.99809 17.7911 1.90443C17.7827 1.85618 17.7771 1.79942 17.7714 1.73698C17.7658 1.7086 17.7658 1.6717 17.7658 1.63764V1.53547C17.7658 1.39639 17.7658 1.25165 17.7574 1.13528C17.7658 1.0473 17.7405 0.96215 17.6899 0.891195C17.6814 0.976341 17.6646 1.06149 17.6505 1.15231C17.6393 1.22043 17.628 1.29138 17.6196 1.3595C17.4958 0.942283 17.3749 0.862813 17.268 0.945121C17.1245 1.12677 16.998 1.32544 16.8855 1.52979C16.773 1.32544 16.6464 1.1296 16.503 0.945121C16.3961 0.865651 16.2751 0.945121 16.1514 1.3595C16.1401 1.29138 16.1289 1.22043 16.1204 1.15231C16.1064 1.06433 16.0895 0.976341 16.0811 0.891195C16.0304 0.96215 16.0051 1.0473 16.0136 1.13528C16.0079 1.25165 16.0051 1.39639 16.0051 1.53547V1.63764C16.0051 1.6717 16.0051 1.70576 15.9995 1.73698C15.9939 1.79942 15.9882 1.85618 15.9798 1.90443C15.9629 2.00093 15.9376 2.0577 15.887 2.04067C15.8785 1.96403 15.8842 1.8874 15.901 1.81361C15.9095 1.76252 15.9207 1.7086 15.9292 1.65183C15.9404 1.59507 15.9461 1.5383 15.9517 1.48154C15.9657 1.37937 15.9686 1.27719 15.9601 1.17218C15.946 1.08987 15.9123 1.03027 15.8504 1.02175C15.8251 1.01891 15.8223 1.10122 15.8251 1.2034C15.8251 1.30557 15.8307 1.43329 15.8335 1.51844C15.8139 1.39072 15.797 1.26868 15.7717 1.15799C15.7464 1.0473 15.7182 0.953635 15.6901 0.859975C15.6507 0.729418 15.5888 0.604537 15.5017 0.499523C15.3723 0.377481 15.2795 0.48817 15.2091 0.933768C15.1923 0.786182 15.1923 0.59886 15.1782 0.422892L15.1726 0.354775L15.1641 0.292335C15.1585 0.249762 15.1529 0.207189 15.1444 0.167454C15.1388 0.127719 15.1276 0.0936606 15.1191 0.0596022C15.1135 0.0454112 15.1107 0.0312202 15.1051 0.0198674L15.0966 0C15.0966 0 15.0966 0.0056764 15.0966 0.0085146H15.0938C15.1079 0.139072 15.1332 0.360451 15.1444 0.479656L15.1219 0.351937L15.0966 0.229894C15.0882 0.187321 15.0798 0.153263 15.0713 0.116366L15.0573 0.0624404L15.046 0.0227056C15.0179 0.0510876 14.9926 0.0794696 14.9673 0.11069C14.9673 0.167454 14.9673 0.22138 14.9729 0.286658C14.9785 0.351937 14.9841 0.408701 14.9954 0.476818L14.9813 0.39451L14.9644 0.317878L14.9448 0.238409C14.9391 0.212865 14.9335 0.192998 14.9279 0.170292L14.8857 0.238409C14.8716 0.263953 14.8576 0.289496 14.8463 0.31504C14.8182 0.368966 14.7957 0.417215 14.7704 0.476818C14.7507 0.581831 14.7282 0.67833 14.6972 0.780505C14.6663 0.88268 14.641 0.973503 14.6101 1.06716C14.5791 1.16082 14.5566 1.24313 14.5425 1.31693C14.5229 1.3822 14.5144 1.44748 14.5144 1.5156V1.68305C14.5144 1.73982 14.5116 1.79658 14.5088 1.85335C14.5032 1.96687 14.5032 2.07756 14.4947 2.19677C14.475 2.42666 14.4638 2.65656 14.4329 2.88929C14.4188 3.00565 14.4075 3.12202 14.3907 3.23839L14.3344 3.58749L14.3063 3.76345C14.2978 3.82306 14.2838 3.87982 14.2725 3.93942L14.205 4.29136C13.9997 5.24216 13.7297 6.17876 13.395 7.09266C13.4794 7.12388 13.5947 7.05577 13.5778 7.22322C13.5553 7.3481 13.5131 7.46731 13.4569 7.578C13.4316 7.63192 13.4006 7.68585 13.3641 7.73693C13.3303 7.78802 13.2966 7.83627 13.2628 7.88736C13.1081 8.08036 12.9956 8.30458 12.9281 8.54298L13.0462 8.63381C12.9337 8.80694 12.8128 8.9829 12.6946 9.16171C12.5737 9.34052 12.4556 9.51932 12.3234 9.69813C12.239 9.87978 12.1546 10.0614 12.0674 10.2431L11.9437 10.5184C11.8987 10.6092 11.8537 10.6972 11.8087 10.788L11.5358 11.3301L11.4037 11.6054C11.3615 11.6962 11.308 11.7842 11.263 11.875C11.3193 11.8835 11.3671 11.9006 11.3418 11.98C11.2546 12.156 11.1533 12.3263 11.0408 12.4852C10.9171 12.6669 10.7849 12.8627 10.6386 13.0586L10.5402 13.2516C10.5402 13.2998 10.557 13.3452 10.5908 13.3793C10.4642 13.5609 10.3433 13.717 10.2308 13.8589C10.0986 14.1342 9.94671 14.3925 9.80045 14.6621L9.35887 15.471L8.88353 16.2742L8.64165 16.6801L8.5207 16.8845C8.48133 16.9526 8.43633 17.0207 8.39414 17.086C8.22257 17.3556 8.051 17.6252 7.87661 17.8977C7.70223 18.173 7.53066 18.4455 7.3394 18.7179L6.77125 19.541L6.48155 19.9582C6.38029 20.0945 6.27904 20.2335 6.17778 20.3698C6.02871 20.6252 5.87683 20.8806 5.71932 21.1276C5.64057 21.2524 5.56182 21.3745 5.48025 21.4937C5.44087 21.5533 5.39868 21.6129 5.3565 21.6697C5.31431 21.7264 5.2693 21.7832 5.2243 21.8371C4.92054 22.1692 4.59709 22.4871 4.25957 22.7879C4.08519 22.944 3.91362 23.103 3.74205 23.2505C3.57047 23.3981 3.40172 23.5372 3.25265 23.6734C3.47485 23.8182 3.26671 24.2723 3.07826 24.7094C2.88982 25.1465 2.7295 25.5608 3.04733 25.6176C2.63106 25.9752 2.00103 26.5003 2.06572 26.6394C2.18385 26.9033 2.20354 27.1985 2.12197 27.4766C2.06291 27.6923 1.97853 27.8995 1.86883 28.0925C1.70851 28.365 1.52288 28.6233 1.31756 28.8617C0.912539 29.2789 0.119377 29.7018 0.0181226 29.9004C-0.139385 30.2126 0.785971 29.662 0.628463 29.9742C1.47788 29.3129 2.31604 28.6601 3.1092 27.9506C3.5086 27.5987 3.90799 27.2524 4.30176 26.8948L5.45775 25.7964C6.97938 24.3092 8.45883 22.768 9.90171 21.1077C9.95233 21.0282 10.0283 20.9232 10.1211 20.7983C10.2139 20.6735 10.3236 20.5174 10.4502 20.3499C10.5767 20.1824 10.723 19.9894 10.8777 19.7823L11.1252 19.4615C11.2096 19.3509 11.3024 19.2373 11.3896 19.1153L11.9521 18.3461C12.1462 18.0765 12.3599 17.804 12.5596 17.506L13.1869 16.6035C13.2403 16.5268 13.2937 16.4502 13.3472 16.3707L13.5019 16.1323C13.6031 15.9706 13.7044 15.8116 13.8141 15.6527L14.1263 15.1673C14.1797 15.0879 14.2303 15.0056 14.2782 14.9204L14.4272 14.6707C14.5257 14.506 14.6241 14.3414 14.7226 14.1768L14.8688 13.9327C14.9166 13.8504 14.9673 13.7709 15.0123 13.6858L15.5523 12.7066C15.6423 12.5477 15.721 12.3859 15.8026 12.227C15.8842 12.068 15.9601 11.9119 16.0389 11.7587C16.1176 11.6054 16.1936 11.4578 16.2639 11.3102C16.3342 11.1626 16.3989 11.0151 16.4664 10.8731L16.6576 10.4616C16.7195 10.3282 16.7814 10.2005 16.832 10.0728L16.8742 9.9706L16.9164 10.0728C16.967 10.2005 17.0289 10.3282 17.0908 10.4616L17.282 10.8731C17.3496 11.0151 17.4142 11.1626 17.4846 11.3102C17.5549 11.4578 17.6336 11.6082 17.7096 11.7587C17.7883 11.9119 17.8643 12.068 17.9458 12.227C18.0274 12.3859 18.1061 12.5505 18.1962 12.7066L18.7362 13.6858C18.7812 13.7709 18.829 13.8504 18.8796 13.9327L19.0259 14.1768L19.3212 14.6707L19.4703 14.9204C19.5181 15.0027 19.5687 15.085 19.6222 15.1673L19.9344 15.6527C20.0412 15.8116 20.1425 15.9734 20.2466 16.1323L20.4013 16.3707C20.4547 16.4502 20.5081 16.524 20.5616 16.6035L21.1888 17.506C21.3885 17.804 21.5994 18.0765 21.7963 18.3461L22.3588 19.1153C22.446 19.2373 22.5389 19.3509 22.6232 19.4615L22.8707 19.7823C23.0283 19.9894 23.1745 20.1796 23.2983 20.3499C23.422 20.5202 23.5345 20.6735 23.6273 20.7983C23.723 20.9232 23.7961 21.0282 23.8467 21.1077C25.2896 22.768 26.769 24.3092 28.2907 25.7964L29.4467 26.8948C29.8376 27.2552 30.2398 27.6015 30.6392 27.9506C31.4324 28.6601 32.2734 29.3158 33.12 29.9742C32.9653 29.662 33.8906 30.2126 33.7303 29.9004H33.75ZM20.3816 7.0955H20.3759V7.10118L20.3816 7.0955ZM15.0601 26.6507C15.0291 26.628 14.9954 26.611 14.9588 26.5968C14.9785 26.5485 15.0038 26.506 15.0376 26.4634C14.9448 25.8078 14.8069 25.1266 14.6888 24.4C14.6016 24.2467 14.5397 24.0821 14.5004 23.909C14.5482 23.6961 14.6326 23.4946 14.7479 23.3101C14.2528 23.1853 14.1544 22.6602 13.6341 22.5949C13.6819 22.4757 13.7578 22.2941 13.6228 22.243C13.1953 22.1238 12.8353 21.8314 12.6271 21.4341C12.6075 21.2865 12.8437 21.1446 12.7734 21.0736C12.6637 20.9601 12.4331 21.1474 12.3206 21.0367C11.9606 21.9592 11.6737 22.9043 11.4599 23.8721C11.3783 24.9591 11.1224 26.0263 10.7061 27.031L10.6949 27.0849C10.5486 27.4 10.5149 27.7519 10.5936 28.0897C10.6696 28.2458 10.7708 28.4104 10.8664 28.575C10.9649 28.5438 11.0605 28.5154 11.1533 28.4955C11.1055 28.6147 11.0549 28.7368 11.128 28.8106C11.2546 29.137 11.5443 29.066 11.9071 29.0689C12.0731 29.0405 12.2671 29.2108 12.45 29.1426C12.419 29.2221 12.4021 29.2618 12.3684 29.3413C12.5034 29.3952 12.3768 29.066 12.585 29.1937C12.5062 29.2562 12.5653 29.3725 12.5315 29.452C12.7284 29.4832 12.6918 29.1881 12.8718 29.259C12.9 29.3158 12.5484 29.4094 12.7734 29.5003C12.8184 29.5173 12.8522 29.4378 12.869 29.3981C12.8606 29.6734 13.035 29.8777 13.3584 29.7302C13.3275 29.8068 13.1925 29.8919 13.1981 29.9856H13.2009C13.2206 29.9459 13.2909 29.8863 13.3078 29.8494L13.2515 29.9856C13.2853 29.9856 13.3191 29.9884 13.3556 29.9913C13.3922 29.9686 13.4231 29.9373 13.4456 29.8976L13.4062 29.9913C13.4878 29.9913 13.5666 29.9856 13.6481 29.9771C13.831 29.909 14.0841 29.8692 14.1094 29.8096C14.3738 29.3555 14.5988 28.8787 14.776 28.382C14.6916 28.3536 14.5988 28.3536 14.5735 28.2997C14.5341 28.1436 14.8519 28.1294 14.8126 27.9761L14.6776 27.9222C14.7676 27.8399 14.8773 27.7604 14.9757 27.6725C15.0179 27.4681 15.046 27.2638 15.0601 27.0566C15.0094 27.0452 14.9616 27.0339 14.9476 27.0083C14.9363 26.9147 15.0207 26.8182 15.0713 26.7075C15.0713 26.6876 15.0657 26.6677 15.0629 26.6479L15.0601 26.6507ZM23.0789 27.0339C22.6626 26.0291 22.4067 24.962 22.3251 23.8749C22.1113 22.91 21.8216 21.962 21.4644 21.0396C21.3519 21.1531 21.1213 20.9658 21.0116 21.0765C20.9413 21.1474 21.1775 21.2893 21.1579 21.4369C20.9497 21.8343 20.5897 22.1266 20.1622 22.2458C20.0272 22.2997 20.1031 22.4785 20.1509 22.5978C19.6306 22.663 19.535 23.1881 19.0371 23.313C19.1524 23.4975 19.234 23.7018 19.2846 23.9118C19.2481 24.085 19.1834 24.2496 19.0962 24.4028C18.9781 25.1294 18.8402 25.8106 18.7474 26.4662C18.7784 26.506 18.8037 26.5514 18.8262 26.5996C18.7896 26.611 18.7559 26.6308 18.7249 26.6535C18.7249 26.6734 18.7165 26.6933 18.7165 26.7131C18.7671 26.8238 18.8515 26.9232 18.8402 27.014C18.829 27.0395 18.7812 27.0509 18.7277 27.0622C18.7418 27.2694 18.7727 27.4766 18.8121 27.6781C18.9106 27.7661 19.0203 27.8456 19.1103 27.9279L18.9753 27.9818C18.9359 28.1379 19.2537 28.1521 19.2143 28.3054C19.189 28.3593 19.0962 28.3593 19.0118 28.3877C19.1918 28.8844 19.414 29.3612 19.6784 29.8153C19.7037 29.8749 19.954 29.9146 20.1397 29.9828C20.2184 29.9913 20.3 29.9969 20.3816 29.9969L20.3422 29.9033C20.3619 29.943 20.3928 29.9742 20.4322 29.9969C20.4688 29.9969 20.4997 29.9913 20.5363 29.9913L20.48 29.855C20.4969 29.8948 20.5672 29.9515 20.5869 29.9913H20.5897C20.5953 29.8976 20.4631 29.8153 20.4294 29.7358C20.7528 29.8834 20.9272 29.6791 20.9188 29.4038C20.9357 29.4435 20.9666 29.523 21.0144 29.5059C21.2366 29.4179 20.8878 29.3215 20.916 29.2647C21.096 29.1937 21.0594 29.4861 21.2563 29.4577C21.2225 29.3782 21.2788 29.2618 21.2029 29.1994C21.411 29.0717 21.2844 29.4009 21.4194 29.347C21.3857 29.2675 21.3688 29.2278 21.3379 29.1483C21.5207 29.2136 21.7148 29.0461 21.8807 29.0745C22.2435 29.0745 22.5332 29.1426 22.6598 28.8163C22.7329 28.7396 22.6823 28.6204 22.6345 28.5012C22.7273 28.5211 22.8257 28.5495 22.9214 28.5807C23.0142 28.4161 23.1154 28.2514 23.1942 28.0953C23.2758 27.7576 23.2392 27.4028 23.0929 27.0906L23.0817 27.0367L23.0789 27.0339Z" fill="#010E22"/>
</svg>
