<svg width="36" height="35" viewBox="0 0 36 35" fill="none" xmlns="http://www.w3.org/2000/svg">
<path d="M26.328 14.0887C26.3163 14.0009 26.2758 13.9203 26.2137 13.8578C26.328 13.7428 26.5548 13.9728 26.6691 13.7428C26.67 13.6803 26.6214 13.6287 26.5593 13.6278C26.5584 13.6278 26.5566 13.6278 26.5557 13.6278H27.0112C27.2272 13.5101 27.4207 13.3535 27.581 13.1661C27.581 13.1661 27.4666 13.0511 27.581 13.0511C27.6719 12.9624 27.797 12.9198 27.9221 12.9361V12.8211H28.0364C28.4919 12.2435 28.9474 11.5509 29.4019 10.8592C29.5163 10.6283 29.5163 10.3975 29.627 10.2816C29.8349 10.1539 30.068 10.0742 30.3102 10.0507C29.969 9.58896 30.3102 9.01133 29.969 8.54959C30.1004 8.55684 30.2121 8.45543 30.2193 8.32325C30.2211 8.2816 30.213 8.23995 30.1941 8.20283C29.9312 7.74562 29.8898 7.19334 30.0797 6.70172C30.1941 6.58674 30.5352 6.70172 30.5352 6.58674C30.5352 6.35587 30.1941 6.35587 30.1941 6.125C29.1499 6.54872 28.1562 7.09103 27.2344 7.742C27.0094 8.20374 24.7293 9.4776 24.0461 9.70395C23.6753 9.82708 23.3548 10.0706 23.1352 10.3966C23.0209 10.6274 23.0209 10.8583 22.9102 10.9742C23.0245 10.9742 23.1352 11.0892 23.2513 11.2051C23.1298 11.215 23.0344 11.3137 23.0263 11.4359C22.912 11.7818 23.1406 12.0136 23.4817 12.2444C23.5961 12.3594 23.7068 12.7062 23.8229 12.7062C23.7467 12.7062 23.6717 12.7445 23.5979 12.8211C23.7122 12.9361 23.8229 12.5903 23.939 12.9361C23.8247 12.9361 23.8247 13.0511 23.714 13.0511C23.8283 13.282 24.0551 12.9361 24.1694 13.1661C24.1694 13.2811 23.8283 13.0511 23.9444 13.2811H24.0587C23.8337 13.512 23.8337 13.8587 24.173 13.9737C24.0479 13.9583 23.9219 14.0009 23.8319 14.0887C23.831 14.1511 23.8796 14.2028 23.9417 14.2037C23.9426 14.2037 23.9444 14.2037 23.9453 14.2037L24.1703 14.4345L24.6258 14.6654C25.1956 14.4345 25.7645 14.3195 26.3343 14.0878" fill="white"/>
<path d="M6.97422 13.8577C6.97422 13.7428 7.08854 13.7428 7.08854 13.6269C6.97422 13.5119 6.74739 13.7419 6.63307 13.5119C6.63217 13.4494 6.68078 13.3978 6.74289 13.3969C6.74379 13.3969 6.74559 13.3969 6.74649 13.3969H6.29012C6.07408 13.2792 5.88056 13.1226 5.72123 12.9352C5.72123 12.9352 5.83555 12.8202 5.72123 12.8202C5.63032 12.7315 5.5052 12.6889 5.38008 12.7052V12.5902H5.26576C4.81029 12.0126 4.35482 11.32 3.89936 10.6283C3.89575 10.4146 3.81564 10.21 3.67432 10.0506C3.56 9.81978 3.21885 9.81978 2.99112 9.7048C3.33227 9.24305 2.99112 8.66543 3.33227 8.20368C3.21795 8.20368 2.99112 8.0887 3.10724 7.97281C3.31427 7.50021 3.35387 6.97056 3.22155 6.4717C3.10003 6.354 2.875 6.354 2.875 6.23812C2.875 6.00725 3.21615 6.00725 3.21615 5.89136C4.26031 6.31507 5.25316 6.8583 6.1758 7.50836C6.40083 7.9701 8.56656 9.24396 9.25157 9.4703C9.70703 9.70117 10.0482 9.93204 10.1625 10.2788C10.2768 10.3938 10.2768 10.6247 10.3875 10.8564C10.2732 10.9714 10.1625 10.9714 10.0464 11.0873C10.1607 11.0873 10.3875 11.2023 10.3875 11.3182C10.5019 11.664 10.2732 11.8958 9.93207 12.1267C9.81775 12.2417 9.70704 12.5884 9.59092 12.5884C9.66713 12.5884 9.74214 12.6267 9.81595 12.7034C9.70163 12.8184 9.59092 12.4725 9.4748 12.7034C9.58912 12.7034 9.58912 12.8184 9.69983 12.8184C9.58552 13.0492 9.35868 12.7034 9.24436 12.9334C9.24436 13.0483 9.58552 12.8184 9.4694 13.0483H9.35508C9.58012 13.2792 9.58012 13.626 9.24076 13.741C9.36588 13.7256 9.4919 13.7681 9.58192 13.8559H9.35688L9.4712 13.9709C9.4721 14.0334 9.42349 14.085 9.36138 14.0859C9.36048 14.0859 9.35868 14.0859 9.35778 14.0859L9.13275 14.3168L8.67728 14.5476C8.08949 14.3666 7.5179 14.1348 6.96972 13.855" fill="white"/>
<path d="M15.3968 8.19907C15.5111 8.19907 15.6218 8.19907 15.6218 8.31405C15.6218 8.42904 15.5075 8.54492 15.5075 8.77579C15.5075 8.89078 15.3932 8.89078 15.3932 9.00667C15.3932 9.12255 15.2789 9.12165 15.2789 9.23754C15.1646 9.46841 14.9377 9.69928 14.9377 9.93015L15.0521 10.0451C14.9368 10.2642 14.782 10.4598 14.5966 10.6228C14.512 10.86 14.3517 11.0628 14.1411 11.2004C14.0538 11.4068 13.9386 11.6015 13.8 11.778L13.6856 12.1239C13.6856 12.2389 13.5713 12.3547 13.5713 12.4697C13.484 12.6761 13.3688 12.8708 13.2302 13.0464L13.1159 13.3923C13.1159 13.5073 13.0015 13.6232 13.0015 13.7382C13.0778 13.7382 13.1159 13.7765 13.1159 13.8531C13.0015 14.084 12.8908 14.199 12.7747 14.4299C12.6586 14.6607 12.4336 14.8916 12.3192 15.1225C12.3192 15.2375 12.2049 15.2375 12.2049 15.3533C12.2049 15.4692 12.2049 15.4683 12.3192 15.4683C12.2049 15.6992 11.9781 15.8142 11.8638 16.045C11.7495 16.3909 11.5226 16.6218 11.4083 16.9685C11.294 17.3153 11.0671 17.5453 10.9528 17.892C10.7278 18.2379 10.6117 18.4687 10.3839 18.8155C10.2651 18.9432 10.1868 19.1043 10.1589 19.2772L10.0446 19.5081C10.0446 19.6231 9.93028 19.6231 9.93028 19.739C9.70524 20.0848 9.58912 20.3157 9.36139 20.6625C9.13096 20.9431 8.94013 21.2537 8.7925 21.5859C8.56747 21.9318 8.33703 22.1627 8.1093 22.5094C7.99498 22.6244 7.88427 22.8553 7.76815 22.9712C7.65203 23.087 7.54312 23.317 7.427 23.4329C7.03094 23.5732 6.70419 23.863 6.51606 24.2405C6.37654 24.3528 6.29373 24.5221 6.29103 24.7022C6.29103 24.8172 6.17671 24.8172 6.17671 24.9331C6.17671 25.049 6.06239 25.0481 6.06239 25.164C5.70954 25.5406 5.32878 25.891 4.92372 26.2106C4.69868 26.4415 4.46825 26.5564 4.35483 26.7873C4.1298 26.9023 4.01368 27.1332 3.78595 27.2491C4.01098 27.364 3.78595 27.9417 3.56091 28.4043C3.33588 28.867 3.10544 29.3278 3.56091 29.4437C3.10544 29.9054 2.30882 30.4831 2.42224 30.5989C2.52305 30.8959 2.56176 31.2101 2.53656 31.5224C2.51855 31.7886 2.39523 32.0376 2.1945 32.2123C2.01448 32.5536 1.78404 32.8651 1.5113 33.1358C1.05493 33.6012 0.143993 34.0629 0.0296761 34.2938C-0.195358 34.6396 0.940614 34.0629 0.71288 34.4088C1.73723 33.6012 2.64817 32.9076 3.55911 32.0991C4.01458 31.7533 4.47005 31.2916 4.92552 30.9439C5.38099 30.4821 5.83646 30.1363 6.29103 29.6736C7.99858 27.938 9.70614 26.2088 11.4146 24.3609C11.5289 24.2459 11.5289 24.13 11.6396 24.0151C11.7504 23.9001 11.8647 23.6692 11.9808 23.5533C12.0951 23.3224 12.3219 23.0916 12.4363 22.8607L12.7774 22.5149L13.1186 22.169C13.3733 21.882 13.6019 21.5733 13.8018 21.2455C14.0268 20.8997 14.2572 20.6688 14.485 20.322L15.1682 19.2827C15.2825 19.1677 15.2825 19.0518 15.3932 19.0518C15.5075 18.9368 15.5075 18.8209 15.6182 18.8209C15.7326 18.5901 15.8433 18.4751 15.9594 18.2442C16.0755 18.0133 16.1844 17.8983 16.3005 17.6675C16.4149 17.5525 16.4149 17.4366 16.5256 17.4366L16.7506 17.2057C16.8649 16.9749 16.9756 16.8599 17.0918 16.629C17.0155 16.3212 17.0155 16.1289 17.0918 16.0523C17.1035 15.9645 17.144 15.8839 17.2061 15.8214C17.441 15.4602 17.6318 15.0727 17.7759 14.6662C17.8902 14.4353 18.0009 14.3203 18.117 14.0894C18.2331 13.8586 18.3421 13.7436 18.3421 13.5127C18.4564 13.2818 18.5671 13.1669 18.5671 13.051C18.6814 12.936 18.6814 12.7051 18.7921 12.5892C18.9028 12.4733 18.9064 12.2434 19.0172 12.1275C19.1279 12.0116 19.1315 11.7816 19.2422 11.6658C19.3349 11.3878 19.4492 11.118 19.5833 10.8573C19.5833 10.7423 19.6977 10.6264 19.6977 10.5114C19.6977 10.3964 19.812 10.2805 19.812 10.1655C19.8237 10.0777 19.8642 9.99715 19.9263 9.93468C20.0406 9.7038 20.0406 9.58882 20.1513 9.35705C20.2656 9.01119 20.3764 8.8953 20.3764 8.66443C20.3764 8.54945 20.4907 8.43356 20.4907 8.31858V8.08771C20.4907 7.85684 20.605 7.62597 20.605 7.3951C20.605 7.16423 20.7193 6.93336 20.7193 6.70249C20.7193 6.47162 20.8336 6.24075 20.8336 6.00988V3.92299C20.8408 3.72381 20.8021 3.52643 20.7193 3.34626C20.7193 3.23128 20.605 2.99951 20.605 2.88452C20.5609 3.08733 20.4853 3.28289 20.38 3.46125V2.54048C20.38 2.19372 20.38 1.96376 20.2656 1.84787C20.1513 1.15526 19.9245 1.04028 19.8102 1.04028C19.6319 1.25304 19.4798 1.48481 19.3547 1.73289C19.2404 1.96376 19.1297 1.84787 19.0136 1.84787C18.8974 1.84787 18.7885 1.84787 18.6724 2.19463V1.15616C18.5581 1.15616 18.6724 1.50202 18.6724 1.73289C18.6724 1.96376 18.6724 2.30961 18.5581 2.07965V0.692612C18.496 0.755082 18.4564 0.835661 18.4438 0.923482V1.84787C18.4438 1.96285 18.4438 2.07874 18.3294 1.96285V0.923482C18.3294 0.846827 18.2913 0.808499 18.2151 0.808499V1.38522C18.2322 1.22226 18.1917 1.05929 18.1008 0.923482V1.03846C17.9865 0.807594 17.9865 0.692612 17.8758 0.576724C17.7651 0.460836 17.6507 0.576724 17.5346 1.03846V0C17.5346 0.114983 17.5346 0.461741 17.6489 0.576724V0.114983L17.5346 0.229965V0.460836C17.5346 0.575818 17.4203 0.575818 17.4203 0.691706C17.4356 0.818459 17.3942 0.945211 17.306 1.03756C17.306 1.15254 17.1917 1.26843 17.1917 1.38341C17.18 1.47123 17.1395 1.55181 17.0774 1.61428V2.65365C17.0954 2.92798 17.0567 3.20322 16.963 3.46215V3.80891L16.8487 4.27065V4.73239L16.7344 5.07915C16.1988 6.07778 15.7497 7.12168 15.3941 8.19817" fill="white"/>
<path d="M20.7487 25.5216C20.8631 25.4066 20.8631 25.2907 20.9738 25.4066C21.3149 25.6375 21.1988 26.0992 21.5436 26.2142L21.6579 26.0992C21.7659 26.3917 21.9189 26.6642 22.1133 26.9068C22.5589 27.2599 22.9775 27.6456 23.3654 28.0621L23.4798 27.9471C23.7048 28.0621 23.8209 28.2929 24.0495 28.6397C24.1116 28.6388 24.1621 28.6877 24.1639 28.7502C24.1639 28.752 24.1639 28.7538 24.1639 28.7556H24.2782C24.3925 28.8706 24.5032 28.9865 24.5032 29.1014C25.8687 30.0249 27.2351 30.9493 28.7158 31.8728C29.0804 32.0204 29.4252 32.2141 29.7402 32.4495C30.1507 32.8443 30.5314 33.2689 30.8789 33.7198C31.22 33.258 32.3587 33.9506 32.5873 33.3739C32.8124 33.6048 33.1562 34.0665 33.2705 33.9506C33.8025 33.555 34.5154 33.5097 35.0915 33.8356C35.4327 34.0665 35.6604 34.6432 35.7747 34.6432C35.9998 34.6432 35.6604 34.0665 35.9998 34.0665C34.2913 31.9878 32.3569 30.3699 30.4207 28.4079C29.6241 27.9462 25.1846 23.5569 24.1594 22.4035L24.045 22.2885C23.4771 21.585 22.7812 20.9965 21.9954 20.5529L20.9711 20.207C20.9711 20.4379 21.0854 20.5529 21.0854 20.6688C20.8874 20.4433 20.6569 20.2487 20.4022 20.0921C19.719 19.7462 19.8324 20.207 19.719 20.7847C19.719 21.0155 19.3778 21.0155 19.494 21.3614C19.3535 21.2292 19.2374 21.0735 19.1528 20.8997C19.0385 21.0146 19.7226 21.3614 19.3778 21.4764C19.2635 21.2455 19.0367 21.1305 18.9224 21.0146C18.808 21.2455 19.3778 21.5914 19.2635 21.8222C19.1492 21.8222 19.0385 21.1296 18.808 21.3605C18.8684 21.4845 18.944 21.6013 19.0331 21.7063C18.5776 20.7829 18.1221 20.7829 18.3499 21.3605C18.2356 21.2455 18.0087 20.8987 17.8944 20.7838C18.0087 20.8987 18.1194 21.0146 18.1194 21.1296C18.0051 21.0146 17.8944 20.8987 17.8944 20.7838V20.8987C17.9061 20.9866 17.9466 21.0671 18.0087 21.1296L17.7837 20.8987V21.2446C17.898 21.5905 17.898 22.0522 18.0087 22.1681C18.9197 23.3233 19.8297 24.4777 20.7406 25.5171" fill="white"/>
</svg>
