<svg width="59" height="112" viewBox="0 0 59 112" fill="none" xmlns="http://www.w3.org/2000/svg">
<path d="M54.6001 20.1629C53.8361 20.7432 52.8876 21.0597 51.9392 21.0597C51.9392 22.827 55.4695 22.827 54.5738 25.4912C54.0995 25.9923 53.3092 25.9923 52.8349 25.5175C52.8349 25.5175 52.8349 25.5175 52.8086 25.4912L56.339 29.0258C57.103 31.6108 57.3928 34.3277 57.182 37.0182C57.182 37.0182 55.4168 37.0182 56.2862 37.9151C56.2862 39.3131 56.9449 40.6056 58.0514 41.4497L57.1557 42.3465L58.0514 43.2434C57.1293 51.2359 55.3115 60.1252 53.5199 69.0145C52.6242 71.6786 50.8326 73.4723 50.8063 75.2132C51.4386 77.8246 52.6242 80.2514 54.3367 82.3088C48.119 83.2321 46.3275 90.3277 40.1099 91.2509C41.1901 92.2269 41.2691 93.8623 40.2943 94.9438C39.9782 95.2867 39.6093 95.5241 39.1614 95.6824C33.6025 97.1859 29.0183 101.116 26.6998 106.392C26.6998 108.159 30.2302 109.926 29.3344 110.823C27.5429 112.617 24.9083 109.953 23.1168 111.746C18.2955 100.351 14.7652 88.4549 12.6311 76.2683C14.449 70.9664 6.57158 43.4017 3.01489 36.3588C1.09164 32.534 0.4857 28.1553 1.30242 23.9349C2.19818 21.2707 3.9897 19.477 4.01604 17.7361C4.9118 18.633 6.65063 18.5802 8.44215 18.6066C7.57274 17.5778 7.59907 16.0743 8.46848 15.072C10.26 11.511 13.8167 11.511 18.2428 12.3551C20.008 12.3551 23.5383 10.535 24.4604 11.4318C23.8633 10.8339 23.5822 9.95468 23.6174 8.79406C25.3825 8.79406 23.591 12.3287 27.1477 10.5614C26.252 9.66452 27.1477 8.79406 26.3046 7.92359C28.9656 7.02675 28.0698 11.4582 30.7308 10.5614C31.6265 9.66452 27.2004 8.79406 29.8877 7.92359L30.7834 8.82043C30.8098 5.28582 33.4971 2.62166 37.0011 4.3626C35.9209 3.51851 35.2622 2.19962 35.2359 0.827977C35.7101 0.3268 36.5005 0.3268 36.9747 0.8016C36.9747 0.8016 36.9747 0.8016 37.0011 0.827977H40.5314L45.8533 2.54253C48.4879 8.7413 52.0182 14.0696 54.6528 20.2684" fill="#0E336C"/>
</svg>
