<?xml version='1.0' encoding='utf-8'?>
<svg xmlns="http://www.w3.org/2000/svg" width="59" height="113" viewBox="0 0 59 113" fill="none">
<path d="M54.6003 20.6629C53.8363 21.2432 52.8878 21.5597 51.9394 21.5597C51.9394 23.327 55.4697 23.327 54.5739 25.9912C54.0997 26.4924 53.3093 26.4924 52.8351 26.0176C52.8351 26.0176 52.8351 26.0176 52.8088 25.9912L56.3391 29.5258C57.1031 32.1108 57.3929 34.8277 57.1822 37.5183C57.1822 37.5183 55.417 37.5182 56.2864 38.4151C56.2864 39.8131 56.9451 41.1056 58.0516 41.9497L57.1558 42.8466L58.0516 43.7434C57.1295 51.7358 55.3116 60.6252 53.5201 69.5145C52.6243 72.1786 50.8328 73.9723 50.8065 75.7132C51.4388 78.3246 52.6243 80.7514 54.3368 82.8088C48.1192 83.7321 46.3277 90.8277 40.1101 91.7509C41.1902 92.7269 41.2693 94.3623 40.2945 95.4438C39.9783 95.7867 39.6095 96.0241 39.1616 96.1824C33.6026 97.6859 29.0184 101.616 26.7 106.892C26.7 108.659 30.2304 110.426 29.3346 111.323C27.5431 113.117 24.9085 110.453 23.117 112.246C18.2957 100.851 14.7653 88.9549 12.6313 76.7683C14.4492 71.4664 6.57176 43.9017 3.01507 36.8588C1.09182 33.034 0.485865 28.6553 1.30259 24.4349C2.19835 21.7707 3.98987 19.977 4.01621 18.2361C4.91197 19.133 6.6508 19.0802 8.44232 19.1066C7.5729 18.0778 7.59925 16.5743 8.46866 15.572C10.2602 12.011 13.8169 12.011 18.243 12.8551C20.0082 12.8551 23.5385 11.035 24.4606 11.9318C23.8634 11.3339 23.5824 10.4547 23.6175 9.29406C25.3827 9.29406 23.5912 12.8287 27.1479 11.0614C26.2521 10.1645 27.1479 9.29406 26.3048 8.4236C28.9658 7.52675 28.07 11.9582 30.7309 11.0614C31.6267 10.1645 27.2006 9.29406 29.8879 8.4236L30.7836 9.32044C30.81 5.78582 33.4972 3.12166 37.0012 4.86259C35.9211 4.01851 35.2624 2.69962 35.2361 1.32798C35.7103 0.826798 36.5007 0.826802 36.9749 1.3016C36.9749 1.3016 36.9749 1.3016 37.0012 1.32798H40.5316L45.8535 3.04253C48.488 9.2413 52.0184 14.5696 54.653 20.7684" fill="white" />
</svg>