<svg width="58" height="113" viewBox="0 0 58 113" fill="none" xmlns="http://www.w3.org/2000/svg">
<path d="M57.6647 25.5576C56.7521 25.9729 55.7012 26.056 54.7333 25.8068C54.2908 27.6065 57.9136 28.4926 56.3373 30.9846C55.7289 31.3722 54.9268 31.1784 54.5397 30.5969C54.5397 30.5969 54.5397 30.597 54.5397 30.5693L57.2776 35.0549C57.4158 37.8791 57.0563 40.7311 56.1714 43.4169C56.1714 43.4169 54.3461 42.9739 55.0375 44.1091C54.7056 45.5213 55.0375 47.0164 55.9501 48.1517L54.8162 48.8439L55.5076 49.9792C52.6038 57.8982 48.5384 66.5371 44.5007 75.1484C42.9244 77.6404 40.6566 79.0249 40.2141 80.7969C40.2141 83.5935 40.8226 86.3624 42.0394 88.9098C35.4851 88.3006 31.8622 95.1121 25.3079 94.503C26.1652 95.749 25.8333 97.4657 24.5888 98.324C24.2016 98.6009 23.7315 98.7671 23.2614 98.7947C17.2048 98.9332 11.5631 101.813 7.88492 106.631C7.44243 108.43 10.6228 111.116 9.48894 111.809C7.22119 113.193 5.1747 109.815 2.93461 111.199C0.832797 98.3794 0.169053 85.3656 0.998716 72.4072C4.15144 67.4232 2.96225 37.3807 1.08168 29.2956C0.0584278 24.893 0.52858 20.2967 2.40915 16.1987C3.98551 13.7067 6.25325 12.3223 6.69573 10.5502C7.38712 11.6854 9.18474 12.0731 11.01 12.5438C10.3739 11.2978 10.7611 9.74719 11.9226 8.94421C14.6329 5.75998 18.2557 6.61835 22.5423 8.61195C24.3676 9.05498 28.4053 8.08587 29.0967 9.22111C28.6357 8.46428 28.562 7.49516 28.8754 6.31377C30.7007 6.75679 27.9628 9.91333 32.0558 8.9996C31.3644 7.86435 32.4983 7.19981 31.8345 6.09225C34.766 5.84305 32.7472 10.1348 35.7063 9.88564C36.8402 9.19342 32.5259 7.19981 35.4851 6.9783L36.1764 8.11355C37.0891 4.51399 40.463 2.465 43.6434 5.09545C42.7308 3.96021 42.3989 2.46501 42.7308 1.05287C43.3392 0.665228 44.1412 0.859048 44.5284 1.44052C44.5284 1.44052 44.5284 1.44052 44.5284 1.46821L48.1236 2.29889L53.1016 5.40003C54.2631 12.3776 56.5309 18.6907 57.6924 25.6683" fill="#9E172F"/>
</svg>
