<?xml version='1.0' encoding='utf-8'?>
<svg xmlns="http://www.w3.org/2000/svg" width="8" height="41" viewBox="0 0 8 41" fill="none">
<path d="M6.29242 6.01253C6.39899 5.02969 6.66066 4.06703 7.07005 3.16464C7.32076 2.30188 7.50349 1.41954 7.62124 0.528115C7.48198 0.56954 7.37982 0.319512 7.24405 0.359901C7.15701 0.385791 7.28347 0.602064 7.20335 0.711155C6.86397 0.937158 6.44931 1.01314 6.05638 0.921599C5.92519 0.905677 5.90771 1.0814 5.89381 1.19732C5.45041 1.02228 5.14499 1.39923 4.69351 1.28153C4.70495 1.47896 4.6808 1.67751 4.62951 1.86708C4.52479 1.98917 4.40136 2.0922 4.26494 2.17636C3.85364 2.70417 3.44645 3.18718 3.08629 3.66946C3.09362 3.71465 3.09399 3.76191 3.09087 3.8102C3.05676 3.8033 3.02118 3.80441 2.9866 3.80901C2.97792 3.82485 2.96253 3.83701 2.95386 3.85285C2.94591 3.96321 2.96984 4.07925 2.92123 4.14676C2.90111 4.16222 2.85803 4.1504 2.81046 4.13613C2.73125 4.30748 2.6655 4.48619 2.60895 4.66406C2.64904 4.77719 2.70182 4.88843 2.73767 4.99334L2.60648 4.97742C2.50696 5.08471 2.75419 5.23474 2.65591 5.33976C2.61218 5.37172 2.53817 5.33121 2.4585 5.31701C2.38527 5.79163 2.35434 6.26882 2.36697 6.74631C2.36114 6.80489 2.5434 6.94582 2.6617 7.08116C2.72078 7.12232 2.78334 7.16244 2.84838 7.19804L2.85786 7.10617C2.85622 7.14645 2.86726 7.18485 2.88875 7.22014C2.91791 7.2361 2.94505 7.24507 2.97421 7.26103L2.98881 7.12785C2.98493 7.1669 3.01622 7.24285 3.01458 7.28313L3.01682 7.28436C3.06219 7.21213 2.9927 7.0888 3.00047 7.0107C3.19398 7.26955 3.42221 7.18272 3.53564 6.95951C3.53176 6.99856 3.52174 7.07543 3.5673 7.08272C3.78288 7.10954 3.54689 6.88037 3.5941 6.84738C3.7686 6.86937 3.61186 7.08652 3.78124 7.14981C3.78901 7.07172 3.88465 7.00347 3.85135 6.92054C4.07306 6.90954 3.82844 7.11683 3.95963 7.13275C3.9674 7.05465 3.97129 7.0156 3.9813 6.93873C4.09859 7.07057 4.32642 7.02175 4.44636 7.1168C4.73568 7.27516 4.93696 7.45591 5.18033 7.25089C5.27209 7.2217 5.28375 7.10455 5.29765 6.98863C5.36299 7.04498 5.42909 7.11058 5.49172 7.17721C5.63758 7.08645 5.79017 6.99938 5.92109 6.90928C6.13354 6.67557 6.25922 6.37671 6.27886 6.06393L6.29342 6.01602L6.29242 6.01253Z" fill="white" />
<path d="M5.20526 40.6847C5.21123 40.4821 4.76334 39.7987 4.62247 39.2892C4.5628 39.0095 4.5275 38.7225 4.51858 38.4353C4.51535 38.2335 4.53625 38.0303 4.58553 37.8337C4.64065 37.5786 4.78641 37.3496 4.99581 37.1906C5.10809 37.108 4.83487 36.4143 4.65902 35.9475C4.93947 36.0422 4.99024 35.6405 5.03074 35.2098C5.07224 34.7825 5.10571 34.3273 5.34382 34.3076C5.28317 34.1362 5.21279 33.9506 5.13815 33.7568C5.06575 33.5642 4.99831 33.3626 4.92739 33.162C4.78956 32.7748 4.67262 32.3814 4.57309 31.9828C4.56074 31.9202 4.54963 31.8553 4.54076 31.7916C4.53189 31.7279 4.52651 31.6632 4.51888 31.5973C4.50586 31.4666 4.49633 31.3349 4.48804 31.201C4.47245 30.9366 4.46283 30.6666 4.4532 30.3966C4.43192 30.2438 4.40964 30.0875 4.3906 29.9359L4.34168 29.4768L4.24787 28.5725C4.21304 28.274 4.19414 27.9784 4.17749 27.684C4.15742 27.3915 4.13835 27.1025 4.11927 26.8135L4.1191 26.8108C4.11395 26.7404 4.10779 26.6664 4.10612 26.5949L4.09887 26.3792L4.08312 25.95L4.05465 25.102C4.05346 24.822 4.05452 24.5432 4.05557 24.2643C4.05538 23.9878 4.04824 23.7132 4.06298 23.436C4.03521 23.2738 4.00689 23.0965 3.98525 22.8964C4.02702 22.884 4.06254 22.8564 4.08136 22.8167C4.08394 22.7534 4.08552 22.6866 4.0871 22.6198C4.05819 22.4011 4.03601 22.186 4.0166 21.9871C3.9975 21.809 3.98984 21.6313 3.99712 21.4529C4.01162 21.3785 4.05717 21.3858 4.10575 21.4036C4.1095 21.3115 4.10529 21.218 4.11129 21.1272L4.12603 20.85L4.14508 20.2986C4.14883 20.2066 4.1491 20.1155 4.1551 20.0247L4.17658 19.7512C4.18857 19.5695 4.20056 19.3878 4.21032 19.2049C4.18295 19.0047 4.16679 18.8105 4.14839 18.6152C4.12999 18.4198 4.11135 18.2302 4.09844 18.0408C4.14347 18.0331 4.18849 18.0253 4.23228 18.0199C4.2825 17.8003 4.29065 17.5724 4.25153 17.351C4.24691 17.2956 4.23882 17.2411 4.23645 17.1869C4.23183 17.1314 4.22946 17.0772 4.2318 17.0196C4.23526 16.9068 4.25488 16.7911 4.2902 16.684C4.34983 16.5431 4.41329 16.6455 4.49296 16.6596C4.62718 15.7861 4.82066 14.9214 5.06966 14.0724L5.16943 13.7623C5.18648 13.7098 5.20004 13.6584 5.21932 13.6072L5.27369 13.4546L5.3812 13.1517C5.41629 13.0503 5.46035 12.9539 5.49992 12.8549C5.57458 12.6546 5.66595 12.4664 5.75283 12.2757C5.79689 12.1792 5.84643 12.0887 5.8915 11.9957C5.91627 11.9505 5.93656 11.9028 5.96133 11.8575L6.03442 11.724C6.06415 11.6697 6.08591 11.6139 6.0987 11.5533C6.1197 11.4883 6.13768 11.4128 6.15388 11.3246C6.17009 11.2365 6.18954 11.153 6.20947 11.058C6.22939 10.963 6.2548 10.874 6.2837 10.7839C6.28953 10.7254 6.29264 10.6771 6.29375 10.6218C6.29368 10.5953 6.29586 10.57 6.2958 10.5435L6.29188 10.4708C6.27749 10.4864 6.26433 10.4998 6.2487 10.5177L6.20056 10.5737L6.15365 10.6275L6.10652 10.687C6.14522 10.6376 6.17448 10.5947 6.20745 10.5452C6.24043 10.4956 6.26397 10.4526 6.28874 10.4073C6.28442 10.3726 6.27562 10.3354 6.26434 10.3028L6.23803 10.3295L6.20328 10.3664C6.18045 10.3921 6.15661 10.4144 6.13355 10.4459L6.0601 10.5321L5.98641 10.6242C6.04965 10.5352 6.16545 10.3663 6.23241 10.2706L6.23017 10.2693L6.23388 10.2626L6.21848 10.2747C6.21848 10.2747 6.19836 10.2902 6.18993 10.3003C6.16833 10.3237 6.1445 10.346 6.12267 10.3752C6.10084 10.4044 6.07553 10.4347 6.05247 10.4662L6.01849 10.5123L5.98427 10.5642C5.89502 10.7006 5.8145 10.8477 5.73663 10.958C5.87628 10.5698 5.84934 10.4433 5.69291 10.4841C5.57855 10.5333 5.47371 10.6024 5.38533 10.6893C5.32326 10.7494 5.25872 10.8141 5.19022 10.8913C5.12173 10.9685 5.055 11.0585 4.98356 11.1517C5.02173 11.0873 5.08095 10.9845 5.12779 10.9042C5.17238 10.8227 5.20831 10.7571 5.18688 10.7483C5.13383 10.7281 5.08214 10.7586 5.03376 10.8204C4.98244 10.8982 4.93885 10.9831 4.90547 11.0708C4.88518 11.1185 4.86489 11.1662 4.84909 11.2164C4.83329 11.2665 4.81648 11.3132 4.80091 11.3576C4.78216 11.4238 4.75196 11.4897 4.71303 11.5448C4.66646 11.5341 4.67105 11.4777 4.69847 11.3957C4.7128 11.3535 4.73309 11.3058 4.75586 11.2536C4.76376 11.2285 4.77986 11.1991 4.79473 11.1719L4.83932 11.0904C4.90002 10.9795 4.96319 10.8641 5.00725 10.7676C5.05238 10.7012 5.06936 10.6222 5.05996 10.5435C5.01607 10.6078 4.96545 10.6683 4.9146 10.7346C4.8759 10.784 4.83596 10.8356 4.7995 10.8863C4.88291 10.4996 4.82115 10.3834 4.70001 10.4024C4.50635 10.4847 4.31871 10.5878 4.13981 10.7017L3.34586 12.131C2.92947 12.8805 1.75016 13.328 1.51725 13.8187C1.48537 14.0391 1.437 14.6752 1.10271 14.9393C1.17537 15.2581 0.462541 16.4813 0.446894 17.4274C0.431248 18.3735 0.435944 17.5273 0.435944 17.5273C0.420572 17.6512 0.41417 17.7801 0.405291 17.9135L0.378187 18.3251C0.370078 18.4677 0.357249 18.6136 0.348905 18.762C0.340561 18.9104 0.337706 19.0647 0.332608 19.2178C0.328515 19.3744 0.320943 19.532 0.316615 19.6943C0.312287 19.8567 0.303234 20.0223 0.306874 20.1861L0.310131 21.2025C0.308854 21.2901 0.312294 21.3743 0.316741 21.462L0.356652 22.5074C0.358856 22.5939 0.363304 22.6816 0.369994 22.7706L0.40712 23.2938C0.422977 23.4672 0.433112 23.6404 0.446727 23.8126L0.466027 24.0702C0.473955 24.1569 0.484362 24.2391 0.492291 24.3257L0.598517 25.3192C0.627689 25.644 0.676979 25.9533 0.716295 26.2542L0.829158 27.1131C0.845419 27.2484 0.869882 27.3795 0.888855 27.5046L0.946244 27.8683C0.981412 28.1023 1.01504 28.3177 1.0394 28.5075C1.06376 28.6973 1.08658 28.8687 1.10609 29.0087C1.12784 29.1501 1.14032 29.2657 1.146 29.3512C1.5719 31.3049 2.07897 33.1795 2.64322 35.0295L3.08562 36.4098C3.24005 36.8679 3.40965 37.3195 3.57576 37.7722C3.89854 38.6842 4.28298 39.574 4.67068 40.4685C4.68358 40.1521 5.18114 40.995 5.18956 40.6761L5.20526 40.6847Z" fill="white" />
</svg>