<svg width="39" height="30" viewBox="0 0 39 30" fill="none" xmlns="http://www.w3.org/2000/svg">
<path d="M12.6585 22.1279C12.6917 22.14 12.7266 22.1528 12.7534 22.1756L12.7559 22.1747C11.9503 23.1545 11.2026 24.1674 10.5613 25.2143L10.3255 25.6082C10.3114 25.6322 10.2968 25.6561 10.2822 25.6799C10.2567 25.7216 10.2313 25.7632 10.2084 25.8056L10.1 26.0059L9.88264 26.404C9.8377 26.4864 9.79745 26.5694 9.75711 26.6526C9.73242 26.7036 9.7077 26.7546 9.68185 26.8056C9.57863 27.003 9.49126 27.2015 9.40377 27.4003C9.37258 27.4711 9.34138 27.542 9.30945 27.6129C9.27339 27.6947 9.24193 27.7761 9.21049 27.8575C9.18978 27.911 9.16908 27.9646 9.14707 28.0183C9.1378 28.0421 9.12818 28.066 9.11855 28.0898C9.10089 28.1335 9.08324 28.1772 9.06782 28.2209L8.9983 28.4222C8.97788 28.4897 8.93559 28.5654 8.87919 28.6483C8.82766 28.7312 8.76202 28.8213 8.68715 28.9191C8.6203 29.0039 8.55775 29.0908 8.49148 29.183C8.48065 29.198 8.46972 29.2132 8.45866 29.2286C8.37698 29.3402 8.3094 29.448 8.2394 29.5649C8.183 29.6248 8.13341 29.6747 8.07702 29.7274C8.04979 29.7532 8.02159 29.7791 7.99388 29.8031C7.97345 29.8197 7.95382 29.8358 7.93459 29.8515L7.91415 29.8682C7.91558 29.8549 7.91659 29.8424 7.91759 29.8297C7.91898 29.8124 7.92037 29.795 7.9229 29.7753L7.937 29.6732L7.94964 29.5726L7.96812 29.4662C7.95159 29.552 7.93506 29.6282 7.91464 29.7039C7.89179 29.7834 7.87137 29.8486 7.84706 29.9171C7.81408 29.9412 7.78214 29.9569 7.74953 29.9729C7.73743 29.9789 7.72525 29.9849 7.71288 29.9914L7.71677 29.9372L7.72309 29.8682C7.72448 29.8544 7.72567 29.8407 7.72687 29.827C7.72986 29.7926 7.73288 29.7579 7.73913 29.7192L7.75906 29.5616L7.78629 29.3977C7.75177 29.5477 7.68711 29.827 7.64919 29.9895L7.64433 29.9885C7.64336 29.9928 7.64238 29.9971 7.64093 30L7.63947 29.9741L7.63928 29.9707C7.63838 29.9539 7.63759 29.9392 7.6385 29.9195C7.64141 29.873 7.64579 29.8256 7.65162 29.7777C7.66037 29.7264 7.67107 29.6723 7.68225 29.6191L7.69975 29.5391L7.7226 29.4557C7.74846 29.3555 7.77934 29.255 7.80927 29.1576C7.84516 29.0408 7.87968 28.9285 7.90248 28.8266C7.62488 29.3359 7.46396 29.4279 7.357 29.2271C7.30547 29.1265 7.28214 28.9478 7.27873 28.713C7.28165 28.5947 7.29089 28.4629 7.30401 28.3201C7.31772 28.1977 7.34244 28.0672 7.36845 27.9299C7.37288 27.9065 7.37734 27.883 7.3818 27.8592C7.35117 27.9622 7.3045 28.1165 7.25831 28.2425C7.21845 28.3685 7.17761 28.4653 7.14893 28.45C7.07649 28.4121 7.06044 28.3292 7.07746 28.2224C7.09739 28.116 7.15476 27.9857 7.21845 27.8539C7.25102 27.7878 7.28359 27.7222 7.3186 27.6584C7.35422 27.5966 7.38845 27.5362 7.42038 27.4799L7.42264 27.4759C7.48487 27.3628 7.53154 27.2665 7.53591 27.2066C7.48049 27.1702 7.42312 27.2277 7.36235 27.3355C7.33172 27.3892 7.30061 27.4562 7.26852 27.5295C7.25863 27.553 7.24854 27.5774 7.23826 27.6023C7.23237 27.6166 7.22641 27.631 7.22039 27.6455L7.17712 27.7682C7.12024 27.9354 7.0551 28.1074 6.99724 28.2463C6.93939 28.3843 6.87667 28.4873 6.80521 28.5113C6.83195 28.404 6.85188 28.2933 6.86938 28.1807C6.87316 28.1599 6.87693 28.139 6.88071 28.1181C6.89738 28.026 6.91417 27.9332 6.93161 27.841C6.93563 27.8209 6.93953 27.8008 6.94342 27.7807C6.9612 27.6889 6.979 27.5969 7.00891 27.5085C7.04343 27.4011 7.08378 27.2967 7.13434 27.2004C7.03565 27.0044 6.94036 27.2708 6.85431 27.5741C6.84518 27.6114 6.83616 27.6491 6.82719 27.6866C6.76263 27.9568 6.7013 28.2134 6.62873 28.1726C6.75221 27.7361 6.81736 27.5204 6.97002 27.094C6.77652 27.3609 6.6472 27.347 6.52809 27.3029C6.51455 27.298 6.50112 27.2928 6.48772 27.2875C6.38374 27.2467 6.28144 27.2066 6.14062 27.359C6.03145 27.4396 5.92241 27.5327 5.81875 27.6211C5.6422 27.7718 5.48124 27.9091 5.36178 27.9493C5.16926 28.0096 5.0414 27.8051 5.13085 26.9843C5.1187 26.8286 5.17217 26.5684 5.26746 26.2598C5.319 26.1075 5.38025 25.9431 5.44589 25.773C5.45106 25.7595 5.45623 25.746 5.46142 25.7325C5.4889 25.6607 5.51682 25.5877 5.54749 25.5148C5.58542 25.4299 5.62382 25.3442 5.66272 25.2579C5.44832 25.4678 5.23586 25.7337 5.00785 26.0274C5.01952 25.9302 5.03131 25.833 5.0431 25.7359C5.05489 25.6387 5.06668 25.5416 5.07834 25.4443C5.09656 25.3041 5.12033 25.1665 5.1442 25.0282C5.15345 24.9746 5.16272 24.9209 5.17169 24.867L5.22371 24.5776L5.25045 24.4329L5.28253 24.292C5.3258 24.1032 5.37053 23.9154 5.41769 23.728C5.4488 23.6289 5.48089 23.5268 5.51735 23.4238C5.55625 23.3217 5.59611 23.2187 5.63889 23.1138C5.67023 23.0359 5.70263 22.957 5.73605 22.8774C5.52936 22.702 5.31944 22.5716 5.10265 22.6159C5.07531 22.4382 5.05506 22.2421 5.03412 22.0392C4.99063 21.618 4.94416 21.1679 4.82505 20.7938C4.67726 20.4215 4.43661 20.041 4.19498 19.6601C3.88806 18.9291 3.5848 18.2212 3.28803 17.5284C2.84444 16.4928 2.41534 15.4911 2.01015 14.4969C2.00529 14.3671 1.99654 14.2281 1.97223 14.0733C1.93285 14.07 1.86722 14.0638 1.82055 14.0278C1.80939 13.9998 1.79792 13.9713 1.7864 13.9427C1.77784 13.9214 1.76925 13.9001 1.76075 13.8788C1.74633 13.7725 1.73642 13.6671 1.72683 13.5651C1.70538 13.3371 1.68558 13.1266 1.62073 12.9636C1.58573 12.9081 1.52642 12.9191 1.4637 12.9387C1.29403 12.3681 1.1404 11.7941 1.00379 11.2162C1.01536 11.0636 1.03101 10.9121 1.04643 10.7628C1.06341 10.5984 1.08011 10.4367 1.09081 10.279C1.06634 10.2771 1.04179 10.2751 1.01723 10.273C0.979816 10.2699 0.942368 10.2668 0.905098 10.2642C0.815592 10.0762 0.849958 9.8991 0.884313 9.72201C0.918629 9.54513 0.952934 9.3683 0.863774 9.18083C0.811705 9.09832 0.748438 9.11536 0.67681 9.13465C0.646114 9.14292 0.613883 9.1516 0.580339 9.15304L0.579367 9.15256C0.319268 7.68591 0.1389 6.20536 0.00228783 4.72865C-0.0152986 4.61134 0.0711818 4.42726 0.16974 4.21748C0.223758 4.1025 0.281404 3.97979 0.327533 3.85613C0.398999 3.76174 0.479217 3.67406 0.563323 3.59643C0.577908 3.6913 0.592007 3.7857 0.606106 3.88009C0.590062 3.76893 0.5993 3.66064 0.616315 3.55235C0.652778 3.52265 0.689726 3.49486 0.727647 3.46946C0.739025 3.54162 0.7499 3.61402 0.760783 3.68649C0.771291 3.75645 0.781808 3.82647 0.792794 3.89638C0.783258 3.83491 0.784652 3.74423 0.78604 3.65395C0.78727 3.57392 0.788495 3.49421 0.782098 3.43544C0.78299 3.43522 0.78378 3.4348 0.784514 3.43441C0.78538 3.43395 0.78617 3.43353 0.78696 3.43353C0.840538 3.58323 0.838321 3.76808 0.836223 3.94306C0.834856 4.05706 0.833539 4.16686 0.84773 4.26005C1.0456 3.55762 1.41022 3.94908 1.64456 4.6884L1.64333 4.68016C1.62496 4.55654 1.59051 4.32484 1.65136 4.32952C1.84826 4.34628 1.80697 4.58517 1.77165 4.78961C1.75141 4.90672 1.73312 5.01253 1.76269 5.05877C1.88794 5.06918 1.87413 4.88435 1.85929 4.68589C1.84476 4.49147 1.82926 4.28397 1.94258 4.23417C1.95749 4.33097 1.99186 4.42944 2.02624 4.52795C2.07815 4.67666 2.13008 4.82545 2.11517 4.9687C2.29799 5.05104 2.24789 4.85221 2.20022 4.66299C2.16245 4.51309 2.1262 4.36922 2.20851 4.376C2.21254 4.40259 2.21635 4.42772 2.21998 4.45171C2.24969 4.64776 2.26785 4.76759 2.29991 4.98403C2.37211 4.79047 2.5106 4.7873 2.64513 4.78422C2.75338 4.78175 2.85906 4.77933 2.9256 4.67786C2.98726 4.62437 3.04514 4.56732 3.10065 4.51259C3.38485 4.23245 3.60723 4.01323 3.95822 4.64575C4.0997 4.77707 4.15523 5.13969 4.21095 5.50356L4.21151 5.50725C4.28979 5.36686 4.36563 5.20587 4.43904 5.03242C4.47725 5.08644 4.51564 5.1405 4.55403 5.19457C4.76084 5.48581 4.96799 5.77754 5.15127 6.06689C5.5402 6.8201 5.79933 7.92068 5.93789 8.83297C5.94416 8.85974 5.9507 8.8865 5.95731 8.91349C5.963 8.93675 5.96872 8.96017 5.97435 8.9839C6.16687 10.6585 7.52862 17.1403 7.99437 18.0833C8.04978 18.3768 8.10751 18.6687 8.16686 18.9595C8.24759 18.8625 8.32775 18.7669 8.40712 18.6726C8.45911 18.6056 8.51046 18.5386 8.56219 18.471C8.57481 18.4546 8.58745 18.4381 8.60013 18.4215C8.6656 18.3475 8.73545 18.2672 8.81073 18.1806L8.83495 18.1527C8.88694 18.0945 8.94237 18.0351 9.00004 17.9734C9.03675 17.9341 9.07435 17.8939 9.11255 17.8523C9.20936 17.7472 9.3116 17.636 9.41898 17.5191C9.52946 17.3989 9.64539 17.2727 9.76644 17.1413C9.85156 17.0441 9.94477 16.9499 10.0403 16.8534C10.0752 16.8181 10.1104 16.7826 10.1457 16.7465C10.1945 16.6969 10.2439 16.6468 10.2938 16.596C10.3796 16.509 10.4671 16.4201 10.5565 16.3296C10.6478 16.2358 10.7414 16.1404 10.8367 16.0434C10.8874 15.9917 10.9386 15.9395 10.9901 15.8869C11.085 15.7937 11.183 15.7014 11.2822 15.6079C11.3411 15.5525 11.4004 15.4966 11.4598 15.4398C11.5352 15.3686 11.6112 15.2964 11.6879 15.2236C11.7743 15.1416 11.8615 15.0588 11.9498 14.9756C11.9888 14.9389 12.0277 14.902 12.0668 14.8648C12.195 14.7431 12.3247 14.62 12.4617 14.5036C12.6074 14.3757 12.7548 14.2462 12.9035 14.1154C13.1148 13.9297 13.329 13.7415 13.5449 13.552C13.6145 13.4879 13.6872 13.4286 13.7604 13.3689C13.7824 13.3509 13.8044 13.333 13.8264 13.3149C13.9217 13.2377 14.0175 13.1601 14.1128 13.082C14.2295 12.9862 14.3464 12.8906 14.4635 12.7949C14.5385 12.7335 14.6137 12.6721 14.6889 12.6105L14.9781 12.3738C15.0749 12.2938 15.1712 12.2157 15.2713 12.1414C15.4687 11.9915 15.6661 11.841 15.8635 11.6906C16.0608 11.5406 16.2577 11.3906 16.4527 11.2411C16.5105 11.1972 16.5682 11.153 16.6258 11.109C16.6654 11.0787 16.7049 11.0484 16.7444 11.0183C16.8013 10.9764 16.859 10.9357 16.9165 10.8951C16.9581 10.8657 16.9997 10.8363 17.0409 10.8066C17.3165 10.6104 17.5885 10.4164 17.856 10.2256C17.9707 10.1437 18.0846 10.0625 18.1975 9.98195C18.4501 9.79533 18.7049 9.62586 18.9537 9.46043C19.0721 9.38164 19.1892 9.30376 19.304 9.22539C19.4908 9.09933 19.6736 8.97618 19.8516 8.85619C20.0133 8.74722 20.1711 8.64087 20.3245 8.53734C20.428 8.46479 20.5321 8.39926 20.6339 8.33518C20.6895 8.30022 20.7443 8.26569 20.798 8.23069C20.8652 8.18761 20.9313 8.14528 20.9963 8.10367C21.0795 8.05041 21.1608 7.99836 21.24 7.94752C21.5229 7.76544 21.7815 7.59679 22.011 7.4449C22.121 7.37259 22.2238 7.30226 22.3197 7.2366C22.4241 7.1652 22.5204 7.09932 22.609 7.04242C22.7792 6.93126 22.9148 6.83735 23.012 6.76404C25.4997 5.37453 27.9806 4.14074 30.4912 2.99367C30.8067 2.85448 31.1223 2.71541 31.4378 2.57634C31.7533 2.43727 32.0688 2.2982 32.3843 2.15901C32.8875 1.94786 33.3945 1.7481 33.9022 1.54811C34.0362 1.49533 34.1702 1.44254 34.3042 1.38951C35.5857 0.8706 36.9003 0.437456 38.2281 0C38.0643 0.154942 38.3263 0.164099 38.5884 0.173259C38.8508 0.182426 39.1132 0.191597 38.949 0.346898C38.8464 0.443841 38.5115 0.535415 38.1176 0.643158C37.7132 0.753749 37.2465 0.881373 36.9047 1.04932C36.4861 1.29129 36.155 1.52223 35.8954 1.74168C35.6383 1.96783 35.4511 2.18201 35.3184 2.38085C35.0524 2.78046 35.0014 3.124 35.0315 3.41292C35.0512 3.59514 34.1649 3.93274 33.5065 4.18355C33.4655 4.19918 33.4253 4.21448 33.3863 4.22938C33.7573 4.43301 33.3771 4.86424 32.9629 5.3108C32.9451 5.3299 32.9272 5.34903 32.9093 5.36818C32.5103 5.79553 32.1061 6.22836 32.3085 6.48518C32.0644 6.5834 31.8005 6.68402 31.5253 6.78799C31.3144 6.86805 31.1015 6.95626 30.8866 7.0453C30.8211 7.07244 30.7554 7.09966 30.6896 7.12675C30.1271 7.36153 29.5665 7.60685 29.0949 7.8651C29.0842 7.87171 29.0734 7.87832 29.0626 7.88495C28.9957 7.92584 28.9282 7.96718 28.8621 8.01172C28.7867 8.06347 28.7109 8.11713 28.6355 8.17175C28.4843 8.281 28.3341 8.39408 28.1853 8.51051C27.8873 8.74337 27.5922 8.98725 27.2981 9.23114C27.2294 9.27702 27.1606 9.3225 27.092 9.3679C26.9763 9.44436 26.861 9.5206 26.7472 9.59816C26.6858 9.64196 26.6243 9.68564 26.563 9.72927C26.4458 9.8126 26.3289 9.89574 26.2125 9.97908C26.1218 10.0439 26.0312 10.1087 25.9409 10.1733C25.6801 10.3597 25.4208 10.5451 25.1633 10.7294C24.8697 10.9332 24.589 11.1501 24.3108 11.3652C24.2573 11.4065 24.204 11.4478 24.1506 11.4888C23.8631 11.7091 23.5785 11.9286 23.2952 12.1471C23.2518 12.1805 23.2085 12.2139 23.1652 12.2473C23.1374 12.2691 23.1093 12.2905 23.0813 12.3119C23.028 12.3526 22.9747 12.3933 22.9231 12.4366L22.6868 12.6316C22.6062 12.6984 22.5256 12.765 22.445 12.8315C22.3689 12.8942 22.2929 12.9569 22.2172 13.0197C22.0713 13.1403 21.9257 13.2605 21.7805 13.3804C21.6163 13.5159 21.4526 13.6511 21.2891 13.7863C20.9915 14.0499 20.695 14.3124 20.3994 14.574C20.3234 14.6414 20.2472 14.708 20.1712 14.7745C19.9519 14.9663 19.7341 15.1569 19.5272 15.3594C19.3264 15.483 19.112 15.62 18.8787 15.7844C18.8947 15.8227 18.9195 15.8854 18.8869 15.9607C18.8389 16.0063 18.7898 16.0521 18.7403 16.0984C18.7216 16.1158 18.7029 16.1333 18.6842 16.1509C18.4439 16.3118 18.2167 16.4763 18.0033 16.6309C17.9835 16.6452 17.9638 16.6595 17.9442 16.6736C17.7153 16.8413 17.5096 17.0004 17.3565 17.1561C17.2913 17.2405 17.3424 17.2807 17.4085 17.3152C17.3728 17.3484 17.3363 17.381 17.2998 17.4135C17.239 17.4678 17.1781 17.5222 17.1207 17.5797L16.8421 17.8504C16.7483 17.94 16.6546 18.0297 16.5609 18.1194C16.4671 18.2092 16.3734 18.2989 16.2796 18.3885C16.2351 18.4315 16.1902 18.4738 16.1454 18.5161C16.0958 18.5629 16.0462 18.6097 15.9971 18.6573L15.7268 18.9337C15.6536 19.0074 15.5802 19.0812 15.5067 19.155C15.3981 19.2641 15.2893 19.3734 15.1809 19.4828C14.9994 19.603 14.8282 19.7281 14.6585 19.8522C14.6036 19.8923 14.5488 19.9323 14.4939 19.972C14.2698 20.1354 14.0486 20.2969 13.8342 20.4589C13.8421 20.4709 13.85 20.483 13.8579 20.4951C13.8855 20.5374 13.9131 20.5796 13.9407 20.6198C13.7579 20.9078 13.5055 21.088 13.2493 21.27C13.2292 21.2846 13.209 21.299 13.1887 21.3134C13.145 21.3445 13.1013 21.3756 13.0588 21.408C12.9941 21.455 12.9333 21.5048 12.8779 21.5594C12.7656 21.6677 12.6625 21.7899 12.5784 21.9365C12.5139 22.0751 12.5815 22.0998 12.6585 22.1279Z" fill="white"/>
</svg>
