<?xml version="1.0" encoding="UTF-8"?>
<svg id="Livello_2" data-name="Livello 2" xmlns="http://www.w3.org/2000/svg" viewBox="0 0 533.23 783.35">
  <defs>
    <style>
      .cls-1 {
        fill: #fff;
      }

      .cls-2 {
        fill: #010e22;
      }
    </style>
  </defs>
  <g id="Layer_1" data-name="Layer 1">
    <g>
      <path class="cls-1" d="M223.96,781.84c-19.65-.68-39.31-4.88-57.62-11.31-6.46-2.69-12.29-7.01-18.6-9.97-6.6-3.35-13.8-3.06-20.95-3.63-6.69-.43-13.95-1.18-20.73-1.35-15.83-.36-31.24,3.11-46.89,2.54-9.35-.26-19.8-1.9-26.76-1.39-5.01.52-9.6,1.83-14.74,2.64-1.5.25-3,.47-4.31.54-1.42.08-2.55-.02-3.01-.42-.58-.56-.03-1.31.41-1.87,1.43-1.69,4.43-3.75,5.64-5.91,3.91-6.11-8.95-26.47-12.12-32.13-3.48-5.35-3.93-12.5.36-17.51.8-1.17,2.1-2.19,2.2-3.62-.29-2.6-3.69-3.75-5.66-5.93-4.27-4.62,4.18-2.13,5.9-5.03,19.9-37.36,39.9-78.68,60.99-120.45.63-3.5-2.11-6.27-3.48-9.18-2.85-5.53-2.93-10.86-2.46-19.6,2.23-26.42,7.39-46.85,14.25-76.98,6.04-25.57,10.19-61.03,14.59-81.67.36-1,.86-1.58,1.94-2.2,1.73-.99,4.94-2.33,6.83-4.36,3.36-4.05,4.72-10.91,7.12-16.12,10.76-26.75,20.76-51.28,34.03-47.84,4.46,2.86,7.34,7.52,9.53-.21,9.47-29.84,16.29-57.66,32.96-81.7,18.14-27.51,37.71-54.32,62.61-72.62,1.82-1.4,3.84-2.6,5.97-1.47,2.07,1.24,3.53,3.63,5.33,5.25,3.56,3.23,7.83-1.26,11.86-1.44,3.08-.55,5.1-1.81,6.88-4.18,11.93-15.14,27.93-28.78,43.86-41.31C379.27,66.49,440.19,13.23,514.93.38c6.17-1.32,13.06.94,17.72,5.14,2.1,3.04-1.99,6.02-3.75,9.33-1.3,2.06-1.86,4.42-2.03,6.82-2.52,28.24-5.39,68.6-18.82,105.34-11.38,29.35-28.07,63.16-47.06,79.6-.83.85-1.36,1.33-1.69,2.22-.41,1.11.43,2.28,1.34,4.01.78,1.49,1.2,3.03.94,4.75-1.04,8.13-11.21,10.73-11.97,18.67-.49,3.98.7,9.11.5,13.31-.14,3.34-1.32,6.22-2.93,9.18-26.99,47.94-53.08,99-99.83,122.35-.45-.32,1.82-2.36.56-2.02-.1.03-.21.06-.34.12-4.46,1.95-7.56,4.91-6.51,10.37.8,10.03,3.39,20.79-1.22,29.42-13.14,23.33-40.38,36.17-64.83,49.28-1.85,1.05-4.03,1.97-4.95,3.83-2,4.44,5.18,9.94,1.09,13.6-.71.83-.76,1.55-.77,2.87.08,1.82.11,4.45-.65,6.51-15.88,40.95-70.81,48.63-117.59,59.52-7.6,1.99-14.99,4.91-22.46,7.29-4.69,1.34-8.84,3.93-11.98,7.79-29.26,32.71-32.37,77.03-55.13,112.67-1.9,1.37-4.76,1.36-5.96,2.3-1.54,1.23-.67,3.52-.5,5.21.41,2.69-.11,5.05-.5,8.22-1.3,8.67-3.58,18.56-12.45,22.52-3.08,1.74-6.75,3.4-9.4,5.48-5.67,4.63,2.35,7.26,6.69,6.43,25.75-3.27,54.66.1,82.49.5,4.95.15,10.01-.57,14.75-1.69,4.88-1.26,8.7-3.11,14.04-2.97,1.17-.01,2.32-.04,3.5-.08,7.97-.47,16.67-.46,24.68,1.47,12.17,2.56,24.06,4.77,35.45,5.74,3.5.01,6.66,1.22,8.08,4.63,1.02,1.98,1.55,2.74,2.76.91.83-.92,1.49-3.02,2.89-3.12,1.71.89,1.65,5.52,1.78,6.35-.25-1.92-1.46-8.76,2.98-7.38,2.17.62,4.1,2.32,6.4,2.55,2.13.22,5.24-1.04,7.75-.32,1.22.18,2.57.91,3.63.21,1.46-2.12-.65-8.55,3.67-9.84,4.79-1.53,9.79.89,15.05,2.31,4.89,1.62,7.42-.94,9-5.34,3.29-7.17,5.58,7.55,10.58,4.97,2.95-1.65,5.6-4.52,8.42-6.16.46-.25.97-.41,1.47-.23,1.39.41,2.79,3.52,4.77,5.25,2.67,2.47,6.74,3.03,10.15,2.01,2.64-.76,4.92-2.3,7.54-3.07,3.94-1.05,8.92-.78,13.2-.71,5.95.15,11.37,3.05,17.01,4.37,4.31,1.16,9.8,1.13,10.95,6.1.66,2.44.61,6.06,1.78,7.63,2.34,2.76,5.99-1.25,8.88-.87,2.52-.12,4.56,4.31,5.75,3.45,2.22-2.06,1.52-7.41,3.74-9.26.42-.13.87.35,1.37,1.24,1.21,2.36,2.4,5.43,4.57,7.12,3.96,3.3,12.83,5,15.47-.75,1.78-5.77,2.18-6.93,8.31-5.11,2.98.87,6.64,1.67,9.01,2.75,1.9.85,3.62,2.3,5.76,2.3,2.35-.07,4.58-1.8,6.75-2.67,3.55-1.62,7.47-.82,11.41-.46,2.12.24,4.32.09,6.42.45,3.42.58,5.36,3.4,8.36,4.94,4.44,1.78,9.73,2.16,9.2,8.97-.37,4.07-2.39,8.41-5.99,9.27-2.03.61-4.51-.21-6.44.61-2.01.76-2,4.29-2.91,5.22-.75.73-1.65.27-3.1-.08-1.34-.4-3.01-.79-4.74-.75-14.63,1.76-28.31,7.17-40.81,7.63-11.47,1.35-18.22-9.31-30.1-12.61-4.47-1.03-7.76.63-11.88.22-7.41-1.06-14.69-3.02-22.18-3.7-19.25-1.39-36.74,4.31-55.41,4.04-14.16.9-24.26,4.68-35.09,11.12-2.35,1.36-4.79,2.68-7.43,3.27-6.23,1.3-13.42-.97-19.96-1.09h-.2Z"/>
      <g>
        <path class="cls-2" d="M138.15,447.61c.77-1.25,1.09-1.89,0,0h0Z"/>
        <path class="cls-2" d="M502.34,114.28c-.16.43-.25.64-.41,1.06-.16.82-.33,1.58-.54,2.3.35-1.11.63-2.24.95-3.36Z"/>
        <path class="cls-2" d="M421.05,213.63s.07.03.11.04c.26-.08.6-.16-.11-.04Z"/>
        <path class="cls-2" d="M258.99,201.43c.12-.29.24-.57.4-.89-.21.37-.31.64-.4.89Z"/>
        <path class="cls-2" d="M22.57,683.85l.79-1.64c-.34.67-.58,1.18-.79,1.64Z"/>
        <path class="cls-2" d="M274.65,195.7c-.44.77-.94,1.64-1.34,2.35.73-1.2,1.1-1.87,1.34-2.35Z"/>
        <path class="cls-2" d="M67.95,599.35l.19-1.09c-.32.89-.32,1.12-.19,1.09Z"/>
        <path class="cls-2" d="M383.82,330.35c-.12-.02-.43.24-.77.55-.13.17-.23.29-.3.38l1.08-.93Z"/>
        <path class="cls-2" d="M63.38,645.64l1.1-3.23c-.68,1.66-1.13,2.83-1.4,3.59.06-.04.16-.16.3-.36Z"/>
        <path class="cls-2" d="M313.6,387.32c.18-.08.68-.24.71-.29-1.84.42-5.22,1.11-9.8,1.71-4.57.61-10.35,1.05-16.88,1.1l-.8.43c9.07-.09,18.13-.87,26.77-2.95Z"/>
        <path class="cls-2" d="M522.8,17.04c-132.27,18.35-222.11,105.17-263.98,185.25.39-2.17-.63,1.73-1.24,2.23.27-1.17,1.13-4.38.42-2.06-3.23,1.1-.37-5.76-.11-8.92,1.23-6.97,4.9-13.56,7.58-19.96.36-2.39-.16-6.35-.15-8.6-.92-1.78-3.79-.18-5.34.02-57.3,38.69-92.46,99.13-111.75,165.45-12.92-29.15-36.51,42.92-41.19,53.64-5.95,13.94-59.55,204.43-23.94,167.28,62.82-124.92,109.97-206.45,208.86-309.91-30.11,36.82-97.18,133.3-128.45,187.69-52.31,89.28-101.71,181.09-146.81,266.41-.12.37-.91,1.51-1.05,1.84.57.28.83,1.22,1.3,1.59-14.37,2.05,9.19,56.99,7.76,52.29,29.39-9.07,81.4-1.46,115.93-.19,33.65,4.89,66.72,22.94,101.02,15.31,38.27-23.75,83.28-9.95,128.17-3.77,32.65,1.99,48.42,1.72,78.14-2.69.42-.88,8.63-1.39,9.96-2.16-11.27,2.41-18.64,2.3-32.21,2.06-6.1.3-22.02-3.12-20.91-2.03-4.38-.84-10.45-2.55-12.24-.6-1.97.67-15.31-4.44-8.42,0-16.45-3.9-14.8-5.37-31.16-6.65-7.54-2.7,5.86-.2,8.98.33-1.34-1.26-7.25-.14-7.17-2.43-12.9-.09-23.81-7.01-35.67-7.09-1.43-.89-25.52-1.87-20.94-5.53-3.63,2.17-2.88-1.09-6.14-.1-1.87,6.26-9.84-.38-12.56,1.28-7.36-1.25-16.83,2.59-20.16,6.23,0,0-.55-.66-.55-.66-.54,2.52-4.54.21-2.07,1.9-4.61,2.26-3.36-.87-7.32,2.03-.65-1.35-1.77,1.22-2.61,1.87,2.28-3.33,2.08,1.82-.06,1.34-3.86-.03-3.01.9-8.04,2.47.08-.16-1.57.28-.92-1.1-2.36,3.09-4.78.39-8.75,1.5-.33-1.39-7.2,1.68-7.31-.74-25.55-1.06-56.01-10.68-77.79-13.49-31.25-1.12-75.81,1.29-113.62,8.76-17.87,5.44,14.11-50.02,15.34-60.9,3.46-8.6,6.6-15.91,8.52-20.24-4.7,11.76-5.2,13.36-4.39,11.4,18.58-41.58,31.65-86.05,68.83-122.5,58.5-15.48,126.13-19.97,142.84-64.87-52.42.83-31.63,10.92-86.47-1.93-16.43-4.75,9.29-2.96,16.35-3.48,12.08,1.99,83.45-11.26,68.29-9.53-6.28,1.15-23.78,3.24-8.62.83,37.25-14.73,68.25-46.02,81.82-81.25,1.39-6.19,1.59-7.28.18-.05-10.49,26.42,2.76,2.72,1.08-10.54-2.15-5.31-10.23.98-14.51,1.63-13.27,9.52-95.19,1.11-31.93,4.16-33.66-.61-18.81-3.31,4.49-8.75,83.61-11.7,114.76-80.2,154.52-150.19,13.85-21.46-12.14-16.06-25.21-17.14-1.77-.79-9.45,1.02-4.49-.7,67.65-11.23,99.96-132.36,105.87-196.02ZM20.25,703.02s-.04-.04-.06-.06l-.08-.1-.02-.03c-.06-.07-.08-.1-.1-.12.04.05.14.17.26.31ZM22.71,748.48c.06-.18.12-.36.2-.59l.15.42.04.11c-.13.02-.26.03-.39.05ZM256.06,388.42c-.35-.05-.69-.1-1.04-.15l1.88-.57c.53.07,1.06.16,1.58.22-.8.16-1.61.33-2.43.49ZM264.99,386.58c-1.94.41-3.93.83-5.95,1.24-.59-.07-1.18-.15-1.76-.22l4.71-1.42c7.45-1.4,14.88-2.91,22.3-4.53l.13.55c-5.43,1.28-12.06,2.83-19.42,4.38ZM511,30.17l-.18,1.77-.06.54-.23,1.67-.47,3.34c-4.93,35.66-15.75,70.38-32.41,102.14-4.17,7.93-8.71,15.67-13.62,23.16-4.91,7.49-10.18,14.74-15.85,21.64-2.84,3.43-5.78,6.8-8.83,9.95l-1.14,1.17-.56.56c-.06.09-.17.11-.27.14l-1.11.31-6.62,1.87c-14.18,4-28.38,8-42.6,12.01-2.37.81-3.1,1.63-3.94,2.3l-.54.51-.27.25-.2.22-.78.88-1.14,1.43-.91,1.17-.2.26c-.07.08-.09.62,0,1.05.05.21.11.38.16.46.05.06.09.07.13.11l.26.2,1.17.93.72.56c.27.2.44.36.79.59l.96.66,1.27.72c.23.12.56.24.84.37.31.12.52.25.97.35.75.22,1.66.42,3.26.42l8.78.22c5.86.14,11.73.29,17.61.43,4.69.12,9.38.24,14.08.35l4.81.13.77.03.6.03c.09.01.23-.03.26.09,0,.1-.08.19-.12.28l-.57,1.06-3.31,6.25c-1.21,2.24-2.42,4.48-3.64,6.73-4.89,8.96-9.96,17.85-15.2,26.66-5.89,9.74-12.09,19.55-18.65,29.33-6.55,9.78-13.54,19.46-21.06,28.81-3.8,4.63-7.73,9.17-11.88,13.48-4.17,4.25-8.55,8.3-13.2,11.68-1.16.83-2.32,1.7-3.52,2.36l-1.79,1.08c-.59.37-1.2.59-1.8.9l-1.8.87-2.15.85c-1.44.57-2.88,1.14-4.32,1.71-5.82,2.17-11.74,4.25-17.77,6.13-12.05,3.8-24.42,7.13-36.96,10.09-12.54,2.97-25.27,5.62-38.06,7.88l-.6.11-.15.03-.17.03c-.23.04-.45.1-.68.17-.89.25-1.88.78-2.68,1.52-.81.74-1.41,1.66-1.76,2.61-.35.94-.49,1.92-.42,2.88.06.96.33,1.94.84,2.85.5.92,1.26,1.76,2.15,2.35.43.29.9.53,1.36.71.22.08.44.15.66.22.22.06.51.12.45.11l.31.06.62.13,1.24.25c1.66.33,3.31.63,4.97.92,3.32.58,6.64,1.1,9.98,1.55,6.68.92,13.4,1.57,20.18,1.94,6.78.35,13.61.39,20.49-.03,3.44-.22,6.89-.57,10.35-1.05,3.46-.51,6.92-1.18,10.37-2.04.84-.22,2.03-.49,3.57-.95.32-.1.65-.2,1.01-.31.02,0,.04,0,.05,0,.02,0,.05,0,.08,0,.04.02.13-.04.07.09-.02.04-.03.07-.05.1-.09.24.26-.8-.71,1.92-2.9,7.63-8.29,16.26-15.48,24.84-7.19,8.6-16.03,17.24-25.75,25.5-4.86,4.12-9.93,8.18-15.14,12.06-2.6,1.94-5.24,3.85-7.89,5.7l-1.83,1.26s.07,0-.16.04c-1.57.36-3.15.71-4.73,1.05-25.42,5.35-50.63,8.22-70.07,8.06-9.72-.07-18-.81-24.22-1.83-.55-.08-1.1-.15-1.63-.23-.94-.11-2.05,0-3.05.34-1.02.34-1.92.92-2.65,1.63-1.45,1.41-2.24,3.37-2.14,5.43.05,1.03.33,2.04.77,2.89.11.22.22.41.35.6l.19.28.14.19.14.17c.19.22.39.44.58.66.38.42.77.87,1.14,1.23.73.63,1.46,1.29,2.13,1.78.67.46,1.3.9,1.9,1.31,2.37,1.45,4.14,2.26,5.25,2.78-2.08-1.09-4.14-2.2-6.23-3.8-.52-.38-1.03-.76-1.56-1.26-.52-.49-1.03-.9-1.55-1.48l-.77-.89-.38-.45-.19-.23-.09-.11-.18-.25-.23-.36c-.61-1-.98-2.3-.93-3.57.03-1.27.43-2.46,1.1-3.47.66-1.01,1.63-1.85,2.8-2.37,1.16-.53,2.51-.68,3.61-.51l6.04,1.1c1.92.41,3.91.58,5.88.84-1.41-.12-2.81-.24-4.2-.35-1.37-.2-2.72-.39-4.06-.58-.67-.1-1.34-.19-2-.28l-.99-.14-.64-.09c-1.38-.24-3.14.11-4.41,1.03-1.28.9-2.14,2.21-2.46,3.71-.35,1.49-.02,3.23.76,4.44.09.15.19.3.3.44l.07.1.03.04.12.14.25.29.5.57c.68.81,1.36,1.35,2.05,1.94,2.75,2.23,5.44,3.59,8.08,4.83,2.64,1.2,5.23,2.14,7.79,2.99,5.11,1.68,10.07,2.84,14.9,3.8,4.83.96,9.53,1.65,14.14,2.17,9.21,1.04,18.02,1.39,26.66,1.05,4.32-.16,8.6-.55,12.86-1.15,1.07-.17,2.13-.29,3.19-.5l2.81-.53c.39-.08.77-.17,1.14-.28.51-.16,1-.33,1.47-.57.12-.04.23-.17.36-.12.12.08.06.25.07.37-.02.27-.13.52-.24.76-.24.48-.57.91-.94,1.32-.09.11-.19.2-.28.3l-.15.15-.24.23-.54.5c-.52.44-1.05.88-1.58,1.32-4.25,3.53-9.12,6.77-14.38,9.85-5.27,3.08-10.97,5.98-17.09,8.75,1.11-.53,2.18-1.11,3.26-1.67-2,.9-3.8,1.73-6.54,3.01-2.75,1.25-6.47,2.91-12.45,5.17-5.99,2.23-14.26,5.03-26.2,8.09-5.98,1.49-12.86,3.11-20.86,4.61-1.99.41-4.07.74-6.2,1.12-2.14.37-4.34.77-6.62,1.1-2.28.34-4.63.72-7.06,1.06-2.66.36-5.4.72-8.23,1.1-.88.13-1.74.36-2.49.82-.78.45-1.39,1.06-2.07,1.6-.86.71-1.73,1.43-2.61,2.15-1.66,1.49-3.24,3.09-4.91,4.7-1.52,1.69-3.12,3.39-4.66,5.19-1.47,1.83-3.04,3.67-4.51,5.61l-.07-.05c-2.22,3.22-2.2,3.19-6.64,9.63l2.77-3.99c.94-1.32,1.95-2.61,2.91-3.92,1.9-2.63,4.08-5.12,6.15-7.65-3.6,4.68-6.75,9.18-9.85,14.21-.78,1.25-1.58,2.53-2.39,3.85-.78,1.33-1.58,2.7-2.41,4.12-1.71,2.81-3.33,5.9-5.25,9.22-1.63,2.8-2.31,3.7-2.58,3.91-5.89,11.02-11.23,22.26-16.26,33.61-1.71,3.4-3.41,6.81-5.08,10.24-2.08,5.3-2.36,6.86-3.61,10.59-1.26,3.73-3.57,9.59-9.3,23.64,2.41-5.2,1.19-1.64-.42,2.8-1.61,4.44-3.54,9.79-2.71,8.1-.64,1.4-1.96,4.61-3.04,7.19-3.03,8.49-7.25,20.78-10.83,32.02-2.62,8.13-4.9,15.7-6.35,20.81l-.31-2.56c-.39-3.38-.71-6.75-.96-10.11-1.03-4.94-1.92-9.9-2.47-14.8-.27-2.44-.44-4.88-.43-7.21.02-1.16.05-2.31.19-3.35.04-.55.16-1.01.24-1.5.12-.42.22-.9.37-1.2.06-.17.12-.35.2-.43.07-.09.12-.26.17-.25,0,0,0,0,.01,0,.03.03.04.04.03.02l.03-.02.11-.1.43-.42c.27-.28.56-.6.79-.88l.35-.48.7-.95,1.16-1.71c1.45-2.23,2.83-4.43,4.18-6.63,2.71-4.4,5.35-8.8,7.98-13.2,12.95-24.53,25.76-49.04,38.81-73.45,13.03-24.41,26.23-48.73,39.67-72.91,21.93-38.33,44.44-76.31,67.83-113.7,14.02-22.88,28.35-45.56,43.19-67.88,14.82-22.33,30.13-44.33,46.16-65.73,16.03-21.4,32.81-42.23,50.91-61.69,9.07-9.7,18.44-19.1,28.39-27.71l3.75-3.2.94-.8.47-.4.12-.1.31-.27c.17-.16.33-.32.49-.49.64-.71,1.24-1.72,1.53-2.85.29-1.13.28-2.32.03-3.33-.25-1.03-.7-1.9-1.29-2.67-.61-.76-1.34-1.41-2.3-1.9-.93-.49-2.1-.78-3.25-.75-.56.01-1.17.1-1.66.24-.52.14-1.02.34-1.4.55-.2.11-.4.22-.6.35l-.15.1-.13.09-.52.37-8.33,5.97-4.17,2.98c-1.39.99-2.7,2.08-4.06,3.12l-8.06,6.3-2.24,1.88-2.17,1.96-4.33,3.92-4.33,3.91-2.16,1.96-2.09,2.03c-3.02,2.63-6.1,5.3-9.22,8.02-1.58,1.35-3.1,2.77-4.62,4.21-1.53,1.44-3.07,2.89-4.62,4.34-3.1,2.92-6.25,5.86-9.29,8.99-3.06,3.1-6.16,6.23-9.28,9.39-12.24,12.88-24.39,26.7-36.18,41-11.7,14.37-23.06,29.19-33.92,43.95-10.82,14.79-21.1,29.55-30.83,43.7l-.19,1.58c-10.59,16.18-10.14,14.91-12.84,18.86-18.22,28.64-35.36,58.16-51.54,88.18-6.17,11.48-12.2,23.03-18.05,34.67,5.17-31.97,11.56-63.59,19.8-94.25,4.34-15.87,9.12-31.52,14.88-46.6,1.39-3.79,2.96-7.49,4.47-11.2,1.61-3.66,3.17-7.34,4.93-10.9.85-1.8,1.7-3.59,2.63-5.32.93-1.74,1.79-3.52,2.76-5.22l1.61-2.8.66-1.04c.29-.45.62-.87.92-1.3.08-.13.29-.02.26.12l.04.4.09.8c.26,2.33.51,4.64.77,6.96.58,5.16,1.16,10.3,1.73,15.42l.43,3.84.11.96c.1,1.08.68,2.66,1.82,3.74,1.13,1.1,2.56,1.65,3.88,1.73,1.33.09,2.7-.22,3.96-1.08,1.27-.84,2.21-2.34,2.49-3.68.07-.31.12-.63.14-.95v-.2s.03-.23.03-.23l.03-.47c.17-2.48.38-4.96.65-7.44,2.15-19.83,7.06-39.13,13.71-57.33,1.37-3.55,3.52-8.88,6.15-15.01,2.72-6.09,5.91-12.97,9.44-19.57,6.93-13.28,15.08-25.39,18.65-30.18,7.29-10.93,15.48-21.52,24.41-31.62,2.28-2.48,4.49-5.03,6.83-7.48,2.36-2.42,4.68-4.89,7.09-7.28l3.66-3.54,1.49-1.45.3-.3,1.22-1.15,1.26-1.1c.11-.09.21-.19.32-.27.06-.04.15,0,.16.07.01.07-.04.12-.07.18-.12.23-.26.46-.38.7-.24.48-.45.98-.63,1.5-.09.26-.18.52-.24.79l-.11.4-.28,1.34c-.18.86-.36,1.73-.48,2.6l-.2,1.31c-.1.7-.23,1.43-.29,2.17-.13,1.46-.2,2.91-.3,4.36l-.14,2.18c-.02.71.01,1.37.02,2.06.03,1.35.02,2.76.09,4.07l.34,3.77c.04.65.15,1.2.23,1.78l.27,1.72c.15,1.22.44,2.13.69,3.12l.19.73c.07.22.11.54.22.66l.57.98c.19.3.37.71.58.92l.62.7.31.34.31.27c.21.17.42.37.63.53l.63.43c.16.13.76.33,1.2.36.46.04.46-.06.64-.1l.44-.16c.29-.1.74-.29,1.1-.43l.58-.23.81-.49,1.62-.98-1.35.97,1.05-.64.52-.32c.22-.33.45-.73.67-1.1l2.69-4.47.67-1.12c.22-.37.45-.85.68-1.27l1.36-2.59,2.71-5.18c.91-1.7,1.83-3.35,2.77-4.99l1.5-2.64,3.09-5.24c.58-.85.71-.92.36-.22,3.46-5.92,7.63-12.58,12.43-19.53,1.19-1.75,2.46-3.47,3.73-5.25,1.26-1.78,2.56-3.57,3.92-5.34,1.35-1.78,2.72-3.58,4.1-5.39,1.42-1.78,2.86-3.57,4.3-5.37,11.58-14.38,24.95-28.24,37.28-39.61l-1.37,1.4c13.58-12.81,28-24.53,43.2-34.93,15.2-10.4,31.15-19.48,47.7-27.09,16.54-7.62,33.67-13.75,51.13-18.42,2.18-.58,4.35-1.23,6.54-1.76l6.61-1.47,6.61-1.48,1.65-.37,1.67-.29,3.33-.57,2.55-.44.43-.08c.24.03.76-.42.54.46ZM251.69,390.45c-.55.16-1.45.39-2.8.7.93-.23,1.86-.47,2.8-.7ZM241.74,384.98h0c.1-.5.14-.65,0,0ZM241.64,391.42s0,.03,0,0h0s0,0,0,0ZM241.09,388.06s0,0,0,0c.01-.07.1-.48.21-1.01-.05.26-.11.53-.16.79l-.04.2h0s0,.01,0,.02ZM241.04,388.18s0,0,0,0c0,0,0,0,0,.01,0,0,.01,0,.02-.01,0,0,0,0,0,0,0,0-.03.01-.03.01,0,0,0-.01.01-.02ZM241.03,388.14s0,0,0,0c0,0,0,0,0,.02,0,0,0,0,0,0,0,0,0,0,0,0,0-.01-.01-.02-.01-.03ZM241.05,388.16s0,0,0,0c0,0,0,0,0,0h0s0,0,0,0Z"/>
        <path class="cls-2" d="M129.92,486.78c.26-.46.51-.92.77-1.37-.4.68-.64,1.12-.77,1.37Z"/>
        <path class="cls-2" d="M81.22,595.88l.39-.73c-.28-.11-.77,1.04-.39.73Z"/>
        <path class="cls-2" d="M267.95,470.16c-.39.28-.77.55-1.14.81l4.51-2.77-3.37,1.96Z"/>
        <path class="cls-2" d="M217.79,528.74c5.85-2.65,8.82-4.28,10.16-5.02,1.35-.74,1.05-.64.23-.27-2.06,1.09-3.99,2.11-5.75,2.97-1.75.9-3.32,1.67-4.63,2.31Z"/>
        <path class="cls-2" d="M40.55,691.73c-2.29,6.28-1.26,3.94.26.32,2.28-6.42,3.93-10.86,3.93-10.86-1.38,3.48-2.82,6.95-4.19,10.54Z"/>
        <path class="cls-2" d="M53.89,667.68l-.53,2.02c1.37-3.67,1.23-3.56.53-2.02Z"/>
        <path class="cls-2" d="M151.67,739.92c-.19-.06-.29-.01,0,0h0Z"/>
        <path class="cls-2" d="M291.91,735.71c.06.01.09,0,.14.02.13-.17.24-.33.35-.44l-.49.42Z"/>
        <path class="cls-2" d="M315.17,740.46c.05.03.09.05.13.07,0-.11.05-.21-.13-.07Z"/>
        <path class="cls-2" d="M238.75,751.81c.09-.07.19-.13.32-.18-.18.03-.27.1-.32.18Z"/>
        <path class="cls-2" d="M108,738.37s.06,0,.1-.01c-.08-.02-.17-.04-.25-.07l.15.09Z"/>
        <path class="cls-2" d="M108.65,738.18s-.07-.04-.17-.05c.04.02.1.04.17.05Z"/>
        <path class="cls-2" d="M108.65,738.18c.09.07-.37.15-.55.18.57.17,1.15.17,1.74.07,0-.18-.79-.16-1.19-.24Z"/>
        <path class="cls-2" d="M244.95,765.79c-.12.06-.26.11-.37.17.2-.04.3-.1.37-.17Z"/>
        <path class="cls-2" d="M42.45,745.23l.12-.13c-.11.06-.14.1-.12.13Z"/>
        <path class="cls-2" d="M336.49,744.66c-.01.12.02.23.06.33.03,0,.05.01.06.01l-.12-.34Z"/>
        <path class="cls-2" d="M443.78,759.57l-.43.09c.23-.03.39-.05.49-.07,0,0-.03-.02-.06-.02Z"/>
        <path class="cls-2" d="M365.33,751.72s.11-.06.12-.1c-.48-.2-1.79-.45-3.47-.74l-.17.41,3.52.43Z"/>
        <path class="cls-2" d="M354.81,748.46l.32-.08c-.14.02-.24.04-.32.08Z"/>
        <path class="cls-2" d="M58.73,742.67c.07-.01.14-.03.22-.04-.12.01-.19.03-.22.04Z"/>
        <path class="cls-2" d="M437.19,761.71l-.11.02c.01.09.16.03.11-.02Z"/>
        <path class="cls-2" d="M381.19,755.12c.06.01.12.02.17.03l-.61-.47.44.44Z"/>
        <path class="cls-2" d="M416.89,758.72c-1.61-.12-1.68-.08-1.46,0,.58.03,1.09.04,1.46,0Z"/>
        <path class="cls-2" d="M450.35,759.4c.84-.18.52-.13.02-.05-.86.18-1.45.3-1.45.3.46-.08.95-.17,1.43-.25Z"/>
        <path class="cls-2" d="M446.84,759.39l.26-.07c-.5.05-.48.07-.26.07Z"/>
      </g>
    </g>
  </g>
</svg>