<svg width="30" height="30" viewBox="0 0 30 30" fill="none" xmlns="http://www.w3.org/2000/svg">
<path d="M7.97892 21.1209C8.03434 21.1979 7.98594 21.3346 8.16187 21.2788C8.29309 21.226 8.40051 21.1528 8.50043 21.0749C8.54973 21.033 8.59284 20.9923 8.64085 20.9443C8.68885 20.8962 8.72446 20.8508 8.77246 20.8028C8.94588 20.6146 9.1144 20.4337 9.37425 20.316C9.41306 20.3458 9.45937 20.3804 9.49948 20.4163C9.6546 20.2636 9.80712 20.0987 9.96714 19.9386C10.1259 19.7725 10.2797 19.6137 10.4371 19.4415C10.6098 19.3104 10.7777 19.1866 10.9442 19.0568L11.2021 18.8699C11.286 18.808 11.3673 18.734 11.4513 18.6721C11.6165 18.5363 11.783 18.4065 11.9495 18.2766L12.2 18.085C12.2839 18.0231 12.3652 17.9491 12.4416 17.8824C12.467 17.9404 12.496 17.985 12.5701 17.9378C12.7157 17.8313 12.8647 17.6799 13.0309 17.5185C13.1958 17.3511 13.3643 17.1702 13.5365 16.9759C13.5969 16.9253 13.6524 16.882 13.7128 16.8314C13.781 16.8171 13.8309 16.8383 13.8609 16.8573C14.0183 16.6851 14.1535 16.5302 14.2764 16.3779C14.5255 16.1802 14.7658 15.9716 15.0111 15.7557C15.2576 15.5459 15.5041 15.336 15.7507 15.1262C15.9884 14.9055 16.2323 14.6835 16.4688 14.4568C16.5945 14.3482 16.7189 14.2335 16.8371 14.1202L17.0206 13.9488C17.0859 13.8908 17.1438 13.8281 17.2029 13.7714C17.4442 13.5373 17.6842 13.2972 17.9243 13.0571C18.1718 12.8217 18.418 12.5802 18.6542 12.3219C18.8916 12.0697 19.1352 11.8161 19.3775 11.5565C19.4919 11.425 19.6199 11.2969 19.7404 11.1641C19.8609 11.0313 19.9752 10.8998 20.1006 10.7596C20.3273 10.5476 20.5601 10.3342 20.7805 10.1235C20.8938 10.0175 20.9996 9.90675 21.1055 9.79599C21.1584 9.74061 21.2113 9.68522 21.258 9.63114C21.3109 9.57576 21.3563 9.51562 21.403 9.46154C21.6581 9.11066 21.9175 8.68928 22.1695 8.26313C22.2979 8.04638 22.4214 7.83699 22.5325 7.63019C22.6436 7.4234 22.756 7.22266 22.8586 7.03663C23.0618 7.2282 23.4862 6.91146 23.8911 6.62413C24.3022 6.3355 24.6936 6.07629 24.8259 6.3903C25.0994 5.8837 25.5059 5.12141 25.6628 5.15814C25.9007 5.20955 26.184 5.20083 26.5427 5.03074C26.7183 4.94331 26.911 4.81436 27.1242 4.63046C27.3312 4.44787 27.5576 4.20427 27.7957 3.89493C28.1338 3.38744 28.3923 2.47898 28.5748 2.33316C28.8622 2.1021 28.5021 3.17106 28.7894 2.94C28.3008 3.95363 27.8109 4.9612 27.2547 5.93202C26.9773 6.42046 26.7123 6.9063 26.4323 7.38263C26.1399 7.86155 25.8474 8.34048 25.5537 8.81335C24.3589 10.7027 23.0992 12.5613 21.7015 14.4109C21.6326 14.4823 21.544 14.5831 21.4333 14.7012C21.3301 14.8241 21.1936 14.9729 21.0411 15.1378C20.8961 15.3074 20.7288 15.4943 20.5469 15.7033C20.4597 15.8101 20.3663 15.9183 20.2729 16.0265C20.1733 16.1359 20.0825 16.2562 19.9718 16.3743C19.7565 16.6093 19.539 16.8637 19.3029 17.122C19.0668 17.3803 18.8345 17.6567 18.5638 17.9349C18.3117 18.2093 18.0409 18.4875 17.7728 18.7778C17.7039 18.8492 17.6425 18.9253 17.5661 18.992C17.4972 19.0633 17.4282 19.1347 17.3593 19.2061C17.2153 19.3502 17.07 19.4882 16.9322 19.631C16.7882 19.7751 16.6428 19.9131 16.5001 20.0633C16.4312 20.1347 16.3548 20.2013 16.2797 20.274L16.0518 20.4799C15.9064 20.618 15.7549 20.7573 15.6034 20.8966C15.5283 20.9693 15.4581 21.0346 15.3817 21.1013C15.3115 21.1666 15.2364 21.2393 15.1599 21.3059C14.8605 21.5712 14.5585 21.8243 14.2688 22.0748C14.1271 22.1995 13.9779 22.3193 13.8287 22.4392C13.6794 22.559 13.5351 22.6715 13.397 22.7827C13.2589 22.8939 13.1221 23.0112 12.9826 23.1164C12.8432 23.2215 12.71 23.3254 12.5742 23.4171C12.4397 23.5149 12.3113 23.6114 12.1892 23.7066C12.0658 23.7957 11.9437 23.8909 11.8252 23.9727C11.5894 24.1423 11.3684 24.2899 11.1709 24.4262C11.0758 24.4967 10.9795 24.5612 10.8943 24.617C10.8029 24.6742 10.7239 24.7287 10.6498 24.7758C10.5757 24.823 10.5003 24.8641 10.4248 24.9052C10.2593 25.0095 10.0876 25.1151 9.91586 25.2207C9.73663 25.3216 9.5512 25.4237 9.36577 25.5258C9.27306 25.5769 9.17904 25.6219 9.08142 25.6803L8.9417 25.7539L8.79448 25.8227C8.60644 25.9127 8.40601 26.0053 8.21048 26.0906C8.01624 26.1819 7.81811 26.2551 7.61997 26.3282C7.42804 26.4001 7.2299 26.4733 7.04156 26.5317C6.84703 26.5914 6.66359 26.6425 6.48016 26.6936C6.38714 26.7131 6.30163 26.7374 6.20991 26.7629C6.12309 26.7811 6.03627 26.7993 5.94946 26.8175C5.79183 26.8378 5.63419 26.8582 5.47526 26.8725L5.35484 26.8851L5.22691 26.8929L4.98346 26.906C4.82323 26.9142 4.663 26.9225 4.49526 26.926C4.33243 26.9221 4.17089 26.9243 4.00936 26.9266C4.28 26.7686 4.51604 26.6305 4.70967 26.4761C4.63656 26.4977 4.55724 26.5207 4.48413 26.5423C4.40971 26.5579 4.3366 26.5795 4.26349 26.6012C4.11466 26.6324 3.97333 26.6683 3.8431 26.6956C3.58135 26.7441 3.35781 26.7593 3.22958 26.7356C2.54233 26.734 2.38579 26.6086 2.45769 26.4606C2.5296 26.3127 2.80974 26.1084 3.02267 25.893C3.18069 25.7839 3.13377 25.6862 3.11166 25.5832C3.08465 25.4876 3.08864 25.3856 3.32598 25.2536C2.96011 25.3302 2.77407 25.3692 2.403 25.4216C2.37499 25.3516 2.66184 25.3294 2.9213 25.3004C3.17815 25.2592 3.40759 25.2112 3.25625 25.11C3.17204 25.1403 3.08652 25.1645 2.9922 25.178C2.89918 25.1974 2.80356 25.2048 2.70794 25.2122C2.61232 25.2196 2.51671 25.227 2.41978 25.2283C2.32907 25.2283 2.23345 25.2357 2.13913 25.2491C2.17213 25.1916 2.26125 25.1539 2.37777 25.1232C2.49919 25.0851 2.64802 25.0539 2.79065 25.024L2.89607 25.0019C2.92707 24.9954 2.96428 24.9876 3.00149 24.9798C3.0622 24.9608 3.12291 24.9417 3.17122 24.9253C3.26654 24.8863 3.31584 24.8444 3.29303 24.7985C3.24082 24.7968 3.16281 24.8258 3.05999 24.86C3.00548 24.8777 2.95227 24.9016 2.89906 24.9254C2.83965 24.9505 2.78384 24.9622 2.73063 24.986C2.61541 25.0228 2.50019 25.0596 2.40947 25.0596C2.32005 25.0657 2.25644 25.041 2.23103 24.9831C2.22582 24.9588 2.29894 24.9372 2.41186 24.9199C2.52348 24.8965 2.6537 24.8692 2.74052 24.851C2.60019 24.8614 2.47227 24.8692 2.35544 24.8684C2.23862 24.8676 2.12669 24.8594 2.02847 24.8546C1.83433 24.8257 1.6911 24.7924 1.61478 24.7388C1.45723 24.6389 1.55424 24.5174 1.99622 24.3425C1.83729 24.3568 1.64635 24.4031 1.45772 24.43L1.3895 24.4443L1.31869 24.4465C1.27528 24.4556 1.22307 24.4539 1.18456 24.4556C1.14475 24.4513 1.10004 24.4543 1.06774 24.4548C1.04913 24.4587 1.03413 24.4491 1.02173 24.4517L1.00312 24.4556L1.00052 24.4435C1.14575 24.4258 1.3804 24.4019 1.51453 24.3928L1.3729 24.3972L1.23747 24.4002C1.19146 24.3972 1.15295 24.3989 1.11444 24.4007L1.05603 24.4003L1.01002 24.3972C1.01002 24.3972 1.05412 24.3311 1.08613 24.299C1.14194 24.2873 1.19775 24.2756 1.26596 24.2614C1.32798 24.2484 1.39879 24.2462 1.4696 24.244L1.38019 24.2501L1.29567 24.2488L1.21245 24.2536C1.21245 24.2536 1.16024 24.2519 1.13413 24.251C1.15014 24.235 1.17724 24.2103 1.19944 24.193C1.22035 24.1697 1.24875 24.1511 1.26475 24.135C1.31406 24.0931 1.35847 24.0585 1.41527 24.0212C1.52169 23.9736 1.61701 23.9347 1.71463 23.8763C1.81354 23.8239 1.90756 23.7789 1.99897 23.7218C2.08549 23.672 2.1671 23.6296 2.23761 23.5958C2.31433 23.5608 2.37994 23.5344 2.43575 23.5227L2.60938 23.4863C2.67139 23.4733 2.72721 23.4616 2.78792 23.4425C2.90444 23.4118 3.02096 23.3811 3.13748 23.3503C3.37543 23.2815 3.60097 23.2152 3.84251 23.133C3.96264 23.0888 4.07786 23.052 4.19178 23.0092L4.54464 22.872L4.72547 22.8088C4.78488 22.7837 4.84429 22.7586 4.8975 22.7348L5.24777 22.5854C6.17713 22.1756 7.08698 21.6748 7.97402 21.1283" fill="#010E22"/>
</svg>
