<?xml version='1.0' encoding='utf-8'?>
<svg xmlns="http://www.w3.org/2000/svg" width="25" height="39" viewBox="0 0 25 39" fill="none">
<path d="M14.0577 8.29219C14.1295 8.38386 14.2111 8.39377 14.1196 8.46314C13.9266 8.68611 13.6098 8.56224 13.496 8.80008L13.5678 8.89174C13.35 8.94377 13.1446 9.02801 12.9541 9.14693C12.6646 9.43432 12.3528 9.69941 12.0237 9.93973L12.0954 10.0314C11.994 10.1825 11.8208 10.2445 11.5535 10.3782C11.5486 10.4228 11.509 10.4551 11.4644 10.4501C11.4644 10.4501 11.462 10.4501 11.4595 10.4501L11.4496 10.5319C11.358 10.6037 11.2665 10.6731 11.1848 10.6632C10.4103 11.5575 9.6333 12.4519 8.84888 13.4281C8.71278 13.6758 8.54452 13.9037 8.34903 14.1094C8.03229 14.367 7.69823 14.6024 7.34685 14.8105C7.64379 15.0954 7.05238 15.8461 7.44336 16.0616C7.26024 16.2029 6.90144 16.4085 6.9732 16.5002C7.20828 16.9139 7.17611 17.4268 6.89401 17.8108C6.701 18.0337 6.27044 18.1477 6.26054 18.227C6.24074 18.388 6.67873 18.1973 6.64904 18.4376C8.27232 17.3995 9.59123 16.1583 11.1527 14.9492C11.551 14.4215 15.0525 11.6343 15.9631 11.0026L16.0547 10.9307C16.604 10.5864 17.0816 10.1404 17.4651 9.62013L17.8017 8.919C17.6383 8.89918 17.5468 8.97102 17.4651 8.96111C17.6433 8.83972 17.8017 8.69107 17.9353 8.5226C18.2421 8.06426 17.9031 8.10637 17.5047 7.97507C17.3414 7.95525 17.3711 7.70997 17.1162 7.76448C17.2226 7.67529 17.3439 7.60592 17.4726 7.56132C17.4008 7.46966 17.094 7.92799 17.0445 7.67033C17.2177 7.6084 17.3191 7.45727 17.4132 7.38542C17.2597 7.28384 16.9628 7.66042 16.8094 7.55885C16.8193 7.47709 17.3191 7.45975 17.1781 7.27393C17.0841 7.30614 16.995 7.35074 16.9133 7.40524C17.6087 7.15997 17.6482 6.83541 17.2202 6.9469C17.3117 6.87505 17.5765 6.74375 17.6705 6.6719C17.579 6.74375 17.4874 6.81312 17.4057 6.80321C17.4973 6.73136 17.5889 6.66199 17.6705 6.6719L17.5889 6.66199C17.527 6.66199 17.4651 6.68429 17.4156 6.72393L17.5988 6.58271L17.3538 6.55298C17.0989 6.60501 16.7698 6.56289 16.6782 6.63226C15.78 7.18227 14.8793 7.72979 14.0627 8.28971" fill="white" />
<path d="M10.2692 22.0423C10.1975 22.134 10.1158 22.1439 10.2074 22.2133C10.4004 22.4363 10.7171 22.3124 10.8309 22.5502L10.7592 22.6419C10.9769 22.6939 11.1823 22.7782 11.3729 22.8971C11.6624 23.1845 11.9742 23.4496 12.3033 23.6899L12.2315 23.7816C12.333 23.9327 12.5062 23.9946 12.7734 24.1284C12.7784 24.173 12.818 24.2052 12.8625 24.2003C12.8625 24.2003 12.865 24.2003 12.8675 24.2003L12.8774 24.282C12.9689 24.3539 13.0605 24.4232 13.1421 24.4133C13.9167 25.3077 14.6937 26.2021 15.4781 27.1782C15.6142 27.426 15.7824 27.6539 15.9779 27.8595C16.2947 28.1172 16.6287 28.3526 16.9801 28.5607C16.6832 28.8456 17.2746 29.5963 16.8836 29.8118C17.0667 29.953 17.4255 30.1587 17.3538 30.2503C17.1187 30.6641 17.1508 31.1769 17.4329 31.5609C17.6259 31.7839 18.0565 31.8979 18.0664 31.9771C18.0862 32.1382 17.6482 31.9474 17.6779 32.1877C16.0546 31.1497 14.7357 29.9084 13.1743 28.6994C12.7759 28.1717 9.27447 25.3845 8.36385 24.7527L8.27229 24.6809C7.72295 24.3365 7.24537 23.8906 6.86182 23.3703L6.52529 22.6692C6.68861 22.6493 6.78016 22.7212 6.86182 22.7113C6.68366 22.5899 6.52529 22.4412 6.39166 22.2728C6.08483 21.8144 6.42383 21.8565 6.82223 21.7252C6.98555 21.7054 6.95585 21.4601 7.21073 21.5146C7.10432 21.4254 6.98307 21.3561 6.8544 21.3115C6.92616 21.2198 7.233 21.6781 7.28249 21.4205C7.10927 21.3585 7.00782 21.2074 6.91379 21.1356C7.06721 21.034 7.36415 21.4106 7.51757 21.309C7.50767 21.2272 7.00782 21.2099 7.14887 21.0241C7.2429 21.0563 7.33198 21.1009 7.41364 21.1554C6.7183 20.9101 6.67871 20.5856 7.1068 20.6971C7.01524 20.6252 6.75047 20.4939 6.65644 20.4221C6.74799 20.4939 6.83955 20.5633 6.92121 20.5534C6.82965 20.4815 6.7381 20.4121 6.65644 20.4221L6.7381 20.4121C6.79996 20.4121 6.86182 20.4344 6.91131 20.4741L6.7282 20.3329L6.97318 20.3031C7.22805 20.3552 7.55716 20.313 7.64872 20.3824C8.54696 20.9324 9.44769 21.4799 10.2643 22.0399" fill="white" />
<path d="M5.03811 15.5686C4.96635 15.6231 4.87726 15.6528 4.78818 15.6528C4.78818 15.8188 5.11976 15.8188 5.03563 16.0691C4.99109 16.1161 4.91685 16.1161 4.87231 16.0715C4.87231 16.0715 4.87231 16.0715 4.86984 16.0691L5.20142 16.4011C5.27318 16.6439 5.3004 16.899 5.28061 17.1517C5.28061 17.1517 5.11482 17.1517 5.19647 17.236C5.19647 17.3673 5.25834 17.4887 5.36227 17.568L5.27813 17.6522L5.36227 17.7364C5.27566 18.4871 5.10492 19.322 4.93665 20.157C4.85252 20.4072 4.68425 20.5757 4.68178 20.7392C4.74116 20.9844 4.85252 21.2124 5.01336 21.4056C4.42938 21.4923 4.26111 22.1588 3.67712 22.2455C3.77858 22.3372 3.786 22.4908 3.69445 22.5923C3.66475 22.6246 3.63011 22.6469 3.58804 22.6617C3.06592 22.8029 2.63535 23.1721 2.4176 23.6676C2.4176 23.8336 2.74918 23.9996 2.66505 24.0838C2.49678 24.2523 2.24933 24.002 2.08106 24.1705C1.62823 23.1002 1.29664 21.9829 1.09621 20.8383C1.26695 20.3403 0.52707 17.7513 0.19301 17.0898C0.012371 16.7306 -0.0445428 16.3193 0.0321671 15.9229C0.116301 15.6727 0.284567 15.5042 0.287042 15.3407C0.371175 15.4249 0.534493 15.42 0.70276 15.4224C0.621101 15.3258 0.623576 15.1846 0.705235 15.0905C0.873501 14.756 1.20756 14.756 1.62328 14.8353C1.78907 14.8353 2.12066 14.6643 2.20726 14.7486C2.15117 14.6924 2.12478 14.6098 2.12808 14.5008C2.29387 14.5008 2.1256 14.8328 2.45966 14.6668C2.37553 14.5826 2.45966 14.5008 2.38048 14.4191C2.63041 14.3348 2.54627 14.751 2.7962 14.6668C2.88033 14.5826 2.46461 14.5008 2.71701 14.4191L2.80115 14.5033C2.80362 14.1713 3.05602 13.9211 3.38513 14.0846C3.28368 14.0053 3.22181 13.8814 3.21934 13.7526C3.26388 13.7055 3.33812 13.7055 3.38266 13.7501C3.38266 13.7501 3.38266 13.7501 3.38513 13.7526H3.71672L4.21657 13.9136C4.46402 14.4959 4.7956 14.9963 5.04305 15.5785" fill="white" />
<path d="M22.4909 1.8581C22.4191 1.91261 22.33 1.94234 22.2409 1.94234C22.2409 2.10833 22.5725 2.10833 22.4884 2.35856C22.4438 2.40563 22.3696 2.40563 22.3251 2.36104C22.3251 2.36104 22.3251 2.36104 22.3226 2.35856L22.6542 2.69054C22.7259 2.93334 22.7532 3.18852 22.7334 3.44123C22.7334 3.44123 22.5676 3.44123 22.6492 3.52546C22.6492 3.65677 22.7111 3.77817 22.815 3.85745L22.7309 3.94169L22.815 4.02592C22.7284 4.77661 22.5577 5.61153 22.3894 6.44644C22.3053 6.69667 22.137 6.86514 22.1345 7.02866C22.1939 7.27393 22.3053 7.50186 22.4661 7.69511C21.8821 7.78182 21.7139 8.44827 21.1299 8.53498C21.2313 8.62665 21.2388 8.78026 21.1472 8.88183C21.1175 8.91404 21.0829 8.93634 21.0408 8.9512C20.5187 9.09242 20.0881 9.46157 19.8704 9.95707C19.8704 10.1231 20.2019 10.2891 20.1178 10.3733C19.9495 10.5418 19.7021 10.2915 19.5338 10.46C19.081 9.38972 18.7494 8.27237 18.549 7.12776C18.7197 6.62978 17.9798 4.04079 17.6458 3.37929C17.4651 3.02005 17.4082 2.60879 17.4849 2.21239C17.5691 1.96216 17.7373 1.79369 17.7398 1.63017C17.8239 1.71441 17.9873 1.70945 18.1555 1.71193C18.0739 1.61531 18.0763 1.47409 18.158 1.37994C18.3263 1.04548 18.6603 1.04548 19.076 1.12476C19.2418 1.12476 19.5734 0.953813 19.66 1.03805C19.6039 0.981891 19.5775 0.899307 19.5808 0.790297C19.7466 0.790297 19.5784 1.12228 19.9124 0.95629C19.8283 0.872055 19.9124 0.790297 19.8332 0.708539C20.0832 0.624304 19.999 1.04053 20.249 0.95629C20.3331 0.872055 19.9174 0.790297 20.1698 0.708539L20.2539 0.792775C20.2564 0.460789 20.5088 0.210561 20.8379 0.374076C20.7364 0.294796 20.6746 0.170921 20.6721 0.0420902C20.7166 -0.00498246 20.7909 -0.00498247 20.8354 0.0396127C20.8354 0.0396127 20.8354 0.0396127 20.8379 0.0420902H21.1695L21.6693 0.203128C21.9168 0.785342 22.2484 1.2858 22.4958 1.86801" fill="white" />
<path d="M24.9975 30.2578C24.9159 30.2949 24.8218 30.3024 24.7352 30.2801C24.6956 30.4411 25.0198 30.5204 24.8788 30.7433C24.8243 30.778 24.7526 30.7607 24.7179 30.7087C24.7179 30.7087 24.7179 30.7087 24.7179 30.7062L24.9629 31.1075C24.9753 31.3602 24.9431 31.6154 24.8639 31.8558C24.8639 31.8558 24.7006 31.8161 24.7625 31.9177C24.7328 32.044 24.7625 32.1778 24.8441 32.2794L24.7427 32.3413L24.8045 32.4429C24.5447 33.1515 24.1809 33.9245 23.8197 34.695C23.6786 34.9179 23.4757 35.0418 23.4361 35.2004C23.4361 35.4506 23.4906 35.6984 23.5994 35.9263C23.013 35.8718 22.6888 36.4813 22.1024 36.4268C22.1791 36.5382 22.1494 36.6918 22.038 36.7686C22.0034 36.7934 21.9613 36.8083 21.9192 36.8108C21.3773 36.8232 20.8725 37.0808 20.5434 37.5119C20.5038 37.6729 20.7884 37.9133 20.6869 37.9752C20.484 38.0991 20.3009 37.7968 20.1005 37.9207C19.9124 36.7736 19.853 35.6092 19.9273 34.4497C20.2094 34.0037 20.1029 31.3157 19.9347 30.5922C19.8431 30.1983 19.8852 29.787 20.0535 29.4204C20.1945 29.1974 20.3974 29.0735 20.437 28.9149C20.4989 29.0165 20.6597 29.0512 20.823 29.0933C20.7661 28.9818 20.8008 28.8431 20.9047 28.7713C21.1472 28.4863 21.4714 28.5631 21.8549 28.7415C22.0182 28.7812 22.3795 28.6945 22.4414 28.796C22.4001 28.7283 22.3935 28.6416 22.4216 28.5359C22.5849 28.5755 22.3399 28.858 22.7061 28.7762C22.6443 28.6746 22.7457 28.6152 22.6863 28.5161C22.9486 28.4938 22.768 28.8778 23.0328 28.8555C23.1342 28.7936 22.7482 28.6152 23.013 28.5954L23.0748 28.6969C23.1565 28.3749 23.4584 28.1915 23.743 28.4269C23.6613 28.3253 23.6316 28.1915 23.6613 28.0652C23.7157 28.0305 23.7875 28.0478 23.8221 28.0998C23.8221 28.0998 23.8221 28.0998 23.8221 28.1023L24.1438 28.1767L24.5892 28.4541C24.6932 29.0785 24.8961 29.6433 25 30.2677" fill="white" />
</svg>