<svg width="60" height="75" viewBox="0 0 60 75" fill="none" xmlns="http://www.w3.org/2000/svg">
<path d="M4.17678 61.1009H6.402V66.1022C6.55463 65.9402 6.7394 65.773 6.96165 65.6031C7.18391 65.4332 7.44097 65.2739 7.73285 65.1306C8.01937 64.9925 8.3407 64.8757 8.69952 64.7828C9.05834 64.6899 9.45465 64.6448 9.88577 64.6448C10.3169 64.6448 10.6784 64.7058 11.0158 64.8279C11.3532 64.9501 11.6424 65.1279 11.8834 65.3668C12.1217 65.6111 12.3065 65.9084 12.435 66.2614C12.5635 66.6145 12.6278 67.026 12.6278 67.4958V74.2704H10.4026V68.04C10.4026 67.5144 10.2901 67.1268 10.0598 66.88C9.83222 66.6331 9.4734 66.511 8.98337 66.511C8.49334 66.511 8.04615 66.6251 7.6311 66.8508C7.21336 67.0764 6.80367 67.3711 6.39932 67.7374V74.2678H4.17678V61.1009ZM17.4049 74.1855C16.8506 73.997 16.3526 73.7023 15.9161 73.3042C15.4796 72.906 15.1262 72.3963 14.8611 71.7751C14.596 71.1566 14.4621 70.4133 14.4621 69.5505C14.4621 68.6878 14.596 67.9365 14.8611 67.3153C15.1262 66.6941 15.4796 66.1845 15.9161 65.7916C16.3472 65.3987 16.8426 65.1093 17.3969 64.9235C17.9512 64.7377 18.5216 64.6448 19.1053 64.6448C19.6891 64.6448 20.2514 64.7377 20.8084 64.9235C21.3654 65.1093 21.8634 65.3987 22.3026 65.7916C22.7337 66.1845 23.0845 66.6941 23.3549 67.3153C23.6227 67.9365 23.7566 68.6825 23.7566 69.5505C23.7566 70.1239 23.695 70.6442 23.5718 71.1141C23.4487 71.584 23.28 72.0007 23.0631 72.3644C22.8462 72.7281 22.5918 73.044 22.2972 73.3068C22.0027 73.5696 21.684 73.7873 21.3386 73.9545C20.9931 74.1271 20.6316 74.2572 20.2514 74.3421C19.8712 74.4271 19.4882 74.4669 19.1026 74.4669C18.5242 74.4669 17.9566 74.374 17.4023 74.1855H17.4049ZM20.9182 71.8229C21.3279 71.2813 21.5314 70.5248 21.5314 69.5505C21.5314 69.1098 21.4832 68.7063 21.3868 68.3347C21.2904 67.9631 21.1431 67.6418 20.9449 67.3711C20.7468 67.1056 20.4951 66.8959 20.1925 66.7419C19.8899 66.588 19.5257 66.511 19.1053 66.511C18.709 66.511 18.3582 66.58 18.053 66.7207C17.7477 66.8614 17.4987 67.0605 17.3005 67.3206C17.097 67.5808 16.9417 67.8993 16.8399 68.2763C16.7382 68.6533 16.6873 69.078 16.6873 69.5532C16.6873 70.0283 16.7328 70.4186 16.8265 70.7955C16.9203 71.1725 17.0649 71.4964 17.2657 71.7671C17.4665 72.0379 17.7156 72.2529 18.0181 72.4042C18.3207 72.5582 18.6849 72.6352 19.1053 72.6352C19.906 72.6352 20.5111 72.3644 20.9182 71.8229ZM25.7114 64.8279H27.9178V66.3384C28.0999 66.1287 28.3034 65.927 28.531 65.7252C28.7587 65.5261 29.0157 65.3456 29.3022 65.1837C29.5834 65.0217 29.8914 64.8917 30.2261 64.7934C30.5608 64.6952 30.9277 64.6448 31.3266 64.6448C31.7658 64.6448 32.1567 64.7005 32.5049 64.8147C32.853 64.9288 33.1475 65.0961 33.3939 65.3217C33.6322 65.5473 33.8196 65.8314 33.9508 66.1765C34.0821 66.5216 34.149 66.9278 34.149 67.3976V74.2678H31.9425V68.0215C31.9425 67.5011 31.8301 67.1083 31.6051 66.8481C31.3802 66.588 31.0133 66.4579 30.5046 66.4579C29.9958 66.4579 29.5673 66.5667 29.1523 66.7871C28.7346 67.0074 28.3249 67.3047 27.9205 67.6817V74.2651H25.714V64.8253L25.7114 64.8279ZM38.9208 74.1855C38.3665 73.997 37.8684 73.7023 37.4319 73.3042C36.9955 72.906 36.642 72.3963 36.3769 71.7751C36.1118 71.1566 35.9779 70.4133 35.9779 69.5505C35.9779 68.6878 36.1118 67.9365 36.3769 67.3153C36.642 66.6941 36.9955 66.1845 37.4319 65.7916C37.8631 65.3987 38.3584 65.1093 38.9127 64.9235C39.467 64.7377 40.0374 64.6448 40.6212 64.6448C41.2049 64.6448 41.7672 64.7377 42.3242 64.9235C42.8812 65.1093 43.3793 65.3987 43.8184 65.7916C44.2495 66.1845 44.6003 66.6941 44.8708 67.3153C45.1385 67.9365 45.2724 68.6825 45.2724 69.5505C45.2724 70.1239 45.2108 70.6442 45.0877 71.1141C44.9645 71.584 44.7958 72.0007 44.5789 72.3644C44.362 72.7281 44.1076 73.044 43.8131 73.3068C43.5185 73.5696 43.1998 73.7873 42.8544 73.9545C42.509 74.1271 42.1475 74.2572 41.7672 74.3421C41.387 74.4271 41.0041 74.4669 40.6185 74.4669C40.0401 74.4669 39.4724 74.374 38.9181 74.1855H38.9208ZM42.434 71.8229C42.8437 71.2813 43.0472 70.5248 43.0472 69.5505C43.0472 69.1098 42.999 68.7063 42.9026 68.3347C42.8062 67.9631 42.6589 67.6418 42.4608 67.3711C42.2626 67.1056 42.0109 66.8959 41.7083 66.7419C41.4057 66.588 41.0416 66.511 40.6212 66.511C40.2249 66.511 39.8741 66.58 39.5688 66.7207C39.2635 66.8614 39.0145 67.0605 38.8163 67.3206C38.6128 67.5808 38.4575 67.8993 38.3558 68.2763C38.254 68.6533 38.2031 69.078 38.2031 69.5532C38.2031 70.0283 38.2487 70.4186 38.3424 70.7955C38.4361 71.1725 38.5807 71.4964 38.7815 71.7671C38.9824 72.0379 39.2314 72.2529 39.534 72.4042C39.8366 72.5582 40.2008 72.6352 40.6212 72.6352C41.4218 72.6352 42.027 72.3644 42.434 71.8229ZM49.6184 74.1855C49.0641 73.997 48.5661 73.7023 48.1296 73.3042C47.6905 72.906 47.3397 72.3963 47.0746 71.7751C46.8095 71.1566 46.6756 70.4133 46.6756 69.5505C46.6756 68.6878 46.8095 67.9365 47.0746 67.3153C47.3397 66.6941 47.6931 66.1845 48.1296 65.7916C48.5607 65.3987 49.0561 65.1093 49.6104 64.9235C50.1647 64.7377 50.7351 64.6448 51.3188 64.6448C51.9026 64.6448 52.4649 64.7377 53.0219 64.9235C53.5789 65.1093 54.0769 65.3987 54.5161 65.7916C54.9472 66.1845 55.298 66.6941 55.5684 67.3153C55.8362 67.9365 55.9701 68.6825 55.9701 69.5505C55.9701 70.1239 55.9085 70.6442 55.7853 71.1141C55.6622 71.584 55.4935 72.0007 55.2766 72.3644C55.0597 72.7281 54.8053 73.044 54.5107 73.3068C54.2162 73.5696 53.8975 73.7873 53.5521 73.9545C53.2067 74.1271 52.8452 74.2572 52.4649 74.3421C52.0847 74.4271 51.7017 74.4669 51.3161 74.4669C50.7378 74.4669 50.1701 74.374 49.6158 74.1855H49.6184ZM53.1317 71.8229C53.5414 71.2813 53.7449 70.5248 53.7449 69.5505C53.7449 69.1098 53.6967 68.7063 53.6003 68.3347C53.5039 67.9631 53.3566 67.6418 53.1585 67.3711C52.9603 67.1056 52.7086 66.8959 52.406 66.7419C52.1034 66.588 51.7392 66.511 51.3188 66.511C50.9225 66.511 50.5717 66.58 50.2665 66.7207C49.9639 66.8587 49.7122 67.0605 49.514 67.3206C49.3105 67.5808 49.1552 67.8993 49.0534 68.2763C48.9517 68.6533 48.9008 69.078 48.9008 69.5532C48.9008 70.0283 48.9463 70.4186 49.04 70.7955C49.1338 71.1725 49.2784 71.4964 49.4765 71.7671C49.6747 72.0379 49.9264 72.2529 50.229 72.4042C50.5316 72.5582 50.8957 72.6352 51.3161 72.6352C52.1168 72.6352 52.7193 72.3644 53.129 71.8229H53.1317Z" fill="#9E172F"/>
<path d="M43.3766 23.2115C43.3573 23.0668 43.2906 22.934 43.1883 22.8311C43.3766 22.6417 43.7503 23.0205 43.9387 22.6417C43.9402 22.5387 43.8601 22.4537 43.7578 22.4522C43.7563 22.4522 43.7533 22.4522 43.7518 22.4522H44.5022C44.8582 22.2583 45.177 22.0003 45.441 21.6915C45.441 21.6915 45.2526 21.502 45.441 21.502C45.5908 21.3559 45.7969 21.2858 46.003 21.3126V21.1232H46.1914C46.9418 20.1715 47.6922 19.0304 48.4411 17.8908C48.6295 17.5104 48.6295 17.13 48.8119 16.9391C49.1544 16.7288 49.5385 16.5975 49.9375 16.5587C49.3754 15.798 49.9375 14.8463 49.3754 14.0856C49.5919 14.0975 49.7758 13.9305 49.7877 13.7127C49.7907 13.6441 49.7773 13.5755 49.7462 13.5143C49.3131 12.761 49.2449 11.8511 49.5578 11.0412C49.7462 10.8517 50.3082 11.0412 50.3082 10.8517C50.3082 10.4713 49.7462 10.4713 49.7462 10.091C48.0259 10.7891 46.3886 11.6826 44.87 12.7551C44.4993 13.5158 40.7428 15.6145 39.6172 15.9874C39.0062 16.1903 38.4782 16.5916 38.1164 17.1286C37.928 17.5089 37.928 17.8893 37.7456 18.0802C37.934 18.0802 38.1164 18.2697 38.3077 18.4606C38.1075 18.477 37.9503 18.6396 37.9369 18.841C37.7486 19.4108 38.1253 19.7926 38.6873 20.173C38.8757 20.3624 39.0581 20.9337 39.2494 20.9337C39.1238 20.9337 39.0003 20.9969 38.8786 21.1232C39.067 21.3126 39.2494 20.7428 39.4407 21.3126C39.2524 21.3126 39.2524 21.502 39.07 21.502C39.2583 21.8824 39.632 21.3126 39.8204 21.6915C39.8204 21.8809 39.2583 21.5021 39.4496 21.8809H39.6379C39.2672 22.2613 39.2672 22.8326 39.8263 23.022C39.6201 22.9967 39.4125 23.0668 39.2642 23.2115C39.2627 23.3144 39.3428 23.3994 39.4452 23.4009C39.4466 23.4009 39.4496 23.4009 39.4511 23.4009L39.8218 23.7813L40.5722 24.1617C41.511 23.7813 42.4483 23.5918 43.387 23.21" fill="#9E172F"/>
<path d="M11.4904 22.8311C11.4904 22.6417 11.6787 22.6417 11.6787 22.4507C11.4904 22.2613 11.1166 22.6402 10.9283 22.2613C10.9268 22.1584 11.0069 22.0733 11.1092 22.0719C11.1107 22.0719 11.1137 22.0719 11.1152 22.0719H10.3633C10.0073 21.8779 9.6885 21.6199 9.426 21.3111C9.426 21.3111 9.61435 21.1217 9.426 21.1217C9.27622 20.9755 9.07008 20.9054 8.86394 20.9322V20.7428H8.6756C7.92519 19.7911 7.17479 18.65 6.42438 17.5104C6.41845 17.1584 6.28646 16.8213 6.05363 16.5587C5.86529 16.1784 5.30322 16.1784 4.92802 15.9889C5.49008 15.2282 4.92802 14.2765 5.49008 13.5158C5.30174 13.5158 4.92802 13.3263 5.11933 13.1354C5.46042 12.3568 5.52568 11.4842 5.30767 10.6623C5.10747 10.4684 4.73671 10.4684 4.73671 10.2774C4.73671 9.89706 5.29878 9.89706 5.29878 9.70613C7.01907 10.4042 8.65484 11.2992 10.1749 12.3702C10.5457 13.1309 14.1138 15.2297 15.2424 15.6026C15.9928 15.983 16.5548 16.3633 16.7432 16.9346C16.9315 17.1241 16.9315 17.5044 17.1139 17.8863C16.9256 18.0757 16.7432 18.0757 16.5519 18.2667C16.7402 18.2667 17.1139 18.4561 17.1139 18.647C17.3023 19.2168 16.9256 19.5987 16.3635 19.9791C16.1752 20.1685 15.9928 20.7398 15.8015 20.7398C15.927 20.7398 16.0506 20.803 16.1722 20.9293C15.9839 21.1187 15.8015 20.5489 15.6102 20.9293C15.7985 20.9293 15.7985 21.1187 15.9809 21.1187C15.7926 21.4991 15.4189 20.9293 15.2305 21.3081C15.2305 21.4976 15.7926 21.1187 15.6013 21.4976H15.4129C15.7837 21.8779 15.7837 22.4492 15.2246 22.6387C15.4307 22.6133 15.6383 22.6834 15.7866 22.8281H15.4159L15.6042 23.0176C15.6057 23.1205 15.5256 23.2055 15.4233 23.207C15.4218 23.207 15.4189 23.207 15.4174 23.207L15.0466 23.5874L14.2962 23.9677C13.3278 23.6694 12.3861 23.2875 11.4829 22.8266" fill="#9E172F"/>
<path d="M25.3669 13.5083C25.5552 13.5083 25.7377 13.5083 25.7377 13.6978C25.7377 13.8872 25.5493 14.0781 25.5493 14.4585C25.5493 14.6479 25.361 14.6479 25.361 14.8389C25.361 15.0298 25.1726 15.0283 25.1726 15.2192C24.9843 15.5996 24.6106 15.98 24.6106 16.3603L24.7989 16.5498C24.6091 16.9108 24.354 17.233 24.0485 17.5015C23.9091 17.8923 23.6451 18.2264 23.2981 18.4531C23.1542 18.7932 22.9644 19.1139 22.736 19.4048L22.5477 19.9746C22.5477 20.164 22.3594 20.355 22.3594 20.5444C22.2155 20.8845 22.0257 21.2052 21.7973 21.4946L21.6089 22.0644C21.6089 22.2538 21.4206 22.4448 21.4206 22.6342C21.5462 22.6342 21.6089 22.6973 21.6089 22.8236C21.4206 23.204 21.2382 23.3934 21.0469 23.7738C20.8556 24.1542 20.4848 24.5346 20.2965 24.9149C20.2965 25.1044 20.1081 25.1044 20.1081 25.2953C20.1081 25.4862 20.1081 25.4847 20.2965 25.4847C20.1081 25.8651 19.7344 26.0545 19.5461 26.4349C19.3577 27.0047 18.984 27.3851 18.7957 27.9564C18.6073 28.5277 18.2336 28.9066 18.0453 29.4779C17.6745 30.0477 17.4832 30.428 17.108 30.9993C16.9122 31.2097 16.7832 31.4752 16.7372 31.7601L16.5489 32.1404C16.5489 32.3299 16.3606 32.3299 16.3606 32.5208C15.9898 33.0906 15.7985 33.471 15.4233 34.0423C15.0436 34.5047 14.7292 35.0163 14.486 35.5638C14.1153 36.1336 13.7356 36.5139 13.3604 37.0852C13.1721 37.2747 12.9897 37.6551 12.7984 37.846C12.6071 38.0369 12.4276 38.4158 12.2363 38.6067C11.5838 38.8379 11.0454 39.3153 10.7355 39.9373C10.5056 40.1222 10.3692 40.4012 10.3647 40.698C10.3647 40.8874 10.1764 40.8875 10.1764 41.0784C10.1764 41.2693 9.98805 41.2678 9.98805 41.4587C9.40671 42.0793 8.7794 42.6565 8.11204 43.1831C7.74129 43.5635 7.36163 43.7529 7.17477 44.1333C6.80402 44.3227 6.61271 44.7031 6.23751 44.894C6.60826 45.0834 6.23751 46.0351 5.86676 46.7973C5.496 47.5596 5.11635 48.3188 5.86676 48.5097C5.11635 49.2705 3.80388 50.2222 3.99074 50.4131C4.15684 50.9023 4.22061 51.4199 4.17909 51.9346C4.14943 52.3731 3.94625 52.7833 3.61554 53.0712C3.31894 53.6335 2.93929 54.1467 2.48993 54.5927C1.73805 55.3594 0.237235 56.1201 0.0488927 56.5005C-0.321861 57.0703 1.5497 56.1201 1.1745 56.6899C2.86217 55.3594 4.36298 54.2168 5.86379 52.8847C6.6142 52.3149 7.3646 51.5542 8.11501 50.9814C8.86541 50.2207 9.61582 49.6509 10.3647 48.8886C13.178 46.0291 15.9913 43.1801 18.8061 40.1357C18.9944 39.9462 18.9944 39.7553 19.1768 39.5659C19.3592 39.3764 19.5476 38.996 19.7389 38.8051C19.9272 38.4247 20.3009 38.0444 20.4893 37.664L21.0513 37.0942L21.6134 36.5244C22.0331 36.0515 22.4098 35.5429 22.739 35.0029C23.1098 34.4331 23.4894 34.0527 23.8646 33.4814L24.9902 31.769C25.1786 31.5796 25.1786 31.3887 25.361 31.3887C25.5493 31.1992 25.5493 31.0083 25.7317 31.0083C25.9201 30.6279 26.1025 30.4385 26.2938 30.0581C26.4851 29.6777 26.6645 29.4883 26.8559 29.1079C27.0442 28.9185 27.0442 28.7276 27.2266 28.7276L27.5974 28.3472C27.7857 27.9668 27.9681 27.7774 28.1594 27.397C28.0339 26.8899 28.0339 26.5731 28.1594 26.4468C28.1787 26.3022 28.2454 26.1694 28.3478 26.0665C28.7348 25.4713 29.0492 24.8329 29.2865 24.1631C29.4749 23.7828 29.6573 23.5933 29.8486 23.213C30.0399 22.8326 30.2193 22.6432 30.2193 22.2628C30.4077 21.8824 30.5901 21.693 30.5901 21.502C30.7784 21.3126 30.7784 20.9322 30.9608 20.7413C31.1432 20.5504 31.1492 20.1715 31.3316 19.9806C31.514 19.7896 31.5199 19.4108 31.7023 19.2198C31.8551 18.7619 32.0434 18.3174 32.2644 17.8878C32.2644 17.6984 32.4527 17.5074 32.4527 17.318C32.4527 17.1285 32.6411 16.9376 32.6411 16.7482C32.6604 16.6035 32.7271 16.4707 32.8294 16.3678C33.0178 15.9874 33.0178 15.798 33.2002 15.4161C33.3885 14.8463 33.5709 14.6554 33.5709 14.275C33.5709 14.0856 33.7593 13.8947 33.7593 13.7052V13.3249C33.7593 12.9445 33.9476 12.5641 33.9476 12.1837C33.9476 11.8034 34.136 11.423 34.136 11.0426C34.136 10.6623 34.3243 10.2819 34.3243 9.90153V6.46329C34.3362 6.13513 34.2724 5.80995 34.136 5.51312C34.136 5.32368 33.9476 4.94182 33.9476 4.75238C33.875 5.08651 33.7504 5.4087 33.5769 5.70255V4.18555C33.5769 3.61425 33.5769 3.23538 33.3885 3.04445C33.2002 1.90334 32.8265 1.7139 32.6381 1.7139C32.3445 2.06444 32.0939 2.4463 31.8877 2.85501C31.6994 3.23538 31.517 3.04445 31.3257 3.04445C31.1343 3.04445 30.9549 3.04445 30.7636 3.61574V1.90483C30.5753 1.90483 30.7636 2.47464 30.7636 2.85501C30.7636 3.23538 30.7636 3.80518 30.5753 3.42631V1.14111C30.4729 1.24403 30.4077 1.37679 30.3869 1.52148V3.04445C30.3869 3.23388 30.3869 3.42481 30.1986 3.23388V1.52148C30.1986 1.39518 30.1358 1.33204 30.0102 1.33204V2.28222C30.0384 2.01372 29.9717 1.74522 29.8219 1.52148V1.71092C29.6335 1.33055 29.6335 1.14111 29.4511 0.950177C29.2687 0.759247 29.0804 0.950177 28.8891 1.71092V0C28.8891 0.189439 28.8891 0.760738 29.0774 0.950177V0.189439L28.8891 0.378878V0.759247C28.8891 0.948685 28.7007 0.948685 28.7007 1.13962C28.7259 1.34845 28.6577 1.55728 28.5124 1.70942C28.5124 1.89886 28.324 2.08979 28.324 2.27923C28.3048 2.42392 28.238 2.55668 28.1357 2.6596V4.37201C28.1654 4.82398 28.1016 5.27744 27.9473 5.70405V6.27535L27.759 7.03608V7.79682L27.5707 8.36812C26.6883 10.0134 25.9482 11.7333 25.3625 13.5068" fill="white"/>
<path d="M34.1849 42.048C34.3732 41.8585 34.3732 41.6676 34.5556 41.8585C35.1177 42.2389 34.9264 42.9996 35.4944 43.1891L35.6827 42.9996C35.8607 43.4814 36.1128 43.9304 36.4331 44.3302C37.1672 44.9119 37.8568 45.5473 38.496 46.2335L38.6843 46.0441C39.0551 46.2335 39.2464 46.6139 39.6231 47.1852C39.7254 47.1837 39.8084 47.2642 39.8114 47.3671C39.8114 47.3701 39.8114 47.3731 39.8114 47.3761H39.9998C40.1881 47.5655 40.3705 47.7565 40.3705 47.9459C42.6202 49.4674 44.8715 50.9904 47.311 52.5118C47.9116 52.755 48.4796 53.0742 48.9987 53.462C49.6749 54.1124 50.3022 54.8119 50.8747 55.5548C51.4368 54.794 53.3128 55.9352 53.6895 54.985C54.0602 55.3653 54.6267 56.1261 54.8151 55.9352C55.6915 55.2833 56.8661 55.2087 57.8152 55.7457C58.3773 56.1261 58.7525 57.0763 58.9408 57.0763C59.3116 57.0763 58.7525 56.1261 59.3116 56.1261C56.4968 52.7013 53.3098 50.0357 50.1198 46.8033C48.8074 46.0426 41.4931 38.8111 39.804 36.9107L39.6157 36.7213C38.6799 35.5623 37.5335 34.5927 36.2388 33.8618L34.5512 33.292C34.5512 33.6724 34.7395 33.8618 34.7395 34.0527C34.4132 33.6813 34.0336 33.3606 33.6139 33.1026C32.4883 32.5328 32.6752 33.292 32.4883 34.2437C32.4883 34.624 31.9262 34.624 32.1175 35.1938C31.8862 34.9761 31.6949 34.7195 31.5555 34.4331C31.3671 34.6225 32.4942 35.1938 31.9262 35.3833C31.7379 35.0029 31.3642 34.8135 31.1758 34.6225C30.9875 35.0029 31.9262 35.5727 31.7379 35.9531C31.5495 35.9531 31.3671 34.812 30.9875 35.1924C31.0868 35.3967 31.2114 35.5891 31.3582 35.7622C30.6078 34.2407 29.8574 34.2407 30.2326 35.1924C30.0443 35.0029 29.6706 34.4316 29.4822 34.2422C29.6706 34.4316 29.853 34.6225 29.853 34.812C29.6646 34.6225 29.4822 34.4316 29.4822 34.2422V34.4316C29.5015 34.5763 29.5682 34.7091 29.6706 34.812L29.2998 34.4316V35.0014C29.4882 35.5712 29.4882 36.332 29.6706 36.5229C31.1714 38.4262 32.6707 40.3281 34.1715 42.0405" fill="white"/>
</svg>
