<svg width="51" height="37" viewBox="0 0 51 37" fill="none" xmlns="http://www.w3.org/2000/svg">
<path d="M0.877658 31.5828L0.90114 13.4023L0.827759 13.4081L0.904075 12.5483C1.38546 7.22109 6.70413 2.13788 13.0091 0.976C13.9043 0.810432 14.7996 0.726196 15.6684 0.726196C16.276 0.726196 16.8777 0.766862 17.456 0.848193L17.4912 0.854003L42.9339 5.71065C47.3897 6.56754 50.2662 9.74818 50.2633 13.8177L50.2486 31.9023L26.4731 36.2593L0.877658 31.5828Z" fill="#1D1D1B"/>
<path d="M15.6684 1.45235C16.2496 1.45235 16.8102 1.49011 17.3532 1.56854L42.796 6.42518C46.7703 7.18912 49.5353 9.98053 49.5324 13.8176L49.5177 31.2981L26.476 35.5215L1.61145 30.9786L1.63494 12.6151H1.632C2.08403 7.63063 7.07689 2.80593 13.1441 1.68763C14.0129 1.52787 14.8582 1.45235 15.6684 1.45235ZM15.6684 0C14.7555 0 13.8133 0.0871408 12.874 0.261423C9.67459 0.851076 6.61606 2.4109 4.26199 4.65623C1.87563 6.93641 0.422676 9.7162 0.170245 12.4844L0 14.3347L0.164374 14.3085L0.143827 30.9757L0.143827 32.1869L1.34435 32.4077L26.2089 36.9506L26.476 37L26.7431 36.9506L49.7848 32.7272L50.9853 32.5064V31.2981L51 13.8176C51.0029 9.38507 47.8945 5.92267 43.0778 4.99898L17.635 0.14233L17.5998 0.136521L17.5616 0.130711C16.9481 0.0464751 16.3112 0.00290469 15.6713 0.00290469L15.6684 0Z" fill="white"/>
<path d="M21.4389 26.6884L7.54932 24.1642V13.6289L21.4389 16.1531V26.6884ZM8.42989 23.4381L20.5584 25.6427V16.8793L8.42989 14.6746V23.4381Z" fill="white"/>
<path d="M28.3014 17.7303L28.3073 17.1755L48.4519 13.5011L48.4196 14.1111L28.3014 17.7303Z" fill="white"/>
<path d="M28.1517 17.9046L28.1605 17.0535L48.6075 13.3239L48.5576 14.233L48.4431 14.2534L28.1488 17.9046H28.1517ZM28.4511 17.2946V17.556L48.2788 13.989L48.2964 13.6782L28.4511 17.2975V17.2946Z" fill="white"/>
<path d="M14.1155 23.9463C14.1155 23.9463 15.7827 22.523 16.6281 22.0118C17.0889 21.733 18.3951 21.0155 18.6652 19.9204C18.9763 18.6569 18.2718 16.8008 15.8825 16.702C14.3738 16.6381 14.1507 18.5959 14.1507 18.5959C14.1507 18.5959 13.8954 16.5655 12.3867 16.1734C9.99736 15.5518 9.2929 17.1958 9.60404 18.5523C9.87408 19.7316 11.1773 20.8412 11.6411 21.2595C12.4865 22.0234 14.1185 23.9463 14.1185 23.9463H14.1155Z" fill="white"/>
<path d="M36.9284 25.3115C36.3971 25.3115 35.8981 25.1401 35.5195 24.8177C35.0792 24.4429 34.8356 23.9085 34.8356 23.3101V21.8171C34.8356 21.576 35.0322 21.3814 35.2759 21.3814C35.5195 21.3814 35.7161 21.576 35.7161 21.8171V23.3101C35.7161 23.65 35.8512 23.9491 36.0919 24.1554C36.3678 24.3907 36.7494 24.4836 37.172 24.4197L39.0389 24.135C39.9018 24.0043 40.6298 23.223 40.6298 22.4271V20.876C40.618 20.6349 40.8059 20.4316 41.0495 20.4228C41.2873 20.4025 41.4986 20.5971 41.5074 20.8382C41.5074 20.8702 41.5074 20.9021 41.5074 20.9341V22.4271C41.5074 23.6674 40.4801 24.7973 39.1709 24.9948L37.3012 25.2795C37.175 25.2998 37.0458 25.3085 36.9225 25.3085L36.9284 25.3115Z" fill="white"/>
<path d="M27.28 17.5821C27.7849 12.9491 32.4871 8.53396 38.2138 7.49118C40.0572 7.15423 41.7948 7.20652 43.3182 7.58122L43.0717 7.41856L40.5503 6.90443C39.1296 6.61977 37.5416 6.60234 35.8656 6.91024C30.7436 7.84555 26.4464 11.459 25.2341 15.5285L25.2283 15.5459L5.2568 11.9237L5.22451 11.915C6.48667 7.89493 10.7545 4.33087 15.8237 3.40717C17.4058 3.11961 20.2765 3.24742 20.2765 3.24742L18.5153 2.92499C17.2708 2.75652 15.9176 2.78557 14.5028 3.04409C8.7204 4.09559 4.02987 8.25221 3.60132 12.9317" fill="white"/>
<path d="M3.53381 30.7056L4.84294 30.9583L4.85468 15.4908L7.80167 16.0368L7.83983 14.2563L3.58371 13.4952L3.53381 30.7056Z" fill="white"/>
<path d="M3.62258 12.8423L3.44482 13.8141L27.2301 18.0746L27.4079 17.1028L3.62258 12.8423Z" fill="#1D1D1B"/>
<path d="M20.5586 18.2908L20.5557 16.58L27.1482 17.6721L27.0367 34.7256L24.894 34.4003L24.9086 18.9444L20.5586 18.2908Z" fill="white"/>
</svg>
